<svg width="88" height="84" viewBox="0 0 88 84" fill="none" xmlns="http://www.w3.org/2000/svg">
<path d="M36.6094 5.11621C39.6025 -0.372047 47.4834 -0.37207 50.4766 5.11621L57.7773 18.5039C59.2008 21.114 61.7223 22.9458 64.6445 23.4932L79.6338 26.2998C85.7781 27.4506 88.2133 34.9457 83.9189 39.4883L73.4424 50.5693C71.3998 52.7298 70.4367 55.6941 70.8193 58.6426L72.7812 73.7646C73.5857 79.9641 67.2099 84.5968 61.5625 81.916L47.7871 75.376C45.1014 74.1011 41.9846 74.1012 39.2988 75.376L25.5225 81.916C19.8751 84.5966 13.4993 79.964 14.3037 73.7646L16.2666 58.6426C16.6492 55.6942 15.686 52.7298 13.6436 50.5693L3.16699 39.4883C-1.12772 34.9457 1.30755 27.4505 7.45215 26.2998L22.4404 23.4932C25.3627 22.9459 27.884 21.114 29.3076 18.5039L36.6094 5.11621Z" fill="#78CEEF" stroke="#1B1F4B" stroke-width="2"/>
</svg>
