<svg width="63" height="63" viewBox="0 0 63 63" fill="none" xmlns="http://www.w3.org/2000/svg">
<path d="M24.8828 5.57031C27.1381 -0.523479 35.7574 -0.523518 38.0127 5.57031L41.792 15.7852C42.7035 18.2485 44.6461 20.1909 47.1094 21.1025L57.3242 24.8828C63.4185 27.1379 63.4185 35.7576 57.3242 38.0127L47.1094 41.792C44.6461 42.7036 42.7036 44.6461 41.792 47.1094L38.0127 57.3242C35.7576 63.4185 27.1379 63.4185 24.8828 57.3242L21.1025 47.1094C20.1909 44.6461 18.2485 42.7035 15.7852 41.792L5.57031 38.0127C-0.523519 35.7574 -0.523478 27.1381 5.57031 24.8828L15.7852 21.1025C18.2486 20.191 20.191 18.2486 21.1025 15.7852L24.8828 5.57031Z" fill="#C4DD83"/>
<path d="M24.8828 5.57031C27.1381 -0.523479 35.7574 -0.523518 38.0127 5.57031L41.792 15.7852C42.7035 18.2485 44.6461 20.1909 47.1094 21.1025L57.3242 24.8828C63.4185 27.1379 63.4185 35.7576 57.3242 38.0127L47.1094 41.792C44.6461 42.7036 42.7036 44.6461 41.792 47.1094L38.0127 57.3242C35.7576 63.4185 27.1379 63.4185 24.8828 57.3242L21.1025 47.1094C20.1909 44.6461 18.2485 42.7035 15.7852 41.792L5.57031 38.0127C-0.523519 35.7574 -0.523478 27.1381 5.57031 24.8828L15.7852 21.1025C18.2486 20.191 20.191 18.2486 21.1025 15.7852L24.8828 5.57031Z" stroke="#81FF9A" style="mix-blend-mode:overlay" stroke-width="2"/>
</svg>
