<svg width="139" height="59" viewBox="0 0 139 59" fill="none" xmlns="http://www.w3.org/2000/svg">
<g filter="url(#filter0_d_4_1069)">
<mask id="path-1-outside-1_4_1069" maskUnits="userSpaceOnUse" x="0" y="0" width="139" height="51" fill="black">
<rect fill="white" width="139" height="51"/>
<path d="M63.6719 11.0879C65.9093 11.0879 67.507 12.3682 67.7627 14.9922C68.4659 21.9041 68.4659 29.7123 67.7627 36.6562C67.5069 39.216 65.9092 40.4961 63.6719 40.4961C61.0829 40.4961 59.3249 39.0235 59.6445 36.1436C60.4436 29.2637 60.4439 22.3516 59.6768 15.7598C59.3252 12.5919 61.0829 11.0879 63.6719 11.0879ZM124.382 11.0557C126.619 11.0557 128.217 12.336 128.473 14.96C129.176 21.872 129.176 29.68 128.473 36.624C128.217 39.1839 126.619 40.4639 124.382 40.4639C121.793 40.4639 120.035 38.9921 120.354 36.1123C121.154 29.2323 121.154 22.3195 120.387 15.7275C120.035 12.5598 121.793 11.0557 124.382 11.0557ZM78.9248 24.1436C82.4723 24.1437 83.4951 25.552 83.4951 28.3037C83.4951 29.3277 83.3988 30.3522 83.207 31.4082C87.2662 31.4722 91.2938 31.3122 95.5127 30.8643C97.9737 30.5763 99.3807 32.5277 99.3809 34.8955C99.3809 37.9034 97.9744 39.3758 95.4814 39.6318C88.3537 40.3678 81.7371 40.3678 74.6094 39.6318C72.1802 39.3758 70.7422 37.9035 70.7422 34.8955C70.7424 32.5277 72.1804 30.5763 74.6094 30.8643C74.4176 29.8403 74.3535 28.8801 74.3535 27.9521C74.3535 25.2321 75.6966 24.1436 78.9248 24.1436ZM24.3516 10C28.1227 10 30.5518 10.7359 30.7119 12.5596C30.7758 13.5835 30.3926 14.6722 29.4658 15.2803C30.9041 14.3844 32.5977 14 34.4834 14.1279C36.0814 14.2239 37.2322 15.3438 37.2324 17.1035C37.2324 18.7355 36.2095 19.9516 34.0361 20.4316C36.3374 21.6156 37.0088 23.3759 37.0088 25.4238C37.0088 28.3678 35.2506 30.7678 29.6572 31.6318C29.7212 31.8238 29.7529 32.0165 29.7529 32.2725C29.7529 32.5601 29.7207 32.7837 29.625 32.9756C31.319 32.8796 33.0135 32.7518 34.7715 32.5918C37.2324 32.3039 38.6387 33.6481 38.6387 35.792C38.6387 38.416 37.2323 39.3436 34.7393 39.5996C27.6115 40.3036 20.9949 40.3036 13.8672 39.5996C11.4382 39.3436 10 38.4159 10 35.792C10 33.6801 11.4382 32.304 13.8672 32.5918C15.6251 32.7518 17.3519 32.8796 19.0459 32.9756C18.9501 32.7837 18.918 32.5602 18.918 32.2725C18.918 32.0165 18.9497 31.8238 19.0137 31.6318C13.3882 30.7678 11.6621 28.3678 11.6621 25.4238C11.6621 23.4079 12.3332 21.6156 14.6025 20.4316C12.4611 19.9836 11.4062 18.8956 11.4062 17.2637C11.4064 15.504 12.557 14.1921 14.2188 14.1279C16.1046 13.9999 17.7033 14.3843 19.1416 15.2803C18.2466 14.7043 17.8631 13.5836 17.959 12.5596C18.0872 10.7359 20.5163 10 24.3516 10ZM110.286 10.6396C112.939 10.6396 114.729 11.5998 114.729 12.7197C114.729 13.1997 114.569 13.8401 113.994 14.2881C116.743 13.5842 119.46 14.832 119.46 17.0078C119.46 18.2558 118.66 19.2478 117.03 19.6318C116.711 19.6958 116.391 19.7915 116.071 19.8555C116.423 20.9434 116.935 21.8076 117.542 22.7676C118.565 24.4636 119.652 26.2564 119.46 31.9844C119.236 38.2558 118.181 39.3759 115.88 39.376C112.939 39.376 111.916 38.384 111.916 31.9521C111.916 29.4881 111.597 27.2799 111.117 25.7119C110.798 24.848 109.807 25.1043 110.062 25.9043C110.542 27.3443 110.957 29.584 110.957 32.4316C110.957 38.2556 109.743 39.248 106.163 39.248C103.127 39.248 101.241 37.104 101.113 31.6963C100.985 26.8643 102.136 24.88 103.479 22.832C104.086 21.9361 104.437 21.0716 104.629 19.8877C102.967 19.5997 101.113 19.0878 101.113 17.0078C101.113 14.8319 103.798 13.5841 106.547 14.2881C105.972 13.8401 105.779 13.1997 105.779 12.7197C105.78 11.5998 107.601 10.6397 110.286 10.6396ZM54.6582 12.1123C57.1193 12.1123 58.1738 13.6159 58.5254 17.5518C58.877 22.2556 58.9409 28.2396 58.5254 32.5596C58.1419 35.9194 56.9278 37.9034 54.9463 38.3516C51.2706 39.3116 48.0739 39.3116 44.3662 38.3516C42.4166 37.9035 41.138 35.9195 40.8184 32.5596C40.339 28.2396 40.4348 22.2556 40.8184 17.5518C41.17 13.4559 42.129 12.1123 44.9736 12.1123C47.7864 12.1123 48.4258 13.5843 48.4258 16.6562V18.3838C49.2567 18.0959 50.056 18.0958 50.9189 18.3838V16.6562C50.9189 13.4243 51.7497 12.1124 54.6582 12.1123ZM77.3906 12.2715C81.9612 11.1196 87.6189 11.0881 92.0615 12.208C95.0978 13.008 97.2391 14.768 97.8145 16.8799C98.6135 19.7279 98.5812 23.4079 97.3027 26.2559C96.216 28.7197 93.8193 30.1278 90.5273 30.2559C86.9796 30.3839 84.6141 28.4641 84.2305 25.6162C83.815 22.4482 84.6142 20.2402 86.0205 18.0322C86.2761 17.6163 85.6689 17.2961 85.4131 17.6797C82.952 21.1357 80.203 23.0237 76.8789 22.9277C73.8424 22.8637 71.7323 21.5518 71.6045 18.3838C71.4128 15.1839 73.9387 13.1355 77.3906 12.2715ZM52.1338 26.8955C50.6635 26.0635 48.905 25.5836 47.3389 25.8076C46.6358 25.8716 46.6037 26.9595 47.1787 26.96C48.8088 26.96 50.3436 27.2476 51.75 28.0156C52.2294 28.2715 52.8047 27.3115 52.1338 26.8955ZM22.6895 22C22.3059 21.68 21.6344 22.2881 22.1455 22.832C23.3281 23.952 24.7666 24.8162 26.3008 25.0723C26.972 25.1363 27.2281 24.3356 26.7168 24.1436C25.1187 23.6956 23.904 23.0239 22.6895 22Z"/>
</mask>
<path d="M63.6719 11.0879C65.9093 11.0879 67.507 12.3682 67.7627 14.9922C68.4659 21.9041 68.4659 29.7123 67.7627 36.6562C67.5069 39.216 65.9092 40.4961 63.6719 40.4961C61.0829 40.4961 59.3249 39.0235 59.6445 36.1436C60.4436 29.2637 60.4439 22.3516 59.6768 15.7598C59.3252 12.5919 61.0829 11.0879 63.6719 11.0879ZM124.382 11.0557C126.619 11.0557 128.217 12.336 128.473 14.96C129.176 21.872 129.176 29.68 128.473 36.624C128.217 39.1839 126.619 40.4639 124.382 40.4639C121.793 40.4639 120.035 38.9921 120.354 36.1123C121.154 29.2323 121.154 22.3195 120.387 15.7275C120.035 12.5598 121.793 11.0557 124.382 11.0557ZM78.9248 24.1436C82.4723 24.1437 83.4951 25.552 83.4951 28.3037C83.4951 29.3277 83.3988 30.3522 83.207 31.4082C87.2662 31.4722 91.2938 31.3122 95.5127 30.8643C97.9737 30.5763 99.3807 32.5277 99.3809 34.8955C99.3809 37.9034 97.9744 39.3758 95.4814 39.6318C88.3537 40.3678 81.7371 40.3678 74.6094 39.6318C72.1802 39.3758 70.7422 37.9035 70.7422 34.8955C70.7424 32.5277 72.1804 30.5763 74.6094 30.8643C74.4176 29.8403 74.3535 28.8801 74.3535 27.9521C74.3535 25.2321 75.6966 24.1436 78.9248 24.1436ZM24.3516 10C28.1227 10 30.5518 10.7359 30.7119 12.5596C30.7758 13.5835 30.3926 14.6722 29.4658 15.2803C30.9041 14.3844 32.5977 14 34.4834 14.1279C36.0814 14.2239 37.2322 15.3438 37.2324 17.1035C37.2324 18.7355 36.2095 19.9516 34.0361 20.4316C36.3374 21.6156 37.0088 23.3759 37.0088 25.4238C37.0088 28.3678 35.2506 30.7678 29.6572 31.6318C29.7212 31.8238 29.7529 32.0165 29.7529 32.2725C29.7529 32.5601 29.7207 32.7837 29.625 32.9756C31.319 32.8796 33.0135 32.7518 34.7715 32.5918C37.2324 32.3039 38.6387 33.6481 38.6387 35.792C38.6387 38.416 37.2323 39.3436 34.7393 39.5996C27.6115 40.3036 20.9949 40.3036 13.8672 39.5996C11.4382 39.3436 10 38.4159 10 35.792C10 33.6801 11.4382 32.304 13.8672 32.5918C15.6251 32.7518 17.3519 32.8796 19.0459 32.9756C18.9501 32.7837 18.918 32.5602 18.918 32.2725C18.918 32.0165 18.9497 31.8238 19.0137 31.6318C13.3882 30.7678 11.6621 28.3678 11.6621 25.4238C11.6621 23.4079 12.3332 21.6156 14.6025 20.4316C12.4611 19.9836 11.4062 18.8956 11.4062 17.2637C11.4064 15.504 12.557 14.1921 14.2188 14.1279C16.1046 13.9999 17.7033 14.3843 19.1416 15.2803C18.2466 14.7043 17.8631 13.5836 17.959 12.5596C18.0872 10.7359 20.5163 10 24.3516 10ZM110.286 10.6396C112.939 10.6396 114.729 11.5998 114.729 12.7197C114.729 13.1997 114.569 13.8401 113.994 14.2881C116.743 13.5842 119.46 14.832 119.46 17.0078C119.46 18.2558 118.66 19.2478 117.03 19.6318C116.711 19.6958 116.391 19.7915 116.071 19.8555C116.423 20.9434 116.935 21.8076 117.542 22.7676C118.565 24.4636 119.652 26.2564 119.46 31.9844C119.236 38.2558 118.181 39.3759 115.88 39.376C112.939 39.376 111.916 38.384 111.916 31.9521C111.916 29.4881 111.597 27.2799 111.117 25.7119C110.798 24.848 109.807 25.1043 110.062 25.9043C110.542 27.3443 110.957 29.584 110.957 32.4316C110.957 38.2556 109.743 39.248 106.163 39.248C103.127 39.248 101.241 37.104 101.113 31.6963C100.985 26.8643 102.136 24.88 103.479 22.832C104.086 21.9361 104.437 21.0716 104.629 19.8877C102.967 19.5997 101.113 19.0878 101.113 17.0078C101.113 14.8319 103.798 13.5841 106.547 14.2881C105.972 13.8401 105.779 13.1997 105.779 12.7197C105.78 11.5998 107.601 10.6397 110.286 10.6396ZM54.6582 12.1123C57.1193 12.1123 58.1738 13.6159 58.5254 17.5518C58.877 22.2556 58.9409 28.2396 58.5254 32.5596C58.1419 35.9194 56.9278 37.9034 54.9463 38.3516C51.2706 39.3116 48.0739 39.3116 44.3662 38.3516C42.4166 37.9035 41.138 35.9195 40.8184 32.5596C40.339 28.2396 40.4348 22.2556 40.8184 17.5518C41.17 13.4559 42.129 12.1123 44.9736 12.1123C47.7864 12.1123 48.4258 13.5843 48.4258 16.6562V18.3838C49.2567 18.0959 50.056 18.0958 50.9189 18.3838V16.6562C50.9189 13.4243 51.7497 12.1124 54.6582 12.1123ZM77.3906 12.2715C81.9612 11.1196 87.6189 11.0881 92.0615 12.208C95.0978 13.008 97.2391 14.768 97.8145 16.8799C98.6135 19.7279 98.5812 23.4079 97.3027 26.2559C96.216 28.7197 93.8193 30.1278 90.5273 30.2559C86.9796 30.3839 84.6141 28.4641 84.2305 25.6162C83.815 22.4482 84.6142 20.2402 86.0205 18.0322C86.2761 17.6163 85.6689 17.2961 85.4131 17.6797C82.952 21.1357 80.203 23.0237 76.8789 22.9277C73.8424 22.8637 71.7323 21.5518 71.6045 18.3838C71.4128 15.1839 73.9387 13.1355 77.3906 12.2715ZM52.1338 26.8955C50.6635 26.0635 48.905 25.5836 47.3389 25.8076C46.6358 25.8716 46.6037 26.9595 47.1787 26.96C48.8088 26.96 50.3436 27.2476 51.75 28.0156C52.2294 28.2715 52.8047 27.3115 52.1338 26.8955ZM22.6895 22C22.3059 21.68 21.6344 22.2881 22.1455 22.832C23.3281 23.952 24.7666 24.8162 26.3008 25.0723C26.972 25.1363 27.2281 24.3356 26.7168 24.1436C25.1187 23.6956 23.904 23.0239 22.6895 22Z" fill="#AA96DA"/>
<path d="M63.6719 11.0879V1.08789H63.6718L63.6719 11.0879ZM67.7627 14.9922L57.8098 15.9621C57.8112 15.9761 57.8126 15.9902 57.814 16.0043L67.7627 14.9922ZM67.7627 36.6562L57.8136 35.6488L57.8123 35.6619L67.7627 36.6562ZM63.6719 40.4961L63.6718 50.4961H63.6719V40.4961ZM59.6445 36.1436L49.7113 34.9899C49.7093 35.0068 49.7074 35.0236 49.7056 35.0405L59.6445 36.1436ZM59.6768 15.7598L49.7378 16.8626C49.7397 16.8803 49.7417 16.898 49.7438 16.9157L59.6768 15.7598ZM124.382 11.0557L124.382 1.05566H124.382V11.0557ZM128.473 14.96L118.52 15.9299C118.521 15.944 118.523 15.958 118.524 15.9721L128.473 14.96ZM128.473 36.624L118.524 35.6165L118.522 35.63L128.473 36.624ZM124.382 40.4639V50.4639H124.382L124.382 40.4639ZM120.354 36.1123L110.421 34.9586C110.419 34.9757 110.417 34.9927 110.415 35.0098L120.354 36.1123ZM120.387 15.7275L110.448 16.8301C110.45 16.8479 110.452 16.8657 110.454 16.8834L120.387 15.7275ZM78.9248 24.1436L78.9251 14.1436H78.9248V24.1436ZM83.4951 28.3037H93.4951V28.3035L83.4951 28.3037ZM83.207 31.4082L73.368 29.6214C72.8431 32.5114 73.6154 35.486 75.4799 37.7557C77.3444 40.0255 80.1124 41.3607 83.0494 41.407L83.207 31.4082ZM95.5127 30.8643L96.5686 40.8084C96.604 40.8046 96.6395 40.8006 96.675 40.7965L95.5127 30.8643ZM99.3809 34.8955H109.381V34.8948L99.3809 34.8955ZM95.4814 39.6318L94.4596 29.6842L94.4543 29.6847L95.4814 39.6318ZM74.6094 39.6318L73.5612 49.5768C73.5682 49.5775 73.5752 49.5782 73.5822 49.5789L74.6094 39.6318ZM70.7422 34.8955L60.7422 34.8947V34.8955H70.7422ZM74.6094 30.8643L73.4321 40.7947C76.5916 41.1693 79.7408 40.018 81.9138 37.694C84.0868 35.37 85.0242 32.1507 84.4385 29.0234L74.6094 30.8643ZM74.3535 27.9521H64.3535V27.9522L74.3535 27.9521ZM24.3516 10L24.3516 0H24.3516V10ZM30.7119 12.5596L40.6925 11.9365C40.6872 11.8525 40.6809 11.7686 40.6736 11.6847L30.7119 12.5596ZM29.4658 15.2803L23.9804 6.91906C19.401 9.92341 18.0904 16.0525 21.0406 20.667C23.9909 25.2814 30.1042 26.664 34.753 23.7682L29.4658 15.2803ZM34.4834 14.1279L33.8063 24.105C33.8321 24.1067 33.858 24.1084 33.8838 24.1099L34.4834 14.1279ZM37.2324 17.1035H47.2324V17.1023L37.2324 17.1035ZM34.0361 20.4316L31.8795 10.667C27.7644 11.5758 24.6608 14.967 24.1191 19.1462C23.5774 23.3255 25.7139 27.3958 29.4612 29.3238L34.0361 20.4316ZM37.0088 25.4238H47.0088V25.4236L37.0088 25.4238ZM29.6572 31.6318L28.1306 21.749C25.2204 22.1986 22.6562 23.908 21.1219 26.4214C19.5876 28.9349 19.2391 31.9968 20.1693 34.7908L29.6572 31.6318ZM29.7529 32.2725L39.7529 32.2736V32.2725H29.7529ZM29.625 32.9756L20.6773 28.5103C19.0853 31.7005 19.3122 35.4969 21.2728 38.4747C23.2334 41.4526 26.6312 43.1613 30.1908 42.9596L29.625 32.9756ZM34.7715 32.5918L35.6779 42.5506C35.7631 42.5429 35.8482 42.534 35.9333 42.5241L34.7715 32.5918ZM38.6387 35.792H48.6387V35.792L38.6387 35.792ZM34.7393 39.5996L35.7222 49.5512C35.735 49.5499 35.7479 49.5486 35.7608 49.5473L34.7393 39.5996ZM13.8672 39.5996L12.8188 49.5445C12.8406 49.5468 12.8625 49.549 12.8843 49.5512L13.8672 39.5996ZM10 35.792L0 35.792V35.792H10ZM13.8672 32.5918L12.6904 42.5223C12.7804 42.533 12.8705 42.5424 12.9608 42.5506L13.8672 32.5918ZM19.0459 32.9756L18.4801 42.9596C22.0399 43.1613 25.4378 41.4524 27.3984 38.4743C29.359 35.4962 29.5856 31.6995 27.9931 28.5093L19.0459 32.9756ZM18.918 32.2725H8.91797L8.91797 32.2736L18.918 32.2725ZM19.0137 31.6318L28.5016 34.7908C29.4323 31.9954 29.083 28.9318 27.5468 26.4178C26.0106 23.9037 23.4439 22.195 20.5317 21.7477L19.0137 31.6318ZM11.6621 25.4238L1.66211 25.4236V25.4238H11.6621ZM14.6025 20.4316L19.2282 29.2975C22.9732 27.3436 25.0866 23.2472 24.5084 19.0628C23.9302 14.8784 20.785 11.5086 16.6504 10.6436L14.6025 20.4316ZM11.4062 17.2637L1.40625 17.2629V17.2637H11.4062ZM14.2188 14.1279L14.6046 24.1205C14.7018 24.1167 14.7989 24.1116 14.8959 24.105L14.2188 14.1279ZM19.1416 15.2803L13.8542 23.7681C18.5174 26.673 24.6509 25.2719 27.5902 20.6302C30.5295 15.9884 29.1736 9.84476 24.5536 6.87135L19.1416 15.2803ZM17.959 12.5596L27.9154 13.4919C27.9226 13.415 27.9289 13.338 27.9344 13.2609L17.959 12.5596ZM110.286 10.6396V0.639648H110.286L110.286 10.6396ZM114.729 12.7197H124.729V12.7176L114.729 12.7197ZM113.994 14.2881L107.85 6.39842C104.113 9.30863 102.93 14.4412 105.017 18.6933C107.103 22.9454 111.886 25.1505 116.475 23.9755L113.994 14.2881ZM119.46 17.0078H129.46V17.0073L119.46 17.0078ZM117.03 19.6318L118.994 29.4372C119.104 29.4151 119.214 29.3912 119.323 29.3654L117.03 19.6318ZM116.071 19.8555L114.108 10.0501C111.312 10.61 108.887 12.3373 107.445 14.7975C106.002 17.2577 105.679 20.2167 106.556 22.9304L116.071 19.8555ZM117.542 22.7676L126.105 17.6033C126.069 17.5423 126.031 17.4817 125.993 17.4215L117.542 22.7676ZM119.46 31.9844L129.454 32.3409C129.454 32.3336 129.454 32.3263 129.454 32.319L119.46 31.9844ZM115.88 39.376V49.376H115.88L115.88 39.376ZM111.916 31.9521H101.916V31.9522L111.916 31.9521ZM111.117 25.7119L120.68 22.7879C120.624 22.6042 120.563 22.4221 120.496 22.2419L111.117 25.7119ZM110.062 25.9043L100.537 28.9489C100.549 28.987 100.562 29.025 100.574 29.063L110.062 25.9043ZM110.957 32.4316H120.957V32.4315L110.957 32.4316ZM106.163 39.248V49.248H106.163L106.163 39.248ZM101.113 31.6963L111.11 31.4598C111.11 31.4505 111.11 31.4411 111.11 31.4318L101.113 31.6963ZM103.479 22.832L95.2006 17.2216C95.1718 17.2642 95.1433 17.3069 95.1151 17.3499L103.479 22.832ZM104.629 19.8877L114.5 21.4866C115.376 16.0771 111.736 10.9701 106.336 10.0345L104.629 19.8877ZM101.113 17.0078L91.1133 17.0073V17.0078H101.113ZM106.547 14.2881L104.066 23.9754C108.654 25.1506 113.438 22.9454 115.524 18.6932C117.611 14.4409 116.428 9.30811 112.691 6.39802L106.547 14.2881ZM105.779 12.7197L95.7793 12.7175V12.7197H105.779ZM54.6582 12.1123V2.1123H54.658L54.6582 12.1123ZM58.5254 17.5518L68.4976 16.8064C68.494 16.7582 68.49 16.7101 68.4857 16.6619L58.5254 17.5518ZM58.5254 32.5596L68.4609 33.6937C68.4676 33.6349 68.4738 33.5759 68.4795 33.5169L58.5254 32.5596ZM54.9463 38.3516L52.7404 28.5979C52.6329 28.6222 52.5259 28.6483 52.4193 28.6761L54.9463 38.3516ZM44.3662 38.3516L46.8728 28.6708C46.7842 28.6479 46.6953 28.6262 46.6062 28.6057L44.3662 38.3516ZM40.8184 32.5596L50.7734 31.6126C50.7685 31.5605 50.7631 31.5086 50.7573 31.4566L40.8184 32.5596ZM40.8184 17.5518L30.855 16.6965C30.8538 16.7107 30.8526 16.7249 30.8514 16.7391L40.8184 17.5518ZM44.9736 12.1123L44.9736 2.1123H44.9736V12.1123ZM48.4258 18.3838H38.4258C38.4258 21.6191 39.991 24.6544 42.6267 26.5306C45.2624 28.4068 48.6429 28.8919 51.6998 27.8326L48.4258 18.3838ZM50.9189 18.3838L47.7534 27.8695C50.8031 28.8873 54.1561 28.3766 56.7646 26.4972C59.3731 24.6178 60.9189 21.5988 60.9189 18.3838H50.9189ZM77.3906 12.2715L79.8186 21.9722C79.8239 21.9709 79.8291 21.9696 79.8344 21.9683L77.3906 12.2715ZM92.0615 12.208L94.6095 2.53807C94.575 2.52898 94.5405 2.52009 94.506 2.51137L92.0615 12.208ZM97.8145 16.8799L88.1661 19.5084C88.1727 19.5327 88.1794 19.557 88.1862 19.5813L97.8145 16.8799ZM97.3027 26.2559L88.1798 22.1604C88.1709 22.1804 88.162 22.2004 88.1531 22.2204L97.3027 26.2559ZM90.5273 30.2559L90.8879 40.2494C90.8973 40.249 90.9068 40.2487 90.9162 40.2483L90.5273 30.2559ZM84.2305 25.6162L74.3154 26.9167C74.3169 26.9282 74.3184 26.9398 74.32 26.9514L84.2305 25.6162ZM86.0205 18.0322L94.4549 23.4044C94.4836 23.3594 94.5119 23.3142 94.5398 23.2688L86.0205 18.0322ZM85.4131 17.6797L93.5587 23.4805C93.618 23.3973 93.6759 23.3131 93.7326 23.2282L85.4131 17.6797ZM76.8789 22.9277L77.1675 12.9319C77.1415 12.9311 77.1156 12.9305 77.0896 12.93L76.8789 22.9277ZM71.6045 18.3838L81.5964 17.9805C81.5937 17.9156 81.5905 17.8507 81.5866 17.7859L71.6045 18.3838ZM52.1338 26.8955L57.4035 18.3967C57.29 18.3263 57.175 18.2581 57.0587 18.1923L52.1338 26.8955ZM47.3389 25.8076L48.2453 35.7665C48.4155 35.751 48.5854 35.7311 48.7546 35.7069L47.3389 25.8076ZM47.1787 26.96L47.1709 36.96H47.1787V26.96ZM51.75 28.0156L46.9572 36.7922C46.9851 36.8075 47.0132 36.8226 47.0413 36.8376L51.75 28.0156ZM22.6895 22L29.1351 14.3545C29.122 14.3435 29.1089 14.3324 29.0957 14.3215L22.6895 22ZM22.1455 22.832L14.8578 29.6796C14.9909 29.8213 15.1281 29.9591 15.2693 30.0927L22.1455 22.832ZM26.3008 25.0723L24.6546 34.9358C24.8858 34.9744 25.1183 35.0049 25.3516 35.0271L26.3008 25.0723ZM26.7168 24.1436L30.2327 14.782C29.9644 14.6813 29.6919 14.5921 29.416 14.5147L26.7168 24.1436ZM63.6719 11.0879V21.0879C62.8751 21.0879 61.2409 20.8292 59.7243 19.4469C58.2002 18.0578 57.8631 16.5091 57.8098 15.9621L67.7627 14.9922L77.7156 14.0223C77.4065 10.8512 76.1428 7.35041 73.1965 4.66518C70.2578 1.98678 66.706 1.08789 63.6719 1.08789V11.0879ZM67.7627 14.9922L57.814 16.0043C58.4486 22.2417 58.4491 29.3732 57.8136 35.6488L67.7627 36.6562L77.7118 37.6637C78.4827 30.0514 78.4831 21.5666 77.7113 13.9801L67.7627 14.9922ZM67.7627 36.6562L57.8123 35.6619C57.8756 35.0279 58.2495 33.4722 59.7705 32.1033C61.2719 30.752 62.8778 30.4961 63.6719 30.4961V40.4961V50.4961C66.7033 50.4961 70.2267 49.6001 73.1502 46.9689C76.0933 44.32 77.394 40.8444 77.7131 37.6506L67.7627 36.6562ZM63.6719 40.4961L63.6719 30.4961C64.1415 30.4961 65.9574 30.636 67.6627 32.353C69.5523 34.2556 69.6741 36.4306 69.5835 37.2466L59.6445 36.1436L49.7056 35.0405C49.2954 38.7365 50.1363 43.0877 53.4722 46.4466C56.6239 49.6199 60.6132 50.4961 63.6718 50.4961L63.6719 40.4961ZM59.6445 36.1436L69.5778 37.2972C70.4639 29.6675 70.4681 21.9803 69.6097 14.6039L59.6768 15.7598L49.7438 16.9157C50.4196 22.723 50.4232 28.8598 49.7113 34.9899L59.6445 36.1436ZM59.6768 15.7598L69.6158 14.6569C69.6578 15.036 69.7164 17.09 67.8889 19.0519C66.1516 20.9169 64.1984 21.0879 63.6719 21.0879L63.6719 11.0879L63.6718 1.08789C60.5564 1.0879 56.4298 2.01091 53.2544 5.41987C49.9887 8.92569 49.3442 13.3156 49.7378 16.8626L59.6768 15.7598ZM124.382 11.0557L124.382 21.0557C123.585 21.0557 121.951 20.7969 120.434 19.4147C118.91 18.0256 118.573 16.477 118.52 15.9299L128.473 14.96L138.426 13.99C138.116 10.8189 136.853 7.31816 133.906 4.63297C130.968 1.95461 127.416 1.05568 124.382 1.05566L124.382 11.0557ZM128.473 14.96L118.524 15.9721C119.159 22.2095 119.159 29.3409 118.524 35.6165L128.473 36.624L138.422 37.6315C139.193 30.0191 139.193 21.5344 138.421 13.9478L128.473 14.96ZM128.473 36.624L118.522 35.63C118.586 34.996 118.959 33.4401 120.481 32.071C121.982 30.7196 123.588 30.4639 124.382 30.4639L124.382 40.4639L124.382 50.4639C127.413 50.4638 130.936 49.5681 133.86 46.9368C136.803 44.2878 138.104 40.8119 138.423 37.6181L128.473 36.624ZM124.382 40.4639V30.4639C124.85 30.4639 126.666 30.6033 128.372 32.3202C130.262 34.2231 130.384 36.3987 130.294 37.2148L120.354 36.1123L110.415 35.0098C110.005 38.7057 110.847 43.0571 114.183 46.4158C117.335 49.5885 121.324 50.4639 124.382 50.4639V40.4639ZM120.354 36.1123L130.288 37.266C131.174 29.6362 131.178 21.9482 130.32 14.5716L120.387 15.7275L110.454 16.8834C111.13 22.6909 111.133 28.8285 110.421 34.9586L120.354 36.1123ZM120.387 15.7275L130.326 14.625C130.368 15.0042 130.426 17.0579 128.599 19.0196C126.862 20.8845 124.909 21.0557 124.382 21.0557V11.0557V1.05566C121.266 1.05566 117.14 1.9789 113.964 5.38781C110.699 8.89347 110.054 13.2831 110.448 16.8301L120.387 15.7275ZM78.9248 24.1436L78.9245 34.1436C79.765 34.1436 77.5976 34.3819 75.4848 32.2784C73.3238 30.127 73.4951 27.7908 73.4951 28.3039L83.4951 28.3037L93.4951 28.3035C93.4951 26.0649 93.1549 21.6487 89.5957 18.1051C86.0846 14.6095 81.6321 14.1436 78.9251 14.1436L78.9248 24.1436ZM83.4951 28.3037H73.4951C73.4951 28.6889 73.46 29.1147 73.368 29.6214L83.207 31.4082L93.0461 33.1951C93.3376 31.5897 93.4951 29.9665 93.4951 28.3037H83.4951ZM83.207 31.4082L83.0494 41.407C87.4875 41.4769 91.9213 41.3018 96.5686 40.8084L95.5127 30.8643L94.4568 20.9202C90.6663 21.3226 87.0449 21.4675 83.3647 21.4094L83.207 31.4082ZM95.5127 30.8643L96.675 40.7965C95.8577 40.8921 94.7889 40.8328 93.6406 40.4017C92.4921 39.9705 91.5552 39.2759 90.8689 38.4976C89.5629 37.0164 89.3809 35.5511 89.3809 34.8963L99.3809 34.8955L109.381 34.8948C109.381 31.8722 108.495 28.2472 105.87 25.2703C102.976 21.9877 98.7373 20.4187 94.3504 20.932L95.5127 30.8643ZM99.3809 34.8955H89.3809C89.3809 34.8899 89.3791 34.5399 89.55 33.9748C89.7305 33.3775 90.0928 32.5841 90.7639 31.7989C92.2338 30.0788 93.9635 29.7351 94.4596 29.6842L95.4814 39.6318L96.5033 49.5795C99.4923 49.2725 103.172 48.0646 105.968 44.7923C108.688 41.6101 109.381 37.8599 109.381 34.8955H99.3809ZM95.4814 39.6318L94.4543 29.6847C88.0095 30.3502 82.0813 30.3502 75.6365 29.6847L74.6094 39.6318L73.5822 49.5789C81.3929 50.3855 88.6979 50.3855 96.5086 49.5789L95.4814 39.6318ZM74.6094 39.6318L75.6575 29.6869C76.2311 29.7474 77.9312 30.1186 79.3674 31.7994C80.7353 33.4002 80.7422 34.8865 80.7422 34.8955H70.7422H60.7422C60.7422 37.9124 61.4681 41.6389 64.1623 44.7919C66.9248 48.0248 70.5585 49.2603 73.5612 49.5768L74.6094 39.6318ZM70.7422 34.8955L80.7422 34.8963C80.7421 35.6049 80.5383 37.0625 79.247 38.5187C77.7033 40.2595 75.4181 41.0302 73.4321 40.7947L74.6094 30.8643L75.7866 20.9338C71.3716 20.4104 67.1529 22.0128 64.283 25.2492C61.6654 28.2011 60.7424 31.8184 60.7422 34.8947L70.7422 34.8955ZM74.6094 30.8643L84.4385 29.0234C84.384 28.7326 84.3535 28.4056 84.3535 27.9521L74.3535 27.9521L64.3535 27.9522C64.3535 29.3546 64.4512 30.948 64.7803 32.7051L74.6094 30.8643ZM74.3535 27.9521H84.3535C84.3535 28.1101 84.2887 30.6746 81.8062 32.7302C79.8019 34.3898 78.0009 34.1436 78.9248 34.1436V24.1436V14.1436C76.6205 14.1436 72.5338 14.4417 69.0509 17.3256C65.0898 20.6054 64.3535 25.0742 64.3535 27.9521H74.3535ZM24.3516 10L24.3515 20C25.8413 20 25.9628 20.1798 25.3752 19.9594C25.0138 19.8239 23.9825 19.3848 22.9309 18.2778C21.7375 17.0216 20.915 15.3105 20.7503 13.4344L30.7119 12.5596L40.6736 11.6847C40.1186 5.36563 35.3403 2.33616 32.3966 1.23244C29.6116 0.188235 26.633 1.90735e-05 24.3516 0L24.3516 10ZM30.7119 12.5596L20.7313 13.1826C20.6318 11.5882 21.1738 8.76036 23.9804 6.91906L29.4658 15.2803L34.9513 23.6415C39.6114 20.5841 40.9199 15.5788 40.6925 11.9365L30.7119 12.5596ZM29.4658 15.2803L34.753 23.7682C34.5059 23.9222 34.2523 24.019 34.0389 24.0679C33.8345 24.1147 33.7426 24.1007 33.8063 24.105L34.4834 14.1279L35.1605 4.15088C31.4614 3.89986 27.6249 4.64561 24.1786 6.7923L29.4658 15.2803ZM34.4834 14.1279L33.8838 24.1099C32.4716 24.0251 30.677 23.423 29.2152 21.8878C27.7264 20.3244 27.2326 18.4769 27.2324 17.1047L37.2324 17.1035L47.2324 17.1023C47.232 13.9704 46.1627 10.6831 43.699 8.09583C41.2622 5.53678 38.0932 4.32674 35.083 4.14592L34.4834 14.1279ZM37.2324 17.1035H27.2324C27.2324 15.6866 27.7428 13.8798 29.121 12.3954C30.3643 11.0564 31.6221 10.7238 31.8795 10.667L34.0361 20.4316L36.1928 30.1963C38.6235 29.6594 41.4795 28.4788 43.7776 26.0037C46.2106 23.3832 47.2324 20.1524 47.2324 17.1035H37.2324ZM34.0361 20.4316L29.4612 29.3238C29.0852 29.1303 28.2214 28.532 27.5851 27.3529C27.009 26.2853 27.0088 25.4536 27.0088 25.424L37.0088 25.4238L47.0088 25.4236C47.0088 23.3461 46.6729 20.6103 45.1857 17.8546C43.6384 14.9874 41.2884 12.9169 38.611 11.5395L34.0361 20.4316ZM37.0088 25.4238H27.0088C27.0088 25.1677 27.0476 24.6115 27.3193 23.9088C27.6063 23.1664 28.0543 22.5196 28.5624 22.0394C29.4795 21.1729 29.8946 21.4766 28.1306 21.749L29.6572 31.6318L31.1838 41.5146C35.0133 40.9231 39.1042 39.5948 42.2986 36.5762C45.8196 33.2491 47.0088 29.0704 47.0088 25.4238H37.0088ZM29.6572 31.6318L20.1693 34.7908C20.0341 34.3847 19.919 33.9304 19.8441 33.4405C19.7712 32.9643 19.7529 32.563 19.7529 32.2725H29.7529H39.7529C39.7529 31.0661 39.5851 29.7943 39.1452 28.4729L29.6572 31.6318ZM29.7529 32.2725L19.7529 32.2713C19.753 31.9431 19.7591 30.3503 20.6773 28.5103L29.625 32.9756L38.5727 37.4408C39.6824 35.2172 39.7528 33.1771 39.7529 32.2736L29.7529 32.2725ZM29.625 32.9756L30.1908 42.9596C32.0109 42.8564 33.8196 42.7198 35.6779 42.5506L34.7715 32.5918L33.8651 22.633C32.2075 22.7838 30.6272 22.9027 29.0592 22.9916L29.625 32.9756ZM34.7715 32.5918L35.9333 42.5241C35.2011 42.6097 33.1133 42.5903 31.0999 40.8553C29.059 39.0966 28.6387 36.9049 28.6387 35.792L38.6387 35.792L48.6387 35.792C48.6387 32.5352 47.5152 28.5995 44.1559 25.7047C40.8242 22.8336 36.8028 22.286 33.6097 22.6595L34.7715 32.5918ZM38.6387 35.792H28.6387C28.6387 35.2812 28.8412 33.0187 30.9653 31.123C32.6655 29.6056 34.2598 29.5963 33.7177 29.6519L34.7393 39.5996L35.7608 49.5473C37.7118 49.3469 41.2558 48.7458 44.2824 46.0446C47.733 42.965 48.6387 38.9268 48.6387 35.792H38.6387ZM34.7393 39.5996L33.7563 29.648C27.2823 30.2875 21.3241 30.2875 14.8501 29.648L13.8672 39.5996L12.8843 49.5512C20.6657 50.3198 27.9408 50.3198 35.7222 49.5512L34.7393 39.5996ZM13.8672 39.5996L14.9155 29.6547C14.4402 29.6046 16.0081 29.6296 17.6816 31.1232C18.5991 31.9421 19.2485 32.9419 19.6239 33.9412C19.9715 34.8665 20 35.5613 20 35.792H10H0C0 38.9902 0.949148 42.9965 4.36388 46.0443C7.36367 48.7217 10.8652 49.3386 12.8188 49.5445L13.8672 39.5996ZM10 35.792L20 35.792C20 37.0246 19.523 39.1661 17.5543 40.8642C15.6009 42.5492 13.5445 42.6235 12.6904 42.5223L13.8672 32.5918L15.044 22.6613C11.7609 22.2722 7.77093 22.8907 4.49112 25.7198C1.1961 28.562 8.58307e-06 32.4475 0 35.792L10 35.792ZM13.8672 32.5918L12.9608 42.5506C14.8286 42.7206 16.669 42.8569 18.4801 42.9596L19.0459 32.9756L19.6117 22.9916C18.0348 22.9022 16.4217 22.783 14.7736 22.633L13.8672 32.5918ZM19.0459 32.9756L27.9931 28.5093C28.9121 30.3503 28.9179 31.9442 28.918 32.2713L18.918 32.2725L8.91797 32.2736C8.91808 33.1761 8.98818 35.2172 10.0987 37.4418L19.0459 32.9756ZM18.918 32.2725H28.918C28.918 32.563 28.8997 32.9643 28.8268 33.4405C28.7519 33.9304 28.6368 34.3848 28.5016 34.7908L19.0137 31.6318L9.52574 28.4729C9.08577 29.7943 8.91797 31.0661 8.91797 32.2725H18.918ZM19.0137 31.6318L20.5317 21.7477C18.7441 21.4732 19.1765 21.1671 20.1092 22.0515C20.6262 22.5418 21.0747 23.1969 21.3591 23.94C21.6273 24.6407 21.6621 25.1878 21.6621 25.4238H11.6621H1.66211C1.66211 29.0255 2.81553 33.2149 6.34748 36.5641C9.54964 39.6006 13.6578 40.9265 17.4956 41.5159L19.0137 31.6318ZM11.6621 25.4238L21.6621 25.424C21.6621 25.4887 21.6552 26.2878 21.1086 27.3147C20.5019 28.4544 19.6628 29.0707 19.2282 29.2975L14.6025 20.4316L9.97692 11.5658C7.27298 12.9765 4.9637 15.081 3.45412 17.9168C2.00458 20.6399 1.66215 23.343 1.66211 25.4236L11.6621 25.4238ZM14.6025 20.4316L16.6504 10.6436C16.7203 10.6582 17.9688 10.9154 19.2764 12.2245C20.8139 13.7637 21.4062 15.7202 21.4062 17.2637H11.4062H1.40625C1.40625 20.4391 2.52607 23.7555 5.12634 26.3587C7.49678 28.7318 10.3434 29.7571 12.5547 30.2197L14.6025 20.4316ZM11.4062 17.2637L21.4062 17.2645C21.4061 18.5733 20.9597 20.2489 19.6554 21.7127C18.3056 23.2276 16.4333 24.0499 14.6046 24.1205L14.2188 14.1279L13.8329 4.13538C6.10908 4.4336 1.40677 10.8531 1.40625 17.2629L11.4062 17.2637ZM14.2188 14.1279L14.8959 24.105C14.963 24.1004 14.8232 24.1169 14.5545 24.0535C14.2738 23.9874 14.026 23.8751 13.8542 23.7681L19.1416 15.2803L24.429 6.79246C21.0537 4.6898 17.3334 3.89352 13.5416 4.15089L14.2188 14.1279ZM19.1416 15.2803L24.5536 6.87135C26.0879 7.85883 26.9806 9.18903 27.4387 10.3126C27.884 11.4048 28.0091 12.4921 27.9154 13.4919L17.959 12.5596L8.00254 11.6272C7.65908 15.2951 8.88026 20.5682 13.7296 23.6892L19.1416 15.2803ZM17.959 12.5596L27.9344 13.2609C27.8004 15.1669 26.9864 16.9324 25.7614 18.2366C24.6873 19.3802 23.6263 19.8285 23.2646 19.9636C22.6772 20.183 22.8115 20 24.3516 20V10V0C22.0564 0 19.0585 0.184897 16.2657 1.2282C13.3039 2.3346 8.43623 5.42037 7.98361 11.8582L17.959 12.5596ZM110.286 10.6396V20.6396C110.541 20.6396 110.057 20.7053 109.119 20.2477C108.645 20.0166 107.7 19.4764 106.773 18.38C105.786 17.2137 104.73 15.2717 104.729 12.7219L114.729 12.7197L124.729 12.7176C124.728 6.34647 119.849 3.22917 117.886 2.2717C115.389 1.05406 112.684 0.639648 110.286 0.639648V10.6396ZM114.729 12.7197H104.729C104.729 11.2182 105.238 8.43255 107.85 6.39842L113.994 14.2881L120.139 22.1778C123.901 19.2476 124.729 15.1812 124.729 12.7197H114.729ZM113.994 14.2881L116.475 23.9755C115.833 24.1398 114.742 24.2194 113.395 23.5662C111.954 22.8674 109.46 20.7355 109.46 17.0084L119.46 17.0078L129.46 17.0073C129.46 11.1042 125.607 7.26053 122.121 5.56992C118.727 3.92481 114.904 3.73254 111.513 4.60067L113.994 14.2881ZM119.46 17.0078H109.46C109.46 15.3743 110.036 13.5072 111.398 11.9829C112.674 10.5533 114.071 10.0553 114.737 9.89826L117.03 19.6318L119.323 29.3654C121.62 28.8243 124.231 27.6383 126.315 25.3047C128.484 22.8764 129.46 19.8893 129.46 17.0078H119.46ZM117.03 19.6318L115.067 9.82648C114.835 9.87287 114.634 9.9189 114.481 9.95502C114.335 9.98971 114.199 10.0239 114.128 10.0415C114.039 10.0638 114.016 10.0695 114.002 10.0728C113.994 10.0746 114.036 10.0645 114.108 10.0501L116.071 19.8555L118.035 29.6608C118.266 29.6145 118.468 29.5684 118.62 29.5323C118.766 29.4976 118.903 29.4634 118.973 29.4458C119.063 29.4235 119.086 29.4178 119.1 29.4145C119.107 29.4127 119.066 29.4228 118.994 29.4372L117.03 19.6318ZM116.071 19.8555L106.556 22.9304C107.319 25.2912 108.417 27.0485 109.091 28.1136L117.542 22.7676L125.993 17.4215C125.452 16.5668 125.527 16.5957 125.587 16.7805L116.071 19.8555ZM117.542 22.7676L108.979 27.9319C109.258 28.3954 109.296 28.4677 109.318 28.5129C109.32 28.517 109.314 28.5058 109.308 28.4883C109.301 28.471 109.302 28.4711 109.309 28.497C109.337 28.5997 109.541 29.4089 109.466 31.6498L119.46 31.9844L129.454 32.319C129.571 28.8318 129.327 25.8807 128.604 23.2309C127.839 20.4286 126.678 18.5534 126.105 17.6033L117.542 22.7676ZM119.46 31.9844L109.466 31.6278C109.418 32.9768 109.333 33.7402 109.269 34.123C109.194 34.5699 109.212 34.0841 109.667 33.2494C110.243 32.1915 111.346 30.9001 113.077 30.0755C114.564 29.367 115.761 29.376 115.88 29.376L115.88 39.376L115.88 49.376C117.149 49.3759 119.342 49.2448 121.68 48.1304C124.263 46.8997 126.076 44.9363 127.231 42.8145C129.068 39.4417 129.346 35.3654 129.454 32.3409L119.46 31.9844ZM115.88 39.376V29.376C115.52 29.376 116.363 29.3135 117.571 29.7721C118.258 30.0333 119.03 30.4471 119.77 31.0698C120.509 31.691 121.038 32.3696 121.398 32.978C122.043 34.0664 122.079 34.8131 122.022 34.4173C121.977 34.0963 121.916 33.3638 121.916 31.9521L111.916 31.9521L101.916 31.9522C101.916 33.7564 101.983 35.5598 102.222 37.2338C102.449 38.833 102.924 41.0336 104.192 43.174C105.659 45.6497 107.845 47.4722 110.469 48.4689C112.696 49.3145 114.769 49.376 115.88 49.376V39.376ZM111.916 31.9521H121.916C121.916 28.7361 121.512 25.5077 120.68 22.7879L111.117 25.7119L101.554 28.6359C101.602 28.7935 101.7 29.184 101.783 29.8082C101.863 30.4144 101.916 31.1438 101.916 31.9521H111.916ZM111.117 25.7119L120.496 22.2419C119.02 18.2541 114.446 14.0529 108.231 15.4164C105.314 16.0564 102.626 17.9704 101.142 20.9197C99.6634 23.8576 99.8546 26.8131 100.537 28.9489L110.062 25.9043L119.588 22.8597C120.143 24.5955 120.362 27.219 119.007 29.9108C117.647 32.614 115.179 34.3679 112.517 34.9518C106.813 36.2032 102.894 32.3058 101.739 29.1819L111.117 25.7119ZM110.062 25.9043L100.574 29.063C100.664 29.3315 100.957 30.4837 100.957 32.4317L110.957 32.4316L120.957 32.4315C120.957 28.6843 120.42 25.357 119.551 22.7456L110.062 25.9043ZM110.957 32.4316H100.957C100.957 32.9945 100.942 33.4103 100.921 33.7106C100.9 34.0156 100.878 34.1363 100.88 34.1237C100.882 34.1139 100.925 33.8775 101.072 33.5028C101.224 33.1149 101.499 32.5467 101.977 31.9259C103.081 30.4909 104.504 29.7351 105.565 29.4189C106.346 29.186 106.751 29.248 106.163 29.248L106.163 39.248L106.163 49.248C108.153 49.248 113.929 49.1888 117.828 44.1218C119.52 41.9223 120.213 39.5562 120.543 37.7836C120.875 35.9995 120.957 34.1491 120.957 32.4316H110.957ZM106.163 39.248V29.248C106.58 29.248 107.401 29.3242 108.374 29.7829C109.396 30.2645 110.176 30.9763 110.681 31.6823C111.141 32.3249 111.241 32.7736 111.226 32.7149C111.211 32.6549 111.13 32.2787 111.11 31.4598L101.113 31.6963L91.1161 31.9328C91.1995 35.4606 91.843 39.7235 94.414 43.3179C97.4493 47.5613 101.952 49.248 106.163 49.248V39.248ZM101.113 31.6963L111.11 31.4318C111.068 29.8561 111.249 29.3301 111.257 29.3032C111.266 29.2768 111.268 29.1898 111.842 28.3141L103.479 22.832L95.1151 17.3499C94.3467 18.5223 93.1021 20.4514 92.2317 23.1371C91.3614 25.8223 91.0306 28.7044 91.1168 31.9608L101.113 31.6963ZM103.479 22.832L111.756 28.4424C113.2 26.3128 114.081 24.0734 114.5 21.4866L104.629 19.8877L94.7576 18.2888C94.757 18.2925 94.79 18.0952 94.9066 17.7998C95.0259 17.4971 95.1543 17.29 95.2006 17.2216L103.479 22.832ZM104.629 19.8877L106.336 10.0345C106.067 9.98791 106.082 9.97993 106.225 10.0223C106.356 10.0613 106.896 10.2282 107.589 10.6654C108.331 11.1346 109.318 11.9625 110.083 13.2842C110.867 14.6375 111.113 15.983 111.113 17.0078H101.113H91.1133C91.1133 21.794 93.6125 25.4929 96.9071 27.5741C99.4115 29.1562 102.065 29.5924 102.922 29.7409L104.629 19.8877ZM101.113 17.0078L111.113 17.0083C111.113 20.6767 108.678 22.8255 107.19 23.5525C105.814 24.2249 104.701 24.138 104.066 23.9754L106.547 14.2881L109.028 4.60075C105.644 3.73421 101.814 3.9192 98.4085 5.58352C94.8915 7.30231 91.1136 11.163 91.1133 17.0073L101.113 17.0078ZM106.547 14.2881L112.691 6.39802C115.047 8.23315 115.779 10.8085 115.779 12.7197H105.779H95.7793C95.7793 15.5909 96.8957 19.447 100.403 22.1782L106.547 14.2881ZM105.779 12.7197L115.779 12.7219C115.779 15.3249 114.682 17.2867 113.689 18.4415C112.755 19.5274 111.813 20.0541 111.356 20.2736C110.448 20.7101 110.001 20.6396 110.286 20.6396L110.286 10.6396L110.286 0.639648C107.887 0.639661 105.187 1.04927 102.696 2.24586C100.79 3.16165 95.7807 6.25851 95.7793 12.7175L105.779 12.7197ZM54.6582 12.1123V22.1123C54.2843 22.1123 53.3279 22.0584 52.1516 21.5298C50.876 20.9564 49.8829 20.0678 49.2246 19.1391C48.6428 18.3183 48.4743 17.684 48.462 17.6385C48.4473 17.5837 48.5076 17.7981 48.5651 18.4416L58.5254 17.5518L68.4857 16.6619C68.2817 14.3777 67.7781 10.7289 65.5411 7.57306C62.6018 3.42653 58.2677 2.1123 54.6582 2.1123V12.1123ZM58.5254 17.5518L48.5532 18.2971C48.8771 22.6311 48.9162 28.0159 48.5713 31.6022L58.5254 32.5596L68.4795 33.5169C68.9655 28.4633 68.8768 21.8801 68.4976 16.8064L58.5254 17.5518ZM58.5254 32.5596L48.5899 31.4254C48.4919 32.2838 48.3735 32.0284 48.8224 31.3002C49.0779 30.8857 49.529 30.3039 50.2533 29.7557C50.9987 29.1917 51.8584 28.7974 52.7404 28.5979L54.9463 38.3516L57.1522 48.1052C65.7569 46.1592 67.9662 38.0271 68.4609 33.6937L58.5254 32.5596ZM54.9463 38.3516L52.4193 28.6761C50.4076 29.2015 48.9437 29.207 46.8728 28.6708L44.3662 38.3516L41.8597 48.0323C47.2041 49.4161 52.1336 49.4216 57.4733 48.027L54.9463 38.3516ZM44.3662 38.3516L46.6062 28.6057C47.4946 28.8099 48.3398 29.2051 49.0629 29.7516C49.7684 30.2846 50.2161 30.8529 50.4774 31.2739C50.9501 32.0354 50.8431 32.3447 50.7734 31.6126L40.8184 32.5596L30.8633 33.5066C31.307 38.171 33.6555 46.1506 42.1263 48.0975L44.3662 38.3516ZM40.8184 32.5596L50.7573 31.4566C50.374 28.0024 50.4308 22.7114 50.7853 18.3644L40.8184 17.5518L30.8514 16.7391C30.4388 21.7999 30.3039 28.4768 30.8794 33.6625L40.8184 32.5596ZM40.8184 17.5518L50.7817 18.4071C50.8457 17.6612 50.9084 17.4361 50.8898 17.507C50.8719 17.5752 50.6679 18.3587 49.9458 19.3164C49.1149 20.4185 47.9736 21.2557 46.7538 21.7234C46.2156 21.9298 45.7671 22.0239 45.4719 22.0681C45.1817 22.1114 45.0009 22.1123 44.9736 22.1123V12.1123V2.1123C41.9826 2.1123 37.2838 2.88917 33.9764 7.27576C31.4648 10.6068 31.0369 14.5781 30.855 16.6965L40.8184 17.5518ZM44.9736 12.1123L44.9736 22.1123C44.8806 22.1123 44.0533 22.1113 42.9192 21.6482C41.6118 21.1143 40.3709 20.1576 39.4857 18.8561C38.7028 17.705 38.494 16.7179 38.444 16.4434C38.3946 16.1722 38.4258 16.1674 38.4258 16.6562H48.4258H58.4258C58.4258 15.0785 58.4108 11.1188 56.0233 7.60846C52.8893 3.00053 48.0586 2.11231 44.9736 2.1123L44.9736 12.1123ZM48.4258 16.6562H38.4258V18.3838H48.4258H58.4258V16.6562H48.4258ZM48.4258 18.3838L51.6998 27.8326C51.151 28.0228 50.4535 28.1678 49.6605 28.1678C48.8741 28.1678 48.2201 28.0253 47.7534 27.8695L50.9189 18.3838L54.0845 8.89806C51.2067 7.93767 48.1419 7.89886 45.1517 8.93495L48.4258 18.3838ZM50.9189 18.3838H60.9189V16.6562H50.9189H40.9189V18.3838H50.9189ZM50.9189 16.6562H60.9189C60.9189 16.2064 60.9546 16.2924 60.8737 16.6713C60.7865 17.0793 60.4954 18.1534 59.5813 19.3247C58.5839 20.6028 57.3207 21.3896 56.2036 21.7876C55.7027 21.9661 55.2986 22.0434 55.0503 22.0782C54.8037 22.1128 54.6609 22.1123 54.6584 22.1123L54.6582 12.1123L54.658 2.1123C51.9678 2.11235 47.1819 2.70499 43.8145 7.01997C41.0092 10.6145 40.9189 14.8114 40.9189 16.6562H50.9189ZM77.3906 12.2715L79.8344 21.9683C82.864 21.2048 86.8409 21.2048 89.6171 21.9046L92.0615 12.208L94.506 2.51137C88.3968 0.971305 81.0584 1.03446 74.9469 2.57468L77.3906 12.2715ZM92.0615 12.208L89.5135 21.8779C89.8852 21.9759 89.8348 22.0412 89.5444 21.8046C89.2523 21.5666 88.5319 20.851 88.1661 19.5084L97.8145 16.8799L107.463 14.2514C105.588 7.36792 99.5276 3.83396 94.6095 2.53807L92.0615 12.208ZM97.8145 16.8799L88.1862 19.5813C88.2895 19.9491 88.3724 20.5264 88.3464 21.1516C88.3341 21.4454 88.2999 21.6927 88.2591 21.8822C88.2178 22.0737 88.1795 22.1612 88.1798 22.1604L97.3027 26.2559L106.426 30.3513C108.844 24.9644 108.744 18.8168 107.443 14.1785L97.8145 16.8799ZM97.3027 26.2559L88.1531 22.2204C88.4659 21.5114 89.0321 20.8896 89.663 20.5176C90.2167 20.1911 90.4825 20.25 90.1385 20.2634L90.5273 30.2559L90.9162 40.2483C96.9636 40.013 103.436 37.1296 106.452 30.2913L97.3027 26.2559ZM90.5273 30.2559L90.1668 20.2624C90.265 20.2588 91.1603 20.2703 92.2292 21.0798C93.3655 21.9402 93.9934 23.186 94.1409 24.281L84.2305 25.6162L74.32 26.9514C74.8512 30.8943 76.8537 34.5239 80.1555 37.0242C83.3901 39.4735 87.2419 40.3809 90.8879 40.2494L90.5273 30.2559ZM84.2305 25.6162L94.1455 24.3157C94.1155 24.0864 94.1207 23.9788 94.1215 23.9643C94.122 23.9551 94.1202 23.9822 94.11 24.0206C94.0876 24.1053 94.1003 23.9612 94.4549 23.4044L86.0205 18.0322L77.5861 12.66C75.2406 16.3425 73.5244 20.8862 74.3154 26.9167L84.2305 25.6162ZM86.0205 18.0322L94.5398 23.2688C95.9111 21.0378 96.5936 17.9991 95.6405 14.8505C94.7522 11.9161 92.7534 9.91585 90.7536 8.80826C86.7788 6.60683 80.5493 6.94958 77.0936 12.1312L85.4131 17.6797L93.7326 23.2282C90.5327 28.0262 84.7347 28.3373 81.0636 26.3041C79.2156 25.2806 77.3366 23.4144 76.4983 20.645C75.5952 17.6614 76.2577 14.8187 77.5012 12.7957L86.0205 18.0322ZM85.4131 17.6797L77.2675 11.8789C76.9078 12.384 76.6171 12.719 76.4069 12.931C76.1986 13.1412 76.1002 13.1994 76.1244 13.1841C76.1579 13.1629 76.2969 13.0829 76.5292 13.0167C76.7673 12.9489 76.9943 12.9269 77.1675 12.9319L76.8789 22.9277L76.5903 32.9236C84.6456 33.1561 90.1442 28.2752 93.5587 23.4805L85.4131 17.6797ZM76.8789 22.9277L77.0896 12.93C76.7709 12.9232 77.9391 12.8541 79.3644 13.9844C80.1242 14.5869 80.7367 15.3687 81.1327 16.2254C81.5112 17.0443 81.5849 17.6957 81.5964 17.9805L71.6045 18.3838L61.6126 18.787C61.771 22.7108 63.3214 26.7875 66.9375 29.6551C70.209 32.2494 73.9505 32.8682 76.6682 32.9255L76.8789 22.9277ZM71.6045 18.3838L81.5866 17.7859C81.6233 18.3983 81.5324 19.1555 81.2194 19.9334C80.913 20.6947 80.4888 21.242 80.137 21.5874C79.5175 22.1956 79.2021 22.1266 79.8186 21.9722L77.3906 12.2715L74.9626 2.57072C72.1272 3.28039 68.8229 4.66754 66.1254 7.31597C63.1841 10.2037 61.3405 14.2762 61.6224 18.9817L71.6045 18.3838ZM52.1338 26.8955L57.0587 18.1923C54.2999 16.6312 50.3033 15.2819 45.9231 15.9083L47.3389 25.8076L48.7546 35.7069C48.0546 35.807 47.5966 35.7173 47.4456 35.6811C47.2815 35.6419 47.2191 35.6045 47.2089 35.5987L52.1338 26.8955ZM47.3389 25.8076L46.4325 15.8488C39.8436 16.4485 37.1202 22.0092 36.8162 25.5527C36.6582 27.3938 36.9419 29.8712 38.4733 32.2315C40.2343 34.9459 43.3787 36.957 47.1709 36.96L47.1787 26.96L47.1865 16.96C50.6913 16.9627 53.624 18.8377 55.2513 21.3459C56.649 23.5001 56.8769 25.7014 56.7429 27.2626C56.4869 30.2459 54.1311 35.2308 48.2453 35.7665L47.3389 25.8076ZM47.1787 26.96V36.96C47.411 36.96 47.4666 36.981 47.3997 36.9662C47.3645 36.9585 47.3025 36.9424 47.2211 36.9125C47.139 36.8823 47.049 36.8424 46.9572 36.7922L51.75 28.0156L56.5428 19.239C53.2899 17.4626 49.9945 16.96 47.1787 16.96V26.96ZM51.75 28.0156L47.0413 36.8376C50.6227 38.7492 54.3524 38.1738 56.8975 36.7847C59.199 35.5285 60.6517 33.6357 61.4544 31.8949C62.2831 30.0976 62.774 27.6921 62.1744 25.0605C61.5235 22.2037 59.7508 19.8521 57.4035 18.3967L52.1338 26.8955L46.864 35.3943C44.8522 34.1469 43.2592 32.0713 42.6742 29.5035C42.1404 27.1609 42.5834 25.0574 43.2922 23.5202C43.975 22.0394 45.2359 20.3645 47.3156 19.2294C49.639 17.9613 53.117 17.41 56.4587 19.1936L51.75 28.0156ZM22.6895 22L29.0957 14.3215C23.3257 9.5075 16.8829 12.748 14.4402 15.642C12.9644 17.3905 11.8993 19.8318 11.9635 22.6551C12.0302 25.5838 13.2858 28.0066 14.8578 29.6796L22.1455 22.832L29.4332 15.9844C30.7497 17.3855 31.8975 19.5283 31.9584 22.2C32.0168 24.7663 31.0477 26.9736 29.7238 28.5421C27.585 31.0761 21.6697 34.1725 16.2832 29.6785L22.6895 22ZM22.1455 22.832L15.2693 30.0927C17.4099 32.12 20.5854 34.2567 24.6546 34.9358L26.3008 25.0723L27.947 15.2087C28.478 15.2973 28.8121 15.4593 28.9439 15.5324C29.0746 15.6049 29.0884 15.6345 29.0217 15.5713L22.1455 22.832ZM26.3008 25.0723L25.3516 35.0271C30.2486 35.494 34.6072 32.6125 36.273 28.3266C37.0658 26.2868 37.3466 23.627 36.3402 20.9079C35.2541 17.973 32.9622 15.8071 30.2327 14.782L26.7168 24.1436L23.2009 33.5051C20.7271 32.576 18.5949 30.5822 17.5836 27.8495C16.652 25.3325 16.9227 22.9049 17.6315 21.0812C19.1293 17.2277 23.0242 14.7145 27.25 15.1174L26.3008 25.0723ZM26.7168 24.1436L29.416 14.5147C29.3264 14.4896 29.2833 14.473 29.274 14.4693C29.2661 14.4661 29.2746 14.4692 29.2906 14.4778C29.3063 14.4863 29.3083 14.4888 29.2911 14.4769C29.2722 14.4638 29.222 14.4277 29.1351 14.3545L22.6895 22L16.2438 29.6455C18.4881 31.5376 20.9661 32.917 24.0176 33.7724L26.7168 24.1436Z" fill="white" mask="url(#path-1-outside-1_4_1069)"/>
</g>
<defs>
<filter id="filter0_d_4_1069" x="0" y="0" width="139" height="58.4961" filterUnits="userSpaceOnUse" color-interpolation-filters="sRGB">
<feFlood flood-opacity="0" result="BackgroundImageFix"/>
<feColorMatrix in="SourceAlpha" type="matrix" values="0 0 0 0 0 0 0 0 0 0 0 0 0 0 0 0 0 0 127 0" result="hardAlpha"/>
<feOffset dy="8"/>
<feComposite in2="hardAlpha" operator="out"/>
<feColorMatrix type="matrix" values="0 0 0 0 0.666667 0 0 0 0 0.588235 0 0 0 0 0.854902 0 0 0 1 0"/>
<feBlend mode="normal" in2="BackgroundImageFix" result="effect1_dropShadow_4_1069"/>
<feBlend mode="normal" in="SourceGraphic" in2="effect1_dropShadow_4_1069" result="shape"/>
</filter>
</defs>
</svg>
