<svg width="139" height="58" viewBox="0 0 139 58" fill="none" xmlns="http://www.w3.org/2000/svg">
<g filter="url(#filter0_d_76_2786)">
<mask id="path-1-outside-1_76_2786" maskUnits="userSpaceOnUse" x="0" y="0" width="139" height="50" fill="black">
<rect fill="white" width="139" height="50"/>
<path d="M119.011 13.5332C120.099 12.3172 121.475 12.1251 122.755 12.4131C123.779 12.6371 124.739 13.3087 125.251 14.1406C125.859 15.0366 126.05 15.8369 125.986 16.6689C125.73 18.4608 124.675 19.1974 123.491 19.9013C122.627 20.3813 121.378 20.8286 119.938 21.1806V23.1972C122.818 23.3252 125.474 23.6454 127.106 24.3174C128.386 24.8613 128.643 25.5968 128.643 26.7168C128.643 27.5168 128.514 28.6052 127.234 28.9892C125.474 29.5971 123.138 29.8847 119.938 30.0127C119.49 33.8207 117.827 36.605 113.635 38.749C112.387 39.4529 110.947 39.869 109.539 39.8691C108.099 39.8691 106.53 39.2928 105.57 38.3008C104.483 37.0848 104.067 35.6764 104.643 34.3965C105.027 33.6606 105.763 33.0524 107.075 32.6045C109.155 31.9645 110.499 31.261 111.331 30.0771C108.515 30.0131 106.243 29.8527 104.803 29.4687C103.043 29.0207 102.627 27.9645 102.659 26.8125C102.691 25.9804 102.915 24.4768 105.026 24.0927C106.562 23.7407 109.315 23.325 112.803 23.165V22.0449C110.659 22.1089 108.419 21.9811 106.307 21.6611C104.931 20.9251 104.451 19.5166 104.931 17.5967C105.219 16.3807 105.955 15.1333 107.811 15.3252C112.258 15.7412 117.507 15.1011 119.011 13.5332ZM25.04 12.1572C26.5759 12.1572 28.2079 12.7649 28.624 14.6845C28.72 15.1645 28.6875 15.7087 28.5596 16.2207C30.9276 16.2847 33.0724 16.3812 34.6084 16.5732C35.376 16.7012 36.0477 16.8608 36.5596 17.0527C38.0316 17.6607 38.5756 18.8773 38.3516 21.2773C38.1275 23.677 37.2317 24.6052 35.6318 24.9892C35.4716 25.0212 34.896 25.053 34.4482 25.0849C33.8722 25.1169 29.3595 25.1486 29.1035 25.1806C29.1035 29.4366 28.9761 33.6934 27.5361 36.3174C25.5201 39.9651 21.1996 40.7652 18.2236 38.3652C16.5917 37.0852 16.6563 34.2372 17.9043 32.9892C20.2083 30.6853 20.6877 29.149 20.7197 25.2451C18.8958 25.3091 16.9755 25.3093 14.7676 25.2773C11.3439 25.2452 10 24.2207 10 20.7968C10 18.045 11.408 16.7013 14.7998 16.4453C16.4318 16.3173 18.7999 16.2214 21.4238 16.1894C21.2318 15.5814 21.2636 14.9729 21.3916 14.4609C21.8716 12.4769 23.696 12.1572 25.04 12.1572ZM62.0059 12.6367C62.6779 10.3968 64.6302 9.82095 65.9102 10.0449C68.0222 10.4289 70.1664 11.805 69.3984 14.205C68.9825 15.4529 68.2145 16.2209 67.2227 16.541C68.6304 17.245 69.6862 18.4289 69.1104 20.2207C68.4064 22.3967 66.5503 23.2285 64.2783 22.3965C63.9264 22.2685 63.6061 22.1404 63.2861 21.9804C63.0622 22.5564 62.6465 23.0689 61.9746 23.5488C59.4787 25.1487 54.7427 26.1406 52.1826 26.5566C52.3106 27.0365 52.4062 28.4125 52.4062 29.5644C55.7661 28.6365 59.734 28.2528 62.166 28.5088C64.246 28.7328 64.9504 29.4692 65.3984 31.1972C65.8783 33.021 65.8463 34.6849 64.1826 35.9648C61.7826 37.7568 58.0061 38.7492 53.4941 39.1972C49.5903 39.6132 47.3504 39.3887 45.2705 38.3008C42.6145 36.8928 41.3343 33.7565 41.2383 28.8925C41.1103 23.2607 41.3988 17.3094 43.0947 14.5254C43.9267 13.1814 45.0463 12.7967 46.6143 12.6367C49.1742 12.3487 50.5501 12.7969 51.2861 14.4609C51.7341 15.3889 51.9587 16.8608 52.0547 17.7568C54.0387 17.1169 57.3023 16.5412 59.7021 16.7011C60.694 16.7651 61.3982 16.8927 62.0381 17.4365C62.6781 18.0125 63.0306 18.8769 63.3506 19.8369C63.5107 20.2847 64.2142 20.0605 64.1182 19.5166C63.9581 18.5887 63.4461 17.5965 62.7422 16.8925C63.1581 16.5086 63.5745 16.3172 64.0225 16.1572C62.5185 15.5172 61.3979 14.4287 62.0059 12.6367ZM92.5088 13.3086C93.1808 11.069 95.1322 10.5252 96.4121 10.749C98.5241 11.101 100.668 12.4769 99.9004 14.8769C99.4844 16.1248 98.7163 16.9251 97.6924 17.2451C99.1323 17.8851 100.188 19.1006 99.6123 20.8925C98.9083 23.0685 97.0523 23.9003 94.7803 23.0683C94.2045 22.8764 93.6608 22.6206 93.2129 22.3008C93.3089 23.8367 93.3084 25.5968 93.1484 27.6767C92.9564 30.5247 92.5408 32.7651 91.5488 34.4931C90.5568 36.3491 88.8923 37.5331 86.2363 38.205C84.8604 38.525 83.228 38.7172 81.3721 38.7812C77.0204 38.9092 74.7161 38.4927 72.7002 37.4687C70.9405 36.6047 70.7485 35.0688 70.8125 33.0849C70.8765 31.4529 71.1007 30.1087 72.6367 29.4687C74.8447 28.5728 77.7252 28.5086 83.709 29.3086C83.261 27.2927 83.2929 25.1169 83.5488 23.165C81.3088 23.645 79.6764 23.9326 77.2764 23.9326C76.1563 23.9326 73.5963 23.8372 72.8604 23.6133C70.6204 22.8773 70.4602 21.0849 70.4922 19.2929C70.5562 17.4369 70.8444 16.1564 72.7324 15.3564C74.2684 14.6524 77.1809 14.2691 79.5488 14.0771C81.6607 13.8851 84.6682 13.7572 86.4922 13.9492C90.044 14.3652 91.6762 15.7087 92.5723 18.5244C93.0522 17.6286 93.7886 17.0853 94.5244 16.8613C92.9884 16.1893 91.9328 15.1326 92.5088 13.3086ZM12.4639 27.5166C13.5839 26.6846 15.6317 26.2053 17.3916 28.1572C18.9275 29.8211 18.1598 31.7086 16.752 33.3086C15.024 35.2925 12.8801 35.421 11.1201 33.5332C9.29612 31.5492 10.6719 28.9566 12.4639 27.5166ZM31.4404 27.8047C33.2643 25.9171 35.3125 26.4295 36.4004 27.3574C38.1282 28.8614 39.4394 31.4527 37.5195 33.4365C35.7595 35.2605 33.6161 35.0365 31.9521 33.0205C30.6083 31.3565 29.9045 29.4366 31.4404 27.8047Z"/>
</mask>
<path d="M119.011 13.5332C120.099 12.3172 121.475 12.1251 122.755 12.4131C123.779 12.6371 124.739 13.3087 125.251 14.1406C125.859 15.0366 126.05 15.8369 125.986 16.6689C125.73 18.4608 124.675 19.1974 123.491 19.9013C122.627 20.3813 121.378 20.8286 119.938 21.1806V23.1972C122.818 23.3252 125.474 23.6454 127.106 24.3174C128.386 24.8613 128.643 25.5968 128.643 26.7168C128.643 27.5168 128.514 28.6052 127.234 28.9892C125.474 29.5971 123.138 29.8847 119.938 30.0127C119.49 33.8207 117.827 36.605 113.635 38.749C112.387 39.4529 110.947 39.869 109.539 39.8691C108.099 39.8691 106.53 39.2928 105.57 38.3008C104.483 37.0848 104.067 35.6764 104.643 34.3965C105.027 33.6606 105.763 33.0524 107.075 32.6045C109.155 31.9645 110.499 31.261 111.331 30.0771C108.515 30.0131 106.243 29.8527 104.803 29.4687C103.043 29.0207 102.627 27.9645 102.659 26.8125C102.691 25.9804 102.915 24.4768 105.026 24.0927C106.562 23.7407 109.315 23.325 112.803 23.165V22.0449C110.659 22.1089 108.419 21.9811 106.307 21.6611C104.931 20.9251 104.451 19.5166 104.931 17.5967C105.219 16.3807 105.955 15.1333 107.811 15.3252C112.258 15.7412 117.507 15.1011 119.011 13.5332ZM25.04 12.1572C26.5759 12.1572 28.2079 12.7649 28.624 14.6845C28.72 15.1645 28.6875 15.7087 28.5596 16.2207C30.9276 16.2847 33.0724 16.3812 34.6084 16.5732C35.376 16.7012 36.0477 16.8608 36.5596 17.0527C38.0316 17.6607 38.5756 18.8773 38.3516 21.2773C38.1275 23.677 37.2317 24.6052 35.6318 24.9892C35.4716 25.0212 34.896 25.053 34.4482 25.0849C33.8722 25.1169 29.3595 25.1486 29.1035 25.1806C29.1035 29.4366 28.9761 33.6934 27.5361 36.3174C25.5201 39.9651 21.1996 40.7652 18.2236 38.3652C16.5917 37.0852 16.6563 34.2372 17.9043 32.9892C20.2083 30.6853 20.6877 29.149 20.7197 25.2451C18.8958 25.3091 16.9755 25.3093 14.7676 25.2773C11.3439 25.2452 10 24.2207 10 20.7968C10 18.045 11.408 16.7013 14.7998 16.4453C16.4318 16.3173 18.7999 16.2214 21.4238 16.1894C21.2318 15.5814 21.2636 14.9729 21.3916 14.4609C21.8716 12.4769 23.696 12.1572 25.04 12.1572ZM62.0059 12.6367C62.6779 10.3968 64.6302 9.82095 65.9102 10.0449C68.0222 10.4289 70.1664 11.805 69.3984 14.205C68.9825 15.4529 68.2145 16.2209 67.2227 16.541C68.6304 17.245 69.6862 18.4289 69.1104 20.2207C68.4064 22.3967 66.5503 23.2285 64.2783 22.3965C63.9264 22.2685 63.6061 22.1404 63.2861 21.9804C63.0622 22.5564 62.6465 23.0689 61.9746 23.5488C59.4787 25.1487 54.7427 26.1406 52.1826 26.5566C52.3106 27.0365 52.4062 28.4125 52.4062 29.5644C55.7661 28.6365 59.734 28.2528 62.166 28.5088C64.246 28.7328 64.9504 29.4692 65.3984 31.1972C65.8783 33.021 65.8463 34.6849 64.1826 35.9648C61.7826 37.7568 58.0061 38.7492 53.4941 39.1972C49.5903 39.6132 47.3504 39.3887 45.2705 38.3008C42.6145 36.8928 41.3343 33.7565 41.2383 28.8925C41.1103 23.2607 41.3988 17.3094 43.0947 14.5254C43.9267 13.1814 45.0463 12.7967 46.6143 12.6367C49.1742 12.3487 50.5501 12.7969 51.2861 14.4609C51.7341 15.3889 51.9587 16.8608 52.0547 17.7568C54.0387 17.1169 57.3023 16.5412 59.7021 16.7011C60.694 16.7651 61.3982 16.8927 62.0381 17.4365C62.6781 18.0125 63.0306 18.8769 63.3506 19.8369C63.5107 20.2847 64.2142 20.0605 64.1182 19.5166C63.9581 18.5887 63.4461 17.5965 62.7422 16.8925C63.1581 16.5086 63.5745 16.3172 64.0225 16.1572C62.5185 15.5172 61.3979 14.4287 62.0059 12.6367ZM92.5088 13.3086C93.1808 11.069 95.1322 10.5252 96.4121 10.749C98.5241 11.101 100.668 12.4769 99.9004 14.8769C99.4844 16.1248 98.7163 16.9251 97.6924 17.2451C99.1323 17.8851 100.188 19.1006 99.6123 20.8925C98.9083 23.0685 97.0523 23.9003 94.7803 23.0683C94.2045 22.8764 93.6608 22.6206 93.2129 22.3008C93.3089 23.8367 93.3084 25.5968 93.1484 27.6767C92.9564 30.5247 92.5408 32.7651 91.5488 34.4931C90.5568 36.3491 88.8923 37.5331 86.2363 38.205C84.8604 38.525 83.228 38.7172 81.3721 38.7812C77.0204 38.9092 74.7161 38.4927 72.7002 37.4687C70.9405 36.6047 70.7485 35.0688 70.8125 33.0849C70.8765 31.4529 71.1007 30.1087 72.6367 29.4687C74.8447 28.5728 77.7252 28.5086 83.709 29.3086C83.261 27.2927 83.2929 25.1169 83.5488 23.165C81.3088 23.645 79.6764 23.9326 77.2764 23.9326C76.1563 23.9326 73.5963 23.8372 72.8604 23.6133C70.6204 22.8773 70.4602 21.0849 70.4922 19.2929C70.5562 17.4369 70.8444 16.1564 72.7324 15.3564C74.2684 14.6524 77.1809 14.2691 79.5488 14.0771C81.6607 13.8851 84.6682 13.7572 86.4922 13.9492C90.044 14.3652 91.6762 15.7087 92.5723 18.5244C93.0522 17.6286 93.7886 17.0853 94.5244 16.8613C92.9884 16.1893 91.9328 15.1326 92.5088 13.3086ZM12.4639 27.5166C13.5839 26.6846 15.6317 26.2053 17.3916 28.1572C18.9275 29.8211 18.1598 31.7086 16.752 33.3086C15.024 35.2925 12.8801 35.421 11.1201 33.5332C9.29612 31.5492 10.6719 28.9566 12.4639 27.5166ZM31.4404 27.8047C33.2643 25.9171 35.3125 26.4295 36.4004 27.3574C38.1282 28.8614 39.4394 31.4527 37.5195 33.4365C35.7595 35.2605 33.6161 35.0365 31.9521 33.0205C30.6083 31.3565 29.9045 29.4366 31.4404 27.8047Z" fill="#FFD858"/>
<path d="M119.011 13.5332L126.227 20.4562C126.307 20.3725 126.386 20.2875 126.463 20.2011L119.011 13.5332ZM122.755 12.4131L120.56 22.1692C120.579 22.1735 120.598 22.1777 120.617 22.182L122.755 12.4131ZM125.251 14.1406L116.735 19.3819C116.812 19.5082 116.893 19.6328 116.976 19.7556L125.251 14.1406ZM125.986 16.6689L135.886 18.0833C135.917 17.8683 135.94 17.6524 135.957 17.4359L125.986 16.6689ZM123.491 19.9013L128.348 28.6429C128.433 28.5954 128.518 28.5467 128.602 28.4967L123.491 19.9013ZM119.938 21.1806L117.564 11.4666C113.088 12.5609 109.938 16.5724 109.938 21.1806H119.938ZM119.938 23.1972H109.938C109.938 28.5474 114.15 32.9498 119.494 33.1874L119.938 23.1972ZM127.106 24.3174L131.018 15.114C130.983 15.0993 130.949 15.0848 130.914 15.0705L127.106 24.3174ZM128.643 26.7168H138.643V26.7166L128.643 26.7168ZM127.234 28.9892L124.361 19.411C124.23 19.4504 124.099 19.4924 123.97 19.5372L127.234 28.9892ZM119.938 30.0127L119.539 20.0207C114.624 20.2173 110.582 23.959 110.007 28.8443L119.938 30.0127ZM113.635 38.749L109.081 29.8459C108.96 29.9079 108.84 29.9723 108.722 30.0392L113.635 38.749ZM109.539 39.8691V49.8691H109.54L109.539 39.8691ZM105.57 38.3008L98.1175 44.9683C98.2046 45.0656 98.2935 45.1611 98.3843 45.255L105.57 38.3008ZM104.643 34.3965L95.7772 29.7699C95.6875 29.9417 95.6029 30.1161 95.5234 30.2928L104.643 34.3965ZM107.075 32.6045L104.134 23.0467C104.037 23.0767 103.94 23.1081 103.844 23.141L107.075 32.6045ZM111.331 30.0771L119.513 35.8266C121.635 32.8065 121.921 28.8629 120.257 25.5682C118.592 22.2735 115.249 20.1636 111.558 20.0797L111.331 30.0771ZM104.803 29.4687L107.379 19.8064C107.343 19.7966 107.306 19.7871 107.27 19.7778L104.803 29.4687ZM102.659 26.8125L92.6666 26.4275C92.6652 26.4632 92.664 26.499 92.663 26.5348L102.659 26.8125ZM105.026 24.0927L106.816 33.9313C106.965 33.9043 107.113 33.8738 107.26 33.8401L105.026 24.0927ZM112.803 23.165L113.261 33.1545C118.6 32.9096 122.803 28.5097 122.803 23.165H112.803ZM112.803 22.0449H122.803C122.803 19.341 121.708 16.7523 119.768 14.8691C117.827 12.9859 115.207 11.9687 112.504 12.0493L112.803 22.0449ZM106.307 21.6611L101.59 30.4789C102.594 31.016 103.683 31.3777 104.809 31.5483L106.307 21.6611ZM104.931 17.5967L114.632 20.022C114.642 19.982 114.652 19.9418 114.661 19.9017L104.931 17.5967ZM107.811 15.3252L106.782 25.2721C106.814 25.2755 106.847 25.2787 106.879 25.2817L107.811 15.3252ZM25.04 12.1572L25.0401 2.1572H25.04V12.1572ZM28.624 14.6845L38.4298 12.7234C38.4193 12.6709 38.4084 12.6184 38.397 12.566L28.624 14.6845ZM28.5596 16.2207L18.8581 13.7957C18.1228 16.7371 18.7618 19.8532 20.5952 22.2679C22.4287 24.6826 25.2586 26.1351 28.2894 26.217L28.5596 16.2207ZM34.6084 16.5732L36.2526 6.70931C36.1184 6.68694 35.9838 6.66731 35.8488 6.65043L34.6084 16.5732ZM36.5596 17.0527L40.3772 7.81009C40.2754 7.76807 40.173 7.72772 40.0699 7.68908L36.5596 17.0527ZM38.3516 21.2773L48.3083 22.207L48.3083 22.2066L38.3516 21.2773ZM35.6318 24.9892L37.5887 34.7959C37.7148 34.7707 37.8405 34.7431 37.9656 34.7131L35.6318 24.9892ZM34.4482 25.0849L35.0029 35.0695C35.0555 35.0666 35.1081 35.0633 35.1607 35.0595L34.4482 25.0849ZM29.1035 25.1806L27.8632 15.2579C22.8589 15.8834 19.1035 20.1374 19.1035 25.1806H29.1035ZM27.5361 36.3174L36.2884 41.1545C36.2932 41.1458 36.298 41.1371 36.3028 41.1283L27.5361 36.3174ZM18.2236 38.3652L24.5012 30.5811C24.4661 30.5528 24.4308 30.5248 24.3954 30.497L18.2236 38.3652ZM17.9043 32.9892L24.9754 40.0603L24.9754 40.0603L17.9043 32.9892ZM20.7197 25.2451L30.7194 25.3271C30.7418 22.6 29.6493 19.982 27.6952 18.0797C25.741 16.1773 23.0946 15.1556 20.3691 15.2512L20.7197 25.2451ZM14.7676 25.2773L14.9125 15.2784C14.8954 15.2781 14.8783 15.2779 14.8613 15.2778L14.7676 25.2773ZM10 20.7968L0 20.7967V20.7968H10ZM14.7998 16.4453L15.5525 26.4169C15.5623 26.4162 15.572 26.4154 15.5817 26.4147L14.7998 16.4453ZM21.4238 16.1894L21.5458 26.1887C24.7105 26.1501 27.6702 24.6156 29.5255 22.0514C31.3808 19.4873 31.9127 16.1962 30.9597 13.1781L21.4238 16.1894ZM21.3916 14.4609L31.0931 16.8861C31.0992 16.8616 31.1052 16.837 31.1112 16.8124L21.3916 14.4609ZM62.0059 12.6367L71.4756 15.8497C71.5138 15.7372 71.55 15.624 71.5841 15.5103L62.0059 12.6367ZM65.9102 10.0449L67.699 0.206192C67.6772 0.202229 67.6554 0.198339 67.6336 0.194521L65.9102 10.0449ZM69.3984 14.205L78.8852 17.3675C78.8979 17.3294 78.9104 17.2911 78.9227 17.2528L69.3984 14.205ZM67.2227 16.541L64.1517 7.02421C60.2859 8.27165 57.5589 11.7335 57.2514 15.7839C56.9438 19.8342 59.1169 23.6682 62.75 25.485L67.2227 16.541ZM69.1104 20.2207L78.6248 23.2989C78.6268 23.2927 78.6288 23.2865 78.6308 23.2802L69.1104 20.2207ZM64.2783 22.3965L67.717 13.0063C67.7099 13.0037 67.7029 13.0011 67.6958 12.9985L64.2783 22.3965ZM63.2861 21.9804L67.7583 13.0362C65.242 11.778 62.3122 11.638 59.6874 12.6504C57.0627 13.6628 54.9857 15.734 53.9661 18.356L63.2861 21.9804ZM61.9746 23.5488L67.3713 31.9676C67.5123 31.8772 67.6511 31.7832 67.7874 31.6858L61.9746 23.5488ZM52.1826 26.5566L50.5786 16.6861C47.7902 17.1392 45.3235 18.7507 43.7882 21.1221C42.253 23.4935 41.7924 26.4036 42.5203 29.1332L52.1826 26.5566ZM52.4062 29.5644L42.4062 29.5646C42.4063 32.687 43.8648 35.6301 46.3492 37.5213C48.8336 39.4125 52.0588 40.0348 55.0684 39.2035L52.4062 29.5644ZM62.166 28.5088L63.2367 18.5662C63.2287 18.5654 63.2207 18.5645 63.2126 18.5637L62.166 28.5088ZM65.3984 31.1972L55.7185 33.7069C55.7215 33.7185 55.7245 33.7302 55.7276 33.7418L65.3984 31.1972ZM64.1826 35.9648L70.1655 43.9776C70.2039 43.9489 70.2422 43.9199 70.2802 43.8907L64.1826 35.9648ZM53.4941 39.1972L52.5061 29.2462C52.4823 29.2485 52.4584 29.251 52.4346 29.2535L53.4941 39.1972ZM45.2705 38.3008L40.5867 47.136C40.603 47.1447 40.6193 47.1533 40.6357 47.1618L45.2705 38.3008ZM41.2383 28.8925L51.2363 28.6952C51.2361 28.6853 51.2359 28.6753 51.2357 28.6654L41.2383 28.8925ZM43.0947 14.5254L34.5921 9.26182C34.5795 9.28218 34.5669 9.30259 34.5545 9.32305L43.0947 14.5254ZM46.6143 12.6367L47.6294 22.585C47.6637 22.5815 47.698 22.5779 47.7322 22.574L46.6143 12.6367ZM51.2861 14.4609L42.1408 18.506C42.1857 18.6076 42.2323 18.7084 42.2806 18.8084L51.2861 14.4609ZM52.0547 17.7568L42.1116 18.8221C42.4322 21.8148 44.0837 24.5038 46.6078 26.1432C49.1318 27.7825 52.26 28.1979 55.1244 27.274L52.0547 17.7568ZM59.7021 16.7011L59.0371 26.679C59.0441 26.6795 59.0512 26.6799 59.0583 26.6804L59.7021 16.7011ZM62.0381 17.4365L68.7277 10.0035C68.6572 9.9401 68.5858 9.87766 68.5136 9.81625L62.0381 17.4365ZM63.3506 19.8369L53.8638 22.9992C53.8864 23.0672 53.9099 23.1351 53.934 23.2026L63.3506 19.8369ZM64.1182 19.5166L54.2637 21.2164C54.2659 21.2291 54.2681 21.2418 54.2703 21.2544L64.1182 19.5166ZM62.7422 16.8925L55.9597 9.5442C53.9598 11.3901 52.7987 13.9714 52.7442 16.6924C52.6897 19.4135 53.7467 22.0392 55.6711 23.9636L62.7422 16.8925ZM64.0225 16.1572L67.3858 25.5746C71.2636 24.1897 73.896 20.5695 74.0181 16.4536C74.1401 12.3378 71.7269 8.56793 67.938 6.95565L64.0225 16.1572ZM92.5088 13.3086L102.045 16.3199C102.059 16.2742 102.073 16.2285 102.087 16.1827L92.5088 13.3086ZM96.4121 10.749L94.6896 20.5995C94.7157 20.6041 94.7419 20.6086 94.7681 20.6129L96.4121 10.749ZM99.9004 14.8769L109.387 18.0395C109.4 18.0013 109.412 17.963 109.425 17.9247L99.9004 14.8769ZM97.6924 17.2451L94.7096 7.70029C90.7372 8.94168 87.9489 12.5137 87.709 16.6687C87.4691 20.8237 89.8278 24.6929 93.631 26.3832L97.6924 17.2451ZM99.6123 20.8925L109.127 23.9708C109.129 23.9646 109.131 23.9584 109.133 23.9522L99.6123 20.8925ZM94.7803 23.0683L98.2189 13.6781C98.1274 13.6446 98.0355 13.6125 97.943 13.5817L94.7803 23.0683ZM93.2129 22.3008L99.0247 14.163C95.885 11.9207 91.7354 11.6846 88.3616 13.5563C84.9878 15.4281 82.9917 19.0738 83.2324 22.9245L93.2129 22.3008ZM93.1484 27.6767L83.1779 26.9098C83.1755 26.9412 83.1732 26.9726 83.1711 27.0041L93.1484 27.6767ZM91.5488 34.4931L82.8763 29.5145C82.8261 29.602 82.7772 29.6902 82.7296 29.7792L91.5488 34.4931ZM86.2363 38.205L88.5013 47.9452C88.5641 47.9306 88.6267 47.9154 88.6892 47.8996L86.2363 38.205ZM81.3721 38.7812L81.666 48.7769C81.6829 48.7764 81.6998 48.7759 81.7167 48.7753L81.3721 38.7812ZM72.7002 37.4687L77.2289 28.5529C77.1886 28.5325 77.1481 28.5123 77.1076 28.4924L72.7002 37.4687ZM70.8125 33.0849L60.8202 32.6931C60.8193 32.7162 60.8184 32.7394 60.8177 32.7626L70.8125 33.0849ZM72.6367 29.4687L68.8768 20.2025C68.848 20.2142 68.8193 20.226 68.7906 20.238L72.6367 29.4687ZM83.709 29.3086L82.3839 39.2204C85.6221 39.6533 88.8676 38.4771 91.0767 36.07C93.2857 33.663 94.1796 30.3286 93.4709 27.1394L83.709 29.3086ZM83.5488 23.165L93.4639 24.4653C93.8864 21.2436 92.7173 18.0175 90.3289 15.8145C87.9405 13.6114 84.6307 12.7062 81.4535 13.387L83.5488 23.165ZM77.2764 23.9326L77.2763 33.9326H77.2764V23.9326ZM72.8604 23.6133L69.7388 33.1136C69.8085 33.1365 69.8785 33.1586 69.9487 33.18L72.8604 23.6133ZM70.4922 19.2929L60.4981 18.9483C60.4962 19.0037 60.4948 19.0591 60.4938 19.1145L70.4922 19.2929ZM72.7324 15.3564L76.6339 24.5639C76.7228 24.5263 76.8111 24.4873 76.8988 24.4471L72.7324 15.3564ZM79.5488 14.0771L80.357 24.0444C80.3894 24.0418 80.4218 24.039 80.4541 24.0361L79.5488 14.0771ZM86.4922 13.9492L87.6554 4.01707C87.6166 4.01252 87.5777 4.0082 87.5388 4.00411L86.4922 13.9492ZM92.5723 18.5244L83.0431 21.5568C84.2616 25.3857 87.6535 28.1135 91.6547 28.4822C95.6558 28.8509 99.4891 26.7889 101.387 23.2472L92.5723 18.5244ZM94.5244 16.8613L97.4368 26.4278C101.441 25.2087 104.263 21.6243 104.507 17.4454C104.752 13.2665 102.368 9.37757 98.5326 7.69973L94.5244 16.8613ZM12.4639 27.5166L6.5009 19.4889C6.39912 19.5645 6.29879 19.6421 6.19996 19.7215L12.4639 27.5166ZM17.3916 28.1572L9.96482 34.8537C9.9909 34.8826 10.0171 34.9114 10.0436 34.94L17.3916 28.1572ZM16.752 33.3086L9.24465 26.7025C9.23345 26.7152 9.22228 26.728 9.21114 26.7408L16.752 33.3086ZM11.1201 33.5332L3.75844 40.3012C3.77414 40.3182 3.7899 40.3353 3.80572 40.3522L11.1201 33.5332ZM31.4404 27.8047L24.2491 20.8559C24.2187 20.8874 24.1885 20.9191 24.1584 20.951L31.4404 27.8047ZM36.4004 27.3574L42.9662 19.8149C42.9409 19.7928 42.9154 19.7709 42.8899 19.7491L36.4004 27.3574ZM37.5195 33.4365L30.3335 26.4823C30.3301 26.4858 30.3267 26.4893 30.3233 26.4928L37.5195 33.4365ZM31.9521 33.0205L24.1726 39.3036C24.1949 39.3313 24.2173 39.3588 24.2399 39.3861L31.9521 33.0205ZM119.011 13.5332L126.463 20.2011C125.71 21.0431 124.606 21.7595 123.293 22.0961C122.081 22.4068 121.104 22.2915 120.56 22.1692L122.755 12.4131L124.95 2.65696C121.065 1.7828 115.641 2.30228 111.558 6.86523L119.011 13.5332ZM122.755 12.4131L120.617 22.182C119.762 21.9948 119.058 21.6564 118.493 21.2638C117.936 20.8772 117.288 20.2814 116.735 19.3819L125.251 14.1406L133.767 8.89929C131.753 5.62701 128.419 3.41579 124.892 2.64415L122.755 12.4131ZM125.251 14.1406L116.976 19.7556C116.77 19.4516 116.456 18.8965 116.237 18.1108C116.012 17.3021 115.967 16.5344 116.016 15.9019L125.986 16.6689L135.957 17.4359C136.207 14.1823 135.31 11.1551 133.526 8.52558L125.251 14.1406ZM125.986 16.6689L116.087 15.2545C116.147 14.8305 116.287 14.2649 116.577 13.6364C116.871 13.0003 117.246 12.4591 117.633 12.0261C118.3 11.2811 118.924 10.9829 118.38 11.306L123.491 19.9013L128.602 28.4967C129.243 28.1158 130.986 27.0973 132.54 25.3601C134.327 23.3619 135.485 20.8916 135.886 18.0833L125.986 16.6689ZM123.491 19.9013L118.635 11.1598C118.799 11.0685 118.793 11.0904 118.547 11.1789C118.323 11.2595 117.993 11.3619 117.564 11.4666L119.938 21.1806L122.313 30.8946C124.213 30.4303 126.406 29.7214 128.348 28.6429L123.491 19.9013ZM119.938 21.1806H109.938V23.1972H119.938H129.938V21.1806H119.938ZM119.938 23.1972L119.494 33.1874C120.73 33.2423 121.755 33.3325 122.54 33.4475C123.422 33.5769 123.575 33.678 123.299 33.5642L127.106 24.3174L130.914 15.0705C127.498 13.6639 123.246 13.3344 120.382 13.2071L119.938 23.1972ZM127.106 24.3174L123.195 33.5207C122.56 33.2507 120.872 32.3617 119.673 30.2644C118.595 28.3786 118.643 26.7272 118.643 26.7169L128.643 26.7168L138.643 26.7166C138.643 25.5864 138.562 23.0073 137.036 20.3378C135.389 17.4567 132.933 15.928 131.018 15.114L127.106 24.3174ZM128.643 26.7168H118.643C118.643 26.6745 118.642 26.3627 118.706 25.9186C118.771 25.4713 118.924 24.7247 119.324 23.8514C119.742 22.9366 120.406 21.9394 121.398 21.0691C122.39 20.1979 123.448 19.6849 124.361 19.411L127.234 28.9892L130.108 38.5675C133.556 37.533 136.147 35.1561 137.513 32.1666C138.636 29.7114 138.643 27.4398 138.643 26.7168H128.643ZM127.234 28.9892L123.97 19.5372C123.67 19.6406 122.568 19.8995 119.539 20.0207L119.938 30.0127L120.338 40.0047C123.709 39.8699 127.279 39.5536 130.499 38.4413L127.234 28.9892ZM119.938 30.0127L110.007 28.8443C109.962 29.2277 109.907 29.4025 109.894 29.4406C109.887 29.463 109.907 29.4023 109.966 29.3168C110.024 29.2324 110.047 29.2307 109.954 29.3075C109.849 29.3939 109.591 29.5853 109.081 29.8459L113.635 38.749L118.188 47.6521C121.387 46.0164 124.27 43.7951 126.415 40.6929C128.568 37.5809 129.508 34.2607 129.87 31.1811L119.938 30.0127ZM113.635 38.749L108.722 30.0392C108.789 30.0014 108.867 29.9665 108.973 29.9372C109.078 29.9081 109.265 29.8691 109.539 29.8691L109.539 39.8691L109.54 49.8691C112.855 49.869 115.972 48.9119 118.548 47.4588L113.635 38.749ZM109.539 39.8691V29.8691C110.104 29.8691 110.574 29.9722 110.986 30.1319C111.383 30.2854 112.053 30.6195 112.756 31.3465L105.57 38.3008L98.3843 45.255C101.532 48.5081 105.861 49.8691 109.539 49.8691V39.8691ZM105.57 38.3008L113.023 31.6332C113.3 31.9424 113.865 32.6847 114.177 33.9208C114.52 35.2747 114.469 36.9285 113.762 38.5001L104.643 34.3965L95.5234 30.2928C92.7561 36.4422 95.4643 42.0026 98.1175 44.9683L105.57 38.3008ZM104.643 34.3965L113.508 39.023C112.974 40.0469 112.255 40.8292 111.548 41.3645C110.896 41.8583 110.393 42.0384 110.307 42.068L107.075 32.6045L103.844 23.141C100.999 24.1125 97.7245 26.0386 95.7772 29.7699L104.643 34.3965ZM107.075 32.6045L110.016 42.1622C112.587 41.3712 116.686 39.8502 119.513 35.8266L111.331 30.0771L103.149 24.3276C103.411 23.9549 103.705 23.6348 104.001 23.3742C104.29 23.1202 104.534 22.9636 104.674 22.8829C104.807 22.8061 104.851 22.7953 104.752 22.8351C104.653 22.8754 104.46 22.9464 104.134 23.0467L107.075 32.6045ZM111.331 30.0771L111.558 20.0797C110.255 20.0501 109.22 20.0007 108.421 19.9309C107.557 19.8553 107.286 19.7814 107.379 19.8064L104.803 29.4687L102.226 39.1311C104.979 39.8652 108.393 40.0129 111.104 40.0745L111.331 30.0771ZM104.803 29.4687L107.27 19.7778C108.055 19.9776 109.887 20.6909 111.292 22.7291C112.615 24.6475 112.672 26.4744 112.655 27.0901L102.659 26.8125L92.663 26.5348C92.6139 28.3025 92.8634 31.2336 94.8256 34.0801C96.8703 37.0464 99.7909 38.5118 102.336 39.1597L104.803 29.4687ZM102.659 26.8125L112.652 27.1975C112.648 27.2911 112.63 28.8142 111.587 30.5139C111.016 31.4445 110.222 32.2926 109.239 32.9349C108.281 33.5609 107.397 33.8256 106.816 33.9313L105.026 24.0927L103.237 14.2542C99.7009 14.8973 96.5112 16.841 94.5393 20.0554C92.8488 22.8108 92.7023 25.5018 92.6666 26.4275L102.659 26.8125ZM105.026 24.0927L107.26 33.8401C108.105 33.6464 110.25 33.2926 113.261 33.1545L112.803 23.165L112.344 13.1755C108.38 13.3574 105.019 13.8351 102.793 14.3454L105.026 24.0927ZM112.803 23.165H122.803V22.0449H112.803H102.803V23.165H112.803ZM112.803 22.0449L112.504 12.0493C110.937 12.0961 109.299 12.0004 107.805 11.7739L106.307 21.6611L104.809 31.5483C107.538 31.9618 110.38 32.1217 113.101 32.0404L112.803 22.0449ZM106.307 21.6611L111.023 12.8433C112.412 13.5859 113.752 14.972 114.393 16.8613C114.957 18.524 114.701 19.7481 114.632 20.022L104.931 17.5967L95.2292 15.1713C94.6808 17.3652 94.4245 20.2535 95.4524 23.2844C96.5571 26.542 98.8257 29.0003 101.59 30.4789L106.307 21.6611ZM104.931 17.5967L114.661 19.9017C114.592 20.195 114.228 21.6676 112.757 23.0995C111.953 23.8824 110.92 24.5439 109.716 24.9363C108.535 25.3209 107.501 25.3465 106.782 25.2721L107.811 15.3252L108.839 5.3782C105.254 5.00749 101.585 6.06421 98.8084 8.76644C96.433 11.0781 95.5574 13.7824 95.1999 15.2916L104.931 17.5967ZM107.811 15.3252L106.879 25.2817C109.847 25.5592 113.077 25.4945 115.977 25.0656C117.427 24.8513 119.032 24.5116 120.592 23.9586C121.953 23.4764 124.271 22.495 126.227 20.4562L119.011 13.5332L111.795 6.61018C112.464 5.91213 113.077 5.531 113.374 5.36363C113.691 5.18486 113.894 5.11356 113.911 5.10765C113.925 5.10267 113.658 5.19098 113.052 5.28068C111.84 5.45981 110.222 5.50707 108.742 5.36862L107.811 15.3252ZM25.04 12.1572L25.04 22.1572C24.6338 22.1572 23.4744 22.0978 22.1004 21.272C20.4221 20.2632 19.2358 18.5783 18.851 16.8031L28.624 14.6845L38.397 12.566C37.5961 8.87112 35.3858 5.92252 32.4035 4.13C29.7255 2.52045 26.9821 2.15721 25.0401 2.1572L25.04 12.1572ZM28.624 14.6845L18.8182 16.6457C18.6845 15.9769 18.6665 15.4077 18.6866 14.9752C18.7071 14.5364 18.771 14.144 18.8581 13.7957L28.5596 16.2207L38.2611 18.6456C38.6687 17.0148 38.8741 14.9449 38.4298 12.7234L28.624 14.6845ZM28.5596 16.2207L28.2894 26.217C30.6724 26.2814 32.3717 26.3715 33.368 26.496L34.6084 16.5732L35.8488 6.65043C33.7731 6.39097 31.1828 6.28792 28.8297 6.22432L28.5596 16.2207ZM34.6084 16.5732L32.9642 26.4371C33.0575 26.4527 33.1341 26.4669 33.1947 26.4791C33.2557 26.4913 33.2943 26.5003 33.3124 26.5047C33.3312 26.5093 33.3194 26.5069 33.2812 26.4955C33.2614 26.4895 33.2321 26.4805 33.1944 26.4679C33.1568 26.4553 33.1079 26.4383 33.0492 26.4163L36.5596 17.0527L40.0699 7.68908C38.7003 7.17561 37.3186 6.887 36.2526 6.70931L34.6084 16.5732ZM36.5596 17.0527L32.742 26.2953C32.2198 26.0796 31.4542 25.6738 30.6762 24.9492C29.8711 24.1992 29.2811 23.3197 28.9026 22.438C28.2308 20.8732 28.4441 19.8198 28.3948 20.348L38.3516 21.2773L48.3083 22.2066C48.483 20.3348 48.5363 17.4732 47.2805 14.5481C45.8019 11.1039 43.1333 8.9485 40.3772 7.81009L36.5596 17.0527ZM38.3516 21.2773L28.3949 20.3476C28.3717 20.5957 28.4248 19.2761 29.6195 17.7429C30.9865 15.9884 32.68 15.4137 33.2981 15.2654L35.6318 24.9892L37.9656 34.7131C40.1836 34.1808 43.1249 32.9499 45.3958 30.0354C47.4943 27.3422 48.1074 24.3586 48.3083 22.207L38.3516 21.2773ZM35.6318 24.9892L33.675 15.1826C33.7701 15.1636 33.8527 15.1486 33.9191 15.1372C33.9862 15.1256 34.0449 15.1163 34.0932 15.1089C34.1877 15.0946 34.2638 15.0846 34.3138 15.0783C34.3656 15.0719 34.4064 15.0673 34.433 15.0644C34.4602 15.0615 34.4803 15.0595 34.4917 15.0585C34.5127 15.0564 34.5179 15.0561 34.5015 15.0575C34.4865 15.0587 34.4619 15.0606 34.4253 15.0632C34.3891 15.0658 34.3469 15.0688 34.2968 15.0722C34.2464 15.0756 34.1934 15.0792 34.1335 15.0832C34.0757 15.087 34.0101 15.0914 33.9451 15.0958C33.8794 15.1003 33.8083 15.1052 33.7358 15.1103L34.4482 25.0849L35.1607 35.0595C35.2446 35.0535 35.3389 35.0472 35.4656 35.0388C35.5809 35.0311 35.7277 35.0213 35.8704 35.0109C36.0057 35.0011 36.1957 34.9867 36.3928 34.9679C36.4922 34.9584 36.6325 34.9441 36.7928 34.9241C36.9204 34.9082 37.2214 34.8692 37.5887 34.7959L35.6318 24.9892ZM34.4482 25.0849L33.8935 15.1003C34 15.0944 33.8612 15.1005 33.2492 15.1101C32.7585 15.1178 32.1494 15.1256 31.5266 15.1336C30.9155 15.1415 30.2878 15.1497 29.7953 15.1581C29.552 15.1623 29.3138 15.1669 29.1153 15.1722C29.0193 15.1748 28.899 15.1784 28.777 15.1836C28.7172 15.1861 28.6254 15.1903 28.5188 15.1969C28.464 15.2003 28.1949 15.2164 27.8632 15.2579L29.1035 25.1806L30.3438 35.1034C30.0281 35.1429 29.7834 35.1569 29.7607 35.1583C29.6862 35.163 29.6343 35.1652 29.6218 35.1657C29.5944 35.1669 29.5978 35.1665 29.6508 35.1651C29.7504 35.1624 29.9112 35.1591 30.1359 35.1552C30.5795 35.1477 31.164 35.14 31.7851 35.1319C32.3945 35.1241 33.0376 35.1159 33.563 35.1077C33.8253 35.1035 34.0752 35.0991 34.2866 35.0944C34.4429 35.091 34.7392 35.0842 35.0029 35.0695L34.4482 25.0849ZM29.1035 25.1806H19.1035C19.1035 27.2896 19.0663 28.9368 18.9199 30.2666C18.7599 31.7201 18.5521 31.9025 18.7695 31.5064L27.5361 36.3174L36.3028 41.1283C37.9602 38.1083 38.5361 34.8503 38.7998 32.4553C39.077 29.9369 39.1035 27.3277 39.1035 25.1806H29.1035ZM27.5361 36.3174L18.7839 31.4802C19.1351 30.8447 19.9512 30.0803 21.195 29.8205C22.418 29.565 23.6499 29.8946 24.5012 30.5811L18.2236 38.3652L11.9461 46.1493C19.9571 52.6098 31.3905 50.0166 36.2884 41.1545L27.5361 36.3174ZM18.2236 38.3652L24.3954 30.497C26.5221 32.1651 26.9465 34.2979 26.9792 35.3556C27.0081 36.2891 26.8027 38.233 24.9754 40.0603L17.9043 32.9892L10.8332 25.9182C7.75793 28.9935 6.8962 32.9853 6.98881 35.9748C7.08526 39.0885 8.29326 43.2852 12.0519 46.2334L18.2236 38.3652ZM17.9043 32.9892L24.9754 40.0603C26.685 38.3506 28.4882 36.1597 29.5877 33.0629C30.5887 30.2435 30.7018 27.4725 30.7194 25.3271L20.7197 25.2451L10.7201 25.1631C10.7168 25.5561 10.7083 25.865 10.6961 26.1127C10.684 26.36 10.6694 26.5192 10.6583 26.6139C10.6371 26.7947 10.6373 26.6614 10.7403 26.3714C10.7911 26.2283 10.855 26.0806 10.9292 25.9381C11.0025 25.7972 11.0695 25.6931 11.113 25.6306C11.1885 25.5225 11.1558 25.5955 10.8332 25.9182L17.9043 32.9892ZM20.7197 25.2451L20.3691 15.2512C18.7823 15.3069 17.0476 15.3093 14.9125 15.2784L14.7676 25.2773L14.6227 35.2763C16.9033 35.3093 19.0094 35.3112 21.0704 35.2389L20.7197 25.2451ZM14.7676 25.2773L14.8613 15.2778C14.4227 15.2736 14.5733 15.2346 15.0366 15.3521C15.5651 15.4861 16.6715 15.8689 17.7927 16.8789C20.2389 19.0823 20 21.6162 20 20.7968H10H0C0 23.4014 0.43305 28.1594 4.40711 31.7391C8.07144 35.0398 12.5547 35.257 14.6739 35.2769L14.7676 25.2773ZM10 20.7968L20 20.797C20 21.1134 19.8726 23.2334 17.8883 25.0539C16.2426 26.5637 14.7676 26.4762 15.5525 26.4169L14.7998 16.4453L14.0471 6.47365C11.4402 6.67044 7.56534 7.38276 4.36768 10.3164C0.831414 13.5607 4.1008e-05 17.7285 0 20.7967L10 20.7968ZM14.7998 16.4453L15.5817 26.4147C16.92 26.3097 19.0526 26.2191 21.5458 26.1887L21.4238 16.1894L21.3019 6.19017C18.5472 6.22376 15.9435 6.32487 14.0179 6.4759L14.7998 16.4453ZM21.4238 16.1894L30.9597 13.1781C31.4436 14.7106 31.3061 16.034 31.0931 16.8861L21.3916 14.4609L11.6901 12.0357C11.2211 13.9118 11.0201 16.4523 11.888 19.2007L21.4238 16.1894ZM21.3916 14.4609L31.1112 16.8124C30.8937 17.7115 30.434 18.7414 29.6322 19.6959C28.8457 20.6322 27.9576 21.2263 27.2144 21.5826C26.5041 21.923 25.9207 22.0513 25.607 22.1033C25.2868 22.1565 25.08 22.1572 25.04 22.1572V12.1572V2.1572C23.7845 2.1572 21.2361 2.26917 18.5693 3.54754C15.4214 5.05648 12.68 7.94314 11.672 12.1094L21.3916 14.4609ZM62.0059 12.6367L71.5841 15.5103C71.1596 16.9251 70.0818 18.3503 68.4874 19.2127C67.1342 19.9446 65.6433 20.1501 64.1867 19.8953L65.9102 10.0449L67.6336 0.194521C62.4006 -0.721044 54.8393 1.72448 52.4276 9.7631L62.0059 12.6367ZM65.9102 10.0449L64.1213 19.8836C63.9848 19.8588 62.9266 19.6823 61.7244 18.5007C61.0277 17.8159 60.2226 16.7125 59.8122 15.1736C59.3908 13.5937 59.5503 12.1695 59.8742 11.1573L69.3984 14.205L78.9227 17.2528C80.5442 12.1855 78.9312 7.36977 75.7442 4.23723C73.1339 1.67154 69.9475 0.61501 67.699 0.206192L65.9102 10.0449ZM69.3984 14.205L59.9117 11.0426C60.0944 10.4945 60.4862 9.66672 61.2706 8.83962C62.0785 7.98778 63.0868 7.36782 64.1517 7.02421L67.2227 16.541L70.2937 26.0578C74.7444 24.6215 77.6156 21.176 78.8852 17.3675L69.3984 14.205ZM67.2227 16.541L62.75 25.485C62.5037 25.3618 61.3192 24.7436 60.3551 23.1505C59.8336 22.2889 59.4393 21.2333 59.313 20.0524C59.1879 18.8825 59.3569 17.886 59.5899 17.1611L69.1104 20.2207L78.6308 23.2802C79.7587 19.7707 79.408 16.005 77.4656 12.7954C75.7656 9.98632 73.3494 8.42414 71.6953 7.59699L67.2227 16.541ZM69.1104 20.2207L59.5959 17.1425C59.9414 16.0746 60.9704 14.3104 63.181 13.3163C65.2933 12.3664 67.0536 12.7633 67.717 13.0063L64.2783 22.3965L60.8397 31.7866C63.775 32.8616 67.5994 33.2586 71.3836 31.5568C75.2663 29.8108 77.5753 26.5428 78.6248 23.2989L69.1104 20.2207ZM64.2783 22.3965L67.6958 12.9985C67.6527 12.9829 67.6253 12.9725 67.6091 12.9663C67.5933 12.9602 67.5912 12.9592 67.5996 12.9627C67.6188 12.9706 67.6766 12.9953 67.7583 13.0362L63.2861 21.9804L58.814 30.9247C59.6164 31.3259 60.3342 31.6028 60.8609 31.7944L64.2783 22.3965ZM63.2861 21.9804L53.9661 18.356C54.6005 16.7246 55.6335 15.7892 56.1618 15.4118L61.9746 23.5488L67.7874 31.6858C69.6594 30.3485 71.5238 28.3881 72.6062 25.6049L63.2861 21.9804ZM61.9746 23.5488L56.5779 15.13C56.7064 15.0476 56.6018 15.1308 56.1296 15.3143C55.6946 15.4833 55.1275 15.6684 54.4484 15.8554C53.0789 16.2324 51.6255 16.516 50.5786 16.6861L52.1826 26.5566L53.7867 36.4271C55.2998 36.1812 57.4945 35.7608 59.757 35.138C61.8089 34.5731 64.8119 33.6082 67.3713 31.9676L61.9746 23.5488ZM52.1826 26.5566L42.5203 29.1332C42.4733 28.9573 42.4412 28.814 42.4207 28.7168C42.3996 28.6168 42.385 28.5371 42.3757 28.4832C42.3577 28.3795 42.3502 28.3185 42.3496 28.3143C42.349 28.3089 42.3576 28.3805 42.3688 28.5349C42.3794 28.68 42.3891 28.8548 42.396 29.0432C42.403 29.2315 42.4062 29.4106 42.4062 29.5646L52.4062 29.5644L62.4062 29.5642C62.4062 28.7411 62.3731 27.8669 62.316 27.0822C62.28 26.5871 62.1823 25.2449 61.845 23.98L52.1826 26.5566ZM52.4062 29.5644L55.0684 39.2035C56.1565 38.903 57.441 38.6677 58.6768 38.5381C59.9757 38.4019 60.8292 38.4233 61.1194 38.4538L62.166 28.5088L63.2126 18.5637C59.2546 18.1471 54.0034 18.7489 49.7441 19.9253L52.4062 29.5644ZM62.166 28.5088L61.0953 38.4513C61.0953 38.4513 61.0941 38.4511 61.0919 38.4509C61.0897 38.4506 61.0864 38.4502 61.0819 38.4496C61.073 38.4485 61.0594 38.4467 61.0413 38.4439C61.0055 38.4385 60.9491 38.4291 60.8749 38.4139C60.7293 38.384 60.492 38.3271 60.1912 38.2221C59.5564 38.0006 58.6917 37.5826 57.8307 36.8335C56.9654 36.0808 56.4185 35.2675 56.0955 34.6366C55.9436 34.3399 55.8491 34.0993 55.7954 33.9486C55.7422 33.7992 55.7191 33.7095 55.7185 33.7069L65.3984 31.1972L75.0784 28.6876C74.6686 27.107 73.7146 24.1428 70.9578 21.7445C68.22 19.3627 65.1286 18.77 63.2367 18.5662L62.166 28.5088ZM65.3984 31.1972L55.7276 33.7418C55.8035 34.0304 55.5194 33.2101 55.7774 31.8803C55.9196 31.1472 56.2074 30.3584 56.6793 29.6087C57.1453 28.8685 57.6699 28.3583 58.085 28.0389L64.1826 35.9648L70.2802 43.8907C72.9469 41.8391 74.768 39.0049 75.4113 35.6897C75.9813 32.7519 75.4732 30.1879 75.0693 28.6526L65.3984 31.1972ZM64.1826 35.9648L58.1997 27.952C58.2549 27.9108 57.9116 28.1692 56.8268 28.4861C55.779 28.7921 54.3493 29.0632 52.5061 29.2462L53.4941 39.1972L54.4822 49.1483C59.4386 48.6562 65.5028 47.4591 70.1655 43.9776L64.1826 35.9648ZM53.4941 39.1972L52.4346 29.2535C50.7982 29.4279 50.0597 29.4016 49.7636 29.3699C49.6502 29.3577 49.656 29.3499 49.7339 29.373C49.817 29.3977 49.8831 29.4281 49.9053 29.4397L45.2705 38.3008L40.6357 47.1618C45.3318 49.6181 49.9601 49.6304 54.5537 49.1409L53.4941 39.1972ZM45.2705 38.3008L49.9543 29.4655C50.3831 29.6928 50.7702 30.004 51.0723 30.3507C51.3618 30.6828 51.4801 30.9397 51.5027 30.993C51.5203 31.0346 51.456 30.8948 51.3856 30.4926C51.3155 30.0921 51.2523 29.5059 51.2363 28.6952L41.2383 28.8925L31.2402 29.0899C31.3561 34.9598 32.9312 43.0777 40.5867 47.136L45.2705 38.3008ZM41.2383 28.8925L51.2357 28.6654C51.176 26.0401 51.2233 23.6234 51.4273 21.6909C51.5285 20.7319 51.6526 20.051 51.7634 19.6148C51.8891 19.1199 51.9159 19.2665 51.635 19.7277L43.0947 14.5254L34.5545 9.32305C32.4821 12.7251 31.8312 16.8121 31.5378 19.5912C31.2056 22.7384 31.1725 26.1132 31.2409 29.1197L41.2383 28.8925ZM43.0947 14.5254L51.5974 19.7889C51.3838 20.1339 51.0491 20.5803 50.559 21.0328C50.0608 21.4928 49.5165 21.8533 48.979 22.1168C47.9932 22.5998 47.2926 22.6194 47.6294 22.585L46.6143 12.6367L45.5991 2.68835C44.3679 2.81398 42.3235 3.10588 40.178 4.15728C37.792 5.32653 35.9281 7.10361 34.5921 9.26182L43.0947 14.5254ZM46.6143 12.6367L47.7322 22.574C48.5136 22.4861 47.5945 22.733 46.1168 22.1778C45.2487 21.8516 44.3407 21.3077 43.5472 20.5171C42.7817 19.7543 42.3578 18.9966 42.1408 18.506L51.2861 14.4609L60.4315 10.4158C59.1386 7.49274 56.7713 4.81596 53.1516 3.45583C50.162 2.33248 47.2749 2.49929 45.4963 2.69938L46.6143 12.6367ZM51.2861 14.4609L42.2806 18.8084C42.1854 18.6111 42.1222 18.4541 42.0841 18.3528C42.0452 18.2496 42.022 18.1763 42.011 18.1399C41.9996 18.1024 41.9958 18.0861 41.9978 18.0941C41.9996 18.1013 42.0048 18.1231 42.0125 18.16C42.0286 18.2374 42.0476 18.3427 42.0666 18.47C42.0853 18.5952 42.1003 18.7172 42.1116 18.8221L52.0547 17.7568L61.9978 16.6915C61.9067 15.8419 61.5762 12.7743 60.2917 10.1134L51.2861 14.4609ZM52.0547 17.7568L55.1244 27.274C55.5148 27.1481 56.284 26.9562 57.2012 26.8191C58.1532 26.6767 58.8009 26.6633 59.0371 26.679L59.7021 16.7011L60.3672 6.72328C56.3799 6.4575 51.8194 7.32537 48.9849 8.23963L52.0547 17.7568ZM59.7021 16.7011L59.0583 26.6804C59.387 26.7016 58.9466 26.7005 58.2715 26.5089C57.4061 26.2632 56.4331 25.7965 55.5626 25.0567L62.0381 17.4365L68.5136 9.81625C65.2699 7.05985 61.7308 6.81123 60.346 6.72189L59.7021 16.7011ZM62.0381 17.4365L55.3484 24.8694C54.492 24.0987 54.0643 23.3465 53.9059 23.0359C53.7657 22.7608 53.7456 22.6447 53.8638 22.9992L63.3506 19.8369L72.8374 16.6746C72.5381 15.7767 71.5341 12.5293 68.7277 10.0035L62.0381 17.4365ZM63.3506 19.8369L53.934 23.2026C54.9218 25.9661 57.0665 28.2717 59.9605 29.3853C62.6262 30.4109 65.2587 30.183 67.3018 29.4268C71.6074 27.833 74.9277 23.2285 73.966 17.7787L64.1182 19.5166L54.2703 21.2544C53.4046 16.3486 56.4211 12.1281 60.359 10.6705C62.2182 9.98234 64.6509 9.76056 67.1426 10.7193C69.8626 11.7659 71.8594 13.9316 72.7672 16.4712L63.3506 19.8369ZM64.1182 19.5166L73.9726 17.8167C73.4543 14.8121 71.9469 11.9552 69.8133 9.82148L62.7422 16.8925L55.6711 23.9636C55.2422 23.5347 54.9611 23.1156 54.7695 22.7486C54.5805 22.3865 54.3789 21.8842 54.2637 21.2164L64.1182 19.5166ZM62.7422 16.8925L69.5247 24.2409C69.0934 24.639 68.6249 24.9653 68.1642 25.2169C67.7379 25.4498 67.4156 25.564 67.3858 25.5746L64.0225 16.1572L60.6591 6.73978C59.572 7.12802 57.7588 7.88368 55.9597 9.5442L62.7422 16.8925ZM64.0225 16.1572L67.938 6.95565C68.0117 6.98701 69.3457 7.52262 70.4889 9.20208C71.1268 10.1394 71.6238 11.3262 71.7837 12.6782C71.9407 14.0053 71.7282 15.1054 71.4756 15.8497L62.0059 12.6367L52.5361 9.42373C51.3091 13.04 51.6528 17.0729 53.9555 20.4558C55.8829 23.2875 58.5292 24.6874 60.1069 25.3587L64.0225 16.1572ZM92.5088 13.3086L102.087 16.1827C101.655 17.6216 100.55 19.0743 98.9159 19.9405C97.5351 20.6724 96.0657 20.8402 94.6896 20.5995L96.4121 10.749L98.1347 0.898469C93.0597 0.0110121 85.3826 2.26354 82.9307 10.4345L92.5088 13.3086ZM96.4121 10.749L94.7681 20.6129C94.5718 20.5802 93.4765 20.3983 92.2474 19.1973C91.5374 18.5035 90.727 17.3925 90.3148 15.8486C89.8921 14.2656 90.0526 12.8402 90.3762 11.8292L99.9004 14.8769L109.425 17.9247C111.044 12.8643 109.44 8.0345 106.225 4.89265C103.588 2.31563 100.364 1.26977 98.0561 0.885056L96.4121 10.749ZM99.9004 14.8769L90.4136 11.7144C90.5854 11.1991 90.9615 10.3867 91.7355 9.56266C92.5398 8.70637 93.574 8.05518 94.7096 7.70029L97.6924 17.2451L100.675 26.7899C105.326 25.3365 108.155 21.7345 109.387 18.0395L99.9004 14.8769ZM97.6924 17.2451L93.631 26.3832C93.1796 26.1826 91.8961 25.5193 90.8785 23.8563C89.6416 21.835 89.5424 19.5428 90.0919 17.8329L99.6123 20.8925L109.133 23.9522C110.258 20.4504 109.919 16.6545 107.938 13.4174C106.177 10.5387 103.645 8.94757 101.754 8.10698L97.6924 17.2451ZM99.6123 20.8925L90.0979 17.8143C90.4434 16.7464 91.4724 14.9823 93.683 13.9882C95.7952 13.0383 97.5555 13.4352 98.2189 13.6781L94.7803 23.0683L91.3416 32.4585C94.277 33.5334 98.1013 33.9305 101.886 32.2287C105.768 30.4827 108.077 27.2146 109.127 23.9708L99.6123 20.8925ZM94.7803 23.0683L97.943 13.5817C98.0175 13.6065 98.1431 13.6528 98.3105 13.734C98.4749 13.8137 98.7246 13.9487 99.0247 14.163L93.2129 22.3008L87.401 30.4385C88.8611 31.4812 90.3639 32.1371 91.6175 32.555L94.7803 23.0683ZM93.2129 22.3008L83.2324 22.9245C83.2978 23.972 83.3043 25.2667 83.1779 26.9098L93.1484 27.6767L103.119 28.4437C103.313 25.9269 103.32 23.7015 103.193 21.677L93.2129 22.3008ZM93.1484 27.6767L83.1711 27.0041C83.0931 28.1601 82.9878 28.8817 82.8874 29.333C82.7912 29.7651 82.7426 29.7474 82.8763 29.5145L91.5488 34.4931L100.221 39.4718C102.399 35.6792 102.912 31.5188 103.126 28.3494L93.1484 27.6767ZM91.5488 34.4931L82.7296 29.7792C82.8256 29.5996 82.97 29.3784 83.1711 29.1502C83.3729 28.9213 83.5834 28.74 83.7725 28.6074C84.1411 28.3487 84.261 28.3897 83.7835 28.5105L86.2363 38.205L88.6892 47.8996C93.296 46.734 97.7133 44.1739 100.368 39.2071L91.5488 34.4931ZM86.2363 38.205L83.9713 28.4649C83.3925 28.5995 82.4336 28.7387 81.0275 28.7872L81.3721 38.7812L81.7167 48.7753C84.0223 48.6958 86.3282 48.4505 88.5013 47.9452L86.2363 38.205ZM81.3721 38.7812L81.0782 28.7855C79.2193 28.8402 78.237 28.7608 77.7163 28.6787C77.3213 28.6165 77.2514 28.5644 77.2289 28.5529L72.7002 37.4687L68.1715 46.3845C72.3659 48.515 76.6327 48.9249 81.666 48.7769L81.3721 38.7812ZM72.7002 37.4687L77.1076 28.4924C77.6778 28.7724 78.4183 29.2589 79.1166 30.0419C79.8208 30.8313 80.2567 31.6694 80.5072 32.3822C80.7396 33.0439 80.7877 33.5262 80.7982 33.6521C80.8081 33.7699 80.7967 33.7375 80.8073 33.4073L70.8125 33.0849L60.8177 32.7626C60.7818 33.8769 60.7138 36.3814 61.6378 39.0113C62.7773 42.2548 65.0889 44.8719 68.2928 46.4451L72.7002 37.4687ZM70.8125 33.0849L80.8048 33.4768C80.8154 33.2065 80.8241 33.2279 80.8011 33.3834C80.7771 33.5459 80.6918 34.0528 80.4155 34.7217C80.1201 35.4372 79.6243 36.2928 78.8352 37.0935C78.0445 37.8959 77.1964 38.4022 76.4829 38.6995L72.6367 29.4687L68.7906 20.238C65.5021 21.6081 63.165 24.0965 61.9297 27.0879C60.9378 29.4899 60.8549 31.8081 60.8202 32.6931L70.8125 33.0849ZM72.6367 29.4687L76.3966 38.7349C76.0601 38.8715 76.042 38.7655 76.9177 38.7514C77.9133 38.7354 79.548 38.8413 82.3839 39.2204L83.709 29.3086L85.0341 19.3967C79.1445 18.6094 73.8082 18.2015 68.8768 20.2025L72.6367 29.4687ZM83.709 29.3086L93.4709 27.1394C93.3534 26.6106 93.305 25.6773 93.4639 24.4653L83.5488 23.165L73.6337 21.8647C73.2807 24.5566 73.1687 27.9747 73.9471 31.4778L83.709 29.3086ZM83.5488 23.165L81.4535 13.387C79.5007 13.8055 78.6547 13.9326 77.2764 13.9326V23.9326V33.9326C80.698 33.9326 83.117 33.4846 85.6441 32.943L83.5488 23.165ZM77.2764 23.9326L77.2764 13.9326C76.9237 13.9326 76.2018 13.9152 75.5177 13.8745C75.178 13.8543 74.9418 13.8338 74.8165 13.8198C74.7544 13.8128 74.7831 13.8145 74.8778 13.8304C74.9283 13.8389 75.0248 13.8561 75.1555 13.8847C75.2783 13.9115 75.4955 13.9624 75.772 14.0465L72.8604 23.6133L69.9487 33.18C71.0943 33.5287 72.201 33.6519 72.5901 33.6955C73.1869 33.7623 73.7987 33.8077 74.3309 33.8393C75.3909 33.9023 76.509 33.9326 77.2763 33.9326L77.2764 23.9326ZM72.8604 23.6133L75.9819 14.1129C76.5505 14.2998 77.406 14.6971 78.2673 15.48C79.1454 16.2783 79.7222 17.1981 80.065 18.0268C80.3817 18.7925 80.4583 19.3797 80.4785 19.5714C80.4975 19.7515 80.485 19.7846 80.4906 19.4714L70.4922 19.2929L60.4938 19.1145C60.4772 20.0451 60.4008 22.8117 61.5836 25.6713C63.0709 29.2671 65.9934 31.8829 69.7388 33.1136L72.8604 23.6133ZM70.4922 19.2929L80.4862 19.6376C80.4963 19.3468 80.5068 19.416 80.4679 19.6497C80.4246 19.91 80.2971 20.5267 79.9271 21.29C79.5313 22.1067 78.9612 22.8782 78.2476 23.514C77.5699 24.1179 76.9564 24.4273 76.6339 24.5639L72.7324 15.3564L68.8309 6.1489C66.0986 7.30667 63.4937 9.33992 61.9295 12.5674C60.6279 15.2529 60.5349 17.882 60.4981 18.9483L70.4922 19.2929ZM72.7324 15.3564L76.8988 24.4471C76.5717 24.5971 76.4418 24.6138 76.6489 24.5595C76.8188 24.515 77.1035 24.4519 77.5132 24.3819C78.3404 24.2405 79.3464 24.1264 80.357 24.0444L79.5488 14.0771L78.7407 4.10983C77.3833 4.21988 75.7491 4.39338 74.1441 4.66768C72.7354 4.90842 70.5642 5.34988 68.566 6.2657L72.7324 15.3564ZM79.5488 14.0771L80.4541 24.0361C82.4272 23.8567 84.6341 23.8089 85.4456 23.8943L86.4922 13.9492L87.5388 4.00411C84.7023 3.70561 80.8942 3.91359 78.6435 4.11818L79.5488 14.0771ZM86.4922 13.9492L85.329 23.8813C86.1495 23.9774 85.4534 24.0477 84.44 23.27C83.9272 22.8765 83.5458 22.4259 83.2945 22.0291C83.0657 21.6677 83.0108 21.4554 83.0431 21.5568L92.5723 18.5244L102.101 15.4919C101.252 12.8218 99.6901 9.76275 96.6163 7.40379C93.6748 5.14638 90.3867 4.33695 87.6554 4.01707L86.4922 13.9492ZM92.5723 18.5244L101.387 23.2472C100.617 24.683 99.2315 25.8814 97.4368 26.4278L94.5244 16.8613L91.612 7.2948C88.3456 8.28922 85.487 10.5742 83.7578 13.8016L92.5723 18.5244ZM94.5244 16.8613L98.5326 7.69973C98.6189 7.73746 98.9331 7.88036 99.3544 8.18615C99.7803 8.49531 100.44 9.06144 101.047 9.97209C101.687 10.9333 102.152 12.1079 102.3 13.3998C102.443 14.6538 102.25 15.669 102.045 16.3199L92.5088 13.3086L82.973 10.2973C81.8954 13.7097 82.1256 17.6442 84.4027 21.0618C86.3225 23.9431 88.9887 25.3546 90.5162 26.0229L94.5244 16.8613ZM12.4639 27.5166L18.4268 35.5442C17.5237 36.2151 16.1842 36.8302 14.4565 36.7903C12.4001 36.7427 10.8045 35.7849 9.96482 34.8537L17.3916 28.1572L24.8184 21.4607C22.2188 18.5776 18.7193 16.8835 14.919 16.7956C11.4475 16.7153 8.52406 17.9861 6.5009 19.4889L12.4639 27.5166ZM17.3916 28.1572L10.0436 34.94C9.48255 34.3322 8.86045 33.3946 8.50773 32.1345C8.15557 30.8764 8.18731 29.709 8.36979 28.7963C8.68714 27.2091 9.41955 26.5037 9.24465 26.7025L16.752 33.3086L24.2593 39.9147C25.4923 38.5135 27.3125 36.0644 27.9816 32.7175C28.782 28.7142 27.6909 24.5715 24.7396 21.3744L17.3916 28.1572ZM16.752 33.3086L9.21114 26.7408C9.56763 26.3315 10.9697 24.9977 13.4944 24.8831C16.1454 24.7627 17.8431 26.0798 18.4345 26.7141L11.1201 33.5332L3.80572 40.3522C6.15707 42.8744 9.80676 45.0711 14.4017 44.8625C18.8704 44.6596 22.2083 42.2696 24.2928 39.8764L16.752 33.3086ZM11.1201 33.5332L18.4818 26.7652C19.2411 27.5911 19.8895 28.7594 20.1456 30.1608C20.3896 31.4955 20.2008 32.6071 19.9716 33.333C19.5715 34.5994 18.9453 35.1368 18.7278 35.3117L12.4639 27.5166L6.19996 19.7215C4.19039 21.3363 1.98034 23.89 0.900421 27.3087C-0.336123 31.2233 0.0405407 36.2571 3.75844 40.3012L11.1201 33.5332ZM31.4404 27.8047L38.6317 34.7534C37.785 35.6297 36.1772 36.544 34.1035 36.5248C32.3314 36.5083 30.9089 35.8169 29.9109 34.9657L36.4004 27.3574L42.8899 19.7491C40.804 17.9699 37.8135 16.5584 34.2893 16.5256C30.4636 16.4901 26.9198 18.092 24.2491 20.8559L31.4404 27.8047ZM36.4004 27.3574L29.8345 34.8999C29.6913 34.7752 29.0665 34.2273 28.6989 32.916C28.4872 32.1607 28.3403 31.0337 28.6314 29.7115C28.9347 28.3333 29.6085 27.2314 30.3335 26.4823L37.5195 33.4365L44.7056 40.3907C48.4622 36.5089 49.0871 31.5508 47.9567 27.518C46.9816 24.0392 44.8372 21.4436 42.9662 19.8149L36.4004 27.3574ZM37.5195 33.4365L30.3233 26.4928C31.0359 25.7543 32.8567 24.4811 35.527 24.7028C38.0069 24.9086 39.3333 26.2538 39.6644 26.6548L31.9521 33.0205L24.2399 39.3861C26.235 41.8032 29.4651 44.2684 33.8726 44.6342C38.4707 45.0159 42.2431 42.9427 44.7157 40.3802L37.5195 33.4365ZM31.9521 33.0205L39.7317 26.7373C39.5583 26.5226 40.2164 27.2072 40.4744 28.7214C40.6223 29.5896 40.6293 30.707 40.2715 31.9146C39.9115 33.1297 39.297 34.0478 38.7224 34.6583L31.4404 27.8047L24.1584 20.951C21.189 24.106 20.0929 28.1733 20.7583 32.0797C21.3201 35.3779 23.0021 37.8544 24.1726 39.3036L31.9521 33.0205Z" fill="white" mask="url(#path-1-outside-1_76_2786)"/>
</g>
<defs>
<filter id="filter0_d_76_2786" x="0" y="0.0126953" width="138.643" height="57.8564" filterUnits="userSpaceOnUse" color-interpolation-filters="sRGB">
<feFlood flood-opacity="0" result="BackgroundImageFix"/>
<feColorMatrix in="SourceAlpha" type="matrix" values="0 0 0 0 0 0 0 0 0 0 0 0 0 0 0 0 0 0 127 0" result="hardAlpha"/>
<feOffset dy="8"/>
<feComposite in2="hardAlpha" operator="out"/>
<feColorMatrix type="matrix" values="0 0 0 0 0.768913 0 0 0 0 0.867695 0 0 0 0 0.5149 0 0 0 1 0"/>
<feBlend mode="normal" in2="BackgroundImageFix" result="effect1_dropShadow_76_2786"/>
<feBlend mode="normal" in="SourceGraphic" in2="effect1_dropShadow_76_2786" result="shape"/>
</filter>
</defs>
</svg>
