<svg width="214" height="63" viewBox="0 0 214 63" fill="none" xmlns="http://www.w3.org/2000/svg">
<g filter="url(#filter0_d_4_529)">
<mask id="path-1-outside-1_4_529" maskUnits="userSpaceOnUse" x="0.43512" y="0.200195" width="214" height="55" fill="black">
<rect fill="white" x="0.43512" y="0.200195" width="214" height="55"/>
<path fill-rule="evenodd" clip-rule="evenodd" d="M108.661 16.1201C109.973 14.9043 111.636 15.1604 112.82 16.5684C113.94 17.9443 113.941 19.48 112.757 20.792L112.404 21.208C112.372 21.592 113.108 22.008 113.108 24.5039C113.108 27.4479 112.052 30.4563 109.236 31.8643C107.796 31.2883 106.1 30.8718 104.021 30.8398C103.221 30.84 103.157 31.7363 103.957 31.7363C110.549 32.0564 113.493 35.7043 112.789 39.0322C112.181 41.8481 108.853 44.4404 102.837 44.4404C96.4691 44.4404 93.6528 41.6242 93.1407 38.4883C92.7247 35.7683 94.0049 32.76 96.3409 31C94.0689 29.624 93.1091 26.648 93.7491 23.832C94.4851 20.4721 97.5888 17.3037 103.637 17.3037C104.693 17.3037 105.653 17.4323 106.997 17.6562L108.661 16.1201ZM104.565 35.6719C104.564 34.936 103.509 34.9365 103.477 35.4805C103.381 37.0163 103.157 38.3282 102.389 39.832C102.165 40.344 103.06 40.7596 103.444 40.1836C104.308 38.9676 104.501 37.2078 104.565 35.6719ZM46.3829 17.6562C52.7508 17.6562 55.791 23.0638 55.7911 28.3438C55.7271 33.6877 51.9831 38.4237 46.2872 38.4238C40.3352 38.4238 35.9512 34.1038 35.9512 28.3438C35.9833 22.1039 40.079 17.6563 46.3829 17.6562ZM125.258 17.6562C131.626 17.6562 134.666 23.0638 134.666 28.3438C134.602 33.6877 130.858 38.4237 125.162 38.4238C119.21 38.4238 114.826 34.1038 114.826 28.3438C114.858 22.1039 118.954 17.6563 125.258 17.6562ZM62.3272 10.5205C64.9831 10.5206 66.4548 12.4084 66.6788 14.7764C66.7748 15.6726 66.9026 17.9764 66.9346 19.0322C65.5908 19.8323 64.3108 21.3684 63.7989 22.3604C63.5752 22.7761 63.7352 23.0956 64.087 23.2236C64.439 23.2876 64.5668 23.1598 64.7588 22.8398C66.2948 20.024 68.9508 18.6163 72.1827 18.6162C76.2147 18.6162 80.3428 21.048 80.3428 27.5439C80.3428 35.7359 74.7111 38.1045 69.2071 38.1045C60.8552 38.1045 57.5591 34.0082 57.4629 26.2324C57.3989 22.5845 57.5592 18.2003 57.9112 14.7764C58.1352 12.4084 59.6072 10.5205 62.3272 10.5205ZM143.122 14.4238C145.586 14.4239 146.898 15.0964 147.218 18.3604V18.4561C148.562 18.3921 149.906 18.4877 150.674 18.9355C151.73 19.5435 152.21 20.7601 152.21 22.4561C152.21 24.9199 150.93 25.8485 148.658 26.1045L147.794 26.2002C147.794 26.9681 147.762 27.6721 147.666 28.248C146.194 28.632 144.978 29.8479 144.626 30.7119C144.434 31.2557 145.106 31.4479 145.298 31.0645C146.066 29.5925 147.538 28.6963 149.01 28.8242C150.898 28.9522 152.69 30.3925 152.466 33.6885C152.274 36.5361 149.202 38.1044 145.746 38.1045C139.57 38.1045 139.058 33.9436 138.866 27.6396V27.1602C138.13 27.1602 137.49 26.9357 137.042 26.6797C135.986 26.0717 135.506 24.8881 135.506 23.1924C135.506 20.6644 136.818 19.9924 138.962 19.6084C138.994 19.1925 138.994 18.7762 139.026 18.3604C139.282 15.0964 140.594 14.4238 143.122 14.4238ZM153.639 27.6396C153.671 19.0641 159.975 16.4719 167.366 18.1357C170.598 18.8717 171.59 22.072 171.078 24.792C170.694 26.9358 169.319 28.7917 167.463 28.792C164.839 28.792 162.502 27.672 161.03 25.624C160.87 25.4001 160.583 25.4643 160.423 25.6562C160.263 25.7522 160.167 26.1356 160.326 26.3916C161.574 28.1836 163.847 29.4643 166.311 29.5283C169.255 29.5923 170.95 30.9044 170.982 33.8164C171.014 36.7601 169.222 38.0723 166.278 38.0723C158.854 38.1042 153.639 35.9916 153.639 27.6396ZM29.379 10.5205C32.0668 10.5206 33.4111 12.4084 33.667 14.7764C34.275 20.8242 34.275 27.512 33.667 33.5918C33.4111 35.9917 32.0668 37.8798 29.379 37.8799C26.723 37.8799 25.4104 35.9918 25.1544 33.5918C24.9944 32.152 24.8988 30.7121 24.8028 29.2402C23.1709 29.6242 21.379 29.5919 19.7471 29.208C19.6831 30.6799 19.5546 32.1519 19.3946 33.5918C19.1706 35.9917 17.8268 37.8798 15.171 37.8799C12.451 37.8799 11.1391 35.9918 10.9151 33.5918C10.2751 27.5119 10.2751 20.8242 10.9151 14.7764C11.1391 12.4084 12.451 10.5205 15.171 10.5205C17.8268 10.5206 19.1706 12.4084 19.3946 14.7764C19.5546 16.2163 19.6831 17.6883 19.7471 19.1602C21.379 18.7762 23.1709 18.744 24.8028 19.1279C24.8988 17.6561 24.9944 16.2162 25.1544 14.7764C25.4104 12.4084 26.723 10.5205 29.379 10.5205ZM86.7305 10.2002C89.0664 10.2004 90.9219 12.4402 90.9219 14.7441C90.9219 16.7436 89.6672 18.4683 87.8126 18.957C89.7202 19.677 90.7039 22.1947 90.9219 23.4482C91.5619 27.2242 91.5619 31.4164 90.9219 35.1924C90.6658 36.6961 89.3541 37.8798 86.7305 37.8799C84.0108 37.8799 82.6666 36.6962 82.4424 35.1924C81.8344 31.4164 81.8345 27.2242 82.4424 23.4482C82.6336 22.1918 83.6408 19.6654 85.6231 18.9521C83.9164 18.5024 82.5383 17.0025 82.5381 14.6484C82.5381 11.9924 84.5865 10.2002 86.7305 10.2002ZM177.381 10.4883C179.845 10.4883 181.158 11.1599 181.478 14.4238C181.574 15.3518 181.669 17.4637 181.701 18.5518C180.485 19.4797 179.781 20.4397 179.173 21.8477C178.853 22.6477 179.589 22.9998 179.909 22.4238C180.229 21.7519 180.645 21.1116 181.093 20.4717C182.469 18.5837 184.357 17.6562 186.405 17.6562C190.533 17.6563 192.581 21.144 192.613 25.3359C192.645 28.2799 192.453 30.6159 192.133 33.5918C191.909 35.9918 190.565 37.8799 187.909 37.8799C185.189 37.8799 183.909 35.9918 183.653 33.5918C183.461 31.9279 183.365 30.2958 183.301 28.6318C183.237 28.2481 182.949 28.088 182.693 28.0879C182.437 28.0879 182.181 28.2481 182.085 28.5361C181.989 30.232 181.893 31.9279 181.733 33.5918C181.477 35.9918 180.165 37.8799 177.509 37.8799C174.789 37.8797 173.509 35.9917 173.253 33.5918C173.029 31.4799 172.933 29.4 172.869 27.2881V24.7568C172.894 21.3718 173.089 17.42 173.285 14.4238C173.509 11.1601 174.853 10.4883 177.381 10.4883ZM199.043 10.2002C201.379 10.2004 203.234 12.4402 203.234 14.7441C203.234 16.7436 201.98 18.4683 200.125 18.957C202.033 19.677 203.016 22.1947 203.234 23.4482C203.874 27.2242 203.874 31.4164 203.234 35.1924C202.978 36.6961 201.667 37.8798 199.043 37.8799C196.323 37.8799 194.979 36.6962 194.755 35.1924C194.147 31.4164 194.147 27.2242 194.755 23.4482C194.946 22.1918 195.953 19.6654 197.936 18.9521C196.229 18.5024 194.851 17.0025 194.851 14.6484C194.851 11.9924 196.899 10.2002 199.043 10.2002ZM47.1514 25.8799C47.1833 25.1441 46.0949 25.176 46.0626 25.7197C45.9346 27.2876 45.6791 28.5999 44.9112 30.1357C44.6552 30.6157 45.5833 31.0962 46.0313 30.4883C46.8953 29.2083 47.1194 27.4799 47.1514 25.8799ZM126.026 25.8799C126.058 25.1441 124.97 25.176 124.938 25.7197C124.81 27.2876 124.554 28.5999 123.786 30.1357C123.53 30.6157 124.458 31.0962 124.906 30.4883C125.77 29.2083 125.994 27.4799 126.026 25.8799ZM68.9512 26.7764C68.5032 26.4564 67.8312 27.3838 68.3751 27.7998C69.655 28.7598 71.1909 29.3362 72.7588 29.6562C73.4627 29.7522 73.623 28.6323 73.1114 28.5039C71.5755 28.2159 70.3271 27.7362 68.9512 26.7764ZM104.82 21.752C104.82 20.9842 103.797 21.016 103.765 21.5596C103.669 23.0956 103.381 24.4403 102.645 25.9443C102.389 26.4242 103.317 26.8717 103.732 26.2959C104.628 25.0799 104.756 23.32 104.82 21.752Z"/>
</mask>
<path fill-rule="evenodd" clip-rule="evenodd" d="M108.661 16.1201C109.973 14.9043 111.636 15.1604 112.82 16.5684C113.94 17.9443 113.941 19.48 112.757 20.792L112.404 21.208C112.372 21.592 113.108 22.008 113.108 24.5039C113.108 27.4479 112.052 30.4563 109.236 31.8643C107.796 31.2883 106.1 30.8718 104.021 30.8398C103.221 30.84 103.157 31.7363 103.957 31.7363C110.549 32.0564 113.493 35.7043 112.789 39.0322C112.181 41.8481 108.853 44.4404 102.837 44.4404C96.4691 44.4404 93.6528 41.6242 93.1407 38.4883C92.7247 35.7683 94.0049 32.76 96.3409 31C94.0689 29.624 93.1091 26.648 93.7491 23.832C94.4851 20.4721 97.5888 17.3037 103.637 17.3037C104.693 17.3037 105.653 17.4323 106.997 17.6562L108.661 16.1201ZM104.565 35.6719C104.564 34.936 103.509 34.9365 103.477 35.4805C103.381 37.0163 103.157 38.3282 102.389 39.832C102.165 40.344 103.06 40.7596 103.444 40.1836C104.308 38.9676 104.501 37.2078 104.565 35.6719ZM46.3829 17.6562C52.7508 17.6562 55.791 23.0638 55.7911 28.3438C55.7271 33.6877 51.9831 38.4237 46.2872 38.4238C40.3352 38.4238 35.9512 34.1038 35.9512 28.3438C35.9833 22.1039 40.079 17.6563 46.3829 17.6562ZM125.258 17.6562C131.626 17.6562 134.666 23.0638 134.666 28.3438C134.602 33.6877 130.858 38.4237 125.162 38.4238C119.21 38.4238 114.826 34.1038 114.826 28.3438C114.858 22.1039 118.954 17.6563 125.258 17.6562ZM62.3272 10.5205C64.9831 10.5206 66.4548 12.4084 66.6788 14.7764C66.7748 15.6726 66.9026 17.9764 66.9346 19.0322C65.5908 19.8323 64.3108 21.3684 63.7989 22.3604C63.5752 22.7761 63.7352 23.0956 64.087 23.2236C64.439 23.2876 64.5668 23.1598 64.7588 22.8398C66.2948 20.024 68.9508 18.6163 72.1827 18.6162C76.2147 18.6162 80.3428 21.048 80.3428 27.5439C80.3428 35.7359 74.7111 38.1045 69.2071 38.1045C60.8552 38.1045 57.5591 34.0082 57.4629 26.2324C57.3989 22.5845 57.5592 18.2003 57.9112 14.7764C58.1352 12.4084 59.6072 10.5205 62.3272 10.5205ZM143.122 14.4238C145.586 14.4239 146.898 15.0964 147.218 18.3604V18.4561C148.562 18.3921 149.906 18.4877 150.674 18.9355C151.73 19.5435 152.21 20.7601 152.21 22.4561C152.21 24.9199 150.93 25.8485 148.658 26.1045L147.794 26.2002C147.794 26.9681 147.762 27.6721 147.666 28.248C146.194 28.632 144.978 29.8479 144.626 30.7119C144.434 31.2557 145.106 31.4479 145.298 31.0645C146.066 29.5925 147.538 28.6963 149.01 28.8242C150.898 28.9522 152.69 30.3925 152.466 33.6885C152.274 36.5361 149.202 38.1044 145.746 38.1045C139.57 38.1045 139.058 33.9436 138.866 27.6396V27.1602C138.13 27.1602 137.49 26.9357 137.042 26.6797C135.986 26.0717 135.506 24.8881 135.506 23.1924C135.506 20.6644 136.818 19.9924 138.962 19.6084C138.994 19.1925 138.994 18.7762 139.026 18.3604C139.282 15.0964 140.594 14.4238 143.122 14.4238ZM153.639 27.6396C153.671 19.0641 159.975 16.4719 167.366 18.1357C170.598 18.8717 171.59 22.072 171.078 24.792C170.694 26.9358 169.319 28.7917 167.463 28.792C164.839 28.792 162.502 27.672 161.03 25.624C160.87 25.4001 160.583 25.4643 160.423 25.6562C160.263 25.7522 160.167 26.1356 160.326 26.3916C161.574 28.1836 163.847 29.4643 166.311 29.5283C169.255 29.5923 170.95 30.9044 170.982 33.8164C171.014 36.7601 169.222 38.0723 166.278 38.0723C158.854 38.1042 153.639 35.9916 153.639 27.6396ZM29.379 10.5205C32.0668 10.5206 33.4111 12.4084 33.667 14.7764C34.275 20.8242 34.275 27.512 33.667 33.5918C33.4111 35.9917 32.0668 37.8798 29.379 37.8799C26.723 37.8799 25.4104 35.9918 25.1544 33.5918C24.9944 32.152 24.8988 30.7121 24.8028 29.2402C23.1709 29.6242 21.379 29.5919 19.7471 29.208C19.6831 30.6799 19.5546 32.1519 19.3946 33.5918C19.1706 35.9917 17.8268 37.8798 15.171 37.8799C12.451 37.8799 11.1391 35.9918 10.9151 33.5918C10.2751 27.5119 10.2751 20.8242 10.9151 14.7764C11.1391 12.4084 12.451 10.5205 15.171 10.5205C17.8268 10.5206 19.1706 12.4084 19.3946 14.7764C19.5546 16.2163 19.6831 17.6883 19.7471 19.1602C21.379 18.7762 23.1709 18.744 24.8028 19.1279C24.8988 17.6561 24.9944 16.2162 25.1544 14.7764C25.4104 12.4084 26.723 10.5205 29.379 10.5205ZM86.7305 10.2002C89.0664 10.2004 90.9219 12.4402 90.9219 14.7441C90.9219 16.7436 89.6672 18.4683 87.8126 18.957C89.7202 19.677 90.7039 22.1947 90.9219 23.4482C91.5619 27.2242 91.5619 31.4164 90.9219 35.1924C90.6658 36.6961 89.3541 37.8798 86.7305 37.8799C84.0108 37.8799 82.6666 36.6962 82.4424 35.1924C81.8344 31.4164 81.8345 27.2242 82.4424 23.4482C82.6336 22.1918 83.6408 19.6654 85.6231 18.9521C83.9164 18.5024 82.5383 17.0025 82.5381 14.6484C82.5381 11.9924 84.5865 10.2002 86.7305 10.2002ZM177.381 10.4883C179.845 10.4883 181.158 11.1599 181.478 14.4238C181.574 15.3518 181.669 17.4637 181.701 18.5518C180.485 19.4797 179.781 20.4397 179.173 21.8477C178.853 22.6477 179.589 22.9998 179.909 22.4238C180.229 21.7519 180.645 21.1116 181.093 20.4717C182.469 18.5837 184.357 17.6562 186.405 17.6562C190.533 17.6563 192.581 21.144 192.613 25.3359C192.645 28.2799 192.453 30.6159 192.133 33.5918C191.909 35.9918 190.565 37.8799 187.909 37.8799C185.189 37.8799 183.909 35.9918 183.653 33.5918C183.461 31.9279 183.365 30.2958 183.301 28.6318C183.237 28.2481 182.949 28.088 182.693 28.0879C182.437 28.0879 182.181 28.2481 182.085 28.5361C181.989 30.232 181.893 31.9279 181.733 33.5918C181.477 35.9918 180.165 37.8799 177.509 37.8799C174.789 37.8797 173.509 35.9917 173.253 33.5918C173.029 31.4799 172.933 29.4 172.869 27.2881V24.7568C172.894 21.3718 173.089 17.42 173.285 14.4238C173.509 11.1601 174.853 10.4883 177.381 10.4883ZM199.043 10.2002C201.379 10.2004 203.234 12.4402 203.234 14.7441C203.234 16.7436 201.98 18.4683 200.125 18.957C202.033 19.677 203.016 22.1947 203.234 23.4482C203.874 27.2242 203.874 31.4164 203.234 35.1924C202.978 36.6961 201.667 37.8798 199.043 37.8799C196.323 37.8799 194.979 36.6962 194.755 35.1924C194.147 31.4164 194.147 27.2242 194.755 23.4482C194.946 22.1918 195.953 19.6654 197.936 18.9521C196.229 18.5024 194.851 17.0025 194.851 14.6484C194.851 11.9924 196.899 10.2002 199.043 10.2002ZM47.1514 25.8799C47.1833 25.1441 46.0949 25.176 46.0626 25.7197C45.9346 27.2876 45.6791 28.5999 44.9112 30.1357C44.6552 30.6157 45.5833 31.0962 46.0313 30.4883C46.8953 29.2083 47.1194 27.4799 47.1514 25.8799ZM126.026 25.8799C126.058 25.1441 124.97 25.176 124.938 25.7197C124.81 27.2876 124.554 28.5999 123.786 30.1357C123.53 30.6157 124.458 31.0962 124.906 30.4883C125.77 29.2083 125.994 27.4799 126.026 25.8799ZM68.9512 26.7764C68.5032 26.4564 67.8312 27.3838 68.3751 27.7998C69.655 28.7598 71.1909 29.3362 72.7588 29.6562C73.4627 29.7522 73.623 28.6323 73.1114 28.5039C71.5755 28.2159 70.3271 27.7362 68.9512 26.7764ZM104.82 21.752C104.82 20.9842 103.797 21.016 103.765 21.5596C103.669 23.0956 103.381 24.4403 102.645 25.9443C102.389 26.4242 103.317 26.8717 103.732 26.2959C104.628 25.0799 104.756 23.32 104.82 21.752Z" fill="#AA96DA"/>
<path d="M108.661 16.1201L115.444 23.468C115.449 23.4636 115.454 23.4593 115.458 23.4549L108.661 16.1201ZM112.82 16.5684L120.576 10.2557C120.542 10.2143 120.508 10.1732 120.474 10.1324L112.82 16.5684ZM112.757 20.792L105.333 14.0926C105.263 14.1696 105.195 14.2478 105.128 14.327L112.757 20.792ZM112.404 21.208L104.775 14.743C103.429 16.3322 102.612 18.3023 102.439 20.3782L112.404 21.208ZM113.108 24.5039H123.108V24.5038L113.108 24.5039ZM109.236 31.8643L105.523 41.1491C108.175 42.2099 111.154 42.0859 113.709 40.8085L109.236 31.8643ZM104.021 30.8398L104.174 20.841C104.123 20.8402 104.071 20.8398 104.019 20.8398L104.021 30.8398ZM103.957 31.7363L104.442 21.7481C104.281 21.7403 104.119 21.7363 103.957 21.7363V31.7363ZM112.789 39.0322L122.564 41.1429C122.567 41.1292 122.57 41.1155 122.573 41.1018L112.789 39.0322ZM102.837 44.4404V54.4404H102.837L102.837 44.4404ZM93.1407 38.4883L83.2556 40.0001C83.2607 40.0334 83.266 40.0667 83.2714 40.1L93.1407 38.4883ZM96.3409 31L102.358 38.9869C105.009 36.9901 106.496 33.8086 106.328 30.4945C106.16 27.1804 104.36 24.1654 101.521 22.4464L96.3409 31ZM93.7491 23.832L103.5 26.0482C103.506 26.0228 103.512 25.9973 103.517 25.9719L93.7491 23.832ZM103.637 17.3037L103.637 7.30371H103.637V17.3037ZM106.997 17.6562L105.353 27.5202C108.4 28.028 111.51 27.0993 113.78 25.0041L106.997 17.6562ZM104.565 35.6719L114.556 36.0882C114.562 35.9489 114.565 35.8094 114.565 35.67L104.565 35.6719ZM103.477 35.4805L113.457 36.1044C113.458 36.0922 113.459 36.0799 113.459 36.0677L103.477 35.4805ZM102.389 39.832L93.4827 35.2843C93.3921 35.4616 93.3069 35.6416 93.2271 35.8241L102.389 39.832ZM103.444 40.1836L95.2924 34.3918C95.235 34.4726 95.1788 34.5542 95.1239 34.6366L103.444 40.1836ZM46.3829 17.6562V7.65625H46.3828L46.3829 17.6562ZM55.7911 28.3438L65.7904 28.4635C65.7908 28.4235 65.7911 28.3835 65.7911 28.3436L55.7911 28.3438ZM46.2872 38.4238V48.4238H46.2873L46.2872 38.4238ZM35.9512 28.3438L25.9514 28.2923C25.9513 28.3094 25.9512 28.3266 25.9512 28.3438H35.9512ZM125.258 17.6562V7.65625H125.258L125.258 17.6562ZM134.666 28.3438L144.665 28.4635C144.666 28.4235 144.666 28.3835 144.666 28.3436L134.666 28.3438ZM125.162 38.4238V48.4238H125.162L125.162 38.4238ZM114.826 28.3438L104.826 28.2923C104.826 28.3094 104.826 28.3266 104.826 28.3438H114.826ZM62.3272 10.5205L62.3276 0.520508H62.3272V10.5205ZM66.6788 14.7764L56.7232 15.7181C56.7271 15.7592 56.7312 15.8003 56.7356 15.8414L66.6788 14.7764ZM66.9346 19.0322L72.0501 27.6248C75.1719 25.7662 77.0401 22.3608 76.93 18.7293L66.9346 19.0322ZM63.7989 22.3604L72.605 27.0987C72.6321 27.0483 72.6588 26.9977 72.6851 26.9468L63.7989 22.3604ZM64.087 23.2236L60.6678 32.6209C61.1978 32.8138 61.7432 32.9614 62.2981 33.0623L64.087 23.2236ZM64.7588 22.8398L73.3338 27.9848C73.4042 27.8674 73.4722 27.7486 73.5378 27.6284L64.7588 22.8398ZM72.1827 18.6162V8.61621H72.1824L72.1827 18.6162ZM80.3428 27.5439H90.3428V27.5439L80.3428 27.5439ZM69.2071 38.1045V48.1045H69.2071L69.2071 38.1045ZM57.4629 26.2324L67.4622 26.1088C67.462 26.0916 67.4617 26.0743 67.4614 26.057L57.4629 26.2324ZM57.9112 14.7764L67.8588 15.799C67.8615 15.772 67.8642 15.7451 67.8667 15.7181L57.9112 14.7764ZM143.122 14.4238L143.122 4.42383H143.122V14.4238ZM147.218 18.3604H157.218C157.218 18.0345 157.202 17.7089 157.17 17.3846L147.218 18.3604ZM147.218 18.4561H137.218C137.218 21.1908 138.338 23.8062 140.317 25.6933C142.296 27.5805 144.962 28.5748 147.693 28.4447L147.218 18.4561ZM150.674 18.9355L145.637 27.5741C145.652 27.5834 145.668 27.5926 145.684 27.6018L150.674 18.9355ZM152.21 22.4561L162.21 22.4561V22.4561H152.21ZM148.658 26.1045L149.759 36.0437C149.765 36.043 149.772 36.0423 149.778 36.0416L148.658 26.1045ZM147.794 26.2002L146.693 16.2609C141.627 16.8219 137.794 21.1032 137.794 26.2001L147.794 26.2002ZM147.666 28.248L150.19 37.9242C154.007 36.9286 156.882 33.7826 157.53 29.892L147.666 28.248ZM144.626 30.7119L135.365 26.9384C135.305 27.0855 135.249 27.234 135.196 27.3837L144.626 30.7119ZM145.298 31.0645L136.432 26.4388C136.407 26.4866 136.383 26.5345 136.358 26.5827L145.298 31.0645ZM149.01 28.8242L148.144 38.7867C148.207 38.7921 148.27 38.797 148.333 38.8013L149.01 28.8242ZM152.466 33.6885L142.489 33.0104L142.489 33.0147L152.466 33.6885ZM145.746 38.1045V48.1045H145.746L145.746 38.1045ZM138.866 27.6396H128.866C128.866 27.7411 128.868 27.8426 128.871 27.9441L138.866 27.6396ZM138.866 27.1602H148.866C148.866 21.6373 144.389 17.1602 138.866 17.1602V27.1602ZM137.042 26.6797L132.052 35.3457C132.062 35.3512 132.071 35.3567 132.081 35.3621L137.042 26.6797ZM135.506 23.1924H125.506V23.1928L135.506 23.1924ZM138.962 19.6084L140.725 29.4518C145.209 28.6487 148.583 24.917 148.933 20.3754L138.962 19.6084ZM139.026 18.3604L129.057 17.5784C129.057 17.5835 129.056 17.5887 129.056 17.5938L139.026 18.3604ZM153.639 27.6396L143.639 27.6021C143.639 27.6146 143.639 27.6271 143.639 27.6396H153.639ZM167.366 18.1357L169.587 8.38536C169.579 8.38351 169.57 8.38167 169.562 8.37984L167.366 18.1357ZM171.078 24.792L161.251 22.9421C161.245 22.971 161.24 23 161.235 23.029L171.078 24.792ZM167.463 28.792V38.792H167.465L167.463 28.792ZM161.03 25.624L152.894 31.4385C152.9 31.4458 152.905 31.4531 152.91 31.4604L161.03 25.624ZM160.423 25.6562L165.568 34.2312C166.529 33.6545 167.386 32.9203 168.104 32.0593L160.423 25.6562ZM160.326 26.3916L151.841 31.6826C151.93 31.8263 152.023 31.9676 152.12 32.1065L160.326 26.3916ZM166.311 29.5283L166.051 39.5249C166.065 39.5253 166.079 39.5257 166.093 39.526L166.311 29.5283ZM170.982 33.8164L180.982 33.7082L180.982 33.7065L170.982 33.8164ZM166.278 38.0723V28.0723C166.264 28.0723 166.25 28.0723 166.235 28.0724L166.278 38.0723ZM29.379 10.5205L29.3793 0.520508H29.379V10.5205ZM33.667 14.7764L43.6169 13.7762C43.6144 13.7513 43.6118 13.7264 43.6091 13.7015L33.667 14.7764ZM33.667 33.5918L43.6106 34.6524C43.613 34.6306 43.6152 34.6087 43.6174 34.5868L33.667 33.5918ZM29.379 37.8799V47.8799H29.3793L29.379 37.8799ZM25.1544 33.5918L35.0979 32.5311C35.0964 32.5166 35.0948 32.5021 35.0932 32.4875L25.1544 33.5918ZM24.8028 29.2402L34.7816 28.5894C34.5902 25.6547 33.1167 22.9531 30.753 21.2031C28.3893 19.4532 25.3752 18.8325 22.5124 19.5061L24.8028 29.2402ZM19.7471 29.208L22.0372 19.4738C19.1376 18.7916 16.0848 19.4376 13.7101 21.2359C11.3353 23.0343 9.88595 25.7976 9.75656 28.7736L19.7471 29.208ZM19.3946 33.5918L9.45575 32.4875C9.44927 32.5458 9.44331 32.6041 9.43786 32.6625L19.3946 33.5918ZM15.171 37.8799V47.8799H15.1713L15.171 37.8799ZM10.9151 33.5918L20.8718 32.6625C20.8682 32.6233 20.8643 32.5841 20.8602 32.545L10.9151 33.5918ZM10.9151 14.7764L20.8596 15.8287C20.8635 15.7918 20.8672 15.755 20.8707 15.7181L10.9151 14.7764ZM15.171 10.5205L15.1713 0.520508H15.171V10.5205ZM19.3946 14.7764L9.43903 15.7181C9.44416 15.7723 9.44973 15.8265 9.45574 15.8806L19.3946 14.7764ZM19.7471 19.1602L9.75656 19.5945C9.88595 22.5705 11.3353 25.3339 13.7101 27.1322C16.0848 28.9305 19.1376 29.5766 22.0372 28.8944L19.7471 19.1602ZM24.8028 19.1279L22.5124 28.8621C25.3752 29.5357 28.3893 28.915 30.753 27.165C33.1167 25.4151 34.5902 22.7134 34.7816 19.7787L24.8028 19.1279ZM25.1544 14.7764L35.0932 15.8806C35.0943 15.8708 35.0954 15.861 35.0964 15.8512L25.1544 14.7764ZM86.7305 10.2002L86.7313 0.200195H86.7305V10.2002ZM90.9219 14.7441L100.922 14.7444V14.7441H90.9219ZM87.8126 18.957L85.2645 9.28711C81.0578 10.3956 78.0503 14.0966 77.8259 18.4411C77.6014 22.7857 80.2115 26.7769 84.2817 28.3129L87.8126 18.957ZM90.9219 23.4482L100.781 21.7772C100.779 21.7631 100.777 21.749 100.774 21.7348L90.9219 23.4482ZM90.9219 35.1924L100.78 36.8717L100.781 36.8635L90.9219 35.1924ZM86.7305 37.8799V47.8799H86.7308L86.7305 37.8799ZM82.4424 35.1924L92.3331 33.718C92.3274 33.6795 92.3215 33.6411 92.3153 33.6027L82.4424 35.1924ZM82.4424 23.4482L92.3153 25.0379C92.3199 25.0095 92.3243 24.9811 92.3286 24.9527L82.4424 23.4482ZM85.6231 18.9521L89.0089 28.3615C93.1291 26.879 95.8055 22.8883 95.6135 18.5137C95.4215 14.1391 92.4057 10.3982 88.1715 9.28231L85.6231 18.9521ZM82.5381 14.6484H72.5381V14.6491L82.5381 14.6484ZM177.381 10.4883V0.488281H177.381L177.381 10.4883ZM181.478 14.4238L171.525 15.3996C171.527 15.4174 171.529 15.4351 171.531 15.4528L181.478 14.4238ZM181.701 18.5518L187.768 26.5013C190.329 24.5467 191.792 21.478 191.697 18.2577L181.701 18.5518ZM179.173 21.8477L169.992 17.8832C169.956 17.9662 169.922 18.0498 169.888 18.1338L179.173 21.8477ZM179.909 22.4238L188.651 27.2803C188.752 27.0976 188.848 26.9119 188.938 26.7233L179.909 22.4238ZM181.093 20.4717L173.011 14.5818C172.974 14.6332 172.937 14.685 172.901 14.7371L181.093 20.4717ZM186.405 17.6562L186.405 7.65625H186.405V17.6562ZM192.613 25.3359L182.614 25.4123C182.614 25.4231 182.614 25.4339 182.614 25.4446L192.613 25.3359ZM192.133 33.5918L182.19 32.5227C182.185 32.5693 182.18 32.6159 182.176 32.6625L192.133 33.5918ZM187.909 37.8799L187.909 47.8799H187.909V37.8799ZM183.653 33.5918L193.597 32.5311C193.594 32.5026 193.591 32.4741 193.587 32.4456L183.653 33.5918ZM183.301 28.6318L193.293 28.2475C193.277 27.8245 193.234 27.403 193.164 26.9855L183.301 28.6318ZM182.693 28.0879L182.696 18.0879H182.693V28.0879ZM182.085 28.5361L172.598 25.3739C172.318 26.2138 172.151 27.0871 172.101 27.971L182.085 28.5361ZM181.733 33.5918L191.677 34.6524C191.681 34.6179 191.684 34.5834 191.688 34.5489L181.733 33.5918ZM177.509 37.8799L177.508 47.8799H177.509V37.8799ZM173.253 33.5918L163.309 34.6465L163.309 34.6524L173.253 33.5918ZM172.869 27.2881H162.869C162.869 27.3891 162.871 27.49 162.874 27.591L172.869 27.2881ZM172.869 24.7568L162.869 24.6845C162.869 24.7086 162.869 24.7327 162.869 24.7568H172.869ZM173.285 14.4238L163.309 13.739C163.308 13.7497 163.307 13.7604 163.307 13.771L173.285 14.4238ZM199.043 10.2002L199.044 0.200195H199.043V10.2002ZM203.234 14.7441L213.234 14.7444V14.7441H203.234ZM200.125 18.957L197.577 9.28709C193.37 10.3956 190.363 14.0966 190.138 18.4412C189.914 22.7857 192.524 26.7769 196.594 28.313L200.125 18.957ZM203.234 23.4482L213.094 21.7772C213.091 21.7631 213.089 21.749 213.087 21.7348L203.234 23.4482ZM203.234 35.1924L213.092 36.8717L213.094 36.8635L203.234 35.1924ZM199.043 37.8799V47.8799H199.043L199.043 37.8799ZM194.755 35.1924L204.646 33.718C204.64 33.6795 204.634 33.6411 204.628 33.6027L194.755 35.1924ZM194.755 23.4482L204.628 25.0379C204.632 25.0095 204.637 24.9811 204.641 24.9527L194.755 23.4482ZM197.936 18.9521L201.321 28.3615C205.442 26.8789 208.118 22.8882 207.926 18.5137C207.734 14.1391 204.718 10.3982 200.484 9.28232L197.936 18.9521ZM194.851 14.6484H184.851V14.6491L194.851 14.6484ZM47.1514 25.8799L37.1608 25.4474C37.1574 25.5249 37.155 25.6024 37.1534 25.6799L47.1514 25.8799ZM46.0626 25.7197L56.0294 26.5333C56.0354 26.46 56.0406 26.3866 56.0449 26.3131L46.0626 25.7197ZM44.9112 30.1357L53.7347 34.8416C53.776 34.7642 53.8163 34.6862 53.8556 34.6076L44.9112 30.1357ZM46.0313 30.4883L54.0816 36.4206C54.1633 36.3097 54.2427 36.1972 54.3198 36.083L46.0313 30.4883ZM126.026 25.8799L116.036 25.4474C116.032 25.5249 116.03 25.6024 116.028 25.6799L126.026 25.8799ZM124.938 25.7197L134.904 26.5333C134.91 26.46 134.916 26.3866 134.92 26.3131L124.938 25.7197ZM123.786 30.1357L132.61 34.8416C132.651 34.7642 132.691 34.6862 132.731 34.6076L123.786 30.1357ZM124.906 30.4883L132.957 36.4205C133.038 36.3097 133.118 36.1971 133.195 36.083L124.906 30.4883ZM68.9512 26.7764L63.1388 34.9137C63.169 34.9352 63.1993 34.9566 63.2297 34.9778L68.9512 26.7764ZM68.3751 27.7998L62.2995 35.7426C62.3246 35.7618 62.3498 35.7808 62.3751 35.7998L68.3751 27.7998ZM72.7588 29.6562L70.7592 39.4543C70.9741 39.4981 71.1904 39.5349 71.4077 39.5646L72.7588 29.6562ZM73.1114 28.5039L75.5459 18.8048C75.35 18.7556 75.1527 18.7124 74.9543 18.6752L73.1114 28.5039ZM104.82 21.752L114.812 22.1598C114.818 22.0237 114.82 21.8874 114.82 21.7512L104.82 21.752ZM103.765 21.5596L113.745 22.1834C113.746 22.1746 113.746 22.1658 113.747 22.157L103.765 21.5596ZM102.645 25.9443L111.472 30.6431C111.525 30.5429 111.577 30.4418 111.627 30.3399L102.645 25.9443ZM103.732 26.2959L95.6819 20.3639C95.6632 20.3893 95.6446 20.4148 95.6261 20.4404L103.732 26.2959ZM108.661 16.1201L115.458 23.4549C114.196 24.6244 112.084 25.59 109.588 25.288C107.279 25.0087 105.833 23.7968 105.167 23.0044L112.82 16.5684L120.474 10.1324C118.624 7.93194 115.754 5.8881 111.99 5.43272C108.038 4.95462 104.438 6.40003 101.864 8.78531L108.661 16.1201ZM112.82 16.5684L105.065 22.881C104.471 22.152 103.63 20.6759 103.653 18.5948C103.676 16.4691 104.588 14.9179 105.333 14.0926L112.757 20.792L120.181 27.4914C122.11 25.3541 123.613 22.379 123.652 18.8135C123.69 15.2926 122.289 12.3607 120.576 10.2557L112.82 16.5684ZM112.757 20.792L105.128 14.327L104.775 14.743L112.404 21.208L120.033 27.673L120.386 27.257L112.757 20.792ZM112.404 21.208L102.439 20.3782C102.293 22.1355 102.627 23.5546 102.907 24.4226C103.159 25.2045 103.459 25.8074 103.516 25.9247C103.73 26.362 103.531 25.9629 103.421 25.6811C103.089 24.8243 103.108 24.3 103.108 24.504L113.108 24.5039L123.108 24.5038C123.108 23.3899 123.026 22.3191 122.848 21.2852C122.664 20.2272 122.394 19.289 122.067 18.4469C121.778 17.7012 121.401 16.97 121.485 17.1433C121.499 17.1703 121.558 17.2909 121.63 17.4589C121.704 17.6277 121.823 17.9176 121.944 18.2924C122.189 19.0544 122.508 20.3766 122.37 22.0378L112.404 21.208ZM113.108 24.5039H103.108C103.108 24.8553 103.035 24.8068 103.197 24.4674C103.289 24.2735 103.459 23.9871 103.747 23.6812C104.043 23.3659 104.396 23.1039 104.764 22.92L109.236 31.8643L113.709 40.8085C121.313 37.0063 123.108 29.3637 123.108 24.5039H113.108ZM109.236 31.8643L112.95 22.5794C110.475 21.5892 107.575 20.8933 104.174 20.841L104.021 30.8398L103.867 40.8387C104.273 40.8449 104.585 40.8871 104.828 40.9376C105.07 40.9882 105.295 41.0581 105.523 41.1491L109.236 31.8643ZM104.021 30.8398L104.019 20.8398C99.8781 20.8405 93.8986 23.7421 93.4139 30.5812C93.1878 33.7725 94.4463 36.9014 96.8535 39.0526C99.2007 41.1503 101.928 41.7363 103.957 41.7363V31.7363V21.7363C105.587 21.7363 108.021 22.2103 110.181 24.1399C112.4 26.1231 113.574 29.0278 113.364 31.995C112.911 38.386 107.363 40.8393 104.022 40.8398L104.021 30.8398ZM103.957 31.7363L103.472 41.7246C105.102 41.8037 105.003 42.2334 104.302 41.5816C103.94 41.2458 103.476 40.6572 103.176 39.7828C102.871 38.8969 102.805 37.9109 103.006 36.9626L112.789 39.0322L122.573 41.1018C123.727 35.6462 121.685 30.4329 117.916 26.9311C114.271 23.5433 109.404 21.9891 104.442 21.7481L103.957 31.7363ZM112.789 39.0322L103.014 36.9215C103.396 35.1561 104.432 34.3764 104.681 34.2265C104.915 34.0853 104.464 34.4404 102.837 34.4404L102.837 44.4404L102.837 54.4404C111.026 54.4403 120.51 50.6533 122.564 41.1429L112.789 39.0322ZM102.837 44.4404V34.4404C101.054 34.4404 100.949 34.0425 101.532 34.4509C101.83 34.6602 102.185 35.002 102.484 35.4855C102.777 35.9601 102.94 36.447 103.01 36.8766L93.1407 38.4883L83.2714 40.1C83.9446 44.222 86.1972 48.1269 90.0541 50.8297C93.7651 53.4302 98.2522 54.4404 102.837 54.4404V44.4404ZM93.1407 38.4883L103.026 36.9764C103.13 37.6561 102.994 38.1034 102.906 38.3099C102.814 38.5243 102.657 38.7621 102.358 38.9869L96.3409 31L90.3234 23.0131C85.2599 26.8281 82.2446 33.3898 83.2556 40.0001L93.1407 38.4883ZM96.3409 31L101.521 22.4464C102.642 23.1255 103.18 24.0485 103.391 24.6515C103.595 25.2323 103.579 25.7018 103.5 26.0482L93.7491 23.832L83.9977 21.6158C82.649 27.5502 84.3375 35.4214 91.1605 39.5536L96.3409 31ZM93.7491 23.832L103.517 25.9719C103.457 26.2457 103.35 26.5131 103.194 26.7576C103.034 27.009 102.849 27.1976 102.682 27.3217C102.515 27.4464 102.44 27.4531 102.545 27.4212C102.657 27.3871 102.998 27.3037 103.637 27.3037V17.3037V7.30371C93.5272 7.30371 85.8523 13.1484 83.9807 21.6922L93.7491 23.832ZM103.637 17.3037L103.637 27.3037C103.828 27.3037 104.115 27.3138 105.353 27.5202L106.997 17.6562L108.641 7.79231C107.191 7.55067 105.558 7.30372 103.637 7.30371L103.637 17.3037ZM106.997 17.6562L113.78 25.0041L115.444 23.468L108.661 16.1201L101.878 8.77225L100.214 10.3084L106.997 17.6562ZM104.565 35.6719L114.565 35.67C114.564 32.8869 113.474 30.092 111.302 28.0201C109.307 26.1162 106.928 25.3146 104.92 25.1357C102.958 24.961 100.57 25.3086 98.3384 26.711C95.8705 28.2622 93.7159 31.1184 93.4939 34.8932L103.477 35.4805L113.459 36.0677C113.253 39.5705 111.243 42.2227 108.982 43.6438C106.958 44.9161 104.839 45.2076 103.145 45.0568C101.404 44.9018 99.2921 44.204 97.4957 42.49C95.5232 40.6079 94.565 38.0889 94.5645 35.6738L104.565 35.6719ZM103.477 35.4805L93.4961 34.8565C93.4664 35.332 93.4351 35.4438 93.4426 35.4117C93.4475 35.3904 93.4576 35.3536 93.4724 35.3131C93.4868 35.2734 93.4944 35.2613 93.4827 35.2843L102.389 39.832L111.295 44.3798C112.908 41.2205 113.313 38.4176 113.457 36.1044L103.477 35.4805ZM102.389 39.832L93.2271 35.8241C91.8422 38.9896 92.1709 42.4393 93.7304 45.1586C95.123 47.587 97.2062 49.0055 99.0298 49.7225C102.728 51.1763 108.447 50.707 111.765 45.7306L103.444 40.1836L95.1239 34.6366C98.0575 30.2362 103.137 29.8471 106.347 31.1092C107.927 31.7302 109.804 32.9848 111.08 35.2093C112.523 37.7247 112.823 40.9304 111.55 43.84L102.389 39.832ZM103.444 40.1836L111.596 45.9753C114.365 42.0786 114.497 37.4892 114.556 36.0882L104.565 35.6719L94.5732 35.2556C94.5622 35.5178 94.5491 35.706 94.5349 35.846C94.5206 35.9874 94.51 36.0303 94.5164 35.9996C94.5223 35.9714 94.5582 35.8048 94.6594 35.5456C94.7613 35.2843 94.9527 34.87 95.2924 34.3918L103.444 40.1836ZM46.3829 17.6562V27.6562C46.4676 27.6562 46.4628 27.6648 46.3888 27.6479C46.3133 27.6306 46.2015 27.595 46.072 27.5304C45.7932 27.3911 45.626 27.2172 45.5647 27.138C45.5188 27.0786 45.583 27.1411 45.6589 27.3878C45.7345 27.6336 45.7911 27.9664 45.7911 28.3439L55.7911 28.3438L65.7911 28.3436C65.791 23.9398 64.5479 18.9914 61.3851 14.9021C57.9981 10.523 52.7637 7.65625 46.3829 7.65625V17.6562ZM55.7911 28.3438L45.7918 28.224C45.7895 28.4145 45.7542 28.5622 45.7186 28.6573C45.6825 28.7531 45.6583 28.765 45.6965 28.7222C45.7406 28.6729 45.8426 28.5814 46.0057 28.5068C46.0834 28.4713 46.1563 28.4484 46.216 28.4355C46.276 28.4225 46.3029 28.4238 46.287 28.4238L46.2872 38.4238L46.2873 48.4238C58.5808 48.4236 65.6751 38.0893 65.7904 28.4635L55.7911 28.3438ZM46.2872 38.4238V28.4238C46.0161 28.4238 45.8811 28.3764 45.8482 28.3633C45.814 28.3498 45.8365 28.3528 45.8802 28.3955C45.9244 28.4388 45.9535 28.487 45.9661 28.5172C45.9795 28.5496 45.9512 28.5047 45.9512 28.3438H35.9512H25.9512C25.9512 39.8325 35.0205 48.4238 46.2872 48.4238V38.4238ZM35.9512 28.3438L45.9511 28.3952C45.9535 27.9226 46.0314 27.6593 46.0678 27.5626C46.1018 27.4722 46.1062 27.505 46.0296 27.5848C45.9951 27.6207 45.9559 27.6536 45.9168 27.68C45.898 27.6927 45.8819 27.7021 45.8695 27.7087C45.8635 27.7119 45.8587 27.7142 45.8553 27.7158C45.8519 27.7174 45.8501 27.7181 45.8502 27.7181C45.8502 27.7181 45.8522 27.7173 45.8565 27.7158C45.8607 27.7143 45.8672 27.7122 45.8763 27.7095C45.8943 27.7043 45.9233 27.6968 45.9647 27.6891C46.0467 27.6737 46.1836 27.6563 46.383 27.6562L46.3829 17.6562L46.3828 7.65625C40.7788 7.6563 35.4823 9.69142 31.6007 13.7354C27.7671 17.7293 25.9787 22.9821 25.9514 28.2923L35.9512 28.3438ZM125.258 17.6562V27.6562C125.343 27.6562 125.338 27.6648 125.264 27.6479C125.188 27.6306 125.076 27.595 124.947 27.5304C124.668 27.3911 124.501 27.2172 124.44 27.138C124.394 27.0786 124.458 27.1411 124.534 27.3878C124.61 27.6336 124.666 27.9664 124.666 28.3439L134.666 28.3438L144.666 28.3436C144.666 23.9398 143.423 18.9914 140.26 14.9021C136.873 10.523 131.639 7.65625 125.258 7.65625V17.6562ZM134.666 28.3438L124.667 28.224C124.665 28.4145 124.629 28.5622 124.594 28.6573C124.558 28.7531 124.533 28.765 124.572 28.7222C124.616 28.6729 124.718 28.5814 124.881 28.5068C124.958 28.4713 125.031 28.4484 125.091 28.4355C125.151 28.4225 125.178 28.4238 125.162 28.4238L125.162 38.4238L125.162 48.4238C137.456 48.4236 144.55 38.0893 144.665 28.4635L134.666 28.3438ZM125.162 38.4238V28.4238C124.891 28.4238 124.756 28.3764 124.723 28.3633C124.689 28.3498 124.711 28.3528 124.755 28.3955C124.799 28.4388 124.829 28.487 124.841 28.5172C124.854 28.5496 124.826 28.5047 124.826 28.3438H114.826H104.826C104.826 39.8325 113.895 48.4238 125.162 48.4238V38.4238ZM114.826 28.3438L124.826 28.3952C124.829 27.9226 124.906 27.6593 124.943 27.5626C124.977 27.4722 124.981 27.505 124.905 27.5848C124.87 27.6207 124.831 27.6536 124.792 27.68C124.773 27.6927 124.757 27.7021 124.745 27.7087C124.738 27.7119 124.734 27.7142 124.73 27.7158C124.727 27.7174 124.725 27.7181 124.725 27.7181C124.725 27.7181 124.727 27.7173 124.731 27.7158C124.736 27.7143 124.742 27.7122 124.751 27.7095C124.769 27.7043 124.798 27.6968 124.84 27.6891C124.922 27.6737 125.059 27.6563 125.258 27.6562L125.258 17.6562L125.258 7.65625C119.654 7.6563 114.357 9.69142 110.476 13.7354C106.642 17.7293 104.854 22.9821 104.826 28.2923L114.826 28.3438ZM62.3272 10.5205L62.3268 20.5205C61.0902 20.5205 59.4381 19.9912 58.1571 18.6398C57.032 17.4527 56.774 16.2549 56.7232 15.7181L66.6788 14.7764L76.6343 13.8346C76.3596 10.9299 75.2537 7.60418 72.6727 4.88123C69.936 1.99386 66.2201 0.520654 62.3276 0.520508L62.3272 10.5205ZM66.6788 14.7764L56.7356 15.8414C56.7921 16.3684 56.9103 18.3819 56.9392 19.3351L66.9346 19.0322L76.93 18.7293C76.8949 17.5708 76.7574 14.9768 76.6219 13.7113L66.6788 14.7764ZM66.9346 19.0322L61.8191 10.4397C58.6603 12.3203 56.1639 15.3497 54.9127 17.7739L63.7989 22.3604L72.6851 26.9468C72.6045 27.103 72.5398 27.2105 72.5039 27.2679C72.4662 27.3282 72.4415 27.3631 72.433 27.3749C72.4194 27.3938 72.4304 27.3773 72.459 27.3457C72.4879 27.3139 72.4942 27.3114 72.4622 27.3389C72.4375 27.3601 72.3042 27.4735 72.0501 27.6248L66.9346 19.0322ZM63.7989 22.3604L54.9928 17.622C53.9123 19.6299 53.0255 22.8789 54.3757 26.4427C55.708 29.9594 58.4818 31.8256 60.6678 32.6209L64.087 23.2236L67.5061 13.8263C69.3403 14.4937 71.8582 16.1361 73.0785 19.3571C74.3166 22.6253 73.4617 25.5066 72.605 27.0987L63.7989 22.3604ZM64.087 23.2236L62.2981 33.0623C63.8609 33.3465 66.86 33.5261 69.8715 31.5997C72.176 30.1256 73.2921 28.0543 73.3338 27.9848L64.7588 22.8398L56.1839 17.6949C56.2017 17.6653 56.4247 17.2863 56.7935 16.8221C57.1849 16.3297 57.9276 15.4981 59.0943 14.7518C61.9059 12.9533 64.665 13.1648 65.8758 13.3849L64.087 23.2236ZM64.7588 22.8398L73.5378 27.6284C73.5063 27.6862 73.4235 27.8182 73.2673 27.9781C73.1096 28.1396 72.919 28.2865 72.712 28.4021C72.2791 28.644 72.0266 28.6162 72.183 28.6162L72.1827 18.6162L72.1824 8.61621C65.7074 8.6164 59.4588 11.6734 55.9799 18.0512L64.7588 22.8398ZM72.1827 18.6162V28.6162C72.2925 28.6162 71.7024 28.6489 70.9866 27.9872C70.6243 27.6523 70.4197 27.2995 70.3317 27.0762C70.2538 26.8787 70.3428 26.9775 70.3428 27.544L80.3428 27.5439L90.3428 27.5439C90.3428 22.0654 88.5231 16.9619 84.5629 13.301C80.775 9.79941 76.1048 8.61621 72.1827 8.61621V18.6162ZM80.3428 27.5439H70.3428C70.3428 28.4476 70.1894 28.699 70.2469 28.5704C70.2738 28.5101 70.332 28.4023 70.4316 28.2765C70.5305 28.1516 70.6374 28.0504 70.7326 27.977C70.9187 27.8336 70.9558 27.8732 70.6726 27.9493C70.3806 28.0279 69.8932 28.1045 69.207 28.1045L69.2071 38.1045L69.2071 48.1045C73.1533 48.1045 78.4372 47.2914 82.9453 43.8153C87.9127 39.985 90.3428 34.1743 90.3428 27.5439H80.3428ZM69.2071 38.1045V28.1045C67.8976 28.1045 67.2688 27.9391 67.0848 27.8764C66.9706 27.8376 67.2199 27.9109 67.5186 28.228C67.8004 28.5273 67.8074 28.7061 67.7247 28.4363C67.6266 28.1163 67.4781 27.3994 67.4622 26.1088L57.4629 26.2324L47.4637 26.356C47.5258 31.378 48.6087 37.3213 52.9597 41.9407C57.4477 46.7056 63.5355 48.1045 69.2071 48.1045V38.1045ZM57.4629 26.2324L67.4614 26.057C67.4034 22.7532 67.553 18.7729 67.8588 15.799L57.9112 14.7764L47.9636 13.7538C47.5654 17.6277 47.3945 22.4159 47.4645 26.4078L57.4629 26.2324ZM57.9112 14.7764L67.8667 15.7181C67.8157 16.2573 67.5534 17.4792 66.4029 18.6797C65.099 20.0402 63.4625 20.5205 62.3272 20.5205V10.5205V0.520508C58.4719 0.520508 54.7394 1.94474 51.9635 4.8412C49.341 7.57757 48.2306 10.9274 47.9556 13.8346L57.9112 14.7764ZM143.122 14.4238L143.122 24.4238C143.899 24.4238 141.682 24.6499 139.487 22.7787C137.197 20.8271 137.193 18.5914 137.266 19.3361L147.218 18.3604L157.17 17.3846C156.923 14.8654 156.102 10.6614 152.461 7.55756C148.914 4.53411 144.809 4.42385 143.122 4.42383L143.122 14.4238ZM147.218 18.3604H137.218V18.4561H147.218H157.218V18.3604H147.218ZM147.218 18.4561L147.693 28.4447C148.021 28.4291 148.101 28.4483 147.972 28.4328C147.897 28.4238 147.663 28.3926 147.319 28.2968C146.992 28.206 146.375 28.0047 145.637 27.5741L150.674 18.9355L155.711 10.297C153.609 9.0714 151.514 8.71412 150.351 8.57486C149.023 8.41566 147.759 8.41897 146.742 8.46737L147.218 18.4561ZM150.674 18.9355L145.684 27.6018C144.123 26.7031 143.137 25.3798 142.637 24.2042C142.2 23.1791 142.21 22.4701 142.21 22.4561H152.21H162.21C162.21 19.2514 161.27 13.4972 155.664 10.2693L150.674 18.9355ZM152.21 22.4561L142.21 22.456C142.21 21.9522 142.389 19.7622 144.409 17.8484C146.124 16.2241 147.818 16.1359 147.538 16.1674L148.658 26.1045L149.778 36.0416C151.771 35.817 155.241 35.1366 158.163 32.368C161.391 29.31 162.21 25.4238 162.21 22.4561L152.21 22.4561ZM148.658 26.1045L147.558 16.1652L146.693 16.2609L147.794 26.2002L148.895 36.1394L149.759 36.0437L148.658 26.1045ZM147.794 26.2002L137.794 26.2001C137.794 26.4548 137.788 26.6201 137.783 26.7162C137.78 26.7611 137.779 26.7746 137.78 26.7613C137.781 26.7489 137.787 26.6939 137.802 26.604L147.666 28.248L157.53 29.892C157.763 28.4969 157.794 27.1418 157.794 26.2003L147.794 26.2002ZM147.666 28.248L145.142 18.5719C142.63 19.2271 140.624 20.492 139.186 21.7353C137.853 22.8877 136.305 24.6314 135.365 26.9384L144.626 30.7119L153.887 34.4854C153.553 35.3041 153.175 35.8466 152.957 36.129C152.714 36.4437 152.479 36.681 152.266 36.8646C151.892 37.188 151.23 37.6529 150.19 37.9242L147.666 28.248ZM144.626 30.7119L135.196 27.3837C134.456 29.4797 134.234 32.2702 135.471 35.0804C136.675 37.8144 138.847 39.6057 141.06 40.503C145.105 42.1433 151.369 41.2679 154.237 35.5462L145.298 31.0645L136.358 26.5827C139.035 21.2445 144.866 20.4647 148.576 21.9688C150.621 22.798 152.649 24.4633 153.775 27.0203C154.934 29.6535 154.7 32.216 154.056 34.0401L144.626 30.7119ZM145.298 31.0645L154.164 35.6901C153.388 37.1762 151.353 39.0656 148.144 38.7867L149.01 28.8242L149.876 18.8618C143.723 18.327 138.743 22.0088 136.432 26.4388L145.298 31.0645ZM149.01 28.8242L148.333 38.8013C146.971 38.709 145.19 38.0828 143.844 36.4661C142.477 34.8241 142.471 33.2713 142.489 33.0104L152.466 33.6885L162.443 34.3665C162.685 30.8097 161.894 26.8887 159.215 23.6706C156.558 20.4778 152.937 19.0675 149.686 18.8471L149.01 28.8242ZM152.466 33.6885L142.489 33.0147C142.562 31.9287 142.935 30.8713 143.528 29.9907C144.091 29.1563 144.715 28.6762 145.115 28.4318C145.824 27.9983 146.111 28.1045 145.746 28.1045L145.746 38.1045L145.746 48.1045C148.837 48.1045 152.388 47.4264 155.545 45.4969C158.89 43.4522 162.082 39.7119 162.443 34.3623L152.466 33.6885ZM145.746 38.1045V28.1045C145.262 28.1045 145.825 28.0148 146.785 28.5251C147.278 28.7873 147.759 29.1473 148.176 29.5891C148.584 30.0214 148.839 30.4332 148.987 30.7254C149.238 31.2222 149.165 31.3506 149.065 30.6029C148.968 29.8811 148.909 28.8882 148.862 27.3352L138.866 27.6396L128.871 27.9441C128.951 30.5736 129.027 35.5712 131.137 39.7467C132.412 42.2681 134.438 44.6127 137.4 46.1866C140.2 47.6741 143.142 48.1045 145.746 48.1045V38.1045ZM138.866 27.6396H148.866V27.1602H138.866H128.866V27.6396H138.866ZM138.866 27.1602V17.1602C140.124 17.1602 141.177 17.5248 142.003 17.9973L137.042 26.6797L132.081 35.3621C133.804 36.3466 136.137 37.1602 138.866 37.1602V27.1602ZM137.042 26.6797L142.032 18.0137C143.528 18.8751 144.532 20.1592 145.059 21.3806C145.516 22.4382 145.506 23.1779 145.506 23.192L135.506 23.1924L125.506 23.1928C125.506 26.4911 126.5 32.1487 132.052 35.3457L137.042 26.6797ZM135.506 23.1924H145.506C145.506 23.3889 145.485 24.108 145.127 25.0792C144.734 26.1465 144.048 27.2009 143.089 28.0568C142.199 28.8515 141.365 29.2143 140.977 29.3576C140.618 29.4899 140.457 29.4998 140.725 29.4518L138.962 19.6084L137.199 9.76504C135.904 9.99697 132.595 10.6153 129.771 13.136C126.367 16.1746 125.506 20.1442 125.506 23.1924H135.506ZM138.962 19.6084L148.933 20.3754C148.965 19.9478 148.98 19.5511 148.987 19.3743C148.996 19.1349 148.998 19.1154 148.997 19.1269L139.026 18.3604L129.056 17.5938C129.023 18.0212 129.009 18.4178 129.002 18.5945C128.992 18.8337 128.991 18.8531 128.991 18.8414L138.962 19.6084ZM139.026 18.3604L148.996 19.1423C149.054 18.3999 149.087 20.7515 146.709 22.7786C145.569 23.7507 144.425 24.1526 143.752 24.3117C143.166 24.4503 142.855 24.4238 143.122 24.4238V14.4238V4.42383C141.474 4.42383 137.31 4.51067 133.735 7.55756C130.005 10.7369 129.255 15.0568 129.057 17.5784L139.026 18.3604ZM153.639 27.6396L163.639 27.6772C163.642 26.742 163.814 26.5512 163.703 26.7725C163.648 26.8826 163.547 27.0441 163.388 27.2164C163.229 27.3881 163.06 27.5187 162.912 27.6082C162.62 27.7843 162.567 27.7109 162.981 27.6746C163.402 27.6377 164.133 27.6581 165.17 27.8916L167.366 18.1357L169.562 8.37984C164.472 7.23402 158.106 7.14639 152.573 10.4876C146.43 14.1971 143.665 20.6615 143.639 27.6021L153.639 27.6396ZM167.366 18.1357L165.146 27.8861C164.489 27.7365 163.722 27.3994 163.01 26.8109C162.316 26.2372 161.868 25.5855 161.601 25.0269C161.119 24.0167 161.187 23.2807 161.251 22.9421L171.078 24.792L180.906 26.6419C181.481 23.5833 181.309 19.8872 179.651 16.4129C177.851 12.6407 174.413 9.48436 169.587 8.38536L167.366 18.1357ZM171.078 24.792L161.235 23.029C161.299 22.6705 161.495 21.9499 162.212 21.1094C162.983 20.204 164.764 18.7924 167.461 18.792L167.463 28.792L167.465 38.792C172.018 38.7913 175.414 36.4516 177.433 34.0823C179.397 31.7777 180.473 29.0573 180.922 26.555L171.078 24.792ZM167.463 28.792V18.792C167.578 18.792 167.853 18.8191 168.207 18.9925C168.573 19.1715 168.909 19.4521 169.15 19.7877L161.03 25.624L152.91 31.4604C156.424 36.3493 161.91 38.792 167.463 38.792V28.792ZM161.03 25.624L169.166 19.8096C166.869 16.5958 163.15 15.1653 159.656 15.5417C156.618 15.8689 154.245 17.4494 152.742 19.2532L160.423 25.6562L168.104 32.0593C166.76 33.6712 164.611 35.1236 161.798 35.4267C158.527 35.7791 155.031 34.4284 152.894 31.4385L161.03 25.624ZM160.423 25.6562L155.278 17.0813C151.555 19.3149 150.634 22.9088 150.4 24.2633C150.077 26.1397 150.137 28.9497 151.841 31.6826L160.326 26.3916L168.812 21.1006C170.356 23.5775 170.385 26.0678 170.109 27.6645C169.958 28.5377 169.658 29.532 169.105 30.5493C168.608 31.4645 167.555 33.0386 165.568 34.2312L160.423 25.6562ZM160.326 26.3916L152.12 32.1065C155.211 36.5442 160.452 39.3795 166.051 39.5249L166.311 29.5283L166.57 19.5317C166.98 19.5423 167.315 19.6488 167.58 19.7906C167.831 19.9247 168.187 20.1804 168.532 20.6767L160.326 26.3916ZM166.311 29.5283L166.093 39.526C166.32 39.5309 164.793 39.5724 163.135 38.1136C161.225 36.4343 160.989 34.4376 160.983 33.9263L170.982 33.8164L180.982 33.7065C180.944 30.2832 179.844 26.1745 176.342 23.0952C173.092 20.2363 169.245 19.5898 166.528 19.5307L166.311 29.5283ZM170.982 33.8164L160.983 33.9246C160.976 33.2739 161.241 31.168 163.239 29.4556C164.089 28.7268 164.922 28.3776 165.469 28.2186C165.739 28.1402 165.948 28.1048 166.078 28.0884C166.208 28.0721 166.278 28.0723 166.278 28.0723V38.0723V48.0723C169.024 48.0723 172.934 47.487 176.254 44.6409C179.876 41.5365 181.021 37.3027 180.982 33.7082L170.982 33.8164ZM166.278 38.0723L166.235 28.0724C164.812 28.0785 163.852 27.9758 163.24 27.8464C162.637 27.719 162.647 27.6234 162.923 27.8176C163.07 27.9209 163.245 28.0732 163.408 28.2728C163.572 28.4725 163.671 28.6516 163.72 28.7632C163.811 28.97 163.639 28.7194 163.639 27.6396H153.639H143.639C143.639 34.0544 145.792 40.2241 151.426 44.1822C156.283 47.5952 162.076 48.0905 166.321 48.0722L166.278 38.0723ZM29.379 10.5205L29.3786 20.5205C28.1529 20.5205 26.4057 19.982 25.0638 18.5181C23.9353 17.2873 23.7549 16.1277 23.725 15.8512L33.667 14.7764L43.6091 13.7015C43.3232 11.0571 42.3426 7.76965 39.8061 5.00285C37.0561 2.00312 33.2929 0.520649 29.3793 0.520508L29.379 10.5205ZM33.667 14.7764L23.7172 15.7766C24.2581 21.1575 24.2586 27.1769 23.7167 32.5968L33.667 33.5918L43.6174 34.5868C44.2914 27.8471 44.2919 20.4908 43.6169 13.7762L33.667 14.7764ZM33.667 33.5918L23.7235 32.5311C23.7491 32.2904 23.9176 31.135 25.0461 29.8975C25.6352 29.2515 26.3895 28.7012 27.2568 28.335C28.1118 27.974 28.8656 27.8799 29.3786 27.8799L29.379 37.8799L29.3793 47.8799C33.2952 47.8797 37.0692 46.3946 39.8238 43.3741C42.3604 40.5925 43.329 37.2931 43.6106 34.6524L33.667 33.5918ZM29.379 37.8799V27.8799C29.9154 27.8799 30.6952 27.9795 31.5733 28.3558C32.4633 28.7372 33.2254 29.3058 33.8124 29.9604C34.9282 31.205 35.078 32.3444 35.0979 32.5311L25.1544 33.5918L15.2108 34.6524C15.4867 37.2392 16.4208 40.5227 18.9209 43.3113C21.6545 46.3602 25.4334 47.8799 29.379 47.8799V37.8799ZM25.1544 33.5918L35.0932 32.4875C34.9621 31.3079 34.8793 30.0883 34.7816 28.5894L24.8028 29.2402L14.824 29.891C14.9182 31.3359 15.0266 32.996 15.2155 34.6961L25.1544 33.5918ZM24.8028 29.2402L22.5124 19.5061C22.5407 19.4994 22.4898 19.5137 22.3692 19.5125C22.2499 19.5114 22.1305 19.4957 22.0372 19.4738L19.7471 29.208L17.457 38.9423C20.4669 39.6503 23.8318 39.7418 27.0932 38.9744L24.8028 29.2402ZM19.7471 29.208L9.75656 28.7736C9.70494 29.961 9.59878 31.2002 9.45575 32.4875L19.3946 33.5918L29.3334 34.6961C29.5104 33.1035 29.6613 31.3989 29.7377 29.6424L19.7471 29.208ZM19.3946 33.5918L9.43786 32.6625C9.4643 32.3792 9.63224 31.1992 10.7671 29.9402C12.1158 28.4441 13.8961 27.8799 15.1706 27.8799L15.171 37.8799L15.1713 47.8799C19.1017 47.8797 22.8818 46.3715 25.6223 43.3313C28.1491 40.5284 29.1009 37.2043 29.3513 34.5211L19.3946 33.5918ZM15.171 37.8799V27.8799C15.6596 27.8799 16.4097 27.9682 17.2736 28.3323C18.1535 28.7031 18.9276 29.2669 19.5345 29.9401C20.6968 31.2295 20.8504 32.4331 20.8718 32.6625L10.9151 33.5918L0.958366 34.5211C1.20378 37.1505 2.1253 40.4982 4.67956 43.3316C7.46025 46.4161 11.2732 47.8799 15.171 47.8799V37.8799ZM10.9151 33.5918L20.8602 32.545C20.2932 27.1592 20.2938 21.1751 20.8596 15.8287L10.9151 14.7764L0.970613 13.7241C0.256433 20.4733 0.257003 27.8646 0.970037 34.6386L10.9151 33.5918ZM10.9151 14.7764L20.8707 15.7181C20.8455 15.9843 20.6797 17.1925 19.5169 18.4756C18.1325 20.0033 16.3464 20.5205 15.171 20.5205V10.5205V0.520508C11.2755 0.520508 7.4735 1.98167 4.69714 5.04526C2.14242 7.86427 1.20872 11.2004 0.959537 13.8346L10.9151 14.7764ZM15.171 10.5205L15.1706 20.5205C13.8986 20.5205 12.129 19.9589 10.7847 18.4755C9.64973 17.2231 9.46932 16.0383 9.43903 15.7181L19.3946 14.7764L29.3501 13.8346C29.0959 11.1465 28.1316 7.83384 25.6048 5.04551C22.8686 2.02613 19.0992 0.520649 15.1713 0.520508L15.171 10.5205ZM19.3946 14.7764L9.45574 15.8806C9.59877 17.1679 9.70494 18.4073 9.75656 19.5945L19.7471 19.1602L29.7377 18.7258C29.6613 16.9693 29.5104 15.2646 29.3334 13.6721L19.3946 14.7764ZM19.7471 19.1602L22.0372 28.8944C22.1306 28.8724 22.25 28.8568 22.3692 28.8556C22.4897 28.8545 22.5407 28.8688 22.5124 28.8621L24.8028 19.1279L27.0932 9.39376C23.8318 8.62637 20.4669 8.7178 17.457 9.42592L19.7471 19.1602ZM24.8028 19.1279L34.7816 19.7787C34.8793 18.2799 34.9621 17.0602 35.0932 15.8806L25.1544 14.7764L15.2155 13.6721C15.0266 15.3722 14.9182 17.0323 14.824 18.4771L24.8028 19.1279ZM25.1544 14.7764L35.0964 15.8512C35.0724 16.0733 34.911 17.217 33.7949 18.4553C33.2087 19.1057 32.4499 19.6693 31.5652 20.0475C30.6918 20.4209 29.9154 20.5205 29.379 20.5205V10.5205V0.520508C25.4359 0.520508 21.6677 2.03738 18.9384 5.06553C16.438 7.83984 15.4923 11.1115 15.2123 13.7015L25.1544 14.7764ZM86.7305 10.2002L86.7298 20.2002C84.5699 20.2 83.0367 19.1591 82.2373 18.2623C81.4704 17.4019 80.9219 16.2066 80.9219 14.7441H90.9219H100.922C100.922 8.02902 95.6391 0.200869 86.7313 0.200195L86.7305 10.2002ZM90.9219 14.7441L80.9219 14.7439C80.922 12.5908 82.3625 10.0518 85.2645 9.28711L87.8126 18.957L90.3606 28.627C96.9718 26.8849 100.922 20.8964 100.922 14.7444L90.9219 14.7441ZM87.8126 18.957L84.2817 28.3129C83.2105 27.9087 82.4871 27.3343 82.0707 26.9259C81.6635 26.5265 81.4513 26.1923 81.3655 26.0454C81.2737 25.8883 81.2297 25.7786 81.205 25.7101C81.1857 25.6566 81.1263 25.4866 81.0698 25.1617L90.9219 23.4482L100.774 21.7348C100.471 19.994 99.7781 17.915 98.6362 15.9597C97.5513 14.1019 95.3203 11.102 91.3434 9.60113L87.8126 18.957ZM90.9219 23.4482L81.0625 25.1193C81.515 27.7891 81.515 30.8516 81.0625 33.5213L90.9219 35.1924L100.781 36.8635C101.609 31.9813 101.609 26.6593 100.781 21.7772L90.9219 23.4482ZM90.9219 35.1924L81.0639 33.5131C81.3636 31.7542 82.3743 30.0367 83.9604 28.921C85.4028 27.9063 86.6045 27.8799 86.7302 27.8799L86.7305 37.8799L86.7308 47.8799C89.4802 47.8798 92.6495 47.2615 95.4676 45.279C98.4295 43.1955 100.224 40.1343 100.78 36.8717L90.9219 35.1924ZM86.7305 37.8799V27.8799C86.7317 27.8799 87.8795 27.8724 89.3149 28.859C90.9338 29.9716 92.0427 31.7696 92.3331 33.718L82.4424 35.1924L72.5517 36.6668C73.0663 40.119 74.9595 43.2607 77.9863 45.3411C80.8298 47.2955 84.0096 47.8799 86.7305 47.8799V37.8799ZM82.4424 35.1924L92.3153 33.6027C91.8768 30.8798 91.8768 27.7609 92.3153 25.0379L82.4424 23.4482L72.5696 21.8586C71.7921 26.6875 71.7921 31.9531 72.5696 36.7821L82.4424 35.1924ZM82.4424 23.4482L92.3286 24.9527C92.2652 25.3693 92.1855 25.6049 92.1544 25.6914C92.1156 25.7995 92.0568 25.939 91.9498 26.1184C91.8422 26.2989 91.034 27.6328 89.0089 28.3615L85.6231 18.9521L82.2373 9.54276C78.2299 10.9847 75.927 13.9385 74.7724 15.8746C73.5861 17.8638 72.8462 20.0381 72.5562 21.9438L82.4424 23.4482ZM85.6231 18.9521L88.1715 9.28231C89.3352 9.58899 90.5025 10.2932 91.3677 11.4184C92.2633 12.5829 92.5381 13.8065 92.5381 14.6477L82.5381 14.6484L72.5381 14.6491C72.5386 21.5269 76.96 27.0105 83.0747 28.622L85.6231 18.9521ZM82.5381 14.6484H92.5381C92.5381 17.5157 90.1089 20.2002 86.7305 20.2002V10.2002V0.200195C79.0641 0.200195 72.5381 6.46917 72.5381 14.6484H82.5381ZM177.381 10.4883V20.4883C178.16 20.4883 175.944 20.7147 173.749 18.8451C171.458 16.8935 171.452 14.6565 171.525 15.3996L181.478 14.4238L191.43 13.448C191.183 10.9273 190.361 6.7225 186.717 3.61911C183.17 0.597733 179.066 0.488281 177.381 0.488281V10.4883ZM181.478 14.4238L171.531 15.4528C171.585 15.9769 171.674 17.7601 171.706 18.8458L181.701 18.5518L191.697 18.2577C191.665 17.1672 191.562 14.7266 191.425 13.3948L181.478 14.4238ZM181.701 18.5518L175.634 10.6022C172.91 12.6812 171.203 15.0797 169.992 17.8832L179.173 21.8477L188.353 25.8121C188.424 25.6493 188.373 25.8043 188.172 26.0684C188.077 26.1937 187.979 26.3029 187.891 26.3894C187.806 26.4728 187.756 26.5101 187.768 26.5013L181.701 18.5518ZM179.173 21.8477L169.888 18.1338C168.65 21.2297 168.269 27.5185 173.968 31.1112C176.585 32.7606 179.786 33.1495 182.709 32.1984C185.618 31.2515 187.564 29.2374 188.651 27.2803L179.909 22.4238L171.168 17.5674C172.095 15.8983 173.828 14.0562 176.519 13.1802C179.224 12.3001 182.201 12.659 184.634 14.1923C189.965 17.5529 189.376 23.2656 188.458 25.5616L179.173 21.8477ZM179.909 22.4238L188.938 26.7233C188.907 26.7869 188.905 26.7809 188.964 26.686C189.024 26.588 189.121 26.441 189.285 26.2063L181.093 20.4717L172.901 14.7371C172.357 15.5139 171.562 16.6936 170.881 18.1244L179.909 22.4238ZM181.093 20.4717L189.174 26.3615C189.026 26.5655 188.687 26.9284 188.109 27.229C187.527 27.5314 186.921 27.6562 186.405 27.6562V17.6562V7.65625C181.03 7.65625 176.191 10.219 173.011 14.5818L181.093 20.4717ZM186.405 17.6562L186.405 27.6562C185.993 27.6562 185.326 27.5594 184.585 27.1832C183.851 26.8106 183.329 26.3077 183.004 25.8689C182.433 25.096 182.609 24.7611 182.614 25.4123L192.613 25.3359L202.613 25.2596C202.586 21.7188 201.722 17.5441 199.086 13.9793C196.193 10.0657 191.682 7.65631 186.405 7.65625L186.405 17.6562ZM192.613 25.3359L182.614 25.4446C182.64 27.8171 182.493 29.708 182.19 32.5227L192.133 33.5918L202.076 34.6609C202.413 31.5238 202.651 28.7427 202.613 25.2273L192.613 25.3359ZM192.133 33.5918L182.176 32.6625C182.203 32.3796 182.37 31.1995 183.505 29.9404C184.854 28.444 186.635 27.8799 187.909 27.8799V37.8799V47.8799C191.84 47.8799 195.62 46.3717 198.361 43.3313C200.888 40.5282 201.839 37.204 202.09 34.5211L192.133 33.5918ZM187.909 37.8799L187.909 27.8799C188.398 27.8799 189.157 27.9684 190.033 28.3392C190.925 28.7171 191.701 29.2889 192.304 29.9614C193.447 31.2362 193.583 32.3997 193.597 32.5311L183.653 33.5918L173.71 34.6524C173.98 37.1839 174.884 40.4915 177.411 43.3103C180.184 46.4049 183.997 47.8799 187.909 47.8799L187.909 37.8799ZM183.653 33.5918L193.587 32.4456C193.436 31.1363 193.353 29.785 193.293 28.2475L183.301 28.6318L173.308 29.0162C173.377 30.8066 173.486 32.7194 173.719 34.738L183.653 33.5918ZM183.301 28.6318L193.164 26.9855C192.194 21.1713 187.192 18.089 182.696 18.0879L182.693 28.0879L182.691 38.0879C180.806 38.0874 178.708 37.5087 176.886 36.0751C174.931 34.5376 173.792 32.4038 173.437 30.2782L183.301 28.6318ZM182.693 28.0879V18.0879C178.322 18.0879 174.114 20.8265 172.598 25.3739L182.085 28.5361L191.572 31.6984C190.248 35.6698 186.553 38.0879 182.693 38.0879V28.0879ZM182.085 28.5361L172.101 27.971C172.003 29.7044 171.917 31.2007 171.779 32.6347L181.733 33.5918L191.688 34.5489C191.87 32.6551 191.975 30.7596 192.069 29.1013L182.085 28.5361ZM181.733 33.5918L171.79 32.5311C171.81 32.3444 171.96 31.205 173.075 29.9604C173.662 29.3058 174.424 28.7372 175.314 28.3558C176.193 27.9795 176.972 27.8799 177.509 27.8799V37.8799V47.8799C181.454 47.8799 185.233 46.3602 187.967 43.3113C190.467 40.5227 191.401 37.2392 191.677 34.6524L181.733 33.5918ZM177.509 37.8799L177.51 27.8799C177.999 27.8799 178.758 27.9685 179.633 28.3392C180.525 28.7171 181.301 29.2888 181.903 29.9611C183.046 31.2356 183.182 32.399 183.197 32.5311L173.253 33.5918L163.309 34.6524C163.579 37.1844 164.484 40.4918 167.011 43.3104C169.784 46.4045 173.596 47.8796 177.508 47.8799L177.509 37.8799ZM173.253 33.5918L183.197 32.5371C183.013 30.7982 182.926 29.0112 182.865 26.9852L172.869 27.2881L162.874 27.591C162.94 29.7888 163.045 32.1616 163.309 34.6465L173.253 33.5918ZM172.869 27.2881H182.869V24.7568H172.869H162.869V27.2881H172.869ZM172.869 24.7568L182.869 24.8292C182.891 21.7148 183.074 17.9758 183.264 15.0766L173.285 14.4238L163.307 13.771C163.104 16.8641 162.896 21.0288 162.869 24.6845L172.869 24.7568ZM173.285 14.4238L183.262 15.1086C183.309 14.4267 183.347 16.8178 180.932 18.8629C179.791 19.8299 178.652 20.2243 177.994 20.379C177.418 20.5145 177.115 20.4883 177.381 20.4883L177.381 10.4883L177.381 0.488281C175.739 0.488321 171.581 0.573874 168.006 3.60145C164.232 6.79836 163.486 11.1572 163.309 13.739L173.285 14.4238ZM199.043 10.2002L199.042 20.2002C196.882 20.2 195.349 19.1591 194.55 18.2623C193.783 17.4018 193.234 16.2065 193.234 14.7441H203.234H213.234C213.234 8.02908 207.952 0.200812 199.044 0.200195L199.043 10.2002ZM203.234 14.7441L193.234 14.7439C193.234 12.5908 194.675 10.0518 197.577 9.28709L200.125 18.957L202.673 28.627C209.284 26.8849 213.234 20.8963 213.234 14.7444L203.234 14.7441ZM200.125 18.957L196.594 28.313C195.523 27.9087 194.8 27.3343 194.383 26.9259C193.976 26.5265 193.764 26.1923 193.678 26.0454C193.586 25.8882 193.542 25.7786 193.517 25.7101C193.498 25.6566 193.439 25.4866 193.382 25.1617L203.234 23.4482L213.087 21.7348C212.784 19.994 212.091 17.9151 210.949 15.9597C209.864 14.1019 207.633 11.102 203.656 9.60111L200.125 18.957ZM203.234 23.4482L193.375 25.1193C193.828 27.7891 193.828 30.8516 193.375 33.5213L203.234 35.1924L213.094 36.8635C213.921 31.9813 213.921 26.6593 213.094 21.7772L203.234 23.4482ZM203.234 35.1924L193.376 33.5131C193.676 31.7542 194.687 30.0368 196.273 28.921C197.715 27.9063 198.917 27.8799 199.043 27.8799L199.043 37.8799L199.043 47.8799C201.793 47.8798 204.962 47.2615 207.78 45.279C210.742 43.1955 212.537 40.1343 213.092 36.8717L203.234 35.1924ZM199.043 37.8799V27.8799C199.044 27.8799 200.192 27.8724 201.627 28.859C203.246 29.9716 204.355 31.7696 204.646 33.718L194.755 35.1924L184.864 36.6668C185.379 40.119 187.272 43.2607 190.299 45.3411C193.142 47.2955 196.322 47.8799 199.043 47.8799V37.8799ZM194.755 35.1924L204.628 33.6027C204.189 30.8798 204.189 27.7609 204.628 25.0379L194.755 23.4482L184.882 21.8586C184.105 26.6875 184.105 31.9531 184.882 36.7821L194.755 35.1924ZM194.755 23.4482L204.641 24.9527C204.578 25.3693 204.498 25.6049 204.467 25.6915C204.428 25.7996 204.369 25.939 204.262 26.1184C204.155 26.2989 203.347 27.6328 201.321 28.3615L197.936 18.9521L194.55 9.54278C190.542 10.9848 188.24 13.9385 187.085 15.8746C185.899 17.8638 185.159 20.0381 184.869 21.9438L194.755 23.4482ZM197.936 18.9521L200.484 9.28232C201.648 9.589 202.815 10.2933 203.68 11.4184C204.576 12.5828 204.851 13.8064 204.851 14.6477L194.851 14.6484L184.851 14.6491C184.851 21.5269 189.273 27.0105 195.387 28.622L197.936 18.9521ZM194.851 14.6484H204.851C204.851 17.5157 202.421 20.2002 199.043 20.2002V10.2002V0.200195C191.377 0.200195 184.851 6.46917 184.851 14.6484H194.851ZM47.1514 25.8799L57.1421 26.3123C57.2668 23.4306 56.2149 20.4015 53.8405 18.1744C51.7008 16.1674 49.1849 15.4531 47.2193 15.3373C45.2755 15.2228 42.9803 15.6312 40.857 16.9913C38.5409 18.4748 36.3097 21.265 36.0802 25.1263L46.0626 25.7197L56.0449 26.3131C55.8316 29.9026 53.7485 32.4849 51.6446 33.8325C49.7334 35.0567 47.7145 35.4012 46.0428 35.3027C44.3493 35.2029 42.1016 34.5847 40.158 32.7617C37.9797 30.7185 37.052 27.9613 37.1608 25.4474L47.1514 25.8799ZM46.0626 25.7197L36.0957 24.9061C36.0566 25.3851 36.0202 25.5354 36.0154 25.5546C36.0136 25.5621 36.0139 25.5605 36.0137 25.5609C36.0131 25.5625 36.0016 25.5942 35.9668 25.6638L44.9112 30.1357L53.8556 34.6076C55.3716 31.5754 55.8353 28.9106 56.0294 26.5333L46.0626 25.7197ZM44.9112 30.1357L36.0877 25.4299C34.2842 28.8114 34.6116 32.5609 36.2011 35.3844C37.5927 37.8564 39.6855 39.2697 41.4398 39.9832C45.0796 41.4635 50.6331 41.1004 54.0816 36.4206L46.0313 30.4883L37.981 24.556C40.9815 20.4842 45.847 20.1847 48.9747 21.4568C50.4729 22.0662 52.3537 23.3073 53.6293 25.5732C55.1028 28.1907 55.4102 31.7001 53.7347 34.8416L44.9112 30.1357ZM46.0313 30.4883L54.3198 36.083C56.8948 32.2681 57.1106 28.0222 57.1494 26.0798L47.1514 25.8799L37.1534 25.6799C37.1493 25.8874 37.1399 26.0374 37.13 26.1409C37.12 26.2458 37.1124 26.2697 37.121 26.2289C37.1295 26.1892 37.1627 26.0432 37.2486 25.8227C37.3355 25.5997 37.4875 25.2717 37.7428 24.8936L46.0313 30.4883ZM126.026 25.8799L136.017 26.3123C136.142 23.4306 135.09 20.4015 132.716 18.1743C130.576 16.1674 128.06 15.4531 126.094 15.3373C124.15 15.2228 121.855 15.6312 119.732 16.9913C117.416 18.4748 115.185 21.265 114.955 25.1263L124.938 25.7197L134.92 26.3131C134.707 29.9026 132.623 32.4849 130.52 33.8325C128.608 35.0567 126.589 35.4012 124.918 35.3027C123.224 35.2029 120.977 34.5847 119.033 32.7617C116.855 30.7185 115.927 27.9613 116.036 25.4474L126.026 25.8799ZM124.938 25.7197L114.971 24.9061C114.932 25.3851 114.895 25.5354 114.89 25.5546C114.889 25.5621 114.889 25.5605 114.889 25.5609C114.888 25.5625 114.877 25.5942 114.842 25.6638L123.786 30.1357L132.731 34.6076C134.247 31.5754 134.71 28.9106 134.904 26.5333L124.938 25.7197ZM123.786 30.1357L114.963 25.4299C113.159 28.8114 113.487 32.5609 115.076 35.3844C116.468 37.8564 118.561 39.2697 120.315 39.9831C123.955 41.4635 129.508 41.1004 132.957 36.4205L124.906 30.4883L116.856 24.556C119.856 20.4842 124.722 20.1847 127.85 21.4568C129.348 22.0662 131.229 23.3073 132.504 25.5732C133.978 28.1907 134.285 31.7001 132.61 34.8416L123.786 30.1357ZM124.906 30.4883L133.195 36.083C135.77 32.2681 135.986 28.0222 136.024 26.0798L126.026 25.8799L116.028 25.6799C116.024 25.8874 116.015 26.0374 116.005 26.1409C115.995 26.2458 115.987 26.2697 115.996 26.2289C116.004 26.1892 116.038 26.0432 116.124 25.8227C116.211 25.5997 116.363 25.2717 116.618 24.8936L124.906 30.4883ZM68.9512 26.7764L74.7636 18.639C71.3619 16.2092 67.4911 16.3816 64.7841 17.4977C62.3874 18.4858 60.8049 20.1581 59.8679 21.6224C58.9104 23.1189 58.0633 25.2784 58.1833 27.8801C58.3176 30.7942 59.682 33.7404 62.2995 35.7426L68.3751 27.7998L74.4506 19.857C76.7962 21.6512 78.0406 24.3254 78.162 26.9587C78.269 29.2795 77.5159 31.1492 76.7145 32.4017C75.9335 33.6223 74.569 35.0966 72.4073 35.9879C69.9354 37.007 66.3166 37.1835 63.1388 34.9137L68.9512 26.7764ZM68.3751 27.7998L62.3751 35.7998C65.1683 37.8947 68.2072 38.9335 70.7592 39.4543L72.7588 29.6562L74.7585 19.8582C74.4918 19.8038 74.3316 19.748 74.2603 19.7187C74.1918 19.6906 74.248 19.7045 74.3751 19.7998L68.3751 27.7998ZM72.7588 29.6562L71.4077 39.5646C74.5185 39.9887 77.5548 39.0125 79.7975 37.0345C81.8012 35.2672 82.7539 33.101 83.1456 31.3657C83.5327 29.6505 83.5762 27.4687 82.7258 25.2177C81.8127 22.8006 79.5728 19.8155 75.5459 18.8048L73.1114 28.5039L70.6769 38.203C66.9058 37.2565 64.8376 34.4596 64.0164 32.2856C63.2578 30.2776 63.3132 28.3939 63.6362 26.9627C63.9638 25.5115 64.7764 23.6153 66.5681 22.035C68.5988 20.244 71.3511 19.3717 74.11 19.7479L72.7588 29.6562ZM73.1114 28.5039L74.9543 18.6752C74.8236 18.6507 74.7564 18.6328 74.7334 18.6263C74.7134 18.6207 74.7231 18.6225 74.7498 18.6334C74.777 18.6445 74.7943 18.6538 74.7943 18.6537C74.7924 18.6527 74.7538 18.6315 74.6728 18.5749L68.9512 26.7764L63.2297 34.9778C65.8752 36.8234 68.4729 37.8085 71.2685 38.3326L73.1114 28.5039ZM104.82 21.752L114.82 21.7512C114.82 19.189 113.893 16.4137 111.733 14.2526C109.71 12.228 107.224 11.3597 105.075 11.1937C102.982 11.0321 100.558 11.4814 98.3718 12.9483C95.9855 14.5493 93.9982 17.3585 93.7826 20.9621L103.765 21.5596L113.747 22.157C113.547 25.4889 111.7 28.0902 109.515 29.5565C107.53 30.8885 105.367 31.2759 103.534 31.1343C101.646 30.9884 99.4173 30.2222 97.5868 28.3905C95.6199 26.4224 94.8205 23.9311 94.8204 21.7527L104.82 21.752ZM103.765 21.5596L93.7842 20.9358C93.7642 21.2561 93.7362 21.3666 93.7337 21.3771C93.7314 21.3862 93.729 21.395 93.7231 21.4111C93.7169 21.4282 93.6999 21.4721 93.6624 21.5488L102.645 25.9443L111.627 30.3399C113.041 27.4493 113.583 24.7784 113.745 22.1834L103.765 21.5596ZM102.645 25.9443L93.8173 21.2456C92.034 24.5956 92.318 28.3667 93.9707 31.2524C95.4002 33.7485 97.5308 35.1299 99.2509 35.8119C102.702 37.1802 108.339 36.9971 111.839 32.1513L103.732 26.2959L95.6261 20.4404C98.7104 16.1705 103.676 16.0516 106.623 17.2201C108.091 17.8022 110.012 19.0178 111.326 21.3129C112.864 23.9978 113.127 27.533 111.472 30.6431L102.645 25.9443ZM103.732 26.2959L111.783 32.2279C114.785 28.1544 114.77 23.1822 114.812 22.1598L104.82 21.752L94.8287 21.3441C94.8146 21.6905 94.8018 21.915 94.7866 22.0906C94.7716 22.2635 94.7609 22.3063 94.7694 22.2622C94.7776 22.2195 94.8199 22.01 94.9409 21.696C95.0645 21.3756 95.2891 20.897 95.6819 20.3639L103.732 26.2959Z" fill="white" mask="url(#path-1-outside-1_4_529)"/>
</g>
<defs>
<filter id="filter0_d_4_529" x="0.43512" y="0.200195" width="213.279" height="62.2402" filterUnits="userSpaceOnUse" color-interpolation-filters="sRGB">
<feFlood flood-opacity="0" result="BackgroundImageFix"/>
<feColorMatrix in="SourceAlpha" type="matrix" values="0 0 0 0 0 0 0 0 0 0 0 0 0 0 0 0 0 0 127 0" result="hardAlpha"/>
<feOffset dy="8"/>
<feComposite in2="hardAlpha" operator="out"/>
<feColorMatrix type="matrix" values="0 0 0 0 0.666667 0 0 0 0 0.588235 0 0 0 0 0.854902 0 0 0 1 0"/>
<feBlend mode="normal" in2="BackgroundImageFix" result="effect1_dropShadow_4_529"/>
<feBlend mode="normal" in="SourceGraphic" in2="effect1_dropShadow_4_529" result="shape"/>
</filter>
</defs>
</svg>
