<svg width="140" height="59" viewBox="0 0 140 59" fill="none" xmlns="http://www.w3.org/2000/svg">
<g filter="url(#filter0_d_4_1100)">
<mask id="path-1-outside-1_4_1100" maskUnits="userSpaceOnUse" x="0" y="0" width="140" height="51" fill="black">
<rect fill="white" width="140" height="51"/>
<path d="M63.7344 11.0879C65.9743 11.0879 67.5741 12.3682 67.8301 14.9922C68.5341 21.9041 68.5341 29.7123 67.8301 36.6562C67.574 39.216 65.9742 40.4961 63.7344 40.4961C61.1424 40.4961 59.3821 39.0236 59.7021 36.1436C60.5021 29.2637 60.5024 22.3516 59.7344 15.7598C59.3825 12.5919 61.1424 11.0879 63.7344 11.0879ZM124.515 11.0557C126.755 11.0557 128.354 12.336 128.61 14.96C129.314 21.872 129.314 29.68 128.61 36.624C128.354 39.1839 126.755 40.4639 124.515 40.4639C121.923 40.4638 120.163 38.992 120.482 36.1123C121.282 29.2323 121.283 22.3195 120.515 15.7275C120.163 12.5599 121.923 11.0557 124.515 11.0557ZM79.0049 24.1436C82.5565 24.1436 83.58 25.552 83.5801 28.3037C83.5801 29.3277 83.485 30.3522 83.293 31.4082C87.3567 31.4722 91.3886 31.3122 95.6123 30.8643C98.0761 30.5763 99.4842 32.5277 99.4844 34.8955C99.4844 37.9035 98.0761 39.3758 95.5801 39.6318C88.4443 40.3678 81.8204 40.3678 74.6846 39.6318C72.2526 39.3758 70.8125 37.9035 70.8125 34.8955C70.8127 32.5277 72.2527 30.5763 74.6846 30.8643C74.4926 29.8403 74.4287 28.8801 74.4287 27.9521C74.4287 25.2321 75.7729 24.1436 79.0049 24.1436ZM24.3682 10C28.1438 10 30.576 10.7359 30.7363 12.5596C30.8003 13.5835 30.4162 14.6723 29.4883 15.2803C30.9282 14.3844 32.6239 14 34.5117 14.1279C36.1116 14.2239 37.2635 15.3438 37.2637 17.1035C37.2637 18.7354 36.2401 19.9516 34.0645 20.4316C36.3682 21.6156 37.04 23.376 37.04 25.4238C37.04 28.3678 35.2797 30.7678 29.6797 31.6318C29.7437 31.8238 29.7764 32.0165 29.7764 32.2725C29.7763 32.56 29.7442 32.7838 29.6484 32.9756C31.3442 32.8796 33.04 32.7518 34.7998 32.5918C37.2638 32.3038 38.6719 33.648 38.6719 35.792C38.6719 38.416 37.2636 39.3436 34.7676 39.5996C27.6317 40.3036 21.0079 40.3036 13.8721 39.5996C11.4401 39.3436 10 38.416 10 35.792C10 33.68 11.4401 32.3038 13.8721 32.5918C15.6319 32.7518 17.3598 32.8796 19.0557 32.9756C18.9599 32.7838 18.9278 32.56 18.9277 32.2725C18.9277 32.0165 18.9604 31.8238 19.0244 31.6318C13.3924 30.7678 11.6641 28.3678 11.6641 25.4238C11.6641 23.4079 12.3365 21.6156 14.6084 20.4316C12.4644 19.9836 11.4082 18.8957 11.4082 17.2637C11.4083 15.504 12.5599 14.1921 14.2236 14.1279C16.1116 13.9999 17.7123 14.3843 19.1523 15.2803C18.2563 14.7043 17.8718 13.5836 17.9678 12.5596C18.0961 10.7359 20.5285 10 24.3682 10ZM110.402 10.6396C113.058 10.6396 114.85 11.5998 114.851 12.7197C114.851 13.1997 114.691 13.8401 114.115 14.2881C116.867 13.5843 119.587 14.832 119.587 17.0078C119.587 18.2557 118.787 19.2478 117.155 19.6318C116.835 19.6958 116.514 19.7915 116.194 19.8555C116.546 20.9434 117.059 21.8076 117.667 22.7676C118.691 24.4636 119.779 26.2564 119.587 31.9844C119.363 38.2559 118.307 39.3759 116.003 39.376C113.059 39.376 112.035 38.384 112.035 31.9521C112.035 29.4881 111.714 27.2799 111.234 25.7119C110.914 24.8481 109.923 25.1043 110.179 25.9043C110.659 27.3443 111.075 29.584 111.075 32.4316C111.075 38.2556 109.858 39.248 106.274 39.248C103.235 39.2479 101.347 37.1038 101.219 31.6963C101.091 26.8643 102.243 24.88 103.587 22.832C104.195 21.936 104.547 21.0717 104.739 19.8877C103.075 19.5997 101.219 19.0878 101.219 17.0078C101.219 14.8319 103.907 13.5841 106.659 14.2881C106.083 13.8401 105.891 13.1997 105.891 12.7197C105.891 11.5999 107.715 10.6398 110.402 10.6396ZM54.71 12.1123C57.1739 12.1123 58.23 13.6159 58.582 17.5518C58.934 22.2556 58.998 28.2396 58.582 32.5596C58.198 35.9196 56.982 37.9036 54.998 38.3516C51.3181 39.3115 48.1182 39.3116 44.4062 38.3516C42.4543 37.9035 41.1745 35.9195 40.8545 32.5596C40.3745 28.2396 40.4705 22.2556 40.8545 17.5518C41.2065 13.4559 42.1667 12.1123 45.0146 12.1123C47.8303 12.1124 48.4707 13.5844 48.4707 16.6562V18.3838C49.3024 18.096 50.1021 18.096 50.9658 18.3838V16.6562C50.9658 13.4244 51.7982 12.1124 54.71 12.1123ZM77.4688 12.2715C82.0446 11.1196 87.7084 11.0881 92.1562 12.208C95.1963 13.008 97.341 14.7679 97.917 16.8799C98.717 19.7279 98.6843 23.4079 97.4043 26.2559C96.3163 28.7198 93.9161 30.1279 90.6201 30.2559C87.0685 30.3837 84.7005 28.464 84.3164 25.6162C83.9004 22.4483 84.7005 20.2401 86.1084 18.0322C86.3643 17.6164 85.7571 17.2963 85.501 17.6797C83.0371 21.1355 80.2848 23.0235 76.957 22.9277C73.917 22.8637 71.8048 21.5518 71.6768 18.3838C71.4848 15.1839 74.0128 13.1355 77.4688 12.2715ZM52.1826 26.8955C50.7106 26.0635 48.9498 25.5836 47.3818 25.8076C46.6782 25.872 46.6468 26.96 47.2227 26.96C48.8543 26.96 50.3901 27.2479 51.7979 28.0156C52.2778 28.2716 52.8546 27.3115 52.1826 26.8955ZM22.7041 22C22.3201 21.68 21.6482 22.288 22.1602 22.832C23.3441 23.952 24.7844 24.8163 26.3203 25.0723C26.992 25.136 27.2481 24.3356 26.7363 24.1436C25.1364 23.6956 23.9201 23.024 22.7041 22Z"/>
</mask>
<path d="M63.7344 11.0879C65.9743 11.0879 67.5741 12.3682 67.8301 14.9922C68.5341 21.9041 68.5341 29.7123 67.8301 36.6562C67.574 39.216 65.9742 40.4961 63.7344 40.4961C61.1424 40.4961 59.3821 39.0236 59.7021 36.1436C60.5021 29.2637 60.5024 22.3516 59.7344 15.7598C59.3825 12.5919 61.1424 11.0879 63.7344 11.0879ZM124.515 11.0557C126.755 11.0557 128.354 12.336 128.61 14.96C129.314 21.872 129.314 29.68 128.61 36.624C128.354 39.1839 126.755 40.4639 124.515 40.4639C121.923 40.4638 120.163 38.992 120.482 36.1123C121.282 29.2323 121.283 22.3195 120.515 15.7275C120.163 12.5599 121.923 11.0557 124.515 11.0557ZM79.0049 24.1436C82.5565 24.1436 83.58 25.552 83.5801 28.3037C83.5801 29.3277 83.485 30.3522 83.293 31.4082C87.3567 31.4722 91.3886 31.3122 95.6123 30.8643C98.0761 30.5763 99.4842 32.5277 99.4844 34.8955C99.4844 37.9035 98.0761 39.3758 95.5801 39.6318C88.4443 40.3678 81.8204 40.3678 74.6846 39.6318C72.2526 39.3758 70.8125 37.9035 70.8125 34.8955C70.8127 32.5277 72.2527 30.5763 74.6846 30.8643C74.4926 29.8403 74.4287 28.8801 74.4287 27.9521C74.4287 25.2321 75.7729 24.1436 79.0049 24.1436ZM24.3682 10C28.1438 10 30.576 10.7359 30.7363 12.5596C30.8003 13.5835 30.4162 14.6723 29.4883 15.2803C30.9282 14.3844 32.6239 14 34.5117 14.1279C36.1116 14.2239 37.2635 15.3438 37.2637 17.1035C37.2637 18.7354 36.2401 19.9516 34.0645 20.4316C36.3682 21.6156 37.04 23.376 37.04 25.4238C37.04 28.3678 35.2797 30.7678 29.6797 31.6318C29.7437 31.8238 29.7764 32.0165 29.7764 32.2725C29.7763 32.56 29.7442 32.7838 29.6484 32.9756C31.3442 32.8796 33.04 32.7518 34.7998 32.5918C37.2638 32.3038 38.6719 33.648 38.6719 35.792C38.6719 38.416 37.2636 39.3436 34.7676 39.5996C27.6317 40.3036 21.0079 40.3036 13.8721 39.5996C11.4401 39.3436 10 38.416 10 35.792C10 33.68 11.4401 32.3038 13.8721 32.5918C15.6319 32.7518 17.3598 32.8796 19.0557 32.9756C18.9599 32.7838 18.9278 32.56 18.9277 32.2725C18.9277 32.0165 18.9604 31.8238 19.0244 31.6318C13.3924 30.7678 11.6641 28.3678 11.6641 25.4238C11.6641 23.4079 12.3365 21.6156 14.6084 20.4316C12.4644 19.9836 11.4082 18.8957 11.4082 17.2637C11.4083 15.504 12.5599 14.1921 14.2236 14.1279C16.1116 13.9999 17.7123 14.3843 19.1523 15.2803C18.2563 14.7043 17.8718 13.5836 17.9678 12.5596C18.0961 10.7359 20.5285 10 24.3682 10ZM110.402 10.6396C113.058 10.6396 114.85 11.5998 114.851 12.7197C114.851 13.1997 114.691 13.8401 114.115 14.2881C116.867 13.5843 119.587 14.832 119.587 17.0078C119.587 18.2557 118.787 19.2478 117.155 19.6318C116.835 19.6958 116.514 19.7915 116.194 19.8555C116.546 20.9434 117.059 21.8076 117.667 22.7676C118.691 24.4636 119.779 26.2564 119.587 31.9844C119.363 38.2559 118.307 39.3759 116.003 39.376C113.059 39.376 112.035 38.384 112.035 31.9521C112.035 29.4881 111.714 27.2799 111.234 25.7119C110.914 24.8481 109.923 25.1043 110.179 25.9043C110.659 27.3443 111.075 29.584 111.075 32.4316C111.075 38.2556 109.858 39.248 106.274 39.248C103.235 39.2479 101.347 37.1038 101.219 31.6963C101.091 26.8643 102.243 24.88 103.587 22.832C104.195 21.936 104.547 21.0717 104.739 19.8877C103.075 19.5997 101.219 19.0878 101.219 17.0078C101.219 14.8319 103.907 13.5841 106.659 14.2881C106.083 13.8401 105.891 13.1997 105.891 12.7197C105.891 11.5999 107.715 10.6398 110.402 10.6396ZM54.71 12.1123C57.1739 12.1123 58.23 13.6159 58.582 17.5518C58.934 22.2556 58.998 28.2396 58.582 32.5596C58.198 35.9196 56.982 37.9036 54.998 38.3516C51.3181 39.3115 48.1182 39.3116 44.4062 38.3516C42.4543 37.9035 41.1745 35.9195 40.8545 32.5596C40.3745 28.2396 40.4705 22.2556 40.8545 17.5518C41.2065 13.4559 42.1667 12.1123 45.0146 12.1123C47.8303 12.1124 48.4707 13.5844 48.4707 16.6562V18.3838C49.3024 18.096 50.1021 18.096 50.9658 18.3838V16.6562C50.9658 13.4244 51.7982 12.1124 54.71 12.1123ZM77.4688 12.2715C82.0446 11.1196 87.7084 11.0881 92.1562 12.208C95.1963 13.008 97.341 14.7679 97.917 16.8799C98.717 19.7279 98.6843 23.4079 97.4043 26.2559C96.3163 28.7198 93.9161 30.1279 90.6201 30.2559C87.0685 30.3837 84.7005 28.464 84.3164 25.6162C83.9004 22.4483 84.7005 20.2401 86.1084 18.0322C86.3643 17.6164 85.7571 17.2963 85.501 17.6797C83.0371 21.1355 80.2848 23.0235 76.957 22.9277C73.917 22.8637 71.8048 21.5518 71.6768 18.3838C71.4848 15.1839 74.0128 13.1355 77.4688 12.2715ZM52.1826 26.8955C50.7106 26.0635 48.9498 25.5836 47.3818 25.8076C46.6782 25.872 46.6468 26.96 47.2227 26.96C48.8543 26.96 50.3901 27.2479 51.7979 28.0156C52.2778 28.2716 52.8546 27.3115 52.1826 26.8955ZM22.7041 22C22.3201 21.68 21.6482 22.288 22.1602 22.832C23.3441 23.952 24.7844 24.8163 26.3203 25.0723C26.992 25.136 27.2481 24.3356 26.7363 24.1436C25.1364 23.6956 23.9201 23.024 22.7041 22Z" fill="url(#paint0_linear_4_1100)"/>
<path d="M63.7344 11.0879L63.7345 1.08789H63.7344V11.0879ZM67.8301 14.9922L57.8773 15.9632C57.8787 15.9773 57.8801 15.9914 57.8815 16.0054L67.8301 14.9922ZM67.8301 36.6562L57.8811 35.6476L57.8798 35.6608L67.8301 36.6562ZM63.7344 40.4961V50.4961H63.7345L63.7344 40.4961ZM59.7021 36.1436L49.7691 34.9886C49.7671 35.0055 49.7652 35.0224 49.7633 35.0392L59.7021 36.1436ZM59.7344 15.7598L49.7955 16.8639C49.7975 16.8816 49.7995 16.8993 49.8016 16.917L59.7344 15.7598ZM124.515 11.0557V1.05566H124.514L124.515 11.0557ZM128.61 14.96L118.658 15.931C118.659 15.9451 118.66 15.9592 118.662 15.9732L128.61 14.96ZM128.61 36.624L118.661 35.6154L118.66 35.6288L128.61 36.624ZM124.515 40.4639L124.514 50.4639H124.515V40.4639ZM120.482 36.1123L110.549 34.9573C110.547 34.9744 110.545 34.9915 110.544 35.0086L120.482 36.1123ZM120.515 15.7275L110.576 16.8313C110.578 16.8491 110.58 16.867 110.582 16.8848L120.515 15.7275ZM79.0049 24.1436L79.0051 14.1436H79.0049V24.1436ZM83.5801 28.3037H93.5801V28.3035L83.5801 28.3037ZM83.293 31.4082L73.4543 29.6193C72.9288 32.5097 73.7007 35.4849 75.5653 37.755C77.4298 40.0252 80.1982 41.3607 83.1355 41.407L83.293 31.4082ZM95.6123 30.8643L96.667 40.8085C96.7024 40.8047 96.7378 40.8008 96.7732 40.7966L95.6123 30.8643ZM99.4844 34.8955H109.484V34.8948L99.4844 34.8955ZM95.5801 39.6318L94.5598 29.684L94.5542 29.6846L95.5801 39.6318ZM74.6846 39.6318L73.6377 49.5769C73.6447 49.5776 73.6517 49.5784 73.6586 49.5791L74.6846 39.6318ZM70.8125 34.8955L60.8125 34.8947V34.8955H70.8125ZM74.6846 30.8643L73.5086 40.7949C76.6683 41.169 79.8175 40.0172 81.9901 37.6928C84.1628 35.3683 85.0997 32.1487 84.5133 29.0214L74.6846 30.8643ZM74.4287 27.9521H64.4287V27.9522L74.4287 27.9521ZM24.3682 10L24.3682 0H24.3682V10ZM30.7363 12.5596L40.7169 11.9358C40.7116 11.8517 40.7053 11.7678 40.6979 11.6839L30.7363 12.5596ZM29.4883 15.2803L24.0077 6.91584C19.4264 9.91759 18.1123 16.0462 21.0602 20.6624C24.008 25.2785 30.1208 26.6644 34.7712 23.7709L29.4883 15.2803ZM34.5117 14.1279L33.8356 24.105C33.8613 24.1068 33.887 24.1084 33.9128 24.11L34.5117 14.1279ZM37.2637 17.1035H47.2637V17.1023L37.2637 17.1035ZM34.0645 20.4316L31.9097 10.6665C27.7933 11.5749 24.6886 14.967 24.1473 19.1475C23.6059 23.3279 25.7443 27.399 29.4935 29.3258L34.0645 20.4316ZM37.04 25.4238H47.04V25.4236L37.04 25.4238ZM29.6797 31.6318L28.1549 21.7488C25.2436 22.1979 22.6785 23.9078 21.1439 26.4222C19.6093 28.9365 19.2613 31.9996 20.1928 34.7941L29.6797 31.6318ZM29.7764 32.2725L39.7764 32.2736V32.2725H29.7764ZM29.6484 32.9756L20.7015 28.5087C19.1089 31.6988 19.3352 35.4955 21.2956 38.4737C23.256 41.452 26.6538 43.1611 30.2136 42.9596L29.6484 32.9756ZM34.7998 32.5918L35.7052 42.5507C35.7905 42.543 35.8757 42.5341 35.9607 42.5242L34.7998 32.5918ZM38.6719 35.792H48.6719V35.792L38.6719 35.792ZM34.7676 39.5996L35.7493 49.5513C35.7622 49.55 35.775 49.5487 35.7879 49.5474L34.7676 39.5996ZM13.8721 39.5996L12.8252 49.5447C12.8469 49.5469 12.8686 49.5492 12.8903 49.5513L13.8721 39.5996ZM10 35.792L0 35.792V35.792H10ZM13.8721 32.5918L12.6961 42.5224C12.7862 42.5331 12.8764 42.5425 12.9667 42.5507L13.8721 32.5918ZM19.0557 32.9756L18.4905 42.9596C22.0504 43.1611 25.4483 41.4519 27.4087 38.4735C29.369 35.4952 29.5952 31.6983 28.0024 28.5083L19.0557 32.9756ZM18.9277 32.2725H8.92773L8.92773 32.2736L18.9277 32.2725ZM19.0244 31.6318L28.5112 34.7941C29.4432 31.9982 29.0944 28.9335 27.558 26.4185C26.0215 23.9035 23.4539 22.1944 20.5408 21.7475L19.0244 31.6318ZM11.6641 25.4238L1.66406 25.4236V25.4238H11.6641ZM14.6084 20.4316L19.2298 29.2997C22.977 27.3469 25.0924 23.2497 24.5144 19.0639C23.9365 14.8781 20.7899 11.5073 16.6538 10.6431L14.6084 20.4316ZM11.4082 17.2637L1.4082 17.2629V17.2637H11.4082ZM14.2236 14.1279L14.6091 24.1205C14.7061 24.1168 14.8031 24.1116 14.9 24.105L14.2236 14.1279ZM19.1523 15.2803L13.8693 23.7708C18.5341 26.6734 24.6669 25.269 27.6037 20.6257C30.5406 15.9824 29.1814 9.83946 24.5599 6.86849L19.1523 15.2803ZM17.9678 12.5596L27.9241 13.493C27.9313 13.4159 27.9377 13.3388 27.9431 13.2616L17.9678 12.5596ZM110.402 10.6396V0.639648H110.402L110.402 10.6396ZM114.851 12.7197H124.851V12.7176L114.851 12.7197ZM114.115 14.2881L107.975 6.39543C104.236 9.30402 103.051 14.4365 105.136 18.6897C107.221 22.9429 112.004 25.1499 116.593 23.9763L114.115 14.2881ZM119.587 17.0078H129.587V17.0073L119.587 17.0078ZM117.155 19.6318L119.116 29.4376C119.227 29.4156 119.337 29.3916 119.447 29.3658L117.155 19.6318ZM116.194 19.8555L114.233 10.0497C111.436 10.6091 109.01 12.3368 107.568 14.798C106.125 17.2591 105.802 20.2193 106.68 22.9337L116.194 19.8555ZM117.667 22.7676L126.228 17.5989C126.191 17.5379 126.153 17.4773 126.115 17.4171L117.667 22.7676ZM119.587 31.9844L129.581 32.3414C129.581 32.334 129.581 32.3267 129.581 32.3194L119.587 31.9844ZM116.003 39.376V49.376H116.003L116.003 39.376ZM112.035 31.9521H102.035V31.9522L112.035 31.9521ZM111.234 25.7119L120.796 22.7848C120.74 22.6006 120.678 22.4181 120.611 22.2374L111.234 25.7119ZM110.179 25.9043L100.654 28.9521C100.667 28.9902 100.679 29.0283 100.692 29.0663L110.179 25.9043ZM111.075 32.4316H121.075V32.4315L111.075 32.4316ZM106.274 39.248L106.274 49.248H106.274V39.248ZM101.219 31.6963L111.216 31.4595C111.216 31.4502 111.215 31.4408 111.215 31.4315L101.219 31.6963ZM103.587 22.832L95.3121 17.217C95.2832 17.2596 95.2547 17.3024 95.2264 17.3455L103.587 22.832ZM104.739 19.8877L114.61 21.4884C115.488 16.0776 111.846 10.969 106.445 10.0342L104.739 19.8877ZM101.219 17.0078L91.2188 17.0073V17.0078H101.219ZM106.659 14.2881L104.181 23.9761C108.77 25.1501 113.554 22.943 115.639 18.6894C117.723 14.4358 116.538 9.30287 112.799 6.39456L106.659 14.2881ZM105.891 12.7197L95.8906 12.7175V12.7197H105.891ZM54.71 12.1123V2.1123H54.7096L54.71 12.1123ZM58.582 17.5518L68.5541 16.8055C68.5505 16.7573 68.5466 16.7091 68.5423 16.6609L58.582 17.5518ZM58.582 32.5596L68.5174 33.695C68.5241 33.6361 68.5303 33.5771 68.536 33.518L58.582 32.5596ZM54.998 38.3516L52.7954 28.5972C52.6878 28.6215 52.5806 28.6475 52.4739 28.6754L54.998 38.3516ZM44.4062 38.3516L46.9101 28.6701C46.8215 28.6472 46.7327 28.6255 46.6435 28.605L44.4062 38.3516ZM40.8545 32.5596L50.8094 31.6115C50.8045 31.5594 50.7991 31.5073 50.7933 31.4553L40.8545 32.5596ZM40.8545 17.5518L30.8912 16.6955C30.89 16.7097 30.8888 16.7239 30.8876 16.7381L40.8545 17.5518ZM45.0146 12.1123L45.0151 2.1123H45.0146V12.1123ZM48.4707 18.3838H38.4707C38.4707 21.6183 40.0352 24.6531 42.6699 26.5294C45.3046 28.4057 48.6842 28.8917 51.7409 27.834L48.4707 18.3838ZM50.9658 18.3838L47.8045 27.8709C50.8539 28.8871 54.2059 28.3755 56.8133 26.4959C59.4208 24.6164 60.9658 21.598 60.9658 18.3838H50.9658ZM77.4688 12.2715L79.8941 21.9729C79.8994 21.9716 79.9047 21.9703 79.9099 21.9689L77.4688 12.2715ZM92.1562 12.208L94.7012 2.53726C94.6668 2.52821 94.6324 2.51935 94.5979 2.51067L92.1562 12.208ZM97.917 16.8799L88.2694 19.5111C88.276 19.5355 88.2828 19.5598 88.2896 19.5842L97.917 16.8799ZM97.4043 26.2559L88.2832 22.1565C88.2742 22.1765 88.2653 22.1965 88.2564 22.2165L97.4043 26.2559ZM90.6201 30.2559L90.9798 40.2494C90.9892 40.249 90.9987 40.2487 91.0082 40.2483L90.6201 30.2559ZM84.3164 25.6162L74.4015 26.9182C74.403 26.9297 74.4046 26.9413 74.4061 26.9528L84.3164 25.6162ZM86.1084 18.0322L94.5401 23.4088C94.5687 23.3638 94.597 23.3186 94.625 23.2732L86.1084 18.0322ZM85.501 17.6797L93.6434 23.4849C93.7022 23.4024 93.7598 23.319 93.8161 23.2347L85.501 17.6797ZM76.957 22.9277L77.2448 12.9319C77.2191 12.9311 77.1933 12.9305 77.1675 12.9299L76.957 22.9277ZM71.6768 18.3838L81.6686 17.9801C81.666 17.9151 81.6627 17.8501 81.6588 17.7851L71.6768 18.3838ZM52.1826 26.8955L57.4466 18.3931C57.3335 18.3231 57.219 18.2553 57.1032 18.1899L52.1826 26.8955ZM47.3818 25.8076L48.2932 35.766C48.4613 35.7506 48.629 35.731 48.7961 35.7071L47.3818 25.8076ZM47.2227 26.96L47.2229 16.96H47.2227V26.96ZM51.7979 28.0156L47.0099 36.7949C47.0372 36.8098 47.0645 36.8245 47.092 36.8391L51.7979 28.0156ZM22.7041 22L29.1454 14.3508C29.1323 14.3398 29.1191 14.3288 29.106 14.3178L22.7041 22ZM22.1602 22.832L14.8782 29.6857C15.0108 29.8267 15.1476 29.9638 15.2882 30.0968L22.1602 22.832ZM26.3203 25.0723L24.6763 34.9362C24.9085 34.9749 25.1419 35.0054 25.3762 35.0276L26.3203 25.0723ZM26.7363 24.1436L30.2502 14.7812C29.9816 14.6805 29.7089 14.5913 29.4326 14.5139L26.7363 24.1436ZM63.7344 11.0879L63.7342 21.0879C62.9418 21.0879 61.3105 20.8309 59.7946 19.451C58.2698 18.063 57.931 16.5136 57.8773 15.9632L67.8301 14.9922L77.7828 14.0212C77.4731 10.8468 76.2065 7.3453 73.2579 4.66113C70.3181 1.98504 66.7669 1.08793 63.7345 1.08789L63.7344 11.0879ZM67.8301 14.9922L57.8815 16.0054C58.5167 22.2421 58.5172 29.3728 57.8811 35.6476L67.8301 36.6562L77.7791 37.6649C78.5509 30.0518 78.5514 21.5662 77.7786 13.9789L67.8301 14.9922ZM67.8301 36.6562L57.8798 35.6608C57.9435 35.0234 58.3192 33.4671 59.8408 32.0992C61.3415 30.7502 62.9445 30.4961 63.7342 30.4961L63.7344 40.4961L63.7345 50.4961C66.7642 50.4961 70.2869 49.6019 73.2115 46.9729C76.1569 44.3251 77.4605 40.8488 77.7804 37.6517L67.8301 36.6562ZM63.7344 40.4961V30.4961C64.1994 30.4961 66.0123 30.6342 67.7172 32.3486C69.6085 34.2507 69.7321 36.4278 69.641 37.2479L59.7021 36.1436L49.7633 35.0392C49.3522 38.7394 50.1959 43.0927 53.5354 46.451C56.6883 49.6217 60.6774 50.4961 63.7344 50.4961V40.4961ZM59.7021 36.1436L69.6352 37.2985C70.5225 29.668 70.5267 21.9798 69.6672 14.6025L59.7344 15.7598L49.8016 16.917C50.478 22.7235 50.4817 28.8594 49.7691 34.9886L59.7021 36.1436ZM59.7344 15.7598L69.6732 14.6557C69.7158 15.0385 69.773 17.0948 67.9434 19.0564C66.2064 20.9189 64.256 21.0879 63.7344 21.0879V11.0879V1.08789C60.6208 1.08789 56.4944 2.00889 53.3174 5.41534C50.0479 8.92092 49.4011 13.3132 49.7955 16.8639L59.7344 15.7598ZM124.515 11.0557V21.0557C123.722 21.0557 122.091 20.7987 120.575 19.4187C119.05 18.0307 118.711 16.4813 118.658 15.931L128.61 14.96L138.563 13.9889C138.253 10.8147 136.987 7.31313 134.038 4.62893C131.098 1.95277 127.547 1.05566 124.515 1.05566V11.0557ZM128.61 14.96L118.662 15.9732C119.297 22.2099 119.298 29.3405 118.661 35.6154L128.61 36.624L138.559 37.6327C139.331 30.0195 139.332 21.534 138.559 13.9467L128.61 14.96ZM128.61 36.624L118.66 35.6288C118.724 34.9917 119.099 33.4351 120.621 32.067C122.122 30.7178 123.725 30.4639 124.515 30.4639V40.4639V50.4639C127.544 50.4639 131.067 49.57 133.992 46.9408C136.937 44.2928 138.241 40.8163 138.561 37.6192L128.61 36.624ZM124.515 40.4639L124.515 30.4639C124.979 30.4639 126.791 30.6016 128.497 32.3157C130.389 34.2179 130.512 36.3956 130.421 37.216L120.482 36.1123L110.544 35.0086C110.133 38.7088 110.977 43.0622 114.317 46.4202C117.47 49.5902 121.459 50.4638 124.514 50.4639L124.515 40.4639ZM120.482 36.1123L130.415 37.2673C131.303 29.6366 131.307 21.9477 130.447 14.5703L120.515 15.7275L110.582 16.8848C111.258 22.6914 111.262 28.828 110.549 34.9573L120.482 36.1123ZM120.515 15.7275L130.454 14.6238C130.496 15.007 130.553 17.0629 128.724 19.0242C126.987 20.8864 125.037 21.0557 124.515 21.0557L124.515 11.0557L124.514 1.05566C121.4 1.05573 117.274 1.97708 114.098 5.38331C110.829 8.88859 110.181 13.2805 110.576 16.8313L120.515 15.7275ZM79.0049 24.1436L79.0046 34.1436C79.8498 34.1436 77.6849 34.383 75.5724 32.2819C73.4092 30.1304 73.5801 27.7922 73.5801 28.3039L83.5801 28.3037L93.5801 28.3035C93.58 26.0635 93.2391 21.6452 89.6762 18.1016C86.1641 14.6084 81.7116 14.1436 79.0051 14.1436L79.0049 24.1436ZM83.5801 28.3037H73.5801C73.5801 28.6964 73.5447 29.1218 73.4543 29.6193L83.293 31.4082L93.1317 33.1971C93.4252 31.5826 93.5801 29.9591 93.5801 28.3037H83.5801ZM83.293 31.4082L83.1355 41.407C87.5778 41.4769 92.0153 41.3018 96.667 40.8085L95.6123 30.8643L94.5576 20.92C90.7618 21.3226 87.1357 21.4675 83.4504 21.4094L83.293 31.4082ZM95.6123 30.8643L96.7732 40.7966C95.9585 40.8919 94.8919 40.8329 93.7452 40.4029C92.5981 39.9727 91.6614 39.2792 90.9746 38.5011C89.6672 37.0197 89.4844 35.5529 89.4844 34.8963L99.4844 34.8955L109.484 34.8948C109.484 31.8703 108.597 28.2439 105.97 25.2668C103.073 21.9849 98.8349 20.4195 94.4514 20.9319L95.6123 30.8643ZM99.4844 34.8955H89.4844C89.4844 34.889 89.4828 34.5378 89.6542 33.9715C89.8353 33.373 90.1985 32.5792 90.8702 31.7942C92.3406 30.0758 94.0685 29.7344 94.5598 29.684L95.5801 39.6318L96.6004 49.5797C99.5877 49.2733 103.268 48.0677 106.066 44.7972C108.789 41.6148 109.484 37.8626 109.484 34.8955H99.4844ZM95.5801 39.6318L94.5542 29.6846C88.1004 30.3502 82.1642 30.3502 75.7105 29.6846L74.6846 39.6318L73.6586 49.5791C81.4767 50.3854 88.7881 50.3854 96.606 49.5791L95.5801 39.6318ZM74.6846 39.6318L75.7314 29.6868C76.3004 29.7467 77.9984 30.1156 79.4349 31.7945C80.8046 33.3954 80.8125 34.8835 80.8125 34.8955H70.8125H60.8125C60.8125 37.9155 61.5405 41.6438 64.2382 44.7968C67.0027 48.0279 70.6368 49.261 73.6377 49.5769L74.6846 39.6318ZM70.8125 34.8955L80.8125 34.8963C80.8124 35.6084 80.607 37.0677 79.3144 38.5235C77.7703 40.2625 75.4882 41.0293 73.5086 40.7949L74.6846 30.8643L75.8606 20.9336C71.4491 20.4112 67.2311 22.0097 64.359 25.2444C61.7383 28.1959 60.8127 31.8148 60.8125 34.8947L70.8125 34.8955ZM74.6846 30.8643L84.5133 29.0214C84.4593 28.7331 84.4287 28.4073 84.4287 27.9521L74.4287 27.9521L64.4287 27.9522C64.4287 29.3529 64.5259 30.9475 64.8558 32.7071L74.6846 30.8643ZM74.4287 27.9521H84.4287C84.4287 28.1126 84.3628 30.6785 81.8786 32.7333C79.8754 34.3903 78.0773 34.1436 79.0049 34.1436V24.1436V14.1436C76.7005 14.1436 72.6143 14.4411 69.131 17.3224C65.1668 20.6015 64.4287 25.0717 64.4287 27.9521H74.4287ZM24.3682 10L24.3681 20C25.8608 20 25.9858 20.1798 25.4011 19.9608C25.0416 19.8262 24.0109 19.3883 22.9589 18.2823C21.7648 17.0269 20.94 15.3147 20.7747 13.4353L30.7363 12.5596L40.6979 11.6839C40.1419 5.35852 35.3547 2.33185 32.4148 1.23097C29.6301 0.188171 26.6512 1.23978e-05 24.3682 0L24.3682 10ZM30.7363 12.5596L20.7558 13.1834C20.6556 11.5805 21.203 8.75356 24.0077 6.91584L29.4883 15.2803L34.9688 23.6447C39.6295 20.591 40.945 15.5866 40.7169 11.9358L30.7363 12.5596ZM29.4883 15.2803L34.7712 23.7709C34.525 23.9241 34.2729 24.0201 34.0615 24.0685C33.8592 24.1147 33.7695 24.1006 33.8356 24.105L34.5117 14.1279L35.1879 4.15081C31.4895 3.90018 27.6528 4.64462 24.2054 6.78964L29.4883 15.2803ZM34.5117 14.1279L33.9128 24.11C32.5047 24.0255 30.7115 23.4257 29.2492 21.8915C27.7593 20.3285 27.2638 18.4796 27.2637 17.1047L37.2637 17.1035L47.2637 17.1023C47.2633 13.9677 46.1918 10.679 43.7259 8.09212C41.2876 5.53413 38.1186 4.32636 35.1106 4.14588L34.5117 14.1279ZM37.2637 17.1035H27.2637C27.2637 15.6846 27.7752 13.8766 29.1545 12.3923C30.3981 11.054 31.6551 10.7227 31.9097 10.6665L34.0645 20.4316L36.2192 30.1967C38.6495 29.6605 41.5061 28.481 43.8054 26.0067C46.2403 23.3864 47.2637 20.1543 47.2637 17.1035H37.2637ZM34.0645 20.4316L29.4935 29.3258C29.1193 29.1335 28.2549 28.5361 27.6176 27.3563C27.0404 26.2876 27.04 25.4545 27.04 25.424L37.04 25.4238L47.04 25.4236C47.04 23.3453 46.7037 20.6081 45.2147 17.8513C43.6655 14.9833 41.3134 12.9137 38.6354 11.5375L34.0645 20.4316ZM37.04 25.4238H27.04C27.04 25.1664 27.0792 24.6088 27.3516 23.905C27.6393 23.1615 28.0882 22.5147 28.5961 22.0353C29.5121 21.1709 29.924 21.4758 28.1549 21.7488L29.6797 31.6318L31.2045 41.5149C35.0354 40.9238 39.1274 39.5968 42.3236 36.5803C45.8478 33.2542 47.04 29.0742 47.04 25.4238H37.04ZM29.6797 31.6318L20.1928 34.7941C20.0619 34.4012 19.9466 33.9529 19.8704 33.4622C19.7961 32.9838 19.7764 32.5761 19.7764 32.2725H29.7764H39.7764C39.7764 31.0362 39.5991 29.7672 39.1665 28.4696L29.6797 31.6318ZM29.7764 32.2725L19.7764 32.2713C19.7764 31.9448 19.782 30.3504 20.7015 28.5087L29.6484 32.9756L38.5954 37.4424C39.7063 35.2172 39.7763 33.1752 39.7764 32.2736L29.7764 32.2725ZM29.6484 32.9756L30.2136 42.9596C32.0356 42.8565 33.8455 42.7198 35.7052 42.5507L34.7998 32.5918L33.8945 22.6329C32.2346 22.7838 30.6529 22.9027 29.0833 22.9916L29.6484 32.9756ZM34.7998 32.5918L35.9607 42.5242C35.2333 42.6092 33.1491 42.5914 31.1366 40.8593C29.0945 39.1018 28.6719 36.9089 28.6719 35.792L38.6719 35.792L48.6719 35.792C48.6719 32.531 47.5452 28.5941 44.1831 25.7005C40.8506 22.8323 36.8303 22.2864 33.6389 22.6594L34.7998 32.5918ZM38.6719 35.792H28.6719C28.6719 35.2771 28.8763 33.0134 31.0019 31.1187C32.7011 29.6042 34.2925 29.5959 33.7473 29.6518L34.7676 39.5996L35.7879 49.5474C37.7386 49.3473 41.2822 48.7472 44.3095 46.0489C47.7633 42.9704 48.6719 38.9309 48.6719 35.792H38.6719ZM34.7676 39.5996L33.7858 29.6479C27.3029 30.2875 21.3368 30.2875 14.8538 29.6479L13.8721 39.5996L12.8903 49.5513C20.6791 50.3197 27.9606 50.3197 35.7493 49.5513L34.7676 39.5996ZM13.8721 39.5996L14.9189 29.6546C14.4401 29.6042 16.0055 29.628 17.6781 31.119C18.5959 31.9371 19.2464 32.9367 19.6228 33.9374C19.9713 34.864 20 35.5602 20 35.792H10H0C0 38.9939 0.951895 43.0017 4.36994 46.0486C7.37063 48.7234 10.872 49.3391 12.8252 49.5447L13.8721 39.5996ZM10 35.792L20 35.792C20 37.0286 19.5206 39.1713 17.551 40.8681C15.5983 42.5504 13.5454 42.623 12.6961 42.5224L13.8721 32.5918L15.0481 22.6612C11.7668 22.2726 7.77783 22.8893 4.49713 25.7157C1.1994 28.5566 8.58307e-06 32.4434 0 35.792L10 35.792ZM13.8721 32.5918L12.9667 42.5507C14.836 42.7207 16.6774 42.857 18.4905 42.9596L19.0557 32.9756L19.6208 22.9916C18.0422 22.9022 16.4278 22.7829 14.7774 22.6329L13.8721 32.5918ZM19.0557 32.9756L28.0024 28.5083C28.9222 30.3504 28.9277 31.9452 28.9277 32.2713L18.9277 32.2725L8.92773 32.2736C8.92784 33.1748 8.99762 35.2172 10.109 37.4429L19.0557 32.9756ZM18.9277 32.2725H28.9277C28.9277 32.5761 28.908 32.9837 28.8337 33.4622C28.7575 33.9529 28.6422 34.4013 28.5112 34.7941L19.0244 31.6318L9.53759 28.4695C9.10502 29.7672 8.92773 31.0362 8.92773 32.2725H18.9277ZM19.0244 31.6318L20.5408 21.7475C18.7479 21.4724 19.1771 21.165 20.1087 22.0474C20.6255 22.5368 21.0749 23.1919 21.36 23.9361C21.6289 24.6379 21.6641 25.1864 21.6641 25.4238H11.6641H1.66406C1.66406 29.0293 2.82056 33.2201 6.35577 36.5683C9.55956 39.6026 13.6689 40.9272 17.5081 41.5162L19.0244 31.6318ZM11.6641 25.4238L21.6641 25.424C21.6641 25.4912 21.6567 26.292 21.1087 27.3199C20.501 28.4599 19.6618 29.0746 19.2298 29.2997L14.6084 20.4316L9.98701 11.5636C7.28307 12.9727 4.9717 15.0755 3.45983 17.9116C2.00771 20.6356 1.6641 23.3405 1.66406 25.4236L11.6641 25.4238ZM14.6084 20.4316L16.6538 10.6431C16.7205 10.657 17.9674 10.9128 19.275 12.2202C20.8136 13.7587 21.4082 15.7165 21.4082 17.2637H11.4082H1.4082C1.4082 20.4428 2.53091 23.7607 5.13361 26.3631C7.5053 28.7345 10.3523 29.7583 12.563 30.2202L14.6084 20.4316ZM11.4082 17.2637L21.4082 17.2645C21.4081 18.5757 20.9603 20.2527 19.6548 21.7163C18.3041 23.2307 16.4332 24.0501 14.6091 24.1205L14.2236 14.1279L13.8382 4.13536C6.12067 4.43305 1.40873 10.8438 1.4082 17.2629L11.4082 17.2637ZM14.2236 14.1279L14.9 24.105C14.9692 24.1003 14.8316 24.1169 14.5651 24.0542C14.2866 23.9886 14.0402 23.8772 13.8693 23.7708L19.1523 15.2803L24.4354 6.78971C21.0589 4.68882 17.3385 3.8938 13.5472 4.15083L14.2236 14.1279ZM19.1523 15.2803L24.5599 6.86849C26.0925 7.85373 26.9861 9.18188 27.4455 10.3064C27.892 11.3995 28.0182 12.4893 27.9241 13.493L17.9678 12.5596L8.01143 11.6262C7.66665 15.3039 8.89625 20.5752 13.7448 23.6921L19.1523 15.2803ZM17.9678 12.5596L27.9431 13.2616C27.8087 15.171 26.9924 16.9378 25.7665 18.2412C24.6921 19.3837 23.6316 19.8308 23.2718 19.965C22.6874 20.1831 22.8253 20 24.3682 20V10V0C22.0713 0 19.0732 0.184857 16.2806 1.22675C13.323 2.33023 8.44595 5.41315 7.99244 11.8576L17.9678 12.5596ZM110.402 10.6396V20.6396C110.66 20.6396 110.179 20.7058 109.243 20.2496C108.77 20.0192 107.825 19.4798 106.897 18.3839C105.91 17.2181 104.851 15.2748 104.851 12.7219L114.851 12.7197L124.851 12.7176C124.849 6.34099 119.962 3.22489 118.002 2.26985C115.506 1.05357 112.8 0.639648 110.402 0.639648V10.6396ZM114.851 12.7197H104.851C104.851 11.2245 105.356 8.43284 107.975 6.39543L114.115 14.2881L120.256 22.1807C124.026 19.2473 124.851 15.1748 124.851 12.7197H114.851ZM114.115 14.2881L116.593 23.9763C115.956 24.1393 114.869 24.2193 113.524 23.5681C112.087 22.8719 109.587 20.7413 109.587 17.0084L119.587 17.0078L129.587 17.0073C129.587 11.0986 125.727 7.25616 122.242 5.56816C118.849 3.92502 115.027 3.73313 111.638 4.5999L114.115 14.2881ZM119.587 17.0078H109.587C109.587 15.3725 110.164 13.5044 111.527 11.9802C112.804 10.5512 114.199 10.0543 114.864 9.89788L117.155 19.6318L119.447 29.3658C121.743 28.8253 124.354 27.6404 126.439 25.3073C128.609 22.879 129.587 19.891 129.587 17.0078H119.587ZM117.155 19.6318L115.194 9.82602C114.963 9.87217 114.763 9.91797 114.611 9.9539C114.465 9.98843 114.329 10.0225 114.258 10.0401C114.168 10.0624 114.144 10.0683 114.13 10.0717C114.122 10.0736 114.162 10.0638 114.233 10.0497L116.194 19.8555L118.155 29.6613C118.386 29.6151 118.587 29.5693 118.739 29.5334C118.885 29.4989 119.021 29.4648 119.092 29.4472C119.181 29.4249 119.205 29.4191 119.219 29.4157C119.228 29.4137 119.187 29.4235 119.116 29.4376L117.155 19.6318ZM116.194 19.8555L106.68 22.9337C107.444 25.2961 108.545 27.0546 109.219 28.1181L117.667 22.7676L126.115 17.4171C125.573 16.5606 125.648 16.5907 125.709 16.7773L116.194 19.8555ZM117.667 22.7676L109.106 27.9363C109.386 28.3997 109.424 28.4718 109.445 28.5166C109.447 28.5206 109.442 28.5092 109.435 28.4914C109.428 28.4739 109.429 28.4738 109.436 28.4994C109.464 28.6009 109.668 29.4091 109.593 31.6494L119.587 31.9844L129.581 32.3194C129.698 28.8316 129.454 25.8794 128.729 23.2285C127.964 20.425 126.801 18.5492 126.228 17.5989L117.667 22.7676ZM119.587 31.9844L109.593 31.6274C109.545 32.9762 109.46 33.7392 109.396 34.1214C109.32 34.5677 109.339 34.081 109.795 33.2455C110.372 32.1867 111.476 30.8967 113.206 30.0736C114.691 29.3668 115.886 29.376 116.003 29.376L116.003 39.376L116.003 49.376C117.271 49.3759 119.463 49.2451 121.801 48.1323C124.383 46.9031 126.198 44.9412 127.355 42.8184C129.194 39.4442 129.472 35.3659 129.581 32.3414L119.587 31.9844ZM116.003 39.376V29.376C115.642 29.376 116.483 29.3134 117.688 29.7709C118.375 30.0315 119.146 30.4446 119.887 31.0667C120.625 31.6875 121.155 32.3659 121.516 32.9746C122.162 34.0638 122.198 34.8115 122.141 34.4163C122.096 34.0959 122.035 33.3637 122.035 31.9521L112.035 31.9521L102.035 31.9522C102.035 33.7565 102.103 35.5603 102.341 37.2348C102.569 38.8346 103.044 41.0362 104.314 43.1773C105.783 45.6538 107.97 47.4747 110.593 48.4701C112.819 49.3145 114.892 49.376 116.003 49.376V39.376ZM112.035 31.9521H122.035C122.035 28.7316 121.628 25.5029 120.796 22.7848L111.234 25.7119L101.672 28.6391C101.721 28.7977 101.819 29.1886 101.902 29.812C101.982 30.4176 102.035 31.1457 102.035 31.9521H112.035ZM111.234 25.7119L120.611 22.2374C119.132 18.2458 114.557 14.0559 108.35 15.416C105.436 16.0546 102.746 17.9658 101.26 20.9167C99.7787 23.8568 99.9706 26.815 100.654 28.9521L110.179 25.9043L119.703 22.8565C120.259 24.5937 120.479 27.2199 119.122 29.9138C117.759 32.6187 115.29 34.3698 112.631 34.9524C106.936 36.2003 103.016 32.3143 101.857 29.1864L111.234 25.7119ZM110.179 25.9043L100.692 29.0663C100.782 29.3362 101.075 30.4877 101.075 32.4317L111.075 32.4316L121.075 32.4315C121.075 28.6803 120.536 25.3523 119.666 22.7423L110.179 25.9043ZM111.075 32.4316H101.075C101.075 32.9942 101.06 33.4095 101.04 33.7093C101.019 34.0137 100.996 34.1339 100.999 34.1205C101.001 34.1099 101.044 33.8728 101.191 33.4975C101.344 33.1089 101.62 32.5405 102.098 31.9199C103.203 30.486 104.626 29.7326 105.683 29.4178C106.461 29.186 106.864 29.248 106.274 29.248V39.248V49.248C108.264 49.248 114.039 49.1897 117.94 44.1278C119.635 41.9284 120.329 39.5614 120.66 37.7869C120.993 36.0014 121.075 34.1498 121.075 32.4316H111.075ZM106.274 39.248L106.275 29.248C106.69 29.2481 107.508 29.3238 108.48 29.781C109.5 30.2613 110.279 30.9717 110.785 31.6776C111.245 32.3202 111.346 32.7695 111.332 32.7119C111.317 32.6529 111.235 32.2776 111.216 31.4595L101.219 31.6963L91.2215 31.933C91.3051 35.4627 91.95 39.7272 94.5245 43.3223C97.5624 47.5644 102.066 49.2478 106.274 49.248L106.274 39.248ZM101.219 31.6963L111.215 31.4315C111.174 29.857 111.354 29.3324 111.363 29.3067C111.371 29.2812 111.372 29.1947 111.947 28.3186L103.587 22.832L95.2264 17.3455C94.4574 18.5174 93.2109 20.447 92.3391 23.1336C91.4673 25.8201 91.136 28.7035 91.2223 31.9611L101.219 31.6963ZM103.587 22.832L111.862 28.447C113.305 26.3201 114.19 24.0806 114.61 21.4884L104.739 19.8877L94.8682 18.287C94.868 18.2884 94.9016 18.0897 95.0186 17.7935C95.1383 17.4904 95.2668 17.2839 95.3121 17.217L103.587 22.832ZM104.739 19.8877L106.445 10.0342C106.175 9.98749 106.188 9.97932 106.33 10.0213C106.46 10.0598 106.999 10.2259 107.69 10.6619C108.432 11.1297 109.419 11.9564 110.186 13.2785C110.971 14.6327 111.219 15.9802 111.219 17.0078H101.219H91.2188C91.2188 21.8014 93.7258 25.4998 97.0198 27.5777C99.524 29.1573 102.177 29.5928 103.034 29.7412L104.739 19.8877ZM101.219 17.0078L111.219 17.0083C111.219 20.684 108.776 22.8311 107.293 23.5547C105.921 24.2246 104.812 24.1375 104.181 23.9761L106.659 14.2881L109.138 4.60006C105.755 3.73469 101.926 3.91948 98.5208 5.58129C95.0061 7.29672 91.2191 11.1557 91.2188 17.0073L101.219 17.0078ZM106.659 14.2881L112.799 6.39456C115.155 8.22761 115.891 10.8033 115.891 12.7197H105.891H95.8906C95.8906 15.5962 97.011 19.4526 100.52 22.1816L106.659 14.2881ZM105.891 12.7197L115.891 12.7219C115.89 15.3284 114.79 17.2916 113.797 18.4458C112.863 19.531 111.921 20.0568 111.465 20.2755C110.558 20.7106 110.115 20.6397 110.403 20.6396L110.402 10.6396L110.402 0.639648C108.002 0.639742 105.303 1.04894 102.812 2.24406C100.91 3.15711 95.892 6.25254 95.8906 12.7175L105.891 12.7197ZM54.71 12.1123V22.1123C54.338 22.1123 53.3839 22.0589 52.2095 21.5317C50.9356 20.9598 49.9425 20.0728 49.2834 19.1442C48.7007 18.3233 48.5315 17.6883 48.519 17.6417C48.504 17.5861 48.5643 17.7997 48.6218 18.4426L58.582 17.5518L68.5423 16.6609C68.3378 14.3752 67.8332 10.7247 65.5926 7.56797C62.6506 3.42312 58.3162 2.1123 54.71 2.1123V12.1123ZM58.582 17.5518L48.6099 18.298C48.9342 22.6316 48.9733 28.0157 48.6281 31.6011L58.582 32.5596L68.536 33.518C69.0227 28.4635 68.9338 21.8797 68.5541 16.8055L58.582 17.5518ZM58.582 32.5596L48.6467 31.4241C48.5488 32.2809 48.4306 32.024 48.8807 31.2949C49.1367 30.8801 49.5882 30.2988 50.3123 29.7517C51.0572 29.1888 51.9157 28.7958 52.7954 28.5972L54.998 38.3516L57.2007 48.106C65.8046 46.1631 68.0211 38.0372 68.5174 33.695L58.582 32.5596ZM54.998 38.3516L52.4739 28.6754C50.4561 29.2017 48.987 29.2072 46.9101 28.6701L44.4062 38.3516L41.9024 48.033C47.2495 49.4159 52.1801 49.4213 57.5222 48.0277L54.998 38.3516ZM44.4062 38.3516L46.6435 28.605C47.53 28.8085 48.3742 29.2027 49.0971 29.7483C49.8024 30.2806 50.2505 30.8485 50.5123 31.2699C50.9859 32.0321 50.8791 32.3426 50.8094 31.6115L40.8545 32.5596L30.8995 33.5077C31.3444 38.1782 33.6981 46.1536 42.169 48.0981L44.4062 38.3516ZM40.8545 32.5596L50.7933 31.4553C50.4097 28.0021 50.4665 22.7119 50.8213 18.3654L40.8545 17.5518L30.8876 16.7381C30.4745 21.7993 30.3394 28.4771 30.9156 33.6638L40.8545 32.5596ZM40.8545 17.5518L50.8178 18.408C50.8818 17.6626 50.9444 17.4381 50.9257 17.5098C50.9075 17.5791 50.7029 18.3631 49.9799 19.3209C49.1481 20.4228 48.0069 21.2584 46.7891 21.7248C46.2518 21.9306 45.8043 22.0243 45.5101 22.0683C45.2209 22.1115 45.0411 22.1123 45.0146 22.1123V12.1123V2.1123C42.0256 2.1123 37.3268 2.88698 34.0173 7.27124C31.5022 10.603 31.0734 14.5761 30.8912 16.6955L40.8545 17.5518ZM45.0146 12.1123L45.0142 22.1123C44.9229 22.1123 44.0976 22.1115 42.9654 21.6496C41.66 21.1171 40.419 20.162 39.5329 18.8607C38.7489 17.7094 38.5395 16.7215 38.4892 16.4458C38.4395 16.1736 38.4707 16.1679 38.4707 16.6562H48.4707H58.4707C58.4707 15.0773 58.4554 11.1156 56.0642 7.60401C52.9282 2.99845 48.0977 2.11244 45.0151 2.1123L45.0146 12.1123ZM48.4707 16.6562H38.4707V18.3838H48.4707H58.4707V16.6562H48.4707ZM48.4707 18.3838L51.7409 27.834C51.1934 28.0234 50.4974 28.1679 49.7062 28.1679C48.9217 28.1679 48.2695 28.0259 47.8045 27.8709L50.9658 18.3838L54.1271 8.89664C51.2515 7.93842 48.1894 7.89934 45.2005 8.9336L48.4707 18.3838ZM50.9658 18.3838H60.9658V16.6562H50.9658H40.9658V18.3838H50.9658ZM50.9658 16.6562H60.9658C60.9658 16.2072 61.0015 16.2944 60.9201 16.6747C60.8325 17.0843 60.5404 18.1591 59.6252 19.3302C58.627 20.6074 57.3642 21.3922 56.2497 21.7889C55.7498 21.9669 55.3467 22.0438 55.0995 22.0785C54.8539 22.1128 54.712 22.1123 54.7103 22.1123L54.71 12.1123L54.7096 2.1123C52.0209 2.1124 47.2361 2.70339 43.8668 7.01457C41.057 10.6099 40.9658 14.8091 40.9658 16.6562H50.9658ZM77.4688 12.2715L79.9099 21.9689C82.9463 21.2046 86.9313 21.2045 89.7146 21.9053L92.1562 12.208L94.5979 2.51067C88.4855 0.971663 81.1429 1.03458 75.0276 2.57403L77.4688 12.2715ZM92.1562 12.208L89.6113 21.8788C89.9865 21.9775 89.9386 22.0441 89.6496 21.809C89.3591 21.5726 88.6364 20.857 88.2694 19.5111L97.917 16.8799L107.565 14.2487C105.686 7.36038 99.6163 3.83072 94.7012 2.53726L92.1562 12.208ZM97.917 16.8799L88.2896 19.5842C88.3925 19.9506 88.4754 20.5265 88.4493 21.1505C88.4371 21.4437 88.4029 21.6905 88.3621 21.8795C88.3209 22.0704 88.2827 22.1575 88.2832 22.1565L97.4043 26.2559L106.525 30.3552C108.947 24.967 108.848 18.8167 107.544 14.1756L97.917 16.8799ZM97.4043 26.2559L88.2564 22.2165C88.5703 21.5056 89.1375 20.885 89.7662 20.5147C90.3176 20.1901 90.58 20.2499 90.2321 20.2634L90.6201 30.2559L91.0082 40.2483C97.0528 40.0136 103.532 37.1358 106.552 30.2952L97.4043 26.2559ZM90.6201 30.2559L90.2605 20.2623C90.3539 20.259 91.2457 20.2691 92.3131 21.0765C93.4486 21.9354 94.0785 23.1812 94.2267 24.2796L84.3164 25.6162L74.4061 26.9528C74.9384 30.899 76.9444 34.5285 80.2477 37.0273C83.4831 39.4745 87.3347 40.3806 90.9798 40.2494L90.6201 30.2559ZM84.3164 25.6162L94.2313 24.3143C94.2013 24.0855 94.2065 23.9787 94.2073 23.9649C94.2077 23.9564 94.2058 23.9842 94.1955 24.0232C94.1728 24.1089 94.1852 23.9653 94.5401 23.4088L86.1084 18.0322L77.6767 12.6557C75.3284 16.3384 73.6092 20.8844 74.4015 26.9182L84.3164 25.6162ZM86.1084 18.0322L94.625 23.2732C95.9967 21.0442 96.6822 18.0053 95.7297 14.8542C94.8419 11.9172 92.8416 9.91584 90.8413 8.80807C86.8659 6.60661 80.642 6.95128 77.1858 12.1247L85.501 17.6797L93.8161 23.2347C90.6161 28.0247 84.8238 28.3377 81.1521 26.3044C79.3036 25.2807 77.4232 23.4133 76.5853 20.6413C75.6826 17.6552 76.3481 14.8123 77.5918 12.7912L86.1084 18.0322ZM85.501 17.6797L77.3586 11.8744C76.9985 12.3795 76.7074 12.7145 76.4968 12.9268C76.288 13.1371 76.1889 13.1959 76.2122 13.1812C76.2447 13.1607 76.3823 13.0815 76.6127 13.0159C76.8489 12.9487 77.0738 12.927 77.2448 12.9319L76.957 22.9277L76.6692 32.9236C84.7222 33.1554 90.2236 28.2815 93.6434 23.4849L85.501 17.6797ZM76.957 22.9277L77.1675 12.9299C76.8449 12.9232 78.0101 12.853 79.4342 13.9811C80.1937 14.5827 80.807 15.3643 81.2038 16.2217C81.5831 17.0415 81.6571 17.694 81.6686 17.9801L71.6768 18.3838L61.6849 18.7875C61.8436 22.7147 63.3972 26.7921 67.0156 29.6584C70.2878 32.2504 74.0292 32.8683 76.7466 32.9255L76.957 22.9277ZM71.6768 18.3838L81.6588 17.7851C81.6956 18.3987 81.6045 19.1572 81.2908 19.9361C80.9838 20.6983 80.559 21.2457 80.2072 21.5907C79.588 22.1981 79.2742 22.1279 79.8941 21.9729L77.4688 12.2715L75.0434 2.57006C72.2074 3.27907 68.9016 4.66509 66.2024 7.31261C63.2589 10.1998 61.4123 14.2738 61.6947 18.9825L71.6768 18.3838ZM52.1826 26.8955L57.1032 18.1899C54.3427 16.6296 50.3461 15.2826 45.9676 15.9081L47.3818 25.8076L48.7961 35.7071C48.0986 35.8067 47.6432 35.7174 47.4943 35.6818C47.3323 35.6431 47.2714 35.6064 47.262 35.6011L52.1826 26.8955ZM47.3818 25.8076L46.4704 15.8492C39.8868 16.4518 37.1607 22.0081 36.8585 25.56C36.7015 27.4039 36.9883 29.8837 38.5245 32.2439C40.2909 34.9579 43.4372 36.96 47.2227 36.96V26.96V16.96C50.7201 16.96 53.6544 18.826 55.2868 21.334C56.6889 23.4883 56.9195 25.692 56.7864 27.2559C56.5318 30.2477 54.1733 35.2279 48.2932 35.766L47.3818 25.8076ZM47.2227 26.96L47.2224 36.96C47.4556 36.96 47.5124 36.981 47.4469 36.9666C47.4125 36.9591 47.3513 36.9432 47.2709 36.9137C47.1897 36.8838 47.1007 36.8444 47.0099 36.7949L51.7979 28.0156L56.5858 19.2363C53.3341 17.463 50.0404 16.96 47.2229 16.96L47.2227 26.96ZM51.7979 28.0156L47.092 36.8391C50.6709 38.7479 54.3966 38.1736 56.9391 36.7884C59.2396 35.5351 60.6945 33.6448 61.4995 31.9031C62.3304 30.1054 62.8242 27.6967 62.2236 25.0606C61.5715 22.1986 59.7945 19.8467 57.4466 18.3931L52.1826 26.8955L46.9186 35.3979C44.9067 34.1523 43.3096 32.0765 42.7233 29.5035C42.1886 27.1564 42.6342 25.0497 43.3449 23.512C44.0298 22.0303 45.2924 20.3581 47.3708 19.2258C49.6912 17.9616 53.1648 17.4113 56.5037 19.1921L51.7979 28.0156ZM22.7041 22L29.106 14.3178C23.341 9.51363 16.9024 12.7425 14.4554 15.6407C12.978 17.3905 11.9118 19.8346 11.9779 22.6613C12.0464 25.5928 13.3058 28.015 14.8782 29.6857L22.1602 22.832L29.4422 15.9784C30.7585 17.377 31.9099 19.5193 31.9724 22.1937C32.0325 24.7635 31.0622 26.9736 29.7369 28.5433C27.5938 31.0815 21.6832 34.1664 16.3022 29.6822L22.7041 22ZM22.1602 22.832L15.2882 30.0968C17.4308 32.1235 20.6075 34.2581 24.6763 34.9362L26.3203 25.0723L27.9643 15.2083C28.4932 15.2965 28.8258 15.4576 28.9566 15.5301C29.0862 15.6019 29.0993 15.6309 29.0321 15.5673L22.1602 22.832ZM26.3203 25.0723L25.3762 35.0276C30.2653 35.4912 34.6252 32.6168 36.2928 28.3267C37.0864 26.2849 37.3666 23.6229 36.358 20.9025C35.2698 17.9672 32.9765 15.8045 30.2502 14.7812L26.7363 24.1436L23.2225 33.5059C20.752 32.5787 18.6186 30.5881 17.6053 27.8548C16.6717 25.3365 16.9418 22.9067 17.6514 21.081C19.151 17.2231 23.047 14.717 27.2644 15.1169L26.3203 25.0723ZM26.7363 24.1436L29.4326 14.5139C29.3422 14.4886 29.2983 14.4717 29.2882 14.4677C29.2796 14.4643 29.2875 14.4671 29.3029 14.4754C29.3181 14.4835 29.3197 14.4857 29.3021 14.4736C29.2829 14.4604 29.2325 14.4241 29.1454 14.3508L22.7041 22L16.2628 29.6492C18.5092 31.5409 20.9885 32.9188 24.04 33.7732L26.7363 24.1436Z" fill="white" mask="url(#path-1-outside-1_4_1100)"/>
</g>
<defs>
<filter id="filter0_d_4_1100" x="0" y="0" width="139.138" height="58.4961" filterUnits="userSpaceOnUse" color-interpolation-filters="sRGB">
<feFlood flood-opacity="0" result="BackgroundImageFix"/>
<feColorMatrix in="SourceAlpha" type="matrix" values="0 0 0 0 0 0 0 0 0 0 0 0 0 0 0 0 0 0 127 0" result="hardAlpha"/>
<feOffset dy="8"/>
<feComposite in2="hardAlpha" operator="out"/>
<feColorMatrix type="matrix" values="0 0 0 0 0.849022 0 0 0 0 0.687631 0 0 0 0 1 0 0 0 1 0"/>
<feBlend mode="normal" in2="BackgroundImageFix" result="effect1_dropShadow_4_1100"/>
<feBlend mode="normal" in="SourceGraphic" in2="effect1_dropShadow_4_1100" result="shape"/>
</filter>
<linearGradient id="paint0_linear_4_1100" x1="9.73205" y1="21.4002" x2="129.314" y2="21.6135" gradientUnits="userSpaceOnUse">
<stop stop-color="#78CEEF"/>
<stop offset="0.514423" stop-color="#D5C3FF"/>
<stop offset="1" stop-color="#FFA5A5"/>
</linearGradient>
</defs>
</svg>
