<svg width="214" height="63" viewBox="0 0 214 63" fill="none" xmlns="http://www.w3.org/2000/svg">
<g filter="url(#filter0_d_114_3242)">
<mask id="path-1-outside-1_114_3242" maskUnits="userSpaceOnUse" x="0.434692" y="0.200195" width="214" height="55" fill="black">
<rect fill="white" x="0.434692" y="0.200195" width="214" height="55"/>
<path d="M108.66 16.1201C109.972 14.9041 111.636 15.1604 112.82 16.5684C113.94 17.9443 113.941 19.48 112.757 20.792L112.404 21.208C112.372 21.592 113.108 22.008 113.109 24.5039C113.109 27.4479 112.052 30.4563 109.236 31.8643C107.796 31.2883 106.101 30.8718 104.021 30.8398C103.221 30.8399 103.157 31.7363 103.957 31.7363C110.549 32.0565 113.493 35.7043 112.789 39.0322C112.181 41.8481 108.853 44.4403 102.837 44.4404C96.4692 44.4404 93.6529 41.6242 93.1407 38.4883C92.7247 35.7683 94.0049 32.76 96.3409 31C94.0689 29.624 93.1091 26.648 93.7491 23.832C94.4852 20.4721 97.5889 17.3037 103.637 17.3037C104.693 17.3037 105.653 17.4323 106.997 17.6562L108.66 16.1201ZM104.565 35.6719C104.564 34.936 103.509 34.9365 103.477 35.4805C103.381 37.0163 103.157 38.3282 102.389 39.832C102.165 40.344 103.06 40.7596 103.444 40.1836C104.308 38.9676 104.501 37.2078 104.565 35.6719ZM46.3829 17.6562C52.7508 17.6562 55.791 23.0638 55.7911 28.3438C55.7271 33.6877 51.9831 38.4237 46.2872 38.4238C40.3352 38.4238 35.9513 34.1038 35.9513 28.3438C35.9834 22.1039 40.0791 17.6563 46.3829 17.6562ZM125.258 17.6562C131.626 17.6562 134.666 23.0638 134.666 28.3438C134.602 33.6877 130.858 38.4237 125.162 38.4238C119.21 38.4238 114.826 34.1038 114.826 28.3438C114.858 22.1039 118.954 17.6563 125.258 17.6562ZM62.3273 10.5205C64.9831 10.5206 66.4548 12.4084 66.6788 14.7764C66.7748 15.6726 66.9027 17.9764 66.9347 19.0322C65.5908 19.8323 64.3109 21.3684 63.799 22.3604C63.5752 22.7762 63.7352 23.0956 64.087 23.2236C64.439 23.2876 64.5669 23.1598 64.7589 22.8398C66.2949 20.024 68.9509 18.6163 72.1827 18.6162C76.2147 18.6162 80.3429 21.048 80.3429 27.5439C80.3429 35.7359 74.7111 38.1045 69.2072 38.1045C60.8553 38.1045 57.5591 34.0082 57.463 26.2324C57.399 22.5845 57.5593 18.2003 57.9113 14.7764C58.1353 12.4084 59.6073 10.5205 62.3273 10.5205ZM143.122 14.4238C145.586 14.4239 146.898 15.0964 147.218 18.3604V18.4561C148.562 18.3921 149.906 18.4877 150.674 18.9355C151.73 19.5435 152.21 20.7601 152.21 22.4561C152.21 24.9199 150.93 25.8485 148.658 26.1045L147.794 26.2002C147.794 26.9681 147.762 27.6721 147.666 28.248C146.194 28.632 144.978 29.8479 144.626 30.7119C144.434 31.2557 145.106 31.448 145.298 31.0645C146.066 29.5925 147.538 28.6963 149.01 28.8242C150.898 28.9522 152.69 30.3925 152.466 33.6885C152.274 36.5361 149.202 38.1044 145.746 38.1045C139.57 38.1045 139.058 33.9436 138.866 27.6396V27.1602C138.13 27.1602 137.49 26.9357 137.042 26.6797C135.986 26.0717 135.506 24.8881 135.506 23.1924C135.506 20.6644 136.818 19.9924 138.962 19.6084C138.994 19.1925 138.995 18.7763 139.026 18.3604C139.282 15.0964 140.594 14.4238 143.122 14.4238ZM153.639 27.6396C153.671 19.064 159.975 16.4719 167.366 18.1357C170.598 18.8717 171.59 22.072 171.078 24.792C170.694 26.9358 169.319 28.7917 167.463 28.792C164.839 28.792 162.502 27.672 161.03 25.624C160.87 25.4001 160.583 25.4643 160.423 25.6562C160.263 25.7522 160.167 26.1356 160.326 26.3916C161.574 28.1836 163.847 29.4643 166.311 29.5283C169.255 29.5924 170.951 30.9044 170.983 33.8164C171.014 36.7601 169.222 38.0723 166.278 38.0723C158.854 38.1042 153.639 35.9916 153.639 27.6396ZM29.379 10.5205C32.0669 10.5206 33.4111 12.4084 33.6671 14.7764C34.2751 20.8242 34.2751 27.512 33.6671 33.5918C33.4111 35.9917 32.0669 37.8798 29.379 37.8799C26.723 37.8799 25.4104 35.9918 25.1544 33.5918C24.9944 32.152 24.8988 30.7121 24.8029 29.2402C23.171 29.6242 21.3791 29.5919 19.7472 29.208C19.6832 30.6799 19.5546 32.1519 19.3947 33.5918C19.1707 35.9917 17.8269 37.8798 15.171 37.8799C12.451 37.8799 11.1392 35.9918 10.9152 33.5918C10.2752 27.5119 10.2752 20.8242 10.9152 14.7764C11.1392 12.4084 12.451 10.5205 15.171 10.5205C17.8269 10.5206 19.1707 12.4084 19.3947 14.7764C19.5546 16.2163 19.6832 17.6883 19.7472 19.1602C21.3791 18.7762 23.171 18.744 24.8029 19.1279C24.8988 17.6561 24.9944 16.2162 25.1544 14.7764C25.4104 12.4084 26.723 10.5205 29.379 10.5205ZM86.7306 10.2002C89.0664 10.2004 90.922 12.4402 90.922 14.7441C90.9219 16.7435 89.6672 18.4683 87.8126 18.957C89.7202 19.677 90.704 22.1947 90.922 23.4482C91.562 27.2242 91.562 31.4164 90.922 35.1924C90.6658 36.6961 89.3541 37.8798 86.7306 37.8799C84.0108 37.8799 82.6667 36.6962 82.4425 35.1924C81.8345 31.4164 81.8345 27.2242 82.4425 23.4482C82.6337 22.1918 83.6409 19.6654 85.6232 18.9521C83.9164 18.5024 82.5384 17.0025 82.5382 14.6484C82.5382 11.9924 84.5866 10.2002 86.7306 10.2002ZM177.381 10.4883C179.845 10.4883 181.158 11.1599 181.478 14.4238C181.574 15.3518 181.669 17.4637 181.701 18.5518C180.485 19.4797 179.781 20.4397 179.173 21.8477C178.853 22.6477 179.589 22.9998 179.909 22.4238C180.229 21.7519 180.645 21.1116 181.093 20.4717C182.469 18.5837 184.357 17.6562 186.405 17.6562C190.533 17.6563 192.581 21.144 192.613 25.3359C192.645 28.2799 192.453 30.6159 192.133 33.5918C191.909 35.9918 190.565 37.8799 187.909 37.8799C185.189 37.8799 183.909 35.9918 183.653 33.5918C183.461 31.9279 183.365 30.2958 183.301 28.6318C183.237 28.2481 182.949 28.088 182.693 28.0879C182.437 28.0879 182.181 28.2481 182.085 28.5361C181.989 30.232 181.894 31.9279 181.734 33.5918C181.478 35.9918 180.165 37.8799 177.509 37.8799C174.789 37.8797 173.509 35.9917 173.253 33.5918C173.029 31.4799 172.933 29.4 172.869 27.2881V24.7568C172.894 21.3718 173.089 17.42 173.285 14.4238C173.509 11.1601 174.853 10.4883 177.381 10.4883ZM199.043 10.2002C201.379 10.2004 203.234 12.4402 203.234 14.7441C203.234 16.7436 201.98 18.4683 200.125 18.957C202.033 19.677 203.016 22.1947 203.234 23.4482C203.874 27.2242 203.874 31.4164 203.234 35.1924C202.978 36.6961 201.667 37.8798 199.043 37.8799C196.323 37.8799 194.979 36.6962 194.755 35.1924C194.147 31.4164 194.147 27.2242 194.755 23.4482C194.946 22.1918 195.953 19.6654 197.936 18.9521C196.229 18.5024 194.851 17.0025 194.851 14.6484C194.851 11.9924 196.899 10.2002 199.043 10.2002ZM47.1515 25.8799C47.1833 25.1441 46.0949 25.176 46.0626 25.7197C45.9346 27.2876 45.6791 28.5999 44.9113 30.1357C44.6553 30.6157 45.5834 31.0963 46.0314 30.4883C46.8954 29.2083 47.1195 27.4799 47.1515 25.8799ZM126.026 25.8799C126.058 25.1441 124.97 25.176 124.938 25.7197C124.81 27.2876 124.554 28.5999 123.786 30.1357C123.53 30.6157 124.458 31.0963 124.906 30.4883C125.77 29.2083 125.994 27.4799 126.026 25.8799ZM68.9513 26.7764C68.5033 26.4564 67.8312 27.3838 68.3751 27.7998C69.6551 28.7598 71.1909 29.3362 72.7589 29.6562C73.4627 29.7522 73.623 28.6324 73.1115 28.5039C71.5756 28.2159 70.3272 27.7362 68.9513 26.7764ZM104.82 21.752C104.82 20.9842 103.797 21.016 103.765 21.5596C103.669 23.0956 103.381 24.4403 102.645 25.9443C102.389 26.4242 103.317 26.8718 103.733 26.2959C104.629 25.0799 104.756 23.32 104.82 21.752Z"/>
</mask>
<path d="M108.66 16.1201C109.972 14.9041 111.636 15.1604 112.82 16.5684C113.94 17.9443 113.941 19.48 112.757 20.792L112.404 21.208C112.372 21.592 113.108 22.008 113.109 24.5039C113.109 27.4479 112.052 30.4563 109.236 31.8643C107.796 31.2883 106.101 30.8718 104.021 30.8398C103.221 30.8399 103.157 31.7363 103.957 31.7363C110.549 32.0565 113.493 35.7043 112.789 39.0322C112.181 41.8481 108.853 44.4403 102.837 44.4404C96.4692 44.4404 93.6529 41.6242 93.1407 38.4883C92.7247 35.7683 94.0049 32.76 96.3409 31C94.0689 29.624 93.1091 26.648 93.7491 23.832C94.4852 20.4721 97.5889 17.3037 103.637 17.3037C104.693 17.3037 105.653 17.4323 106.997 17.6562L108.66 16.1201ZM104.565 35.6719C104.564 34.936 103.509 34.9365 103.477 35.4805C103.381 37.0163 103.157 38.3282 102.389 39.832C102.165 40.344 103.06 40.7596 103.444 40.1836C104.308 38.9676 104.501 37.2078 104.565 35.6719ZM46.3829 17.6562C52.7508 17.6562 55.791 23.0638 55.7911 28.3438C55.7271 33.6877 51.9831 38.4237 46.2872 38.4238C40.3352 38.4238 35.9513 34.1038 35.9513 28.3438C35.9834 22.1039 40.0791 17.6563 46.3829 17.6562ZM125.258 17.6562C131.626 17.6562 134.666 23.0638 134.666 28.3438C134.602 33.6877 130.858 38.4237 125.162 38.4238C119.21 38.4238 114.826 34.1038 114.826 28.3438C114.858 22.1039 118.954 17.6563 125.258 17.6562ZM62.3273 10.5205C64.9831 10.5206 66.4548 12.4084 66.6788 14.7764C66.7748 15.6726 66.9027 17.9764 66.9347 19.0322C65.5908 19.8323 64.3109 21.3684 63.799 22.3604C63.5752 22.7762 63.7352 23.0956 64.087 23.2236C64.439 23.2876 64.5669 23.1598 64.7589 22.8398C66.2949 20.024 68.9509 18.6163 72.1827 18.6162C76.2147 18.6162 80.3429 21.048 80.3429 27.5439C80.3429 35.7359 74.7111 38.1045 69.2072 38.1045C60.8553 38.1045 57.5591 34.0082 57.463 26.2324C57.399 22.5845 57.5593 18.2003 57.9113 14.7764C58.1353 12.4084 59.6073 10.5205 62.3273 10.5205ZM143.122 14.4238C145.586 14.4239 146.898 15.0964 147.218 18.3604V18.4561C148.562 18.3921 149.906 18.4877 150.674 18.9355C151.73 19.5435 152.21 20.7601 152.21 22.4561C152.21 24.9199 150.93 25.8485 148.658 26.1045L147.794 26.2002C147.794 26.9681 147.762 27.6721 147.666 28.248C146.194 28.632 144.978 29.8479 144.626 30.7119C144.434 31.2557 145.106 31.448 145.298 31.0645C146.066 29.5925 147.538 28.6963 149.01 28.8242C150.898 28.9522 152.69 30.3925 152.466 33.6885C152.274 36.5361 149.202 38.1044 145.746 38.1045C139.57 38.1045 139.058 33.9436 138.866 27.6396V27.1602C138.13 27.1602 137.49 26.9357 137.042 26.6797C135.986 26.0717 135.506 24.8881 135.506 23.1924C135.506 20.6644 136.818 19.9924 138.962 19.6084C138.994 19.1925 138.995 18.7763 139.026 18.3604C139.282 15.0964 140.594 14.4238 143.122 14.4238ZM153.639 27.6396C153.671 19.064 159.975 16.4719 167.366 18.1357C170.598 18.8717 171.59 22.072 171.078 24.792C170.694 26.9358 169.319 28.7917 167.463 28.792C164.839 28.792 162.502 27.672 161.03 25.624C160.87 25.4001 160.583 25.4643 160.423 25.6562C160.263 25.7522 160.167 26.1356 160.326 26.3916C161.574 28.1836 163.847 29.4643 166.311 29.5283C169.255 29.5924 170.951 30.9044 170.983 33.8164C171.014 36.7601 169.222 38.0723 166.278 38.0723C158.854 38.1042 153.639 35.9916 153.639 27.6396ZM29.379 10.5205C32.0669 10.5206 33.4111 12.4084 33.6671 14.7764C34.2751 20.8242 34.2751 27.512 33.6671 33.5918C33.4111 35.9917 32.0669 37.8798 29.379 37.8799C26.723 37.8799 25.4104 35.9918 25.1544 33.5918C24.9944 32.152 24.8988 30.7121 24.8029 29.2402C23.171 29.6242 21.3791 29.5919 19.7472 29.208C19.6832 30.6799 19.5546 32.1519 19.3947 33.5918C19.1707 35.9917 17.8269 37.8798 15.171 37.8799C12.451 37.8799 11.1392 35.9918 10.9152 33.5918C10.2752 27.5119 10.2752 20.8242 10.9152 14.7764C11.1392 12.4084 12.451 10.5205 15.171 10.5205C17.8269 10.5206 19.1707 12.4084 19.3947 14.7764C19.5546 16.2163 19.6832 17.6883 19.7472 19.1602C21.3791 18.7762 23.171 18.744 24.8029 19.1279C24.8988 17.6561 24.9944 16.2162 25.1544 14.7764C25.4104 12.4084 26.723 10.5205 29.379 10.5205ZM86.7306 10.2002C89.0664 10.2004 90.922 12.4402 90.922 14.7441C90.9219 16.7435 89.6672 18.4683 87.8126 18.957C89.7202 19.677 90.704 22.1947 90.922 23.4482C91.562 27.2242 91.562 31.4164 90.922 35.1924C90.6658 36.6961 89.3541 37.8798 86.7306 37.8799C84.0108 37.8799 82.6667 36.6962 82.4425 35.1924C81.8345 31.4164 81.8345 27.2242 82.4425 23.4482C82.6337 22.1918 83.6409 19.6654 85.6232 18.9521C83.9164 18.5024 82.5384 17.0025 82.5382 14.6484C82.5382 11.9924 84.5866 10.2002 86.7306 10.2002ZM177.381 10.4883C179.845 10.4883 181.158 11.1599 181.478 14.4238C181.574 15.3518 181.669 17.4637 181.701 18.5518C180.485 19.4797 179.781 20.4397 179.173 21.8477C178.853 22.6477 179.589 22.9998 179.909 22.4238C180.229 21.7519 180.645 21.1116 181.093 20.4717C182.469 18.5837 184.357 17.6562 186.405 17.6562C190.533 17.6563 192.581 21.144 192.613 25.3359C192.645 28.2799 192.453 30.6159 192.133 33.5918C191.909 35.9918 190.565 37.8799 187.909 37.8799C185.189 37.8799 183.909 35.9918 183.653 33.5918C183.461 31.9279 183.365 30.2958 183.301 28.6318C183.237 28.2481 182.949 28.088 182.693 28.0879C182.437 28.0879 182.181 28.2481 182.085 28.5361C181.989 30.232 181.894 31.9279 181.734 33.5918C181.478 35.9918 180.165 37.8799 177.509 37.8799C174.789 37.8797 173.509 35.9917 173.253 33.5918C173.029 31.4799 172.933 29.4 172.869 27.2881V24.7568C172.894 21.3718 173.089 17.42 173.285 14.4238C173.509 11.1601 174.853 10.4883 177.381 10.4883ZM199.043 10.2002C201.379 10.2004 203.234 12.4402 203.234 14.7441C203.234 16.7436 201.98 18.4683 200.125 18.957C202.033 19.677 203.016 22.1947 203.234 23.4482C203.874 27.2242 203.874 31.4164 203.234 35.1924C202.978 36.6961 201.667 37.8798 199.043 37.8799C196.323 37.8799 194.979 36.6962 194.755 35.1924C194.147 31.4164 194.147 27.2242 194.755 23.4482C194.946 22.1918 195.953 19.6654 197.936 18.9521C196.229 18.5024 194.851 17.0025 194.851 14.6484C194.851 11.9924 196.899 10.2002 199.043 10.2002ZM47.1515 25.8799C47.1833 25.1441 46.0949 25.176 46.0626 25.7197C45.9346 27.2876 45.6791 28.5999 44.9113 30.1357C44.6553 30.6157 45.5834 31.0963 46.0314 30.4883C46.8954 29.2083 47.1195 27.4799 47.1515 25.8799ZM126.026 25.8799C126.058 25.1441 124.97 25.176 124.938 25.7197C124.81 27.2876 124.554 28.5999 123.786 30.1357C123.53 30.6157 124.458 31.0963 124.906 30.4883C125.77 29.2083 125.994 27.4799 126.026 25.8799ZM68.9513 26.7764C68.5033 26.4564 67.8312 27.3838 68.3751 27.7998C69.6551 28.7598 71.1909 29.3362 72.7589 29.6562C73.4627 29.7522 73.623 28.6324 73.1115 28.5039C71.5756 28.2159 70.3272 27.7362 68.9513 26.7764ZM104.82 21.752C104.82 20.9842 103.797 21.016 103.765 21.5596C103.669 23.0956 103.381 24.4403 102.645 25.9443C102.389 26.4242 103.317 26.8718 103.733 26.2959C104.629 25.0799 104.756 23.32 104.82 21.752Z" fill="url(#paint0_linear_114_3242)"/>
<path d="M108.66 16.1201L115.445 23.466C115.45 23.4621 115.454 23.4583 115.458 23.4544L108.66 16.1201ZM112.82 16.5684L120.576 10.2557C120.542 10.2143 120.508 10.1732 120.474 10.1324L112.82 16.5684ZM112.757 20.792L105.333 14.0926C105.263 14.1697 105.195 14.2478 105.128 14.327L112.757 20.792ZM112.404 21.208L104.775 14.743C103.429 16.3322 102.612 18.3022 102.439 20.3781L112.404 21.208ZM113.109 24.5039H123.109V24.5038L113.109 24.5039ZM109.236 31.8643L105.523 41.1491C108.175 42.2099 111.154 42.0859 113.709 40.8085L109.236 31.8643ZM104.021 30.8398L104.174 20.841C104.123 20.8402 104.071 20.8398 104.019 20.8398L104.021 30.8398ZM103.957 31.7363L104.442 21.7481C104.281 21.7403 104.119 21.7363 103.957 21.7363V31.7363ZM112.789 39.0322L122.564 41.1429C122.567 41.1292 122.57 41.1155 122.573 41.1018L112.789 39.0322ZM102.837 44.4404V54.4404H102.837L102.837 44.4404ZM93.1407 38.4883L83.2557 40.0001C83.2608 40.0334 83.2661 40.0667 83.2715 40.1L93.1407 38.4883ZM96.3409 31L102.358 38.9869C105.009 36.9901 106.496 33.8086 106.328 30.4945C106.16 27.1804 104.36 24.1654 101.521 22.4464L96.3409 31ZM93.7491 23.832L103.5 26.0482C103.506 26.0228 103.512 25.9973 103.518 25.9719L93.7491 23.832ZM103.637 17.3037L103.637 7.30371H103.637V17.3037ZM106.997 17.6562L105.353 27.5202C108.401 28.0282 111.513 27.0987 113.782 25.0021L106.997 17.6562ZM104.565 35.6719L114.556 36.0882C114.562 35.9489 114.565 35.8094 114.565 35.67L104.565 35.6719ZM103.477 35.4805L113.457 36.1044C113.458 36.0922 113.459 36.0799 113.459 36.0677L103.477 35.4805ZM102.389 39.832L93.4827 35.2843C93.3922 35.4615 93.307 35.6415 93.2272 35.8238L102.389 39.832ZM103.444 40.1836L95.2924 34.3919C95.235 34.4726 95.1789 34.5542 95.124 34.6366L103.444 40.1836ZM46.3829 17.6562V7.65625H46.3829L46.3829 17.6562ZM55.7911 28.3438L65.7904 28.4635C65.7909 28.4235 65.7911 28.3835 65.7911 28.3436L55.7911 28.3438ZM46.2872 38.4238V48.4238H46.2874L46.2872 38.4238ZM35.9513 28.3438L25.9514 28.2923C25.9513 28.3094 25.9513 28.3266 25.9513 28.3438H35.9513ZM125.258 17.6562V7.65625H125.258L125.258 17.6562ZM134.666 28.3438L144.665 28.4635C144.666 28.4235 144.666 28.3835 144.666 28.3436L134.666 28.3438ZM125.162 38.4238V48.4238H125.162L125.162 38.4238ZM114.826 28.3438L104.826 28.2923C104.826 28.3094 104.826 28.3266 104.826 28.3438H114.826ZM62.3273 10.5205L62.3277 0.520508H62.3273V10.5205ZM66.6788 14.7764L56.7233 15.7181C56.7272 15.7592 56.7313 15.8003 56.7357 15.8414L66.6788 14.7764ZM66.9347 19.0322L72.0501 27.6248C75.1719 25.7663 77.0401 22.3608 76.9301 18.7293L66.9347 19.0322ZM63.799 22.3604L72.605 27.0989C72.6322 27.0484 72.6589 26.9977 72.6852 26.9468L63.799 22.3604ZM64.087 23.2236L60.6683 32.6211C61.1982 32.8139 61.7434 32.9615 62.2982 33.0623L64.087 23.2236ZM64.7589 22.8398L73.3338 27.9848C73.4043 27.8674 73.4723 27.7486 73.5378 27.6285L64.7589 22.8398ZM72.1827 18.6162V8.61621H72.1825L72.1827 18.6162ZM80.3429 27.5439H90.3429V27.5439L80.3429 27.5439ZM69.2072 38.1045V48.1045H69.2072L69.2072 38.1045ZM57.463 26.2324L67.4622 26.1088C67.462 26.0916 67.4618 26.0743 67.4615 26.057L57.463 26.2324ZM57.9113 14.7764L67.8588 15.799C67.8616 15.772 67.8643 15.7451 67.8668 15.7181L57.9113 14.7764ZM143.122 14.4238L143.122 4.42383H143.122V14.4238ZM147.218 18.3604H157.218C157.218 18.0345 157.202 17.7089 157.17 17.3846L147.218 18.3604ZM147.218 18.4561H137.218C137.218 21.1908 138.338 23.8062 140.317 25.6933C142.296 27.5805 144.962 28.5748 147.694 28.4447L147.218 18.4561ZM150.674 18.9355L145.636 27.574C145.652 27.5833 145.668 27.5926 145.684 27.6018L150.674 18.9355ZM152.21 22.4561L162.21 22.4561V22.4561H152.21ZM148.658 26.1045L149.759 36.0437C149.765 36.043 149.772 36.0423 149.778 36.0416L148.658 26.1045ZM147.794 26.2002L146.693 16.2609C141.628 16.8219 137.794 21.1032 137.794 26.2001L147.794 26.2002ZM147.666 28.248L150.19 37.9242C154.007 36.9286 156.882 33.7826 157.53 29.892L147.666 28.248ZM144.626 30.7119L135.365 26.9384C135.305 27.0854 135.249 27.2339 135.196 27.3837L144.626 30.7119ZM145.298 31.0645L136.432 26.4388C136.407 26.4867 136.383 26.5348 136.358 26.5832L145.298 31.0645ZM149.01 28.8242L148.144 38.7866C148.207 38.7921 148.27 38.797 148.333 38.8013L149.01 28.8242ZM152.466 33.6885L142.489 33.0104L142.489 33.0147L152.466 33.6885ZM145.746 38.1045V48.1045H145.746L145.746 38.1045ZM138.866 27.6396H128.866C128.866 27.7411 128.868 27.8426 128.871 27.9441L138.866 27.6396ZM138.866 27.1602H148.866C148.866 21.6373 144.389 17.1602 138.866 17.1602V27.1602ZM137.042 26.6797L132.052 35.3458C132.062 35.3512 132.071 35.3567 132.081 35.3621L137.042 26.6797ZM135.506 23.1924H125.506V23.1928L135.506 23.1924ZM138.962 19.6084L140.725 29.4518C145.209 28.6487 148.583 24.917 148.933 20.3754L138.962 19.6084ZM139.026 18.3604L129.057 17.5784C129.057 17.5835 129.056 17.5886 129.056 17.5938L139.026 18.3604ZM153.639 27.6396L143.639 27.6021C143.639 27.6146 143.639 27.6271 143.639 27.6396H153.639ZM167.366 18.1357L169.587 8.38536C169.579 8.38351 169.57 8.38167 169.562 8.37984L167.366 18.1357ZM171.078 24.792L161.251 22.9421C161.245 22.971 161.24 23 161.235 23.029L171.078 24.792ZM167.463 28.792V38.792H167.465L167.463 28.792ZM161.03 25.624L152.894 31.4381C152.9 31.4455 152.905 31.453 152.91 31.4604L161.03 25.624ZM160.423 25.6562L165.568 34.2312C166.529 33.6545 167.386 32.9204 168.104 32.0596L160.423 25.6562ZM160.326 26.3916L151.841 31.6829C151.93 31.8264 152.024 31.9677 152.12 32.1065L160.326 26.3916ZM166.311 29.5283L166.051 39.5249C166.065 39.5253 166.079 39.5257 166.093 39.526L166.311 29.5283ZM170.983 33.8164L180.982 33.7082L180.982 33.7065L170.983 33.8164ZM166.278 38.0723V28.0723C166.264 28.0723 166.25 28.0723 166.235 28.0724L166.278 38.0723ZM29.379 10.5205L29.3795 0.520508H29.379V10.5205ZM33.6671 14.7764L43.617 13.7762C43.6145 13.7513 43.6119 13.7264 43.6092 13.7015L33.6671 14.7764ZM33.6671 33.5918L43.6107 34.6524C43.613 34.6306 43.6153 34.6087 43.6175 34.5868L33.6671 33.5918ZM29.379 37.8799V47.8799H29.3795L29.379 37.8799ZM25.1544 33.5918L35.098 32.5311C35.0965 32.5166 35.0949 32.5021 35.0933 32.4875L25.1544 33.5918ZM24.8029 29.2402L34.7817 28.5894C34.5903 25.6547 33.1167 22.953 30.7531 21.2031C28.3894 19.4532 25.3752 18.8325 22.5125 19.5061L24.8029 29.2402ZM19.7472 29.208L22.0372 19.4738C19.1376 18.7916 16.0848 19.4376 13.7101 21.236C11.3354 23.0343 9.88602 25.7977 9.75663 28.7736L19.7472 29.208ZM19.3947 33.5918L9.45581 32.4875C9.44934 32.5458 9.44338 32.6041 9.43793 32.6625L19.3947 33.5918ZM15.171 37.8799V47.8799H15.1714L15.171 37.8799ZM10.9152 33.5918L20.8719 32.6625C20.8682 32.6233 20.8643 32.5841 20.8602 32.545L10.9152 33.5918ZM10.9152 14.7764L20.8596 15.8287C20.8635 15.7918 20.8672 15.755 20.8707 15.7181L10.9152 14.7764ZM15.171 10.5205L15.1714 0.520508H15.171V10.5205ZM19.3947 14.7764L9.4391 15.7181C9.44423 15.7723 9.4498 15.8265 9.45581 15.8806L19.3947 14.7764ZM19.7472 19.1602L9.75663 19.5945C9.88602 22.5705 11.3354 25.3339 13.7101 27.1322C16.0848 28.9305 19.1376 29.5766 22.0373 28.8944L19.7472 19.1602ZM24.8029 19.1279L22.5125 28.8621C25.3752 29.5357 28.3894 28.915 30.7531 27.165C33.1167 25.4151 34.5903 22.7134 34.7817 19.7787L24.8029 19.1279ZM25.1544 14.7764L35.0933 15.8806C35.0944 15.8708 35.0954 15.861 35.0965 15.8512L25.1544 14.7764ZM86.7306 10.2002L86.7315 0.200195H86.7306V10.2002ZM90.922 14.7441L100.922 14.7444V14.7441H90.922ZM87.8126 18.957L85.2645 9.28713C81.0578 10.3957 78.0504 14.0966 77.8259 18.4411C77.6015 22.7856 80.2115 26.7768 84.2816 28.3129L87.8126 18.957ZM90.922 23.4482L100.781 21.7772C100.779 21.7631 100.777 21.749 100.774 21.7348L90.922 23.4482ZM90.922 35.1924L100.78 36.8716L100.781 36.8635L90.922 35.1924ZM86.7306 37.8799V47.8799H86.731L86.7306 37.8799ZM82.4425 35.1924L92.3332 33.718C92.3275 33.6795 92.3215 33.6411 92.3153 33.6027L82.4425 35.1924ZM82.4425 23.4482L92.3153 25.0379C92.3199 25.0095 92.3244 24.9811 92.3287 24.9527L82.4425 23.4482ZM85.6232 18.9521L89.0088 28.3616C93.1291 26.8791 95.8055 22.8883 95.6135 18.5137C95.4216 14.139 92.4057 10.3981 88.1714 9.28228L85.6232 18.9521ZM82.5382 14.6484H72.5382V14.6491L82.5382 14.6484ZM177.381 10.4883V0.488281H177.381L177.381 10.4883ZM181.478 14.4238L171.525 15.3996C171.527 15.4174 171.529 15.4351 171.531 15.4528L181.478 14.4238ZM181.701 18.5518L187.768 26.5013C190.329 24.5467 191.792 21.478 191.697 18.2577L181.701 18.5518ZM179.173 21.8477L169.992 17.8832C169.957 17.9662 169.922 18.0498 169.888 18.1338L179.173 21.8477ZM179.909 22.4238L188.651 27.2803C188.752 27.0977 188.848 26.9119 188.938 26.7233L179.909 22.4238ZM181.093 20.4717L173.011 14.5818C172.974 14.6332 172.937 14.685 172.901 14.7371L181.093 20.4717ZM186.405 17.6562L186.406 7.65625H186.405V17.6562ZM192.613 25.3359L182.614 25.4123C182.614 25.4231 182.614 25.4339 182.614 25.4446L192.613 25.3359ZM192.133 33.5918L182.19 32.5227C182.185 32.5693 182.181 32.6159 182.176 32.6625L192.133 33.5918ZM187.909 37.8799V47.8799V47.8799V37.8799ZM183.653 33.5918L193.597 32.5311C193.594 32.5026 193.591 32.4741 193.588 32.4456L183.653 33.5918ZM183.301 28.6318L193.294 28.2475C193.277 27.8245 193.234 27.403 193.164 26.9856L183.301 28.6318ZM182.693 28.0879L182.696 18.0879H182.693V28.0879ZM182.085 28.5361L172.598 25.3739C172.318 26.2138 172.151 27.0871 172.101 27.971L182.085 28.5361ZM181.734 33.5918L191.677 34.6524C191.681 34.6179 191.684 34.5834 191.688 34.5489L181.734 33.5918ZM177.509 37.8799L177.508 47.8799H177.509V37.8799ZM173.253 33.5918L163.309 34.6465L163.309 34.6524L173.253 33.5918ZM172.869 27.2881H162.869C162.869 27.3891 162.871 27.49 162.874 27.591L172.869 27.2881ZM172.869 24.7568L162.87 24.6845C162.869 24.7086 162.869 24.7327 162.869 24.7568H172.869ZM173.285 14.4238L163.309 13.739C163.308 13.7497 163.307 13.7604 163.307 13.771L173.285 14.4238ZM199.043 10.2002L199.044 0.200195H199.043V10.2002ZM203.234 14.7441L213.234 14.7444V14.7441H203.234ZM200.125 18.957L197.577 9.28711C193.37 10.3956 190.363 14.0966 190.138 18.4411C189.914 22.7857 192.524 26.7769 196.594 28.3129L200.125 18.957ZM203.234 23.4482L213.094 21.7772C213.091 21.7631 213.089 21.749 213.087 21.7348L203.234 23.4482ZM203.234 35.1924L213.092 36.8717L213.094 36.8635L203.234 35.1924ZM199.043 37.8799V47.8799H199.043L199.043 37.8799ZM194.755 35.1924L204.646 33.718C204.64 33.6795 204.634 33.6411 204.628 33.6027L194.755 35.1924ZM194.755 23.4482L204.628 25.0379C204.632 25.0095 204.637 24.9811 204.641 24.9527L194.755 23.4482ZM197.936 18.9521L201.321 28.3615C205.442 26.879 208.118 22.8883 207.926 18.5137C207.734 14.1391 204.718 10.3982 200.484 9.2823L197.936 18.9521ZM194.851 14.6484H184.851V14.6491L194.851 14.6484ZM47.1515 25.8799L37.1608 25.4474C37.1575 25.5249 37.155 25.6024 37.1535 25.6799L47.1515 25.8799ZM46.0626 25.7197L56.0295 26.5333C56.0355 26.46 56.0406 26.3866 56.045 26.3132L46.0626 25.7197ZM44.9113 30.1357L53.7348 34.8416C53.7761 34.7642 53.8164 34.6862 53.8556 34.6076L44.9113 30.1357ZM46.0314 30.4883L54.0818 36.4204C54.1635 36.3096 54.2429 36.1971 54.3199 36.083L46.0314 30.4883ZM126.026 25.8799L116.036 25.4474C116.032 25.5249 116.03 25.6024 116.028 25.6799L126.026 25.8799ZM124.938 25.7197L134.904 26.5333C134.91 26.46 134.916 26.3866 134.92 26.3132L124.938 25.7197ZM123.786 30.1357L132.61 34.8416C132.651 34.7642 132.691 34.6862 132.731 34.6076L123.786 30.1357ZM124.906 30.4883L132.957 36.4203C133.039 36.3095 133.118 36.1971 133.195 36.083L124.906 30.4883ZM68.9513 26.7764L63.1389 34.9137C63.1691 34.9352 63.1993 34.9566 63.2297 34.9778L68.9513 26.7764ZM68.3751 27.7998L62.3 35.7429C62.3249 35.762 62.35 35.7809 62.3751 35.7998L68.3751 27.7998ZM72.7589 29.6562L70.7593 39.4543C70.9742 39.4981 71.1905 39.5349 71.4078 39.5646L72.7589 29.6562ZM73.1115 28.5039L75.5469 18.805C75.3507 18.7558 75.1531 18.7125 74.9543 18.6752L73.1115 28.5039ZM104.82 21.752L114.812 22.1598C114.818 22.0237 114.82 21.8874 114.82 21.7512L104.82 21.752ZM103.765 21.5596L113.745 22.1834C113.746 22.1746 113.746 22.1658 113.747 22.1571L103.765 21.5596ZM102.645 25.9443L111.472 30.6436C111.525 30.5432 111.577 30.442 111.627 30.3399L102.645 25.9443ZM103.733 26.2959L95.682 20.3639C95.6632 20.3894 95.6445 20.415 95.6259 20.4407L103.733 26.2959ZM108.66 16.1201L115.458 23.4544C114.195 24.6249 112.083 25.5897 109.588 25.2879C107.28 25.0087 105.834 23.7977 105.167 23.0044L112.82 16.5684L120.474 10.1324C118.623 7.93105 115.753 5.88785 111.989 5.4326C108.038 4.95464 104.438 6.39929 101.863 8.78581L108.66 16.1201ZM112.82 16.5684L105.065 22.881C104.471 22.1519 103.63 20.6758 103.653 18.5948C103.676 16.4692 104.588 14.918 105.333 14.0926L112.757 20.792L120.181 27.4914C122.11 25.3541 123.613 22.3789 123.652 18.8136C123.691 15.2927 122.289 12.3608 120.576 10.2557L112.82 16.5684ZM112.757 20.792L105.128 14.327L104.775 14.743L112.404 21.208L120.034 27.673L120.386 27.257L112.757 20.792ZM112.404 21.208L102.439 20.3781C102.293 22.1353 102.627 23.5545 102.907 24.4226C103.159 25.2045 103.459 25.8073 103.516 25.9247C103.73 26.3621 103.531 25.9629 103.422 25.6811C103.089 24.8243 103.109 24.3 103.109 24.504L113.109 24.5039L123.109 24.5038C123.109 23.3899 123.026 22.3191 122.848 21.2852C122.665 20.2271 122.394 19.289 122.067 18.4469C121.778 17.7011 121.401 16.9699 121.485 17.1433C121.499 17.1703 121.558 17.2909 121.631 17.4589C121.704 17.6277 121.823 17.9176 121.944 18.2924C122.19 19.0545 122.508 20.3767 122.37 22.0379L112.404 21.208ZM113.109 24.5039H103.109C103.109 24.8553 103.035 24.8068 103.197 24.4674C103.289 24.2735 103.459 23.9871 103.747 23.6812C104.044 23.3659 104.397 23.1039 104.764 22.92L109.236 31.8643L113.709 40.8085C121.313 37.0063 123.109 29.3637 123.109 24.5039H113.109ZM109.236 31.8643L112.95 22.5794C110.475 21.5892 107.575 20.8933 104.174 20.841L104.021 30.8398L103.867 40.8387C104.273 40.8449 104.585 40.8871 104.828 40.9376C105.071 40.9882 105.295 41.0581 105.523 41.1491L109.236 31.8643ZM104.021 30.8398L104.019 20.8398C99.8786 20.8403 93.8986 23.7418 93.414 30.5814C93.1878 33.7728 94.4465 36.9015 96.8536 39.0527C99.2008 41.1502 101.928 41.7363 103.957 41.7363V31.7363V21.7363C105.587 21.7363 108.021 22.2104 110.181 24.1399C112.4 26.1229 113.574 29.0276 113.364 31.9949C112.911 38.3862 107.363 40.8395 104.022 40.8398L104.021 30.8398ZM103.957 31.7363L103.472 41.7246C105.102 41.8037 105.003 42.2334 104.302 41.5816C103.94 41.2459 103.476 40.6572 103.176 39.7828C102.871 38.897 102.805 37.9109 103.006 36.9626L112.789 39.0322L122.573 41.1018C123.727 35.6461 121.685 30.4329 117.916 26.9311C114.271 23.5434 109.404 21.9891 104.442 21.7481L103.957 31.7363ZM112.789 39.0322L103.014 36.9215C103.396 35.1561 104.432 34.3764 104.681 34.2265C104.915 34.0853 104.464 34.4404 102.837 34.4404L102.837 44.4404L102.837 54.4404C111.026 54.4403 120.51 50.6534 122.564 41.1429L112.789 39.0322ZM102.837 44.4404V34.4404C101.054 34.4404 100.949 34.0425 101.532 34.4509C101.83 34.6602 102.185 35.002 102.484 35.4855C102.777 35.9601 102.94 36.447 103.01 36.8766L93.1407 38.4883L83.2715 40.1C83.9446 44.222 86.1973 48.1269 90.0542 50.8297C93.7652 53.4302 98.2523 54.4404 102.837 54.4404V44.4404ZM93.1407 38.4883L103.026 36.9764C103.13 37.6561 102.994 38.1034 102.906 38.3099C102.815 38.5243 102.657 38.7621 102.358 38.9869L96.3409 31L90.3234 23.0131C85.26 26.8281 82.2447 33.3898 83.2557 40.0001L93.1407 38.4883ZM96.3409 31L101.521 22.4464C102.643 23.1255 103.18 24.0485 103.391 24.6515C103.595 25.2323 103.579 25.7018 103.5 26.0482L93.7491 23.832L83.9978 21.6158C82.6491 27.5502 84.3376 35.4214 91.1606 39.5536L96.3409 31ZM93.7491 23.832L103.518 25.9719C103.458 26.2457 103.35 26.5131 103.194 26.7576C103.035 27.009 102.849 27.1976 102.682 27.3217C102.515 27.4464 102.44 27.4531 102.545 27.4212C102.657 27.3871 102.998 27.3037 103.637 27.3037V17.3037V7.30371C93.5272 7.30371 85.8524 13.1484 83.9808 21.6922L93.7491 23.832ZM103.637 17.3037L103.637 27.3037C103.828 27.3037 104.115 27.3138 105.353 27.5202L106.997 17.6562L108.641 7.79231C107.191 7.55067 105.558 7.30372 103.637 7.30371L103.637 17.3037ZM106.997 17.6562L113.782 25.0021L115.445 23.466L108.66 16.1201L101.875 8.77423L100.212 10.3104L106.997 17.6562ZM104.565 35.6719L114.565 35.67C114.564 32.8869 113.474 30.092 111.302 28.0201C109.307 26.1162 106.929 25.3146 104.92 25.1357C102.959 24.961 100.57 25.3086 98.3385 26.711C95.8706 28.2622 93.716 31.1184 93.4939 34.8932L103.477 35.4805L113.459 36.0677C113.253 39.5705 111.243 42.2227 108.982 43.6438C106.958 44.9161 104.839 45.2076 103.145 45.0568C101.405 44.9018 99.2921 44.204 97.4958 42.49C95.5233 40.6079 94.565 38.0889 94.5646 35.6738L104.565 35.6719ZM103.477 35.4805L93.4962 34.8565C93.4664 35.332 93.4352 35.4438 93.4426 35.4117C93.4475 35.3904 93.4577 35.3536 93.4724 35.3131C93.4869 35.2734 93.4944 35.2614 93.4827 35.2843L102.389 39.832L111.295 44.3798C112.908 41.2205 113.313 38.4176 113.457 36.1044L103.477 35.4805ZM102.389 39.832L93.2272 35.8238C91.8423 38.9894 92.1709 42.4391 93.7304 45.1586C95.123 47.587 97.2063 49.0055 99.0299 49.7225C102.728 51.1763 108.447 50.707 111.765 45.7306L103.444 40.1836L95.124 34.6366C98.0575 30.2362 103.137 29.8471 106.347 31.1092C107.927 31.7302 109.804 32.9848 111.08 35.2094C112.523 37.7249 112.823 40.9307 111.55 43.8402L102.389 39.832ZM103.444 40.1836L111.597 45.9753C114.365 42.0786 114.498 37.4892 114.556 36.0882L104.565 35.6719L94.5732 35.2556C94.5623 35.5178 94.5491 35.706 94.535 35.8459C94.5206 35.9874 94.51 36.0303 94.5165 35.9996C94.5224 35.9714 94.5582 35.8048 94.6594 35.5456C94.7614 35.2843 94.9527 34.87 95.2924 34.3919L103.444 40.1836ZM46.3829 17.6562V27.6562C46.4676 27.6562 46.4629 27.6648 46.3889 27.6479C46.3134 27.6306 46.2016 27.595 46.0721 27.5304C45.7932 27.3911 45.6261 27.2172 45.5648 27.138C45.5189 27.0786 45.583 27.1411 45.6589 27.3878C45.7346 27.6336 45.7911 27.9664 45.7911 28.3439L55.7911 28.3438L65.7911 28.3436C65.7911 23.9398 64.5479 18.9914 61.3851 14.9021C57.9982 10.523 52.7637 7.65625 46.3829 7.65625V17.6562ZM55.7911 28.3438L45.7919 28.224C45.7896 28.4145 45.7543 28.5622 45.7186 28.6573C45.6826 28.7531 45.6583 28.765 45.6966 28.7222C45.7406 28.6729 45.8426 28.5814 46.0057 28.5068C46.0834 28.4713 46.1563 28.4484 46.2161 28.4355C46.276 28.4225 46.303 28.4238 46.287 28.4238L46.2872 38.4238L46.2874 48.4238C58.5808 48.4236 65.6751 38.0894 65.7904 28.4635L55.7911 28.3438ZM46.2872 38.4238V28.4238C46.0162 28.4238 45.8812 28.3764 45.8482 28.3633C45.814 28.3498 45.8366 28.3528 45.8803 28.3955C45.9245 28.4388 45.9536 28.487 45.9661 28.5172C45.9795 28.5496 45.9513 28.5047 45.9513 28.3438H35.9513H25.9513C25.9513 39.8325 35.0205 48.4238 46.2872 48.4238V38.4238ZM35.9513 28.3438L45.9512 28.3952C45.9536 27.9226 46.0315 27.6593 46.0679 27.5626C46.1019 27.4721 46.1062 27.505 46.0297 27.5848C45.9952 27.6207 45.956 27.6536 45.9168 27.68C45.8981 27.6927 45.882 27.7021 45.8696 27.7087C45.8635 27.7119 45.8587 27.7142 45.8553 27.7158C45.8519 27.7174 45.8502 27.7181 45.8502 27.7181C45.8503 27.7181 45.8523 27.7172 45.8565 27.7158C45.8607 27.7143 45.8673 27.7122 45.8763 27.7095C45.8943 27.7043 45.9234 27.6968 45.9647 27.6891C46.0467 27.6737 46.1836 27.6563 46.383 27.6562L46.3829 17.6562L46.3829 7.65625C40.7789 7.65629 35.4823 9.6914 31.6008 13.7354C27.7672 17.7294 25.9788 22.9821 25.9514 28.2923L35.9513 28.3438ZM125.258 17.6562V27.6562C125.343 27.6562 125.338 27.6648 125.264 27.6479C125.188 27.6306 125.077 27.595 124.947 27.5304C124.668 27.3911 124.501 27.2172 124.44 27.138C124.394 27.0786 124.458 27.1411 124.534 27.3878C124.61 27.6336 124.666 27.9664 124.666 28.3439L134.666 28.3438L144.666 28.3436C144.666 23.9398 143.423 18.9914 140.26 14.9021C136.873 10.523 131.639 7.65625 125.258 7.65625V17.6562ZM134.666 28.3438L124.667 28.224C124.665 28.4145 124.629 28.5622 124.594 28.6572C124.558 28.7531 124.533 28.7649 124.572 28.7222C124.616 28.6729 124.718 28.5814 124.881 28.5068C124.958 28.4713 125.031 28.4484 125.091 28.4355C125.151 28.4225 125.178 28.4238 125.162 28.4238L125.162 38.4238L125.162 48.4238C137.456 48.4236 144.55 38.0894 144.665 28.4635L134.666 28.3438ZM125.162 38.4238V28.4238C124.891 28.4238 124.756 28.3764 124.723 28.3633C124.689 28.3498 124.712 28.3528 124.755 28.3955C124.799 28.4388 124.829 28.487 124.841 28.5172C124.855 28.5496 124.826 28.5047 124.826 28.3438H114.826H104.826C104.826 39.8325 113.896 48.4238 125.162 48.4238V38.4238ZM114.826 28.3438L124.826 28.3952C124.829 27.9226 124.906 27.6593 124.943 27.5626C124.977 27.4721 124.981 27.505 124.905 27.5848C124.87 27.6207 124.831 27.6536 124.792 27.68C124.773 27.6927 124.757 27.7021 124.745 27.7086C124.739 27.7119 124.734 27.7142 124.73 27.7158C124.727 27.7174 124.725 27.7181 124.725 27.7181C124.725 27.7181 124.727 27.7172 124.731 27.7158C124.736 27.7143 124.742 27.7122 124.751 27.7095C124.769 27.7043 124.798 27.6968 124.84 27.6891C124.922 27.6737 125.059 27.6563 125.258 27.6562L125.258 17.6562L125.258 7.65625C119.654 7.65628 114.357 9.69139 110.476 13.7354C106.642 17.7294 104.854 22.9821 104.826 28.2923L114.826 28.3438ZM62.3273 10.5205L62.3268 20.5205C61.0902 20.5205 59.4381 19.9912 58.1572 18.6398C57.0321 17.4528 56.7741 16.2549 56.7233 15.7181L66.6788 14.7764L76.6344 13.8346C76.3596 10.9299 75.2537 7.60414 72.6728 4.88122C69.936 1.99389 66.2202 0.52068 62.3277 0.520508L62.3273 10.5205ZM66.6788 14.7764L56.7357 15.8414C56.7922 16.3684 56.9104 18.3819 56.9393 19.3351L66.9347 19.0322L76.9301 18.7293C76.895 17.5708 76.7575 14.9768 76.622 13.7114L66.6788 14.7764ZM66.9347 19.0322L61.8192 10.4397C58.6603 12.3203 56.1639 15.3498 54.9127 17.7739L63.799 22.3604L72.6852 26.9468C72.6045 27.103 72.5398 27.2105 72.5039 27.2679C72.4662 27.3282 72.4415 27.3631 72.4331 27.3749C72.4195 27.3938 72.4305 27.3772 72.4591 27.3457C72.488 27.3139 72.4943 27.3114 72.4622 27.339C72.4376 27.3601 72.3042 27.4735 72.0501 27.6248L66.9347 19.0322ZM63.799 22.3604L54.9929 17.6218C53.9126 19.6295 53.0255 22.8785 54.3757 26.4427C55.7082 29.9598 58.4824 31.8259 60.6683 32.6211L64.087 23.2236L67.5058 13.8262C69.3398 14.4934 71.8581 16.1357 73.0786 19.3572C74.3168 22.6256 73.4616 25.507 72.605 27.0989L63.799 22.3604ZM64.087 23.2236L62.2982 33.0623C63.861 33.3465 66.86 33.5261 69.8716 31.5997C72.1761 30.1256 73.2922 28.0543 73.3338 27.9848L64.7589 22.8398L56.184 17.6949C56.2018 17.6653 56.4247 17.2863 56.7936 16.8221C57.185 16.3297 57.9276 15.4981 59.0944 14.7518C61.906 12.9533 64.6651 13.1648 65.8759 13.3849L64.087 23.2236ZM64.7589 22.8398L73.5378 27.6285C73.5063 27.6862 73.4235 27.8182 73.2674 27.9781C73.1097 28.1396 72.9191 28.2864 72.7121 28.4021C72.2791 28.644 72.0267 28.6162 72.183 28.6162L72.1827 18.6162L72.1825 8.61621C65.7074 8.61638 59.4589 11.6734 55.98 18.0512L64.7589 22.8398ZM72.1827 18.6162V28.6162C72.2926 28.6162 71.7025 28.6489 70.9867 27.9872C70.6243 27.6523 70.4198 27.2995 70.3317 27.0762C70.2539 26.8787 70.3429 26.9775 70.3429 27.544L80.3429 27.5439L90.3429 27.5439C90.3429 22.0654 88.5231 16.9619 84.5629 13.301C80.7751 9.79941 76.1049 8.61621 72.1827 8.61621V18.6162ZM80.3429 27.5439H70.3429C70.3429 28.4476 70.1895 28.699 70.247 28.5704C70.2739 28.5101 70.332 28.4023 70.4317 28.2765C70.5306 28.1516 70.6375 28.0504 70.7327 27.977C70.9188 27.8336 70.9559 27.8732 70.6726 27.9493C70.3806 28.0279 69.8932 28.1045 69.2071 28.1045L69.2072 38.1045L69.2072 48.1045C73.1533 48.1045 78.4373 47.2914 82.9453 43.8153C87.9128 39.985 90.3429 34.1743 90.3429 27.5439H80.3429ZM69.2072 38.1045V28.1045C67.8977 28.1045 67.2689 27.9391 67.0848 27.8764C66.9707 27.8376 67.2199 27.9109 67.5186 28.228C67.8005 28.5273 67.8075 28.7061 67.7248 28.4363C67.6266 28.1163 67.4782 27.3994 67.4622 26.1088L57.463 26.2324L47.4638 26.356C47.5258 31.378 48.6088 37.3213 52.9597 41.9407C57.4477 46.7056 63.5356 48.1045 69.2072 48.1045V38.1045ZM57.463 26.2324L67.4615 26.057C67.4035 22.7532 67.5531 18.7729 67.8588 15.799L57.9113 14.7764L47.9637 13.7538C47.5654 17.6277 47.3945 22.4159 47.4646 26.4078L57.463 26.2324ZM57.9113 14.7764L67.8668 15.7181C67.8158 16.2573 67.5534 17.4792 66.403 18.6797C65.0991 20.0402 63.4626 20.5205 62.3273 20.5205V10.5205V0.520508C58.472 0.520508 54.7395 1.94474 51.9636 4.8412C49.3411 7.57757 48.2307 10.9274 47.9557 13.8346L57.9113 14.7764ZM143.122 14.4238L143.122 24.4238C143.899 24.4238 141.682 24.6498 139.487 22.7787C137.197 20.8271 137.193 18.5915 137.266 19.3361L147.218 18.3604L157.17 17.3846C156.923 14.8653 156.102 10.6614 152.461 7.55756C148.914 4.53415 144.809 4.42385 143.122 4.42383L143.122 14.4238ZM147.218 18.3604H137.218V18.4561H147.218H157.218V18.3604H147.218ZM147.218 18.4561L147.694 28.4447C148.021 28.4291 148.101 28.4483 147.972 28.4328C147.897 28.4238 147.663 28.3926 147.319 28.2968C146.992 28.206 146.375 28.0046 145.636 27.574L150.674 18.9355L155.711 10.2971C153.61 9.07139 151.514 8.71411 150.351 8.57485C149.023 8.41565 147.759 8.41897 146.742 8.46737L147.218 18.4561ZM150.674 18.9355L145.684 27.6018C144.123 26.7031 143.137 25.3798 142.637 24.2042C142.201 23.1791 142.21 22.4701 142.21 22.4561H152.21H162.21C162.21 19.2514 161.27 13.4972 155.664 10.2693L150.674 18.9355ZM152.21 22.4561L142.21 22.456C142.21 21.9521 142.389 19.7622 144.409 17.8484C146.124 16.2241 147.817 16.1359 147.538 16.1674L148.658 26.1045L149.778 36.0416C151.771 35.817 155.241 35.1366 158.163 32.368C161.391 29.31 162.21 25.4239 162.21 22.4561L152.21 22.4561ZM148.658 26.1045L147.558 16.1652L146.693 16.2609L147.794 26.2002L148.895 36.1394L149.759 36.0437L148.658 26.1045ZM147.794 26.2002L137.794 26.2001C137.794 26.4548 137.789 26.6201 137.783 26.7162C137.78 26.7611 137.779 26.7746 137.78 26.7613C137.781 26.7489 137.787 26.6939 137.802 26.604L147.666 28.248L157.53 29.892C157.763 28.4969 157.794 27.1418 157.794 26.2003L147.794 26.2002ZM147.666 28.248L145.142 18.5719C142.63 19.2271 140.624 20.492 139.186 21.7353C137.853 22.8877 136.305 24.6314 135.365 26.9384L144.626 30.7119L153.887 34.4855C153.553 35.3042 153.175 35.8466 152.957 36.129C152.714 36.4437 152.479 36.681 152.266 36.8646C151.893 37.188 151.23 37.6529 150.19 37.9242L147.666 28.248ZM144.626 30.7119L135.196 27.3837C134.456 29.4798 134.234 32.2703 135.471 35.0804C136.675 37.8143 138.847 39.6057 141.06 40.503C145.106 42.1434 151.369 41.2679 154.238 35.5458L145.298 31.0645L136.358 26.5832C139.034 21.2445 144.866 20.4646 148.576 21.9688C150.621 22.7981 152.649 24.4634 153.775 27.0203C154.935 29.6534 154.7 32.216 154.056 34.0401L144.626 30.7119ZM145.298 31.0645L154.164 35.6901C153.389 37.176 151.353 39.0656 148.144 38.7866L149.01 28.8242L149.876 18.8618C143.723 18.3269 138.743 22.0089 136.432 26.4388L145.298 31.0645ZM149.01 28.8242L148.333 38.8013C146.971 38.709 145.19 38.0828 143.844 36.4661C142.477 34.8241 142.471 33.2713 142.489 33.0104L152.466 33.6885L162.443 34.3665C162.685 30.8097 161.894 26.8887 159.216 23.6706C156.558 20.4778 152.937 19.0675 149.686 18.8471L149.01 28.8242ZM152.466 33.6885L142.489 33.0147C142.562 31.9287 142.935 30.8713 143.529 29.9907C144.091 29.1563 144.715 28.6762 145.115 28.4318C145.824 27.9983 146.111 28.1045 145.746 28.1045L145.746 38.1045L145.746 48.1045C148.837 48.1044 152.388 47.4264 155.545 45.4969C158.89 43.4522 162.082 39.7119 162.443 34.3622L152.466 33.6885ZM145.746 38.1045V28.1045C145.262 28.1045 145.825 28.0148 146.785 28.5251C147.278 28.7873 147.759 29.1473 148.176 29.5891C148.584 30.0214 148.84 30.4332 148.987 30.7254C149.238 31.2222 149.165 31.3506 149.065 30.6029C148.968 29.8811 148.909 28.8882 148.862 27.3352L138.866 27.6396L128.871 27.9441C128.951 30.5736 129.027 35.5712 131.137 39.7467C132.412 42.2681 134.438 44.6127 137.4 46.1866C140.2 47.6741 143.142 48.1045 145.746 48.1045V38.1045ZM138.866 27.6396H148.866V27.1602H138.866H128.866V27.6396H138.866ZM138.866 27.1602V17.1602C140.124 17.1602 141.177 17.5248 142.004 17.9973L137.042 26.6797L132.081 35.3621C133.804 36.3466 136.137 37.1602 138.866 37.1602V27.1602ZM137.042 26.6797L142.032 18.0136C143.528 18.875 144.532 20.1592 145.059 21.3807C145.516 22.4382 145.506 23.178 145.506 23.192L135.506 23.1924L125.506 23.1928C125.506 26.491 126.5 32.1488 132.052 35.3458L137.042 26.6797ZM135.506 23.1924H145.506C145.506 23.3889 145.485 24.1079 145.127 25.0792C144.734 26.1464 144.048 27.2008 143.089 28.0568C142.199 28.8515 141.365 29.2143 140.977 29.3576C140.618 29.4899 140.457 29.4998 140.725 29.4518L138.962 19.6084L137.199 9.76504C135.904 9.99696 132.595 10.6153 129.771 13.136C126.367 16.1746 125.506 20.1442 125.506 23.1924H135.506ZM138.962 19.6084L148.933 20.3754C148.965 19.9478 148.98 19.5511 148.987 19.3743C148.996 19.1349 148.998 19.1154 148.997 19.1269L139.026 18.3604L129.056 17.5938C129.023 18.0212 129.009 18.4178 129.002 18.5945C128.993 18.8337 128.991 18.8531 128.991 18.8414L138.962 19.6084ZM139.026 18.3604L148.996 19.1423C149.054 18.3999 149.087 20.7515 146.709 22.7786C145.569 23.7507 144.425 24.1526 143.752 24.3117C143.166 24.4503 142.855 24.4238 143.122 24.4238V14.4238V4.42383C141.474 4.42383 137.31 4.51067 133.735 7.55756C130.005 10.7369 129.255 15.0568 129.057 17.5784L139.026 18.3604ZM153.639 27.6396L163.639 27.6772C163.642 26.742 163.814 26.5512 163.703 26.7725C163.648 26.8825 163.547 27.044 163.388 27.2163C163.229 27.388 163.06 27.5187 162.912 27.6082C162.62 27.7843 162.568 27.7109 162.981 27.6746C163.402 27.6377 164.133 27.6581 165.17 27.8916L167.366 18.1357L169.562 8.37984C164.472 7.23402 158.107 7.14638 152.573 10.4876C146.43 14.1971 143.665 20.6616 143.639 27.6021L153.639 27.6396ZM167.366 18.1357L165.146 27.8861C164.489 27.7365 163.722 27.3994 163.01 26.8109C162.316 26.2372 161.868 25.5855 161.601 25.0269C161.119 24.0167 161.187 23.2807 161.251 22.9421L171.078 24.792L180.906 26.6419C181.481 23.5833 181.309 19.8872 179.651 16.4129C177.851 12.6407 174.413 9.48436 169.587 8.38536L167.366 18.1357ZM171.078 24.792L161.235 23.029C161.299 22.6704 161.495 21.9499 162.212 21.1093C162.983 20.204 164.764 18.7925 167.461 18.792L167.463 28.792L167.465 38.792C172.018 38.7912 175.414 36.4516 177.433 34.0823C179.398 31.7777 180.473 29.0573 180.922 26.555L171.078 24.792ZM167.463 28.792V18.792C167.578 18.792 167.853 18.8191 168.207 18.9925C168.574 19.1715 168.909 19.4521 169.151 19.7877L161.03 25.624L152.91 31.4604C156.424 36.3493 161.91 38.792 167.463 38.792V28.792ZM161.03 25.624L169.167 19.8099C166.87 16.5958 163.15 15.1652 159.655 15.5418C156.618 15.869 154.246 17.4494 152.742 19.2529L160.423 25.6562L168.104 32.0596C166.76 33.6712 164.611 35.1235 161.798 35.4267C158.527 35.7791 155.031 34.4284 152.894 31.4381L161.03 25.624ZM160.423 25.6562L155.278 17.0813C151.555 19.3148 150.634 22.9086 150.4 24.2632C150.077 26.1397 150.137 28.9499 151.841 31.6829L160.326 26.3916L168.812 21.1003C170.356 23.5773 170.385 26.0678 170.109 27.6646C169.958 28.5378 169.658 29.5321 169.105 30.5494C168.608 31.4647 167.555 33.0387 165.568 34.2312L160.423 25.6562ZM160.326 26.3916L152.12 32.1065C155.211 36.5442 160.452 39.3795 166.051 39.5249L166.311 29.5283L166.57 19.5317C166.981 19.5423 167.315 19.6488 167.58 19.7906C167.831 19.9247 168.187 20.1804 168.532 20.6767L160.326 26.3916ZM166.311 29.5283L166.093 39.526C166.32 39.5309 164.793 39.5724 163.135 38.1136C161.225 36.4343 160.989 34.4377 160.983 33.9263L170.983 33.8164L180.982 33.7065C180.944 30.2832 179.844 26.1745 176.343 23.0952C173.092 20.2363 169.245 19.5898 166.528 19.5307L166.311 29.5283ZM170.983 33.8164L160.983 33.9246C160.976 33.2739 161.241 31.168 163.239 29.4556C164.089 28.7268 164.922 28.3776 165.469 28.2186C165.739 28.1402 165.948 28.1048 166.078 28.0884C166.208 28.0721 166.278 28.0723 166.278 28.0723V38.0723V48.0723C169.024 48.0723 172.934 47.487 176.254 44.6409C179.876 41.5365 181.021 37.3027 180.982 33.7082L170.983 33.8164ZM166.278 38.0723L166.235 28.0724C164.812 28.0785 163.852 27.9758 163.24 27.8464C162.637 27.719 162.647 27.6234 162.924 27.8176C163.071 27.9209 163.245 28.0733 163.409 28.2728C163.573 28.4725 163.671 28.6517 163.72 28.7633C163.811 28.97 163.639 28.7194 163.639 27.6396H153.639H143.639C143.639 34.0544 145.792 40.2241 151.426 44.1822C156.283 47.5952 162.076 48.0905 166.322 48.0722L166.278 38.0723ZM29.379 10.5205L29.3786 20.5205C28.1529 20.5205 26.4058 19.9819 25.0639 18.5182C23.9354 17.2873 23.7549 16.1278 23.725 15.8512L33.6671 14.7764L43.6092 13.7015C43.3233 11.057 42.3427 7.76962 39.8062 5.00284C37.0561 2.00316 33.293 0.520674 29.3795 0.520508L29.379 10.5205ZM33.6671 14.7764L23.7173 15.7766C24.2582 21.1575 24.2587 27.1769 23.7167 32.5968L33.6671 33.5918L43.6175 34.5868C44.2914 27.8471 44.292 20.4908 43.617 13.7762L33.6671 14.7764ZM33.6671 33.5918L23.7235 32.5311C23.7492 32.2904 23.9176 31.1349 25.0461 29.8975C25.6352 29.2515 26.3896 28.7012 27.2568 28.335C28.1118 27.974 28.8656 27.8799 29.3786 27.8799L29.379 37.8799L29.3795 47.8799C33.2953 47.8797 37.0693 46.3946 39.8239 43.3741C42.3605 40.5926 43.329 37.2931 43.6107 34.6524L33.6671 33.5918ZM29.379 37.8799V27.8799C29.9154 27.8799 30.6953 27.9795 31.5734 28.3558C32.4634 28.7372 33.2255 29.3058 33.8124 29.9604C34.9282 31.205 35.0781 32.3444 35.098 32.5311L25.1544 33.5918L15.2108 34.6524C15.4868 37.2392 16.4209 40.5227 18.921 43.3113C21.6545 46.3602 25.4334 47.8799 29.379 47.8799V37.8799ZM25.1544 33.5918L35.0933 32.4875C34.9622 31.3079 34.8794 30.0883 34.7817 28.5894L24.8029 29.2402L14.8241 29.891C14.9183 31.3359 15.0267 32.996 15.2156 34.6961L25.1544 33.5918ZM24.8029 29.2402L22.5125 19.5061C22.5408 19.4994 22.4899 19.5137 22.3692 19.5125C22.25 19.5114 22.1306 19.4957 22.0372 19.4738L19.7472 29.208L17.4571 38.9423C20.4669 39.6503 23.8318 39.7418 27.0932 38.9744L24.8029 29.2402ZM19.7472 29.208L9.75663 28.7736C9.70501 29.961 9.59884 31.2002 9.45581 32.4875L19.3947 33.5918L29.3335 34.6961C29.5104 33.1035 29.6614 31.3989 29.7378 29.6424L19.7472 29.208ZM19.3947 33.5918L9.43793 32.6625C9.46437 32.3792 9.63233 31.1991 10.7672 29.9402C12.1158 28.4441 13.8961 27.8799 15.1706 27.8799L15.171 37.8799L15.1714 47.8799C19.1018 47.8797 22.8819 46.3715 25.6224 43.3313C28.1491 40.5284 29.1009 37.2044 29.3514 34.5211L19.3947 33.5918ZM15.171 37.8799V27.8799C15.6597 27.8799 16.4098 27.9682 17.2737 28.3323C18.1535 28.7031 18.9277 29.2669 19.5345 29.9401C20.6969 31.2295 20.8505 32.4331 20.8719 32.6625L10.9152 33.5918L0.958434 34.5211C1.20385 37.1505 2.12537 40.4982 4.67963 43.3316C7.46032 46.4161 11.2733 47.8799 15.171 47.8799V37.8799ZM10.9152 33.5918L20.8602 32.545C20.2933 27.1592 20.2939 21.1751 20.8596 15.8287L10.9152 14.7764L0.97068 13.7241C0.256499 20.4733 0.25707 27.8646 0.970104 34.6386L10.9152 33.5918ZM10.9152 14.7764L20.8707 15.7181C20.8455 15.9843 20.6798 17.1925 19.517 18.4756C18.1325 20.0033 16.3465 20.5205 15.171 20.5205V10.5205V0.520508C11.2756 0.520508 7.47357 1.98167 4.69721 5.04526C2.14249 7.86427 1.20878 11.2004 0.959603 13.8346L10.9152 14.7764ZM15.171 10.5205L15.1706 20.5205C13.8986 20.5205 12.129 19.9589 10.7847 18.4755C9.64982 17.2231 9.46939 16.0384 9.4391 15.7181L19.3947 14.7764L29.3502 13.8346C29.0959 11.1464 28.1316 7.8338 25.6048 5.0455C22.8687 2.02617 19.0993 0.520674 15.1714 0.520508L15.171 10.5205ZM19.3947 14.7764L9.45581 15.8806C9.59884 17.1679 9.70501 18.4073 9.75663 19.5945L19.7472 19.1602L29.7378 18.7258C29.6614 16.9693 29.5104 15.2646 29.3335 13.6721L19.3947 14.7764ZM19.7472 19.1602L22.0373 28.8944C22.1306 28.8724 22.25 28.8568 22.3692 28.8556C22.4898 28.8545 22.5408 28.8688 22.5125 28.8621L24.8029 19.1279L27.0932 9.39376C23.8318 8.62636 20.4669 8.71782 17.4571 9.42591L19.7472 19.1602ZM24.8029 19.1279L34.7817 19.7787C34.8794 18.2799 34.9622 17.0602 35.0933 15.8806L25.1544 14.7764L15.2156 13.6721C15.0267 15.3722 14.9183 17.0323 14.8241 18.4771L24.8029 19.1279ZM25.1544 14.7764L35.0965 15.8512C35.0725 16.0733 34.9111 17.217 33.7949 18.4553C33.2088 19.1057 32.4499 19.6693 31.5653 20.0475C30.6919 20.4209 29.9155 20.5205 29.379 20.5205V10.5205V0.520508C25.436 0.520508 21.6677 2.03738 18.9385 5.06553C16.4381 7.83984 15.4924 11.1115 15.2123 13.7015L25.1544 14.7764ZM86.7306 10.2002L86.7297 20.2002C84.5699 20.2 83.0368 19.1591 82.2374 18.2623C81.4705 17.4019 80.922 16.2066 80.922 14.7441H90.922H100.922C100.922 8.0289 95.639 0.20098 86.7315 0.200195L86.7306 10.2002ZM90.922 14.7441L80.922 14.7439C80.9221 12.5907 82.3626 10.0518 85.2645 9.28713L87.8126 18.957L90.3608 28.6269C96.9718 26.8848 100.922 20.8964 100.922 14.7444L90.922 14.7441ZM87.8126 18.957L84.2816 28.3129C83.2104 27.9086 82.4871 27.3342 82.0707 26.9259C81.6635 26.5265 81.4513 26.1923 81.3656 26.0455C81.2738 25.8883 81.2297 25.7787 81.205 25.7102C81.1857 25.6567 81.1264 25.4867 81.0699 25.1617L90.922 23.4482L100.774 21.7348C100.471 19.9939 99.7781 17.915 98.6363 15.9597C97.5514 14.102 95.3204 11.1021 91.3436 9.60118L87.8126 18.957ZM90.922 23.4482L81.0626 25.1193C81.5151 27.7891 81.5151 30.8516 81.0626 33.5213L90.922 35.1924L100.781 36.8635C101.609 31.9813 101.609 26.6593 100.781 21.7772L90.922 23.4482ZM90.922 35.1924L81.064 33.5131C81.3636 31.7541 82.3745 30.0367 83.9605 28.921C85.4028 27.9064 86.6045 27.8799 86.7302 27.8799L86.7306 37.8799L86.731 47.8799C89.4803 47.8798 92.6495 47.2614 95.4676 45.279C98.4295 43.1955 100.224 40.1344 100.78 36.8716L90.922 35.1924ZM86.7306 37.8799V27.8799C86.7317 27.8799 87.8796 27.8724 89.315 28.859C90.9338 29.9716 92.0428 31.7696 92.3332 33.718L82.4425 35.1924L72.5518 36.6668C73.0664 40.119 74.9595 43.2607 77.9864 45.3411C80.8298 47.2955 84.0097 47.8799 86.7306 47.8799V37.8799ZM82.4425 35.1924L92.3153 33.6027C91.8769 30.8798 91.8769 27.7609 92.3153 25.0379L82.4425 23.4482L72.5697 21.8586C71.7922 26.6875 71.7921 31.9531 72.5697 36.7821L82.4425 35.1924ZM82.4425 23.4482L92.3287 24.9527C92.2653 25.3692 92.1855 25.6048 92.1545 25.6914C92.1157 25.7995 92.0569 25.9389 91.9499 26.1184C91.8422 26.2989 91.0341 27.6329 89.0088 28.3616L85.6232 18.9521L82.2375 9.54271C78.23 10.9847 75.9271 13.9385 74.7724 15.8747C73.5862 17.8639 72.8463 20.0382 72.5563 21.9438L82.4425 23.4482ZM85.6232 18.9521L88.1714 9.28228C89.3352 9.58895 90.5025 10.2932 91.3678 11.4184C92.2633 12.5829 92.5381 13.8065 92.5382 14.6477L82.5382 14.6484L72.5382 14.6491C72.5387 21.5268 76.96 27.0106 83.0749 28.622L85.6232 18.9521ZM82.5382 14.6484H92.5382C92.5382 17.5157 90.109 20.2002 86.7306 20.2002V10.2002V0.200195C79.0642 0.200195 72.5382 6.46917 72.5382 14.6484H82.5382ZM177.381 10.4883V20.4883C178.16 20.4883 175.944 20.7147 173.749 18.8451C171.458 16.8935 171.453 14.6565 171.525 15.3996L181.478 14.4238L191.43 13.448C191.183 10.9273 190.361 6.7225 186.717 3.61911C183.17 0.59773 179.066 0.488281 177.381 0.488281V10.4883ZM181.478 14.4238L171.531 15.4528C171.585 15.9769 171.674 17.7601 171.706 18.8458L181.701 18.5518L191.697 18.2577C191.665 17.1672 191.562 14.7266 191.425 13.3948L181.478 14.4238ZM181.701 18.5518L175.635 10.6022C172.91 12.6812 171.203 15.0797 169.992 17.8832L179.173 21.8477L188.354 25.8121C188.424 25.6494 188.373 25.8043 188.172 26.0684C188.077 26.1937 187.979 26.3029 187.891 26.3894C187.806 26.4728 187.756 26.5101 187.768 26.5013L181.701 18.5518ZM179.173 21.8477L169.888 18.1338C168.65 21.2297 168.269 27.5185 173.968 31.1112C176.585 32.7606 179.786 33.1495 182.709 32.1984C185.619 31.2515 187.564 29.2374 188.651 27.2803L179.909 22.4238L171.168 17.5674C172.095 15.8983 173.828 14.0562 176.52 13.1802C179.224 12.3001 182.201 12.659 184.634 14.1923C189.965 17.5529 189.376 23.2656 188.458 25.5616L179.173 21.8477ZM179.909 22.4238L188.938 26.7233C188.908 26.7869 188.905 26.7809 188.964 26.686C189.024 26.588 189.121 26.441 189.285 26.2063L181.093 20.4717L172.901 14.7371C172.357 15.5139 171.562 16.6936 170.881 18.1244L179.909 22.4238ZM181.093 20.4717L189.174 26.3615C189.026 26.5655 188.687 26.9284 188.109 27.229C187.527 27.5314 186.921 27.6562 186.405 27.6562V17.6562V7.65625C181.03 7.65625 176.191 10.219 173.011 14.5818L181.093 20.4717ZM186.405 17.6562L186.405 27.6562C185.993 27.6562 185.326 27.5594 184.585 27.1832C183.851 26.8106 183.329 26.3078 183.004 25.869C182.433 25.096 182.609 24.7612 182.614 25.4123L192.613 25.3359L202.613 25.2596C202.586 21.7188 201.722 17.5441 199.086 13.9793C196.193 10.0657 191.682 7.65633 186.406 7.65625L186.405 17.6562ZM192.613 25.3359L182.614 25.4446C182.64 27.8171 182.493 29.708 182.19 32.5227L192.133 33.5918L202.076 34.6609C202.413 31.5238 202.651 28.7427 202.613 25.2273L192.613 25.3359ZM192.133 33.5918L182.176 32.6625C182.203 32.3796 182.37 31.1995 183.505 29.9404C184.854 28.444 186.635 27.8799 187.909 27.8799V37.8799V47.8799C191.84 47.8799 195.62 46.3717 198.361 43.3313C200.888 40.5282 201.839 37.204 202.09 34.5211L192.133 33.5918ZM187.909 37.8799V27.8799C188.398 27.8799 189.157 27.9684 190.033 28.3392C190.925 28.7171 191.701 29.2889 192.304 29.9614C193.447 31.2362 193.583 32.3997 193.597 32.5311L183.653 33.5918L173.71 34.6524C173.98 37.1838 174.884 40.4914 177.411 43.3103C180.185 46.4049 183.997 47.8799 187.909 47.8799V37.8799ZM183.653 33.5918L193.588 32.4456C193.436 31.1363 193.353 29.785 193.294 28.2475L183.301 28.6318L173.308 29.0162C173.377 30.8066 173.486 32.7194 173.719 34.738L183.653 33.5918ZM183.301 28.6318L193.164 26.9856C192.194 21.171 187.192 18.0892 182.696 18.0879L182.693 28.0879L182.69 38.0879C180.806 38.0873 178.708 37.5086 176.886 36.0752C174.932 34.5377 173.792 32.4039 173.437 30.2781L183.301 28.6318ZM182.693 28.0879V18.0879C178.322 18.0879 174.114 20.8265 172.598 25.3739L182.085 28.5361L191.572 31.6984C190.248 35.6698 186.553 38.0879 182.693 38.0879V28.0879ZM182.085 28.5361L172.101 27.971C172.003 29.7044 171.917 31.2007 171.779 32.6347L181.734 33.5918L191.688 34.5489C191.87 32.6551 191.975 30.7596 192.069 29.1013L182.085 28.5361ZM181.734 33.5918L171.79 32.5311C171.81 32.3444 171.96 31.205 173.076 29.9604C173.662 29.3058 174.425 28.7372 175.315 28.3558C176.193 27.9795 176.973 27.8799 177.509 27.8799V37.8799V47.8799C181.454 47.8799 185.233 46.3602 187.967 43.3113C190.467 40.5227 191.401 37.2392 191.677 34.6524L181.734 33.5918ZM177.509 37.8799L177.51 27.8799C177.999 27.8799 178.758 27.9685 179.633 28.3392C180.525 28.7171 181.301 29.2888 181.903 29.9611C183.046 31.2356 183.183 32.3991 183.197 32.5311L173.253 33.5918L163.309 34.6524C163.58 37.1844 164.484 40.4918 167.011 43.3104C169.784 46.4045 173.596 47.8796 177.508 47.8799L177.509 37.8799ZM173.253 33.5918L183.197 32.5371C183.013 30.7982 182.926 29.0112 182.865 26.9852L172.869 27.2881L162.874 27.591C162.94 29.7888 163.045 32.1616 163.309 34.6465L173.253 33.5918ZM172.869 27.2881H182.869V24.7568H172.869H162.869V27.2881H172.869ZM172.869 24.7568L182.869 24.8292C182.892 21.7148 183.074 17.9758 183.264 15.0766L173.285 14.4238L163.307 13.771C163.104 16.8641 162.896 21.0288 162.87 24.6845L172.869 24.7568ZM173.285 14.4238L183.262 15.1086C183.309 14.4267 183.347 16.8178 180.932 18.8629C179.791 19.8299 178.652 20.2243 177.994 20.379C177.418 20.5145 177.115 20.4883 177.381 20.4883L177.381 10.4883L177.381 0.488281C175.739 0.488318 171.581 0.573851 168.006 3.60145C164.232 6.79838 163.486 11.1572 163.309 13.739L173.285 14.4238ZM199.043 10.2002L199.042 20.2002C196.883 20.2 195.349 19.1591 194.55 18.2623C193.783 17.4019 193.234 16.2066 193.234 14.7441H203.234H213.234C213.234 8.029 207.952 0.200887 199.044 0.200195L199.043 10.2002ZM203.234 14.7441L193.234 14.7439C193.235 12.5907 194.675 10.0518 197.577 9.28711L200.125 18.957L202.673 28.627C209.284 26.8849 213.234 20.8964 213.234 14.7444L203.234 14.7441ZM200.125 18.957L196.594 28.3129C195.523 27.9086 194.8 27.3343 194.383 26.9259C193.976 26.5265 193.764 26.1923 193.678 26.0454C193.586 25.8883 193.542 25.7786 193.518 25.7101C193.498 25.6566 193.439 25.4867 193.382 25.1617L203.234 23.4482L213.087 21.7348C212.784 19.994 212.091 17.915 210.949 15.9597C209.864 14.1019 207.633 11.102 203.656 9.60114L200.125 18.957ZM203.234 23.4482L193.375 25.1193C193.828 27.7891 193.828 30.8516 193.375 33.5213L203.234 35.1924L213.094 36.8635C213.921 31.9813 213.921 26.6593 213.094 21.7772L203.234 23.4482ZM203.234 35.1924L193.377 33.5131C193.676 31.7542 194.687 30.0367 196.273 28.921C197.715 27.9064 198.917 27.8799 199.043 27.8799L199.043 37.8799L199.043 47.8799C201.793 47.8798 204.962 47.2615 207.78 45.279C210.742 43.1955 212.537 40.1343 213.092 36.8717L203.234 35.1924ZM199.043 37.8799V27.8799C199.044 27.8799 200.192 27.8724 201.628 28.859C203.246 29.9716 204.355 31.7696 204.646 33.718L194.755 35.1924L184.864 36.6668C185.379 40.119 187.272 43.2607 190.299 45.3411C193.142 47.2955 196.322 47.8799 199.043 47.8799V37.8799ZM194.755 35.1924L204.628 33.6027C204.189 30.8798 204.189 27.7609 204.628 25.0379L194.755 23.4482L184.882 21.8586C184.105 26.6875 184.105 31.9531 184.882 36.7821L194.755 35.1924ZM194.755 23.4482L204.641 24.9527C204.578 25.3692 204.498 25.6049 204.467 25.6914C204.428 25.7995 204.369 25.939 204.262 26.1184C204.155 26.2989 203.347 27.6328 201.321 28.3615L197.936 18.9521L194.55 9.54275C190.542 10.9847 188.24 13.9385 187.085 15.8746C185.899 17.8638 185.159 20.0382 184.869 21.9438L194.755 23.4482ZM197.936 18.9521L200.484 9.2823C201.648 9.58898 202.815 10.2932 203.68 11.4184C204.576 12.5829 204.851 13.8065 204.851 14.6477L194.851 14.6484L184.851 14.6491C184.851 21.5269 189.273 27.0105 195.387 28.622L197.936 18.9521ZM194.851 14.6484H204.851C204.851 17.5157 202.422 20.2002 199.043 20.2002V10.2002V0.200195C191.377 0.200195 184.851 6.46917 184.851 14.6484H194.851ZM47.1515 25.8799L57.1421 26.3123C57.2669 23.4306 56.215 20.4015 53.8406 18.1743C51.7009 16.1674 49.185 15.4531 47.2193 15.3373C45.2756 15.2228 42.9804 15.6312 40.8571 16.9913C38.541 18.4748 36.3098 21.2649 36.0802 25.1263L46.0626 25.7197L56.045 26.3132C55.8316 29.9027 53.7485 32.4849 51.6446 33.8325C49.7335 35.0567 47.7145 35.4012 46.0429 35.3027C44.3494 35.2029 42.1017 34.5847 40.1581 32.7617C37.9798 30.7185 37.052 27.9613 37.1608 25.4474L47.1515 25.8799ZM46.0626 25.7197L36.0958 24.9061C36.0567 25.3851 36.0202 25.5354 36.0155 25.5546C36.0137 25.5621 36.0139 25.5605 36.0138 25.5609C36.0132 25.5625 36.0017 25.5942 35.9669 25.6639L44.9113 30.1357L53.8556 34.6076C55.3717 31.5754 55.8354 28.9106 56.0295 26.5333L46.0626 25.7197ZM44.9113 30.1357L36.0877 25.4299C34.2843 28.8114 34.6117 32.5609 36.2012 35.3844C37.5927 37.8563 39.6855 39.2696 41.4398 39.9831C45.0797 41.4636 50.6334 41.1003 54.0818 36.4204L46.0314 30.4883L37.9809 24.5562C40.9814 20.4842 45.847 20.1847 48.9749 21.4569C50.4731 22.0662 52.3538 23.3074 53.6294 25.5733C55.1028 28.1907 55.4103 31.7001 53.7348 34.8416L44.9113 30.1357ZM46.0314 30.4883L54.3199 36.083C56.8949 32.2681 57.1106 28.0222 57.1495 26.0798L47.1515 25.8799L37.1535 25.6799C37.1493 25.8874 37.14 26.0374 37.1301 26.1409C37.12 26.2458 37.1125 26.2697 37.1211 26.2289C37.1295 26.1892 37.1628 26.0432 37.2487 25.8227C37.3356 25.5997 37.4876 25.2717 37.7429 24.8936L46.0314 30.4883ZM126.026 25.8799L136.017 26.3123C136.142 23.4306 135.09 20.4015 132.716 18.1743C130.576 16.1674 128.06 15.4532 126.094 15.3373C124.151 15.2228 121.855 15.6312 119.732 16.9913C117.416 18.4748 115.185 21.2649 114.955 25.1263L124.938 25.7197L134.92 26.3132C134.707 29.9027 132.624 32.4849 130.52 33.8326C128.608 35.0567 126.59 35.4012 124.918 35.3027C123.224 35.2029 120.977 34.5847 119.033 32.7617C116.855 30.7185 115.927 27.9613 116.036 25.4474L126.026 25.8799ZM124.938 25.7197L114.971 24.9061C114.932 25.3851 114.895 25.5354 114.891 25.5546C114.889 25.5621 114.889 25.5605 114.889 25.5609C114.888 25.5625 114.877 25.5942 114.842 25.6639L123.786 30.1357L132.731 34.6076C134.247 31.5754 134.71 28.9106 134.904 26.5333L124.938 25.7197ZM123.786 30.1357L114.963 25.4299C113.159 28.8114 113.487 32.5609 115.076 35.3843C116.468 37.8563 118.56 39.2696 120.315 39.9831C123.955 41.4636 129.508 41.1003 132.957 36.4203L124.906 30.4883L116.856 24.5563C119.856 20.4842 124.722 20.1847 127.85 21.4569C129.348 22.0663 131.229 23.3075 132.504 25.5733C133.978 28.1907 134.285 31.7001 132.61 34.8416L123.786 30.1357ZM124.906 30.4883L133.195 36.083C135.77 32.2681 135.986 28.0222 136.024 26.0798L126.026 25.8799L116.028 25.6799C116.024 25.8874 116.015 26.0374 116.005 26.1409C115.995 26.2458 115.987 26.2697 115.996 26.2289C116.005 26.1892 116.038 26.0432 116.124 25.8227C116.211 25.5997 116.363 25.2717 116.618 24.8936L124.906 30.4883ZM68.9513 26.7764L74.7637 18.639C71.3619 16.2092 67.4911 16.3817 64.7842 17.4977C62.3876 18.4857 60.805 20.1579 59.868 21.6224C58.9105 23.1188 58.0633 25.2784 58.1833 27.8802C58.3178 30.7946 59.6824 33.7408 62.3 35.7429L68.3751 27.7998L74.4503 19.8567C76.7959 21.6508 78.0406 24.325 78.1621 26.9585C78.2691 29.2795 77.516 31.1492 76.7145 32.4018C75.9335 33.6224 74.569 35.0967 72.4073 35.9879C69.9354 37.007 66.3167 37.1836 63.1389 34.9137L68.9513 26.7764ZM68.3751 27.7998L62.3751 35.7998C65.1683 37.8947 68.2073 38.9335 70.7593 39.4543L72.7589 29.6562L74.7586 19.8582C74.4918 19.8038 74.3316 19.748 74.2604 19.7187C74.1919 19.6906 74.2481 19.7045 74.3751 19.7998L68.3751 27.7998ZM72.7589 29.6562L71.4078 39.5646C74.5185 39.9887 77.5548 39.0126 79.7976 37.0345C81.8014 35.2671 82.754 33.1009 83.1456 31.3657C83.5327 29.6504 83.5762 27.4688 82.726 25.218C81.8131 22.8012 79.5735 19.8161 75.5469 18.805L73.1115 28.5039L70.676 38.2028C66.9051 37.2559 64.8374 34.459 64.0163 32.2853C63.2579 30.2776 63.3133 28.394 63.6363 26.9628C63.9638 25.5116 64.7764 23.6154 66.5681 22.035C68.5989 20.2439 71.3513 19.3718 74.11 19.7479L72.7589 29.6562ZM73.1115 28.5039L74.9543 18.6752C74.8236 18.6507 74.7564 18.6328 74.7335 18.6263C74.7135 18.6207 74.7232 18.6225 74.7499 18.6334C74.7771 18.6445 74.7944 18.6538 74.7943 18.6537C74.7924 18.6527 74.7539 18.6314 74.6728 18.5749L68.9513 26.7764L63.2297 34.9778C65.8753 36.8234 68.4729 37.8084 71.2686 38.3326L73.1115 28.5039ZM104.82 21.752L114.82 21.7512C114.82 19.189 113.893 16.4137 111.733 14.2527C109.71 12.228 107.224 11.3597 105.075 11.1937C102.982 11.0321 100.558 11.4814 98.3719 12.9482C95.9856 14.5493 93.9983 17.3584 93.7826 20.9621L103.765 21.5596L113.747 22.1571C113.547 25.489 111.7 28.0903 109.515 29.5565C107.53 30.8885 105.368 31.2759 103.535 31.1343C101.646 30.9884 99.4174 30.2222 97.5868 28.3905C95.62 26.4224 94.8206 23.9311 94.8204 21.7527L104.82 21.752ZM103.765 21.5596L93.7842 20.9358C93.7642 21.2561 93.7363 21.3666 93.7337 21.3771C93.7315 21.3862 93.7291 21.395 93.7232 21.4111C93.7169 21.4282 93.7 21.4721 93.6625 21.5488L102.645 25.9443L111.627 30.3399C113.041 27.4493 113.583 24.7784 113.745 22.1834L103.765 21.5596ZM102.645 25.9443L93.8176 21.2451C92.0342 24.5951 92.3179 28.3663 93.9706 31.2522C95.4001 33.7484 97.5308 35.1299 99.2509 35.8119C102.702 37.1803 108.339 36.9971 111.839 32.1511L103.733 26.2959L95.6259 20.4407C98.7102 16.1705 103.676 16.0515 106.623 17.2201C108.091 17.8023 110.012 19.0179 111.326 21.3132C112.864 23.9982 113.127 27.5335 111.472 30.6436L102.645 25.9443ZM103.733 26.2959L111.783 32.2279C114.785 28.1544 114.77 23.1822 114.812 22.1598L104.82 21.752L94.8288 21.3441C94.8146 21.6905 94.8018 21.915 94.7867 22.0906C94.7717 22.2635 94.7609 22.3063 94.7694 22.2622C94.7777 22.2195 94.8199 22.01 94.941 21.696C95.0646 21.3756 95.2892 20.897 95.682 20.3639L103.733 26.2959Z" fill="white" mask="url(#path-1-outside-1_114_3242)"/>
</g>
<defs>
<filter id="filter0_d_114_3242" x="0.435181" y="0.200195" width="213.279" height="62.2402" filterUnits="userSpaceOnUse" color-interpolation-filters="sRGB">
<feFlood flood-opacity="0" result="BackgroundImageFix"/>
<feColorMatrix in="SourceAlpha" type="matrix" values="0 0 0 0 0 0 0 0 0 0 0 0 0 0 0 0 0 0 127 0" result="hardAlpha"/>
<feOffset dy="8"/>
<feComposite in2="hardAlpha" operator="out"/>
<feColorMatrix type="matrix" values="0 0 0 0 0.85098 0 0 0 0 0.686275 0 0 0 0 1 0 0 0 1 0"/>
<feBlend mode="normal" in2="BackgroundImageFix" result="effect1_dropShadow_114_3242"/>
<feBlend mode="normal" in="SourceGraphic" in2="effect1_dropShadow_114_3242" result="shape"/>
</filter>
<linearGradient id="paint0_linear_114_3242" x1="10" y1="23" x2="204" y2="23.5" gradientUnits="userSpaceOnUse">
<stop stop-color="#78CEEF"/>
<stop offset="0.514423" stop-color="#D5C3FF"/>
<stop offset="1" stop-color="#FFA5A5"/>
</linearGradient>
</defs>
</svg>
