<svg width="214" height="63" viewBox="0 0 214 63" fill="none" xmlns="http://www.w3.org/2000/svg">
<g filter="url(#filter0_d_4_448)">
<mask id="path-1-outside-1_4_448" maskUnits="userSpaceOnUse" x="0.434631" y="0.200195" width="214" height="55" fill="black">
<rect fill="white" x="0.434631" y="0.200195" width="214" height="55"/>
<path fill-rule="evenodd" clip-rule="evenodd" d="M108.661 16.1201C109.973 14.9041 111.637 15.1604 112.821 16.5684C113.941 17.9443 113.94 19.4801 112.756 20.792L112.405 21.208C112.373 21.592 113.109 22.008 113.109 24.5039C113.109 27.4479 112.053 30.4563 109.237 31.8643C107.797 31.2883 106.101 30.8719 104.021 30.8398C103.221 30.8398 103.157 31.7362 103.957 31.7363C110.549 32.0563 113.493 35.7042 112.789 39.0322C112.18 41.8481 108.852 44.4404 102.836 44.4404C96.4689 44.4404 93.6533 41.6241 93.1412 38.4883C92.7252 35.7684 94.0045 32.76 96.3404 31C94.0686 29.6239 93.1086 26.6479 93.7486 23.832C94.4846 20.4721 97.5886 17.3039 103.636 17.3037C104.692 17.3037 105.653 17.4323 106.997 17.6562L108.661 16.1201ZM104.565 35.6719C104.565 34.936 103.509 34.9365 103.477 35.4805C103.381 37.0162 103.157 38.3282 102.389 39.832C102.165 40.344 103.061 40.7596 103.445 40.1836C104.309 38.9676 104.501 37.2077 104.565 35.6719ZM46.3834 17.6562C52.751 17.6565 55.7905 23.0639 55.7906 28.3438C55.7266 33.6877 51.9827 38.4238 46.2867 38.4238C40.3348 38.4237 35.9507 34.1036 35.9507 28.3438C35.9828 22.1039 40.0794 17.6562 46.3834 17.6562ZM125.258 17.6562C131.626 17.6565 134.665 23.0639 134.666 28.3438C134.602 33.6877 130.858 38.4238 125.162 38.4238C119.21 38.4237 114.826 34.1036 114.826 28.3438C114.858 22.1039 118.954 17.6562 125.258 17.6562ZM62.3267 10.5205C64.9827 10.5205 66.4552 12.4084 66.6792 14.7764C66.7752 15.6726 66.9031 17.9764 66.9351 19.0322C65.5911 19.8322 64.3114 21.3684 63.7994 22.3604C63.5754 22.7763 63.7355 23.0956 64.0875 23.2236C64.4392 23.2875 64.5674 23.1597 64.7593 22.8398C66.2953 20.024 68.9513 18.6162 72.1832 18.6162C76.2151 18.6163 80.3433 21.0481 80.3433 27.5439C80.3433 35.7359 74.7106 38.1045 69.2066 38.1045C60.855 38.1044 57.5595 34.008 57.4634 26.2324C57.3994 22.5846 57.5587 18.2003 57.9107 14.7764C58.1347 12.4085 59.6069 10.5206 62.3267 10.5205ZM143.122 14.4238C145.586 14.4238 146.898 15.0964 147.218 18.3604V18.4561C148.562 18.3921 149.906 18.4876 150.674 18.9355C151.73 19.5436 152.21 20.7601 152.21 22.4561C152.21 24.92 150.93 25.8485 148.658 26.1045L147.794 26.2002C147.794 26.9681 147.762 27.6721 147.666 28.248C146.194 28.6322 144.978 29.848 144.626 30.7119C144.434 31.2558 145.106 31.4482 145.298 31.0645C146.066 29.5925 147.538 28.6962 149.01 28.8242C150.898 28.9524 152.69 30.3927 152.466 33.6885C152.274 36.5362 149.201 38.1045 145.746 38.1045C139.57 38.1043 139.058 33.9435 138.866 27.6396V27.1602C138.13 27.1601 137.49 26.9357 137.042 26.6797C135.986 26.0717 135.506 24.8879 135.506 23.1924C135.506 20.6644 136.818 19.9924 138.962 19.6084C138.994 19.1925 138.994 18.7762 139.026 18.3604C139.282 15.0965 140.594 14.4239 143.122 14.4238ZM153.638 27.6396C153.67 19.0639 159.975 16.4718 167.367 18.1357C170.599 18.8718 171.591 22.072 171.079 24.792C170.695 26.936 169.318 28.792 167.462 28.792C164.839 28.792 162.503 27.6719 161.031 25.624C160.871 25.4 160.582 25.4643 160.422 25.6562C160.263 25.7524 160.167 26.1357 160.327 26.3916C161.575 28.1835 163.846 29.4642 166.31 29.5283C169.254 29.5923 170.951 30.9044 170.983 33.8164C171.015 36.76 169.223 38.0722 166.279 38.0723C158.855 38.1043 153.638 35.9916 153.638 27.6396ZM29.3785 10.5205C32.0665 10.5205 33.4106 12.4084 33.6666 14.7764C34.2745 20.8242 34.2745 27.512 33.6666 33.5918C33.4106 35.9918 32.0665 37.8799 29.3785 37.8799C26.7227 37.8797 25.4108 35.9917 25.1548 33.5918C24.9949 32.1519 24.8983 30.7121 24.8023 29.2402C23.1704 29.6241 21.3785 29.592 19.7466 29.208C19.6826 30.6799 19.5551 32.1519 19.3951 33.5918C19.1711 35.9918 17.8265 37.8799 15.1705 37.8799C12.4507 37.8797 11.1386 35.9917 10.9146 33.5918C10.2746 27.512 10.2746 20.8242 10.9146 14.7764C11.1386 12.4085 12.4507 10.5206 15.1705 10.5205C17.8265 10.5205 19.1711 12.4084 19.3951 14.7764C19.555 16.2162 19.6826 17.6883 19.7466 19.1602C21.3785 18.7762 23.1704 18.744 24.8023 19.1279C24.8983 17.6561 24.9949 16.2162 25.1548 14.7764C25.4108 12.4085 26.7227 10.5206 29.3785 10.5205ZM86.73 10.2002C89.066 10.2002 90.9224 12.4401 90.9224 14.7441C90.9224 16.7438 89.6671 18.4696 87.8121 18.958C89.7198 19.6779 90.7044 22.1947 90.9224 23.4482C91.5624 27.2242 91.5624 31.4165 90.9224 35.1924C90.6663 36.6962 89.3538 37.8799 86.73 37.8799C84.0104 37.8798 82.6661 36.6962 82.4419 35.1924C81.834 31.4165 81.834 27.2242 82.4419 23.4482C82.6331 22.1918 83.641 19.6652 85.6236 18.9521C83.9166 18.5025 82.5388 17.0027 82.5386 14.6484C82.5386 11.9925 84.5861 10.2003 86.73 10.2002ZM177.381 10.4883C179.845 10.4883 181.157 11.16 181.477 14.4238C181.573 15.3518 181.67 17.4637 181.702 18.5518C180.486 19.4797 179.781 20.4398 179.173 21.8477C178.853 22.6477 179.59 22.9998 179.91 22.4238C180.23 21.7519 180.645 21.1116 181.093 20.4717C182.469 18.584 184.357 17.6564 186.405 17.6562C190.533 17.6562 192.581 21.144 192.613 25.3359C192.645 28.2799 192.453 30.6159 192.133 33.5918C191.909 35.9917 190.565 37.8797 187.91 37.8799C185.19 37.8799 183.909 35.9918 183.653 33.5918C183.461 31.9279 183.365 30.2958 183.301 28.6318C183.237 28.2479 182.949 28.0879 182.693 28.0879C182.437 28.088 182.181 28.2483 182.085 28.5361C181.99 30.232 181.893 31.9279 181.733 33.5918C181.477 35.9918 180.165 37.8799 177.509 37.8799C174.789 37.8799 173.509 35.9918 173.253 33.5918C173.029 31.4799 172.934 29.4 172.87 27.2881V26.168C172.838 22.52 173.062 17.8478 173.286 14.4238C173.51 11.16 174.853 10.4883 177.381 10.4883ZM199.043 10.2002C201.379 10.2002 203.235 12.4401 203.235 14.7441C203.235 16.7438 201.98 18.4696 200.125 18.958C202.032 19.6779 203.017 22.1947 203.235 23.4482C203.875 27.2242 203.875 31.4165 203.235 35.1924C202.979 36.6962 201.666 37.8799 199.043 37.8799C196.323 37.8798 194.979 36.6962 194.754 35.1924C194.146 31.4165 194.146 27.2242 194.754 23.4482C194.946 22.1918 195.954 19.6652 197.936 18.9521C196.229 18.5025 194.851 17.0027 194.851 14.6484C194.851 11.9925 196.899 10.2003 199.043 10.2002ZM47.1509 25.8799C47.1828 25.1441 46.0954 25.176 46.063 25.7197C45.935 27.2877 45.6787 28.5998 44.9107 30.1357C44.6547 30.6157 45.5827 31.0959 46.0308 30.4883C46.8948 29.2083 47.1189 27.4799 47.1509 25.8799ZM126.026 25.8799C126.058 25.1441 124.97 25.176 124.938 25.7197C124.81 27.2877 124.554 28.5998 123.786 30.1357C123.53 30.6157 124.458 31.0959 124.906 30.4883C125.77 29.2083 125.994 27.4799 126.026 25.8799ZM68.9507 26.7764C68.5028 26.4565 67.8313 27.3837 68.3746 27.7998C69.6546 28.7598 71.1913 29.3363 72.7593 29.6562C73.463 29.7518 73.6228 28.6319 73.1109 28.5039C71.5749 28.2159 70.3267 27.7363 68.9507 26.7764ZM104.821 21.752C104.821 20.9842 103.798 21.016 103.765 21.5596C103.669 23.0956 103.381 24.4403 102.645 25.9443C102.389 26.4243 103.317 26.8719 103.733 26.2959C104.629 25.0799 104.757 23.3199 104.821 21.752Z"/>
</mask>
<path fill-rule="evenodd" clip-rule="evenodd" d="M108.661 16.1201C109.973 14.9041 111.637 15.1604 112.821 16.5684C113.941 17.9443 113.94 19.4801 112.756 20.792L112.405 21.208C112.373 21.592 113.109 22.008 113.109 24.5039C113.109 27.4479 112.053 30.4563 109.237 31.8643C107.797 31.2883 106.101 30.8719 104.021 30.8398C103.221 30.8398 103.157 31.7362 103.957 31.7363C110.549 32.0563 113.493 35.7042 112.789 39.0322C112.18 41.8481 108.852 44.4404 102.836 44.4404C96.4689 44.4404 93.6533 41.6241 93.1412 38.4883C92.7252 35.7684 94.0045 32.76 96.3404 31C94.0686 29.6239 93.1086 26.6479 93.7486 23.832C94.4846 20.4721 97.5886 17.3039 103.636 17.3037C104.692 17.3037 105.653 17.4323 106.997 17.6562L108.661 16.1201ZM104.565 35.6719C104.565 34.936 103.509 34.9365 103.477 35.4805C103.381 37.0162 103.157 38.3282 102.389 39.832C102.165 40.344 103.061 40.7596 103.445 40.1836C104.309 38.9676 104.501 37.2077 104.565 35.6719ZM46.3834 17.6562C52.751 17.6565 55.7905 23.0639 55.7906 28.3438C55.7266 33.6877 51.9827 38.4238 46.2867 38.4238C40.3348 38.4237 35.9507 34.1036 35.9507 28.3438C35.9828 22.1039 40.0794 17.6562 46.3834 17.6562ZM125.258 17.6562C131.626 17.6565 134.665 23.0639 134.666 28.3438C134.602 33.6877 130.858 38.4238 125.162 38.4238C119.21 38.4237 114.826 34.1036 114.826 28.3438C114.858 22.1039 118.954 17.6562 125.258 17.6562ZM62.3267 10.5205C64.9827 10.5205 66.4552 12.4084 66.6792 14.7764C66.7752 15.6726 66.9031 17.9764 66.9351 19.0322C65.5911 19.8322 64.3114 21.3684 63.7994 22.3604C63.5754 22.7763 63.7355 23.0956 64.0875 23.2236C64.4392 23.2875 64.5674 23.1597 64.7593 22.8398C66.2953 20.024 68.9513 18.6162 72.1832 18.6162C76.2151 18.6163 80.3433 21.0481 80.3433 27.5439C80.3433 35.7359 74.7106 38.1045 69.2066 38.1045C60.855 38.1044 57.5595 34.008 57.4634 26.2324C57.3994 22.5846 57.5587 18.2003 57.9107 14.7764C58.1347 12.4085 59.6069 10.5206 62.3267 10.5205ZM143.122 14.4238C145.586 14.4238 146.898 15.0964 147.218 18.3604V18.4561C148.562 18.3921 149.906 18.4876 150.674 18.9355C151.73 19.5436 152.21 20.7601 152.21 22.4561C152.21 24.92 150.93 25.8485 148.658 26.1045L147.794 26.2002C147.794 26.9681 147.762 27.6721 147.666 28.248C146.194 28.6322 144.978 29.848 144.626 30.7119C144.434 31.2558 145.106 31.4482 145.298 31.0645C146.066 29.5925 147.538 28.6962 149.01 28.8242C150.898 28.9524 152.69 30.3927 152.466 33.6885C152.274 36.5362 149.201 38.1045 145.746 38.1045C139.57 38.1043 139.058 33.9435 138.866 27.6396V27.1602C138.13 27.1601 137.49 26.9357 137.042 26.6797C135.986 26.0717 135.506 24.8879 135.506 23.1924C135.506 20.6644 136.818 19.9924 138.962 19.6084C138.994 19.1925 138.994 18.7762 139.026 18.3604C139.282 15.0965 140.594 14.4239 143.122 14.4238ZM153.638 27.6396C153.67 19.0639 159.975 16.4718 167.367 18.1357C170.599 18.8718 171.591 22.072 171.079 24.792C170.695 26.936 169.318 28.792 167.462 28.792C164.839 28.792 162.503 27.6719 161.031 25.624C160.871 25.4 160.582 25.4643 160.422 25.6562C160.263 25.7524 160.167 26.1357 160.327 26.3916C161.575 28.1835 163.846 29.4642 166.31 29.5283C169.254 29.5923 170.951 30.9044 170.983 33.8164C171.015 36.76 169.223 38.0722 166.279 38.0723C158.855 38.1043 153.638 35.9916 153.638 27.6396ZM29.3785 10.5205C32.0665 10.5205 33.4106 12.4084 33.6666 14.7764C34.2745 20.8242 34.2745 27.512 33.6666 33.5918C33.4106 35.9918 32.0665 37.8799 29.3785 37.8799C26.7227 37.8797 25.4108 35.9917 25.1548 33.5918C24.9949 32.1519 24.8983 30.7121 24.8023 29.2402C23.1704 29.6241 21.3785 29.592 19.7466 29.208C19.6826 30.6799 19.5551 32.1519 19.3951 33.5918C19.1711 35.9918 17.8265 37.8799 15.1705 37.8799C12.4507 37.8797 11.1386 35.9917 10.9146 33.5918C10.2746 27.512 10.2746 20.8242 10.9146 14.7764C11.1386 12.4085 12.4507 10.5206 15.1705 10.5205C17.8265 10.5205 19.1711 12.4084 19.3951 14.7764C19.555 16.2162 19.6826 17.6883 19.7466 19.1602C21.3785 18.7762 23.1704 18.744 24.8023 19.1279C24.8983 17.6561 24.9949 16.2162 25.1548 14.7764C25.4108 12.4085 26.7227 10.5206 29.3785 10.5205ZM86.73 10.2002C89.066 10.2002 90.9224 12.4401 90.9224 14.7441C90.9224 16.7438 89.6671 18.4696 87.8121 18.958C89.7198 19.6779 90.7044 22.1947 90.9224 23.4482C91.5624 27.2242 91.5624 31.4165 90.9224 35.1924C90.6663 36.6962 89.3538 37.8799 86.73 37.8799C84.0104 37.8798 82.6661 36.6962 82.4419 35.1924C81.834 31.4165 81.834 27.2242 82.4419 23.4482C82.6331 22.1918 83.641 19.6652 85.6236 18.9521C83.9166 18.5025 82.5388 17.0027 82.5386 14.6484C82.5386 11.9925 84.5861 10.2003 86.73 10.2002ZM177.381 10.4883C179.845 10.4883 181.157 11.16 181.477 14.4238C181.573 15.3518 181.67 17.4637 181.702 18.5518C180.486 19.4797 179.781 20.4398 179.173 21.8477C178.853 22.6477 179.59 22.9998 179.91 22.4238C180.23 21.7519 180.645 21.1116 181.093 20.4717C182.469 18.584 184.357 17.6564 186.405 17.6562C190.533 17.6562 192.581 21.144 192.613 25.3359C192.645 28.2799 192.453 30.6159 192.133 33.5918C191.909 35.9917 190.565 37.8797 187.91 37.8799C185.19 37.8799 183.909 35.9918 183.653 33.5918C183.461 31.9279 183.365 30.2958 183.301 28.6318C183.237 28.2479 182.949 28.0879 182.693 28.0879C182.437 28.088 182.181 28.2483 182.085 28.5361C181.99 30.232 181.893 31.9279 181.733 33.5918C181.477 35.9918 180.165 37.8799 177.509 37.8799C174.789 37.8799 173.509 35.9918 173.253 33.5918C173.029 31.4799 172.934 29.4 172.87 27.2881V26.168C172.838 22.52 173.062 17.8478 173.286 14.4238C173.51 11.16 174.853 10.4883 177.381 10.4883ZM199.043 10.2002C201.379 10.2002 203.235 12.4401 203.235 14.7441C203.235 16.7438 201.98 18.4696 200.125 18.958C202.032 19.6779 203.017 22.1947 203.235 23.4482C203.875 27.2242 203.875 31.4165 203.235 35.1924C202.979 36.6962 201.666 37.8799 199.043 37.8799C196.323 37.8798 194.979 36.6962 194.754 35.1924C194.146 31.4165 194.146 27.2242 194.754 23.4482C194.946 22.1918 195.954 19.6652 197.936 18.9521C196.229 18.5025 194.851 17.0027 194.851 14.6484C194.851 11.9925 196.899 10.2003 199.043 10.2002ZM47.1509 25.8799C47.1828 25.1441 46.0954 25.176 46.063 25.7197C45.935 27.2877 45.6787 28.5998 44.9107 30.1357C44.6547 30.6157 45.5827 31.0959 46.0308 30.4883C46.8948 29.2083 47.1189 27.4799 47.1509 25.8799ZM126.026 25.8799C126.058 25.1441 124.97 25.176 124.938 25.7197C124.81 27.2877 124.554 28.5998 123.786 30.1357C123.53 30.6157 124.458 31.0959 124.906 30.4883C125.77 29.2083 125.994 27.4799 126.026 25.8799ZM68.9507 26.7764C68.5028 26.4565 67.8313 27.3837 68.3746 27.7998C69.6546 28.7598 71.1913 29.3363 72.7593 29.6562C73.463 29.7518 73.6228 28.6319 73.1109 28.5039C71.5749 28.2159 70.3267 27.7363 68.9507 26.7764ZM104.821 21.752C104.821 20.9842 103.798 21.016 103.765 21.5596C103.669 23.0956 103.381 24.4403 102.645 25.9443C102.389 26.4243 103.317 26.8719 103.733 26.2959C104.629 25.0799 104.757 23.3199 104.821 21.752Z" fill="#FFD858"/>
<path d="M108.661 16.1201L115.444 23.468C115.449 23.4635 115.453 23.4589 115.458 23.4544L108.661 16.1201ZM112.821 16.5684L120.577 10.2562C120.543 10.2146 120.509 10.1734 120.474 10.1324L112.821 16.5684ZM112.756 20.792L105.332 14.0923C105.26 14.1729 105.188 14.2546 105.118 14.3374L112.756 20.792ZM112.405 21.208L104.767 14.7534C103.425 16.3407 102.612 18.3065 102.439 20.3776L112.405 21.208ZM113.109 24.5039H123.109V24.5038L113.109 24.5039ZM109.237 31.8643L105.523 41.149C108.175 42.2099 111.154 42.0859 113.709 40.8085L109.237 31.8643ZM104.021 30.8398L104.175 20.841C104.124 20.8402 104.072 20.8398 104.021 20.8398V30.8398ZM103.957 31.7363L104.441 21.7481C104.28 21.7403 104.119 21.7364 103.958 21.7363L103.957 31.7363ZM112.789 39.0322L122.563 41.1432C122.566 41.1294 122.569 41.1156 122.572 41.1018L112.789 39.0322ZM102.836 44.4404L102.836 54.4404H102.836V44.4404ZM93.1412 38.4883L83.2561 40.0001C83.2612 40.0335 83.2665 40.0668 83.2719 40.1001L93.1412 38.4883ZM96.3404 31L102.358 38.9866C105.008 36.9899 106.495 33.8086 106.328 30.4947C106.16 27.1807 104.359 24.1658 101.521 22.4467L96.3404 31ZM93.7486 23.832L103.5 26.0482C103.506 26.0227 103.511 25.9973 103.517 25.9718L93.7486 23.832ZM103.636 17.3037V7.30371H103.636L103.636 17.3037ZM106.997 17.6562L105.353 27.5202C108.399 28.028 111.51 27.0993 113.78 25.0041L106.997 17.6562ZM104.565 35.6719L114.556 36.0882C114.562 35.9489 114.565 35.8094 114.565 35.67L104.565 35.6719ZM103.477 35.4805L113.458 36.1044C113.458 36.0922 113.459 36.0799 113.46 36.0677L103.477 35.4805ZM102.389 39.832L93.4831 35.2844C93.3926 35.4617 93.3074 35.6415 93.2276 35.8238L102.389 39.832ZM103.445 40.1836L95.2924 34.3924C95.2352 34.473 95.1792 34.5544 95.1244 34.6366L103.445 40.1836ZM46.3834 17.6562L46.3837 7.65625H46.3834V17.6562ZM55.7906 28.3438L65.7899 28.4635C65.7903 28.4235 65.7906 28.3835 65.7906 28.3436L55.7906 28.3438ZM46.2867 38.4238L46.2864 48.4238H46.2867V38.4238ZM35.9507 28.3438L25.9509 28.2923C25.9508 28.3094 25.9507 28.3266 25.9507 28.3438H35.9507ZM125.258 17.6562L125.259 7.65625H125.258V17.6562ZM134.666 28.3438L144.665 28.4635C144.665 28.4235 144.666 28.3835 144.666 28.3436L134.666 28.3438ZM125.162 38.4238L125.161 48.4238H125.162V38.4238ZM114.826 28.3438L104.826 28.2923C104.826 28.3094 104.826 28.3266 104.826 28.3438H114.826ZM62.3267 10.5205V0.520508H62.3262L62.3267 10.5205ZM66.6792 14.7764L56.7237 15.7181C56.7276 15.7592 56.7317 15.8003 56.7361 15.8413L66.6792 14.7764ZM66.9351 19.0322L72.05 27.6251C75.1721 25.7667 77.0406 22.3611 76.9305 18.7293L66.9351 19.0322ZM63.7994 22.3604L72.6046 27.1005C72.632 27.0495 72.659 26.9982 72.6856 26.9468L63.7994 22.3604ZM64.0875 23.2236L60.67 32.6216C61.2004 32.8144 61.7462 32.9621 62.3014 33.0628L64.0875 23.2236ZM64.7593 22.8398L73.3343 27.9848C73.4046 27.8675 73.4726 27.7488 73.5381 27.6287L64.7593 22.8398ZM72.1832 18.6162L72.1833 8.61621H72.1832V18.6162ZM80.3433 27.5439H90.3433V27.5439L80.3433 27.5439ZM69.2066 38.1045L69.2064 48.1045H69.2066V38.1045ZM57.4634 26.2324L67.4627 26.1088C67.4625 26.0916 67.4622 26.0743 67.4619 26.057L57.4634 26.2324ZM57.9107 14.7764L67.8583 15.799C67.861 15.772 67.8637 15.7451 67.8662 15.7181L57.9107 14.7764ZM143.122 14.4238V4.42383H143.121L143.122 14.4238ZM147.218 18.3604H157.218C157.218 18.0345 157.202 17.7089 157.171 17.3846L147.218 18.3604ZM147.218 18.4561H137.218C137.218 21.1907 138.338 23.8061 140.317 25.6933C142.297 27.5805 144.962 28.5748 147.694 28.4447L147.218 18.4561ZM150.674 18.9355L145.636 27.5733C145.652 27.5828 145.668 27.5922 145.684 27.6016L150.674 18.9355ZM152.21 22.4561L162.21 22.4561V22.4561H152.21ZM148.658 26.1045L149.76 36.0436C149.766 36.0429 149.771 36.0423 149.777 36.0416L148.658 26.1045ZM147.794 26.2002L146.693 16.2611C141.627 16.8226 137.795 21.1037 137.794 26.2001L147.794 26.2002ZM147.666 28.248L150.191 37.924C154.007 36.928 156.881 33.7823 157.53 29.892L147.666 28.248ZM144.626 30.7119L135.365 26.9389C135.305 27.0861 135.248 27.2347 135.195 27.3845L144.626 30.7119ZM145.298 31.0645L136.433 26.4388C136.407 26.4881 136.381 26.5377 136.357 26.5874L145.298 31.0645ZM149.01 28.8242L148.144 38.7866C148.207 38.7921 148.27 38.797 148.333 38.8013L149.01 28.8242ZM152.466 33.6885L142.489 33.0104L142.489 33.0148L152.466 33.6885ZM145.746 38.1045L145.745 48.1045H145.746V38.1045ZM138.866 27.6396H128.866C128.866 27.7411 128.867 27.8426 128.87 27.9441L138.866 27.6396ZM138.866 27.1602H148.866C148.866 21.6375 144.389 17.1605 138.866 17.1602L138.866 27.1602ZM137.042 26.6797L132.05 35.3449C132.06 35.3507 132.07 35.3564 132.08 35.3621L137.042 26.6797ZM135.506 23.1924H125.506V23.1928L135.506 23.1924ZM138.962 19.6084L140.725 29.4518C145.209 28.6487 148.584 24.917 148.933 20.3754L138.962 19.6084ZM139.026 18.3604L129.057 17.5784C129.056 17.5836 129.056 17.5887 129.055 17.5938L139.026 18.3604ZM153.638 27.6396L143.638 27.6021C143.638 27.6146 143.638 27.6271 143.638 27.6396H153.638ZM167.367 18.1357L169.587 8.38543C169.579 8.38356 169.571 8.38171 169.563 8.37987L167.367 18.1357ZM171.079 24.792L161.251 22.9422C161.246 22.9711 161.24 23 161.235 23.029L171.079 24.792ZM167.462 28.792L167.462 38.792H167.462V28.792ZM161.031 25.624L152.893 31.4364C152.899 31.4445 152.905 31.4525 152.911 31.4606L161.031 25.624ZM160.422 25.6562L165.577 34.2254C166.535 33.6493 167.389 32.9167 168.105 32.0581L160.422 25.6562ZM160.327 26.3916L151.844 31.687C151.933 31.8292 152.025 31.969 152.121 32.1065L160.327 26.3916ZM166.31 29.5283L166.05 39.5249C166.064 39.5253 166.078 39.5256 166.093 39.526L166.31 29.5283ZM170.983 33.8164L180.982 33.7082L180.982 33.7065L170.983 33.8164ZM166.279 38.0723L166.279 28.0723C166.264 28.0723 166.25 28.0723 166.236 28.0724L166.279 38.0723ZM29.3785 10.5205V0.520508H29.3779L29.3785 10.5205ZM33.6666 14.7764L43.6164 13.7762C43.6139 13.7513 43.6113 13.7264 43.6086 13.7015L33.6666 14.7764ZM33.6666 33.5918L43.6101 34.6524C43.6125 34.6306 43.6147 34.6087 43.6169 34.5868L33.6666 33.5918ZM29.3785 37.8799L29.3779 47.8799H29.3785V37.8799ZM25.1548 33.5918L35.0984 32.5311C35.0969 32.5166 35.0953 32.5021 35.0937 32.4875L25.1548 33.5918ZM24.8023 29.2402L34.7811 28.5894C34.5897 25.6548 33.1163 22.9532 30.7527 21.2033C28.3891 19.4533 25.3751 18.8325 22.5124 19.5059L24.8023 29.2402ZM19.7466 29.208L22.037 19.4738C19.1374 18.7916 16.0845 19.4375 13.7097 21.2359C11.3349 23.0342 9.88546 25.7976 9.75607 28.7736L19.7466 29.208ZM19.3951 33.5918L9.45623 32.4875C9.44975 32.5458 9.44379 32.6041 9.43834 32.6625L19.3951 33.5918ZM15.1705 37.8799L15.17 47.8799H15.1705V37.8799ZM10.9146 33.5918L20.8713 32.6625C20.8677 32.6233 20.8638 32.5841 20.8597 32.545L10.9146 33.5918ZM10.9146 14.7764L20.8591 15.8286C20.863 15.7918 20.8667 15.755 20.8702 15.7181L10.9146 14.7764ZM15.1705 10.5205V0.520508H15.17L15.1705 10.5205ZM19.3951 14.7764L9.43951 15.7181C9.44464 15.7723 9.45021 15.8265 9.45623 15.8806L19.3951 14.7764ZM19.7466 19.1602L9.75607 19.5945C9.88546 22.5706 11.3349 25.334 13.7097 27.1323C16.0845 28.9306 19.1374 29.5766 22.037 28.8943L19.7466 19.1602ZM24.8023 19.1279L22.5124 28.8622C25.3751 29.5356 28.3891 28.9148 30.7527 27.1649C33.1163 25.415 34.5897 22.7134 34.7811 19.7787L24.8023 19.1279ZM25.1548 14.7764L35.0937 15.8806C35.0948 15.8708 35.0958 15.861 35.0969 15.8512L25.1548 14.7764ZM86.73 10.2002V0.200195H86.7294L86.73 10.2002ZM90.9224 14.7441L100.922 14.7444V14.7441H90.9224ZM87.8121 18.958L85.2657 9.28763C81.0584 10.3955 78.0502 14.0965 77.8254 18.4414C77.6007 22.7864 80.211 26.778 84.2816 28.3141L87.8121 18.958ZM90.9224 23.4482L100.782 21.7772C100.779 21.7631 100.777 21.749 100.775 21.7348L90.9224 23.4482ZM90.9224 35.1924L100.78 36.8714L100.782 36.8635L90.9224 35.1924ZM86.73 37.8799L86.7298 47.8799H86.73V37.8799ZM82.4419 35.1924L92.3327 33.7182C92.3269 33.6797 92.321 33.6412 92.3148 33.6027L82.4419 35.1924ZM82.4419 23.4482L92.3148 25.0379C92.3194 25.0095 92.3238 24.9811 92.3281 24.9527L82.4419 23.4482ZM85.6236 18.9521L89.0081 28.362C93.1289 26.8799 95.8059 22.8889 95.614 18.5138C95.422 14.1388 92.4057 10.3976 88.1709 9.28203L85.6236 18.9521ZM82.5386 14.6484H72.5386V14.6491L82.5386 14.6484ZM177.381 10.4883L177.381 0.488281H177.381V10.4883ZM181.477 14.4238L171.525 15.3997C171.527 15.4174 171.528 15.4351 171.53 15.4528L181.477 14.4238ZM181.702 18.5518L187.768 26.5013C190.33 24.5467 191.792 21.478 191.697 18.2577L181.702 18.5518ZM179.173 21.8477L169.993 17.8831C169.957 17.9661 169.922 18.0497 169.889 18.1338L179.173 21.8477ZM179.91 22.4238L188.651 27.2803C188.753 27.0977 188.848 26.912 188.938 26.7235L179.91 22.4238ZM181.093 20.4717L173.012 14.5816C172.975 14.633 172.938 14.6849 172.901 14.7371L181.093 20.4717ZM186.405 17.6562V7.65625H186.404L186.405 17.6562ZM192.613 25.3359L182.613 25.4123C182.613 25.4231 182.613 25.4339 182.613 25.4446L192.613 25.3359ZM192.133 33.5918L182.191 32.5227C182.186 32.5693 182.181 32.6159 182.177 32.6625L192.133 33.5918ZM187.91 37.8799V47.8799H187.911L187.91 37.8799ZM183.653 33.5918L193.596 32.5311C193.593 32.5026 193.59 32.4741 193.587 32.4456L183.653 33.5918ZM183.301 28.6318L193.294 28.2475C193.278 27.8248 193.235 27.4036 193.165 26.9864L183.301 28.6318ZM182.693 28.0879V18.0879L182.687 18.0879L182.693 28.0879ZM182.085 28.5361L172.599 25.3739C172.319 26.2138 172.152 27.0871 172.101 27.971L182.085 28.5361ZM181.733 33.5918L191.677 34.6524C191.68 34.618 191.684 34.5834 191.687 34.5489L181.733 33.5918ZM177.509 37.8799V47.8799H177.509L177.509 37.8799ZM173.253 33.5918L163.309 34.6465L163.31 34.6524L173.253 33.5918ZM172.87 27.2881H162.87C162.87 27.3891 162.871 27.49 162.874 27.591L172.87 27.2881ZM172.87 26.168H182.87C182.87 26.1387 182.87 26.1095 182.869 26.0803L172.87 26.168ZM173.286 14.4238L163.309 13.739C163.308 13.7497 163.308 13.7604 163.307 13.771L173.286 14.4238ZM199.043 10.2002V0.200195H199.042L199.043 10.2002ZM203.235 14.7441L213.235 14.7444V14.7441H203.235ZM200.125 18.958L197.578 9.28761C193.371 10.3954 190.363 14.0965 190.138 18.4414C189.913 22.7864 192.524 26.7781 196.594 28.3141L200.125 18.958ZM203.235 23.4482L213.094 21.7772C213.092 21.7631 213.089 21.749 213.087 21.7348L203.235 23.4482ZM203.235 35.1924L213.093 36.8714L213.094 36.8635L203.235 35.1924ZM199.043 37.8799L199.042 47.8799H199.043V37.8799ZM194.754 35.1924L204.645 33.7182C204.639 33.6797 204.633 33.6412 204.627 33.6027L194.754 35.1924ZM194.754 23.4482L204.627 25.0379C204.632 25.0095 204.636 24.9811 204.641 24.9527L194.754 23.4482ZM197.936 18.9521L201.321 28.362C205.441 26.8798 208.118 22.8888 207.926 18.5138C207.735 14.1388 204.718 10.3976 200.483 9.28204L197.936 18.9521ZM194.851 14.6484H184.851V14.6491L194.851 14.6484ZM47.1509 25.8799L37.1603 25.4471C37.1569 25.5247 37.1545 25.6023 37.1529 25.6799L47.1509 25.8799ZM46.063 25.7197L56.0299 26.5333C56.0359 26.4602 56.041 26.387 56.0454 26.3138L46.063 25.7197ZM44.9107 30.1357L53.7342 34.8416C53.7755 34.7642 53.8158 34.6863 53.855 34.6078L44.9107 30.1357ZM46.0308 30.4883L54.079 36.4235C54.1615 36.3117 54.2416 36.1982 54.3193 36.083L46.0308 30.4883ZM126.026 25.8799L116.035 25.4471C116.032 25.5247 116.029 25.6023 116.028 25.6799L126.026 25.8799ZM124.938 25.7197L134.905 26.5333C134.911 26.4602 134.916 26.387 134.92 26.3138L124.938 25.7197ZM123.786 30.1357L132.609 34.8416C132.651 34.7642 132.691 34.6863 132.73 34.6078L123.786 30.1357ZM124.906 30.4883L132.954 36.4234C133.036 36.3116 133.117 36.1981 133.194 36.083L124.906 30.4883ZM68.9507 26.7764L63.1387 34.9139C63.1686 34.9353 63.1987 34.9566 63.2289 34.9776L68.9507 26.7764ZM68.3746 27.7998L62.2939 35.7386C62.3207 35.7592 62.3476 35.7796 62.3746 35.7998L68.3746 27.7998ZM72.7593 29.6562L70.7597 39.4543C70.9763 39.4985 71.1943 39.5355 71.4134 39.5653L72.7593 29.6562ZM73.1109 28.5039L75.5362 18.8025C75.3434 18.7543 75.1492 18.7118 74.9539 18.6752L73.1109 28.5039ZM104.821 21.752L114.813 22.1598C114.818 22.0237 114.821 21.8874 114.821 21.7512L104.821 21.752ZM103.765 21.5596L113.746 22.1834C113.746 22.1748 113.747 22.1662 113.747 22.1576L103.765 21.5596ZM102.645 25.9443L111.47 30.6477C111.524 30.546 111.577 30.4434 111.627 30.3399L102.645 25.9443ZM103.733 26.2959L95.682 20.3644C95.6633 20.3898 95.6447 20.4154 95.6262 20.441L103.733 26.2959ZM108.661 16.1201L115.458 23.4544C114.195 24.6249 112.083 25.5897 109.588 25.2879C107.28 25.0087 105.834 23.7977 105.167 23.0044L112.821 16.5684L120.474 10.1324C118.623 7.93105 115.753 5.88785 111.99 5.4326C108.038 4.95464 104.438 6.39929 101.863 8.78581L108.661 16.1201ZM112.821 16.5684L105.065 22.8805C104.47 22.1501 103.63 20.6729 103.653 18.5917C103.677 16.4668 104.589 14.9166 105.332 14.0923L112.756 20.792L120.18 27.4916C122.108 25.3554 123.612 22.3815 123.652 18.8166C123.691 15.2956 122.291 12.3625 120.577 10.2562L112.821 16.5684ZM112.756 20.792L105.118 14.3374L104.767 14.7534L112.405 21.208L120.043 27.6626L120.394 27.2466L112.756 20.792ZM112.405 21.208L102.439 20.3776C102.293 22.1349 102.628 23.5542 102.907 24.4224C103.159 25.2044 103.459 25.8073 103.517 25.9248C103.731 26.3622 103.531 25.9629 103.422 25.6812C103.09 24.8243 103.109 24.3 103.109 24.504L113.109 24.5039L123.109 24.5038C123.109 23.3899 123.027 22.3191 122.848 21.2852C122.665 20.2271 122.394 19.2889 122.068 18.4468C121.778 17.7011 121.401 16.9698 121.486 17.1433C121.499 17.1703 121.558 17.2909 121.631 17.459C121.704 17.6278 121.824 17.9178 121.945 18.2927C122.19 19.0548 122.509 20.3771 122.37 22.0385L112.405 21.208ZM113.109 24.5039H103.109C103.109 24.8553 103.036 24.8068 103.197 24.4674C103.289 24.2735 103.459 23.9871 103.747 23.6812C104.044 23.366 104.397 23.1039 104.765 22.92L109.237 31.8643L113.709 40.8085C121.314 37.0063 123.109 29.3637 123.109 24.5039H113.109ZM109.237 31.8643L112.951 22.5795C110.475 21.5891 107.576 20.8934 104.175 20.841L104.021 30.8398L103.867 40.8387C104.274 40.8449 104.586 40.8871 104.828 40.9376C105.071 40.9883 105.296 41.0581 105.523 41.149L109.237 31.8643ZM104.021 30.8398V20.8398C99.8813 20.8398 93.9056 23.7376 93.4146 30.5715C93.1854 33.7624 94.4408 36.8943 96.8491 39.0489C99.1971 41.1495 101.926 41.7361 103.955 41.7363L103.957 31.7363L103.958 21.7363C105.588 21.7366 108.024 22.211 110.184 24.1435C112.405 26.1301 113.576 29.0378 113.363 32.0046C112.904 38.3902 107.361 40.8398 104.021 40.8398V30.8398ZM103.957 31.7363L103.472 41.7246C105.102 41.8037 105.003 42.2334 104.301 41.5815C103.94 41.2456 103.476 40.6569 103.175 39.7825C102.871 38.8966 102.805 37.9107 103.005 36.9626L112.789 39.0322L122.572 41.1018C123.726 35.6465 121.685 30.4332 117.916 26.9311C114.271 23.5432 109.404 21.989 104.441 21.7481L103.957 31.7363ZM112.789 39.0322L103.014 36.9213C103.395 35.1562 104.431 34.3765 104.68 34.2266C104.915 34.0854 104.464 34.4404 102.836 34.4404V44.4404V54.4404C111.026 54.4404 120.51 50.6531 122.563 41.1432L112.789 39.0322ZM102.836 44.4404L102.837 34.4404C101.054 34.4404 100.949 34.0425 101.532 34.4513C101.831 34.6607 102.186 35.0026 102.484 35.486C102.778 35.9606 102.94 36.4473 103.01 36.8765L93.1412 38.4883L83.2719 40.1001C83.945 44.2212 86.1968 48.1261 90.0537 50.8293C93.7646 53.4301 98.2516 54.4404 102.836 54.4404L102.836 44.4404ZM93.1412 38.4883L103.026 36.9764C103.13 37.6552 102.995 38.102 102.907 38.3086C102.815 38.5231 102.657 38.7614 102.358 38.9866L96.3404 31L90.3226 23.0134C85.2578 26.8296 82.2455 33.392 83.2561 40.0001L93.1412 38.4883ZM96.3404 31L101.521 22.4467C102.642 23.1258 103.18 24.0486 103.391 24.6513C103.594 25.2319 103.579 25.7014 103.5 26.0482L93.7486 23.832L83.9972 21.6159C82.6485 27.5507 84.3376 35.4212 91.1595 39.5533L96.3404 31ZM93.7486 23.832L103.517 25.9718C103.457 26.2458 103.349 26.5133 103.194 26.7579C103.034 27.0093 102.848 27.1979 102.682 27.3219C102.515 27.4465 102.439 27.4532 102.545 27.4212C102.657 27.3871 102.997 27.3037 103.637 27.3037L103.636 17.3037L103.636 7.30371C93.5273 7.30398 85.8518 13.148 83.9802 21.6923L93.7486 23.832ZM103.636 17.3037V27.3037C103.828 27.3037 104.115 27.3138 105.353 27.5202L106.997 17.6562L108.641 7.79231C107.191 7.55068 105.557 7.30371 103.636 7.30371V17.3037ZM106.997 17.6562L113.78 25.0041L115.444 23.468L108.661 16.1201L101.878 8.77225L100.214 10.3084L106.997 17.6562ZM104.565 35.6719L114.565 35.67C114.564 32.8869 113.474 30.092 111.303 28.0201C109.307 26.1162 106.929 25.3146 104.92 25.1357C102.959 24.961 100.57 25.3086 98.3389 26.711C95.871 28.2622 93.7164 31.1184 93.4944 34.8932L103.477 35.4805L113.46 36.0677C113.254 39.5705 111.243 42.2227 108.982 43.6438C106.958 44.9161 104.839 45.2076 103.146 45.0568C101.405 44.9018 99.2925 44.204 97.4962 42.49C95.5237 40.6079 94.5654 38.0889 94.565 35.6738L104.565 35.6719ZM103.477 35.4805L93.4966 34.8565C93.4669 35.3318 93.4356 35.4437 93.443 35.4116C93.4479 35.3904 93.4581 35.3536 93.4728 35.3132C93.4872 35.2735 93.4948 35.2615 93.4831 35.2844L102.389 39.832L111.295 44.3796C112.908 41.2206 113.313 38.4178 113.458 36.1044L103.477 35.4805ZM102.389 39.832L93.2276 35.8238C91.8427 38.9894 92.1713 42.4391 93.7308 45.1586C95.1234 47.587 97.2067 49.0055 99.0303 49.7225C102.728 51.1763 108.448 50.707 111.765 45.7306L103.445 40.1836L95.1244 34.6366C98.058 30.2362 103.138 29.8471 106.348 31.1092C107.927 31.7302 109.805 32.9848 111.081 35.2094C112.523 37.7249 112.824 40.9307 111.551 43.8402L102.389 39.832ZM103.445 40.1836L111.597 45.9748C114.365 42.0785 114.498 37.4899 114.556 36.0882L104.565 35.6719L94.5737 35.2556C94.5627 35.5176 94.5496 35.7057 94.5354 35.8457C94.5211 35.987 94.5105 36.0301 94.5169 35.9994C94.5228 35.9713 94.5586 35.8048 94.6597 35.5458C94.7616 35.2846 94.9528 34.8705 95.2924 34.3924L103.445 40.1836ZM46.3834 17.6562L46.383 27.6562C46.4677 27.6563 46.4629 27.6648 46.3888 27.6479C46.3133 27.6306 46.2014 27.5949 46.0718 27.5303C45.7928 27.3909 45.6256 27.2169 45.5642 27.1376C45.5183 27.0782 45.5824 27.1407 45.6584 27.3874C45.734 27.6333 45.7906 27.9662 45.7906 28.3439L55.7906 28.3438L65.7906 28.3436C65.7905 23.9403 64.5478 18.9921 61.3853 14.9027C57.9987 10.5234 52.7644 7.65645 46.3837 7.65625L46.3834 17.6562ZM55.7906 28.3438L45.7913 28.224C45.789 28.4146 45.7537 28.5623 45.718 28.6574C45.682 28.7533 45.6577 28.7651 45.696 28.7223C45.7401 28.673 45.8421 28.5815 46.0053 28.5068C46.083 28.4713 46.1559 28.4484 46.2157 28.4355C46.2756 28.4225 46.3026 28.4238 46.2867 28.4238V38.4238V48.4238C58.5805 48.4238 65.6746 38.0892 65.7899 28.4635L55.7906 28.3438ZM46.2867 38.4238L46.2869 28.4238C46.0159 28.4238 45.8809 28.3764 45.8479 28.3633C45.8136 28.3497 45.8361 28.3526 45.8797 28.3954C45.9239 28.4386 45.953 28.4868 45.9655 28.517C45.979 28.5494 45.9507 28.5046 45.9507 28.3438H35.9507H25.9507C25.9507 39.8327 35.0204 48.4235 46.2864 48.4238L46.2867 38.4238ZM35.9507 28.3438L45.9506 28.3952C45.953 27.9228 46.0309 27.6597 46.0672 27.5631C46.1012 27.4727 46.1056 27.5056 46.0291 27.5852C45.9947 27.6211 45.9556 27.6539 45.9165 27.6803C45.8978 27.6929 45.8817 27.7023 45.8694 27.7088C45.8634 27.712 45.8586 27.7144 45.8552 27.7159C45.8519 27.7175 45.8501 27.7182 45.8502 27.7182C45.8503 27.7181 45.8523 27.7173 45.8565 27.7159C45.8608 27.7144 45.8674 27.7122 45.8764 27.7096C45.8945 27.7043 45.9236 27.6968 45.965 27.6891C46.047 27.6737 46.184 27.6562 46.3834 27.6562V17.6562V7.65625C40.7795 7.65625 35.4828 9.69126 31.6011 13.7349C27.7672 17.7286 25.9782 22.9814 25.9509 28.2923L35.9507 28.3438ZM125.258 17.6562L125.258 27.6562C125.343 27.6563 125.338 27.6648 125.264 27.6479C125.188 27.6306 125.076 27.5949 124.947 27.5303C124.668 27.3909 124.501 27.2169 124.439 27.1376C124.393 27.0782 124.457 27.1407 124.533 27.3874C124.609 27.6333 124.666 27.9662 124.666 28.3439L134.666 28.3438L144.666 28.3436C144.665 23.9403 143.423 18.9921 140.26 14.9027C136.874 10.5234 131.639 7.65645 125.259 7.65625L125.258 17.6562ZM134.666 28.3438L124.666 28.224C124.664 28.4146 124.629 28.5623 124.593 28.6574C124.557 28.7533 124.533 28.7651 124.571 28.7223C124.615 28.673 124.717 28.5815 124.88 28.5068C124.958 28.4713 125.031 28.4484 125.091 28.4355C125.151 28.4225 125.178 28.4238 125.162 28.4238V38.4238V48.4238C137.456 48.4238 144.55 38.0892 144.665 28.4635L134.666 28.3438ZM125.162 38.4238L125.162 28.4238C124.891 28.4238 124.756 28.3764 124.723 28.3633C124.689 28.3497 124.711 28.3526 124.755 28.3954C124.799 28.4386 124.828 28.4868 124.841 28.5171C124.854 28.5494 124.826 28.5046 124.826 28.3438H114.826H104.826C104.826 39.8326 113.895 48.4235 125.161 48.4238L125.162 38.4238ZM114.826 28.3438L124.826 28.3952C124.828 27.9228 124.906 27.6597 124.942 27.5631C124.976 27.4727 124.981 27.5056 124.904 27.5852C124.87 27.6211 124.831 27.6539 124.792 27.6803C124.773 27.6929 124.757 27.7023 124.744 27.7088C124.738 27.712 124.734 27.7144 124.73 27.7159C124.727 27.7175 124.725 27.7182 124.725 27.7182C124.725 27.7181 124.727 27.7173 124.732 27.7159C124.736 27.7144 124.742 27.7122 124.751 27.7096C124.769 27.7043 124.799 27.6968 124.84 27.6891C124.922 27.6737 125.059 27.6562 125.258 27.6562V17.6562V7.65625C119.654 7.65625 114.358 9.69126 110.476 13.7349C106.642 17.7286 104.853 22.9814 104.826 28.2923L114.826 28.3438ZM62.3267 10.5205V20.5205C61.0903 20.5205 59.4389 19.9915 58.1582 18.6408C57.0331 17.4542 56.7746 16.2562 56.7237 15.7181L66.6792 14.7764L76.6348 13.8346C76.3599 10.9286 75.2531 7.60264 72.6717 4.88006C69.9348 1.99341 66.2191 0.520508 62.3267 0.520508V10.5205ZM66.6792 14.7764L56.7361 15.8413C56.7926 16.3684 56.9108 18.382 56.9397 19.3351L66.9351 19.0322L76.9305 18.7293C76.8954 17.5708 76.7579 14.9769 76.6224 13.7114L66.6792 14.7764ZM66.9351 19.0322L61.8203 10.4393C58.6604 12.3202 56.1641 15.3501 54.9132 17.7739L63.7994 22.3604L72.6856 26.9468C72.605 27.1029 72.5404 27.2103 72.5045 27.2677C72.4668 27.3279 72.4421 27.3628 72.4336 27.3746C72.4201 27.3935 72.431 27.377 72.4596 27.3456C72.4884 27.3138 72.4946 27.3114 72.4625 27.339C72.4377 27.3603 72.3042 27.4738 72.05 27.6251L66.9351 19.0322ZM63.7994 22.3604L54.9942 17.6202C53.9141 19.6266 53.0249 22.8768 54.3763 26.4433C55.7098 29.9625 58.4861 31.8274 60.67 32.6216L64.0875 23.2236L67.5049 13.8257C69.3368 14.4918 71.8572 16.1331 73.0786 19.3566C74.318 22.6275 73.4607 25.51 72.6046 27.1005L63.7994 22.3604ZM64.0875 23.2236L62.3014 33.0628C63.8663 33.3469 66.8619 33.524 69.8699 31.6009C72.174 30.1277 73.2898 28.0589 73.3343 27.9848L64.7593 22.8398L56.1844 17.6949C56.2031 17.6637 56.4266 17.2841 56.7962 16.8193C57.1884 16.3262 57.931 15.4957 59.0967 14.7504C61.9047 12.9551 64.6603 13.1642 65.8735 13.3844L64.0875 23.2236ZM64.7593 22.8398L73.5381 27.6287C73.5067 27.6863 73.4239 27.8182 73.2678 27.9781C73.1102 28.1395 72.9197 28.2864 72.7126 28.402C72.2796 28.6439 72.027 28.6162 72.1832 28.6162V18.6162V8.61621C65.7074 8.61621 59.4593 11.6738 55.9805 18.051L64.7593 22.8398ZM72.1832 18.6162L72.183 28.6162C72.2929 28.6162 71.7028 28.6489 70.9871 27.9873C70.6248 27.6523 70.4202 27.2996 70.3322 27.0763C70.2543 26.8788 70.3433 26.9776 70.3433 27.544L80.3433 27.5439L90.3433 27.5439C90.3433 22.0653 88.5235 16.9619 84.5633 13.301C80.7755 9.79952 76.1054 8.61627 72.1833 8.61621L72.1832 18.6162ZM80.3433 27.5439H70.3433C70.3433 28.4474 70.1899 28.6987 70.2474 28.5699C70.2744 28.5096 70.3325 28.4018 70.4322 28.276C70.5311 28.1512 70.638 28.0501 70.7331 27.9767C70.919 27.8334 70.9559 27.8731 70.6725 27.9493C70.3803 28.0279 69.8927 28.1045 69.2066 28.1045V38.1045V48.1045C73.1527 48.1045 78.4367 47.2915 82.9448 43.8157C87.9126 39.9856 90.3433 34.1749 90.3433 27.5439H80.3433ZM69.2066 38.1045L69.2068 28.1045C67.8974 28.1045 67.2687 27.9391 67.0848 27.8765C66.9709 27.8377 67.2203 27.9111 67.519 28.2283C67.801 28.5276 67.8079 28.7065 67.7252 28.4366C67.6271 28.1165 67.4786 27.3995 67.4627 26.1088L57.4634 26.2324L47.4642 26.356C47.5263 31.3775 48.6089 37.3207 52.9594 41.9402C57.4472 46.7054 63.5349 48.1044 69.2064 48.1045L69.2066 38.1045ZM57.4634 26.2324L67.4619 26.057C67.4039 22.7514 67.5527 18.7714 67.8583 15.799L57.9107 14.7764L47.9631 13.7538C47.5647 17.6292 47.395 22.4177 47.465 26.4078L57.4634 26.2324ZM57.9107 14.7764L67.8662 15.7181C67.8152 16.2578 67.5527 17.4797 66.4023 18.6799C65.0987 20.0401 63.4625 20.5205 62.3272 20.5205L62.3267 10.5205L62.3262 0.520508C58.4711 0.520698 54.7389 1.94502 51.9632 4.84113C49.3408 7.5773 48.2302 10.927 47.9551 13.8346L57.9107 14.7764ZM143.122 14.4238V24.4238C143.899 24.4238 141.683 24.6498 139.488 22.7798C137.198 20.8286 137.193 18.5929 137.266 19.3361L147.218 18.3604L157.171 17.3846C156.923 14.8639 156.102 10.6599 152.46 7.5564C148.912 4.5341 144.808 4.42383 143.122 4.42383V14.4238ZM147.218 18.3604H137.218V18.4561H147.218H157.218V18.3604H147.218ZM147.218 18.4561L147.694 28.4447C148.022 28.4291 148.102 28.4483 147.973 28.4328C147.898 28.4238 147.663 28.3926 147.319 28.2967C146.992 28.2058 146.374 28.0043 145.636 27.5733L150.674 18.9355L155.713 10.2978C153.611 9.0713 151.514 8.71401 150.352 8.5748C149.023 8.41563 147.759 8.419 146.743 8.46737L147.218 18.4561ZM150.674 18.9355L145.684 27.6016C144.122 26.7019 143.135 25.3771 142.635 24.2011C142.2 23.1762 142.21 22.4679 142.21 22.4561H152.21H162.21C162.21 19.2576 161.274 13.4994 155.664 10.2695L150.674 18.9355ZM152.21 22.4561L142.21 22.456C142.21 21.9526 142.388 19.7625 144.408 17.8485C146.123 16.224 147.817 16.1359 147.538 16.1674L148.658 26.1045L149.777 36.0416C151.77 35.8171 155.24 35.1368 158.163 32.368C161.391 29.3098 162.21 25.4235 162.21 22.4561L152.21 22.4561ZM148.658 26.1045L147.556 16.1654L146.693 16.2611L147.794 26.2002L148.896 36.1393L149.76 36.0436L148.658 26.1045ZM147.794 26.2002L137.794 26.2001C137.794 26.4501 137.789 26.6138 137.783 26.7091C137.781 26.7538 137.779 26.7679 137.78 26.7556C137.781 26.7443 137.787 26.6913 137.802 26.604L147.666 28.248L157.53 29.892C157.761 28.5035 157.794 27.1541 157.794 26.2003L147.794 26.2002ZM147.666 28.248L145.14 18.5721C142.629 19.2275 140.623 20.4921 139.186 21.7352C137.853 22.8872 136.305 24.6311 135.365 26.9389L144.626 30.7119L153.886 34.4849C153.553 35.3042 153.174 35.847 152.956 36.1294C152.713 36.4442 152.478 36.6814 152.266 36.8649C151.892 37.188 151.23 37.6527 150.191 37.924L147.666 28.248ZM144.626 30.7119L135.195 27.3845C134.454 29.4845 134.234 32.2779 135.474 35.0886C136.681 37.8216 138.854 39.6096 141.064 40.5047C145.1 42.1394 151.37 41.2742 154.24 35.5415L145.298 31.0645L136.357 26.5874C139.035 21.2385 144.872 20.4689 148.572 21.9674C150.614 22.7944 152.643 24.4562 153.771 27.0122C154.934 29.6458 154.701 32.2113 154.056 34.0393L144.626 30.7119ZM145.298 31.0645L154.164 35.6901C153.389 37.1758 151.354 39.0657 148.144 38.7866L149.01 28.8242L149.877 18.8618C143.723 18.3267 138.744 22.0091 136.433 26.4388L145.298 31.0645ZM149.01 28.8242L148.333 38.8013C146.971 38.7088 145.19 38.0826 143.845 36.4663C142.478 34.8245 142.472 33.2717 142.489 33.0104L152.466 33.6885L162.443 34.3665C162.685 30.8094 161.895 26.8886 159.216 23.6706C156.558 20.4782 152.938 19.0678 149.688 18.8472L149.01 28.8242ZM152.466 33.6885L142.489 33.0148C142.562 31.9282 142.936 30.8705 143.529 29.9899C144.092 29.1555 144.716 28.6756 145.116 28.4314C145.824 27.9983 146.111 28.1045 145.746 28.1045V38.1045V48.1045C148.836 48.1045 152.387 47.4265 155.544 45.4974C158.889 43.4532 162.082 39.713 162.444 34.3622L152.466 33.6885ZM145.746 38.1045L145.746 28.1045C145.262 28.1045 145.825 28.0148 146.785 28.5251C147.278 28.7873 147.758 29.1473 148.175 29.589C148.584 30.0212 148.839 30.433 148.987 30.7252C149.238 31.2219 149.165 31.3502 149.064 30.6026C148.967 29.8809 148.908 28.8881 148.861 27.3352L138.866 27.6396L128.87 27.9441C128.951 30.5739 129.027 35.5713 131.137 39.7468C132.411 42.2681 134.438 44.6126 137.4 46.1864C140.199 47.6739 143.141 48.1044 145.745 48.1045L145.746 38.1045ZM138.866 27.6396H148.866V27.1602H138.866H128.866V27.6396H138.866ZM138.866 27.1602L138.866 17.1602C140.123 17.1602 141.176 17.5244 142.003 17.9973L137.042 26.6797L132.08 35.3621C133.803 36.3469 136.137 37.16 138.865 37.1602L138.866 27.1602ZM137.042 26.6797L142.033 18.0144C143.53 18.8769 144.534 20.1623 145.06 21.3834C145.516 22.4404 145.506 23.1793 145.506 23.192L135.506 23.1924L125.506 23.1928C125.507 26.486 126.497 32.1461 132.05 35.3449L137.042 26.6797ZM135.506 23.1924H145.506C145.506 23.3889 145.486 24.1079 145.128 25.0791C144.734 26.1464 144.048 27.2008 143.089 28.0568C142.199 28.8515 141.366 29.2143 140.977 29.3576C140.618 29.4899 140.457 29.4998 140.725 29.4518L138.962 19.6084L137.199 9.76503C135.905 9.99694 132.596 10.6152 129.771 13.136C126.367 16.1747 125.506 20.1443 125.506 23.1924H135.506ZM138.962 19.6084L148.933 20.3754C148.966 19.941 148.98 19.5385 148.987 19.3626C148.996 19.1222 148.998 19.1086 148.997 19.1269L139.026 18.3604L129.055 17.5938C129.022 18.028 129.008 18.4304 129.001 18.6062C128.992 18.8463 128.99 18.8599 128.992 18.8414L138.962 19.6084ZM139.026 18.3604L148.995 19.1423C149.053 18.4006 149.087 20.7519 146.709 22.7788C145.568 23.7506 144.425 24.1525 143.752 24.3117C143.166 24.4503 142.855 24.4238 143.122 24.4238L143.122 14.4238L143.121 4.42383C141.473 4.42387 137.309 4.51097 133.735 7.55756C130.005 10.7367 129.254 15.0562 129.057 17.5784L139.026 18.3604ZM153.638 27.6396L163.638 27.6772C163.642 26.7421 163.813 26.5515 163.703 26.7728C163.648 26.8829 163.547 27.0444 163.387 27.2166C163.228 27.3883 163.06 27.5189 162.912 27.6083C162.62 27.7843 162.567 27.7108 162.981 27.6746C163.402 27.6377 164.133 27.6581 165.171 27.8916L167.367 18.1357L169.563 8.37987C164.472 7.23394 158.107 7.14634 152.574 10.4873C146.431 14.1966 143.664 20.661 143.638 27.6021L153.638 27.6396ZM167.367 18.1357L165.146 27.8861C164.489 27.7364 163.722 27.3993 163.01 26.8108C162.316 26.2372 161.868 25.5856 161.602 25.027C161.12 24.0169 161.187 23.281 161.251 22.9422L171.079 24.792L180.906 26.6418C181.482 23.5831 181.31 19.887 179.652 16.4128C177.851 12.6408 174.413 9.48454 169.587 8.38543L167.367 18.1357ZM171.079 24.792L161.235 23.029C161.3 22.6697 161.496 21.9488 162.213 21.1083C162.984 20.2032 164.765 18.792 167.462 18.792V28.792V38.792C172.016 38.792 175.413 36.4528 177.432 34.0837C179.397 31.7792 180.474 29.0583 180.922 26.555L171.079 24.792ZM167.462 28.792L167.463 18.792C167.578 18.792 167.853 18.8192 168.208 18.9928C168.575 19.1721 168.91 19.4528 169.151 19.7875L161.031 25.624L152.911 31.4606C156.424 36.3481 161.908 38.792 167.462 38.792L167.462 28.792ZM161.031 25.624L169.168 19.8116C166.866 16.5888 163.142 15.1667 159.657 15.5415C156.626 15.8675 154.25 17.4429 152.74 19.2544L160.422 25.6562L168.105 32.0581C166.755 33.6776 164.603 35.1249 161.796 35.4268C158.535 35.7775 155.035 34.4352 152.893 31.4364L161.031 25.624ZM160.422 25.6562L155.268 17.0871C151.546 19.326 150.63 22.923 150.398 24.2783C150.077 26.1559 150.142 28.9608 151.844 31.687L160.327 26.3916L168.81 21.0962C170.352 23.5665 170.385 26.0518 170.112 27.6497C169.962 28.5231 169.663 29.5184 169.111 30.5374C168.614 31.4548 167.563 33.0305 165.577 34.2254L160.422 25.6562ZM160.327 26.3916L152.121 32.1065C155.211 36.5433 160.451 39.3792 166.05 39.5249L166.31 29.5283L166.57 19.5317C166.981 19.5424 167.315 19.6489 167.581 19.7909C167.832 19.9252 168.188 20.1809 168.533 20.6767L160.327 26.3916ZM166.31 29.5283L166.093 39.526C166.32 39.5309 164.794 39.5725 163.136 38.1145C161.226 36.4358 160.989 34.4391 160.984 33.9263L170.983 33.8164L180.982 33.7065C180.945 30.2817 179.843 26.1729 176.341 23.0942C173.091 20.2362 169.244 19.5897 166.527 19.5307L166.31 29.5283ZM170.983 33.8164L160.984 33.9246C160.977 33.2733 161.241 31.1676 163.239 29.4554C164.089 28.7267 164.922 28.3776 165.469 28.2186C165.739 28.1402 165.948 28.1048 166.078 28.0885C166.208 28.0721 166.278 28.0723 166.279 28.0723L166.279 38.0723L166.279 48.0723C169.025 48.0722 172.934 47.4868 176.254 44.6409C179.876 41.5368 181.021 37.3031 180.982 33.7082L170.983 33.8164ZM166.279 38.0723L166.236 28.0724C164.812 28.0785 163.852 27.9758 163.24 27.8464C162.637 27.719 162.647 27.6233 162.923 27.8174C163.07 27.9206 163.244 28.0729 163.408 28.2724C163.572 28.472 163.67 28.6512 163.719 28.7628C163.81 28.9697 163.638 28.7192 163.638 27.6396H153.638H143.638C143.638 34.0551 145.792 40.2247 151.426 44.1825C156.284 47.5952 162.077 48.0905 166.322 48.0722L166.279 38.0723ZM29.3785 10.5205V20.5205C28.1528 20.5205 26.4054 19.982 25.0632 18.518C23.9347 17.287 23.7543 16.1273 23.7245 15.8512L33.6666 14.7764L43.6086 13.7015C43.3228 11.0574 42.3424 7.76985 39.8058 5.00291C37.0556 2.00291 33.2921 0.520508 29.3785 0.520508V10.5205ZM33.6666 14.7764L23.7167 15.7766C24.2576 21.1576 24.2582 27.1769 23.7162 32.5968L33.6666 33.5918L43.6169 34.5868C44.2909 27.847 44.2914 20.4909 43.6164 13.7762L33.6666 14.7764ZM33.6666 33.5918L23.723 32.5311C23.7486 32.2908 23.9169 31.1353 25.0455 29.8977C25.6347 29.2516 26.3891 28.7012 27.2565 28.335C28.1116 27.9739 28.8655 27.8799 29.3785 27.8799V37.8799V47.8799C33.2945 47.8799 37.0687 46.3949 39.8235 43.374C42.3601 40.5924 43.3285 37.2928 43.6101 34.6524L33.6666 33.5918ZM29.3785 37.8799L29.379 27.8799C29.9155 27.8799 30.6955 27.9796 31.5739 28.3561C32.4643 28.7378 33.2265 29.3066 33.8135 29.9615C34.9291 31.2063 35.0786 32.3455 35.0984 32.5311L25.1548 33.5918L15.2112 34.6524C15.487 37.238 16.4204 40.5212 18.92 43.31C21.6532 46.3596 25.4322 47.8797 29.3779 47.8799L29.3785 37.8799ZM25.1548 33.5918L35.0937 32.4875C34.9624 31.3056 34.8784 30.0818 34.7811 28.5894L24.8023 29.2402L14.8235 29.891C14.9182 31.3424 15.0274 32.9983 15.216 34.6961L25.1548 33.5918ZM24.8023 29.2402L22.5124 19.5059C22.5403 19.4994 22.4891 19.5136 22.3685 19.5125C22.2492 19.5114 22.1299 19.4957 22.037 19.4738L19.7466 29.208L17.4562 38.9422C20.4668 39.6505 23.8316 39.7415 27.0922 38.9745L24.8023 29.2402ZM19.7466 29.208L9.75607 28.7736C9.70428 29.9647 9.5987 31.2052 9.45623 32.4875L19.3951 33.5918L29.3339 34.6961C29.5114 33.0985 29.661 31.3951 29.7372 29.6424L19.7466 29.208ZM19.3951 33.5918L9.43834 32.6625C9.4649 32.3779 9.63328 31.1977 10.7682 29.9391C12.1166 28.4437 13.8963 27.8799 15.1705 27.8799V37.8799V47.8799C19.1006 47.8799 22.8806 46.372 25.6213 43.3326C28.1486 40.5299 29.1012 37.2057 29.3518 34.5211L19.3951 33.5918ZM15.1705 37.8799L15.171 27.8799C15.6597 27.8799 16.4097 27.9683 17.2734 28.3323C18.1531 28.7031 18.9271 29.2668 19.5339 29.9399C20.6961 31.229 20.8499 32.4325 20.8713 32.6625L10.9146 33.5918L0.957873 34.5211C1.20333 37.151 2.1251 40.4985 4.6793 43.3317C7.45975 46.4158 11.2723 47.8797 15.17 47.8799L15.1705 37.8799ZM10.9146 33.5918L20.8597 32.545C20.2928 27.1593 20.2933 21.1751 20.8591 15.8286L10.9146 14.7764L0.970119 13.7241C0.255947 20.4733 0.256516 27.8647 0.969543 34.6386L10.9146 33.5918ZM10.9146 14.7764L20.8702 15.7181C20.8449 15.9848 20.679 17.193 19.5163 18.4759C18.1322 20.0031 16.3465 20.5204 15.171 20.5205L15.1705 10.5205L15.17 0.520508C11.2746 0.520706 7.473 1.98198 4.69687 5.04517C2.14223 7.86398 1.20826 11.2 0.959043 13.8346L10.9146 14.7764ZM15.1705 10.5205V20.5205C13.8988 20.5205 12.1298 19.9593 10.7858 18.4766C9.65079 17.2245 9.46993 16.0397 9.43951 15.7181L19.3951 14.7764L29.3506 13.8346C29.0962 11.1451 28.131 7.83227 25.6037 5.04427C22.8674 2.02567 19.0982 0.520508 15.1705 0.520508V10.5205ZM19.3951 14.7764L9.45623 15.8806C9.59869 17.1629 9.70428 18.4035 9.75607 19.5945L19.7466 19.1602L29.7372 18.7258C29.661 16.9731 29.5114 15.2696 29.3339 13.6721L19.3951 14.7764ZM19.7466 19.1602L22.037 28.8943C22.13 28.8725 22.2492 28.8568 22.3685 28.8557C22.4891 28.8545 22.5403 28.8688 22.5124 28.8622L24.8023 19.1279L27.0922 9.39364C23.8316 8.62661 20.4668 8.71762 17.4562 9.42598L19.7466 19.1602ZM24.8023 19.1279L34.7811 19.7787C34.8784 18.2864 34.9624 17.0626 35.0937 15.8806L25.1548 14.7764L15.216 13.6721C15.0274 15.3699 14.9182 17.0257 14.8235 18.4771L24.8023 19.1279ZM25.1548 14.7764L35.0969 15.8512C35.073 16.0721 34.912 17.2156 33.796 18.4543C33.2098 19.1048 32.4508 19.6688 31.5658 20.0472C30.6922 20.4208 29.9155 20.5205 29.379 20.5205L29.3785 10.5205L29.3779 0.520508C25.4348 0.520714 21.6665 2.03795 18.9375 5.06675C16.4376 7.84132 15.4926 11.1127 15.2128 13.7015L25.1548 14.7764ZM86.73 10.2002V20.2002C84.5704 20.2002 83.0375 19.1596 82.2383 18.2633C81.4715 17.4032 80.9224 16.2077 80.9224 14.7441H90.9224H100.922C100.922 8.02657 95.6364 0.200195 86.73 0.200195V10.2002ZM90.9224 14.7441L80.9224 14.7439C80.9225 12.5917 82.3621 10.0522 85.2657 9.28763L87.8121 18.958L90.3584 28.6284C96.9721 26.8869 100.922 20.8959 100.922 14.7444L90.9224 14.7441ZM87.8121 18.958L84.2816 28.3141C83.2113 27.9102 82.4885 27.3365 82.0723 26.9285C81.6653 26.5296 81.453 26.1956 81.3671 26.0486C81.2752 25.8914 81.231 25.7815 81.2061 25.7125C81.1867 25.6586 81.127 25.4878 81.0703 25.1617L90.9224 23.4482L100.775 21.7348C100.471 19.9918 99.7771 17.9123 98.6346 15.9574C97.549 14.0996 95.3177 11.102 91.3426 9.60196L87.8121 18.958ZM90.9224 23.4482L81.063 25.1192C81.5155 27.7891 81.5155 30.8516 81.063 33.5213L90.9224 35.1924L100.782 36.8635C101.609 31.9813 101.609 26.6592 100.782 21.7772L90.9224 23.4482ZM90.9224 35.1924L81.0644 33.5133C81.3643 31.7526 82.3761 30.0353 83.9618 28.9202C85.4036 27.9062 86.6045 27.8799 86.73 27.8799V37.8799V47.8799C89.4793 47.8799 92.6484 47.2617 95.4664 45.28C98.4283 43.1971 100.224 40.136 100.78 36.8714L90.9224 35.1924ZM86.73 37.8799L86.7303 27.8799C86.7314 27.8799 87.8791 27.8724 89.3143 28.8588C90.933 29.9713 92.0422 31.7693 92.3327 33.7182L82.4419 35.1924L72.5512 36.6665C73.0658 40.1193 74.9593 43.261 77.986 45.3412C80.8293 47.2954 84.009 47.8798 86.7298 47.8799L86.73 37.8799ZM82.4419 35.1924L92.3148 33.6027C91.8764 30.8798 91.8764 27.7609 92.3148 25.0379L82.4419 23.4482L72.5691 21.8586C71.7916 26.6875 71.7916 31.9531 72.5691 36.7821L82.4419 35.1924ZM82.4419 23.4482L92.3281 24.9527C92.2646 25.3699 92.1847 25.606 92.1536 25.6926C92.1148 25.8009 92.0559 25.9404 91.9489 26.1197C91.8412 26.3002 91.0331 27.6337 89.0081 28.362L85.6236 18.9521L82.2391 9.5423C78.2316 10.9837 75.9282 13.937 74.7731 15.8731C73.5865 17.8621 72.8459 20.0369 72.5558 21.9438L82.4419 23.4482ZM85.6236 18.9521L88.1709 9.28203C89.3348 9.58864 90.5027 10.293 91.3682 11.4186C92.264 12.5835 92.5386 13.8071 92.5386 14.6477L82.5386 14.6484L72.5386 14.6491C72.5391 21.5263 76.9596 27.011 83.0763 28.6223L85.6236 18.9521ZM82.5386 14.6484H92.5386C92.5386 17.5134 90.1111 20.2 86.7306 20.2002L86.73 10.2002L86.7294 0.200195C79.0611 0.200648 72.5386 6.47171 72.5386 14.6484H82.5386ZM177.381 10.4883L177.381 20.4883C178.16 20.4883 175.943 20.7147 173.748 18.844C171.457 16.892 171.452 14.6551 171.525 15.3997L181.477 14.4238L191.429 13.448C191.182 10.9288 190.361 6.7241 186.719 3.62031C183.171 0.597772 179.066 0.488297 177.381 0.488281L177.381 10.4883ZM181.477 14.4238L171.53 15.4528C171.585 15.9794 171.674 17.766 171.706 18.8458L181.702 18.5518L191.697 18.2577C191.665 17.1614 191.562 14.7241 191.424 13.3948L181.477 14.4238ZM181.702 18.5518L175.635 10.6022C172.911 12.6812 171.203 15.0799 169.993 17.8831L179.173 21.8477L188.354 25.8123C188.424 25.6495 188.373 25.8044 188.173 26.0684C188.078 26.1937 187.98 26.3028 187.892 26.3893C187.807 26.4727 187.757 26.51 187.768 26.5013L181.702 18.5518ZM179.173 21.8477L169.889 18.1338C168.65 21.2297 168.27 27.5185 173.969 31.1112C176.585 32.7606 179.787 33.1495 182.709 32.1984C185.619 31.2515 187.564 29.2374 188.651 27.2803L179.91 22.4238L171.168 17.5674C172.095 15.8983 173.828 14.0562 176.52 13.1802C179.224 12.3001 182.202 12.659 184.634 14.1923C189.965 17.5529 189.377 23.2656 188.458 25.5616L179.173 21.8477ZM179.91 22.4238L188.938 26.7235C188.908 26.7871 188.906 26.781 188.964 26.686C189.025 26.5879 189.121 26.4409 189.286 26.2063L181.093 20.4717L172.901 14.7371C172.357 15.514 171.563 16.6937 170.881 18.1241L179.91 22.4238ZM181.093 20.4717L189.175 26.3618C189.026 26.5652 188.688 26.9279 188.11 27.2286C187.528 27.5311 186.921 27.6562 186.405 27.6562L186.405 17.6562L186.404 7.65625C181.029 7.65659 176.191 10.2204 173.012 14.5816L181.093 20.4717ZM186.405 17.6562V27.6562C185.993 27.6562 185.326 27.5594 184.585 27.1832C183.851 26.8106 183.328 26.3077 183.004 25.8689C182.432 25.0959 182.608 24.761 182.613 25.4123L192.613 25.3359L202.613 25.2596C202.586 21.7188 201.721 17.5442 199.086 13.9793C196.193 10.0656 191.681 7.65625 186.405 7.65625V17.6562ZM192.613 25.3359L182.613 25.4446C182.639 27.8189 182.493 29.7111 182.191 32.5227L192.133 33.5918L202.076 34.6609C202.414 31.5207 202.65 28.7409 202.612 25.2273L192.613 25.3359ZM192.133 33.5918L182.177 32.6625C182.203 32.3788 182.371 31.1988 183.506 29.94C184.854 28.4442 186.634 27.88 187.909 27.8799L187.91 37.8799L187.911 47.8799C191.841 47.8796 195.621 46.3713 198.361 43.3314C200.888 40.5286 201.84 37.2046 202.09 34.5211L192.133 33.5918ZM187.91 37.8799V27.8799C188.399 27.8799 189.157 27.9684 190.032 28.3389C190.924 28.7165 191.7 29.288 192.303 29.9601C193.445 31.2345 193.582 32.3981 193.596 32.5311L183.653 33.5918L173.709 34.6524C173.979 37.1855 174.885 40.4932 177.412 43.3116C180.186 46.4052 183.997 47.8799 187.91 47.8799V37.8799ZM183.653 33.5918L193.587 32.4456C193.436 31.1393 193.353 29.7898 193.294 28.2475L183.301 28.6318L173.309 29.0162C173.377 30.8017 173.486 32.7164 173.719 34.738L183.653 33.5918ZM183.301 28.6318L193.165 26.9864C192.192 21.1541 187.172 18.0879 182.693 18.0879V28.0879V38.0879C180.81 38.0879 178.715 37.5111 176.894 36.0818C174.939 34.5471 173.794 32.4122 173.438 30.2773L183.301 28.6318ZM182.693 28.0879L182.687 18.0879C178.306 18.0904 174.11 20.8391 172.599 25.3739L182.085 28.5361L191.572 31.6984C190.253 35.6574 186.568 38.0857 182.699 38.0879L182.693 28.0879ZM182.085 28.5361L172.101 27.971C172.004 29.6987 171.917 31.1988 171.779 32.6347L181.733 33.5918L191.687 34.5489C191.869 32.657 191.975 30.7654 192.07 29.1013L182.085 28.5361ZM181.733 33.5918L171.789 32.5311C171.809 32.3459 171.958 31.2066 173.074 29.9617C173.661 29.3067 174.424 28.7378 175.314 28.3561C176.193 27.9795 176.973 27.8799 177.509 27.8799L177.509 37.8799L177.509 47.8799C181.455 47.8798 185.235 46.3599 187.968 43.31C190.468 40.521 191.401 37.2377 191.677 34.6524L181.733 33.5918ZM177.509 37.8799V27.8799C177.998 27.8799 178.757 27.9684 179.633 28.3392C180.525 28.7171 181.301 29.2889 181.904 29.9614C183.047 31.2362 183.183 32.3998 183.197 32.5311L173.253 33.5918L163.31 34.6524C163.58 37.1838 164.484 40.4914 167.011 43.3103C169.785 46.4049 173.597 47.8799 177.509 47.8799V37.8799ZM173.253 33.5918L183.198 32.5371C183.013 30.7982 182.926 29.0112 182.865 26.9852L172.87 27.2881L162.874 27.591C162.941 29.7888 163.046 32.1616 163.309 34.6465L173.253 33.5918ZM172.87 27.2881H182.87V26.168H172.87H162.87V27.2881H172.87ZM172.87 26.168L182.869 26.0803C182.841 22.8013 183.046 18.417 183.264 15.0766L173.286 14.4238L163.307 13.771C163.078 17.2787 162.835 22.2386 162.87 26.2557L172.87 26.168ZM173.286 14.4238L183.262 15.1086C183.309 14.4261 183.348 16.8175 180.933 18.8627C179.791 19.8299 178.653 20.2243 177.994 20.379C177.418 20.5145 177.115 20.4883 177.381 20.4883V10.4883V0.488281C175.74 0.488281 171.581 0.573616 168.006 3.60147C164.232 6.79857 163.486 11.1577 163.309 13.739L173.286 14.4238ZM199.043 10.2002V20.2002C196.883 20.2002 195.35 19.1596 194.551 18.2633C193.784 17.4032 193.235 16.2077 193.235 14.7441H203.235H213.235C213.235 8.02657 207.949 0.200195 199.043 0.200195V10.2002ZM203.235 14.7441L193.235 14.7439C193.235 12.5918 194.675 10.0522 197.578 9.28761L200.125 18.958L202.671 28.6284C209.285 26.887 213.235 20.8959 213.235 14.7444L203.235 14.7441ZM200.125 18.958L196.594 28.3141C195.524 27.9102 194.801 27.3365 194.385 26.9286C193.978 26.5296 193.766 26.1956 193.68 26.0486C193.588 25.8914 193.544 25.7815 193.519 25.7125C193.499 25.6586 193.44 25.4878 193.383 25.1617L203.235 23.4482L213.087 21.7348C212.784 19.9918 212.09 17.9123 210.947 15.9574C209.861 14.0996 207.63 11.1019 203.655 9.60194L200.125 18.958ZM203.235 23.4482L193.376 25.1192C193.828 27.7891 193.828 30.8516 193.376 33.5213L203.235 35.1924L213.094 36.8635C213.922 31.9813 213.922 26.6592 213.094 21.7772L203.235 23.4482ZM203.235 35.1924L193.377 33.5133C193.677 31.7526 194.689 30.0353 196.274 28.9202C197.716 27.9062 198.917 27.8799 199.043 27.8799V37.8799V47.8799C201.792 47.8799 204.961 47.2617 207.779 45.28C210.741 43.1971 212.537 40.136 213.093 36.8714L203.235 35.1924ZM199.043 37.8799L199.043 27.8799C199.044 27.8799 200.192 27.8724 201.627 28.8588C203.245 29.9713 204.355 31.7692 204.645 33.7182L194.754 35.1924L184.864 36.6665C185.378 40.1193 187.272 43.261 190.299 45.3412C193.142 47.2954 196.322 47.8798 199.042 47.8799L199.043 37.8799ZM194.754 35.1924L204.627 33.6027C204.189 30.8798 204.189 27.7609 204.627 25.0379L194.754 23.4482L184.882 21.8586C184.104 26.6875 184.104 31.9531 184.882 36.7821L194.754 35.1924ZM194.754 23.4482L204.641 24.9527C204.577 25.3699 204.497 25.606 204.466 25.6926C204.427 25.8009 204.368 25.9404 204.261 26.1198C204.154 26.3002 203.346 27.6336 201.321 28.362L197.936 18.9521L194.552 9.54232C190.544 10.9837 188.241 13.937 187.086 15.8731C185.899 17.8621 185.158 20.0369 184.868 21.9438L194.754 23.4482ZM197.936 18.9521L200.483 9.28204C201.647 9.58865 202.815 10.293 203.681 11.4186C204.576 12.5835 204.851 13.8071 204.851 14.6477L194.851 14.6484L184.851 14.6491C184.852 21.5263 189.272 27.011 195.389 28.6223L197.936 18.9521ZM194.851 14.6484H204.851C204.851 17.5134 202.424 20.2 199.043 20.2002L199.043 10.2002L199.042 0.200195C191.374 0.200694 184.851 6.47167 184.851 14.6484H194.851ZM47.1509 25.8799L57.1416 26.3126C57.2662 23.4342 56.217 20.4059 53.8437 18.1776C51.7043 16.169 49.1873 15.4534 47.2197 15.3374C45.274 15.2226 42.9777 15.632 40.8542 16.9933C38.5378 18.4783 36.3103 21.2682 36.0807 25.1256L46.063 25.7197L56.0454 26.3138C55.832 29.8994 53.7525 32.4815 51.6481 33.8305C49.7365 35.056 47.7162 35.4014 46.0425 35.3027C44.3467 35.2027 42.0977 34.5831 40.1542 32.7584C37.9768 30.7141 37.0515 27.9577 37.1603 25.4471L47.1509 25.8799ZM46.063 25.7197L36.0962 24.9061C36.0573 25.3829 36.0209 25.5326 36.0162 25.5516C36.0144 25.5591 36.0146 25.5578 36.0142 25.5587C36.0134 25.5608 36.0016 25.5932 35.9664 25.6637L44.9107 30.1357L53.855 34.6078C55.3696 31.5785 55.8354 28.9155 56.0299 26.5333L46.063 25.7197ZM44.9107 30.1357L36.0872 25.4299C34.2838 28.8112 34.6109 32.5611 36.2012 35.3852C37.5932 37.8575 39.6865 39.2703 41.4403 39.9834C45.0784 41.4626 50.6298 41.1006 54.079 36.4235L46.0308 30.4883L37.9826 24.5531C40.9837 20.4835 45.8471 20.1852 48.9732 21.4563C50.471 22.0653 52.3522 23.306 53.6283 25.5722C55.1025 28.1903 55.4096 31.7002 53.7342 34.8416L44.9107 30.1357ZM46.0308 30.4883L54.3193 36.083C56.8944 32.2681 57.1101 28.0222 57.1489 26.0798L47.1509 25.8799L37.1529 25.6799C37.1488 25.8874 37.1394 26.0374 37.1295 26.1409C37.1195 26.2458 37.1119 26.2697 37.1205 26.2289C37.129 26.1892 37.1622 26.0432 37.2481 25.8227C37.335 25.5997 37.4871 25.2717 37.7423 24.8936L46.0308 30.4883ZM126.026 25.8799L136.017 26.3126C136.141 23.4342 135.092 20.4059 132.719 18.1776C130.579 16.169 128.062 15.4534 126.095 15.3374C124.149 15.2226 121.853 15.632 119.729 16.9933C117.413 18.4783 115.185 21.2682 114.956 25.1256L124.938 25.7197L134.92 26.3138C134.707 29.8994 132.627 32.4815 130.523 33.8305C128.612 35.056 126.591 35.4014 124.917 35.3027C123.222 35.2027 120.973 34.5831 119.029 32.7584C116.852 30.7141 115.927 27.9577 116.035 25.4471L126.026 25.8799ZM124.938 25.7197L114.971 24.9061C114.932 25.3829 114.896 25.5326 114.891 25.5516C114.889 25.5591 114.89 25.5578 114.889 25.5587C114.888 25.5608 114.877 25.5932 114.841 25.6637L123.786 30.1357L132.73 34.6078C134.245 31.5785 134.71 28.9155 134.905 26.5333L124.938 25.7197ZM123.786 30.1357L114.962 25.4299C113.159 28.8112 113.486 32.5611 115.076 35.3852C116.468 37.8575 118.561 39.2703 120.315 39.9834C123.953 41.4626 129.505 41.1006 132.954 36.4234L124.906 30.4883L116.858 24.5531C119.859 20.4835 124.722 20.1852 127.848 21.4563C129.346 22.0653 131.227 23.3061 132.503 25.5722C133.978 28.1903 134.285 31.7002 132.609 34.8416L123.786 30.1357ZM124.906 30.4883L133.194 36.083C135.769 32.2681 135.985 28.0222 136.024 26.0798L126.026 25.8799L116.028 25.6799C116.024 25.8874 116.014 26.0374 116.005 26.1409C115.994 26.2458 115.987 26.2697 115.996 26.2289C116.004 26.1892 116.037 26.0432 116.123 25.8227C116.21 25.5997 116.362 25.2717 116.617 24.8936L124.906 30.4883ZM68.9507 26.7764L74.7628 18.6388C71.3613 16.2094 67.4905 16.3814 64.7827 17.4982C62.3857 18.4867 60.8034 20.1595 59.8669 21.6235C58.9098 23.1198 58.0636 25.278 58.1829 27.8776C58.3165 30.7888 59.6777 33.7348 62.2939 35.7386L68.3746 27.7998L74.4553 19.861C76.7998 21.6568 78.0412 24.3308 78.1619 26.9611C78.2683 29.2798 77.5161 31.1481 76.715 32.4006C75.9344 33.6208 74.5701 35.0958 72.408 35.9875C69.9352 37.0073 66.3162 37.1834 63.1387 34.9139L68.9507 26.7764ZM68.3746 27.7998L62.3746 35.7998C65.1689 37.8955 68.2094 38.9338 70.7597 39.4543L72.7593 29.6562L74.7589 19.8582C74.4917 19.8037 74.3309 19.7477 74.2592 19.7183C74.1902 19.6899 74.2467 19.7039 74.3746 19.7998L68.3746 27.7998ZM72.7593 29.6562L71.4134 39.5653C74.5251 39.9879 77.5611 39.0095 79.8025 37.0301C81.805 35.2617 82.7564 33.095 83.147 31.3593C83.5331 29.6436 83.5753 27.4611 82.7227 25.2097C81.8069 22.7915 79.5632 19.8092 75.5362 18.8025L73.1109 28.5039L70.6855 38.2053C66.9145 37.2626 64.8429 34.4683 64.0191 32.2931C63.2585 30.2847 63.3128 28.4001 63.6349 26.9685C63.9616 25.5168 64.7731 23.6202 66.5638 22.0389C68.5933 20.2466 71.3454 19.3724 74.1052 19.7472L72.7593 29.6562ZM73.1109 28.5039L74.9539 18.6752C74.823 18.6507 74.7557 18.6328 74.7327 18.6263C74.7127 18.6206 74.7224 18.6225 74.7492 18.6334C74.7611 18.6383 74.7723 18.6433 74.7818 18.6478C74.7911 18.6523 74.7955 18.6547 74.7939 18.6538C74.792 18.6528 74.7536 18.6316 74.6725 18.5751L68.9507 26.7764L63.2289 34.9776C65.875 36.8237 68.4726 37.8085 71.2679 38.3326L73.1109 28.5039ZM104.821 21.752L114.821 21.7512C114.821 19.189 113.893 16.4137 111.734 14.2527C109.71 12.228 107.224 11.3597 105.075 11.1938C102.983 11.0321 100.559 11.4814 98.3725 12.9481C95.9864 14.549 93.999 17.3579 93.7831 20.9615L103.765 21.5596L113.747 22.1576C113.548 25.4895 111.7 28.0906 109.515 29.5566C107.53 30.8885 105.368 31.2759 103.535 31.1343C101.646 30.9884 99.4178 30.2222 97.5872 28.3905C95.6204 26.4224 94.821 23.931 94.8208 21.7527L104.821 21.752ZM103.765 21.5596L93.7847 20.9358C93.7646 21.2561 93.7367 21.3666 93.7341 21.3771C93.7319 21.3862 93.7295 21.395 93.7236 21.4111C93.7174 21.4282 93.7004 21.4721 93.6629 21.5488L102.645 25.9443L111.627 30.3399C113.042 27.4493 113.584 24.7784 113.746 22.1834L103.765 21.5596ZM102.645 25.9443L93.8202 21.241C92.0353 24.5899 92.3166 28.3624 93.9699 31.2506C95.3996 33.7483 97.5313 35.1301 99.2515 35.8121C102.702 37.1803 108.34 36.9971 111.84 32.1508L103.733 26.2959L95.6262 20.441C98.7103 16.1707 103.676 16.0516 106.623 17.22C108.091 17.8021 110.013 19.0181 111.327 21.3149C112.866 24.0022 113.127 27.5387 111.47 30.6477L102.645 25.9443ZM103.733 26.2959L111.784 32.2274C114.785 28.1542 114.771 23.1828 114.813 22.1598L104.821 21.752L94.8292 21.3441C94.815 21.6903 94.8023 21.9148 94.7871 22.0904C94.7721 22.2632 94.7613 22.306 94.7698 22.262C94.7781 22.2194 94.8203 22.01 94.9413 21.6962C95.0648 21.3759 95.2893 20.8975 95.682 20.3644L103.733 26.2959Z" fill="white" mask="url(#path-1-outside-1_4_448)"/>
</g>
<defs>
<filter id="filter0_d_4_448" x="0.434631" y="0.200195" width="213.28" height="62.2402" filterUnits="userSpaceOnUse" color-interpolation-filters="sRGB">
<feFlood flood-opacity="0" result="BackgroundImageFix"/>
<feColorMatrix in="SourceAlpha" type="matrix" values="0 0 0 0 0 0 0 0 0 0 0 0 0 0 0 0 0 0 127 0" result="hardAlpha"/>
<feOffset dy="8"/>
<feComposite in2="hardAlpha" operator="out"/>
<feColorMatrix type="matrix" values="0 0 0 0 0.768913 0 0 0 0 0.867695 0 0 0 0 0.5149 0 0 0 1 0"/>
<feBlend mode="normal" in2="BackgroundImageFix" result="effect1_dropShadow_4_448"/>
<feBlend mode="normal" in="SourceGraphic" in2="effect1_dropShadow_4_448" result="shape"/>
</filter>
</defs>
</svg>
