<svg width="24" height="24" viewBox="0 0 24 24" fill="none" xmlns="http://www.w3.org/2000/svg">
<path d="M18.3462 4.5H5.65385C5.02539 4.5 4.5 5.02539 4.5 5.65385V11.4231C4.5 12.0515 5.02539 12.5769 5.65385 12.5769H18.3462C18.9746 12.5769 19.5 12.0515 19.5 11.4231V5.65385C19.5 5.02539 18.9746 4.5 18.3462 4.5Z" stroke="black" stroke-width="1.5" stroke-linecap="round" stroke-linejoin="round"/>
<path d="M16.6154 12.5769V10.2692C16.6154 9.64074 16.09 9.11536 15.4615 9.11536H8.53845C7.90999 9.11536 7.3846 9.64074 7.3846 10.2692V12.5769M6.80768 18.3461C8.4481 18.3461 8.53845 16.7429 8.53845 15.4615M17.1923 18.3461C15.5519 18.3461 15.4615 16.7429 15.4615 15.4615M12 19.5V15.4615" stroke="black" stroke-width="1.5" stroke-linecap="round" stroke-linejoin="round"/>
</svg>
