<svg width="24" height="24" viewBox="0 0 24 24" fill="none" xmlns="http://www.w3.org/2000/svg">
<path d="M15.0189 17H8.97991M15.0189 17H18.6327C20.5088 17 20.1918 15.1396 19.2425 14.1963C15.8248 10.8005 20.6796 2.99998 11.9994 3C3.31924 3.00002 8.174 10.8006 4.7562 14.1963C3.84255 15.104 3.45439 17 5.36613 17H8.97991M15.0189 17C15.0189 18.9255 14.371 21 11.9994 21C9.62781 21 8.97991 18.9255 8.97991 17" stroke="black" stroke-width="1.5" stroke-linecap="round" stroke-linejoin="round"/>
<path d="M15 13.5C15 9.63884 9 9.63884 9 13.5" stroke="black" stroke-width="1.5" stroke-linecap="round" stroke-linejoin="round"/>
<path d="M12 10.5C13.1046 10.5 14 9.60457 14 8.5C14 7.39543 13.1046 6.5 12 6.5C10.8954 6.5 10 7.39543 10 8.5C10 9.60457 10.8954 10.5 12 10.5Z" stroke="black" stroke-width="1.5" stroke-linecap="round" stroke-linejoin="round"/>
</svg>
