<svg width="24" height="24" viewBox="0 0 24 24" fill="none" xmlns="http://www.w3.org/2000/svg">
<path d="M12 21C16.9706 21 21 16.9706 21 12C21 7.02944 16.9706 3 12 3C7.02944 3 3 7.02944 3 12C3 16.9706 7.02944 21 12 21Z" stroke="#1B1F4B" stroke-width="1.5" stroke-linecap="round" stroke-linejoin="round"/>
<path d="M3.06946 10.8748C4.76947 10.9773 9.26987 11.0698 12.1499 9.83976C15.0299 8.60977 17.5082 6.34761 18.3582 5.63013" stroke="#1B1F4B" stroke-width="1.5" stroke-linecap="round" stroke-linejoin="round"/>
<path d="M8.625 3.6543C10.0337 4.95431 13.1072 8.26446 14.25 11.5502C15.3929 14.8358 15.8165 18.8758 16.0773 20.0258" stroke="#1B1F4B" stroke-width="1.5" stroke-linecap="round" stroke-linejoin="round"/>
<path d="M21.0002 11.9999C19.6869 11.9999 16.0642 11.5046 12.8221 12.9283C9.30011 14.475 6.74967 16.8741 5.63843 18.3662" stroke="#1B1F4B" stroke-width="1.5" stroke-linecap="round" stroke-linejoin="round"/>
</svg>
