<svg width="24" height="24" viewBox="0 0 24 24" fill="none" xmlns="http://www.w3.org/2000/svg">
<path d="M8.308 21H15.692C19.4025 21 20.067 19.551 20.2609 17.787L20.9531 10.587C21.2023 8.39098 20.5562 6.59998 16.615 6.59998H7.385C3.44378 6.59998 2.79768 8.39098 3.04689 10.587L3.73914 17.787C3.93297 19.551 4.59753 21 8.308 21Z" stroke="black" stroke-width="1.5" stroke-miterlimit="10" stroke-linecap="round" stroke-linejoin="round"/>
<path d="M8.30811 6.6V5.88C8.30811 4.287 8.30811 3 11.2617 3H12.7385C15.6921 3 15.6921 4.287 15.6921 5.88V6.6" stroke="black" stroke-width="1.5" stroke-miterlimit="10" stroke-linecap="round" stroke-linejoin="round"/>
<path d="M9.81176 13.3312C7.51036 13.0799 5.25173 12.2948 3.23352 11" stroke="black" stroke-width="1.5" stroke-miterlimit="10" stroke-linecap="round" stroke-linejoin="round"/>
<path d="M14.2335 13.3312C16.5349 13.0799 18.7935 12.2948 20.8118 11" stroke="black" stroke-width="1.5" stroke-miterlimit="10" stroke-linecap="round" stroke-linejoin="round"/>
<path d="M14 13.5C14 14.6046 13.1046 15.5 12 15.5C10.8954 15.5 10 14.6046 10 13.5C10 12.3954 10.8954 11.5 12 11.5C13.1046 11.5 14 12.3954 14 13.5Z" stroke="black" stroke-width="1.5" stroke-linecap="round" stroke-linejoin="round"/>
</svg>
