<svg width="24" height="24" viewBox="0 0 24 24" fill="none" xmlns="http://www.w3.org/2000/svg">
<path d="M21 21H9.4C7.15979 21 6.03968 21 5.18404 20.564C4.43139 20.1805 3.81947 19.5686 3.43597 18.816C3 17.9603 3 16.8402 3 14.6L3 3" stroke="#1B1F4B" stroke-width="1.5" stroke-linecap="round" stroke-linejoin="round"/>
<path d="M17 6C17 7.10457 16.1046 8 15 8C14.4027 8 13.8665 7.73812 13.5 7.32291C13.1888 6.97035 13 6.50722 13 6C13 4.89543 13.8954 4 15 4C16.1046 4 17 4.89543 17 6Z" stroke="#1B1F4B" stroke-width="1.5" stroke-linecap="round" stroke-linejoin="round"/>
<path d="M11.5 10.6771C11.1335 10.2619 10.5973 10 10 10C8.89543 10 8 10.8954 8 12C8 13.1046 8.89543 14 10 14C10.5973 14 11.1335 13.7381 11.5 13.3229M11.5 10.6771C11.8112 11.0297 12 11.4928 12 12C12 12.5072 11.8112 12.9703 11.5 13.3229M11.5 10.6771L13.5 7.5M11.5 13.3229L15 15" stroke="#1B1F4B" stroke-width="1.5" stroke-linecap="round" stroke-linejoin="round"/>
<path d="M19 16C19 17.1046 18.1046 18 17 18C15.8954 18 15 17.1046 15 16C15 14.8954 15.8954 14 17 14C18.1046 14 19 14.8954 19 16Z" stroke="#1B1F4B" stroke-width="1.5" stroke-linecap="round" stroke-linejoin="round"/>
</svg>
