<svg width="24" height="24" viewBox="0 0 24 24" fill="none" xmlns="http://www.w3.org/2000/svg">
<path d="M21 21H9.4C7.15979 21 6.03968 21 5.18404 20.564C4.43139 20.1805 3.81947 19.5686 3.43597 18.816C3 17.9603 3 16.8402 3 14.6L3 3" stroke="#1B1F4B" stroke-width="1.5" stroke-linecap="round" stroke-linejoin="round"/>
<path d="M14.5 7L14.5 16C14.5 16.8284 15.1716 17.5 16 17.5H17C17.8284 17.5 18.5 16.8284 18.5 16L18.5 7C18.5 6.17157 17.8284 5.5 17 5.5L16 5.5C15.1716 5.5 14.5 6.17157 14.5 7Z" stroke="#1B1F4B" stroke-width="1.5" stroke-linecap="round" stroke-linejoin="round"/>
<path d="M7.5 11L7.5 16C7.5 16.8284 8.17157 17.5 9 17.5H10C10.8284 17.5 11.5 16.8284 11.5 16V11C11.5 10.1716 10.8284 9.5 10 9.5L9 9.5C8.17157 9.5 7.5 10.1716 7.5 11Z" stroke="#1B1F4B" stroke-width="1.5" stroke-linecap="round" stroke-linejoin="round"/>
</svg>
