<svg width="24" height="24" viewBox="0 0 24 24" fill="none" xmlns="http://www.w3.org/2000/svg">
<path d="M21 21H9.4C7.15979 21 6.03968 21 5.18404 20.564C4.43139 20.1805 3.81947 19.5686 3.43597 18.816C3 17.9603 3 16.8402 3 14.6L3 3" stroke="#1B1F4B" stroke-width="1.5" stroke-linecap="round" stroke-linejoin="round"/>
<path d="M9 5.5V8.31781M9 14.6822V17.5M11 9.5V13.5C11 14.9751 7 15.1774 7 13.5V9.5C7 8.02488 11 7.82261 11 9.5Z" stroke="#1B1F4B" stroke-width="1.5" stroke-linecap="round" stroke-linejoin="round"/>
<path d="M17 3.5C17 3.5 17 4.81085 17 5.31781M17 13.6822V17.5M17 5.31781C16.25 5.29253 15 5.6613 15 6.5V12.5C15 13.9751 19 14.1774 19 12.5V6.5C19 5.76244 17.75 5.34309 17 5.31781Z" stroke="#1B1F4B" stroke-width="1.5" stroke-linecap="round" stroke-linejoin="round"/>
</svg>
