<svg width="24" height="24" viewBox="0 0 24 24" fill="none" xmlns="http://www.w3.org/2000/svg">
<path d="M21 21H9.4C7.15979 21 6.03968 21 5.18404 20.564C4.43139 20.1805 3.81947 19.5686 3.43597 18.816C3 17.9603 3 16.8402 3 14.6L3 3" stroke="#1B1F4B" stroke-width="1.5" stroke-linecap="round" stroke-linejoin="round"/>
<path d="M11.8897 11.7958L7.75569 7.02579C7.14942 6.32624 6 6.75501 6 7.68072V16C6 17.1046 6.89543 18 8 18H17.3484C18.8145 18 19.7823 16.4749 19.1581 15.1484L17.0227 10.6108C16.7529 10.0375 16.0248 9.8564 15.5179 10.2366L13.2454 11.9409C12.8255 12.2559 12.2335 12.1925 11.8897 11.7958Z" stroke="#1B1F4B" stroke-width="1.5" stroke-linecap="round" stroke-linejoin="round"/>
</svg>
