<svg width="24" height="24" viewBox="0 0 24 24" fill="none" xmlns="http://www.w3.org/2000/svg">
<path d="M21 21H9.4C7.15979 21 6.03968 21 5.18404 20.564C4.43139 20.1805 3.81947 19.5686 3.43597 18.816C3 17.9603 3 16.8402 3 14.6L3 3" stroke="#1B1F4B" stroke-width="1.5" stroke-linecap="round" stroke-linejoin="round"/>
<path d="M17.5 13H8.5C7.67157 13 7 13.6716 7 14.5V15.5C7 16.3284 7.67157 17 8.5 17H17.5C18.3284 17 19 16.3284 19 15.5V14.5C19 13.6716 18.3284 13 17.5 13Z" stroke="#1B1F4B" stroke-width="1.5" stroke-linecap="round" stroke-linejoin="round"/>
<path d="M13.5 6H8.5C7.67157 6 7 6.67157 7 7.5V8.5C7 9.32843 7.67157 10 8.5 10H13.5C14.3284 10 15 9.32843 15 8.5V7.5C15 6.67157 14.3284 6 13.5 6Z" stroke="#1B1F4B" stroke-width="1.5" stroke-linecap="round" stroke-linejoin="round"/>
</svg>
