<svg width="24" height="24" viewBox="0 0 24 24" fill="none" xmlns="http://www.w3.org/2000/svg">
<path d="M21 12C21 16.9706 16.9706 21 12 21C7.02944 21 3 16.9706 3 12C3 7.02944 7.02944 3 12 3C16.9706 3 21 7.02944 21 12Z" stroke="black" stroke-width="1.5" stroke-linecap="round" stroke-linejoin="round"/>
<path d="M14.9081 9.69934L15.0397 9.83091C16.0622 10.8534 16.5735 11.3647 16.5735 12C16.5735 12.6353 16.0622 13.1465 15.0397 14.169L14.9081 14.3006" stroke="black" stroke-width="1.5" stroke-linecap="round" stroke-linejoin="round"/>
<path d="M13.0721 8L10.9285 16" stroke="black" stroke-width="1.5" stroke-linecap="round" stroke-linejoin="round"/>
<path d="M9.09183 9.69934L8.96026 9.83091C7.93776 10.8534 7.42651 11.3647 7.42651 12C7.42651 12.6353 7.93776 13.1465 8.96026 14.169L9.09183 14.3006" stroke="black" stroke-width="1.5" stroke-linecap="round" stroke-linejoin="round"/>
</svg>
