<svg width="24" height="24" viewBox="0 0 24 24" fill="none" xmlns="http://www.w3.org/2000/svg">
<path d="M17.5 3C18.0523 3 18.5 3.44772 18.5 4L18.5 20C18.5 20.5523 18.0523 21 17.5 21H14.5C13.9477 21 13.5 20.5523 13.5 20L13.5 4C13.5 3.44772 13.9477 3 14.5 3L17.5 3Z" stroke="black" stroke-width="1.5" stroke-linecap="round" stroke-linejoin="round"/>
<path d="M9.5 3C10.0523 3 10.5 3.44772 10.5 4L10.5 20C10.5 20.5523 10.0523 21 9.5 21H6.5C5.94772 21 5.5 20.5523 5.5 20L5.5 4C5.5 3.44772 5.94772 3 6.5 3L9.5 3Z" stroke="black" stroke-width="1.5" stroke-linecap="round" stroke-linejoin="round"/>
</svg>
