<svg width="24" height="24" viewBox="0 0 24 24" fill="none" xmlns="http://www.w3.org/2000/svg">
<path d="M21 12C21 16.9706 16.9706 21 12 21C7.02944 21 3 16.9706 3 12C3 7.02944 7.02944 3 12 3C16.9706 3 21 7.02944 21 12Z" stroke="black" stroke-width="1.5" stroke-linecap="round" stroke-linejoin="round"/>
<path d="M12 12C12 12 14.5 12.5 14.5 14C14.5 15.5 13.3807 16 12 16C10.6193 16 9.5 15.5 9.5 14C9.5 12.5 12 12 12 12ZM12 12C12 12 14.5 11.5 14.5 10C14.5 8.5 13.3807 8 12 8C10.6193 8 9.5 8.5 9.5 10C9.5 11.5 12 12 12 12Z" stroke="black" stroke-width="1.5" stroke-linecap="round" stroke-linejoin="round"/>
</svg>
