<svg width="24" height="24" viewBox="0 0 24 24" fill="none" xmlns="http://www.w3.org/2000/svg">
<path d="M2.35712 7.71429L9.33741 12.3678C10.2997 13.0093 10.7808 13.3301 11.3009 13.4547C11.7604 13.5648 12.2395 13.5648 12.6991 13.4547C13.2191 13.3301 13.7003 13.0093 14.6625 12.3678L21.6428 7.71429M7.15712 19.5H16.8428C18.523 19.5 19.3631 19.5 20.0048 19.173C20.5693 18.8854 21.0282 18.4265 21.3159 17.862C21.6428 17.2202 21.6428 16.3802 21.6428 14.7V9.3C21.6428 7.61984 21.6428 6.77976 21.3159 6.13803C21.0282 5.57354 20.5693 5.1146 20.0048 4.82698C19.3631 4.5 18.523 4.5 16.8428 4.5H7.15712C5.47696 4.5 4.63688 4.5 3.99515 4.82698C3.43066 5.1146 2.97172 5.57354 2.6841 6.13803C2.35712 6.77976 2.35712 7.61984 2.35712 9.3V14.7C2.35712 16.3802 2.35712 17.2202 2.6841 17.862C2.97172 18.4265 3.43066 18.8854 3.99515 19.173C4.63688 19.5 5.47696 19.5 7.15712 19.5Z" stroke="black" stroke-width="1.5" stroke-linecap="round" stroke-linejoin="round"/>
</svg>
