<svg width="24" height="24" viewBox="0 0 24 24" fill="none" xmlns="http://www.w3.org/2000/svg">
<path d="M8.0682 5.03753C7.75297 4.7223 8.13028 4.01091 8.58696 4.00003L18.3398 4C18.9209 4 19.2115 4 19.4334 4.11308C19.6286 4.21255 19.7874 4.37128 19.8868 4.5665C19.9999 4.78844 19.9999 5.07898 19.9999 5.66006L20 15.413C19.9891 15.8697 19.2777 16.247 18.9624 15.9318L16.2479 13.1526C16.0525 12.9572 15.728 12.9649 15.523 13.1699L8.85181 19.8411C8.64686 20.046 8.32229 20.0538 8.12688 19.8584L4.14165 15.8731C3.94624 15.6777 3.95397 15.3532 4.15892 15.1482L10.8301 8.47699C11.0351 8.27204 11.0428 7.94748 10.8474 7.75207L8.0682 5.03753Z" stroke="black" stroke-width="1.5" stroke-linecap="round" stroke-linejoin="round"/>
</svg>
