<svg width="24" height="24" viewBox="0 0 24 24" fill="none" xmlns="http://www.w3.org/2000/svg">
<path d="M3 18L5 20H19L21 18M5 16C5.16667 14.3333 6.6 11 11 11C11 10.3333 11.4 9 13 9C14.6 9 15 10.3333 15 11C16.5 11.5 16.5 11.5 17 13M17 13C19 13.5 19 15 19 16M17 13C16 12.8333 14 13.2 14 16" stroke="black" stroke-width="1.5" stroke-linecap="round" stroke-linejoin="round"/>
<path d="M16 3C17.0007 4.25 14.9993 4.75 16 6M12 3C13.0007 4.25 10.9994 4.75 12 6M8.00005 3C9.00071 4.25 6.99939 4.75 8.00005 6" stroke="black" stroke-width="1.5" stroke-linecap="round" stroke-linejoin="round"/>
</svg>
