<svg width="24" height="24" viewBox="0 0 24 24" fill="none" xmlns="http://www.w3.org/2000/svg">
<path d="M12 21V12" stroke="#1B1F4B" stroke-width="1.5" stroke-linecap="round" stroke-linejoin="round"/>
<path d="M11.9999 7H7.94995C5.17974 7 5.01016 3 7.94995 3C11.0999 3 11.9999 7 11.9999 7Z" stroke="#1B1F4B" stroke-width="1.5" stroke-linecap="round" stroke-linejoin="round"/>
<path d="M12 7H16.05C18.9459 7 18.9459 3 16.05 3C12.9 3 12 7 12 7Z" stroke="#1B1F4B" stroke-width="1.5" stroke-linecap="round" stroke-linejoin="round"/>
<path d="M20 12V19C20 20.1046 19.1046 21 18 21H6C4.89543 21 4 20.1046 4 19V12M21 12V9C21 7.89543 20.1046 7 19 7H5C3.89543 7 3 7.89543 3 9V12H21Z" stroke="#1B1F4B" stroke-width="1.5" stroke-linecap="round" stroke-linejoin="round"/>
</svg>
