<svg width="24" height="24" viewBox="0 0 24 24" fill="none" xmlns="http://www.w3.org/2000/svg">
<path d="M16.5 18C18.1569 18 19.5 16.6569 19.5 15C19.5 13.3431 18.1569 12 16.5 12C14.8431 12 13.5 13.3431 13.5 15C13.5 16.6569 14.8431 18 16.5 18Z" stroke="#1B1F4B" stroke-width="1.5" stroke-linecap="round" stroke-linejoin="round"/>
<path d="M7.5 18C9.15685 18 10.5 16.6569 10.5 15C10.5 13.3431 9.15685 12 7.5 12C5.84315 12 4.5 13.3431 4.5 15C4.5 16.6569 5.84315 18 7.5 18Z" stroke="#1B1F4B" stroke-width="1.5" stroke-linecap="round" stroke-linejoin="round"/>
<path d="M13.5 15.1605C12.4582 14.7888 11.5629 14.7813 10.5 15.1605" stroke="#1B1F4B" stroke-width="1.5" stroke-linecap="round" stroke-linejoin="round"/>
<path d="M19.5 15L18.9277 8.70375C18.7617 6.87898 18.1987 6.56405 16.5 6" stroke="#1B1F4B" stroke-width="1.5" stroke-linecap="round" stroke-linejoin="round"/>
<path d="M4.5 15L5.07225 8.70375C5.23821 6.87967 5.80221 6.56374 7.5 6" stroke="#1B1F4B" stroke-width="1.5" stroke-linecap="round" stroke-linejoin="round"/>
</svg>
