<svg width="24" height="24" viewBox="0 0 24 24" fill="none" xmlns="http://www.w3.org/2000/svg">
<path d="M12 21C16.9706 21 21 16.9706 21 12C21 7.02944 16.9706 3 12 3M12 21C7.02944 21 3 16.9706 3 12C3 7.02944 7.02944 3 12 3M12 21C14.7614 21 15.9413 15.837 15.9413 12C15.9413 8.16303 14.7614 3 12 3M12 21C9.23858 21 8.05895 15.8369 8.05895 12C8.05895 8.16307 9.23858 3 12 3M3.49988 8.99998C10.1388 8.99998 13.861 8.99998 20.4999 8.99998M3.49988 15C10.1388 15 13.861 15 20.4999 15" stroke="#1B1F4B" stroke-width="1.5" stroke-linecap="round" stroke-linejoin="round"/>
</svg>
