<svg width="24" height="24" viewBox="0 0 24 24" fill="none" xmlns="http://www.w3.org/2000/svg">
<path d="M7.75 3.5C5.12665 3.5 3 5.75956 3 8.54688C3 14.125 12 20.5 12 20.5C12 20.5 21 14.125 21 8.54688C21 5.09375 18.8734 3.5 16.25 3.5C14.39 3.5 12.7796 4.63593 12 6.2905C11.2204 4.63593 9.61003 3.5 7.75 3.5Z" stroke="#1B1F4B" stroke-width="1.5" stroke-linecap="round" stroke-linejoin="round"/>
<path d="M10.75 14.5C10.1977 14.5 9.75 14.0523 9.75 13.5V11.1403L12 9.5L14.25 11.1403V13.5C14.25 14.0523 13.8023 14.5 13.25 14.5H10.75Z" stroke="#1B1F4B" stroke-width="1.5" stroke-linecap="round" stroke-linejoin="round"/>
</svg>
