<svg width="24" height="24" viewBox="0 0 24 24" fill="none" xmlns="http://www.w3.org/2000/svg">
<path d="M7.75 3.5C5.12665 3.5 3 5.75956 3 8.54688C3 14.125 12 20.5 12 20.5C12 20.5 21 14.125 21 8.54688C21 5.09375 18.8734 3.5 16.25 3.5C14.39 3.5 12.7796 4.63593 12 6.2905C11.2204 4.63593 9.61003 3.5 7.75 3.5Z" stroke="#1B1F4B" stroke-width="1.5" stroke-linecap="round" stroke-linejoin="round"/>
<path d="M15 15.5C15 11.6388 9 11.6388 9 15.5" stroke="#1B1F4B" stroke-width="1.5" stroke-linecap="round" stroke-linejoin="round"/>
<path d="M12 12.5C13.1046 12.5 14 11.6046 14 10.5C14 9.39543 13.1046 8.5 12 8.5C10.8954 8.5 10 9.39543 10 10.5C10 11.6046 10.8954 12.5 12 12.5Z" stroke="#1B1F4B" stroke-width="1.5" stroke-linecap="round" stroke-linejoin="round"/>
</svg>
