<svg width="24" height="24" viewBox="0 0 24 24" fill="none" xmlns="http://www.w3.org/2000/svg">
<path d="M9 6.5H8C7.44772 6.5 7 6.94772 7 7.5V17.5C7 18.0523 7.44772 18.5 8 18.5H9C9.55228 18.5 10 18.0523 10 17.5V7.5C10 6.94772 9.55228 6.5 9 6.5Z" stroke="black" stroke-width="1.5" stroke-linecap="round" stroke-linejoin="round"/>
<path d="M15.5 6.5H14.5C13.9477 6.5 13.5 6.94772 13.5 7.5V17.5C13.5 18.0523 13.9477 18.5 14.5 18.5H15.5C16.0523 18.5 16.5 18.0523 16.5 17.5V7.5C16.5 6.94772 16.0523 6.5 15.5 6.5Z" stroke="black" stroke-width="1.5" stroke-linecap="round" stroke-linejoin="round"/>
</svg>
