<svg width="24" height="24" viewBox="0 0 24 24" fill="none" xmlns="http://www.w3.org/2000/svg">
<path d="M12 13.5C12.8284 13.5 13.5 12.8284 13.5 12C13.5 11.1716 12.8284 10.5 12 10.5C11.1716 10.5 10.5 11.1716 10.5 12C10.5 12.8284 11.1716 13.5 12 13.5Z" stroke="#1B1F4B" stroke-width="1.5" stroke-linecap="round" stroke-linejoin="round"/>
<path d="M8.55147 15.705C8.05971 15.2187 7.66959 14.6411 7.40342 14.0054C7.13725 13.3697 7.00024 12.6882 7.00024 12C7.00024 11.3119 7.13725 10.6304 7.40342 9.99468C7.66959 9.35895 8.05971 8.7814 8.55147 8.29504" stroke="#1B1F4B" stroke-width="1.5" stroke-linecap="round" stroke-linejoin="round"/>
<path d="M18.0699 5.5C19.8107 7.22409 20.7887 9.56214 20.7887 12C20.7887 14.4379 19.8107 16.7759 18.0699 18.5" stroke="#1B1F4B" stroke-width="1.5" stroke-linecap="round" stroke-linejoin="round"/>
<path d="M15.24 8.29504C15.7318 8.7814 16.1219 9.35895 16.388 9.99468C16.6542 10.6304 16.7912 11.3119 16.7912 12C16.7912 12.6882 16.6542 13.3697 16.388 14.0054C16.1219 14.6411 15.7318 15.2187 15.24 15.705" stroke="#1B1F4B" stroke-width="1.5" stroke-linecap="round" stroke-linejoin="round"/>
<path d="M5.51207 18.5C3.77126 16.7759 2.79333 14.4379 2.79333 12C2.79333 9.56214 3.77126 7.22409 5.51207 5.5" stroke="#1B1F4B" stroke-width="1.5" stroke-linecap="round" stroke-linejoin="round"/>
</svg>
