<svg width="24" height="24" viewBox="0 0 24 24" fill="none" xmlns="http://www.w3.org/2000/svg">
<path d="M3.11414 7.5C3.258 6.03737 3.58315 5.05285 4.31798 4.31802C5.636 3 7.75732 3 12 3C16.2426 3 18.3639 3 19.6819 4.31802C20.4168 5.05285 20.7419 6.03737 20.8858 7.5M20.8858 16.5C20.7419 17.9626 20.4168 18.9472 19.6819 19.682C18.3639 21 16.2426 21 12 21C7.75732 21 5.636 21 4.31798 19.682C3.58315 18.9472 3.258 17.9626 3.11414 16.5" stroke="#1B1F4B" stroke-width="1.5" stroke-linecap="round" stroke-linejoin="round"/>
<path d="M3 12H3.5" stroke="#1B1F4B" stroke-width="1.5" stroke-linecap="round" stroke-linejoin="round"/>
<path d="M11.75 12H12.25" stroke="#1B1F4B" stroke-width="1.5" stroke-linecap="round" stroke-linejoin="round"/>
<path d="M7.25 12H7.75" stroke="#1B1F4B" stroke-width="1.5" stroke-linecap="round" stroke-linejoin="round"/>
<path d="M16.25 12H16.75" stroke="#1B1F4B" stroke-width="1.5" stroke-linecap="round" stroke-linejoin="round"/>
<path d="M20.5 12H21" stroke="#1B1F4B" stroke-width="1.5" stroke-linecap="round" stroke-linejoin="round"/>
</svg>
