<svg width="24" height="24" viewBox="0 0 24 24" fill="none" xmlns="http://www.w3.org/2000/svg">
<path d="M3 5.7C3 5.03726 3.44772 4.5 4 4.5H20C20.5523 4.5 21 5.03726 21 5.7V9.3C21 9.96274 20.5523 10.5 20 10.5H4C3.44772 10.5 3 9.96274 3 9.3V5.7Z" stroke="#1B1F4B" stroke-width="1.5" stroke-linecap="round" stroke-linejoin="round"/>
<path d="M6 7.5H8" stroke="#1B1F4B" stroke-width="1.5" stroke-linecap="round" stroke-linejoin="round"/>
<path d="M6 16.5H8" stroke="#1B1F4B" stroke-width="1.5" stroke-linecap="round" stroke-linejoin="round"/>
<path d="M3 14.7C3 14.0373 3.44772 13.5 4 13.5H20C20.5523 13.5 21 14.0373 21 14.7V18.3C21 18.9627 20.5523 19.5 20 19.5H4C3.44772 19.5 3 18.9627 3 18.3V14.7Z" stroke="#1B1F4B" stroke-width="1.5" stroke-linecap="round" stroke-linejoin="round"/>
</svg>
