<svg width="24" height="24" viewBox="0 0 24 24" fill="none" xmlns="http://www.w3.org/2000/svg">
<path d="M9.5 12C9.5 13.3807 8.38072 14.5 7 14.5C5.61929 14.5 4.5 13.3807 4.5 12C4.5 10.6193 5.61929 9.5 7 9.5C8.38072 9.5 9.5 10.6193 9.5 12Z" stroke="black" stroke-width="1.5" stroke-linecap="round" stroke-linejoin="round"/>
<path d="M14.4999 6.5L9.49994 10" stroke="black" stroke-width="1.5" stroke-linecap="round" stroke-linejoin="round"/>
<path d="M14.4999 17.5L9.49994 14" stroke="black" stroke-width="1.5" stroke-linecap="round" stroke-linejoin="round"/>
<path d="M19.4999 18.5C19.4999 19.8807 18.3807 21 16.9999 21C15.6192 21 14.4999 19.8807 14.4999 18.5C14.4999 17.1193 15.6192 16 16.9999 16C18.3807 16 19.4999 17.1193 19.4999 18.5Z" stroke="black" stroke-width="1.5" stroke-linecap="round" stroke-linejoin="round"/>
<path d="M19.4999 5.5C19.4999 6.88072 18.3807 8 16.9999 8C15.6192 8 14.4999 6.88072 14.4999 5.5C14.4999 4.11929 15.6192 3 16.9999 3C18.3807 3 19.4999 4.11929 19.4999 5.5Z" stroke="black" stroke-width="1.5" stroke-linecap="round" stroke-linejoin="round"/>
</svg>
