<svg width="24" height="24" viewBox="0 0 24 24" fill="none" xmlns="http://www.w3.org/2000/svg">
<path d="M9 15C9.85038 15.6303 10.8846 16 12 16C13.1154 16 14.1496 15.6303 15 15" stroke="#1B1F4B" stroke-width="1.5" stroke-linecap="round" stroke-linejoin="round"/>
<path d="M9.5 10.5V10" stroke="#1B1F4B" stroke-width="1.5" stroke-linecap="round" stroke-linejoin="round"/>
<path d="M14.5 10.5V10" stroke="#1B1F4B" stroke-width="1.5" stroke-linecap="round" stroke-linejoin="round"/>
<path d="M3 18.5615V12.0443C3 7.04928 7.02944 3 12 3C16.9706 3 21 7.04928 21 12.0443V18.5615C21 19.7226 20.0334 21.08 19 20.5608C18.1647 20.1411 16.777 20.0402 16 20.5608C15.1259 21.1464 13.8741 21.1464 13 20.5608C12.1148 19.9678 11.3511 19.9906 10.5 20.5608C9.6259 21.1464 8.3741 21.1464 7.5 20.5608C6.723 20.0402 5.83525 20.1411 5 20.5608C3.9666 21.08 3 19.7226 3 18.5615Z" stroke="#1B1F4B" stroke-width="1.5" stroke-linecap="round" stroke-linejoin="round"/>
</svg>
