<svg width="24" height="24" viewBox="0 0 24 24" fill="none" xmlns="http://www.w3.org/2000/svg">
<path d="M21 12C21 16.9706 16.9706 21 12 21C7.02944 21 3 16.9706 3 12C3 7.02944 7.02944 3 12 3C16.9706 3 21 7.02944 21 12Z" stroke="black" stroke-width="1.5" stroke-linecap="round" stroke-linejoin="round"/>
<path d="M9.5 12C9.5 10.8215 9.5 10.2322 9.86612 9.86612C10.2322 9.5 10.8215 9.5 12 9.5C13.1785 9.5 13.7678 9.5 14.1339 9.86612C14.5 10.2322 14.5 10.8215 14.5 12C14.5 13.1785 14.5 13.7678 14.1339 14.1339C13.7678 14.5 13.1785 14.5 12 14.5C10.8215 14.5 10.2322 14.5 9.86612 14.1339C9.5 13.7678 9.5 13.1785 9.5 12Z" stroke="black" stroke-width="1.5" stroke-linecap="round" stroke-linejoin="round"/>
</svg>
