<svg width="24" height="24" viewBox="0 0 24 24" fill="none" xmlns="http://www.w3.org/2000/svg">
<path d="M12.6473 5.26074C14.1431 5.30875 15.5236 5.52284 16.6746 5.88184C17.9624 6.28355 19.081 6.90301 19.6736 7.79004C20.1721 8.53613 20.6658 9.53531 20.74 10.873C20.8139 12.206 20.4668 13.7989 19.4207 15.7344L19.1219 16.2881C16.7127 20.7451 14.3612 22.7499 11.9998 22.75L11.7781 22.7441C9.491 22.6223 7.21157 20.6059 4.87772 16.2881L4.57889 15.7344C3.53275 13.7989 3.18563 12.206 3.25955 10.873C3.33381 9.53526 3.8275 8.53613 4.32596 7.79004C4.91864 6.90301 6.03715 6.28353 7.32498 5.88184C8.64037 5.4716 10.2552 5.25 11.9998 5.25L12.6473 5.26074ZM11.9998 6.75C10.3716 6.75 8.91211 6.95766 7.77127 7.31348C6.60293 7.6779 5.88274 8.162 5.57401 8.62402C5.17115 9.22704 4.81144 9.9684 4.75663 10.9561C4.70157 11.9486 4.94987 13.2669 5.89823 15.0215L6.19705 15.5742C8.58833 19.9983 10.5603 21.25 11.9998 21.25C13.4393 21.2499 15.4113 19.9982 17.8025 15.5742L18.1014 15.0215C19.0497 13.267 19.298 11.9485 19.243 10.9561C19.1881 9.96845 18.8284 9.22702 18.4256 8.62402C18.1169 8.16199 17.3966 7.67792 16.2283 7.31348C15.0875 6.95764 13.628 6.75002 11.9998 6.75ZM8.82303 13.4697C9.11592 13.1768 9.59068 13.1769 9.88358 13.4697C10.1765 13.7626 10.1765 14.2374 9.88358 14.5303L9.53006 14.8838C9.23717 15.1767 8.76241 15.1767 8.46952 14.8838C8.17664 14.5909 8.17663 14.1161 8.46952 13.8232L8.82303 13.4697ZM7.82303 9.46973C8.11592 9.17684 8.59068 9.17685 8.88358 9.46973C9.17647 9.76262 9.17647 10.2374 8.88358 10.5303L8.53006 10.8838C8.23717 11.1767 7.76241 11.1767 7.46952 10.8838C7.17664 10.5909 7.17663 10.1161 7.46952 9.82324L7.82303 9.46973ZM11.823 9.46973C12.1159 9.17684 12.5907 9.17685 12.8836 9.46973C13.1765 9.76262 13.1765 10.2374 12.8836 10.5303L12.5301 10.8838C12.2372 11.1767 11.7624 11.1767 11.4695 10.8838C11.1766 10.5909 11.1766 10.1161 11.4695 9.82324L11.823 9.46973Z" fill="black"/>
<path d="M10 6L9.09467 4.64201C8.69071 4.03607 9.22102 3.2442 9.93513 3.38703C10.2739 3.45478 10.6186 3.30226 10.7964 3.00603L11.1425 2.42916C11.5309 1.78182 12.4691 1.78182 12.8575 2.42915L13.1638 2.93963C13.3654 3.27568 13.7565 3.4487 14.1408 3.37184C14.8975 3.2205 15.4972 4.00565 15.1521 4.69585L14.5 6" stroke="black" stroke-width="1.5"/>
</svg>
