<svg width="24" height="24" viewBox="0 0 24 24" fill="none" xmlns="http://www.w3.org/2000/svg">
<path d="M7.80537 3.46863C8.15891 3.11509 8.4505 3 8.93674 3H15.0633C15.5495 3 15.8411 3.11509 16.1946 3.46863L20.5314 7.80537C20.8849 8.15891 21 8.4505 21 8.93674V15.0633C21 15.5632 20.8752 15.8508 20.5314 16.1946L16.1946 20.5314C15.8411 20.8849 15.5495 21 15.0633 21H8.93674C8.43676 21 8.14919 20.8752 7.80537 20.5314L3.46863 16.1946C3.11509 15.8411 3 15.5495 3 15.0633V8.93674C3 8.43676 3.12481 8.14919 3.46863 7.80537L7.80537 3.46863Z" stroke="black" stroke-width="1.5" stroke-linecap="round" stroke-linejoin="round"/>
<path d="M14.5 9.25C14.5 10.6307 13.3807 11.75 12 11.75C10.6193 11.75 9.5 10.6307 9.5 9.25C9.5 7.86929 10.6193 6.75 12 6.75C13.3807 6.75 14.5 7.86929 14.5 9.25Z" stroke="black" stroke-width="1.5" stroke-linecap="round" stroke-linejoin="round"/>
<path d="M7 19.5251V19.2001C7.31692 13.0134 16.6831 13.0134 17 19.2001V19.5251" stroke="black" stroke-width="1.5" stroke-linecap="round" stroke-linejoin="round"/>
</svg>
