<svg width="24" height="24" viewBox="0 0 24 24" fill="none" xmlns="http://www.w3.org/2000/svg">
<path d="M2.70662 10.2953C2.48261 10.5191 2.3049 10.7848 2.18365 11.0773C2.06241 11.3698 2 11.6834 2 12C2 12.3166 2.06241 12.6302 2.18365 12.9227C2.3049 13.2152 2.48261 13.4809 2.70662 13.7047L10.2953 21.2934C10.5191 21.5174 10.7848 21.6951 11.0773 21.8163C11.3698 21.9376 11.6834 22 12 22C12.3166 22 12.6302 21.9376 12.9227 21.8163C13.2152 21.6951 13.4809 21.5174 13.7047 21.2934L21.2934 13.7047C21.5174 13.4809 21.6951 13.2152 21.8163 12.9227C21.9376 12.6302 22 12.3166 22 12C22 11.6834 21.9376 11.3698 21.8163 11.0773C21.6951 10.7848 21.5174 10.5191 21.2934 10.2953L13.7047 2.70662C13.4809 2.48261 13.2152 2.3049 12.9227 2.18365C12.6302 2.06241 12.3166 2 12 2C11.6834 2 11.3698 2.06241 11.0773 2.18365C10.7848 2.3049 10.5191 2.48261 10.2953 2.70662L2.70662 10.2953Z" stroke="black" stroke-width="1.5" stroke-linecap="round" stroke-linejoin="round"/>
<path d="M14.5 9.25C14.5 10.6307 13.3807 11.75 12 11.75C10.6193 11.75 9.5 10.6307 9.5 9.25C9.5 7.86929 10.6193 6.75 12 6.75C13.3807 6.75 14.5 7.86929 14.5 9.25Z" stroke="black" stroke-width="1.5" stroke-linecap="round" stroke-linejoin="round"/>
<path d="M16.8089 18.0001C15.5344 13.4346 8.5366 13.4135 7.20917 17.9368" stroke="black" stroke-width="1.5" stroke-linecap="round" stroke-linejoin="round"/>
</svg>
