<svg width="24" height="24" viewBox="0 0 24 24" fill="none" xmlns="http://www.w3.org/2000/svg">
<path d="M21 12C21 16.9706 16.9706 21 12 21C7.02944 21 3 16.9706 3 12C3 7.02944 7.02944 3 12 3C16.9706 3 21 7.02944 21 12Z" stroke="#1B1F4B" stroke-width="1.5" stroke-linecap="round" stroke-linejoin="round"/>
<path d="M14.5 9.25C14.5 10.6307 13.3807 11.75 12 11.75C10.6193 11.75 9.5 10.6307 9.5 9.25C9.5 7.86929 10.6193 6.75 12 6.75C13.3807 6.75 14.5 7.86929 14.5 9.25Z" stroke="#1B1F4B" stroke-width="1.5" stroke-linecap="round" stroke-linejoin="round"/>
<path d="M17 19.4999C16.6831 13.3132 7.31692 13.3132 7 19.4999" stroke="#1B1F4B" stroke-width="1.5" stroke-linecap="round" stroke-linejoin="round"/>
</svg>
