<svg width="24" height="24" viewBox="0 0 24 24" fill="none" xmlns="http://www.w3.org/2000/svg">
<path d="M3 15.75V8.25C3 7.14543 3.89543 6.25 5 6.25H13.5C14.6046 6.25 15.5 7.14543 15.5 8.25V15.75C15.5 16.8546 14.6046 17.75 13.5 17.75H5C3.89543 17.75 3 16.8546 3 15.75Z" stroke="#1B1F4B" stroke-width="1.5" stroke-linecap="round" stroke-linejoin="round"/>
<path d="M20.1675 6.99135L16.1675 10.5536C16.0609 10.6485 16 10.7843 16 10.927V12.7049C16 12.8475 16.0609 12.9834 16.1675 13.0783L20.1675 16.6405C20.4898 16.9276 21 16.6988 21 16.2671V7.36475C21 6.9331 20.4898 6.70428 20.1675 6.99135Z" stroke="#1B1F4B" stroke-width="1.5" stroke-linecap="round" stroke-linejoin="round"/>
</svg>
