<svg width="24" height="24" viewBox="0 0 24 24" fill="none" xmlns="http://www.w3.org/2000/svg">
<path d="M9.17161 14.8284L7.75739 13.4142C7.09845 12.7553 6.76898 12.4258 6.40144 12.2735C5.91138 12.0706 5.36076 12.0706 4.87071 12.2735C4.50316 12.4258 4.17369 12.7553 3.51475 13.4142C2.85581 14.0731 2.52634 14.4026 2.3741 14.7702C2.17111 15.2602 2.17111 15.8108 2.3741 16.3009C2.52634 16.6684 2.85581 16.9979 3.51475 17.6568L4.92897 19.0711L6.34318 20.4853C7.00212 21.1442 7.33159 21.4737 7.69913 21.6259C8.18919 21.8289 8.73981 21.8289 9.22987 21.6259C9.59741 21.4737 9.92688 21.1442 10.5858 20.4853C11.2448 19.8263 11.5742 19.4969 11.7265 19.1293C11.9295 18.6393 11.9295 18.0886 11.7265 17.5986C11.5742 17.231 11.2448 16.9016 10.5858 16.2426L9.17161 14.8284ZM9.17161 14.8284L14.8285 9.17156M14.8285 9.17156L16.2427 10.5858C16.9016 11.2447 17.2311 11.5742 17.5986 11.7264C18.0887 11.9294 18.6393 11.9294 19.1294 11.7264C19.4969 11.5742 19.8264 11.2447 20.4853 10.5858C21.1443 9.92683 21.4737 9.59736 21.626 9.22982C21.829 8.73977 21.829 8.18915 21.626 7.69909C21.4737 7.33155 21.1443 7.00208 20.4853 6.34314L19.0711 4.92892L17.6569 3.51471C16.9979 2.85577 16.6685 2.5263 16.3009 2.37406C15.8109 2.17107 15.2603 2.17107 14.7702 2.37405C14.4027 2.5263 14.0732 2.85577 13.4142 3.51471C12.7553 4.17365 12.4258 4.50312 12.2736 4.87066C12.0706 5.36072 12.0706 5.91134 12.2736 6.40139C12.4258 6.76894 12.7553 7.09841 13.4142 7.75735L14.8285 9.17156Z" stroke="#1B1F4B" stroke-width="1.5" stroke-linecap="round" stroke-linejoin="round"/>
</svg>
