<svg width="402" height="874" viewBox="0 0 402 874" fill="none" xmlns="http://www.w3.org/2000/svg">
<g clip-path="url(#clip0_4_3105)">
<rect width="402" height="874" fill="url(#paint0_radial_4_3105)"/>
<g opacity="0.5">
<path d="M128.372 807.09L128.372 811.259L132.54 811.259L132.54 807.09L128.372 807.09Z" fill="#78CEEF"/>
<path d="M151.78 806.984L151.78 811.366L156.162 811.366L156.162 806.984L151.78 806.984Z" fill="#78CEEF"/>
<path d="M175.187 806.877L175.187 811.473L179.783 811.473L179.783 806.877L175.187 806.877Z" fill="#78CEEF"/>
<path d="M198.595 806.77L198.595 811.58L203.405 811.58L203.405 806.77L198.595 806.77Z" fill="#78CEEF"/>
<path d="M222.216 806.877L222.216 811.473L226.812 811.473L226.812 806.877L222.216 806.877Z" fill="#78CEEF"/>
<path d="M245.838 806.984L245.838 811.366L250.22 811.366L250.22 806.984L245.838 806.984Z" fill="#78CEEF"/>
<path d="M269.459 807.09L269.459 811.259L273.628 811.259V807.09L269.459 807.09Z" fill="#78CEEF"/>
<path d="M80.7283 782.961L80.7283 788.359L86.126 788.359L86.126 782.961L80.7283 782.961Z" fill="#78CEEF"/>
<path d="M104.029 782.747L104.029 788.573L109.854 788.573L109.854 782.747L104.029 782.747Z" fill="#78CEEF"/>
<path d="M127.33 782.534L127.33 788.786L133.583 788.786L133.583 782.534L127.33 782.534Z" fill="#78CEEF"/>
<path d="M150.657 782.347L150.657 788.974L157.284 788.974L157.284 782.347L150.657 782.347Z" fill="#78CEEF"/>
<path d="M173.958 782.133L173.958 789.187L181.013 789.187L181.013 782.133L173.958 782.133Z" fill="#78CEEF"/>
<path d="M197.259 781.919L197.259 789.401L204.741 789.401L204.741 781.919L197.259 781.919Z" fill="#78CEEF"/>
<path d="M220.987 782.133L220.987 789.187L228.042 789.187L228.042 782.133L220.987 782.133Z" fill="#78CEEF"/>
<path d="M244.716 782.347L244.716 788.974L251.342 788.974L251.342 782.347L244.716 782.347Z" fill="#78CEEF"/>
<path d="M268.417 782.534L268.417 788.786L274.67 788.786L274.67 782.534L268.417 782.534Z" fill="#78CEEF"/>
<path d="M292.146 782.747L292.146 788.573L297.971 788.573L297.971 782.747H292.146Z" fill="#78CEEF"/>
<path d="M315.874 782.961L315.874 788.359H321.271V782.961L315.874 782.961Z" fill="#78CEEF"/>
<path d="M33.4854 759.233L33.4854 765.058L39.3106 765.058L39.3106 759.233L33.4854 759.233Z" fill="#78CEEF"/>
<path d="M56.6793 758.912L56.6793 765.379L63.1458 765.379L63.1458 758.912L56.6793 758.912Z" fill="#78CEEF"/>
<path d="M79.9 758.618V765.673H86.9543L86.9543 758.618L79.9 758.618Z" fill="#78CEEF"/>
<path d="M103.094 758.298L103.094 765.993L110.79 765.993L110.79 758.298L103.094 758.298Z" fill="#78CEEF"/>
<path d="M126.314 758.004L126.314 766.287L134.598 766.287L134.598 758.004L126.314 758.004Z" fill="#78CEEF"/>
<path d="M149.508 757.683V766.608L158.433 766.608L158.433 757.683L149.508 757.683Z" fill="#78CEEF"/>
<path d="M172.729 757.389L172.729 766.902L182.242 766.902V757.389L172.729 757.389Z" fill="#78CEEF"/>
<path d="M195.923 757.069L195.923 767.223L206.077 767.223L206.077 757.069L195.923 757.069Z" fill="#78CEEF"/>
<path d="M219.758 757.389V766.902L229.271 766.902L229.271 757.389H219.758Z" fill="#78CEEF"/>
<path d="M243.567 757.683L243.567 766.608H252.491L252.491 757.683H243.567Z" fill="#78CEEF"/>
<path d="M267.402 758.004L267.402 766.287H275.685L275.685 758.004L267.402 758.004Z" fill="#78CEEF"/>
<path d="M291.21 758.298L291.21 765.993L298.906 765.993V758.298H291.21Z" fill="#78CEEF"/>
<path d="M315.045 758.618L315.045 765.673H322.1L322.1 758.618L315.045 758.618Z" fill="#78CEEF"/>
<path d="M338.854 758.912L338.854 765.379L345.32 765.379V758.912H338.854Z" fill="#78CEEF"/>
<path d="M362.689 759.233L362.689 765.058L368.514 765.058L368.514 759.233L362.689 759.233Z" fill="#78CEEF"/>
<path d="M9.75711 735.505L9.75711 741.757L16.0098 741.757L16.0098 735.505L9.75711 735.505Z" fill="#78CEEF"/>
<path d="M32.8708 735.104L32.8708 742.158L39.9252 742.158L39.9252 735.104H32.8708Z" fill="#78CEEF"/>
<path d="M55.9579 734.676L55.9579 742.586L63.8673 742.586L63.8673 734.676L55.9579 734.676Z" fill="#78CEEF"/>
<path d="M79.0716 734.275L79.0716 742.987L87.7827 742.987L87.7827 734.275L79.0716 734.275Z" fill="#78CEEF"/>
<path d="M102.185 733.875V743.387L111.698 743.387V733.875L102.185 733.875Z" fill="#78CEEF"/>
<path d="M125.272 733.447L125.272 743.815L135.64 743.815L135.64 733.447L125.272 733.447Z" fill="#78CEEF"/>
<path d="M148.386 733.046L148.386 744.216L159.555 744.216L159.555 733.046L148.386 733.046Z" fill="#78CEEF"/>
<path d="M171.5 732.645L171.5 744.617L183.471 744.617L183.471 732.645L171.5 732.645Z" fill="#78CEEF"/>
<path d="M194.587 732.218L194.587 745.044L207.413 745.044L207.413 732.218L194.587 732.218Z" fill="#78CEEF"/>
<path d="M218.529 732.645L218.529 744.617L230.5 744.617L230.5 732.645L218.529 732.645Z" fill="#78CEEF"/>
<path d="M242.444 733.046L242.444 744.216L253.614 744.216L253.614 733.046H242.444Z" fill="#78CEEF"/>
<path d="M266.36 733.447L266.36 743.815L276.727 743.815L276.727 733.447H266.36Z" fill="#78CEEF"/>
<path d="M290.302 733.875L290.302 743.387L299.814 743.387L299.814 733.875L290.302 733.875Z" fill="#78CEEF"/>
<path d="M314.217 734.275L314.217 742.987L322.928 742.987L322.928 734.275L314.217 734.275Z" fill="#78CEEF"/>
<path d="M338.133 734.676L338.133 742.586L346.042 742.586V734.676L338.133 734.676Z" fill="#78CEEF"/>
<path d="M362.075 735.104L362.075 742.158L369.129 742.158L369.129 735.104L362.075 735.104Z" fill="#78CEEF"/>
<path d="M385.99 735.505L385.99 741.757L392.243 741.757L392.243 735.505L385.99 735.505Z" fill="#78CEEF"/>
<path d="M-13.7575 711.99L-13.7574 718.243L-7.50471 718.243L-7.50471 711.99L-13.7575 711.99Z" fill="#78CEEF"/>
<path d="M9.24942 711.482L9.24942 718.751L16.5176 718.751V711.482H9.24942Z" fill="#78CEEF"/>
<path d="M32.2563 710.975L32.2563 719.258L40.5398 719.258L40.5398 710.975L32.2563 710.975Z" fill="#78CEEF"/>
<path d="M55.2631 710.467L55.2631 719.766L64.562 719.766L64.562 710.467L55.2631 710.467Z" fill="#78CEEF"/>
<path d="M78.2432 709.933L78.2432 720.3L88.611 720.3L88.611 709.933L78.2432 709.933Z" fill="#78CEEF"/>
<path d="M101.25 709.425L101.25 720.808L112.633 720.808L112.633 709.425L101.25 709.425Z" fill="#78CEEF"/>
<path d="M124.257 708.917V721.316H136.656V708.917H124.257Z" fill="#78CEEF"/>
<path d="M147.264 708.409L147.264 721.823L160.678 721.823L160.678 708.409L147.264 708.409Z" fill="#78CEEF"/>
<path d="M170.271 707.902L170.271 722.331L184.7 722.331L184.7 707.902L170.271 707.902Z" fill="#78CEEF"/>
<path d="M193.251 707.367L193.251 722.866L208.749 722.866L208.749 707.367L193.251 707.367Z" fill="#78CEEF"/>
<path d="M217.3 707.902L217.3 722.331L231.729 722.331L231.729 707.902H217.3Z" fill="#78CEEF"/>
<path d="M241.322 708.409L241.322 721.823L254.736 721.823L254.736 708.409L241.322 708.409Z" fill="#78CEEF"/>
<path d="M265.344 708.917V721.316H277.743V708.917H265.344Z" fill="#78CEEF"/>
<path d="M289.367 709.425L289.367 720.808L300.75 720.808L300.75 709.425L289.367 709.425Z" fill="#78CEEF"/>
<path d="M313.389 709.933L313.389 720.3L323.757 720.3L323.757 709.933L313.389 709.933Z" fill="#78CEEF"/>
<path d="M337.438 710.467L337.438 719.766L346.737 719.766L346.737 710.467L337.438 710.467Z" fill="#78CEEF"/>
<path d="M361.46 710.975V719.258L369.744 719.258V710.975L361.46 710.975Z" fill="#78CEEF"/>
<path d="M385.482 711.482V718.75H392.75V711.482H385.482Z" fill="#78CEEF"/>
<path d="M409.504 711.99L409.505 718.243H415.757L415.757 711.99L409.504 711.99Z" fill="#78CEEF"/>
<path d="M-37.0582 688.689L-37.0582 694.514L-31.233 694.514L-31.233 688.689L-37.0582 688.689Z" fill="#78CEEF"/>
<path d="M-14.1583 688.075L-14.1583 695.129L-7.10389 695.129V688.075H-14.1583Z" fill="#78CEEF"/>
<path d="M8.74172 687.46L8.7417 695.744L17.0253 695.744L17.0252 687.46L8.74172 687.46Z" fill="#78CEEF"/>
<path d="M31.6417 686.846L31.6417 696.358L41.1544 696.358L41.1544 686.846H31.6417Z" fill="#78CEEF"/>
<path d="M54.5417 686.231L54.5416 696.973L65.2835 696.973L65.2835 686.231L54.5417 686.231Z" fill="#78CEEF"/>
<path d="M77.4416 685.616V697.587H89.4127L89.4127 685.616L77.4416 685.616Z" fill="#78CEEF"/>
<path d="M100.342 685.002L100.342 698.202L113.542 698.202L113.542 685.002L100.342 685.002Z" fill="#78CEEF"/>
<path d="M123.242 684.387L123.242 698.817L137.671 698.817L137.671 684.387L123.242 684.387Z" fill="#78CEEF"/>
<path d="M146.142 683.773L146.142 699.431L161.8 699.431V683.773H146.142Z" fill="#78CEEF"/>
<path d="M169.041 683.158L169.041 700.046L185.929 700.046L185.929 683.158L169.041 683.158Z" fill="#78CEEF"/>
<path d="M191.915 682.517L191.915 700.687L210.085 700.687V682.517L191.915 682.517Z" fill="#78CEEF"/>
<path d="M216.071 683.158L216.071 700.046L232.958 700.046L232.958 683.158L216.071 683.158Z" fill="#78CEEF"/>
<path d="M240.2 683.773L240.2 699.431L255.858 699.431V683.773L240.2 683.773Z" fill="#78CEEF"/>
<path d="M264.329 684.387L264.329 698.817L278.758 698.817L278.758 684.387H264.329Z" fill="#78CEEF"/>
<path d="M288.458 685.002L288.458 698.202L301.658 698.202L301.658 685.002L288.458 685.002Z" fill="#78CEEF"/>
<path d="M312.587 685.616L312.587 697.587L324.558 697.587L324.558 685.616H312.587Z" fill="#78CEEF"/>
<path d="M336.716 686.231L336.716 696.973L347.458 696.973L347.458 686.231H336.716Z" fill="#78CEEF"/>
<path d="M360.845 686.846V696.358L370.358 696.358V686.846L360.845 686.846Z" fill="#78CEEF"/>
<path d="M384.975 687.46V695.744L393.258 695.744V687.46L384.975 687.46Z" fill="#78CEEF"/>
<path d="M409.104 688.075L409.104 695.129L416.158 695.129L416.158 688.075L409.104 688.075Z" fill="#78CEEF"/>
<path d="M433.233 688.689L433.233 694.514H439.058L439.058 688.689H433.233Z" fill="#78CEEF"/>
<path d="M-37.3789 664.854L-37.3789 671.321L-30.9124 671.321L-30.9124 664.854L-37.3789 664.854Z" fill="#78CEEF"/>
<path d="M-14.5858 664.133V672.042L-6.67637 672.042L-6.67636 664.133L-14.5858 664.133Z" fill="#78CEEF"/>
<path d="M8.23401 663.438L8.23401 672.737L17.533 672.737L17.5329 663.438L8.23401 663.438Z" fill="#78CEEF"/>
<path d="M31.0271 662.716L31.0271 673.458L41.769 673.458L41.769 662.716L31.0271 662.716Z" fill="#78CEEF"/>
<path d="M53.8202 661.995L53.8202 674.18L66.005 674.18L66.005 661.995L53.8202 661.995Z" fill="#78CEEF"/>
<path d="M76.6133 661.273L76.6133 674.901L90.241 674.901L90.241 661.273L76.6133 661.273Z" fill="#78CEEF"/>
<path d="M99.4063 660.552L99.4063 675.623L114.477 675.623L114.477 660.552L99.4063 660.552Z" fill="#78CEEF"/>
<path d="M122.199 659.831L122.199 676.344L138.713 676.344L138.713 659.831L122.199 659.831Z" fill="#78CEEF"/>
<path d="M144.993 659.109L144.993 677.066L162.949 677.066L162.949 659.109H144.993Z" fill="#78CEEF"/>
<path d="M167.786 658.388L167.786 677.787L187.185 677.787L187.185 658.388L167.786 658.388Z" fill="#78CEEF"/>
<path d="M190.605 657.693L190.605 678.482H211.394L211.394 657.693L190.605 657.693Z" fill="#78CEEF"/>
<path d="M214.815 658.388V677.787H234.214V658.388H214.815Z" fill="#78CEEF"/>
<path d="M239.051 659.109L239.051 677.066L257.007 677.066L257.007 659.109L239.051 659.109Z" fill="#78CEEF"/>
<path d="M263.287 659.831L263.287 676.344L279.8 676.344L279.8 659.831L263.287 659.831Z" fill="#78CEEF"/>
<path d="M287.523 660.552V675.623H302.593V660.552H287.523Z" fill="#78CEEF"/>
<path d="M311.759 661.273V674.901L325.387 674.901V661.273L311.759 661.273Z" fill="#78CEEF"/>
<path d="M335.995 661.995L335.995 674.18H348.18L348.18 661.995L335.995 661.995Z" fill="#78CEEF"/>
<path d="M360.231 662.716L360.231 673.458H370.973L370.973 662.716H360.231Z" fill="#78CEEF"/>
<path d="M384.467 663.438V672.737L393.766 672.737L393.766 663.438H384.467Z" fill="#78CEEF"/>
<path d="M408.676 664.133L408.676 672.042L416.586 672.042V664.133L408.676 664.133Z" fill="#78CEEF"/>
<path d="M432.912 664.854V671.321H439.379L439.379 664.854L432.912 664.854Z" fill="#78CEEF"/>
<path d="M-60.359 641.874L-60.359 647.272L-54.9613 647.272L-54.9613 641.874L-60.359 641.874Z" fill="#78CEEF"/>
<path d="M-37.6728 641.046V648.1H-30.6184L-30.6184 641.046L-37.6728 641.046Z" fill="#78CEEF"/>
<path d="M-14.9866 640.217L-14.9866 648.928L-6.27554 648.928L-6.27553 640.217L-14.9866 640.217Z" fill="#78CEEF"/>
<path d="M7.69959 639.389L7.69958 649.757H18.0674L18.0674 639.389H7.69959Z" fill="#78CEEF"/>
<path d="M30.4125 638.587V650.558H42.3836L42.3836 638.587L30.4125 638.587Z" fill="#78CEEF"/>
<path d="M53.0987 637.759L53.0987 651.387L66.7264 651.387L66.7265 637.759L53.0987 637.759Z" fill="#78CEEF"/>
<path d="M75.7849 636.931L75.7849 652.215H91.0694L91.0694 636.931L75.7849 636.931Z" fill="#78CEEF"/>
<path d="M98.4978 636.129V653.017H115.386L115.386 636.129L98.4978 636.129Z" fill="#78CEEF"/>
<path d="M121.184 635.301L121.184 653.845L139.728 653.845L139.728 635.301L121.184 635.301Z" fill="#78CEEF"/>
<path d="M143.87 634.472L143.87 654.673L164.071 654.673L164.071 634.472L143.87 634.472Z" fill="#78CEEF"/>
<path d="M166.556 633.644L166.556 655.502L188.414 655.502L188.414 633.644L166.556 633.644Z" fill="#78CEEF"/>
<path d="M189.269 632.842L189.269 656.303L212.73 656.303L212.73 632.842L189.269 632.842Z" fill="#78CEEF"/>
<path d="M213.586 633.644L213.586 655.502L235.443 655.502V633.644H213.586Z" fill="#78CEEF"/>
<path d="M237.928 634.472L237.928 654.673L258.13 654.673L258.13 634.472L237.928 634.472Z" fill="#78CEEF"/>
<path d="M262.271 635.301L262.271 653.845L280.816 653.845V635.301L262.271 635.301Z" fill="#78CEEF"/>
<path d="M286.614 636.129V653.017H303.502V636.129H286.614Z" fill="#78CEEF"/>
<path d="M310.93 636.931L310.93 652.215H326.215L326.215 636.931H310.93Z" fill="#78CEEF"/>
<path d="M335.273 637.759V651.387L348.901 651.387V637.759L335.273 637.759Z" fill="#78CEEF"/>
<path d="M359.616 638.587L359.616 650.558L371.587 650.558V638.587H359.616Z" fill="#78CEEF"/>
<path d="M383.932 639.389V649.757H394.3V639.389L383.932 639.389Z" fill="#78CEEF"/>
<path d="M408.275 640.217L408.275 648.928L416.986 648.928L416.986 640.217L408.275 640.217Z" fill="#78CEEF"/>
<path d="M432.618 641.046L432.618 648.1H439.673L439.673 641.046H432.618Z" fill="#78CEEF"/>
<path d="M456.961 641.874L456.961 647.272L462.359 647.272L462.359 641.874L456.961 641.874Z" fill="#78CEEF"/>
<path d="M-60.5728 618.146V623.971L-54.7476 623.971L-54.7476 618.146L-60.5728 618.146Z" fill="#78CEEF"/>
<path d="M-37.9935 617.21L-37.9935 624.906H-30.2978L-30.2978 617.21H-37.9935Z" fill="#78CEEF"/>
<path d="M-15.3874 616.302L-15.3874 625.815H-5.87472L-5.87471 616.302H-15.3874Z" fill="#78CEEF"/>
<path d="M7.19189 615.367L7.1919 626.75L18.5751 626.75L18.5751 615.367L7.19189 615.367Z" fill="#78CEEF"/>
<path d="M29.7979 614.458L29.7979 627.658L42.9981 627.658L42.9981 614.458L29.7979 614.458Z" fill="#78CEEF"/>
<path d="M52.3772 613.523L52.3772 628.594L67.4479 628.594L67.4479 613.523L52.3772 613.523Z" fill="#78CEEF"/>
<path d="M74.9833 612.614L74.9833 629.502H91.871L91.871 612.614L74.9833 612.614Z" fill="#78CEEF"/>
<path d="M97.5626 611.679V630.437H116.321V611.679H97.5626Z" fill="#78CEEF"/>
<path d="M120.142 610.744V631.373H140.771L140.771 610.744L120.142 610.744Z" fill="#78CEEF"/>
<path d="M142.748 609.835L142.748 632.281H165.194L165.194 609.835L142.748 609.835Z" fill="#78CEEF"/>
<path d="M165.327 608.9L165.327 633.216L189.643 633.216L189.643 608.9H165.327Z" fill="#78CEEF"/>
<path d="M187.933 607.992V634.125H214.067V607.992H187.933Z" fill="#78CEEF"/>
<path d="M212.356 608.9L212.356 633.216H236.673L236.673 608.9H212.356Z" fill="#78CEEF"/>
<path d="M236.806 609.835L236.806 632.281L259.252 632.281L259.252 609.835L236.806 609.835Z" fill="#78CEEF"/>
<path d="M261.229 610.744L261.229 631.373L281.858 631.373V610.744H261.229Z" fill="#78CEEF"/>
<path d="M285.679 611.679V630.437H304.437L304.437 611.679L285.679 611.679Z" fill="#78CEEF"/>
<path d="M310.129 612.614L310.129 629.502H327.017V612.614L310.129 612.614Z" fill="#78CEEF"/>
<path d="M334.552 613.523L334.552 628.594H349.623V613.523L334.552 613.523Z" fill="#78CEEF"/>
<path d="M359.002 614.458V627.658H372.202V614.458H359.002Z" fill="#78CEEF"/>
<path d="M383.425 615.367L383.425 626.75H394.808L394.808 615.367L383.425 615.367Z" fill="#78CEEF"/>
<path d="M407.875 616.302L407.875 625.815L417.387 625.815V616.302H407.875Z" fill="#78CEEF"/>
<path d="M432.298 617.21L432.298 624.906L439.993 624.906V617.21H432.298Z" fill="#78CEEF"/>
<path d="M456.747 618.146L456.747 623.971L462.573 623.971V618.146H456.747Z" fill="#78CEEF"/>
<path d="M-83.259 595.459L-83.259 599.628L-79.0905 599.628L-79.0905 595.459L-83.259 595.459Z" fill="#78CEEF"/>
<path d="M-60.7865 594.417L-60.7865 600.67L-54.5338 600.67V594.417L-60.7865 594.417Z" fill="#78CEEF"/>
<path d="M-38.2874 593.402V601.685H-30.0039L-30.0039 593.402L-38.2874 593.402Z" fill="#78CEEF"/>
<path d="M-15.815 592.36L-15.815 602.728H-5.44717L-5.44718 592.36H-15.815Z" fill="#78CEEF"/>
<path d="M6.68419 591.344V603.743H19.0828V591.344H6.68419Z" fill="#78CEEF"/>
<path d="M29.1833 590.329L29.1833 604.758L43.6127 604.758L43.6127 590.329L29.1833 590.329Z" fill="#78CEEF"/>
<path d="M51.6558 589.287L51.6558 605.8L68.1694 605.8V589.287H51.6558Z" fill="#78CEEF"/>
<path d="M74.1549 588.271L74.1549 606.816L92.6994 606.816L92.6994 588.271L74.1549 588.271Z" fill="#78CEEF"/>
<path d="M96.6274 587.229L96.6273 607.858L117.256 607.858L117.256 587.229L96.6274 587.229Z" fill="#78CEEF"/>
<path d="M119.127 586.214L119.127 608.873L141.786 608.873L141.786 586.214L119.127 586.214Z" fill="#78CEEF"/>
<path d="M141.626 585.199V609.889L166.316 609.889L166.316 585.199L141.626 585.199Z" fill="#78CEEF"/>
<path d="M164.098 584.156V610.931H190.873V584.156H164.098Z" fill="#78CEEF"/>
<path d="M186.597 583.141L186.597 611.946L215.403 611.946L215.403 583.141L186.597 583.141Z" fill="#78CEEF"/>
<path d="M211.127 584.156L211.127 610.931L237.902 610.931V584.156L211.127 584.156Z" fill="#78CEEF"/>
<path d="M235.684 585.199L235.684 609.889H260.374V585.199L235.684 585.199Z" fill="#78CEEF"/>
<path d="M260.214 586.214L260.214 608.873H282.873L282.873 586.214H260.214Z" fill="#78CEEF"/>
<path d="M284.744 587.229V607.858L305.372 607.858V587.229L284.744 587.229Z" fill="#78CEEF"/>
<path d="M309.3 588.271V606.816H327.845V588.271H309.3Z" fill="#78CEEF"/>
<path d="M333.83 589.287V605.8H350.344L350.344 589.287L333.83 589.287Z" fill="#78CEEF"/>
<path d="M358.387 590.329V604.758H372.816V590.329L358.387 590.329Z" fill="#78CEEF"/>
<path d="M382.917 591.344V603.743H395.316V591.344H382.917Z" fill="#78CEEF"/>
<path d="M407.447 592.36V602.728L417.815 602.728V592.36L407.447 592.36Z" fill="#78CEEF"/>
<path d="M432.004 593.402V601.685L440.287 601.685V593.402L432.004 593.402Z" fill="#78CEEF"/>
<path d="M456.534 594.417L456.534 600.67L462.786 600.67V594.417H456.534Z" fill="#78CEEF"/>
<path d="M481.09 595.459V599.628H485.259V595.459H481.09Z" fill="#78CEEF"/>
<path d="M-83.3659 571.838L-83.3659 576.22L-78.9836 576.22L-78.9836 571.838L-83.3659 571.838Z" fill="#78CEEF"/>
<path d="M-60.9736 570.716V577.343L-54.3468 577.343L-54.3468 570.716L-60.9736 570.716Z" fill="#78CEEF"/>
<path d="M-38.608 569.567L-38.608 578.492L-29.6832 578.492L-29.6832 569.567L-38.608 569.567Z" fill="#78CEEF"/>
<path d="M-16.2158 568.444L-16.2158 579.614H-5.04637L-5.04636 568.444L-16.2158 568.444Z" fill="#78CEEF"/>
<path d="M6.17648 567.322L6.17649 580.736L19.5905 580.736L19.5905 567.322L6.17648 567.322Z" fill="#78CEEF"/>
<path d="M28.5688 566.2L28.5688 581.858L44.2273 581.858V566.2H28.5688Z" fill="#78CEEF"/>
<path d="M50.9343 565.051L50.9343 583.007H68.8909L68.8909 565.051H50.9343Z" fill="#78CEEF"/>
<path d="M73.3266 563.929L73.3266 584.13H93.5277L93.5277 563.929L73.3266 563.929Z" fill="#78CEEF"/>
<path d="M95.7188 562.806V585.252H118.165L118.165 562.806L95.7188 562.806Z" fill="#78CEEF"/>
<path d="M118.111 561.684L118.111 586.374H142.801L142.801 561.684L118.111 561.684Z" fill="#78CEEF"/>
<path d="M140.477 560.535L140.477 587.523L167.465 587.523L167.465 560.535L140.477 560.535Z" fill="#78CEEF"/>
<path d="M162.869 559.413L162.869 588.646L192.102 588.646L192.102 559.413L162.869 559.413Z" fill="#78CEEF"/>
<path d="M185.261 558.29L185.261 589.768L216.739 589.768L216.739 558.29H185.261Z" fill="#78CEEF"/>
<path d="M209.898 559.413L209.898 588.646L239.131 588.646L239.131 559.413L209.898 559.413Z" fill="#78CEEF"/>
<path d="M234.535 560.535L234.535 587.523H261.523L261.523 560.535H234.535Z" fill="#78CEEF"/>
<path d="M259.198 561.684L259.198 586.374L283.889 586.374V561.684H259.198Z" fill="#78CEEF"/>
<path d="M283.835 562.806V585.252H306.281L306.281 562.806L283.835 562.806Z" fill="#78CEEF"/>
<path d="M308.472 563.929V584.13H328.673V563.929H308.472Z" fill="#78CEEF"/>
<path d="M333.109 565.051V583.007H351.066V565.051H333.109Z" fill="#78CEEF"/>
<path d="M357.772 566.2V581.858L373.431 581.858V566.2L357.772 566.2Z" fill="#78CEEF"/>
<path d="M382.409 567.322V580.736L395.823 580.736L395.823 567.322H382.409Z" fill="#78CEEF"/>
<path d="M407.046 568.444V579.614L418.216 579.614V568.444L407.046 568.444Z" fill="#78CEEF"/>
<path d="M431.683 569.567L431.683 578.492H440.608L440.608 569.567H431.683Z" fill="#78CEEF"/>
<path d="M456.347 570.716V577.343L462.973 577.343V570.716L456.347 570.716Z" fill="#78CEEF"/>
<path d="M480.983 571.838L480.983 576.22L485.366 576.22V571.838L480.983 571.838Z" fill="#78CEEF"/>
<path d="M-83.4727 548.217L-83.4727 552.813H-78.8767L-78.8767 548.217H-83.4727Z" fill="#78CEEF"/>
<path d="M-61.1874 546.987L-61.1874 554.042H-54.133L-54.133 546.987H-61.1874Z" fill="#78CEEF"/>
<path d="M-38.902 545.758L-38.902 555.271L-29.3893 555.271L-29.3893 545.758H-38.902Z" fill="#78CEEF"/>
<path d="M-16.6166 544.529L-16.6166 556.5L-4.64556 556.5L-4.64554 544.529L-16.6166 544.529Z" fill="#78CEEF"/>
<path d="M5.66879 543.3L5.6688 557.729L20.0982 557.729V543.3H5.66879Z" fill="#78CEEF"/>
<path d="M27.9542 542.071L27.9542 558.958L44.8419 558.958L44.8419 542.071L27.9542 542.071Z" fill="#78CEEF"/>
<path d="M50.2128 540.815L50.2128 560.214L69.6123 560.214V540.815H50.2128Z" fill="#78CEEF"/>
<path d="M72.4982 539.586V561.443L94.3561 561.443V539.586L72.4982 539.586Z" fill="#78CEEF"/>
<path d="M94.7836 538.356V562.673L119.1 562.673V538.356L94.7836 538.356Z" fill="#78CEEF"/>
<path d="M117.069 537.127V563.902L143.844 563.902L143.844 537.127H117.069Z" fill="#78CEEF"/>
<path d="M139.354 535.898L139.354 565.131L168.587 565.131L168.587 535.898L139.354 535.898Z" fill="#78CEEF"/>
<path d="M161.64 534.669L161.64 566.36L193.331 566.36V534.669L161.64 534.669Z" fill="#78CEEF"/>
<path d="M183.925 533.44L183.925 567.589L218.075 567.589L218.075 533.44L183.925 533.44Z" fill="#78CEEF"/>
<path d="M208.669 534.669L208.669 566.36L240.36 566.36L240.36 534.669L208.669 534.669Z" fill="#78CEEF"/>
<path d="M233.413 535.898L233.413 565.131H262.645L262.645 535.898H233.413Z" fill="#78CEEF"/>
<path d="M258.156 537.127V563.902L284.931 563.902V537.127L258.156 537.127Z" fill="#78CEEF"/>
<path d="M282.9 538.356L282.9 562.673H307.216L307.216 538.356H282.9Z" fill="#78CEEF"/>
<path d="M307.644 539.586V561.443L329.502 561.443V539.586L307.644 539.586Z" fill="#78CEEF"/>
<path d="M332.387 540.815V560.214H351.787L351.787 540.815L332.387 540.815Z" fill="#78CEEF"/>
<path d="M357.158 542.071V558.958L374.046 558.958V542.071L357.158 542.071Z" fill="#78CEEF"/>
<path d="M381.902 543.3V557.729L396.331 557.729L396.331 543.3H381.902Z" fill="#78CEEF"/>
<path d="M406.645 544.529V556.5L418.616 556.5V544.529L406.645 544.529Z" fill="#78CEEF"/>
<path d="M431.389 545.758L431.389 555.271L440.902 555.271V545.758H431.389Z" fill="#78CEEF"/>
<path d="M456.133 546.987V554.042L463.187 554.042V546.987L456.133 546.987Z" fill="#78CEEF"/>
<path d="M480.877 548.217L480.877 552.813H485.473L485.473 548.217L480.877 548.217Z" fill="#78CEEF"/>
<path d="M-83.5796 524.595V529.405L-78.7698 529.405L-78.7698 524.595H-83.5796Z" fill="#78CEEF"/>
<path d="M-61.4011 523.259L-61.4011 530.741H-53.9192L-53.9192 523.259H-61.4011Z" fill="#78CEEF"/>
<path d="M-39.2226 521.923V532.077L-29.0686 532.077V521.923L-39.2226 521.923Z" fill="#78CEEF"/>
<path d="M-17.0441 520.587L-17.0441 533.413L-4.218 533.413L-4.21801 520.587L-17.0441 520.587Z" fill="#78CEEF"/>
<path d="M5.13437 519.251V534.749H20.6326L20.6326 519.251L5.13437 519.251Z" fill="#78CEEF"/>
<path d="M27.3129 517.915L27.3129 536.085L45.4832 536.085L45.4832 517.915L27.3129 517.915Z" fill="#78CEEF"/>
<path d="M49.5181 516.606V537.395H70.3071L70.3071 516.606L49.5181 516.606Z" fill="#78CEEF"/>
<path d="M71.6966 515.269V538.731H95.1577V515.269H71.6966Z" fill="#78CEEF"/>
<path d="M93.8751 513.933V540.067H120.008V513.933H93.8751Z" fill="#78CEEF"/>
<path d="M116.054 512.597L116.054 541.403L144.859 541.403V512.597H116.054Z" fill="#78CEEF"/>
<path d="M138.232 511.261L138.232 542.739L169.71 542.739V511.261L138.232 511.261Z" fill="#78CEEF"/>
<path d="M160.411 509.925L160.411 544.075L194.56 544.075L194.56 509.925L160.411 509.925Z" fill="#78CEEF"/>
<path d="M182.589 508.589V545.411H219.411V508.589H182.589Z" fill="#78CEEF"/>
<path d="M207.44 509.925L207.44 544.075L241.589 544.075V509.925H207.44Z" fill="#78CEEF"/>
<path d="M232.29 511.261V542.739L263.768 542.739L263.768 511.261H232.29Z" fill="#78CEEF"/>
<path d="M257.141 512.597L257.141 541.403H285.946V512.597L257.141 512.597Z" fill="#78CEEF"/>
<path d="M281.992 513.933V540.067H308.125L308.125 513.933L281.992 513.933Z" fill="#78CEEF"/>
<path d="M306.842 515.269L306.842 538.731L330.303 538.731L330.303 515.269L306.842 515.269Z" fill="#78CEEF"/>
<path d="M331.693 516.606L331.693 537.395L352.482 537.394L352.482 516.606H331.693Z" fill="#78CEEF"/>
<path d="M356.517 517.915L356.517 536.085H374.687V517.915L356.517 517.915Z" fill="#78CEEF"/>
<path d="M381.367 519.251V534.749H396.865L396.865 519.251L381.367 519.251Z" fill="#78CEEF"/>
<path d="M406.218 520.587L406.218 533.413H419.044V520.587L406.218 520.587Z" fill="#78CEEF"/>
<path d="M431.068 521.923V532.077L441.222 532.077V521.923L431.068 521.923Z" fill="#78CEEF"/>
<path d="M455.919 523.259L455.919 530.741L463.401 530.741L463.401 523.259H455.919Z" fill="#78CEEF"/>
<path d="M480.77 524.595L480.77 529.405L485.579 529.405V524.595H480.77Z" fill="#78CEEF"/>
<path d="M-83.4727 501.187V505.783L-78.8767 505.783V501.187L-83.4727 501.187Z" fill="#78CEEF"/>
<path d="M-61.1874 499.958L-61.1874 507.013H-54.133L-54.133 499.958L-61.1874 499.958Z" fill="#78CEEF"/>
<path d="M-38.902 498.729V508.242H-29.3893L-29.3893 498.729L-38.902 498.729Z" fill="#78CEEF"/>
<path d="M-16.6166 497.5L-16.6166 509.471H-4.64555L-4.64554 497.5L-16.6166 497.5Z" fill="#78CEEF"/>
<path d="M5.66879 496.271L5.66879 510.7H20.0982V496.271L5.66879 496.271Z" fill="#78CEEF"/>
<path d="M27.9542 495.042L27.9542 511.929H44.8419V495.042L27.9542 495.042Z" fill="#78CEEF"/>
<path d="M50.2128 493.786V513.185L69.6123 513.185L69.6124 493.786H50.2128Z" fill="#78CEEF"/>
<path d="M72.4982 492.557L72.4982 514.414L94.356 514.414L94.3561 492.557L72.4982 492.557Z" fill="#78CEEF"/>
<path d="M94.7836 491.327L94.7836 515.644L119.1 515.644L119.1 491.327L94.7836 491.327Z" fill="#78CEEF"/>
<path d="M117.069 490.098L117.069 516.873H143.843L143.844 490.098L117.069 490.098Z" fill="#78CEEF"/>
<path d="M139.354 488.869L139.354 518.102H168.587V488.869L139.354 488.869Z" fill="#78CEEF"/>
<path d="M161.64 487.64V519.331L193.331 519.331L193.331 487.64H161.64Z" fill="#78CEEF"/>
<path d="M183.925 486.411L183.925 520.56L218.075 520.56V486.411H183.925Z" fill="#78CEEF"/>
<path d="M208.669 487.64L208.669 519.331H240.36V487.64L208.669 487.64Z" fill="#78CEEF"/>
<path d="M233.413 488.869L233.413 518.102H262.645L262.645 488.869H233.413Z" fill="#78CEEF"/>
<path d="M258.156 490.098L258.156 516.873H284.931V490.098L258.156 490.098Z" fill="#78CEEF"/>
<path d="M282.9 491.327L282.9 515.644L307.216 515.644V491.327H282.9Z" fill="#78CEEF"/>
<path d="M307.644 492.557V514.414L329.502 514.414V492.557H307.644Z" fill="#78CEEF"/>
<path d="M332.387 493.786L332.387 513.185L351.787 513.185L351.787 493.786L332.387 493.786Z" fill="#78CEEF"/>
<path d="M357.158 495.042V511.929L374.046 511.929V495.042L357.158 495.042Z" fill="#78CEEF"/>
<path d="M381.902 496.271V510.7H396.331V496.271L381.902 496.271Z" fill="#78CEEF"/>
<path d="M406.645 497.5L406.645 509.471H418.616V497.5H406.645Z" fill="#78CEEF"/>
<path d="M431.389 498.729L431.389 508.242L440.902 508.242L440.902 498.729L431.389 498.729Z" fill="#78CEEF"/>
<path d="M456.133 499.958V507.013L463.187 507.013V499.958L456.133 499.958Z" fill="#78CEEF"/>
<path d="M480.877 501.187L480.877 505.783H485.473L485.473 501.187L480.877 501.187Z" fill="#78CEEF"/>
<path d="M-83.3659 477.78V482.162H-78.9836L-78.9836 477.78L-83.3659 477.78Z" fill="#78CEEF"/>
<path d="M-60.9736 476.658V483.284L-54.3468 483.284L-54.3468 476.658L-60.9736 476.658Z" fill="#78CEEF"/>
<path d="M-38.608 475.508L-38.608 484.433L-29.6832 484.433V475.508L-38.608 475.508Z" fill="#78CEEF"/>
<path d="M-16.2158 474.386L-16.2158 485.556L-5.04638 485.556L-5.04636 474.386L-16.2158 474.386Z" fill="#78CEEF"/>
<path d="M6.17649 473.264V486.678H19.5905V473.264H6.17649Z" fill="#78CEEF"/>
<path d="M28.5688 472.142L28.5688 487.8L44.2273 487.8V472.142H28.5688Z" fill="#78CEEF"/>
<path d="M50.9343 470.993V488.949L68.8909 488.949V470.993H50.9343Z" fill="#78CEEF"/>
<path d="M73.3266 469.87V490.071H93.5277V469.87H73.3266Z" fill="#78CEEF"/>
<path d="M95.7188 468.748L95.7188 491.194H118.165L118.165 468.748L95.7188 468.748Z" fill="#78CEEF"/>
<path d="M118.111 467.626L118.111 492.316H142.801V467.626L118.111 467.626Z" fill="#78CEEF"/>
<path d="M140.477 466.477V493.465L167.465 493.465V466.477L140.477 466.477Z" fill="#78CEEF"/>
<path d="M162.869 465.354V494.587H192.102L192.102 465.354L162.869 465.354Z" fill="#78CEEF"/>
<path d="M185.261 464.232L185.261 495.71H216.739V464.232L185.261 464.232Z" fill="#78CEEF"/>
<path d="M209.898 465.354L209.898 494.587L239.131 494.587V465.354L209.898 465.354Z" fill="#78CEEF"/>
<path d="M234.535 466.477L234.535 493.465L261.523 493.465L261.523 466.477L234.535 466.477Z" fill="#78CEEF"/>
<path d="M259.198 467.626L259.198 492.316L283.889 492.316V467.626H259.198Z" fill="#78CEEF"/>
<path d="M283.835 468.748L283.835 491.194L306.281 491.194L306.281 468.748L283.835 468.748Z" fill="#78CEEF"/>
<path d="M308.472 469.87L308.472 490.071H328.673L328.673 469.87H308.472Z" fill="#78CEEF"/>
<path d="M333.109 470.993V488.949L351.066 488.949L351.066 470.993H333.109Z" fill="#78CEEF"/>
<path d="M357.773 472.142L357.772 487.8L373.431 487.8V472.142H357.773Z" fill="#78CEEF"/>
<path d="M382.409 473.264L382.409 486.678L395.823 486.678L395.823 473.264L382.409 473.264Z" fill="#78CEEF"/>
<path d="M407.046 474.386V485.556L418.216 485.556L418.216 474.386L407.046 474.386Z" fill="#78CEEF"/>
<path d="M431.683 475.508L431.683 484.433L440.608 484.433V475.508H431.683Z" fill="#78CEEF"/>
<path d="M456.347 476.658V483.284L462.973 483.284L462.973 476.657L456.347 476.658Z" fill="#78CEEF"/>
<path d="M480.983 477.78L480.983 482.162L485.366 482.162L485.366 477.78L480.983 477.78Z" fill="#78CEEF"/>
<path d="M-83.259 454.372L-83.259 458.541L-79.0905 458.541L-79.0905 454.372L-83.259 454.372Z" fill="#78CEEF"/>
<path d="M-60.7865 453.33L-60.7866 459.583L-54.5338 459.583V453.33L-60.7865 453.33Z" fill="#78CEEF"/>
<path d="M-38.2874 452.315V460.598L-30.0039 460.598L-30.0039 452.315H-38.2874Z" fill="#78CEEF"/>
<path d="M-15.815 451.272L-15.815 461.64H-5.44718L-5.44717 451.272L-15.815 451.272Z" fill="#78CEEF"/>
<path d="M6.68419 450.257V462.656H19.0828V450.257H6.68419Z" fill="#78CEEF"/>
<path d="M29.1833 449.242L29.1833 463.671L43.6127 463.671L43.6127 449.242L29.1833 449.242Z" fill="#78CEEF"/>
<path d="M51.6558 448.2L51.6558 464.713H68.1694L68.1694 448.2L51.6558 448.2Z" fill="#78CEEF"/>
<path d="M74.1549 447.184V465.729H92.6994L92.6993 447.184L74.1549 447.184Z" fill="#78CEEF"/>
<path d="M96.6274 446.142L96.6273 466.771L117.256 466.771V446.142H96.6274Z" fill="#78CEEF"/>
<path d="M119.126 445.127L119.127 467.786L141.786 467.786L141.786 445.127H119.126Z" fill="#78CEEF"/>
<path d="M141.626 444.111L141.626 468.801H166.316L166.316 444.111L141.626 444.111Z" fill="#78CEEF"/>
<path d="M164.098 443.069L164.098 469.844H190.873L190.873 443.069H164.098Z" fill="#78CEEF"/>
<path d="M186.597 442.054V470.859H215.403V442.054H186.597Z" fill="#78CEEF"/>
<path d="M211.127 443.069V469.844H237.902L237.902 443.069H211.127Z" fill="#78CEEF"/>
<path d="M235.684 444.111L235.684 468.801L260.374 468.801V444.111H235.684Z" fill="#78CEEF"/>
<path d="M260.214 445.127V467.786L282.873 467.786V445.127L260.214 445.127Z" fill="#78CEEF"/>
<path d="M284.744 446.142V466.771H305.372V446.142H284.744Z" fill="#78CEEF"/>
<path d="M309.3 447.184L309.3 465.729H327.845L327.845 447.184L309.3 447.184Z" fill="#78CEEF"/>
<path d="M333.83 448.2L333.83 464.713L350.344 464.713L350.344 448.2H333.83Z" fill="#78CEEF"/>
<path d="M358.387 449.242V463.671L372.816 463.671L372.816 449.242H358.387Z" fill="#78CEEF"/>
<path d="M382.917 450.257V462.656H395.316V450.257H382.917Z" fill="#78CEEF"/>
<path d="M407.447 451.272V461.64L417.815 461.64V451.272L407.447 451.272Z" fill="#78CEEF"/>
<path d="M432.004 452.315L432.004 460.598L440.287 460.598V452.315H432.004Z" fill="#78CEEF"/>
<path d="M456.534 453.33L456.534 459.583L462.786 459.583L462.786 453.33L456.534 453.33Z" fill="#78CEEF"/>
<path d="M481.09 454.372V458.541H485.259V454.372H481.09Z" fill="#78CEEF"/>
<path d="M-60.5728 430.029L-60.5728 435.854L-54.7476 435.854L-54.7476 430.029L-60.5728 430.029Z" fill="#78CEEF"/>
<path d="M-37.9935 429.094L-37.9935 436.79H-30.2978L-30.2978 429.094L-37.9935 429.094Z" fill="#78CEEF"/>
<path d="M-15.3874 428.185L-15.3874 437.698L-5.87471 437.698L-5.87472 428.185L-15.3874 428.185Z" fill="#78CEEF"/>
<path d="M7.1919 427.25L7.19189 438.633L18.5751 438.633V427.25H7.1919Z" fill="#78CEEF"/>
<path d="M29.7979 426.342L29.7979 439.542L42.9981 439.542V426.342L29.7979 426.342Z" fill="#78CEEF"/>
<path d="M52.3772 425.406L52.3772 440.477L67.4479 440.477L67.4479 425.406L52.3772 425.406Z" fill="#78CEEF"/>
<path d="M74.9833 424.498L74.9833 441.386L91.871 441.386V424.498L74.9833 424.498Z" fill="#78CEEF"/>
<path d="M97.5626 423.563V442.321H116.321V423.563H97.5626Z" fill="#78CEEF"/>
<path d="M120.142 422.627L120.142 443.256H140.771L140.771 422.627L120.142 422.627Z" fill="#78CEEF"/>
<path d="M142.748 421.719V444.165L165.194 444.165L165.194 421.719L142.748 421.719Z" fill="#78CEEF"/>
<path d="M165.327 420.784L165.327 445.1H189.643V420.784L165.327 420.784Z" fill="#78CEEF"/>
<path d="M187.933 419.875V446.008H214.067L214.067 419.875L187.933 419.875Z" fill="#78CEEF"/>
<path d="M212.356 420.784V445.1L236.673 445.1V420.784L212.356 420.784Z" fill="#78CEEF"/>
<path d="M236.806 421.719L236.806 444.165H259.252L259.252 421.719L236.806 421.719Z" fill="#78CEEF"/>
<path d="M261.229 422.627L261.229 443.256H281.858V422.627L261.229 422.627Z" fill="#78CEEF"/>
<path d="M285.679 423.563V442.321L304.437 442.321L304.437 423.563H285.679Z" fill="#78CEEF"/>
<path d="M310.129 424.498V441.386H327.017V424.498H310.129Z" fill="#78CEEF"/>
<path d="M334.552 425.406L334.552 440.477L349.623 440.477V425.406H334.552Z" fill="#78CEEF"/>
<path d="M359.002 426.342V439.542L372.202 439.542V426.342L359.002 426.342Z" fill="#78CEEF"/>
<path d="M383.425 427.25L383.425 438.633L394.808 438.633L394.808 427.25L383.425 427.25Z" fill="#78CEEF"/>
<path d="M407.875 428.185L407.875 437.698L417.387 437.698L417.387 428.185L407.875 428.185Z" fill="#78CEEF"/>
<path d="M432.298 429.094L432.298 436.79H439.993V429.094L432.298 429.094Z" fill="#78CEEF"/>
<path d="M456.747 430.029V435.854H462.573V430.029H456.747Z" fill="#78CEEF"/>
<path d="M-60.359 406.728L-60.359 412.126L-54.9613 412.126L-54.9614 406.728L-60.359 406.728Z" fill="#78CEEF"/>
<path d="M-37.6728 405.9L-37.6728 412.954L-30.6185 412.954L-30.6184 405.9H-37.6728Z" fill="#78CEEF"/>
<path d="M-14.9866 405.072L-14.9866 413.783L-6.27555 413.783L-6.27554 405.072L-14.9866 405.072Z" fill="#78CEEF"/>
<path d="M7.69959 404.243L7.6996 414.611L18.0674 414.611L18.0674 404.243H7.69959Z" fill="#78CEEF"/>
<path d="M30.4125 403.442L30.4125 415.413H42.3836L42.3836 403.442L30.4125 403.442Z" fill="#78CEEF"/>
<path d="M53.0987 402.613V416.241L66.7265 416.241L66.7265 402.613L53.0987 402.613Z" fill="#78CEEF"/>
<path d="M75.7849 401.785L75.7849 417.069H91.0694L91.0694 401.785L75.7849 401.785Z" fill="#78CEEF"/>
<path d="M98.4978 400.983V417.871L115.386 417.871L115.386 400.983L98.4978 400.983Z" fill="#78CEEF"/>
<path d="M121.184 400.155L121.184 418.699H139.728V400.155L121.184 400.155Z" fill="#78CEEF"/>
<path d="M143.87 399.327V419.528L164.071 419.528L164.071 399.327H143.87Z" fill="#78CEEF"/>
<path d="M166.556 398.498L166.556 420.356L188.414 420.356L188.414 398.498L166.556 398.498Z" fill="#78CEEF"/>
<path d="M189.269 397.697V421.158H212.73V397.697H189.269Z" fill="#78CEEF"/>
<path d="M213.586 398.498L213.586 420.356L235.443 420.356V398.498L213.586 398.498Z" fill="#78CEEF"/>
<path d="M237.928 399.327V419.528L258.13 419.528V399.327L237.928 399.327Z" fill="#78CEEF"/>
<path d="M262.271 400.155V418.699L280.816 418.699L280.816 400.155L262.271 400.155Z" fill="#78CEEF"/>
<path d="M286.614 400.983V417.871H303.502V400.983H286.614Z" fill="#78CEEF"/>
<path d="M310.93 401.785L310.93 417.069H326.215L326.215 401.785H310.93Z" fill="#78CEEF"/>
<path d="M335.273 402.613V416.241H348.901L348.901 402.613L335.273 402.613Z" fill="#78CEEF"/>
<path d="M359.616 403.442V415.413L371.587 415.413V403.442H359.616Z" fill="#78CEEF"/>
<path d="M383.932 404.243V414.611H394.3V404.243H383.932Z" fill="#78CEEF"/>
<path d="M408.275 405.072V413.783L416.986 413.783V405.072L408.275 405.072Z" fill="#78CEEF"/>
<path d="M432.618 405.9V412.954H439.673V405.9H432.618Z" fill="#78CEEF"/>
<path d="M456.961 406.728L456.961 412.126L462.359 412.126L462.359 406.728L456.961 406.728Z" fill="#78CEEF"/>
<path d="M-37.3789 382.679L-37.3789 389.146L-30.9124 389.146L-30.9124 382.679L-37.3789 382.679Z" fill="#78CEEF"/>
<path d="M-14.5858 381.958L-14.5858 389.867L-6.67636 389.867L-6.67635 381.958L-14.5858 381.958Z" fill="#78CEEF"/>
<path d="M8.23401 381.263V390.562L17.5329 390.562L17.533 381.263L8.23401 381.263Z" fill="#78CEEF"/>
<path d="M31.0271 380.542L31.0271 391.284L41.769 391.284L41.769 380.542L31.0271 380.542Z" fill="#78CEEF"/>
<path d="M53.8202 379.82L53.8202 392.005L66.005 392.005L66.005 379.82L53.8202 379.82Z" fill="#78CEEF"/>
<path d="M76.6133 379.099L76.6133 392.727L90.241 392.727L90.241 379.099L76.6133 379.099Z" fill="#78CEEF"/>
<path d="M99.4064 378.377V393.448L114.477 393.448L114.477 378.377H99.4064Z" fill="#78CEEF"/>
<path d="M122.199 377.656L122.199 394.169L138.713 394.169V377.656L122.199 377.656Z" fill="#78CEEF"/>
<path d="M144.993 376.934L144.993 394.891H162.949V376.934L144.993 376.934Z" fill="#78CEEF"/>
<path d="M167.786 376.213V395.612L187.185 395.612L187.185 376.213L167.786 376.213Z" fill="#78CEEF"/>
<path d="M190.605 375.518L190.605 396.307L211.394 396.307L211.394 375.518L190.605 375.518Z" fill="#78CEEF"/>
<path d="M214.815 376.213L214.815 395.612H234.214L234.214 376.213L214.815 376.213Z" fill="#78CEEF"/>
<path d="M239.051 376.934L239.051 394.891L257.007 394.891V376.934L239.051 376.934Z" fill="#78CEEF"/>
<path d="M263.287 377.656L263.287 394.169L279.8 394.169V377.656L263.287 377.656Z" fill="#78CEEF"/>
<path d="M287.523 378.377L287.523 393.448L302.593 393.448L302.593 378.377H287.523Z" fill="#78CEEF"/>
<path d="M311.759 379.099V392.727H325.387L325.387 379.099L311.759 379.099Z" fill="#78CEEF"/>
<path d="M335.995 379.82L335.995 392.005L348.18 392.005V379.82H335.995Z" fill="#78CEEF"/>
<path d="M360.231 380.542V391.284L370.973 391.284V380.542L360.231 380.542Z" fill="#78CEEF"/>
<path d="M384.467 381.263L384.467 390.562L393.766 390.562V381.263L384.467 381.263Z" fill="#78CEEF"/>
<path d="M408.676 381.958V389.867L416.586 389.867V381.958L408.676 381.958Z" fill="#78CEEF"/>
<path d="M432.912 382.679V389.146L439.379 389.146V382.679L432.912 382.679Z" fill="#78CEEF"/>
<path d="M-37.0582 359.486L-37.0582 365.311L-31.233 365.311L-31.233 359.486L-37.0582 359.486Z" fill="#78CEEF"/>
<path d="M-14.1583 358.871L-14.1583 365.925L-7.1039 365.925V358.871H-14.1583Z" fill="#78CEEF"/>
<path d="M8.7417 358.256V366.54L17.0252 366.54L17.0252 358.256L8.7417 358.256Z" fill="#78CEEF"/>
<path d="M31.6417 357.642L31.6417 367.154H41.1544L41.1544 357.642H31.6417Z" fill="#78CEEF"/>
<path d="M54.5417 357.027L54.5416 367.769L65.2835 367.769L65.2835 357.027L54.5417 357.027Z" fill="#78CEEF"/>
<path d="M77.4416 356.413L77.4416 368.384L89.4127 368.384L89.4127 356.413L77.4416 356.413Z" fill="#78CEEF"/>
<path d="M100.342 355.798L100.342 368.998L113.542 368.998L113.542 355.798L100.342 355.798Z" fill="#78CEEF"/>
<path d="M123.242 355.183V369.613L137.671 369.613L137.671 355.183L123.242 355.183Z" fill="#78CEEF"/>
<path d="M146.142 354.569L146.142 370.227L161.8 370.227V354.569H146.142Z" fill="#78CEEF"/>
<path d="M169.042 353.954L169.041 370.842L185.929 370.842L185.929 353.954L169.042 353.954Z" fill="#78CEEF"/>
<path d="M191.915 353.313V371.483L210.085 371.483L210.085 353.313H191.915Z" fill="#78CEEF"/>
<path d="M216.071 353.954L216.071 370.842L232.958 370.842L232.958 353.954L216.071 353.954Z" fill="#78CEEF"/>
<path d="M240.2 354.569L240.2 370.227L255.858 370.227V354.569H240.2Z" fill="#78CEEF"/>
<path d="M264.329 355.183V369.613H278.758V355.183H264.329Z" fill="#78CEEF"/>
<path d="M288.458 355.798L288.458 368.998L301.658 368.998L301.658 355.798L288.458 355.798Z" fill="#78CEEF"/>
<path d="M312.587 356.413L312.587 368.384H324.558L324.558 356.413L312.587 356.413Z" fill="#78CEEF"/>
<path d="M336.716 357.027V367.769L347.458 367.769V357.027L336.716 357.027Z" fill="#78CEEF"/>
<path d="M360.845 357.642V367.154L370.358 367.154L370.358 357.642H360.845Z" fill="#78CEEF"/>
<path d="M384.975 358.256V366.54L393.258 366.54L393.258 358.256L384.975 358.256Z" fill="#78CEEF"/>
<path d="M409.104 358.871L409.104 365.925L416.158 365.925L416.158 358.871L409.104 358.871Z" fill="#78CEEF"/>
<path d="M433.233 359.486L433.233 365.311H439.058L439.058 359.486H433.233Z" fill="#78CEEF"/>
<path d="M-13.7574 335.757L-13.7574 342.01L-7.5047 342.01L-7.50471 335.757L-13.7574 335.757Z" fill="#78CEEF"/>
<path d="M9.24942 335.25L9.24942 342.518L16.5175 342.518L16.5175 335.25H9.24942Z" fill="#78CEEF"/>
<path d="M32.2563 334.742L32.2563 343.025L40.5398 343.025L40.5398 334.742L32.2563 334.742Z" fill="#78CEEF"/>
<path d="M55.2631 334.234L55.2631 343.533L64.562 343.533L64.562 334.234L55.2631 334.234Z" fill="#78CEEF"/>
<path d="M78.2432 333.7L78.2432 344.067L88.611 344.067L88.611 333.7L78.2432 333.7Z" fill="#78CEEF"/>
<path d="M101.25 333.192L101.25 344.575L112.633 344.575L112.633 333.192L101.25 333.192Z" fill="#78CEEF"/>
<path d="M124.257 332.684V345.083H136.656V332.684H124.257Z" fill="#78CEEF"/>
<path d="M147.264 332.177L147.264 345.591L160.678 345.591L160.678 332.177L147.264 332.177Z" fill="#78CEEF"/>
<path d="M170.271 331.669V346.098H184.7L184.7 331.669L170.271 331.669Z" fill="#78CEEF"/>
<path d="M193.251 331.134V346.633L208.749 346.633L208.749 331.134L193.251 331.134Z" fill="#78CEEF"/>
<path d="M217.3 331.669L217.3 346.098L231.729 346.098L231.729 331.669L217.3 331.669Z" fill="#78CEEF"/>
<path d="M241.322 332.177L241.322 345.591H254.736V332.177L241.322 332.177Z" fill="#78CEEF"/>
<path d="M265.344 332.684V345.083H277.743V332.684H265.344Z" fill="#78CEEF"/>
<path d="M289.367 333.192V344.575L300.75 344.575L300.75 333.192H289.367Z" fill="#78CEEF"/>
<path d="M313.389 333.7V344.067L323.757 344.067L323.757 333.7L313.389 333.7Z" fill="#78CEEF"/>
<path d="M337.438 334.234L337.438 343.533L346.737 343.533L346.737 334.234H337.438Z" fill="#78CEEF"/>
<path d="M361.46 334.742L361.46 343.025L369.744 343.025L369.744 334.742L361.46 334.742Z" fill="#78CEEF"/>
<path d="M385.482 335.25V342.518H392.75V335.25H385.482Z" fill="#78CEEF"/>
<path d="M409.505 335.757L409.504 342.01L415.757 342.01L415.757 335.757H409.505Z" fill="#78CEEF"/>
<path d="M9.75711 312.243L9.75712 318.495L16.0099 318.495L16.0098 312.243L9.75711 312.243Z" fill="#78CEEF"/>
<path d="M32.8708 311.842L32.8708 318.896H39.9252V311.842L32.8708 311.842Z" fill="#78CEEF"/>
<path d="M55.9579 311.414V319.324L63.8673 319.324L63.8673 311.414L55.9579 311.414Z" fill="#78CEEF"/>
<path d="M79.0716 311.013L79.0716 319.725L87.7827 319.725L87.7827 311.013L79.0716 311.013Z" fill="#78CEEF"/>
<path d="M102.185 310.613L102.185 320.125L111.698 320.125L111.698 310.613L102.185 310.613Z" fill="#78CEEF"/>
<path d="M125.272 310.185L125.272 320.553L135.64 320.553L135.64 310.185L125.272 310.185Z" fill="#78CEEF"/>
<path d="M148.386 309.784L148.386 320.954L159.555 320.954V309.784L148.386 309.784Z" fill="#78CEEF"/>
<path d="M171.5 309.383L171.5 321.355L183.471 321.355L183.471 309.384L171.5 309.383Z" fill="#78CEEF"/>
<path d="M194.587 308.956L194.587 321.782L207.413 321.782L207.413 308.956L194.587 308.956Z" fill="#78CEEF"/>
<path d="M218.529 309.384L218.529 321.355L230.5 321.355L230.5 309.384L218.529 309.384Z" fill="#78CEEF"/>
<path d="M242.444 309.784L242.444 320.954L253.614 320.954L253.614 309.784L242.444 309.784Z" fill="#78CEEF"/>
<path d="M266.36 310.185L266.36 320.553L276.727 320.553L276.727 310.185H266.36Z" fill="#78CEEF"/>
<path d="M290.302 310.613L290.302 320.125L299.814 320.125L299.814 310.613L290.302 310.613Z" fill="#78CEEF"/>
<path d="M314.217 311.013L314.217 319.725L322.928 319.725L322.928 311.013L314.217 311.013Z" fill="#78CEEF"/>
<path d="M338.133 311.414L338.133 319.324L346.042 319.324L346.042 311.414L338.133 311.414Z" fill="#78CEEF"/>
<path d="M362.075 311.842L362.075 318.896L369.129 318.896V311.842L362.075 311.842Z" fill="#78CEEF"/>
<path d="M385.99 312.243L385.99 318.495L392.243 318.495V312.243L385.99 312.243Z" fill="#78CEEF"/>
<path d="M33.4854 288.942L33.4854 294.767L39.3106 294.767L39.3106 288.942L33.4854 288.942Z" fill="#78CEEF"/>
<path d="M56.6793 288.621L56.6794 295.088L63.1459 295.088L63.1458 288.621L56.6793 288.621Z" fill="#78CEEF"/>
<path d="M79.9 288.327L79.9 295.382H86.9543L86.9543 288.327H79.9Z" fill="#78CEEF"/>
<path d="M103.094 288.007L103.094 295.702L110.79 295.702L110.79 288.007L103.094 288.007Z" fill="#78CEEF"/>
<path d="M126.314 287.713V295.996L134.598 295.996L134.598 287.713L126.314 287.713Z" fill="#78CEEF"/>
<path d="M149.508 287.392L149.508 296.317L158.433 296.317L158.433 287.392L149.508 287.392Z" fill="#78CEEF"/>
<path d="M172.729 287.098L172.729 296.611L182.242 296.611V287.098H172.729Z" fill="#78CEEF"/>
<path d="M195.923 286.777L195.923 296.931L206.077 296.931L206.077 286.777L195.923 286.777Z" fill="#78CEEF"/>
<path d="M219.758 287.098L219.758 296.611L229.271 296.611V287.098L219.758 287.098Z" fill="#78CEEF"/>
<path d="M243.567 287.392L243.567 296.317L252.491 296.317L252.491 287.392H243.567Z" fill="#78CEEF"/>
<path d="M267.402 287.713L267.402 295.996L275.685 295.996V287.713L267.402 287.713Z" fill="#78CEEF"/>
<path d="M291.21 288.007L291.21 295.702L298.906 295.702L298.906 288.007L291.21 288.007Z" fill="#78CEEF"/>
<path d="M315.045 288.327V295.382L322.1 295.382L322.1 288.327H315.045Z" fill="#78CEEF"/>
<path d="M338.854 288.621L338.854 295.088H345.32L345.32 288.621L338.854 288.621Z" fill="#78CEEF"/>
<path d="M362.689 288.942L362.689 294.767L368.514 294.767V288.942L362.689 288.942Z" fill="#78CEEF"/>
<path d="M80.7283 265.641L80.7283 271.039L86.126 271.039L86.126 265.641L80.7283 265.641Z" fill="#78CEEF"/>
<path d="M104.029 265.427L104.029 271.253L109.854 271.253L109.854 265.427L104.029 265.427Z" fill="#78CEEF"/>
<path d="M127.33 265.214L127.33 271.466L133.583 271.466L133.583 265.214L127.33 265.214Z" fill="#78CEEF"/>
<path d="M150.657 265.027L150.657 271.653L157.284 271.653L157.284 265.027L150.657 265.027Z" fill="#78CEEF"/>
<path d="M173.958 264.813V271.867H181.013L181.013 264.813L173.958 264.813Z" fill="#78CEEF"/>
<path d="M197.259 264.599L197.259 272.081L204.741 272.081L204.741 264.599L197.259 264.599Z" fill="#78CEEF"/>
<path d="M220.987 264.813L220.987 271.867H228.042L228.042 264.813L220.987 264.813Z" fill="#78CEEF"/>
<path d="M244.716 265.027L244.716 271.653L251.342 271.653L251.342 265.027L244.716 265.027Z" fill="#78CEEF"/>
<path d="M268.417 265.214L268.417 271.466H274.67L274.67 265.214L268.417 265.214Z" fill="#78CEEF"/>
<path d="M292.146 265.427V271.253H297.971V265.427H292.146Z" fill="#78CEEF"/>
<path d="M315.874 265.641L315.874 271.039H321.271L321.271 265.641H315.874Z" fill="#78CEEF"/>
<path d="M128.372 242.741L128.372 246.91L132.54 246.91L132.54 242.741L128.372 242.741Z" fill="#78CEEF"/>
<path d="M151.78 242.634V247.017L156.162 247.017L156.162 242.634L151.78 242.634Z" fill="#78CEEF"/>
<path d="M175.187 242.527L175.187 247.123L179.783 247.123L179.783 242.527L175.187 242.527Z" fill="#78CEEF"/>
<path d="M198.595 242.42L198.595 247.23L203.405 247.23L203.405 242.42L198.595 242.42Z" fill="#78CEEF"/>
<path d="M222.216 242.527L222.216 247.123L226.812 247.123L226.812 242.527L222.216 242.527Z" fill="#78CEEF"/>
<path d="M245.838 242.634L245.838 247.017L250.22 247.016L250.22 242.634L245.838 242.634Z" fill="#78CEEF"/>
<path d="M269.459 242.741L269.459 246.91L273.628 246.91L273.628 242.741L269.459 242.741Z" fill="#78CEEF"/>
</g>
<ellipse cx="201" cy="640.5" rx="139" ry="35.5" fill="#78CEEF"/>
<path d="M323.103 192.554C323.49 191.815 324.51 191.815 324.897 192.554L325.735 194.154C325.882 194.434 326.143 194.631 326.444 194.69L328.165 195.025C328.96 195.18 329.275 196.189 328.72 196.8L327.517 198.124C327.306 198.356 327.207 198.675 327.246 198.991L327.471 200.798C327.575 201.633 326.751 202.256 326.02 201.895L324.438 201.114C324.161 200.977 323.839 200.977 323.562 201.114L321.98 201.895C321.249 202.256 320.425 201.633 320.529 200.798L320.754 198.991C320.793 198.675 320.694 198.356 320.483 198.124L319.28 196.8C318.725 196.189 319.04 195.18 319.835 195.025L321.556 194.69C321.857 194.631 322.118 194.434 322.265 194.154L323.103 192.554Z" fill="white"/>
<circle cx="296.5" cy="840.5" r="5.5" fill="white"/>
<circle cx="376" cy="825" r="10" fill="white"/>
<circle cx="79.5" cy="35.5" r="7.5" fill="white"/>
<path d="M388.728 234.032C389.298 233.462 390.223 233.462 390.793 234.032L392.489 235.728C393.059 236.298 393.059 237.223 392.489 237.793L390.793 239.489C390.223 240.059 389.298 240.059 388.728 239.489L387.032 237.793C386.462 237.223 386.462 236.298 387.032 235.728L388.728 234.032Z" fill="white"/>
<path d="M13.4957 794.268C14.8531 793.568 16.5212 794.1 17.2215 795.458L19.3047 799.496C20.005 800.853 19.4723 802.521 18.1149 803.221L14.077 805.305C12.7196 806.005 11.0515 805.472 10.3512 804.115L8.26802 800.077C7.56771 798.72 8.1004 797.052 9.45782 796.351L13.4957 794.268Z" fill="white"/>
<path d="M359.574 33.9509C361.54 30.7415 366.437 31.7099 367.034 35.4259L367.909 40.8759C368.097 42.0442 368.785 43.0723 369.794 43.6904L374.501 46.5737C377.71 48.5397 376.742 53.4373 373.026 54.034L367.576 54.909C366.408 55.0966 365.38 55.7852 364.761 56.7942L361.878 61.5011C359.912 64.7105 355.015 63.7421 354.418 60.026L353.543 54.576C353.355 53.4077 352.667 52.3797 351.658 51.7616L346.951 48.8782C343.741 46.9123 344.71 42.0147 348.426 41.418L353.876 40.5429C355.044 40.3554 356.072 39.6667 356.69 38.6577L359.574 33.9509Z" fill="white"/>
<path d="M28.5922 85.5344C28.7111 84.5241 30.0227 84.2071 30.59 85.0514L31.422 86.2897C31.6003 86.5552 31.8858 86.7295 32.2034 86.7669L33.685 86.9413C34.6953 87.0603 35.0123 88.3719 34.168 88.9392L32.9297 89.7712C32.6642 89.9495 32.4899 90.235 32.4525 90.5526L32.2781 92.0342C32.1591 93.0445 30.8476 93.3615 30.2803 92.5172L29.4483 91.2789C29.2699 91.0134 28.9845 90.8391 28.6668 90.8017L27.1852 90.6273C26.175 90.5083 25.8579 89.1968 26.7022 88.6294L27.9406 87.7974C28.206 87.6191 28.3803 87.3336 28.4177 87.016L28.5922 85.5344Z" fill="white"/>
<circle cx="79.5" cy="506.5" r="3.5" fill="white"/>
<path d="M31.3773 271.663C31.2203 268.466 35.1259 266.798 37.3265 269.124L40.5538 272.534C41.2457 273.265 42.2223 273.657 43.2276 273.608L47.9171 273.377C51.1147 273.22 52.7819 277.126 50.4568 279.326L47.0467 282.554C46.3157 283.246 45.9234 284.222 45.9728 285.228L46.203 289.917C46.36 293.115 42.4544 294.782 40.2539 292.457L37.0265 289.047C36.3347 288.316 35.358 287.923 34.3527 287.973L29.6632 288.203C26.4657 288.36 24.7984 284.454 27.1236 282.254L30.5336 279.027C31.2646 278.335 31.6569 277.358 31.6076 276.353L31.3773 271.663Z" fill="white"/>
<path d="M368.002 463.945C369.915 461.105 374.329 462.176 374.726 465.577L375.308 470.566C375.433 471.635 376.019 472.596 376.912 473.198L381.078 476.002C383.918 477.915 382.847 482.329 379.445 482.726L374.457 483.308C373.388 483.433 372.427 484.019 371.825 484.912L369.021 489.078C367.108 491.918 362.694 490.847 362.297 487.445L361.715 482.457C361.59 481.388 361.004 480.427 360.111 479.825L355.945 477.021C353.105 475.108 354.176 470.694 357.577 470.297L362.566 469.715C363.635 469.59 364.596 469.004 365.198 468.111L368.002 463.945Z" fill="white"/>
</g>
<defs>
<radialGradient id="paint0_radial_4_3105" cx="0" cy="0" r="1" gradientUnits="userSpaceOnUse" gradientTransform="translate(201 437) rotate(90.7712) scale(631.557 411.07)">
<stop stop-color="white"/>
<stop offset="1" stop-color="#CBEFFF"/>
</radialGradient>
<clipPath id="clip0_4_3105">
<rect width="402" height="874" fill="white"/>
</clipPath>
</defs>
</svg>
