<svg width="402" height="874" viewBox="0 0 402 874" fill="none" xmlns="http://www.w3.org/2000/svg">
<g clip-path="url(#clip0_4_3108)">
<rect width="402" height="874" fill="url(#paint0_radial_4_3108)"/>
<path d="M73.9906 1016.81L73.9906 1024.1L81.2803 1024.1L81.2803 1016.81L73.9906 1016.81Z" fill="#FFCECB"/>
<path d="M114.925 1016.63L114.925 1024.29L122.589 1024.29L122.589 1016.63L114.925 1016.63Z" fill="#FFCECB"/>
<path d="M155.86 1016.44L155.86 1024.48L163.897 1024.48L163.897 1016.44L155.86 1016.44Z" fill="#FFCECB"/>
<path d="M196.794 1016.25L196.794 1024.66L205.206 1024.66L205.206 1016.25L196.794 1016.25Z" fill="#FFCECB"/>
<path d="M238.103 1016.44V1024.48H246.14V1016.44H238.103Z" fill="#FFCECB"/>
<path d="M279.411 1016.63V1024.29H287.075L287.075 1016.63L279.411 1016.63Z" fill="#FFCECB"/>
<path d="M320.72 1016.81L320.719 1024.1L328.009 1024.1L328.009 1016.81L320.72 1016.81Z" fill="#FFCECB"/>
<path d="M-9.32718 974.617L-9.32718 984.056L0.112129 984.056L0.112086 974.617L-9.32718 974.617Z" fill="#FFCECB"/>
<path d="M31.4205 974.243L31.4205 984.43L41.6074 984.43L41.6074 974.243L31.4205 974.243Z" fill="#FFCECB"/>
<path d="M72.1682 973.869L72.1682 984.804L83.1028 984.804L83.1027 973.869L72.1682 973.869Z" fill="#FFCECB"/>
<path d="M112.963 973.542L112.963 985.131L124.551 985.131L124.551 973.542L112.963 973.542Z" fill="#FFCECB"/>
<path d="M153.71 973.168L153.71 985.505L166.047 985.505L166.047 973.168L153.71 973.168Z" fill="#FFCECB"/>
<path d="M194.458 972.794L194.458 985.878L207.542 985.878L207.542 972.794L194.458 972.794Z" fill="#FFCECB"/>
<path d="M235.953 973.168L235.953 985.505L248.29 985.505L248.29 973.168L235.953 973.168Z" fill="#FFCECB"/>
<path d="M277.449 973.542L277.449 985.131L289.037 985.131L289.037 973.542L277.449 973.542Z" fill="#FFCECB"/>
<path d="M318.897 973.869V984.804L329.832 984.804L329.832 973.869L318.897 973.869Z" fill="#FFCECB"/>
<path d="M360.392 974.243L360.392 984.43L370.579 984.43L370.579 974.243L360.392 974.243Z" fill="#FFCECB"/>
<path d="M401.888 974.617L401.888 984.056L411.327 984.056L411.327 974.617H401.888Z" fill="#FFCECB"/>
<path d="M-91.944 933.121L-91.9439 943.308L-81.757 943.308L-81.757 933.121L-91.944 933.121Z" fill="#FFCECB"/>
<path d="M-51.3832 932.561L-51.3832 943.869L-40.0748 943.869L-40.0748 932.561L-51.3832 932.561Z" fill="#FFCECB"/>
<path d="M-10.7757 932.047L-10.7757 944.383L1.5607 944.383L1.56073 932.047L-10.7757 932.047Z" fill="#FFCECB"/>
<path d="M29.785 931.486L29.785 944.944L43.2429 944.944L43.2429 931.486L29.785 931.486Z" fill="#FFCECB"/>
<path d="M70.3925 930.972L70.3925 945.458L84.8784 945.458L84.8785 930.972L70.3925 930.972Z" fill="#FFCECB"/>
<path d="M110.953 930.411L110.953 946.019L126.561 946.019L126.561 930.411H110.953Z" fill="#FFCECB"/>
<path d="M151.561 929.897L151.561 946.533L168.196 946.533L168.196 929.897L151.561 929.897Z" fill="#FFCECB"/>
<path d="M192.121 929.336L192.121 947.093L209.878 947.093L209.878 929.336L192.121 929.336Z" fill="#FFCECB"/>
<path d="M233.804 929.897L233.804 946.533L250.439 946.533L250.439 929.897L233.804 929.897Z" fill="#FFCECB"/>
<path d="M275.439 930.411L275.439 946.019L291.047 946.019L291.047 930.411L275.439 930.411Z" fill="#FFCECB"/>
<path d="M317.121 930.972L317.121 945.458L331.607 945.458L331.607 930.972H317.121Z" fill="#FFCECB"/>
<path d="M358.757 931.486L358.757 944.944L372.215 944.944L372.215 931.486L358.757 931.486Z" fill="#FFCECB"/>
<path d="M400.439 932.047L400.439 944.383L412.776 944.383L412.776 932.047L400.439 932.047Z" fill="#FFCECB"/>
<path d="M442.075 932.561L442.075 943.869L453.383 943.869L453.383 932.561L442.075 932.561Z" fill="#FFCECB"/>
<path d="M483.757 933.121V943.308L493.944 943.308L493.944 933.121L483.757 933.121Z" fill="#FFCECB"/>
<path d="M-133.439 891.626L-133.439 902.561L-122.505 902.561L-122.505 891.626L-133.439 891.626Z" fill="#FFCECB"/>
<path d="M-93.0187 890.925L-93.0187 903.262L-80.6822 903.262L-80.6823 890.925L-93.0187 890.925Z" fill="#FFCECB"/>
<path d="M-52.6449 890.178L-52.6449 904.009L-38.8131 904.009L-38.8131 890.178L-52.6449 890.178Z" fill="#FFCECB"/>
<path d="M-12.2243 889.477L-12.2243 904.71L3.00932 904.71L3.00929 889.477L-12.2243 889.477Z" fill="#FFCECB"/>
<path d="M28.1962 888.776L28.1962 905.411L44.8317 905.411L44.8318 888.776L28.1962 888.776Z" fill="#FFCECB"/>
<path d="M68.57 888.028L68.57 906.159L86.7009 906.159L86.7009 888.028L68.57 888.028Z" fill="#FFCECB"/>
<path d="M108.991 887.327L108.991 906.86L128.523 906.86L128.523 887.327H108.991Z" fill="#FFCECB"/>
<path d="M149.411 886.626V907.561L170.346 907.561L170.346 886.626L149.411 886.626Z" fill="#FFCECB"/>
<path d="M189.785 885.878L189.785 908.308H212.215L212.215 885.878L189.785 885.878Z" fill="#FFCECB"/>
<path d="M231.654 886.626L231.654 907.561L252.589 907.561L252.589 886.626L231.654 886.626Z" fill="#FFCECB"/>
<path d="M273.477 887.327V906.86H293.009L293.009 887.327L273.477 887.327Z" fill="#FFCECB"/>
<path d="M315.299 888.028L315.299 906.159L333.43 906.159L333.43 888.028L315.299 888.028Z" fill="#FFCECB"/>
<path d="M357.168 888.776L357.168 905.411L373.804 905.411V888.776H357.168Z" fill="#FFCECB"/>
<path d="M398.99 889.477L398.991 904.71H414.224L414.224 889.477H398.99Z" fill="#FFCECB"/>
<path d="M440.813 890.178L440.813 904.009L454.645 904.009L454.645 890.178H440.813Z" fill="#FFCECB"/>
<path d="M482.682 890.925L482.682 903.262L495.019 903.262L495.019 890.925L482.682 890.925Z" fill="#FFCECB"/>
<path d="M524.505 891.626V902.561L535.439 902.561L535.439 891.626L524.505 891.626Z" fill="#FFCECB"/>
<path d="M-174.561 850.505L-174.561 861.439L-163.626 861.439L-163.626 850.505L-174.561 850.505Z" fill="#FFCECB"/>
<path d="M-134.327 849.617L-134.327 862.327L-121.617 862.327L-121.617 849.617L-134.327 849.617Z" fill="#FFCECB"/>
<path d="M-94.0935 848.729L-94.0935 863.215L-79.6075 863.215L-79.6075 848.729L-94.0935 848.729Z" fill="#FFCECB"/>
<path d="M-53.8599 847.841L-53.8598 864.103L-37.5982 864.103L-37.5982 847.841L-53.8599 847.841Z" fill="#FFCECB"/>
<path d="M-13.6729 846.907L-13.6729 865.037L4.4579 865.037L4.45792 846.907L-13.6729 846.907Z" fill="#FFCECB"/>
<path d="M26.5607 846.019V865.925H46.4672L46.4672 846.019L26.5607 846.019Z" fill="#FFCECB"/>
<path d="M66.7944 845.131V866.813H88.4766L88.4766 845.131L66.7944 845.131Z" fill="#FFCECB"/>
<path d="M107.028 844.243L107.028 867.701L130.486 867.701L130.486 844.243H107.028Z" fill="#FFCECB"/>
<path d="M147.262 843.355L147.262 868.589L172.495 868.589L172.495 843.355L147.262 843.355Z" fill="#FFCECB"/>
<path d="M187.449 842.421L187.449 869.523L214.551 869.523L214.551 842.421L187.449 842.421Z" fill="#FFCECB"/>
<path d="M229.505 843.355L229.505 868.589L254.738 868.589V843.355H229.505Z" fill="#FFCECB"/>
<path d="M271.514 844.243L271.514 867.701L294.972 867.701L294.972 844.243L271.514 844.243Z" fill="#FFCECB"/>
<path d="M313.523 845.131V866.813H335.206V845.131H313.523Z" fill="#FFCECB"/>
<path d="M355.533 846.019L355.533 865.925L375.439 865.925L375.439 846.019L355.533 846.019Z" fill="#FFCECB"/>
<path d="M397.542 846.907L397.542 865.037L415.673 865.037L415.673 846.906L397.542 846.907Z" fill="#FFCECB"/>
<path d="M439.598 847.841L439.598 864.103L455.86 864.103L455.86 847.841L439.598 847.841Z" fill="#FFCECB"/>
<path d="M481.607 848.729L481.607 863.215H496.093V848.729L481.607 848.729Z" fill="#FFCECB"/>
<path d="M523.617 849.617L523.617 862.327L536.327 862.327V849.617L523.617 849.617Z" fill="#FFCECB"/>
<path d="M565.626 850.505V861.439H576.561V850.505H565.626Z" fill="#FFCECB"/>
<path d="M-215.308 809.757L-215.308 819.944L-205.122 819.944L-205.122 809.757L-215.308 809.757Z" fill="#FFCECB"/>
<path d="M-175.262 808.682L-175.262 821.019L-162.925 821.019L-162.925 808.682L-175.262 808.682Z" fill="#FFCECB"/>
<path d="M-135.215 807.607L-135.215 822.093L-120.729 822.093L-120.729 807.607L-135.215 807.607Z" fill="#FFCECB"/>
<path d="M-95.1683 806.533L-95.1682 823.168L-78.5328 823.168L-78.5327 806.533H-95.1683Z" fill="#FFCECB"/>
<path d="M-55.1215 805.458L-55.1216 824.243L-36.3365 824.243L-36.3365 805.458L-55.1215 805.458Z" fill="#FFCECB"/>
<path d="M-15.0748 804.383V825.318H5.85977L5.85979 804.383L-15.0748 804.383Z" fill="#FFCECB"/>
<path d="M24.9719 803.308L24.9719 826.392L48.056 826.392L48.056 803.308L24.9719 803.308Z" fill="#FFCECB"/>
<path d="M65.0186 802.234L65.0186 827.467L90.2523 827.467L90.2523 802.234L65.0186 802.234Z" fill="#FFCECB"/>
<path d="M105.065 801.159L105.065 828.542L132.449 828.542L132.449 801.159L105.065 801.159Z" fill="#FFCECB"/>
<path d="M145.112 800.084L145.112 829.617L174.645 829.617L174.645 800.084L145.112 800.084Z" fill="#FFCECB"/>
<path d="M185.112 798.963L185.112 830.738L216.888 830.738V798.963H185.112Z" fill="#FFCECB"/>
<path d="M227.355 800.084V829.617L256.888 829.617V800.084L227.355 800.084Z" fill="#FFCECB"/>
<path d="M269.551 801.159L269.551 828.542L296.934 828.542L296.934 801.159L269.551 801.159Z" fill="#FFCECB"/>
<path d="M311.748 802.234L311.748 827.467L336.981 827.467V802.234L311.748 802.234Z" fill="#FFCECB"/>
<path d="M353.944 803.308L353.944 826.393L377.028 826.392L377.028 803.308L353.944 803.308Z" fill="#FFCECB"/>
<path d="M396.14 804.383V825.318L417.075 825.318L417.075 804.383H396.14Z" fill="#FFCECB"/>
<path d="M438.336 805.458V824.243L457.121 824.243V805.458L438.336 805.458Z" fill="#FFCECB"/>
<path d="M480.533 806.533L480.533 823.168H497.168L497.168 806.533L480.533 806.533Z" fill="#FFCECB"/>
<path d="M522.729 807.607V822.093H537.215L537.215 807.607L522.729 807.607Z" fill="#FFCECB"/>
<path d="M564.925 808.682V821.019H577.262L577.262 808.682L564.925 808.682Z" fill="#FFCECB"/>
<path d="M607.121 809.757V819.944H617.308L617.308 809.757L607.121 809.757Z" fill="#FFCECB"/>
<path d="M-215.869 768.075L-215.869 779.383L-204.561 779.383V768.075H-215.869Z" fill="#FFCECB"/>
<path d="M-176.009 766.813L-176.009 780.645L-162.178 780.645L-162.178 766.813L-176.009 766.813Z" fill="#FFCECB"/>
<path d="M-136.103 765.598L-136.103 781.86L-119.841 781.86V765.598L-136.103 765.598Z" fill="#FFCECB"/>
<path d="M-96.243 764.336L-96.243 783.121L-77.458 783.121L-77.458 764.336L-96.243 764.336Z" fill="#FFCECB"/>
<path d="M-56.3832 763.075L-56.3832 784.383L-35.0748 784.383L-35.0748 763.075L-56.3832 763.075Z" fill="#FFCECB"/>
<path d="M-16.5234 761.813L-16.5234 785.645H7.30837L7.30841 761.813H-16.5234Z" fill="#FFCECB"/>
<path d="M23.3364 760.551L23.3364 786.907L49.6915 786.907L49.6916 760.551L23.3364 760.551Z" fill="#FFCECB"/>
<path d="M63.1962 759.29L63.1962 788.168L92.0747 788.168L92.0747 759.29L63.1962 759.29Z" fill="#FFCECB"/>
<path d="M103.056 758.028V789.43L134.458 789.43L134.458 758.028H103.056Z" fill="#FFCECB"/>
<path d="M142.916 756.766L142.916 790.692L176.841 790.692L176.841 756.766L142.916 756.766Z" fill="#FFCECB"/>
<path d="M182.822 755.551L182.822 791.906L219.178 791.907L219.177 755.551L182.822 755.551Z" fill="#FFCECB"/>
<path d="M225.159 756.766L225.159 790.692L259.084 790.692L259.084 756.766L225.159 756.766Z" fill="#FFCECB"/>
<path d="M267.542 758.028L267.542 789.43L298.944 789.43L298.944 758.028L267.542 758.028Z" fill="#FFCECB"/>
<path d="M309.925 759.29V788.168H338.804L338.804 759.29L309.925 759.29Z" fill="#FFCECB"/>
<path d="M352.308 760.551L352.308 786.907L378.664 786.907L378.663 760.551L352.308 760.551Z" fill="#FFCECB"/>
<path d="M394.691 761.813V785.645L418.523 785.645L418.523 761.813H394.691Z" fill="#FFCECB"/>
<path d="M437.075 763.075L437.075 784.383L458.383 784.383L458.383 763.075L437.075 763.075Z" fill="#FFCECB"/>
<path d="M479.458 764.336V783.121L498.243 783.122L498.243 764.336H479.458Z" fill="#FFCECB"/>
<path d="M521.841 765.598L521.841 781.86L538.103 781.86L538.103 765.598L521.841 765.598Z" fill="#FFCECB"/>
<path d="M564.177 766.813L564.177 780.645L578.009 780.645L578.009 766.813L564.177 766.813Z" fill="#FFCECB"/>
<path d="M606.561 768.075L606.561 779.383H617.869L617.869 768.075H606.561Z" fill="#FFCECB"/>
<path d="M-256.056 727.888L-256.056 737.327L-246.617 737.327L-246.617 727.888L-256.056 727.888Z" fill="#FFCECB"/>
<path d="M-216.383 726.439L-216.383 738.776L-204.047 738.776V726.439H-216.383Z" fill="#FFCECB"/>
<path d="M-176.71 724.991V740.224L-161.477 740.224L-161.477 724.991L-176.71 724.991Z" fill="#FFCECB"/>
<path d="M-137.037 723.542L-137.037 741.673L-118.907 741.673L-118.907 723.542L-137.037 723.542Z" fill="#FFCECB"/>
<path d="M-97.3178 722.14V743.075L-76.3832 743.075L-76.3832 722.14L-97.3178 722.14Z" fill="#FFCECB"/>
<path d="M-57.6449 720.692V744.523L-33.8131 744.523L-33.8131 720.692L-57.6449 720.692Z" fill="#FFCECB"/>
<path d="M-17.972 719.243L-17.972 745.972H8.75697L8.75699 719.243L-17.972 719.243Z" fill="#FFCECB"/>
<path d="M21.7476 717.841L21.7476 747.374L51.2803 747.374L51.2803 717.841L21.7476 717.841Z" fill="#FFCECB"/>
<path d="M61.4205 716.392L61.4205 748.822L93.8504 748.822V716.393L61.4205 716.392Z" fill="#FFCECB"/>
<path d="M101.093 714.944L101.093 750.271L136.421 750.271V714.944H101.093Z" fill="#FFCECB"/>
<path d="M140.766 713.495L140.766 751.72L178.991 751.72L178.991 713.495L140.766 713.495Z" fill="#FFCECB"/>
<path d="M180.486 712.093L180.486 753.122L221.514 753.121L221.514 712.093L180.486 712.093Z" fill="#FFCECB"/>
<path d="M223.009 713.495V751.72L261.234 751.72L261.234 713.495L223.009 713.495Z" fill="#FFCECB"/>
<path d="M265.579 714.944L265.579 750.271L300.906 750.271L300.906 714.944L265.579 714.944Z" fill="#FFCECB"/>
<path d="M308.149 716.392L308.149 748.822L340.579 748.822V716.393L308.149 716.392Z" fill="#FFCECB"/>
<path d="M350.719 717.841L350.72 747.374L380.252 747.374L380.252 717.841L350.719 717.841Z" fill="#FFCECB"/>
<path d="M393.243 719.243V745.972L419.972 745.972L419.972 719.243H393.243Z" fill="#FFCECB"/>
<path d="M435.813 720.692V744.523H459.645V720.692H435.813Z" fill="#FFCECB"/>
<path d="M478.383 722.14L478.383 743.075L499.318 743.075V722.14H478.383Z" fill="#FFCECB"/>
<path d="M520.906 723.542V741.673L539.037 741.673L539.037 723.542L520.906 723.542Z" fill="#FFCECB"/>
<path d="M563.477 724.991L563.477 740.224L578.71 740.224L578.71 724.991L563.477 724.991Z" fill="#FFCECB"/>
<path d="M606.047 726.439L606.047 738.776H618.383L618.383 726.439H606.047Z" fill="#FFCECB"/>
<path d="M648.617 727.888V737.327H658.056V727.888H648.617Z" fill="#FFCECB"/>
<path d="M-256.43 686.393L-256.43 696.579L-246.243 696.579L-246.243 686.393L-256.43 686.393Z" fill="#FFCECB"/>
<path d="M-216.944 684.757L-216.944 698.215H-203.486L-203.486 684.757H-216.944Z" fill="#FFCECB"/>
<path d="M-177.411 683.168L-177.411 699.804L-160.776 699.804L-160.776 683.168H-177.411Z" fill="#FFCECB"/>
<path d="M-137.925 681.533V701.439H-118.019L-118.019 681.533L-137.925 681.533Z" fill="#FFCECB"/>
<path d="M-98.3925 679.944V703.028L-75.3084 703.028L-75.3085 679.944L-98.3925 679.944Z" fill="#FFCECB"/>
<path d="M-58.9066 678.308V704.664H-32.5514L-32.5514 678.308L-58.9066 678.308Z" fill="#FFCECB"/>
<path d="M-19.3739 676.72L-19.3739 706.252L10.1588 706.252L10.1589 676.72L-19.3739 676.72Z" fill="#FFCECB"/>
<path d="M20.1121 675.084V707.888L52.9158 707.888V675.084L20.1121 675.084Z" fill="#FFCECB"/>
<path d="M59.5981 673.449V709.523L95.6728 709.523V673.449L59.5981 673.449Z" fill="#FFCECB"/>
<path d="M99.1308 671.86L99.1308 711.112L138.383 711.112L138.383 671.86H99.1308Z" fill="#FFCECB"/>
<path d="M138.617 670.224V712.748L181.14 712.748L181.14 670.224H138.617Z" fill="#FFCECB"/>
<path d="M178.149 668.636V714.336H223.85V668.636H178.149Z" fill="#FFCECB"/>
<path d="M220.86 670.224L220.86 712.748L263.383 712.748L263.383 670.224H220.86Z" fill="#FFCECB"/>
<path d="M263.617 671.86L263.617 711.112L302.869 711.112L302.869 671.86L263.617 671.86Z" fill="#FFCECB"/>
<path d="M306.327 673.449L306.327 709.523H342.402L342.402 673.449L306.327 673.449Z" fill="#FFCECB"/>
<path d="M349.084 675.084L349.084 707.888L381.888 707.888L381.888 675.084L349.084 675.084Z" fill="#FFCECB"/>
<path d="M391.841 676.72L391.841 706.252L421.374 706.252V676.72H391.841Z" fill="#FFCECB"/>
<path d="M434.551 678.308V704.664L460.906 704.664L460.906 678.308H434.551Z" fill="#FFCECB"/>
<path d="M477.308 679.944L477.308 703.028H500.392V679.944L477.308 679.944Z" fill="#FFCECB"/>
<path d="M520.019 681.533L520.019 701.439L539.925 701.439L539.925 681.533L520.019 681.533Z" fill="#FFCECB"/>
<path d="M562.776 683.168L562.776 699.804H579.411L579.411 683.168H562.776Z" fill="#FFCECB"/>
<path d="M605.486 684.757V698.215L618.944 698.215V684.757L605.486 684.757Z" fill="#FFCECB"/>
<path d="M648.243 686.393V696.579L658.43 696.579V686.393L648.243 686.393Z" fill="#FFCECB"/>
<path d="M-296.103 646.72L-296.103 654.009L-288.813 654.009L-288.813 646.72L-296.103 646.72Z" fill="#FFCECB"/>
<path d="M-256.804 644.897L-256.804 655.832H-245.869V644.897L-256.804 644.897Z" fill="#FFCECB"/>
<path d="M-217.458 643.121L-217.458 657.607L-202.972 657.607V643.121H-217.458Z" fill="#FFCECB"/>
<path d="M-178.159 641.299L-178.159 659.43L-160.028 659.43L-160.028 641.299L-178.159 641.299Z" fill="#FFCECB"/>
<path d="M-138.813 639.523L-138.813 661.206H-117.131L-117.131 639.523L-138.813 639.523Z" fill="#FFCECB"/>
<path d="M-99.4673 637.748L-99.4673 662.981L-74.2337 662.981V637.748L-99.4673 637.748Z" fill="#FFCECB"/>
<path d="M-60.1683 635.925L-60.1683 664.804L-31.2898 664.804L-31.2898 635.925L-60.1683 635.925Z" fill="#FFCECB"/>
<path d="M-20.8224 634.15L-20.8225 666.579H11.6074L11.6074 634.15L-20.8224 634.15Z" fill="#FFCECB"/>
<path d="M18.4766 632.327V668.402L54.5514 668.402V632.327L18.4766 632.327Z" fill="#FFCECB"/>
<path d="M57.8224 630.551L57.8224 670.178L97.4485 670.178V630.551L57.8224 630.551Z" fill="#FFCECB"/>
<path d="M97.1682 628.776L97.1681 671.953L140.346 671.953L140.346 628.776L97.1682 628.776Z" fill="#FFCECB"/>
<path d="M136.467 626.953V673.776L183.29 673.776V626.953L136.467 626.953Z" fill="#FFCECB"/>
<path d="M175.813 625.178L175.813 675.551H226.187L226.187 625.178H175.813Z" fill="#FFCECB"/>
<path d="M218.71 626.953L218.71 673.776L265.533 673.776V626.953H218.71Z" fill="#FFCECB"/>
<path d="M261.654 628.776L261.654 671.953L304.832 671.953V628.776L261.654 628.776Z" fill="#FFCECB"/>
<path d="M304.551 630.551L304.551 670.178L344.177 670.178L344.177 630.551H304.551Z" fill="#FFCECB"/>
<path d="M347.449 632.327L347.448 668.402L383.523 668.402L383.523 632.327L347.449 632.327Z" fill="#FFCECB"/>
<path d="M390.392 634.15V666.579H422.822V634.15H390.392Z" fill="#FFCECB"/>
<path d="M433.29 635.925V664.804L462.168 664.804L462.168 635.925H433.29Z" fill="#FFCECB"/>
<path d="M476.234 637.748V662.981L501.467 662.981L501.467 637.748L476.234 637.748Z" fill="#FFCECB"/>
<path d="M519.131 639.523V661.206H540.813L540.813 639.523L519.131 639.523Z" fill="#FFCECB"/>
<path d="M562.028 641.299L562.028 659.43H580.159L580.159 641.299H562.028Z" fill="#FFCECB"/>
<path d="M604.972 643.122V657.607L619.458 657.608V643.121L604.972 643.122Z" fill="#FFCECB"/>
<path d="M647.869 644.897L647.869 655.832H658.804L658.804 644.897L647.869 644.897Z" fill="#FFCECB"/>
<path d="M690.813 646.72V654.009H698.103V646.72H690.813Z" fill="#FFCECB"/>
<path d="M-296.29 605.411L-296.29 613.075L-288.626 613.075L-288.626 605.411L-296.29 605.411Z" fill="#FFCECB"/>
<path d="M-257.131 603.449L-257.131 615.037H-245.542V603.449L-257.131 603.449Z" fill="#FFCECB"/>
<path d="M-218.019 601.439V617.047H-202.411V601.439H-218.019Z" fill="#FFCECB"/>
<path d="M-178.86 599.477L-178.86 619.009L-159.327 619.009L-159.327 599.477H-178.86Z" fill="#FFCECB"/>
<path d="M-139.701 597.514L-139.701 620.972L-116.243 620.972L-116.243 597.514L-139.701 597.514Z" fill="#FFCECB"/>
<path d="M-100.542 595.551L-100.542 622.935L-73.1589 622.935L-73.1589 595.551L-100.542 595.551Z" fill="#FFCECB"/>
<path d="M-61.4299 593.542V624.944L-30.0281 624.944L-30.0281 593.542H-61.4299Z" fill="#FFCECB"/>
<path d="M-22.2711 591.579L-22.2711 626.907H13.056L13.056 591.579H-22.2711Z" fill="#FFCECB"/>
<path d="M16.8878 589.617V628.869L56.1401 628.869V589.617L16.8878 589.617Z" fill="#FFCECB"/>
<path d="M56.0467 587.654L56.0467 630.832H99.2242V587.654L56.0467 587.654Z" fill="#FFCECB"/>
<path d="M95.1588 585.645L95.1588 632.841L142.355 632.841V585.645L95.1588 585.645Z" fill="#FFCECB"/>
<path d="M134.318 583.682L134.318 634.804L185.439 634.804L185.439 583.682H134.318Z" fill="#FFCECB"/>
<path d="M173.477 581.72L173.477 636.766H228.523L228.523 581.72L173.477 581.72Z" fill="#FFCECB"/>
<path d="M216.561 583.682V634.804L267.682 634.804L267.682 583.682H216.561Z" fill="#FFCECB"/>
<path d="M259.645 585.645V632.841L306.841 632.841L306.841 585.645H259.645Z" fill="#FFCECB"/>
<path d="M302.776 587.654L302.776 630.832H345.953L345.953 587.654H302.776Z" fill="#FFCECB"/>
<path d="M345.86 589.617L345.86 628.869H385.112V589.617L345.86 589.617Z" fill="#FFCECB"/>
<path d="M388.944 591.579V626.906L424.271 626.907L424.271 591.579L388.944 591.579Z" fill="#FFCECB"/>
<path d="M432.028 593.542V624.944H463.43V593.542H432.028Z" fill="#FFCECB"/>
<path d="M475.159 595.551V622.935H502.542L502.542 595.551L475.159 595.551Z" fill="#FFCECB"/>
<path d="M518.243 597.514V620.972L541.701 620.972L541.701 597.514L518.243 597.514Z" fill="#FFCECB"/>
<path d="M561.327 599.477V619.009H580.86V599.477H561.327Z" fill="#FFCECB"/>
<path d="M604.411 601.439V617.047H620.019V601.439H604.411Z" fill="#FFCECB"/>
<path d="M647.542 603.449V615.037H659.131L659.131 603.449L647.542 603.449Z" fill="#FFCECB"/>
<path d="M690.626 605.411V613.075H698.29V605.411H690.626Z" fill="#FFCECB"/>
<path d="M-296.477 564.103L-296.477 572.14L-288.439 572.14V564.103H-296.477Z" fill="#FFCECB"/>
<path d="M-257.505 561.953V574.29H-245.168V561.953H-257.505Z" fill="#FFCECB"/>
<path d="M-218.533 559.804L-218.533 576.439H-201.897V559.804L-218.533 559.804Z" fill="#FFCECB"/>
<path d="M-179.561 557.654L-179.561 578.589H-158.626L-158.626 557.654L-179.561 557.654Z" fill="#FFCECB"/>
<path d="M-140.589 555.505L-140.589 580.738L-115.355 580.738L-115.355 555.505L-140.589 555.505Z" fill="#FFCECB"/>
<path d="M-101.617 553.355L-101.617 582.888L-72.0841 582.888V553.355L-101.617 553.355Z" fill="#FFCECB"/>
<path d="M-62.6916 551.159L-62.6916 585.084L-28.7664 585.084V551.159H-62.6916Z" fill="#FFCECB"/>
<path d="M-23.7197 549.009V587.234H14.5046V549.009H-23.7197Z" fill="#FFCECB"/>
<path d="M15.2523 546.86V589.383H57.7756V546.86H15.2523Z" fill="#FFCECB"/>
<path d="M54.2242 544.71V591.533L101.047 591.533L101.047 544.71H54.2242Z" fill="#FFCECB"/>
<path d="M93.1962 542.561L93.1962 593.682H144.318V542.561L93.1962 542.561Z" fill="#FFCECB"/>
<path d="M132.168 540.411V595.832L187.589 595.832L187.589 540.411L132.168 540.411Z" fill="#FFCECB"/>
<path d="M171.14 538.262L171.14 597.981L230.86 597.981L230.86 538.262L171.14 538.262Z" fill="#FFCECB"/>
<path d="M214.411 540.411L214.411 595.832H269.832L269.832 540.411H214.411Z" fill="#FFCECB"/>
<path d="M257.682 542.561L257.682 593.682L308.804 593.682V542.561L257.682 542.561Z" fill="#FFCECB"/>
<path d="M300.953 544.71L300.953 591.533H347.776V544.71L300.953 544.71Z" fill="#FFCECB"/>
<path d="M344.224 546.86V589.383H386.748L386.748 546.86L344.224 546.86Z" fill="#FFCECB"/>
<path d="M387.495 549.009L387.495 587.234H425.72L425.719 549.009H387.495Z" fill="#FFCECB"/>
<path d="M430.766 551.159L430.766 585.084L464.692 585.084L464.691 551.159H430.766Z" fill="#FFCECB"/>
<path d="M474.084 553.355V582.888H503.617V553.355H474.084Z" fill="#FFCECB"/>
<path d="M517.355 555.505L517.355 580.738L542.589 580.738V555.505L517.355 555.505Z" fill="#FFCECB"/>
<path d="M560.626 557.654L560.626 578.589L581.561 578.589L581.561 557.654L560.626 557.654Z" fill="#FFCECB"/>
<path d="M603.897 559.804V576.439L620.533 576.439L620.533 559.804H603.897Z" fill="#FFCECB"/>
<path d="M647.168 561.953V574.29L659.505 574.29V561.953L647.168 561.953Z" fill="#FFCECB"/>
<path d="M690.439 564.103L690.439 572.14H698.477L698.476 564.103H690.439Z" fill="#FFCECB"/>
<path d="M-296.664 522.794L-296.664 531.206L-288.252 531.206L-288.252 522.794H-296.664Z" fill="#FFCECB"/>
<path d="M-257.879 520.458L-257.879 533.542H-244.794L-244.794 520.458H-257.879Z" fill="#FFCECB"/>
<path d="M-219.093 518.122L-219.093 535.879H-201.336L-201.336 518.122H-219.093Z" fill="#FFCECB"/>
<path d="M-180.308 515.785L-180.308 538.215H-157.879L-157.879 515.785H-180.308Z" fill="#FFCECB"/>
<path d="M-141.523 513.449V540.551L-114.421 540.551L-114.421 513.449H-141.523Z" fill="#FFCECB"/>
<path d="M-102.738 511.112V542.888H-70.9627V511.112H-102.738Z" fill="#FFCECB"/>
<path d="M-63.9066 508.822L-63.9066 545.178H-27.5515L-27.5514 508.822H-63.9066Z" fill="#FFCECB"/>
<path d="M-25.1215 506.486V547.514H15.9065V506.486H-25.1215Z" fill="#FFCECB"/>
<path d="M13.6635 504.15V549.85H59.3644V504.15H13.6635Z" fill="#FFCECB"/>
<path d="M52.4485 501.813L52.4486 552.187L102.822 552.187L102.822 501.813H52.4485Z" fill="#FFCECB"/>
<path d="M91.2336 499.477L91.2336 554.523L146.28 554.523V499.477H91.2336Z" fill="#FFCECB"/>
<path d="M130.019 497.14V556.86H189.738L189.738 497.14L130.019 497.14Z" fill="#FFCECB"/>
<path d="M168.804 494.804V559.196L233.196 559.196L233.196 494.804L168.804 494.804Z" fill="#FFCECB"/>
<path d="M212.262 497.14L212.262 556.86L271.981 556.86L271.981 497.14L212.262 497.14Z" fill="#FFCECB"/>
<path d="M255.72 499.477L255.72 554.523L310.766 554.523V499.477H255.72Z" fill="#FFCECB"/>
<path d="M299.177 501.813V552.187L349.551 552.187V501.813L299.177 501.813Z" fill="#FFCECB"/>
<path d="M342.635 504.15V549.85H388.336L388.336 504.15L342.635 504.15Z" fill="#FFCECB"/>
<path d="M386.093 506.486L386.093 547.514H427.121L427.121 506.486H386.093Z" fill="#FFCECB"/>
<path d="M429.551 508.822L429.551 545.178L465.906 545.178L465.906 508.822L429.551 508.822Z" fill="#FFCECB"/>
<path d="M472.963 511.112L472.962 542.888L504.738 542.888V511.112L472.963 511.112Z" fill="#FFCECB"/>
<path d="M516.42 513.449V540.551H543.523L543.523 513.449L516.42 513.449Z" fill="#FFCECB"/>
<path d="M559.878 515.785L559.878 538.215H582.308V515.785L559.878 515.785Z" fill="#FFCECB"/>
<path d="M603.336 518.121V535.879L621.093 535.878V518.122L603.336 518.121Z" fill="#FFCECB"/>
<path d="M646.794 520.458L646.794 533.542L659.878 533.542V520.458H646.794Z" fill="#FFCECB"/>
<path d="M690.252 522.794L690.252 531.206L698.663 531.206V522.794H690.252Z" fill="#FFCECB"/>
<path d="M-296.477 481.86V489.897L-288.439 489.897L-288.439 481.86H-296.477Z" fill="#FFCECB"/>
<path d="M-257.505 479.71V492.047H-245.168V479.71H-257.505Z" fill="#FFCECB"/>
<path d="M-218.533 477.561V494.196H-201.897L-201.897 477.561L-218.533 477.561Z" fill="#FFCECB"/>
<path d="M-179.561 475.411V496.346L-158.626 496.346V475.411L-179.561 475.411Z" fill="#FFCECB"/>
<path d="M-140.589 473.262L-140.589 498.495L-115.355 498.495V473.262L-140.589 473.262Z" fill="#FFCECB"/>
<path d="M-101.617 471.112L-101.617 500.645H-72.0842L-72.0841 471.112L-101.617 471.112Z" fill="#FFCECB"/>
<path d="M-62.6916 468.916V502.841H-28.7664V468.916H-62.6916Z" fill="#FFCECB"/>
<path d="M-23.7196 466.766V504.991L14.5046 504.991V466.766L-23.7196 466.766Z" fill="#FFCECB"/>
<path d="M15.2523 464.617V507.14H57.7756L57.7757 464.617L15.2523 464.617Z" fill="#FFCECB"/>
<path d="M54.2242 462.467L54.2242 509.29H101.047L101.047 462.467H54.2242Z" fill="#FFCECB"/>
<path d="M93.1962 460.318L93.1962 511.439L144.318 511.439V460.318H93.1962Z" fill="#FFCECB"/>
<path d="M132.168 458.168L132.168 513.589L187.589 513.589L187.589 458.168H132.168Z" fill="#FFCECB"/>
<path d="M171.14 456.019V515.738H230.86V456.019H171.14Z" fill="#FFCECB"/>
<path d="M214.411 458.168L214.411 513.589L269.832 513.589L269.832 458.168L214.411 458.168Z" fill="#FFCECB"/>
<path d="M257.682 460.318L257.682 511.439H308.804L308.804 460.318L257.682 460.318Z" fill="#FFCECB"/>
<path d="M300.953 462.467V509.29H347.776L347.776 462.467L300.953 462.467Z" fill="#FFCECB"/>
<path d="M344.224 464.617L344.224 507.14L386.748 507.14L386.748 464.617L344.224 464.617Z" fill="#FFCECB"/>
<path d="M387.495 466.766L387.495 504.991L425.719 504.991L425.72 466.766L387.495 466.766Z" fill="#FFCECB"/>
<path d="M430.766 468.916L430.766 502.841H464.691V468.916H430.766Z" fill="#FFCECB"/>
<path d="M474.084 471.112V500.645L503.617 500.645V471.112H474.084Z" fill="#FFCECB"/>
<path d="M517.355 473.262L517.355 498.495L542.589 498.495V473.262H517.355Z" fill="#FFCECB"/>
<path d="M560.626 475.411L560.626 496.346L581.561 496.346L581.561 475.411H560.626Z" fill="#FFCECB"/>
<path d="M603.897 477.561V494.196L620.533 494.196V477.561L603.897 477.561Z" fill="#FFCECB"/>
<path d="M647.168 479.71V492.047L659.505 492.047V479.71L647.168 479.71Z" fill="#FFCECB"/>
<path d="M690.439 481.86V489.897H698.477V481.86H690.439Z" fill="#FFCECB"/>
<path d="M-296.29 440.925V448.589L-288.626 448.589L-288.626 440.925L-296.29 440.925Z" fill="#FFCECB"/>
<path d="M-257.131 438.963L-257.131 450.551L-245.542 450.551V438.963H-257.131Z" fill="#FFCECB"/>
<path d="M-218.019 436.953L-218.019 452.561L-202.411 452.561V436.953H-218.019Z" fill="#FFCECB"/>
<path d="M-178.86 434.991V454.523L-159.327 454.523L-159.327 434.991L-178.86 434.991Z" fill="#FFCECB"/>
<path d="M-139.701 433.028L-139.701 456.486L-116.243 456.486L-116.243 433.028L-139.701 433.028Z" fill="#FFCECB"/>
<path d="M-100.542 431.065V458.449L-73.1589 458.449L-73.1589 431.065H-100.542Z" fill="#FFCECB"/>
<path d="M-61.4299 429.056V460.458L-30.0281 460.458V429.056L-61.4299 429.056Z" fill="#FFCECB"/>
<path d="M-22.2711 427.093L-22.2711 462.421H13.056L13.056 427.093H-22.2711Z" fill="#FFCECB"/>
<path d="M16.8878 425.131L16.8878 464.383H56.1401L56.1402 425.131L16.8878 425.131Z" fill="#FFCECB"/>
<path d="M56.0467 423.168V466.346L99.2242 466.346V423.168L56.0467 423.168Z" fill="#FFCECB"/>
<path d="M95.1588 421.159L95.1588 468.355L142.355 468.355V421.159H95.1588Z" fill="#FFCECB"/>
<path d="M134.318 419.196L134.318 470.318L185.439 470.318L185.439 419.196L134.318 419.196Z" fill="#FFCECB"/>
<path d="M173.477 417.234L173.477 472.28L228.523 472.28V417.234H173.477Z" fill="#FFCECB"/>
<path d="M216.561 419.196V470.318L267.682 470.318L267.682 419.196L216.561 419.196Z" fill="#FFCECB"/>
<path d="M259.645 421.159V468.355L306.841 468.355L306.841 421.159L259.645 421.159Z" fill="#FFCECB"/>
<path d="M302.776 423.168V466.346H345.953V423.168H302.776Z" fill="#FFCECB"/>
<path d="M345.86 425.131L345.86 464.383H385.112V425.131L345.86 425.131Z" fill="#FFCECB"/>
<path d="M388.944 427.094L388.944 462.421L424.271 462.421V427.093L388.944 427.094Z" fill="#FFCECB"/>
<path d="M432.028 429.056V460.458L463.43 460.458L463.43 429.056H432.028Z" fill="#FFCECB"/>
<path d="M475.159 431.065V458.449L502.542 458.449L502.542 431.065H475.159Z" fill="#FFCECB"/>
<path d="M518.243 433.028L518.243 456.486L541.701 456.486L541.701 433.028H518.243Z" fill="#FFCECB"/>
<path d="M561.327 434.991V454.523L580.86 454.523L580.86 434.991H561.327Z" fill="#FFCECB"/>
<path d="M604.411 436.953L604.411 452.561H620.019L620.019 436.953H604.411Z" fill="#FFCECB"/>
<path d="M647.542 438.963V450.551L659.131 450.551L659.131 438.963L647.542 438.963Z" fill="#FFCECB"/>
<path d="M690.626 440.925V448.589H698.29V440.925H690.626Z" fill="#FFCECB"/>
<path d="M-296.103 399.991L-296.103 407.28L-288.813 407.28L-288.813 399.991L-296.103 399.991Z" fill="#FFCECB"/>
<path d="M-256.804 398.168L-256.804 409.103L-245.869 409.103L-245.869 398.168H-256.804Z" fill="#FFCECB"/>
<path d="M-217.458 396.393V410.879H-202.972V396.393H-217.458Z" fill="#FFCECB"/>
<path d="M-178.159 394.57L-178.159 412.701L-160.028 412.701L-160.028 394.57L-178.159 394.57Z" fill="#FFCECB"/>
<path d="M-138.813 392.794L-138.813 414.477H-117.131V392.794L-138.813 392.794Z" fill="#FFCECB"/>
<path d="M-99.4673 391.019L-99.4673 416.252L-74.2337 416.252V391.019L-99.4673 391.019Z" fill="#FFCECB"/>
<path d="M-60.1683 389.196L-60.1683 418.075L-31.2898 418.075L-31.2898 389.196L-60.1683 389.196Z" fill="#FFCECB"/>
<path d="M-20.8225 387.421L-20.8225 419.851H11.6074L11.6074 387.421H-20.8225Z" fill="#FFCECB"/>
<path d="M18.4766 385.598V421.673L54.5514 421.673V385.598L18.4766 385.598Z" fill="#FFCECB"/>
<path d="M57.8224 383.822L57.8224 423.449L97.4485 423.449V383.822L57.8224 383.822Z" fill="#FFCECB"/>
<path d="M97.1681 382.047L97.1682 425.224H140.346L140.346 382.047L97.1681 382.047Z" fill="#FFCECB"/>
<path d="M136.467 380.224V427.047L183.29 427.047V380.224L136.467 380.224Z" fill="#FFCECB"/>
<path d="M175.813 378.449L175.813 428.822L226.187 428.822L226.187 378.449H175.813Z" fill="#FFCECB"/>
<path d="M218.71 380.224V427.047L265.533 427.047L265.533 380.224L218.71 380.224Z" fill="#FFCECB"/>
<path d="M261.654 382.047L261.654 425.224L304.832 425.224L304.832 382.047L261.654 382.047Z" fill="#FFCECB"/>
<path d="M304.551 383.822L304.551 423.449L344.177 423.449L344.178 383.822H304.551Z" fill="#FFCECB"/>
<path d="M347.448 385.598L347.449 421.673H383.523L383.523 385.598L347.448 385.598Z" fill="#FFCECB"/>
<path d="M390.392 387.421V419.851H422.822L422.822 387.421L390.392 387.421Z" fill="#FFCECB"/>
<path d="M433.29 389.196L433.29 418.075L462.168 418.075L462.168 389.196L433.29 389.196Z" fill="#FFCECB"/>
<path d="M476.234 391.019V416.252H501.467L501.467 391.019L476.234 391.019Z" fill="#FFCECB"/>
<path d="M519.131 392.794V414.477H540.813V392.794H519.131Z" fill="#FFCECB"/>
<path d="M562.028 394.57L562.028 412.701H580.159L580.159 394.57H562.028Z" fill="#FFCECB"/>
<path d="M604.972 396.393V410.878L619.458 410.879V396.393L604.972 396.393Z" fill="#FFCECB"/>
<path d="M647.869 398.168V409.103H658.804V398.168H647.869Z" fill="#FFCECB"/>
<path d="M690.813 399.991V407.28H698.103V399.991H690.813Z" fill="#FFCECB"/>
<path d="M-256.43 357.421L-256.43 367.608L-246.243 367.608L-246.243 357.421L-256.43 357.421Z" fill="#FFCECB"/>
<path d="M-216.944 355.785L-216.944 369.243H-203.486L-203.486 355.785H-216.944Z" fill="#FFCECB"/>
<path d="M-177.411 354.196L-177.411 370.832H-160.776L-160.776 354.196L-177.411 354.196Z" fill="#FFCECB"/>
<path d="M-137.925 352.561V372.467L-118.019 372.467L-118.019 352.561H-137.925Z" fill="#FFCECB"/>
<path d="M-98.3926 350.972L-98.3926 374.056L-75.3085 374.056L-75.3084 350.972L-98.3926 350.972Z" fill="#FFCECB"/>
<path d="M-58.9066 349.336V375.692L-32.5514 375.692L-32.5514 349.336H-58.9066Z" fill="#FFCECB"/>
<path d="M-19.3739 347.748L-19.3739 377.28H10.1589L10.1588 347.748H-19.3739Z" fill="#FFCECB"/>
<path d="M20.1121 346.112V378.916L52.9158 378.916V346.112L20.1121 346.112Z" fill="#FFCECB"/>
<path d="M59.5981 344.477L59.5981 380.551H95.6729V344.477L59.5981 344.477Z" fill="#FFCECB"/>
<path d="M99.1308 342.888V382.14L138.383 382.14L138.383 342.888H99.1308Z" fill="#FFCECB"/>
<path d="M138.617 341.252V383.776L181.14 383.776L181.14 341.252H138.617Z" fill="#FFCECB"/>
<path d="M178.149 339.664V385.365H223.85L223.85 339.664L178.149 339.664Z" fill="#FFCECB"/>
<path d="M220.86 341.252L220.86 383.776L263.383 383.776L263.383 341.252H220.86Z" fill="#FFCECB"/>
<path d="M263.617 342.888V382.14L302.869 382.14L302.869 342.888H263.617Z" fill="#FFCECB"/>
<path d="M306.327 344.477L306.327 380.551L342.402 380.551L342.402 344.477H306.327Z" fill="#FFCECB"/>
<path d="M349.084 346.112L349.084 378.916L381.888 378.916L381.888 346.112L349.084 346.112Z" fill="#FFCECB"/>
<path d="M391.841 347.748L391.841 377.28L421.374 377.28L421.374 347.748L391.841 347.748Z" fill="#FFCECB"/>
<path d="M434.551 349.336V375.692H460.906L460.906 349.336L434.551 349.336Z" fill="#FFCECB"/>
<path d="M477.308 350.972V374.056L500.392 374.056L500.392 350.972L477.308 350.972Z" fill="#FFCECB"/>
<path d="M520.019 352.561V372.467L539.925 372.467L539.925 352.561H520.019Z" fill="#FFCECB"/>
<path d="M562.776 354.196L562.776 370.832H579.411L579.411 354.196H562.776Z" fill="#FFCECB"/>
<path d="M605.486 355.785V369.243L618.944 369.243V355.785L605.486 355.785Z" fill="#FFCECB"/>
<path d="M648.243 357.421V367.608L658.43 367.608V357.421L648.243 357.421Z" fill="#FFCECB"/>
<path d="M-256.056 316.673L-256.056 326.112L-246.617 326.112L-246.617 316.673L-256.056 316.673Z" fill="#FFCECB"/>
<path d="M-216.383 315.224L-216.383 327.561L-204.047 327.561L-204.047 315.224L-216.383 315.224Z" fill="#FFCECB"/>
<path d="M-176.71 313.776L-176.71 329.009L-161.477 329.009V313.776L-176.71 313.776Z" fill="#FFCECB"/>
<path d="M-137.037 312.327L-137.037 330.458L-118.907 330.458L-118.907 312.327L-137.037 312.327Z" fill="#FFCECB"/>
<path d="M-97.3178 310.925L-97.3178 331.86L-76.3832 331.86L-76.3832 310.925L-97.3178 310.925Z" fill="#FFCECB"/>
<path d="M-57.6449 309.477L-57.6449 333.308L-33.8131 333.308V309.477L-57.6449 309.477Z" fill="#FFCECB"/>
<path d="M-17.972 308.028L-17.972 334.757L8.75697 334.757L8.75701 308.028L-17.972 308.028Z" fill="#FFCECB"/>
<path d="M21.7476 306.626L21.7476 336.159L51.2803 336.159L51.2803 306.626L21.7476 306.626Z" fill="#FFCECB"/>
<path d="M61.4205 305.178L61.4205 337.608H93.8504V305.178L61.4205 305.178Z" fill="#FFCECB"/>
<path d="M101.093 303.729L101.093 339.056L136.42 339.056L136.42 303.729L101.093 303.729Z" fill="#FFCECB"/>
<path d="M140.766 302.28L140.766 340.505L178.991 340.505L178.991 302.28L140.766 302.28Z" fill="#FFCECB"/>
<path d="M180.486 300.879L180.486 341.907L221.514 341.907L221.514 300.879L180.486 300.879Z" fill="#FFCECB"/>
<path d="M223.009 302.28V340.505L261.234 340.505L261.234 302.28L223.009 302.28Z" fill="#FFCECB"/>
<path d="M265.579 303.729L265.579 339.056L300.906 339.056L300.907 303.729L265.579 303.729Z" fill="#FFCECB"/>
<path d="M308.149 305.178V337.608L340.579 337.608L340.579 305.178L308.149 305.178Z" fill="#FFCECB"/>
<path d="M350.72 306.626V336.159L380.252 336.159L380.252 306.626H350.72Z" fill="#FFCECB"/>
<path d="M393.243 308.028L393.243 334.757L419.972 334.757L419.972 308.028H393.243Z" fill="#FFCECB"/>
<path d="M435.813 309.477L435.813 333.308H459.645V309.477L435.813 309.477Z" fill="#FFCECB"/>
<path d="M478.383 310.925L478.383 331.86L499.318 331.86L499.318 310.925L478.383 310.925Z" fill="#FFCECB"/>
<path d="M520.906 312.327L520.906 330.458H539.037V312.327L520.906 312.327Z" fill="#FFCECB"/>
<path d="M563.477 313.776V329.009L578.71 329.009V313.776L563.477 313.776Z" fill="#FFCECB"/>
<path d="M606.047 315.224V327.561L618.383 327.561L618.383 315.224H606.047Z" fill="#FFCECB"/>
<path d="M648.617 316.673L648.617 326.112H658.056L658.056 316.673H648.617Z" fill="#FFCECB"/>
<path d="M-215.869 274.617L-215.869 285.925H-204.561V274.617L-215.869 274.617Z" fill="#FFCECB"/>
<path d="M-176.009 273.355L-176.009 287.187L-162.178 287.187L-162.178 273.355L-176.009 273.355Z" fill="#FFCECB"/>
<path d="M-136.103 272.14L-136.103 288.402L-119.841 288.402L-119.841 272.14L-136.103 272.14Z" fill="#FFCECB"/>
<path d="M-96.243 270.879L-96.243 289.664L-77.458 289.664V270.879L-96.243 270.879Z" fill="#FFCECB"/>
<path d="M-56.3832 269.617L-56.3832 290.925L-35.0748 290.925V269.617H-56.3832Z" fill="#FFCECB"/>
<path d="M-16.5234 268.355V292.187H7.30837V268.355H-16.5234Z" fill="#FFCECB"/>
<path d="M23.3364 267.094L23.3364 293.449L49.6915 293.449L49.6916 267.094L23.3364 267.094Z" fill="#FFCECB"/>
<path d="M63.1962 265.832L63.1962 294.71L92.0747 294.71L92.0747 265.832L63.1962 265.832Z" fill="#FFCECB"/>
<path d="M103.056 264.57L103.056 295.972H134.458V264.57L103.056 264.57Z" fill="#FFCECB"/>
<path d="M142.916 263.308L142.916 297.234H176.841L176.841 263.309L142.916 263.308Z" fill="#FFCECB"/>
<path d="M182.822 262.094V298.449L219.177 298.449L219.178 262.094H182.822Z" fill="#FFCECB"/>
<path d="M225.159 263.308L225.159 297.234L259.084 297.234V263.308L225.159 263.308Z" fill="#FFCECB"/>
<path d="M267.542 264.57L267.542 295.972L298.944 295.972V264.57L267.542 264.57Z" fill="#FFCECB"/>
<path d="M309.925 265.832L309.925 294.71L338.804 294.71L338.804 265.832L309.925 265.832Z" fill="#FFCECB"/>
<path d="M352.308 267.094V293.449L378.663 293.449L378.663 267.094L352.308 267.094Z" fill="#FFCECB"/>
<path d="M394.691 268.355L394.692 292.187H418.523V268.355L394.691 268.355Z" fill="#FFCECB"/>
<path d="M437.075 269.617L437.075 290.925L458.383 290.925L458.383 269.617L437.075 269.617Z" fill="#FFCECB"/>
<path d="M479.458 270.879L479.458 289.664H498.243L498.243 270.879H479.458Z" fill="#FFCECB"/>
<path d="M521.841 272.14L521.841 288.402L538.103 288.402V272.14H521.841Z" fill="#FFCECB"/>
<path d="M564.177 273.355L564.177 287.187L578.009 287.187L578.009 273.355L564.177 273.355Z" fill="#FFCECB"/>
<path d="M606.561 274.617V285.925L617.869 285.925L617.869 274.617H606.561Z" fill="#FFCECB"/>
<path d="M-215.308 234.056L-215.308 244.243L-205.122 244.243L-205.122 234.056L-215.308 234.056Z" fill="#FFCECB"/>
<path d="M-175.262 232.981L-175.262 245.318L-162.925 245.318L-162.925 232.981L-175.262 232.981Z" fill="#FFCECB"/>
<path d="M-135.215 231.907V246.393L-120.729 246.393V231.907L-135.215 231.907Z" fill="#FFCECB"/>
<path d="M-95.1683 230.832L-95.1683 247.467H-78.5327L-78.5328 230.832L-95.1683 230.832Z" fill="#FFCECB"/>
<path d="M-55.1215 229.757L-55.1215 248.542L-36.3365 248.542L-36.3365 229.757L-55.1215 229.757Z" fill="#FFCECB"/>
<path d="M-15.0748 228.682V249.617H5.85975L5.85976 228.682L-15.0748 228.682Z" fill="#FFCECB"/>
<path d="M24.9719 227.608V250.692L48.056 250.692V227.608L24.9719 227.608Z" fill="#FFCECB"/>
<path d="M65.0186 226.533L65.0187 251.766L90.2523 251.766L90.2523 226.533L65.0186 226.533Z" fill="#FFCECB"/>
<path d="M105.065 225.458L105.065 252.841L132.449 252.841L132.449 225.458L105.065 225.458Z" fill="#FFCECB"/>
<path d="M145.112 224.383L145.112 253.916H174.645V224.383L145.112 224.383Z" fill="#FFCECB"/>
<path d="M185.112 223.262V255.037L216.888 255.037L216.888 223.262L185.112 223.262Z" fill="#FFCECB"/>
<path d="M227.355 224.383L227.355 253.916H256.888V224.383L227.355 224.383Z" fill="#FFCECB"/>
<path d="M269.551 225.458L269.551 252.841H296.935V225.458L269.551 225.458Z" fill="#FFCECB"/>
<path d="M311.748 226.533V251.766H336.981L336.981 226.533L311.748 226.533Z" fill="#FFCECB"/>
<path d="M353.944 227.607L353.944 250.692L377.028 250.692L377.028 227.608L353.944 227.607Z" fill="#FFCECB"/>
<path d="M396.14 228.682L396.14 249.617H417.075L417.075 228.682L396.14 228.682Z" fill="#FFCECB"/>
<path d="M438.336 229.757L438.336 248.542H457.121L457.121 229.757L438.336 229.757Z" fill="#FFCECB"/>
<path d="M480.533 230.832L480.533 247.467L497.168 247.467L497.168 230.832L480.533 230.832Z" fill="#FFCECB"/>
<path d="M522.729 231.907L522.729 246.393L537.215 246.393L537.215 231.907L522.729 231.907Z" fill="#FFCECB"/>
<path d="M564.925 232.981L564.925 245.318H577.262V232.981L564.925 232.981Z" fill="#FFCECB"/>
<path d="M607.121 234.056L607.121 244.243L617.308 244.243L617.308 234.056H607.121Z" fill="#FFCECB"/>
<path d="M-174.561 192.561L-174.561 203.495L-163.626 203.495L-163.626 192.561L-174.561 192.561Z" fill="#FFCECB"/>
<path d="M-134.327 191.673L-134.327 204.383L-121.617 204.383L-121.617 191.673L-134.327 191.673Z" fill="#FFCECB"/>
<path d="M-94.0935 190.785L-94.0935 205.271L-79.6075 205.271V190.785L-94.0935 190.785Z" fill="#FFCECB"/>
<path d="M-53.8599 189.897V206.159L-37.5981 206.159L-37.5982 189.897L-53.8599 189.897Z" fill="#FFCECB"/>
<path d="M-13.673 188.963L-13.6729 207.093L4.45792 207.093L4.45789 188.963L-13.673 188.963Z" fill="#FFCECB"/>
<path d="M26.5607 188.075L26.5607 207.981L46.4672 207.981L46.4672 188.075L26.5607 188.075Z" fill="#FFCECB"/>
<path d="M66.7943 187.187L66.7943 208.869H88.4766L88.4765 187.187L66.7943 187.187Z" fill="#FFCECB"/>
<path d="M107.028 186.299V209.757H130.486L130.486 186.299L107.028 186.299Z" fill="#FFCECB"/>
<path d="M147.262 185.411L147.262 210.645L172.495 210.645L172.495 185.411L147.262 185.411Z" fill="#FFCECB"/>
<path d="M187.449 184.477L187.449 211.58L214.551 211.579V184.477L187.449 184.477Z" fill="#FFCECB"/>
<path d="M229.505 185.411V210.645H254.738L254.738 185.411L229.505 185.411Z" fill="#FFCECB"/>
<path d="M271.514 186.299L271.514 209.757L294.972 209.757L294.972 186.299L271.514 186.299Z" fill="#FFCECB"/>
<path d="M313.523 187.187L313.523 208.869H335.206V187.187L313.523 187.187Z" fill="#FFCECB"/>
<path d="M355.533 188.075V207.981L375.439 207.981L375.439 188.075H355.533Z" fill="#FFCECB"/>
<path d="M397.542 188.963V207.093L415.673 207.094L415.673 188.963L397.542 188.963Z" fill="#FFCECB"/>
<path d="M439.598 189.897L439.598 206.159L455.86 206.159L455.86 189.897L439.598 189.897Z" fill="#FFCECB"/>
<path d="M481.607 190.785L481.607 205.271L496.093 205.271L496.093 190.785L481.607 190.785Z" fill="#FFCECB"/>
<path d="M523.617 191.673L523.617 204.383H536.327L536.327 191.673H523.617Z" fill="#FFCECB"/>
<path d="M565.626 192.561L565.626 203.495L576.561 203.495V192.561H565.626Z" fill="#FFCECB"/>
<path d="M-133.439 151.439L-133.439 162.374L-122.505 162.374L-122.505 151.439L-133.439 151.439Z" fill="#FFCECB"/>
<path d="M-93.0187 150.738L-93.0187 163.075L-80.6823 163.075L-80.6823 150.738L-93.0187 150.738Z" fill="#FFCECB"/>
<path d="M-52.6449 149.991L-52.6449 163.822L-38.8131 163.823L-38.8131 149.991L-52.6449 149.991Z" fill="#FFCECB"/>
<path d="M-12.2243 149.29V164.523L3.00929 164.523L3.00928 149.29H-12.2243Z" fill="#FFCECB"/>
<path d="M28.1962 148.589L28.1962 165.224L44.8317 165.224L44.8317 148.589L28.1962 148.589Z" fill="#FFCECB"/>
<path d="M68.57 147.841L68.5701 165.972H86.7009L86.7009 147.841L68.57 147.841Z" fill="#FFCECB"/>
<path d="M108.991 147.14L108.991 166.673L128.523 166.673L128.523 147.14H108.991Z" fill="#FFCECB"/>
<path d="M149.411 146.439L149.411 167.374L170.346 167.374L170.346 146.439L149.411 146.439Z" fill="#FFCECB"/>
<path d="M189.785 145.692L189.785 168.122L212.215 168.122L212.215 145.692L189.785 145.692Z" fill="#FFCECB"/>
<path d="M231.654 146.439V167.374L252.589 167.374L252.589 146.439L231.654 146.439Z" fill="#FFCECB"/>
<path d="M273.477 147.14L273.477 166.673L293.009 166.673V147.14L273.477 147.14Z" fill="#FFCECB"/>
<path d="M315.299 147.841L315.299 165.972L333.43 165.972V147.841H315.299Z" fill="#FFCECB"/>
<path d="M357.168 148.589L357.168 165.224L373.804 165.224L373.804 148.589L357.168 148.589Z" fill="#FFCECB"/>
<path d="M398.991 149.29L398.99 164.523H414.224L414.224 149.29H398.991Z" fill="#FFCECB"/>
<path d="M440.813 149.991V163.823L454.645 163.822L454.645 149.991H440.813Z" fill="#FFCECB"/>
<path d="M482.682 150.738L482.682 163.075H495.019V150.738L482.682 150.738Z" fill="#FFCECB"/>
<path d="M524.505 151.439V162.374H535.439L535.439 151.439L524.505 151.439Z" fill="#FFCECB"/>
<path d="M-91.944 110.692L-91.9439 120.879L-81.757 120.879L-81.757 110.692L-91.944 110.692Z" fill="#FFCECB"/>
<path d="M-51.3832 110.131L-51.3832 121.439L-40.0748 121.439L-40.0748 110.131L-51.3832 110.131Z" fill="#FFCECB"/>
<path d="M-10.7757 109.617L-10.7757 121.953L1.56072 121.953L1.5607 109.617L-10.7757 109.617Z" fill="#FFCECB"/>
<path d="M29.785 109.056L29.785 122.514L43.2429 122.514L43.2429 109.056L29.785 109.056Z" fill="#FFCECB"/>
<path d="M70.3924 108.542L70.3925 123.028L84.8784 123.028L84.8785 108.542L70.3924 108.542Z" fill="#FFCECB"/>
<path d="M110.953 107.981L110.953 123.589H126.561V107.981L110.953 107.981Z" fill="#FFCECB"/>
<path d="M151.561 107.467L151.561 124.103L168.196 124.103L168.196 107.467L151.561 107.467Z" fill="#FFCECB"/>
<path d="M192.121 106.907L192.121 124.664L209.878 124.664L209.878 106.907L192.121 106.907Z" fill="#FFCECB"/>
<path d="M233.804 107.467V124.103L250.439 124.103L250.439 107.467L233.804 107.467Z" fill="#FFCECB"/>
<path d="M275.439 107.981L275.439 123.589L291.047 123.589V107.981L275.439 107.981Z" fill="#FFCECB"/>
<path d="M317.121 108.542L317.121 123.028L331.607 123.028V108.542H317.121Z" fill="#FFCECB"/>
<path d="M358.757 109.056L358.757 122.514L372.215 122.514L372.215 109.056L358.757 109.056Z" fill="#FFCECB"/>
<path d="M400.439 109.617L400.439 121.953L412.776 121.953L412.776 109.617L400.439 109.617Z" fill="#FFCECB"/>
<path d="M442.075 110.131L442.075 121.439L453.383 121.439L453.383 110.131L442.075 110.131Z" fill="#FFCECB"/>
<path d="M483.757 110.692L483.757 120.879L493.944 120.879L493.944 110.692L483.757 110.692Z" fill="#FFCECB"/>
<path d="M-9.32715 69.944L-9.32714 79.3833L0.112118 79.3833L0.11211 69.944L-9.32715 69.944Z" fill="#FFCECB"/>
<path d="M31.4205 69.5702L31.4205 79.7571L41.6074 79.7571L41.6074 69.5702L31.4205 69.5702Z" fill="#FFCECB"/>
<path d="M72.1682 69.1963L72.1682 80.1309L83.1027 80.1309L83.1027 69.1963L72.1682 69.1963Z" fill="#FFCECB"/>
<path d="M112.963 68.8693L112.963 80.458L124.551 80.458L124.551 68.8693L112.963 68.8693Z" fill="#FFCECB"/>
<path d="M153.71 68.4954L153.71 80.8319L166.047 80.8319L166.047 68.4954L153.71 68.4954Z" fill="#FFCECB"/>
<path d="M194.458 68.1216L194.458 81.2057L207.542 81.2057L207.542 68.1216L194.458 68.1216Z" fill="#FFCECB"/>
<path d="M235.953 68.4954L235.953 80.8319L248.29 80.8318L248.29 68.4954L235.953 68.4954Z" fill="#FFCECB"/>
<path d="M277.448 68.8693L277.449 80.458L289.037 80.4581L289.037 68.8692L277.448 68.8693Z" fill="#FFCECB"/>
<path d="M318.897 69.1963V80.1309H329.832L329.832 69.1963L318.897 69.1963Z" fill="#FFCECB"/>
<path d="M360.392 69.5702L360.392 79.757L370.579 79.7571L370.579 69.5702L360.392 69.5702Z" fill="#FFCECB"/>
<path d="M401.888 69.944L401.888 79.3833L411.327 79.3833V69.944L401.888 69.944Z" fill="#FFCECB"/>
<path d="M73.9906 29.8973V37.187L81.2803 37.187L81.2803 29.8973H73.9906Z" fill="#FFCECB"/>
<path d="M114.925 29.7104V37.3739H122.589V29.7104H114.925Z" fill="#FFCECB"/>
<path d="M155.86 29.5234L155.86 37.5608L163.897 37.5608L163.897 29.5234L155.86 29.5234Z" fill="#FFCECB"/>
<path d="M196.794 29.3365L196.794 37.7478L205.206 37.7477V29.3365L196.794 29.3365Z" fill="#FFCECB"/>
<path d="M238.103 29.5234V37.5608H246.14V29.5234H238.103Z" fill="#FFCECB"/>
<path d="M279.411 29.7104L279.411 37.3739L287.075 37.3739L287.075 29.7104L279.411 29.7104Z" fill="#FFCECB"/>
<path d="M320.72 29.8973V37.187L328.009 37.187L328.009 29.8973H320.72Z" fill="#FFCECB"/>
<ellipse cx="201" cy="640.5" rx="139" ry="35.5" fill="#FFA69B"/>
</g>
<defs>
<radialGradient id="paint0_radial_4_3108" cx="0" cy="0" r="1" gradientUnits="userSpaceOnUse" gradientTransform="translate(201 437) rotate(90.7712) scale(631.557 411.07)">
<stop stop-color="white"/>
<stop offset="1" stop-color="#FFD9D4"/>
</radialGradient>
<clipPath id="clip0_4_3108">
<rect width="402" height="874" fill="white"/>
</clipPath>
</defs>
</svg>
