<svg width="402" height="874" viewBox="0 0 402 874" fill="none" xmlns="http://www.w3.org/2000/svg">
<g clip-path="url(#clip0_4_3109)">
<rect width="402" height="874" fill="url(#paint0_radial_4_3109)"/>
<path d="M-49.9298 652.948C-48.2975 651.316 -48.2975 648.669 -49.9298 647.037C-51.562 645.405 -54.2084 645.405 -55.8407 647.037C-57.4729 648.669 -57.4729 651.316 -55.8407 652.948C-54.2084 654.58 -51.562 654.58 -49.9298 652.948Z" fill="#FFCECB"/>
<path d="M-24.1988 678.679C-22.3829 676.863 -22.3829 673.919 -24.1988 672.103C-26.0146 670.287 -28.9588 670.287 -30.7747 672.103C-32.5906 673.919 -32.5906 676.863 -30.7747 678.679C-28.9588 680.495 -26.0146 680.495 -24.1988 678.679Z" fill="#FFCECB"/>
<path d="M1.53223 704.41C3.53174 702.411 3.53174 699.169 1.53223 697.169C-0.467286 695.17 -3.70913 695.17 -5.70865 697.169C-7.70816 699.169 -7.70816 702.411 -5.70865 704.41C-3.70913 706.41 -0.467286 706.41 1.53223 704.41Z" fill="#FFCECB"/>
<path d="M26.9307 729.809C28.9303 727.809 28.9303 724.567 26.9307 722.568C24.9312 720.568 21.6894 720.568 19.6899 722.568C17.6903 724.567 17.6903 727.809 19.6899 729.809C21.6894 731.808 24.9312 731.808 26.9307 729.809Z" fill="#FFCECB"/>
<path d="M51.9968 754.875C53.8126 753.059 53.8126 750.115 51.9968 748.299C50.1809 746.483 47.2367 746.483 45.4209 748.299C43.605 750.115 43.605 753.059 45.4209 754.875C47.2367 756.691 50.1809 756.691 51.9968 754.875Z" fill="#FFCECB"/>
<path d="M77.0628 779.941C78.6951 778.308 78.695 775.662 77.0628 774.03C75.4305 772.397 72.7841 772.397 71.1519 774.03C69.5196 775.662 69.5196 778.308 71.1519 779.941C72.7841 781.573 75.4305 781.573 77.0628 779.941Z" fill="#FFCECB"/>
<path d="M-74.6633 577.418C-72.6638 575.418 -72.6638 572.176 -74.6633 570.177C-76.6628 568.177 -79.9047 568.177 -81.9042 570.177C-83.9037 572.176 -83.9037 575.418 -81.9042 577.418C-79.9047 579.417 -76.6628 579.417 -74.6633 577.418Z" fill="#FFCECB"/>
<path d="M-48.5813 603.5C-46.2044 601.123 -46.2044 597.269 -48.5813 594.892C-50.9583 592.515 -54.8121 592.515 -57.1891 594.892C-59.5661 597.269 -59.5661 601.123 -57.1891 603.5C-54.8121 605.877 -50.9583 605.877 -48.5813 603.5Z" fill="#FFCECB"/>
<path d="M-22.5178 629.563C-19.7736 626.819 -19.7736 622.37 -22.5178 619.625C-25.2621 616.881 -29.7114 616.881 -32.4556 619.625C-35.1998 622.37 -35.1998 626.819 -32.4556 629.563C-29.7114 632.307 -25.2621 632.307 -22.5178 629.563Z" fill="#FFCECB"/>
<path d="M3.56411 655.645C6.6858 652.523 6.68581 647.462 3.56412 644.34C0.442426 641.219 -4.61884 641.219 -7.74053 644.34C-10.8622 647.462 -10.8622 652.523 -7.74053 655.645C-4.61884 658.767 0.442416 658.767 3.56411 655.645Z" fill="#FFCECB"/>
<path d="M29.6461 681.727C33.1452 678.228 33.1452 672.555 29.6461 669.055C26.1469 665.556 20.4737 665.556 16.9745 669.055C13.4754 672.555 13.4754 678.228 16.9745 681.727C20.4737 685.226 26.1469 685.226 29.6461 681.727Z" fill="#FFCECB"/>
<path d="M55.0446 707.125C58.5437 703.626 58.5437 697.953 55.0446 694.454C51.5454 690.955 45.8722 690.955 42.373 694.454C38.8739 697.953 38.8739 703.626 42.373 707.125C45.8722 710.625 51.5454 710.625 55.0446 707.125Z" fill="#FFCECB"/>
<path d="M79.7596 731.841C82.8813 728.719 82.8813 723.658 79.7596 720.536C76.6379 717.414 71.5767 717.414 68.455 720.536C65.3333 723.658 65.3333 728.719 68.455 731.841C71.5767 734.962 76.6379 734.962 79.7596 731.841Z" fill="#FFCECB"/>
<path d="M104.475 756.556C107.219 753.811 107.219 749.362 104.475 746.618C101.73 743.874 97.2812 743.874 94.537 746.618C91.7927 749.362 91.7927 753.811 94.537 756.556C97.2812 759.3 101.73 759.3 104.475 756.556Z" fill="#FFCECB"/>
<path d="M129.208 781.289C131.585 778.912 131.585 775.058 129.208 772.681C126.831 770.304 122.977 770.304 120.6 772.681C118.223 775.058 118.223 778.912 120.6 781.289C122.977 783.666 126.831 783.666 129.208 781.289Z" fill="#FFCECB"/>
<path d="M153.923 806.004C155.923 804.005 155.923 800.763 153.923 798.763C151.924 796.764 148.682 796.764 146.682 798.763C144.683 800.763 144.683 804.005 146.682 806.004C148.682 808.004 151.924 808.004 153.923 806.004Z" fill="#FFCECB"/>
<path d="M-74.3123 526.972C-72.119 524.778 -72.119 521.222 -74.3123 519.029C-76.5057 516.835 -80.0618 516.835 -82.2551 519.029C-84.4485 521.222 -84.4485 524.778 -82.2551 526.972C-80.0618 529.165 -76.5057 529.165 -74.3123 526.972Z" fill="#FFCECB"/>
<path d="M-47.9164 553.367C-45.1721 550.623 -45.1721 546.174 -47.9164 543.43C-50.6606 540.686 -55.1099 540.686 -57.8541 543.43C-60.5983 546.174 -60.5983 550.623 -57.8541 553.367C-55.1099 556.112 -50.6606 556.112 -47.9164 553.367Z" fill="#FFCECB"/>
<path d="M-21.5019 579.782C-18.1966 576.477 -18.1966 571.118 -21.5019 567.812C-24.8072 564.507 -30.1662 564.507 -33.4715 567.812C-36.7769 571.118 -36.7768 576.477 -33.4715 579.782C-30.1662 583.087 -24.8072 583.087 -21.5019 579.782Z" fill="#FFCECB"/>
<path d="M4.91254 606.196C8.77895 602.33 8.77895 596.061 4.91254 592.195C1.04613 588.328 -5.22256 588.328 -9.08897 592.195C-12.9554 596.061 -12.9554 602.33 -9.08897 606.196C-5.22256 610.063 1.04613 610.063 4.91254 606.196Z" fill="#FFCECB"/>
<path d="M31.327 632.611C35.7545 628.183 35.7545 621.005 31.327 616.577C26.8995 612.15 19.7211 612.15 15.2936 616.577C10.8661 621.005 10.8661 628.183 15.2936 632.611C19.7211 637.038 26.8995 637.038 31.327 632.611Z" fill="#FFCECB"/>
<path d="M57.7414 659.025C62.73 654.037 62.73 645.949 57.7414 640.96C52.7529 635.971 44.6648 635.971 39.6762 640.96C34.6876 645.949 34.6876 654.037 39.6762 659.025C44.6648 664.014 52.7529 664.014 57.7414 659.025Z" fill="#FFCECB"/>
<path d="M83.1399 684.424C88.1285 679.435 88.1285 671.347 83.1399 666.359C78.1514 661.37 70.0633 661.37 65.0747 666.359C60.0861 671.347 60.0861 679.435 65.0747 684.424C70.0633 689.412 78.1514 689.412 83.1399 684.424Z" fill="#FFCECB"/>
<path d="M107.523 708.806C111.95 704.379 111.95 697.2 107.523 692.773C103.095 688.345 95.9166 688.345 91.4891 692.773C87.0616 697.2 87.0616 704.379 91.4891 708.806C95.9166 713.234 103.095 713.234 107.523 708.806Z" fill="#FFCECB"/>
<path d="M131.905 733.189C135.771 729.323 135.772 723.054 131.905 719.187C128.039 715.321 121.77 715.321 117.904 719.187C114.037 723.054 114.037 729.323 117.904 733.189C121.77 737.055 128.039 737.055 131.905 733.189Z" fill="#FFCECB"/>
<path d="M156.288 757.572C159.593 754.266 159.593 748.907 156.288 745.602C152.982 742.297 147.623 742.297 144.318 745.602C141.013 748.907 141.013 754.266 144.318 757.572C147.623 760.877 152.982 760.877 156.288 757.572Z" fill="#FFCECB"/>
<path d="M180.67 781.954C183.414 779.21 183.414 774.761 180.67 772.016C177.926 769.272 173.477 769.272 170.732 772.016C167.988 774.761 167.988 779.21 170.732 781.954C173.477 784.698 177.926 784.698 180.67 781.954Z" fill="#FFCECB"/>
<path d="M205.071 806.355C207.265 804.162 207.265 800.606 205.071 798.412C202.878 796.219 199.322 796.219 197.128 798.412C194.935 800.606 194.935 804.162 197.128 806.355C199.322 808.548 202.878 808.548 205.071 806.355Z" fill="#FFCECB"/>
<path d="M-74.6633 475.824C-72.6638 473.824 -72.6638 470.582 -74.6633 468.583C-76.6628 466.583 -79.9047 466.583 -81.9042 468.583C-83.9037 470.582 -83.9037 473.824 -81.9042 475.824C-79.9047 477.823 -76.6628 477.823 -74.6633 475.824Z" fill="#FFCECB"/>
<path d="M-47.9164 502.57C-45.1721 499.826 -45.1721 495.377 -47.9164 492.633C-50.6606 489.889 -55.1099 489.889 -57.8541 492.633C-60.5983 495.377 -60.5983 499.826 -57.8541 502.57C-55.1099 505.315 -50.6606 505.315 -47.9164 502.57Z" fill="#FFCECB"/>
<path d="M-21.1509 529.336C-17.6518 525.837 -17.6518 520.164 -21.1509 516.664C-24.6501 513.165 -30.3233 513.165 -33.8225 516.664C-37.3216 520.164 -37.3216 525.837 -33.8225 529.336C-30.3233 532.835 -24.6501 532.835 -21.1509 529.336Z" fill="#FFCECB"/>
<path d="M5.596 556.083C9.83986 551.839 9.83986 544.958 5.596 540.714C1.35213 536.471 -5.52854 536.471 -9.77241 540.714C-14.0163 544.958 -14.0163 551.839 -9.77241 556.083C-5.52854 560.327 1.35213 560.327 5.596 556.083Z" fill="#FFCECB"/>
<path d="M32.3429 582.83C37.3315 577.841 37.3315 569.753 32.3429 564.765C27.3543 559.776 19.2663 559.776 14.2777 564.765C9.28908 569.753 9.28908 577.841 14.2777 582.83C19.2663 587.818 27.3543 587.818 32.3429 582.83Z" fill="#FFCECB"/>
<path d="M59.0899 609.577C64.8232 603.843 64.8232 594.548 59.0899 588.815C53.3566 583.081 44.061 583.081 38.3277 588.815C32.5944 594.548 32.5944 603.843 38.3277 609.577C44.061 615.31 53.3566 615.31 59.0899 609.577Z" fill="#FFCECB"/>
<path d="M85.8368 636.324C92.3148 629.846 92.3148 619.343 85.8368 612.865C79.3588 606.387 68.8558 606.387 62.3778 612.865C55.8998 619.343 55.8998 629.846 62.3778 636.324C68.8558 642.802 79.3588 642.802 85.8368 636.324Z" fill="#FFCECB"/>
<path d="M111.235 661.722C117.713 655.244 117.713 644.741 111.235 638.263C104.757 631.785 94.2543 631.785 87.7763 638.263C81.2983 644.741 81.2983 655.244 87.7763 661.722C94.2543 668.2 104.757 668.2 111.235 661.722Z" fill="#FFCECB"/>
<path d="M135.285 685.772C141.019 680.039 141.019 670.743 135.285 665.01C129.552 659.277 120.257 659.277 114.523 665.01C108.79 670.743 108.79 680.039 114.523 685.772C120.257 691.506 129.552 691.506 135.285 685.772Z" fill="#FFCECB"/>
<path d="M159.335 709.822C164.324 704.834 164.324 696.746 159.335 691.757C154.347 686.768 146.259 686.768 141.27 691.757C136.282 696.746 136.282 704.834 141.27 709.822C146.259 714.811 154.347 714.811 159.335 709.822Z" fill="#FFCECB"/>
<path d="M183.386 733.872C187.629 729.629 187.629 722.748 183.386 718.504C179.142 714.26 172.261 714.26 168.017 718.504C163.773 722.748 163.773 729.629 168.017 733.872C172.261 738.116 179.142 738.116 183.386 733.872Z" fill="#FFCECB"/>
<path d="M207.436 757.922C210.935 754.423 210.935 748.75 207.436 745.251C203.936 741.752 198.263 741.752 194.764 745.251C191.265 748.75 191.265 754.423 194.764 757.922C198.263 761.422 203.936 761.422 207.436 757.922Z" fill="#FFCECB"/>
<path d="M231.467 781.954C234.211 779.21 234.211 774.761 231.467 772.016C228.723 769.272 224.274 769.272 221.529 772.016C218.785 774.761 218.785 779.21 221.529 781.954C224.274 784.698 228.723 784.698 231.467 781.954Z" fill="#FFCECB"/>
<path d="M255.517 806.004C257.517 804.005 257.517 800.763 255.517 798.763C253.518 796.764 250.276 796.764 248.276 798.763C246.277 800.763 246.277 804.005 248.276 806.004C250.276 808.004 253.518 808.004 255.517 806.004Z" fill="#FFCECB"/>
<path d="M-48.5813 451.108C-46.2044 448.732 -46.2044 444.878 -48.5813 442.501C-50.9583 440.124 -54.8121 440.124 -57.1891 442.501C-59.5661 444.878 -59.5661 448.732 -57.1891 451.108C-54.8121 453.485 -50.9583 453.485 -48.5813 451.108Z" fill="#FFCECB"/>
<path d="M-21.5019 478.188C-18.1966 474.883 -18.1966 469.524 -21.5019 466.218C-24.8072 462.913 -30.1662 462.913 -33.4715 466.218C-36.7768 469.524 -36.7769 474.883 -33.4715 478.188C-30.1662 481.493 -24.8072 481.493 -21.5019 478.188Z" fill="#FFCECB"/>
<path d="M5.596 505.286C9.83986 501.042 9.83986 494.161 5.596 489.917C1.35213 485.674 -5.52854 485.674 -9.77241 489.917C-14.0163 494.161 -14.0163 501.042 -9.77241 505.286C-5.52854 509.53 1.35213 509.53 5.596 505.286Z" fill="#FFCECB"/>
<path d="M32.6754 532.365C37.8476 527.193 37.8476 518.807 32.6754 513.635C27.5032 508.463 19.1174 508.463 13.9452 513.635C8.77296 518.807 8.77296 527.193 13.9452 532.365C19.1174 537.537 27.5032 537.537 32.6754 532.365Z" fill="#FFCECB"/>
<path d="M59.7548 559.445C65.8554 553.344 65.8554 543.453 59.7548 537.353C53.6543 531.252 43.7633 531.252 37.6628 537.353C31.5622 543.453 31.5622 553.344 37.6628 559.445C43.7633 565.545 53.6543 565.545 59.7548 559.445Z" fill="#FFCECB"/>
<path d="M86.8528 586.543C93.8919 579.503 93.8919 568.091 86.8528 561.052C79.8136 554.013 68.401 554.013 61.3619 561.052C54.3228 568.091 54.3228 579.503 61.3619 586.543C68.401 593.582 79.8136 593.582 86.8528 586.543Z" fill="#FFCECB"/>
<path d="M113.932 613.622C121.9 605.655 121.9 592.737 113.932 584.769C105.965 576.802 93.0469 576.802 85.0795 584.769C77.112 592.737 77.112 605.655 85.0795 613.622C93.0469 621.589 105.965 621.589 113.932 613.622Z" fill="#FFCECB"/>
<path d="M139.331 639.02C147.298 631.053 147.298 618.135 139.331 610.168C131.363 602.2 118.445 602.2 110.478 610.168C102.511 618.135 102.511 631.053 110.478 639.02C118.445 646.988 131.363 646.988 139.331 639.02Z" fill="#FFCECB"/>
<path d="M163.048 662.738C170.087 655.699 170.087 644.286 163.048 637.247C156.009 630.208 144.597 630.208 137.557 637.247C130.518 644.286 130.518 655.699 137.557 662.738C144.597 669.777 156.009 669.777 163.048 662.738Z" fill="#FFCECB"/>
<path d="M186.747 686.437C192.848 680.337 192.848 670.446 186.747 664.345C180.647 658.245 170.756 658.245 164.655 664.345C158.555 670.446 158.555 680.337 164.655 686.437C170.756 692.538 180.647 692.538 186.747 686.437Z" fill="#FFCECB"/>
<path d="M210.465 710.155C215.637 704.983 215.637 696.597 210.465 691.425C205.293 686.252 196.907 686.252 191.735 691.425C186.563 696.597 186.563 704.983 191.735 710.155C196.907 715.327 205.293 715.327 210.465 710.155Z" fill="#FFCECB"/>
<path d="M234.183 733.872C238.426 729.629 238.426 722.748 234.183 718.504C229.939 714.26 223.058 714.26 218.814 718.504C214.57 722.748 214.57 729.629 218.814 733.872C223.058 738.116 229.939 738.116 234.183 733.872Z" fill="#FFCECB"/>
<path d="M257.882 757.572C261.187 754.266 261.187 748.907 257.882 745.602C254.576 742.297 249.217 742.297 245.912 745.602C242.607 748.907 242.607 754.266 245.912 757.572C249.217 760.877 254.576 760.877 257.882 757.572Z" fill="#FFCECB"/>
<path d="M281.599 781.289C283.976 778.912 283.976 775.058 281.599 772.681C279.222 770.304 275.368 770.304 272.991 772.681C270.615 775.058 270.615 778.912 272.991 781.289C275.368 783.666 279.222 783.666 281.599 781.289Z" fill="#FFCECB"/>
<path d="M-49.9298 398.963C-48.2975 397.331 -48.2975 394.684 -49.9298 393.052C-51.562 391.42 -54.2084 391.42 -55.8407 393.052C-57.4729 394.684 -57.4729 397.331 -55.8407 398.963C-54.2084 400.595 -51.562 400.595 -49.9298 398.963Z" fill="#FFCECB"/>
<path d="M-22.5178 426.375C-19.7736 423.631 -19.7736 419.181 -22.5178 416.437C-25.2621 413.693 -29.7114 413.693 -32.4556 416.437C-35.1998 419.181 -35.1998 423.631 -32.4556 426.375C-29.7114 429.119 -25.2621 429.119 -22.5178 426.375Z" fill="#FFCECB"/>
<path d="M4.91254 453.805C8.77895 449.939 8.77895 443.67 4.91254 439.804C1.04613 435.937 -5.22256 435.937 -9.08897 439.804C-12.9554 443.67 -12.9554 449.939 -9.08897 453.805C-5.22256 457.672 1.04613 457.672 4.91254 453.805Z" fill="#FFCECB"/>
<path d="M32.3429 481.236C37.3315 476.247 37.3315 468.159 32.3429 463.17C27.3543 458.182 19.2663 458.182 14.2777 463.17C9.28908 468.159 9.28908 476.247 14.2777 481.236C19.2663 486.224 27.3543 486.224 32.3429 481.236Z" fill="#FFCECB"/>
<path d="M59.7548 508.648C65.8554 502.547 65.8554 492.656 59.7548 486.556C53.6543 480.455 43.7633 480.455 37.6628 486.556C31.5622 492.656 31.5622 502.547 37.6628 508.648C43.7633 514.748 53.6543 514.748 59.7548 508.648Z" fill="#FFCECB"/>
<path d="M87.1852 536.078C94.408 528.855 94.408 517.145 87.1852 509.922C79.9625 502.699 68.2521 502.699 61.0294 509.922C53.8066 517.145 53.8066 528.855 61.0294 536.078C68.2521 543.301 79.9625 543.301 87.1852 536.078Z" fill="#FFCECB"/>
<path d="M114.616 563.508C122.961 555.164 122.961 541.634 114.616 533.289C106.271 524.944 92.7409 524.944 84.396 533.289C76.0511 541.634 76.0511 555.164 84.396 563.508C92.7409 571.853 106.271 571.853 114.616 563.508Z" fill="#FFCECB"/>
<path d="M142.046 590.939C151.513 581.472 151.513 566.123 142.046 556.655C132.579 547.188 117.23 547.188 107.763 556.655C98.2956 566.123 98.2956 581.472 107.763 590.939C117.23 600.406 132.579 600.406 142.046 590.939Z" fill="#FFCECB"/>
<path d="M167.445 616.337C176.912 606.87 176.912 591.521 167.445 582.054C157.977 572.587 142.628 572.587 133.161 582.054C123.694 591.521 123.694 606.87 133.161 616.337C142.628 625.804 157.977 625.804 167.445 616.337Z" fill="#FFCECB"/>
<path d="M190.811 639.704C199.156 631.359 199.156 617.829 190.811 609.484C182.466 601.139 168.936 601.139 160.592 609.484C152.247 617.829 152.247 631.359 160.592 639.704C168.936 648.049 182.466 648.049 190.811 639.704Z" fill="#FFCECB"/>
<path d="M214.178 663.071C221.401 655.848 221.401 644.137 214.178 636.915C206.955 629.692 195.245 629.692 188.022 636.915C180.799 644.137 180.799 655.848 188.022 663.071C195.245 670.293 206.955 670.293 214.178 663.071Z" fill="#FFCECB"/>
<path d="M237.544 686.437C243.645 680.337 243.645 670.446 237.544 664.345C231.444 658.245 221.553 658.245 215.452 664.345C209.352 670.446 209.352 680.337 215.452 686.437C221.553 692.538 231.444 692.538 237.544 686.437Z" fill="#FFCECB"/>
<path d="M260.929 709.822C265.918 704.834 265.918 696.746 260.929 691.757C255.941 686.768 247.853 686.768 242.864 691.757C237.876 696.746 237.876 704.834 242.864 709.822C247.853 714.811 255.941 714.811 260.929 709.822Z" fill="#FFCECB"/>
<path d="M284.296 733.189C288.163 729.323 288.163 723.054 284.296 719.187C280.43 715.321 274.161 715.321 270.295 719.187C266.428 723.054 266.428 729.323 270.295 733.189C274.161 737.055 280.43 737.055 284.296 733.189Z" fill="#FFCECB"/>
<path d="M307.663 756.556C310.407 753.811 310.407 749.362 307.663 746.618C304.919 743.874 300.469 743.874 297.725 746.618C294.981 749.362 294.981 753.811 297.725 756.556C300.469 759.3 304.919 759.3 307.663 756.556Z" fill="#FFCECB"/>
<path d="M331.048 779.941C332.68 778.308 332.68 775.662 331.048 774.03C329.416 772.397 326.769 772.397 325.137 774.03C323.505 775.662 323.505 778.308 325.137 779.941C326.769 781.573 329.416 781.573 331.048 779.941Z" fill="#FFCECB"/>
<path d="M-24.1988 373.897C-22.3829 372.081 -22.3829 369.137 -24.1988 367.321C-26.0146 365.505 -28.9588 365.505 -30.7747 367.321C-32.5906 369.137 -32.5906 372.081 -30.7747 373.897C-28.9588 375.713 -26.0146 375.713 -24.1988 373.897Z" fill="#FFCECB"/>
<path d="M3.56412 401.66C6.68581 398.538 6.6858 393.477 3.56411 390.355C0.442416 387.234 -4.61884 387.234 -7.74053 390.355C-10.8622 393.477 -10.8622 398.538 -7.74053 401.66C-4.61884 404.782 0.442426 404.782 3.56412 401.66Z" fill="#FFCECB"/>
<path d="M31.327 429.423C35.7545 424.995 35.7545 417.817 31.327 413.389C26.8995 408.962 19.7211 408.962 15.2936 413.389C10.8661 417.817 10.8661 424.995 15.2936 429.423C19.7211 433.85 26.8995 433.85 31.327 429.423Z" fill="#FFCECB"/>
<path d="M59.0899 457.186C64.8232 451.452 64.8232 442.157 59.0899 436.424C53.3566 430.69 44.061 430.69 38.3277 436.424C32.5944 442.157 32.5944 451.452 38.3277 457.186C44.061 462.919 53.3566 462.919 59.0899 457.186Z" fill="#FFCECB"/>
<path d="M86.8528 484.949C93.8919 477.909 93.8919 466.497 86.8528 459.458C79.8136 452.419 68.401 452.419 61.3619 459.458C54.3228 466.497 54.3228 477.909 61.3619 484.949C68.401 491.988 79.8136 491.988 86.8528 484.949Z" fill="#FFCECB"/>
<path d="M114.616 512.711C122.961 504.366 122.961 490.837 114.616 482.492C106.271 474.147 92.7409 474.147 84.396 482.492C76.0511 490.837 76.0511 504.366 84.396 512.711C92.7409 521.056 106.271 521.056 114.616 512.711Z" fill="#FFCECB"/>
<path d="M142.378 540.474C152.029 530.824 152.029 515.177 142.378 505.526C132.728 495.875 117.081 495.875 107.43 505.526C97.7794 515.177 97.7794 530.824 107.43 540.474C117.081 550.125 132.728 550.125 142.378 540.474Z" fill="#FFCECB"/>
<path d="M170.141 568.237C181.098 557.281 181.098 539.517 170.141 528.56C159.185 517.604 141.421 517.604 130.464 528.56C119.508 539.517 119.508 557.281 130.464 568.237C141.421 579.194 159.185 579.194 170.141 568.237Z" fill="#FFCECB"/>
<path d="M195.54 593.636C206.496 582.679 206.496 564.915 195.54 553.959C184.583 543.002 166.819 543.002 155.863 553.959C144.906 564.915 144.906 582.679 155.863 593.636C166.819 604.592 184.583 604.592 195.54 593.636Z" fill="#FFCECB"/>
<path d="M218.574 616.67C228.225 607.019 228.225 591.372 218.574 581.721C208.923 572.071 193.276 572.071 183.626 581.721C173.975 591.372 173.975 607.019 183.626 616.67C193.276 626.321 208.923 626.321 218.574 616.67Z" fill="#FFCECB"/>
<path d="M241.608 639.704C249.953 631.359 249.953 617.829 241.608 609.484C233.263 601.139 219.733 601.139 211.389 609.484C203.044 617.829 203.044 631.359 211.389 639.704C219.733 648.049 233.263 648.049 241.608 639.704Z" fill="#FFCECB"/>
<path d="M264.642 662.738C271.681 655.699 271.681 644.286 264.642 637.247C257.603 630.208 246.191 630.208 239.151 637.247C232.112 644.286 232.112 655.699 239.151 662.738C246.191 669.777 257.603 669.777 264.642 662.738Z" fill="#FFCECB"/>
<path d="M287.676 685.772C293.41 680.039 293.41 670.743 287.676 665.01C281.943 659.277 272.648 659.277 266.914 665.01C261.181 670.743 261.181 680.039 266.914 685.772C272.648 691.506 281.943 691.506 287.676 685.772Z" fill="#FFCECB"/>
<path d="M310.711 708.806C315.138 704.379 315.138 697.2 310.711 692.773C306.283 688.345 299.105 688.345 294.677 692.773C290.25 697.2 290.25 704.379 294.677 708.806C299.105 713.234 306.283 713.234 310.711 708.806Z" fill="#FFCECB"/>
<path d="M333.745 731.841C336.866 728.719 336.866 723.658 333.745 720.536C330.623 717.414 325.562 717.414 322.44 720.536C319.318 723.658 319.318 728.719 322.44 731.841C325.562 734.962 330.623 734.962 333.745 731.841Z" fill="#FFCECB"/>
<path d="M356.779 754.875C358.595 753.059 358.595 750.115 356.779 748.299C354.963 746.483 352.019 746.483 350.203 748.299C348.387 750.115 348.387 753.059 350.203 754.875C352.019 756.691 354.963 756.691 356.779 754.875Z" fill="#FFCECB"/>
<path d="M1.53223 348.831C3.53174 346.832 3.53174 343.59 1.53223 341.59C-0.467286 339.591 -3.70913 339.591 -5.70865 341.59C-7.70816 343.59 -7.70816 346.831 -5.70865 348.831C-3.70913 350.831 -0.467286 350.831 1.53223 348.831Z" fill="#FFCECB"/>
<path d="M29.6461 376.945C33.1452 373.446 33.1452 367.772 29.6461 364.273C26.1469 360.774 20.4737 360.774 16.9745 364.273C13.4754 367.772 13.4754 373.446 16.9745 376.945C20.4737 380.444 26.1469 380.444 29.6461 376.945Z" fill="#FFCECB"/>
<path d="M57.7414 405.04C62.73 400.052 62.73 391.964 57.7414 386.975C52.7529 381.986 44.6648 381.986 39.6762 386.975C34.6876 391.964 34.6876 400.052 39.6762 405.04C44.6648 410.029 52.7529 410.029 57.7414 405.04Z" fill="#FFCECB"/>
<path d="M85.8368 433.136C92.3148 426.658 92.3148 416.155 85.8368 409.677C79.3588 403.199 68.8558 403.199 62.3778 409.677C55.8998 416.155 55.8998 426.658 62.3778 433.136C68.8558 439.614 79.3588 439.614 85.8368 433.136Z" fill="#FFCECB"/>
<path d="M113.932 461.231C121.9 453.263 121.9 440.346 113.932 432.378C105.965 424.411 93.0469 424.411 85.0795 432.378C77.112 440.346 77.112 453.263 85.0795 461.231C93.0469 469.198 105.965 469.198 113.932 461.231Z" fill="#FFCECB"/>
<path d="M142.028 489.326C151.484 479.869 151.484 464.537 142.028 455.08C132.571 445.623 117.238 445.623 107.781 455.08C98.3242 464.537 98.3242 479.869 107.781 489.326C117.238 498.783 132.571 498.783 142.028 489.326Z" fill="#FFCECB"/>
<path d="M170.141 517.44C181.098 506.484 181.098 488.72 170.141 477.763C159.185 466.807 141.421 466.807 130.464 477.763C119.508 488.72 119.508 506.484 130.464 517.44C141.421 528.397 159.185 528.397 170.141 517.44Z" fill="#FFCECB"/>
<path d="M198.237 545.536C210.683 533.09 210.683 512.911 198.237 500.465C185.791 488.019 165.612 488.019 153.166 500.465C140.72 512.911 140.72 533.09 153.166 545.536C165.612 557.981 185.791 557.981 198.237 545.536Z" fill="#FFCECB"/>
<path d="M223.635 570.934C236.081 558.488 236.081 538.309 223.635 525.863C211.189 513.417 191.01 513.417 178.564 525.863C166.118 538.309 166.118 558.488 178.564 570.934C191.01 583.38 211.189 583.38 223.635 570.934Z" fill="#FFCECB"/>
<path d="M246.337 593.636C257.293 582.679 257.293 564.915 246.337 553.959C235.38 543.002 217.616 543.002 206.66 553.959C195.703 564.915 195.703 582.679 206.66 593.636C217.616 604.592 235.38 604.592 246.337 593.636Z" fill="#FFCECB"/>
<path d="M269.02 616.319C278.477 606.862 278.477 591.529 269.02 582.072C259.563 572.616 244.231 572.616 234.774 582.072C225.317 591.529 225.317 606.862 234.774 616.319C244.231 625.776 259.563 625.776 269.02 616.319Z" fill="#FFCECB"/>
<path d="M291.722 639.02C299.689 631.053 299.689 618.135 291.722 610.168C283.754 602.2 270.837 602.2 262.869 610.168C254.902 618.135 254.902 631.053 262.869 639.02C270.837 646.988 283.754 646.988 291.722 639.02Z" fill="#FFCECB"/>
<path d="M314.423 661.722C320.901 655.244 320.901 644.741 314.423 638.263C307.945 631.785 297.442 631.785 290.964 638.263C284.486 644.741 284.486 655.244 290.964 661.722C297.442 668.2 307.945 668.2 314.423 661.722Z" fill="#FFCECB"/>
<path d="M337.125 684.424C342.114 679.435 342.114 671.347 337.125 666.359C332.136 661.37 324.048 661.37 319.06 666.359C314.071 671.347 314.071 679.435 319.06 684.424C324.048 689.412 332.136 689.412 337.125 684.424Z" fill="#FFCECB"/>
<path d="M359.827 707.125C363.326 703.626 363.326 697.953 359.827 694.454C356.328 690.955 350.654 690.955 347.155 694.454C343.656 697.953 343.656 703.626 347.155 707.125C350.654 710.625 356.328 710.625 359.827 707.125Z" fill="#FFCECB"/>
<path d="M382.51 729.809C384.509 727.809 384.509 724.567 382.51 722.568C380.51 720.568 377.268 720.568 375.269 722.568C373.269 724.567 373.269 727.809 375.269 729.809C377.269 731.808 380.51 731.808 382.51 729.809Z" fill="#FFCECB"/>
<path d="M26.9307 323.433C28.9303 321.433 28.9303 318.191 26.9307 316.192C24.9312 314.192 21.6894 314.192 19.6899 316.192C17.6903 318.191 17.6903 321.433 19.6899 323.433C21.6894 325.432 24.9312 325.432 26.9307 323.433Z" fill="#FFCECB"/>
<path d="M55.0446 351.546C58.5437 348.047 58.5437 342.374 55.0446 338.875C51.5454 335.376 45.8722 335.376 42.373 338.875C38.8739 342.374 38.8739 348.047 42.373 351.546C45.8722 355.045 51.5454 355.045 55.0446 351.546Z" fill="#FFCECB"/>
<path d="M83.1399 379.642C88.1285 374.653 88.1285 366.565 83.1399 361.576C78.1514 356.588 70.0633 356.588 65.0747 361.576C60.0861 366.565 60.0861 374.653 65.0747 379.642C70.0633 384.63 78.1514 384.63 83.1399 379.642Z" fill="#FFCECB"/>
<path d="M111.235 407.737C117.713 401.259 117.713 390.756 111.235 384.278C104.757 377.8 94.2543 377.8 87.7763 384.278C81.2983 390.756 81.2983 401.259 87.7763 407.737C94.2543 414.215 104.757 414.215 111.235 407.737Z" fill="#FFCECB"/>
<path d="M139.331 435.832C147.298 427.865 147.298 414.947 139.331 406.98C131.363 399.012 118.445 399.012 110.478 406.98C102.511 414.947 102.511 427.865 110.478 435.832C118.445 443.8 131.363 443.8 139.331 435.832Z" fill="#FFCECB"/>
<path d="M167.426 463.928C176.883 454.471 176.883 439.138 167.426 429.681C157.969 420.225 142.637 420.225 133.18 429.681C123.723 439.138 123.723 454.471 133.18 463.928C142.637 473.385 157.969 473.385 167.426 463.928Z" fill="#FFCECB"/>
<path d="M195.54 492.042C206.496 481.085 206.496 463.321 195.54 452.365C184.583 441.408 166.819 441.408 155.863 452.365C144.906 463.321 144.906 481.085 155.863 492.042C166.819 502.998 184.583 502.998 195.54 492.042Z" fill="#FFCECB"/>
<path d="M223.635 520.137C236.081 507.691 236.081 487.512 223.635 475.066C211.189 462.62 191.01 462.62 178.564 475.066C166.118 487.512 166.118 507.691 178.564 520.137C191.01 532.583 211.189 532.583 223.635 520.137Z" fill="#FFCECB"/>
<path d="M249.034 545.536C261.48 533.09 261.48 512.911 249.034 500.465C236.588 488.019 216.409 488.019 203.963 500.465C191.517 512.911 191.517 533.09 203.963 545.536C216.409 557.981 236.588 557.981 249.034 545.536Z" fill="#FFCECB"/>
<path d="M271.735 568.237C282.692 557.281 282.692 539.517 271.735 528.56C260.779 517.604 243.015 517.604 232.058 528.56C221.102 539.517 221.102 557.281 232.058 568.237C243.015 579.194 260.779 579.194 271.735 568.237Z" fill="#FFCECB"/>
<path d="M294.419 590.92C303.875 581.463 303.875 566.131 294.419 556.674C284.962 547.217 269.629 547.217 260.172 556.674C250.715 566.131 250.715 581.463 260.172 590.92C269.629 600.377 284.962 600.377 294.419 590.92Z" fill="#FFCECB"/>
<path d="M317.12 613.622C325.088 605.655 325.088 592.737 317.12 584.769C309.153 576.802 296.235 576.802 288.268 584.769C280.3 592.737 280.3 605.655 288.268 613.622C296.235 621.589 309.153 621.589 317.12 613.622Z" fill="#FFCECB"/>
<path d="M339.822 636.324C346.3 629.846 346.3 619.343 339.822 612.865C333.344 606.387 322.841 606.387 316.363 612.865C309.885 619.343 309.885 629.846 316.363 636.324C322.841 642.802 333.344 642.802 339.822 636.324Z" fill="#FFCECB"/>
<path d="M362.524 659.025C367.512 654.037 367.512 645.949 362.524 640.96C357.535 635.971 349.447 635.971 344.458 640.96C339.47 645.949 339.47 654.037 344.458 659.025C349.447 664.014 357.535 664.014 362.524 659.025Z" fill="#FFCECB"/>
<path d="M385.225 681.727C388.724 678.228 388.724 672.555 385.225 669.055C381.726 665.556 376.053 665.556 372.554 669.055C369.055 672.555 369.054 678.228 372.554 681.727C376.053 685.226 381.726 685.226 385.225 681.727Z" fill="#FFCECB"/>
<path d="M407.908 704.41C409.908 702.411 409.908 699.169 407.908 697.169C405.909 695.17 402.667 695.17 400.667 697.169C398.668 699.169 398.668 702.411 400.667 704.41C402.667 706.41 405.909 706.41 407.908 704.41Z" fill="#FFCECB"/>
<path d="M51.9968 297.702C53.8126 295.886 53.8126 292.941 51.9968 291.126C50.1809 289.31 47.2367 289.31 45.4209 291.126C43.605 292.941 43.605 295.886 45.4209 297.702C47.2367 299.517 50.1809 299.517 51.9968 297.702Z" fill="#FFCECB"/>
<path d="M79.7596 325.464C82.8813 322.343 82.8813 317.281 79.7596 314.16C76.6379 311.038 71.5767 311.038 68.455 314.16C65.3333 317.281 65.3333 322.343 68.455 325.464C71.5767 328.586 76.6379 328.586 79.7596 325.464Z" fill="#FFCECB"/>
<path d="M107.523 353.227C111.95 348.8 111.95 341.621 107.523 337.194C103.095 332.766 95.9166 332.766 91.4891 337.194C87.0616 341.621 87.0616 348.8 91.4891 353.227C95.9166 357.655 103.095 357.655 107.523 353.227Z" fill="#FFCECB"/>
<path d="M135.285 380.99C141.019 375.257 141.019 365.961 135.285 360.228C129.552 354.495 120.257 354.495 114.523 360.228C108.79 365.961 108.79 375.257 114.523 380.99C120.257 386.723 129.552 386.723 135.285 380.99Z" fill="#FFCECB"/>
<path d="M163.048 408.753C170.087 401.714 170.087 390.301 163.048 383.262C156.009 376.223 144.597 376.223 137.557 383.262C130.518 390.301 130.518 401.714 137.557 408.753C144.597 415.792 156.009 415.792 163.048 408.753Z" fill="#FFCECB"/>
<path d="M190.811 436.516C199.156 428.171 199.156 414.641 190.811 406.296C182.466 397.951 168.936 397.951 160.592 406.296C152.247 414.641 152.247 428.171 160.592 436.516C168.936 444.861 182.466 444.861 190.811 436.516Z" fill="#FFCECB"/>
<path d="M218.574 464.279C228.225 454.628 228.225 438.981 218.574 429.33C208.923 419.68 193.276 419.68 183.626 429.33C173.975 438.981 173.975 454.628 183.626 464.279C193.276 473.929 208.923 473.929 218.574 464.279Z" fill="#FFCECB"/>
<path d="M246.337 492.042C257.293 481.085 257.293 463.321 246.337 452.365C235.38 441.408 217.616 441.408 206.66 452.365C195.703 463.321 195.703 481.085 206.66 492.042C217.616 502.998 235.38 502.998 246.337 492.042Z" fill="#FFCECB"/>
<path d="M271.735 517.44C282.692 506.484 282.692 488.72 271.735 477.763C260.779 466.807 243.015 466.807 232.058 477.763C221.102 488.72 221.102 506.484 232.058 517.44C243.015 528.397 260.779 528.397 271.735 517.44Z" fill="#FFCECB"/>
<path d="M294.77 540.474C304.42 530.824 304.42 515.177 294.77 505.526C285.119 495.875 269.472 495.875 259.821 505.526C250.17 515.177 250.17 530.824 259.821 540.474C269.472 550.125 285.119 550.125 294.77 540.474Z" fill="#FFCECB"/>
<path d="M317.804 563.508C326.149 555.164 326.149 541.634 317.804 533.289C309.459 524.944 295.929 524.944 287.584 533.289C279.239 541.634 279.239 555.164 287.584 563.508C295.929 571.853 309.459 571.853 317.804 563.508Z" fill="#FFCECB"/>
<path d="M340.838 586.543C347.877 579.503 347.877 568.091 340.838 561.052C333.799 554.013 322.386 554.013 315.347 561.052C308.308 568.091 308.308 579.503 315.347 586.543C322.386 593.582 333.799 593.582 340.838 586.543Z" fill="#FFCECB"/>
<path d="M363.872 609.577C369.605 603.843 369.605 594.548 363.872 588.815C358.139 583.081 348.843 583.081 343.11 588.815C337.377 594.548 337.377 603.843 343.11 609.577C348.843 615.31 358.139 615.31 363.872 609.577Z" fill="#FFCECB"/>
<path d="M386.906 632.611C391.334 628.183 391.334 621.005 386.906 616.577C382.479 612.15 375.3 612.15 370.873 616.577C366.445 621.005 366.445 628.183 370.873 632.611C375.3 637.038 382.479 637.038 386.906 632.611Z" fill="#FFCECB"/>
<path d="M409.94 655.645C413.062 652.523 413.062 647.462 409.94 644.34C406.819 641.219 401.757 641.219 398.636 644.34C395.514 647.462 395.514 652.523 398.636 655.645C401.757 658.767 406.819 658.767 409.94 655.645Z" fill="#FFCECB"/>
<path d="M432.974 678.679C434.79 676.863 434.79 673.919 432.974 672.103C431.158 670.287 428.214 670.287 426.398 672.103C424.583 673.919 424.583 676.863 426.398 678.679C428.214 680.495 431.158 680.495 432.974 678.679Z" fill="#FFCECB"/>
<path d="M77.0628 271.971C78.695 270.338 78.6951 267.692 77.0628 266.06C75.4305 264.427 72.7841 264.427 71.1519 266.06C69.5196 267.692 69.5196 270.338 71.1519 271.971C72.7841 273.603 75.4305 273.603 77.0628 271.971Z" fill="#FFCECB"/>
<path d="M104.475 299.382C107.219 296.638 107.219 292.189 104.475 289.445C101.73 286.7 97.2812 286.7 94.537 289.445C91.7927 292.189 91.7927 296.638 94.537 299.382C97.2812 302.127 101.73 302.127 104.475 299.382Z" fill="#FFCECB"/>
<path d="M131.905 326.813C135.772 322.946 135.771 316.678 131.905 312.811C128.039 308.945 121.77 308.945 117.904 312.811C114.037 316.678 114.037 322.946 117.904 326.813C121.77 330.679 128.039 330.679 131.905 326.813Z" fill="#FFCECB"/>
<path d="M159.335 354.243C164.324 349.255 164.324 341.167 159.335 336.178C154.347 331.189 146.259 331.189 141.27 336.178C136.282 341.167 136.282 349.255 141.27 354.243C146.259 359.232 154.347 359.232 159.335 354.243Z" fill="#FFCECB"/>
<path d="M186.747 381.655C192.848 375.555 192.848 365.664 186.747 359.563C180.647 353.462 170.756 353.462 164.655 359.563C158.555 365.664 158.555 375.555 164.655 381.655C170.756 387.756 180.647 387.756 186.747 381.655Z" fill="#FFCECB"/>
<path d="M214.178 409.085C221.401 401.863 221.401 390.152 214.178 382.93C206.955 375.707 195.245 375.707 188.022 382.93C180.799 390.152 180.799 401.863 188.022 409.085C195.245 416.308 206.955 416.308 214.178 409.085Z" fill="#FFCECB"/>
<path d="M241.608 436.516C249.953 428.171 249.953 414.641 241.608 406.296C233.263 397.951 219.733 397.951 211.389 406.296C203.044 414.641 203.044 428.171 211.389 436.516C219.733 444.861 233.263 444.861 241.608 436.516Z" fill="#FFCECB"/>
<path d="M269.039 463.946C278.506 454.479 278.506 439.13 269.039 429.663C259.571 420.196 244.222 420.196 234.755 429.663C225.288 439.13 225.288 454.479 234.755 463.946C244.222 473.413 259.571 473.413 269.039 463.946Z" fill="#FFCECB"/>
<path d="M294.437 489.345C303.904 479.878 303.904 464.529 294.437 455.061C284.97 445.594 269.621 445.594 260.154 455.061C250.687 464.529 250.687 479.878 260.154 489.345C269.621 498.812 284.97 498.812 294.437 489.345Z" fill="#FFCECB"/>
<path d="M317.804 512.711C326.149 504.366 326.149 490.837 317.804 482.492C309.459 474.147 295.929 474.147 287.584 482.492C279.239 490.837 279.239 504.366 287.584 512.711C295.929 521.056 309.459 521.056 317.804 512.711Z" fill="#FFCECB"/>
<path d="M341.17 536.078C348.393 528.855 348.393 517.145 341.17 509.922C333.948 502.699 322.237 502.699 315.014 509.922C307.792 517.145 307.792 528.855 315.014 536.078C322.237 543.301 333.948 543.301 341.17 536.078Z" fill="#FFCECB"/>
<path d="M364.537 559.445C370.638 553.344 370.638 543.453 364.537 537.353C358.436 531.252 348.545 531.252 342.445 537.353C336.344 543.453 336.344 553.344 342.445 559.445C348.545 565.545 358.436 565.545 364.537 559.445Z" fill="#FFCECB"/>
<path d="M387.922 582.83C392.911 577.841 392.911 569.753 387.922 564.765C382.933 559.776 374.845 559.776 369.857 564.765C364.868 569.753 364.868 577.841 369.857 582.83C374.845 587.818 382.933 587.818 387.922 582.83Z" fill="#FFCECB"/>
<path d="M411.289 606.196C415.155 602.33 415.155 596.061 411.289 592.195C407.422 588.328 401.154 588.328 397.287 592.195C393.421 596.061 393.421 602.33 397.287 606.196C401.154 610.063 407.422 610.063 411.289 606.196Z" fill="#FFCECB"/>
<path d="M434.655 629.563C437.4 626.819 437.4 622.37 434.655 619.625C431.911 616.881 427.462 616.881 424.718 619.625C421.973 622.37 421.973 626.819 424.718 629.563C427.462 632.307 431.911 632.307 434.655 629.563Z" fill="#FFCECB"/>
<path d="M458.04 652.948C459.673 651.316 459.673 648.669 458.04 647.037C456.408 645.405 453.762 645.405 452.129 647.037C450.497 648.669 450.497 651.316 452.129 652.948C453.762 654.58 456.408 654.58 458.04 652.948Z" fill="#FFCECB"/>
<path d="M129.208 273.319C131.585 270.942 131.585 267.088 129.208 264.711C126.831 262.334 122.977 262.334 120.6 264.711C118.223 267.088 118.223 270.942 120.6 273.319C122.977 275.696 126.831 275.696 129.208 273.319Z" fill="#FFCECB"/>
<path d="M156.288 300.398C159.593 297.093 159.593 291.734 156.288 288.429C152.982 285.123 147.623 285.123 144.318 288.429C141.013 291.734 141.013 297.093 144.318 300.398C147.623 303.704 152.982 303.704 156.288 300.398Z" fill="#FFCECB"/>
<path d="M183.386 327.496C187.629 323.252 187.629 316.372 183.386 312.128C179.142 307.884 172.261 307.884 168.017 312.128C163.773 316.372 163.773 323.252 168.017 327.496C172.261 331.74 179.142 331.74 183.386 327.496Z" fill="#FFCECB"/>
<path d="M210.465 354.576C215.637 349.403 215.637 341.018 210.465 335.845C205.293 330.673 196.907 330.673 191.735 335.845C186.563 341.018 186.563 349.403 191.735 354.576C196.907 359.748 205.293 359.748 210.465 354.576Z" fill="#FFCECB"/>
<path d="M237.544 381.655C243.645 375.555 243.645 365.664 237.544 359.563C231.444 353.462 221.553 353.462 215.452 359.563C209.352 365.664 209.352 375.555 215.452 381.655C221.553 387.756 231.444 387.756 237.544 381.655Z" fill="#FFCECB"/>
<path d="M264.642 408.753C271.681 401.714 271.681 390.301 264.642 383.262C257.603 376.223 246.191 376.223 239.151 383.262C232.112 390.301 232.112 401.714 239.151 408.753C246.191 415.792 257.603 415.792 264.642 408.753Z" fill="#FFCECB"/>
<path d="M291.722 435.832C299.689 427.865 299.689 414.947 291.722 406.98C283.754 399.012 270.837 399.012 262.869 406.98C254.902 414.947 254.902 427.865 262.869 435.832C270.837 443.8 283.754 443.8 291.722 435.832Z" fill="#FFCECB"/>
<path d="M317.12 461.231C325.088 453.263 325.088 440.346 317.12 432.378C309.153 424.411 296.235 424.411 288.268 432.378C280.3 440.346 280.3 453.263 288.268 461.231C296.235 469.198 309.153 469.198 317.12 461.231Z" fill="#FFCECB"/>
<path d="M340.838 484.949C347.877 477.909 347.877 466.497 340.838 459.458C333.799 452.419 322.386 452.419 315.347 459.458C308.308 466.497 308.308 477.909 315.347 484.949C322.386 491.988 333.799 491.988 340.838 484.949Z" fill="#FFCECB"/>
<path d="M364.537 508.648C370.638 502.547 370.638 492.656 364.537 486.556C358.436 480.455 348.545 480.455 342.445 486.556C336.344 492.656 336.344 502.547 342.445 508.648C348.545 514.748 358.436 514.748 364.537 508.648Z" fill="#FFCECB"/>
<path d="M388.255 532.365C393.427 527.193 393.427 518.807 388.255 513.635C383.082 508.463 374.696 508.463 369.524 513.635C364.352 518.807 364.352 527.193 369.524 532.365C374.696 537.537 383.082 537.537 388.255 532.365Z" fill="#FFCECB"/>
<path d="M411.972 556.083C416.216 551.839 416.216 544.958 411.972 540.714C407.728 536.471 400.848 536.471 396.604 540.714C392.36 544.958 392.36 551.839 396.604 556.083C400.848 560.327 407.728 560.327 411.972 556.083Z" fill="#FFCECB"/>
<path d="M435.671 579.782C438.977 576.477 438.977 571.118 435.671 567.812C432.366 564.507 427.007 564.507 423.702 567.812C420.396 571.118 420.396 576.477 423.702 579.782C427.007 583.087 432.366 583.087 435.671 579.782Z" fill="#FFCECB"/>
<path d="M459.389 603.5C461.766 601.123 461.766 597.269 459.389 594.892C457.012 592.515 453.158 592.515 450.781 594.892C448.404 597.269 448.404 601.123 450.781 603.5C453.158 605.877 457.012 605.877 459.389 603.5Z" fill="#FFCECB"/>
<path d="M153.923 247.237C155.923 245.237 155.923 241.996 153.923 239.996C151.924 237.997 148.682 237.997 146.682 239.996C144.683 241.996 144.683 245.237 146.682 247.237C148.682 249.237 151.924 249.236 153.923 247.237Z" fill="#FFCECB"/>
<path d="M180.67 273.984C183.414 271.24 183.414 266.79 180.67 264.046C177.926 261.302 173.477 261.302 170.732 264.046C167.988 266.79 167.988 271.24 170.732 273.984C173.477 276.728 177.926 276.728 180.67 273.984Z" fill="#FFCECB"/>
<path d="M207.436 300.749C210.935 297.25 210.935 291.577 207.436 288.078C203.936 284.579 198.263 284.579 194.764 288.078C191.265 291.577 191.265 297.25 194.764 300.749C198.263 304.248 203.936 304.248 207.436 300.749Z" fill="#FFCECB"/>
<path d="M234.183 327.496C238.426 323.252 238.426 316.372 234.183 312.128C229.939 307.884 223.058 307.884 218.814 312.128C214.57 316.372 214.57 323.252 218.814 327.496C223.058 331.74 229.939 331.74 234.183 327.496Z" fill="#FFCECB"/>
<path d="M260.929 354.243C265.918 349.255 265.918 341.167 260.929 336.178C255.941 331.189 247.853 331.189 242.864 336.178C237.876 341.167 237.876 349.255 242.864 354.243C247.853 359.232 255.941 359.232 260.929 354.243Z" fill="#FFCECB"/>
<path d="M287.676 380.99C293.41 375.257 293.41 365.961 287.676 360.228C281.943 354.495 272.648 354.495 266.914 360.228C261.181 365.961 261.181 375.257 266.914 380.99C272.648 386.723 281.943 386.723 287.676 380.99Z" fill="#FFCECB"/>
<path d="M314.423 407.737C320.901 401.259 320.901 390.756 314.423 384.278C307.945 377.8 297.442 377.8 290.964 384.278C284.486 390.756 284.486 401.259 290.964 407.737C297.442 414.215 307.945 414.215 314.423 407.737Z" fill="#FFCECB"/>
<path d="M339.822 433.136C346.3 426.658 346.3 416.155 339.822 409.677C333.344 403.199 322.841 403.199 316.363 409.677C309.885 416.155 309.885 426.658 316.363 433.136C322.841 439.614 333.344 439.614 339.822 433.136Z" fill="#FFCECB"/>
<path d="M363.872 457.186C369.605 451.452 369.605 442.157 363.872 436.424C358.139 430.69 348.843 430.69 343.11 436.424C337.377 442.157 337.377 451.452 343.11 457.186C348.843 462.919 358.139 462.919 363.872 457.186Z" fill="#FFCECB"/>
<path d="M387.922 481.236C392.911 476.247 392.911 468.159 387.922 463.17C382.933 458.182 374.845 458.182 369.857 463.17C364.868 468.159 364.868 476.247 369.857 481.236C374.845 486.224 382.933 486.224 387.922 481.236Z" fill="#FFCECB"/>
<path d="M411.972 505.286C416.216 501.042 416.216 494.161 411.972 489.917C407.728 485.674 400.848 485.674 396.604 489.917C392.36 494.161 392.36 501.042 396.604 505.286C400.848 509.53 407.728 509.53 411.972 505.286Z" fill="#FFCECB"/>
<path d="M436.022 529.336C439.521 525.837 439.521 520.164 436.022 516.664C432.523 513.165 426.85 513.165 423.351 516.664C419.852 520.164 419.852 525.837 423.351 529.336C426.85 532.835 432.523 532.835 436.022 529.336Z" fill="#FFCECB"/>
<path d="M460.054 553.367C462.798 550.623 462.798 546.174 460.054 543.43C457.31 540.686 452.86 540.686 450.116 543.43C447.372 546.174 447.372 550.623 450.116 553.367C452.86 556.112 457.31 556.112 460.054 553.367Z" fill="#FFCECB"/>
<path d="M484.104 577.418C486.103 575.418 486.103 572.176 484.104 570.177C482.104 568.177 478.863 568.177 476.863 570.177C474.863 572.176 474.863 575.418 476.863 577.418C478.863 579.417 482.104 579.417 484.104 577.418Z" fill="#FFCECB"/>
<path d="M205.071 247.588C207.265 245.395 207.265 241.838 205.071 239.645C202.878 237.452 199.322 237.452 197.128 239.645C194.935 241.838 194.935 245.395 197.128 247.588C199.322 249.781 202.878 249.781 205.071 247.588Z" fill="#FFCECB"/>
<path d="M231.467 273.984C234.211 271.24 234.211 266.79 231.467 264.046C228.723 261.302 224.274 261.302 221.529 264.046C218.785 266.79 218.785 271.24 221.529 273.984C224.274 276.728 228.723 276.728 231.467 273.984Z" fill="#FFCECB"/>
<path d="M257.882 300.398C261.187 297.093 261.187 291.734 257.882 288.429C254.576 285.123 249.217 285.123 245.912 288.429C242.607 291.734 242.607 297.093 245.912 300.398C249.217 303.704 254.576 303.704 257.882 300.398Z" fill="#FFCECB"/>
<path d="M284.296 326.813C288.163 322.946 288.163 316.678 284.296 312.811C280.43 308.945 274.161 308.945 270.295 312.811C266.428 316.678 266.428 322.946 270.295 326.813C274.161 330.679 280.43 330.679 284.296 326.813Z" fill="#FFCECB"/>
<path d="M310.711 353.227C315.138 348.8 315.138 341.621 310.711 337.194C306.283 332.766 299.105 332.766 294.677 337.194C290.25 341.621 290.25 348.8 294.677 353.227C299.105 357.655 306.283 357.655 310.711 353.227Z" fill="#FFCECB"/>
<path d="M337.125 379.642C342.114 374.653 342.114 366.565 337.125 361.576C332.136 356.588 324.048 356.588 319.06 361.576C314.071 366.565 314.071 374.653 319.06 379.642C324.048 384.63 332.136 384.63 337.125 379.642Z" fill="#FFCECB"/>
<path d="M362.524 405.04C367.512 400.052 367.512 391.964 362.524 386.975C357.535 381.986 349.447 381.986 344.458 386.975C339.47 391.964 339.47 400.052 344.458 405.04C349.447 410.029 357.535 410.029 362.524 405.04Z" fill="#FFCECB"/>
<path d="M386.906 429.423C391.334 424.995 391.334 417.817 386.906 413.389C382.479 408.962 375.3 408.962 370.873 413.389C366.445 417.817 366.445 424.995 370.873 429.423C375.3 433.85 382.479 433.85 386.906 429.423Z" fill="#FFCECB"/>
<path d="M411.289 453.805C415.155 449.939 415.155 443.67 411.289 439.804C407.422 435.937 401.154 435.937 397.287 439.804C393.421 443.67 393.421 449.939 397.287 453.805C401.154 457.672 407.422 457.672 411.289 453.805Z" fill="#FFCECB"/>
<path d="M435.671 478.188C438.977 474.883 438.977 469.524 435.671 466.218C432.366 462.913 427.007 462.913 423.702 466.218C420.396 469.524 420.396 474.883 423.702 478.188C427.007 481.493 432.366 481.493 435.671 478.188Z" fill="#FFCECB"/>
<path d="M460.054 502.57C462.798 499.826 462.798 495.377 460.054 492.633C457.31 489.889 452.86 489.889 450.116 492.633C447.372 495.377 447.372 499.826 450.116 502.57C452.86 505.315 457.31 505.315 460.054 502.57Z" fill="#FFCECB"/>
<path d="M484.455 526.972C486.648 524.778 486.648 521.222 484.455 519.029C482.261 516.835 478.705 516.835 476.512 519.029C474.319 521.222 474.319 524.778 476.512 526.972C478.705 529.165 482.261 529.165 484.455 526.972Z" fill="#FFCECB"/>
<path d="M255.517 247.237C257.517 245.237 257.517 241.996 255.517 239.996C253.518 237.997 250.276 237.997 248.276 239.996C246.277 241.996 246.277 245.237 248.276 247.237C250.276 249.236 253.518 249.236 255.517 247.237Z" fill="#FFCECB"/>
<path d="M281.599 273.319C283.976 270.942 283.976 267.088 281.599 264.711C279.222 262.334 275.368 262.334 272.991 264.711C270.615 267.088 270.615 270.942 272.991 273.319C275.368 275.696 279.222 275.696 281.599 273.319Z" fill="#FFCECB"/>
<path d="M307.663 299.382C310.407 296.638 310.407 292.189 307.663 289.445C304.919 286.7 300.469 286.7 297.725 289.445C294.981 292.189 294.981 296.638 297.725 299.382C300.469 302.127 304.919 302.127 307.663 299.382Z" fill="#FFCECB"/>
<path d="M333.745 325.464C336.866 322.343 336.866 317.281 333.745 314.16C330.623 311.038 325.562 311.038 322.44 314.16C319.318 317.281 319.318 322.343 322.44 325.464C325.562 328.586 330.623 328.586 333.745 325.464Z" fill="#FFCECB"/>
<path d="M359.827 351.546C363.326 348.047 363.326 342.374 359.827 338.875C356.328 335.376 350.654 335.376 347.155 338.875C343.656 342.374 343.656 348.047 347.155 351.546C350.654 355.045 356.328 355.045 359.827 351.546Z" fill="#FFCECB"/>
<path d="M385.225 376.945C388.724 373.446 388.724 367.772 385.225 364.273C381.726 360.774 376.053 360.774 372.554 364.273C369.054 367.772 369.055 373.446 372.554 376.945C376.053 380.444 381.726 380.444 385.225 376.945Z" fill="#FFCECB"/>
<path d="M409.94 401.66C413.062 398.538 413.062 393.477 409.94 390.355C406.819 387.234 401.757 387.234 398.636 390.355C395.514 393.477 395.514 398.538 398.636 401.66C401.757 404.782 406.819 404.782 409.94 401.66Z" fill="#FFCECB"/>
<path d="M434.655 426.375C437.4 423.631 437.4 419.181 434.655 416.437C431.911 413.693 427.462 413.693 424.718 416.437C421.973 419.181 421.973 423.631 424.718 426.375C427.462 429.119 431.911 429.119 434.655 426.375Z" fill="#FFCECB"/>
<path d="M459.389 451.108C461.766 448.732 461.766 444.878 459.389 442.501C457.012 440.124 453.158 440.124 450.781 442.501C448.404 444.878 448.404 448.732 450.781 451.108C453.158 453.485 457.012 453.485 459.389 451.108Z" fill="#FFCECB"/>
<path d="M484.104 475.824C486.103 473.824 486.103 470.582 484.104 468.583C482.104 466.583 478.863 466.583 476.863 468.583C474.863 470.582 474.863 473.824 476.863 475.824C478.863 477.823 482.104 477.823 484.104 475.824Z" fill="#FFCECB"/>
<path d="M331.048 271.97C332.68 270.338 332.68 267.692 331.048 266.06C329.416 264.427 326.769 264.427 325.137 266.06C323.505 267.692 323.505 270.338 325.137 271.971C326.769 273.603 329.416 273.603 331.048 271.97Z" fill="#FFCECB"/>
<path d="M356.779 297.701C358.595 295.886 358.595 292.941 356.779 291.126C354.963 289.31 352.019 289.31 350.203 291.126C348.387 292.941 348.387 295.886 350.203 297.701C352.019 299.517 354.963 299.517 356.779 297.701Z" fill="#FFCECB"/>
<path d="M382.51 323.432C384.509 321.433 384.509 318.191 382.51 316.192C380.51 314.192 377.269 314.192 375.269 316.192C373.269 318.191 373.269 321.433 375.269 323.433C377.268 325.432 380.51 325.432 382.51 323.432Z" fill="#FFCECB"/>
<path d="M407.908 348.831C409.908 346.831 409.908 343.59 407.908 341.59C405.909 339.591 402.667 339.591 400.667 341.59C398.668 343.59 398.668 346.831 400.667 348.831C402.667 350.831 405.909 350.831 407.908 348.831Z" fill="#FFCECB"/>
<path d="M432.974 373.897C434.79 372.081 434.79 369.137 432.974 367.321C431.158 365.505 428.214 365.505 426.398 367.321C424.583 369.137 424.583 372.081 426.398 373.897C428.214 375.713 431.158 375.713 432.974 373.897Z" fill="#FFCECB"/>
<path d="M458.04 398.963C459.673 397.331 459.673 394.684 458.04 393.052C456.408 391.42 453.762 391.42 452.129 393.052C450.497 394.684 450.497 397.331 452.129 398.963C453.762 400.595 456.408 400.595 458.04 398.963Z" fill="#FFCECB"/>
<ellipse cx="201" cy="607.5" rx="139" ry="35.5" fill="#FFA69B"/>
<path d="M323.103 192.554C323.49 191.815 324.51 191.815 324.897 192.554L325.735 194.154C325.882 194.434 326.143 194.631 326.444 194.69L328.165 195.025C328.96 195.18 329.275 196.189 328.72 196.8L327.517 198.124C327.306 198.356 327.207 198.675 327.246 198.991L327.471 200.798C327.575 201.633 326.751 202.256 326.02 201.895L324.438 201.114C324.161 200.977 323.839 200.977 323.562 201.114L321.98 201.895C321.249 202.256 320.425 201.633 320.529 200.798L320.754 198.991C320.793 198.675 320.694 198.356 320.483 198.124L319.28 196.8C318.725 196.189 319.04 195.18 319.835 195.025L321.556 194.69C321.857 194.631 322.118 194.434 322.265 194.154L323.103 192.554Z" fill="white"/>
<circle cx="296.5" cy="840.5" r="5.5" fill="white"/>
<circle cx="376" cy="825" r="10" fill="white"/>
<circle cx="79.5" cy="35.5" r="7.5" fill="white"/>
<path d="M388.728 234.032C389.299 233.462 390.223 233.462 390.793 234.032L392.489 235.728C393.059 236.298 393.059 237.223 392.489 237.793L390.793 239.489C390.223 240.059 389.299 240.059 388.728 239.489L387.032 237.793C386.462 237.223 386.462 236.298 387.032 235.728L388.728 234.032Z" fill="white"/>
<path d="M13.4957 794.268C14.8531 793.568 16.5212 794.1 17.2215 795.458L19.3047 799.496C20.005 800.853 19.4723 802.521 18.1149 803.221L14.0771 805.305C12.7196 806.005 11.0515 805.472 10.3512 804.115L8.26804 800.077C7.56773 798.72 8.10042 797.052 9.45783 796.351L13.4957 794.268Z" fill="white"/>
<path d="M359.574 33.951C361.54 30.7416 366.437 31.71 367.034 35.4261L367.909 40.876C368.097 42.0444 368.785 43.0724 369.794 43.6905L374.501 46.5738C377.71 48.5398 376.742 53.4374 373.026 54.0341L367.576 54.9091C366.408 55.0967 365.38 55.7854 364.761 56.7944L361.878 61.5012C359.912 64.7106 355.015 63.7422 354.418 60.0262L353.543 54.5762C353.355 53.4078 352.667 52.3798 351.658 51.7617L346.951 48.8784C343.741 46.9124 344.71 42.0148 348.426 41.4181L353.876 40.5431C355.044 40.3555 356.072 39.6669 356.69 38.6578L359.574 33.951Z" fill="white"/>
<path d="M28.5922 85.5343C28.7111 84.524 30.0227 84.207 30.59 85.0513L31.422 86.2896C31.6004 86.5551 31.8858 86.7294 32.2034 86.7668L33.685 86.9412C34.6953 87.0602 35.0124 88.3717 34.168 88.939L32.9297 89.771C32.6642 89.9494 32.49 90.2348 32.4526 90.5525L32.2781 92.0341C32.1591 93.0443 30.8476 93.3614 30.2803 92.5171L29.4483 91.2787C29.2699 91.0133 28.9845 90.839 28.6669 90.8016L27.1852 90.6271C26.175 90.5082 25.8579 89.1966 26.7023 88.6293L27.9406 87.7973C28.206 87.619 28.3803 87.3335 28.4177 87.0159L28.5922 85.5343Z" fill="white"/>
<circle cx="79.5" cy="506.5" r="3.5" fill="white"/>
<path d="M31.3773 271.663C31.2203 268.466 35.1259 266.798 37.3265 269.124L40.5538 272.534C41.2457 273.265 42.2223 273.657 43.2276 273.608L47.9171 273.377C51.1147 273.22 52.7819 277.126 50.4568 279.326L47.0467 282.554C46.3157 283.246 45.9234 284.222 45.9728 285.228L46.203 289.917C46.36 293.115 42.4544 294.782 40.2539 292.457L37.0265 289.047C36.3347 288.316 35.358 287.923 34.3527 287.973L29.6632 288.203C26.4657 288.36 24.7984 284.454 27.1236 282.254L30.5336 279.027C31.2646 278.335 31.6569 277.358 31.6076 276.353L31.3773 271.663Z" fill="white"/>
<path d="M368.002 463.945C369.915 461.105 374.329 462.176 374.726 465.577L375.308 470.566C375.433 471.635 376.019 472.596 376.912 473.198L381.078 476.002C383.918 477.915 382.847 482.329 379.446 482.726L374.457 483.308C373.388 483.433 372.427 484.019 371.825 484.912L369.021 489.078C367.108 491.918 362.694 490.847 362.297 487.445L361.715 482.457C361.59 481.388 361.004 480.427 360.111 479.825L355.945 477.021C353.105 475.108 354.176 470.694 357.578 470.297L362.566 469.715C363.635 469.59 364.596 469.004 365.198 468.111L368.002 463.945Z" fill="white"/>
</g>
<defs>
<radialGradient id="paint0_radial_4_3109" cx="0" cy="0" r="1" gradientUnits="userSpaceOnUse" gradientTransform="translate(201 437) rotate(90.7712) scale(631.557 411.07)">
<stop stop-color="white"/>
<stop offset="1" stop-color="#FFD9D4"/>
</radialGradient>
<clipPath id="clip0_4_3109">
<rect width="402" height="874" fill="white"/>
</clipPath>
</defs>
</svg>
