<svg width="402" height="874" viewBox="0 0 402 874" fill="none" xmlns="http://www.w3.org/2000/svg">
<g clip-path="url(#clip0_4_3106)">
<rect width="402" height="874" fill="url(#paint0_radial_4_3106)"/>
<path d="M-172.362 716.326C-169.933 713.898 -169.933 709.961 -172.362 707.532C-174.79 705.104 -178.727 705.104 -181.155 707.532C-183.584 709.961 -183.584 713.898 -181.155 716.326C-178.727 718.755 -174.79 718.755 -172.362 716.326Z" fill="#CECBFF"/>
<path d="M-134.081 754.607C-131.38 751.905 -131.38 747.525 -134.081 744.824C-136.783 742.122 -141.163 742.122 -143.864 744.824C-146.566 747.525 -146.566 751.905 -143.864 754.607C-141.163 757.308 -136.783 757.308 -134.081 754.607Z" fill="#CECBFF"/>
<path d="M-95.8007 792.887C-92.826 789.913 -92.826 785.09 -95.8007 782.115C-98.7754 779.14 -103.598 779.14 -106.573 782.115C-109.548 785.09 -109.548 789.913 -106.573 792.887C-103.598 795.862 -98.7754 795.862 -95.8007 792.887Z" fill="#CECBFF"/>
<path d="M-58.0148 830.673C-55.0401 827.698 -55.0401 822.875 -58.0148 819.901C-60.9896 816.926 -65.8125 816.926 -68.7872 819.901C-71.762 822.875 -71.762 827.698 -68.7872 830.673C-65.8125 833.648 -60.9896 833.648 -58.0148 830.673Z" fill="#CECBFF"/>
<path d="M-20.7236 867.964C-18.0221 865.263 -18.0221 860.883 -20.7236 858.181C-23.4252 855.48 -27.8052 855.48 -30.5067 858.181C-33.2083 860.883 -33.2083 865.263 -30.5067 867.964C-27.8052 870.666 -23.4252 870.666 -20.7236 867.964Z" fill="#CECBFF"/>
<path d="M16.5676 905.256C18.9959 902.827 18.9959 898.89 16.5676 896.462C14.1392 894.033 10.2021 894.033 7.77376 896.462C5.34542 898.89 5.34544 902.827 7.77378 905.256C10.2021 907.684 14.1392 907.684 16.5676 905.256Z" fill="#CECBFF"/>
<path d="M-209.158 603.958C-206.184 600.983 -206.184 596.16 -209.158 593.186C-212.133 590.211 -216.956 590.211 -219.931 593.186C-222.905 596.16 -222.905 600.983 -219.931 603.958C-216.956 606.933 -212.133 606.933 -209.158 603.958Z" fill="#CECBFF"/>
<path d="M-170.356 642.761C-166.819 639.224 -166.819 633.491 -170.356 629.955C-173.892 626.418 -179.625 626.418 -183.162 629.955C-186.698 633.491 -186.698 639.224 -183.162 642.761C-179.625 646.297 -173.892 646.297 -170.356 642.761Z" fill="#CECBFF"/>
<path d="M-131.58 681.536C-127.498 677.453 -127.498 670.834 -131.58 666.751C-135.663 662.669 -142.282 662.669 -146.365 666.751C-150.448 670.834 -150.448 677.453 -146.365 681.536C-142.282 685.618 -135.663 685.618 -131.58 681.536Z" fill="#CECBFF"/>
<path d="M-92.7778 720.338C-88.1336 715.694 -88.1336 708.164 -92.7778 703.52C-97.422 698.876 -104.952 698.876 -109.596 703.52C-114.24 708.164 -114.24 715.694 -109.596 720.338C-104.952 724.983 -97.422 724.983 -92.7778 720.338Z" fill="#CECBFF"/>
<path d="M-53.9752 759.141C-48.7694 753.935 -48.7694 745.495 -53.9752 740.289C-59.1809 735.084 -67.6211 735.084 -72.8269 740.289C-78.0326 745.495 -78.0326 753.935 -72.8269 759.141C-67.6211 764.347 -59.1809 764.347 -53.9752 759.141Z" fill="#CECBFF"/>
<path d="M-16.1893 796.927C-10.9836 791.721 -10.9836 783.281 -16.1893 778.075C-21.3951 772.869 -29.8353 772.869 -35.041 778.075C-40.2468 783.281 -40.2468 791.721 -35.041 796.927C-29.8353 802.133 -21.3951 802.133 -16.1893 796.927Z" fill="#CECBFF"/>
<path d="M20.5797 833.696C25.2239 829.052 25.2239 821.522 20.5797 816.878C15.9355 812.234 8.4058 812.234 3.7616 816.878C-0.882604 821.522 -0.882619 829.052 3.76158 833.696C8.40578 838.34 15.9355 838.34 20.5797 833.696Z" fill="#CECBFF"/>
<path d="M57.3488 870.465C61.4315 866.382 61.4315 859.763 57.3488 855.68C53.2662 851.598 46.6469 851.598 42.5642 855.68C38.4816 859.763 38.4816 866.382 42.5642 870.465C46.6469 874.548 53.2662 874.548 57.3488 870.465Z" fill="#CECBFF"/>
<path d="M94.1453 907.262C97.6816 903.725 97.6816 897.992 94.1453 894.456C90.6091 890.919 84.8756 890.919 81.3394 894.456C77.8031 897.992 77.8031 903.725 81.3394 907.262C84.8757 910.798 90.6091 910.798 94.1453 907.262Z" fill="#CECBFF"/>
<path d="M130.914 944.031C133.889 941.056 133.889 936.233 130.914 933.258C127.94 930.284 123.117 930.284 120.142 933.258C117.167 936.233 117.167 941.056 120.142 944.031C123.117 947.005 127.94 947.005 130.914 944.031Z" fill="#CECBFF"/>
<path d="M-208.636 528.908C-205.373 525.645 -205.373 520.355 -208.636 517.092C-211.899 513.829 -217.19 513.829 -220.453 517.092C-223.716 520.355 -223.716 525.645 -220.453 528.908C-217.19 532.172 -211.899 532.172 -208.636 528.908Z" fill="#CECBFF"/>
<path d="M-169.366 568.178C-165.284 564.096 -165.284 557.476 -169.366 553.394C-173.449 549.311 -180.068 549.311 -184.151 553.394C-188.234 557.476 -188.234 564.096 -184.151 568.178C-180.068 572.261 -173.449 572.261 -169.366 568.178Z" fill="#CECBFF"/>
<path d="M-130.069 607.476C-125.152 602.558 -125.152 594.585 -130.069 589.668C-134.986 584.751 -142.959 584.751 -147.876 589.668C-152.794 594.585 -152.794 602.558 -147.876 607.476C-142.959 612.393 -134.986 612.393 -130.069 607.476Z" fill="#CECBFF"/>
<path d="M-90.7717 646.773C-85.0196 641.021 -85.0196 631.695 -90.7717 625.943C-96.5239 620.19 -105.85 620.19 -111.602 625.943C-117.354 631.695 -117.354 641.021 -111.602 646.773C-105.85 652.525 -96.5239 652.525 -90.7717 646.773Z" fill="#CECBFF"/>
<path d="M-51.4745 686.07C-44.8876 679.483 -44.8876 668.804 -51.4744 662.217C-58.0613 655.63 -68.7408 655.63 -75.3276 662.217C-81.9145 668.804 -81.9145 679.483 -75.3276 686.07C-68.7408 692.657 -58.0613 692.657 -51.4745 686.07Z" fill="#CECBFF"/>
<path d="M-12.1772 725.367C-4.75556 717.946 -4.75556 705.913 -12.1772 698.491C-19.5988 691.07 -31.6316 691.07 -39.0532 698.491C-46.4748 705.913 -46.4748 717.946 -39.0532 725.367C-31.6316 732.789 -19.5988 732.789 -12.1772 725.367Z" fill="#CECBFF"/>
<path d="M25.6087 763.153C33.0303 755.732 33.0303 743.699 25.6087 736.277C18.1871 728.856 6.15425 728.856 -1.26736 736.277C-8.68897 743.699 -8.68897 755.732 -1.26736 763.153C6.15425 770.575 18.1871 770.575 25.6087 763.153Z" fill="#CECBFF"/>
<path d="M61.8831 799.428C68.47 792.841 68.47 782.161 61.8831 775.574C55.2962 768.988 44.6168 768.988 38.0299 775.574C31.443 782.161 31.443 792.841 38.0299 799.428C44.6168 806.014 55.2962 806.014 61.8831 799.428Z" fill="#CECBFF"/>
<path d="M98.1575 835.702C103.91 829.95 103.91 820.624 98.1575 814.872C92.4054 809.12 83.0794 809.12 77.3272 814.872C71.5751 820.624 71.5751 829.95 77.3272 835.702C83.0793 841.454 92.4054 841.454 98.1575 835.702Z" fill="#CECBFF"/>
<path d="M134.432 871.977C139.349 867.059 139.349 859.086 134.432 854.169C129.515 849.252 121.542 849.252 116.624 854.169C111.707 859.086 111.707 867.059 116.624 871.977C121.542 876.894 129.515 876.894 134.432 871.977Z" fill="#CECBFF"/>
<path d="M170.706 908.251C174.789 904.168 174.789 897.549 170.706 893.466C166.624 889.384 160.004 889.384 155.922 893.466C151.839 897.549 151.839 904.168 155.922 908.251C160.004 912.334 166.624 912.334 170.706 908.251Z" fill="#CECBFF"/>
<path d="M207.008 944.553C210.271 941.29 210.271 935.999 207.008 932.736C203.745 929.473 198.455 929.473 195.192 932.736C191.929 935.999 191.929 941.29 195.192 944.553C198.455 947.816 203.745 947.816 207.008 944.553Z" fill="#CECBFF"/>
<path d="M-209.158 452.815C-206.184 449.84 -206.184 445.017 -209.158 442.042C-212.133 439.068 -216.956 439.068 -219.931 442.042C-222.905 445.017 -222.905 449.84 -219.931 452.815C-216.956 455.789 -212.133 455.789 -209.158 452.815Z" fill="#CECBFF"/>
<path d="M-169.366 492.607C-165.284 488.524 -165.284 481.905 -169.366 477.822C-173.449 473.739 -180.068 473.739 -184.151 477.822C-188.234 481.905 -188.234 488.524 -184.151 492.607C-180.068 496.689 -173.449 496.689 -169.366 492.607Z" fill="#CECBFF"/>
<path d="M-129.547 532.426C-124.341 527.22 -124.341 518.78 -129.547 513.574C-134.753 508.369 -143.193 508.369 -148.399 513.574C-153.604 518.78 -153.604 527.22 -148.399 532.426C-143.193 537.632 -134.753 537.632 -129.547 532.426Z" fill="#CECBFF"/>
<path d="M-89.755 572.218C-83.4413 565.904 -83.4413 555.668 -89.755 549.354C-96.0686 543.04 -106.305 543.04 -112.619 549.354C-118.933 555.668 -118.933 565.904 -112.619 572.218C-106.305 578.532 -96.0686 578.532 -89.755 572.218Z" fill="#CECBFF"/>
<path d="M-49.963 612.01C-42.5414 604.588 -42.5414 592.555 -49.963 585.134C-57.3846 577.712 -69.4174 577.712 -76.8391 585.134C-84.2607 592.555 -84.2607 604.588 -76.8391 612.01C-69.4174 619.431 -57.3846 619.431 -49.963 612.01Z" fill="#CECBFF"/>
<path d="M-10.1711 651.802C-1.64154 643.272 -1.64156 629.443 -10.1711 620.914C-18.7006 612.384 -32.5298 612.384 -41.0593 620.914C-49.5889 629.443 -49.5888 643.272 -41.0593 651.802C-32.5298 660.331 -18.7006 660.331 -10.1711 651.802Z" fill="#CECBFF"/>
<path d="M29.6208 691.594C39.2583 681.956 39.2583 666.331 29.6208 656.693C19.9834 647.056 4.35795 647.056 -5.27953 656.693C-14.917 666.331 -14.917 681.956 -5.27953 691.594C4.35795 701.231 19.9834 701.231 29.6208 691.594Z" fill="#CECBFF"/>
<path d="M67.4067 729.38C77.0442 719.742 77.0442 704.117 67.4067 694.479C57.7692 684.842 42.1438 684.842 32.5063 694.479C22.8688 704.117 22.8688 719.742 32.5063 729.38C42.1438 739.017 57.7692 739.017 67.4067 729.38Z" fill="#CECBFF"/>
<path d="M103.186 765.159C111.716 756.63 111.716 742.801 103.186 734.271C94.6569 725.742 80.8278 725.742 72.2982 734.271C63.7687 742.801 63.7687 756.63 72.2982 765.159C80.8278 773.689 94.6569 773.689 103.186 765.159Z" fill="#CECBFF"/>
<path d="M138.966 800.939C146.388 793.517 146.388 781.485 138.966 774.063C131.545 766.641 119.512 766.641 112.09 774.063C104.669 781.485 104.669 793.517 112.09 800.939C119.512 808.361 131.545 808.361 138.966 800.939Z" fill="#CECBFF"/>
<path d="M174.746 836.719C181.06 830.405 181.06 820.169 174.746 813.855C168.432 807.541 158.196 807.541 151.882 813.855C145.568 820.169 145.568 830.405 151.882 836.719C158.196 843.033 168.432 843.033 174.746 836.719Z" fill="#CECBFF"/>
<path d="M210.526 872.499C215.731 867.293 215.732 858.853 210.526 853.647C205.32 848.441 196.88 848.441 191.674 853.647C186.468 858.853 186.468 867.293 191.674 872.499C196.88 877.704 205.32 877.704 210.526 872.499Z" fill="#CECBFF"/>
<path d="M246.278 908.251C250.361 904.168 250.361 897.549 246.278 893.466C242.195 889.384 235.576 889.384 231.493 893.466C227.411 897.549 227.411 904.168 231.493 908.251C235.576 912.334 242.195 912.334 246.278 908.251Z" fill="#CECBFF"/>
<path d="M282.058 944.031C285.033 941.056 285.033 936.233 282.058 933.258C279.083 930.284 274.26 930.284 271.285 933.258C268.311 936.233 268.311 941.056 271.285 944.031C274.26 947.005 279.083 947.005 282.058 944.031Z" fill="#CECBFF"/>
<path d="M-170.356 416.046C-166.819 412.509 -166.819 406.776 -170.356 403.24C-173.892 399.703 -179.625 399.703 -183.162 403.24C-186.698 406.776 -186.698 412.509 -183.162 416.046C-179.625 419.582 -173.892 419.582 -170.356 416.046Z" fill="#CECBFF"/>
<path d="M-130.069 456.332C-125.152 451.415 -125.152 443.442 -130.069 438.525C-134.986 433.607 -142.959 433.607 -147.876 438.525C-152.794 443.442 -152.794 451.415 -147.876 456.332C-142.959 461.25 -134.986 461.25 -130.069 456.332Z" fill="#CECBFF"/>
<path d="M-89.755 496.646C-83.4413 490.333 -83.4413 480.096 -89.755 473.782C-96.0686 467.469 -106.305 467.469 -112.619 473.782C-118.933 480.096 -118.933 490.333 -112.619 496.646C-106.305 502.96 -96.0686 502.96 -89.755 496.646Z" fill="#CECBFF"/>
<path d="M-49.4684 536.933C-41.7736 529.238 -41.7736 516.762 -49.4684 509.067C-57.1632 501.373 -69.6389 501.373 -77.3337 509.067C-85.0285 516.762 -85.0285 529.238 -77.3337 536.933C-69.6389 544.628 -57.1632 544.628 -49.4684 536.933Z" fill="#CECBFF"/>
<path d="M-9.18178 577.219C-0.105859 568.143 -0.105859 553.428 -9.18178 544.353C-18.2577 535.277 -32.9727 535.277 -42.0486 544.353C-51.1245 553.428 -51.1245 568.143 -42.0486 577.219C-32.9727 586.295 -18.2577 586.295 -9.18178 577.219Z" fill="#CECBFF"/>
<path d="M31.1323 617.533C41.6045 607.061 41.6045 590.082 31.1323 579.61C20.6601 569.138 3.68124 569.138 -6.79097 579.61C-17.2632 590.082 -17.2632 607.061 -6.79097 617.533C3.68124 628.006 20.6601 628.006 31.1323 617.533Z" fill="#CECBFF"/>
<path d="M71.4189 657.82C83.2722 645.967 83.2722 626.749 71.4189 614.895C59.5655 603.042 40.3475 603.042 28.4941 614.895C16.6408 626.749 16.6408 645.967 28.4941 657.82C40.3475 669.673 59.5655 669.673 71.4189 657.82Z" fill="#CECBFF"/>
<path d="M109.205 695.606C121.058 683.753 121.058 664.535 109.205 652.681C97.3514 640.828 78.1333 640.828 66.28 652.681C54.4267 664.535 54.4267 683.753 66.28 695.606C78.1333 707.459 97.3514 707.459 109.205 695.606Z" fill="#CECBFF"/>
<path d="M144.49 730.891C154.962 720.419 154.962 703.44 144.49 692.968C134.018 682.496 117.039 682.496 106.567 692.968C96.0944 703.44 96.0944 720.419 106.567 730.891C117.039 741.363 134.018 741.363 144.49 730.891Z" fill="#CECBFF"/>
<path d="M179.747 766.149C188.823 757.073 188.823 742.358 179.747 733.282C170.672 724.206 155.957 724.206 146.881 733.282C137.805 742.358 137.805 757.073 146.881 766.149C155.957 775.225 170.672 775.225 179.747 766.149Z" fill="#CECBFF"/>
<path d="M215.033 801.434C222.727 793.739 222.727 781.263 215.033 773.568C207.338 765.874 194.862 765.874 187.167 773.568C179.472 781.263 179.472 793.739 187.167 801.434C194.862 809.129 207.338 809.129 215.033 801.434Z" fill="#CECBFF"/>
<path d="M250.318 836.719C256.631 830.405 256.631 820.169 250.318 813.855C244.004 807.541 233.767 807.541 227.454 813.855C221.14 820.169 221.14 830.405 227.454 836.719C233.767 843.033 244.004 843.033 250.318 836.719Z" fill="#CECBFF"/>
<path d="M285.575 871.977C290.493 867.059 290.493 859.086 285.575 854.169C280.658 849.252 272.685 849.252 267.768 854.169C262.851 859.086 262.851 867.059 267.768 871.977C272.685 876.894 280.658 876.894 285.575 871.977Z" fill="#CECBFF"/>
<path d="M320.86 907.262C324.397 903.725 324.397 897.992 320.86 894.456C317.324 890.919 311.591 890.919 308.054 894.456C304.518 897.992 304.518 903.725 308.054 907.262C311.591 910.798 317.324 910.798 320.86 907.262Z" fill="#CECBFF"/>
<path d="M-172.362 338.468C-169.933 336.039 -169.933 332.102 -172.362 329.674C-174.79 327.246 -178.727 327.246 -181.155 329.674C-183.584 332.102 -183.584 336.039 -181.155 338.468C-178.727 340.896 -174.79 340.896 -172.362 338.468Z" fill="#CECBFF"/>
<path d="M-131.58 379.249C-127.498 375.166 -127.498 368.547 -131.58 364.464C-135.663 360.382 -142.282 360.382 -146.365 364.464C-150.448 368.547 -150.448 375.166 -146.365 379.249C-142.282 383.332 -135.663 383.332 -131.58 379.249Z" fill="#CECBFF"/>
<path d="M-90.7717 420.058C-85.0196 414.306 -85.0196 404.98 -90.7717 399.227C-96.5239 393.475 -105.85 393.475 -111.602 399.227C-117.354 404.98 -117.354 414.306 -111.602 420.058C-105.85 425.81 -96.5239 425.81 -90.7717 420.058Z" fill="#CECBFF"/>
<path d="M-49.963 460.866C-42.5414 453.445 -42.5414 441.412 -49.963 433.99C-57.3846 426.569 -69.4174 426.569 -76.8391 433.99C-84.2607 441.412 -84.2607 453.445 -76.8391 460.866C-69.4174 468.288 -57.3846 468.288 -49.963 460.866Z" fill="#CECBFF"/>
<path d="M-9.18178 501.648C-0.105859 492.572 -0.105859 477.857 -9.18178 468.781C-18.2577 459.705 -32.9727 459.705 -42.0486 468.781C-51.1245 477.857 -51.1245 492.572 -42.0486 501.648C-32.9727 510.724 -18.2577 510.724 -9.18178 501.648Z" fill="#CECBFF"/>
<path d="M31.6269 542.456C42.3723 531.711 42.3723 514.289 31.6269 503.544C20.8815 492.798 3.45977 492.798 -7.28563 503.544C-18.031 514.289 -18.031 531.711 -7.28563 542.456C3.45977 553.202 20.8815 553.202 31.6269 542.456Z" fill="#CECBFF"/>
<path d="M72.4356 583.265C84.8505 570.85 84.8505 550.722 72.4356 538.307C60.0207 525.892 39.8922 525.892 27.4773 538.307C15.0625 550.722 15.0625 570.85 27.4773 583.265C39.8922 595.68 60.0207 595.68 72.4356 583.265Z" fill="#CECBFF"/>
<path d="M113.244 624.074C127.329 609.989 127.329 587.154 113.244 573.07C99.16 558.985 76.3247 558.985 62.2404 573.07C48.156 587.154 48.156 609.989 62.2404 624.074C76.3247 638.158 99.16 638.158 113.244 624.074Z" fill="#CECBFF"/>
<path d="M151.03 661.86C165.115 647.775 165.115 624.94 151.03 610.856C136.946 596.771 114.111 596.771 100.026 610.856C85.9418 624.94 85.9418 647.775 100.026 661.86C114.111 675.944 136.946 675.944 151.03 661.86Z" fill="#CECBFF"/>
<path d="M185.793 696.623C198.208 684.208 198.208 664.079 185.793 651.664C173.378 639.249 153.25 639.249 140.835 651.664C128.42 664.079 128.42 684.208 140.835 696.623C153.25 709.038 173.378 709.038 185.793 696.623Z" fill="#CECBFF"/>
<path d="M220.556 731.386C231.302 720.64 231.302 703.219 220.556 692.473C209.811 681.728 192.389 681.728 181.644 692.473C170.898 703.219 170.898 720.64 181.644 731.386C192.389 742.131 209.811 742.131 220.556 731.386Z" fill="#CECBFF"/>
<path d="M255.319 766.149C264.395 757.073 264.395 742.358 255.319 733.282C246.243 724.206 231.528 724.206 222.452 733.282C213.376 742.358 213.376 757.073 222.452 766.149C231.528 775.225 246.243 775.225 255.319 766.149Z" fill="#CECBFF"/>
<path d="M290.11 800.939C297.531 793.517 297.531 781.485 290.11 774.063C282.688 766.641 270.655 766.641 263.234 774.063C255.812 781.485 255.812 793.517 263.234 800.939C270.655 808.361 282.688 808.361 290.11 800.939Z" fill="#CECBFF"/>
<path d="M324.873 835.702C330.625 829.95 330.625 820.624 324.873 814.872C319.121 809.12 309.794 809.12 304.042 814.872C298.29 820.624 298.29 829.95 304.042 835.702C309.794 841.454 319.12 841.454 324.873 835.702Z" fill="#CECBFF"/>
<path d="M359.636 870.465C363.718 866.382 363.718 859.763 359.636 855.68C355.553 851.598 348.934 851.598 344.851 855.68C340.768 859.763 340.768 866.382 344.851 870.465C348.934 874.548 355.553 874.548 359.636 870.465Z" fill="#CECBFF"/>
<path d="M394.426 905.256C396.854 902.827 396.854 898.89 394.426 896.462C391.998 894.033 388.061 894.033 385.632 896.462C383.204 898.89 383.204 902.827 385.632 905.256C388.061 907.684 391.998 907.684 394.426 905.256Z" fill="#CECBFF"/>
<path d="M-134.081 301.177C-131.38 298.475 -131.38 294.095 -134.081 291.393C-136.783 288.692 -141.163 288.692 -143.864 291.393C-146.566 294.095 -146.566 298.475 -143.864 301.177C-141.163 303.878 -136.783 303.878 -134.081 301.177Z" fill="#CECBFF"/>
<path d="M-92.7778 342.48C-88.1336 337.836 -88.1336 330.306 -92.7778 325.662C-97.422 321.018 -104.952 321.018 -109.596 325.662C-114.24 330.306 -114.24 337.836 -109.596 342.48C-104.952 347.124 -97.422 347.124 -92.7778 342.48Z" fill="#CECBFF"/>
<path d="M-51.4744 383.783C-44.8876 377.196 -44.8876 366.517 -51.4745 359.93C-58.0613 353.343 -68.7408 353.343 -75.3276 359.93C-81.9145 366.517 -81.9145 377.196 -75.3276 383.783C-68.7408 390.37 -58.0613 390.37 -51.4744 383.783Z" fill="#CECBFF"/>
<path d="M-10.1711 425.087C-1.64156 416.557 -1.64154 402.728 -10.1711 394.198C-18.7006 385.669 -32.5298 385.669 -41.0593 394.198C-49.5888 402.728 -49.5889 416.557 -41.0593 425.087C-32.5298 433.616 -18.7006 433.616 -10.1711 425.087Z" fill="#CECBFF"/>
<path d="M31.1323 466.39C41.6045 455.918 41.6045 438.939 31.1323 428.467C20.6601 417.995 3.68124 417.995 -6.79097 428.467C-17.2632 438.939 -17.2632 455.918 -6.79097 466.39C3.68124 476.862 20.6601 476.862 31.1323 466.39Z" fill="#CECBFF"/>
<path d="M72.4356 507.693C84.8505 495.279 84.8505 475.15 72.4356 462.735C60.0207 450.32 39.8922 450.32 27.4773 462.735C15.0625 475.15 15.0625 495.279 27.4773 507.693C39.8922 520.108 60.0207 520.108 72.4356 507.693Z" fill="#CECBFF"/>
<path d="M113.739 548.997C128.097 534.639 128.097 511.361 113.739 497.003C99.3814 482.646 76.1033 482.646 61.7457 497.003C47.3881 511.361 47.3881 534.639 61.7457 548.997C76.1033 563.354 99.3814 563.354 113.739 548.997Z" fill="#CECBFF"/>
<path d="M155.042 590.3C171.343 574 171.343 547.572 155.042 531.272C138.742 514.972 112.314 514.972 96.014 531.272C79.7138 547.572 79.7138 574 96.014 590.3C112.314 606.6 138.742 606.6 155.042 590.3Z" fill="#CECBFF"/>
<path d="M192.828 628.086C209.128 611.786 209.128 585.358 192.828 569.058C176.528 552.757 150.1 552.757 133.8 569.058C117.5 585.358 117.5 611.786 133.8 628.086C150.1 644.386 176.528 644.386 192.828 628.086Z" fill="#CECBFF"/>
<path d="M227.097 662.354C241.454 647.997 241.454 624.719 227.097 610.361C212.739 596.003 189.461 596.003 175.103 610.361C160.746 624.719 160.746 647.997 175.103 662.354C189.461 676.712 212.739 676.712 227.097 662.354Z" fill="#CECBFF"/>
<path d="M261.365 696.623C273.78 684.208 273.78 664.079 261.365 651.664C248.95 639.25 228.822 639.25 216.407 651.664C203.992 664.079 203.992 684.208 216.407 696.623C228.822 709.038 248.95 709.038 261.365 696.623Z" fill="#CECBFF"/>
<path d="M295.633 730.891C306.105 720.419 306.105 703.44 295.633 692.968C285.161 682.496 268.182 682.496 257.71 692.968C247.238 703.44 247.238 720.419 257.71 730.891C268.182 741.363 285.161 741.363 295.633 730.891Z" fill="#CECBFF"/>
<path d="M329.902 765.159C338.431 756.63 338.431 742.801 329.902 734.271C321.372 725.742 307.543 725.742 299.013 734.271C290.484 742.801 290.484 756.63 299.013 765.159C307.543 773.689 321.372 773.689 329.902 765.159Z" fill="#CECBFF"/>
<path d="M364.17 799.428C370.757 792.841 370.757 782.161 364.17 775.574C357.583 768.988 346.904 768.988 340.317 775.574C333.73 782.161 333.73 792.841 340.317 799.428C346.904 806.014 357.583 806.014 364.17 799.428Z" fill="#CECBFF"/>
<path d="M398.438 833.696C403.082 829.052 403.082 821.522 398.438 816.878C393.794 812.234 386.264 812.234 381.62 816.878C376.976 821.522 376.976 829.052 381.62 833.696C386.264 838.34 393.794 838.34 398.438 833.696Z" fill="#CECBFF"/>
<path d="M432.707 867.964C435.408 865.263 435.408 860.883 432.707 858.181C430.005 855.48 425.625 855.48 422.923 858.181C420.222 860.883 420.222 865.263 422.923 867.964C425.625 870.666 430.005 870.666 432.707 867.964Z" fill="#CECBFF"/>
<path d="M-95.8007 263.885C-92.826 260.911 -92.826 256.088 -95.8007 253.113C-98.7754 250.138 -103.598 250.138 -106.573 253.113C-109.548 256.088 -109.548 260.911 -106.573 263.885C-103.598 266.86 -98.7754 266.86 -95.8007 263.885Z" fill="#CECBFF"/>
<path d="M-53.9752 305.711C-48.7694 300.505 -48.7694 292.065 -53.9752 286.859C-59.1809 281.653 -67.6211 281.653 -72.8269 286.859C-78.0326 292.065 -78.0326 300.505 -72.8269 305.711C-67.6211 310.917 -59.1809 310.917 -53.9752 305.711Z" fill="#CECBFF"/>
<path d="M-12.1772 347.509C-4.75556 340.087 -4.75556 328.054 -12.1772 320.633C-19.5988 313.211 -31.6316 313.211 -39.0532 320.633C-46.4748 328.054 -46.4748 340.087 -39.0532 347.509C-31.6316 354.931 -19.5988 354.931 -12.1772 347.509Z" fill="#CECBFF"/>
<path d="M29.6208 389.307C39.2583 379.669 39.2583 364.044 29.6208 354.407C19.9834 344.769 4.35795 344.769 -5.27953 354.407C-14.917 364.044 -14.917 379.669 -5.27953 389.307C4.35795 398.944 19.9834 398.944 29.6208 389.307Z" fill="#CECBFF"/>
<path d="M71.4189 431.105C83.2722 419.252 83.2722 400.034 71.4189 388.18C59.5655 376.327 40.3475 376.327 28.4941 388.18C16.6408 400.034 16.6408 419.252 28.4941 431.105C40.3475 442.958 59.5655 442.958 71.4189 431.105Z" fill="#CECBFF"/>
<path d="M113.217 472.903C127.286 458.834 127.286 436.023 113.217 421.954C99.1477 407.885 76.337 407.885 62.2678 421.954C48.1986 436.023 48.1986 458.834 62.2678 472.903C76.337 486.972 99.1477 486.972 113.217 472.903Z" fill="#CECBFF"/>
<path d="M155.042 514.728C171.343 498.428 171.343 472 155.042 455.7C138.742 439.4 112.314 439.4 96.014 455.7C79.7138 472 79.7138 498.428 96.014 514.728C112.314 531.029 138.742 531.029 155.042 514.728Z" fill="#CECBFF"/>
<path d="M196.84 556.526C215.356 538.01 215.356 507.99 196.84 489.474C178.324 470.958 148.304 470.958 129.788 489.474C111.272 507.99 111.272 538.01 129.788 556.526C148.304 575.043 178.324 575.043 196.84 556.526Z" fill="#CECBFF"/>
<path d="M234.626 594.312C253.142 575.796 253.142 545.776 234.626 527.26C216.11 508.744 186.09 508.744 167.574 527.26C149.057 545.776 149.057 575.796 167.574 594.312C186.09 612.828 216.11 612.828 234.626 594.312Z" fill="#CECBFF"/>
<path d="M268.4 628.086C284.7 611.786 284.7 585.358 268.4 569.058C252.1 552.757 225.672 552.757 209.372 569.058C193.071 585.358 193.071 611.786 209.372 628.086C225.672 644.386 252.1 644.386 268.4 628.086Z" fill="#CECBFF"/>
<path d="M302.146 661.832C316.215 647.763 316.215 624.952 302.146 610.883C288.077 596.814 265.266 596.814 251.197 610.883C237.128 624.952 237.128 647.763 251.197 661.832C265.266 675.901 288.077 675.901 302.146 661.832Z" fill="#CECBFF"/>
<path d="M335.92 695.606C347.773 683.753 347.773 664.535 335.92 652.681C324.066 640.828 304.848 640.828 292.995 652.681C281.142 664.535 281.142 683.753 292.995 695.606C304.848 707.459 324.066 707.459 335.92 695.606Z" fill="#CECBFF"/>
<path d="M369.694 729.38C379.331 719.742 379.331 704.117 369.693 694.479C360.056 684.842 344.431 684.842 334.793 694.479C325.156 704.117 325.156 719.742 334.793 729.38C344.431 739.017 360.056 739.017 369.694 729.38Z" fill="#CECBFF"/>
<path d="M403.467 763.153C410.889 755.732 410.889 743.699 403.467 736.277C396.046 728.856 384.013 728.856 376.591 736.277C369.17 743.699 369.17 755.732 376.591 763.153C384.013 770.575 396.046 770.575 403.467 763.153Z" fill="#CECBFF"/>
<path d="M437.241 796.927C442.447 791.721 442.447 783.281 437.241 778.075C432.035 772.869 423.595 772.869 418.389 778.075C413.183 783.281 413.183 791.721 418.389 796.927C423.595 802.133 432.035 802.133 437.241 796.927Z" fill="#CECBFF"/>
<path d="M470.987 830.673C473.962 827.698 473.962 822.875 470.987 819.901C468.012 816.926 463.189 816.926 460.215 819.901C457.24 822.875 457.24 827.698 460.215 830.673C463.189 833.648 468.012 833.648 470.987 830.673Z" fill="#CECBFF"/>
<path d="M-58.0148 226.1C-55.0401 223.125 -55.0401 218.302 -58.0148 215.327C-60.9896 212.352 -65.8125 212.352 -68.7872 215.327C-71.762 218.302 -71.762 223.125 -68.7872 226.1C-65.8125 229.074 -60.9896 229.074 -58.0148 226.1Z" fill="#CECBFF"/>
<path d="M-16.1893 267.925C-10.9836 262.719 -10.9836 254.279 -16.1893 249.073C-21.3951 243.868 -29.8353 243.868 -35.041 249.073C-40.2468 254.279 -40.2468 262.719 -35.041 267.925C-29.8353 273.131 -21.3951 273.131 -16.1893 267.925Z" fill="#CECBFF"/>
<path d="M25.6087 309.723C33.0303 302.301 33.0303 290.269 25.6087 282.847C18.1871 275.425 6.15425 275.425 -1.26736 282.847C-8.68897 290.269 -8.68897 302.301 -1.26736 309.723C6.15425 317.145 18.1871 317.145 25.6087 309.723Z" fill="#CECBFF"/>
<path d="M67.4067 351.521C77.0442 341.884 77.0442 326.258 67.4067 316.621C57.7692 306.983 42.1438 306.983 32.5063 316.621C22.8688 326.258 22.8688 341.884 32.5063 351.521C42.1438 361.159 57.7692 361.159 67.4067 351.521Z" fill="#CECBFF"/>
<path d="M109.205 393.319C121.058 381.466 121.058 362.248 109.205 350.394C97.3514 338.541 78.1333 338.541 66.28 350.394C54.4267 362.248 54.4267 381.466 66.28 393.319C78.1333 405.172 97.3514 405.172 109.205 393.319Z" fill="#CECBFF"/>
<path d="M151.003 435.117C165.072 421.048 165.072 398.237 151.003 384.168C136.934 370.099 114.123 370.099 100.054 384.168C85.9845 398.237 85.9845 421.048 100.054 435.117C114.123 449.186 136.934 449.186 151.003 435.117Z" fill="#CECBFF"/>
<path d="M192.828 476.943C209.128 460.642 209.128 434.214 192.828 417.914C176.528 401.614 150.1 401.614 133.8 417.914C117.5 434.214 117.5 460.642 133.8 476.943C150.1 493.243 176.528 493.243 192.828 476.943Z" fill="#CECBFF"/>
<path d="M234.626 518.741C253.142 500.225 253.142 470.204 234.626 451.688C216.11 433.172 186.09 433.172 167.574 451.688C149.057 470.204 149.057 500.225 167.574 518.741C186.09 537.257 216.11 537.257 234.626 518.741Z" fill="#CECBFF"/>
<path d="M272.412 556.526C290.928 538.01 290.928 507.99 272.412 489.474C253.896 470.958 223.876 470.958 205.359 489.474C186.843 507.99 186.843 538.01 205.359 556.526C223.876 575.043 253.896 575.043 272.412 556.526Z" fill="#CECBFF"/>
<path d="M306.186 590.3C322.486 574 322.486 547.572 306.186 531.272C289.886 514.972 263.458 514.972 247.157 531.272C230.857 547.572 230.857 574 247.157 590.3C263.458 606.6 289.886 606.6 306.186 590.3Z" fill="#CECBFF"/>
<path d="M339.932 624.046C354.001 609.977 354.001 587.167 339.932 573.097C325.863 559.028 303.052 559.028 288.983 573.097C274.914 587.166 274.914 609.977 288.983 624.046C303.052 638.116 325.863 638.116 339.932 624.046Z" fill="#CECBFF"/>
<path d="M373.706 657.82C385.559 645.967 385.559 626.749 373.706 614.895C361.852 603.042 342.634 603.042 330.781 614.895C318.928 626.749 318.928 645.967 330.781 657.82C342.634 669.673 361.852 669.673 373.706 657.82Z" fill="#CECBFF"/>
<path d="M407.479 691.594C417.117 681.956 417.117 666.331 407.479 656.693C397.842 647.056 382.216 647.056 372.579 656.693C362.941 666.331 362.942 681.956 372.579 691.594C382.216 701.231 397.842 701.231 407.479 691.594Z" fill="#CECBFF"/>
<path d="M441.253 725.367C448.675 717.946 448.675 705.913 441.253 698.491C433.831 691.07 421.799 691.07 414.377 698.491C406.955 705.913 406.955 717.946 414.377 725.367C421.799 732.789 433.831 732.789 441.253 725.367Z" fill="#CECBFF"/>
<path d="M475.027 759.141C480.232 753.935 480.232 745.495 475.027 740.289C469.821 735.084 461.381 735.084 456.175 740.289C450.969 745.495 450.969 753.935 456.175 759.141C461.381 764.347 469.821 764.347 475.027 759.141Z" fill="#CECBFF"/>
<path d="M508.773 792.887C511.748 789.913 511.748 785.09 508.773 782.115C505.798 779.14 500.975 779.14 498 782.115C495.026 785.09 495.026 789.913 498.001 792.887C500.975 795.862 505.798 795.862 508.773 792.887Z" fill="#CECBFF"/>
<path d="M-20.7236 187.819C-18.0221 185.117 -18.0221 180.737 -20.7236 178.036C-23.4252 175.334 -27.8052 175.334 -30.5067 178.036C-33.2083 180.737 -33.2083 185.117 -30.5067 187.819C-27.8052 190.521 -23.4252 190.521 -20.7236 187.819Z" fill="#CECBFF"/>
<path d="M20.5797 229.122C25.2239 224.478 25.2239 216.948 20.5797 212.304C15.9355 207.66 8.40578 207.66 3.76158 212.304C-0.882619 216.948 -0.882604 224.478 3.7616 229.122C8.4058 233.767 15.9355 233.767 20.5797 229.122Z" fill="#CECBFF"/>
<path d="M61.8831 270.426C68.47 263.839 68.47 253.159 61.8831 246.573C55.2962 239.986 44.6168 239.986 38.0299 246.573C31.443 253.159 31.443 263.839 38.0299 270.426C44.6168 277.013 55.2962 277.013 61.8831 270.426Z" fill="#CECBFF"/>
<path d="M103.186 311.729C111.716 303.2 111.716 289.37 103.186 280.841C94.6569 272.311 80.8278 272.311 72.2982 280.841C63.7687 289.37 63.7687 303.2 72.2982 311.729C80.8278 320.259 94.6569 320.259 103.186 311.729Z" fill="#CECBFF"/>
<path d="M144.49 353.033C154.962 342.56 154.962 325.581 144.49 315.109C134.018 304.637 117.039 304.637 106.567 315.109C96.0944 325.581 96.0944 342.56 106.567 353.033C117.039 363.505 134.018 363.505 144.49 353.033Z" fill="#CECBFF"/>
<path d="M185.793 394.336C198.208 381.921 198.208 361.792 185.793 349.378C173.378 336.963 153.25 336.963 140.835 349.378C128.42 361.792 128.42 381.921 140.835 394.336C153.25 406.751 173.378 406.751 185.793 394.336Z" fill="#CECBFF"/>
<path d="M227.097 435.639C241.454 421.282 241.454 398.003 227.097 383.646C212.739 369.288 189.461 369.288 175.103 383.646C160.746 398.003 160.746 421.282 175.103 435.639C189.461 449.997 212.739 449.997 227.097 435.639Z" fill="#CECBFF"/>
<path d="M268.4 476.943C284.7 460.642 284.7 434.214 268.4 417.914C252.1 401.614 225.672 401.614 209.372 417.914C193.071 434.214 193.071 460.642 209.372 476.943C225.672 493.243 252.1 493.243 268.4 476.943Z" fill="#CECBFF"/>
<path d="M306.186 514.728C322.486 498.428 322.486 472 306.186 455.7C289.886 439.4 263.458 439.4 247.157 455.7C230.857 472 230.857 498.428 247.157 514.728C263.458 531.029 289.886 531.029 306.186 514.728Z" fill="#CECBFF"/>
<path d="M340.454 548.997C354.812 534.639 354.812 511.361 340.454 497.003C326.097 482.646 302.818 482.646 288.461 497.003C274.103 511.361 274.103 534.639 288.461 548.997C302.818 563.354 326.097 563.354 340.454 548.997Z" fill="#CECBFF"/>
<path d="M374.722 583.265C387.137 570.85 387.137 550.722 374.722 538.307C362.308 525.892 342.179 525.892 329.764 538.307C317.349 550.722 317.349 570.85 329.764 583.265C342.179 595.68 362.308 595.68 374.722 583.265Z" fill="#CECBFF"/>
<path d="M408.991 617.533C419.463 607.061 419.463 590.082 408.991 579.61C398.519 569.138 381.54 569.138 371.068 579.61C360.595 590.082 360.595 607.061 371.068 617.533C381.54 628.006 398.519 628.006 408.991 617.533Z" fill="#CECBFF"/>
<path d="M443.259 651.802C451.789 643.272 451.789 629.443 443.259 620.914C434.73 612.384 420.9 612.384 412.371 620.914C403.841 629.443 403.841 643.272 412.371 651.802C420.9 660.331 434.73 660.331 443.259 651.802Z" fill="#CECBFF"/>
<path d="M477.527 686.07C484.114 679.483 484.114 668.804 477.527 662.217C470.941 655.63 460.261 655.63 453.674 662.217C447.087 668.804 447.087 679.483 453.674 686.07C460.261 692.657 470.941 692.657 477.527 686.07Z" fill="#CECBFF"/>
<path d="M511.796 720.338C516.44 715.694 516.44 708.164 511.796 703.52C507.152 698.876 499.622 698.876 494.978 703.52C490.333 708.164 490.333 715.694 494.978 720.338C499.622 724.983 507.152 724.983 511.796 720.338Z" fill="#CECBFF"/>
<path d="M546.064 754.607C548.766 751.905 548.766 747.525 546.064 744.824C543.363 742.122 538.983 742.122 536.281 744.824C533.579 747.525 533.579 751.905 536.281 754.607C538.983 757.308 543.363 757.308 546.064 754.607Z" fill="#CECBFF"/>
<path d="M16.5676 149.539C18.9959 147.11 18.9959 143.173 16.5676 140.745C14.1392 138.316 10.2021 138.316 7.77378 140.745C5.34544 143.173 5.34542 147.11 7.77376 149.539C10.2021 151.967 14.1392 151.967 16.5676 149.539Z" fill="#CECBFF"/>
<path d="M57.3488 190.32C61.4315 186.237 61.4315 179.618 57.3488 175.535C53.2662 171.453 46.6469 171.453 42.5642 175.535C38.4816 179.618 38.4816 186.237 42.5642 190.32C46.6469 194.402 53.2662 194.402 57.3488 190.32Z" fill="#CECBFF"/>
<path d="M98.1575 231.128C103.91 225.376 103.91 216.05 98.1575 210.298C92.4054 204.546 83.0793 204.546 77.3272 210.298C71.5751 216.05 71.5751 225.376 77.3272 231.128C83.0794 236.881 92.4054 236.881 98.1575 231.128Z" fill="#CECBFF"/>
<path d="M138.966 271.937C146.388 264.516 146.388 252.483 138.966 245.061C131.545 237.64 119.512 237.64 112.09 245.061C104.669 252.483 104.669 264.516 112.09 271.937C119.512 279.359 131.545 279.359 138.966 271.937Z" fill="#CECBFF"/>
<path d="M179.747 312.718C188.823 303.643 188.823 288.928 179.747 279.852C170.672 270.776 155.957 270.776 146.881 279.852C137.805 288.928 137.805 303.642 146.881 312.718C155.957 321.794 170.672 321.794 179.747 312.718Z" fill="#CECBFF"/>
<path d="M220.556 353.527C231.302 342.782 231.302 325.36 220.556 314.615C209.811 303.869 192.389 303.869 181.644 314.615C170.898 325.36 170.898 342.782 181.644 353.527C192.389 364.273 209.811 364.273 220.556 353.527Z" fill="#CECBFF"/>
<path d="M261.365 394.336C273.78 381.921 273.78 361.792 261.365 349.378C248.95 336.963 228.822 336.963 216.407 349.378C203.992 361.792 203.992 381.921 216.407 394.336C228.822 406.751 248.95 406.751 261.365 394.336Z" fill="#CECBFF"/>
<path d="M302.174 435.145C316.258 421.06 316.258 398.225 302.174 384.141C288.089 370.056 265.254 370.056 251.17 384.141C237.085 398.225 237.085 421.06 251.17 435.145C265.254 449.229 288.089 449.229 302.174 435.145Z" fill="#CECBFF"/>
<path d="M339.959 472.93C354.044 458.846 354.044 436.011 339.959 421.926C325.875 407.842 303.04 407.842 288.955 421.926C274.871 436.011 274.871 458.846 288.955 472.93C303.04 487.015 325.875 487.015 339.959 472.93Z" fill="#CECBFF"/>
<path d="M374.722 507.693C387.137 495.278 387.137 475.15 374.722 462.735C362.308 450.32 342.179 450.32 329.764 462.735C317.349 475.15 317.349 495.278 329.764 507.693C342.179 520.108 362.308 520.108 374.722 507.693Z" fill="#CECBFF"/>
<path d="M409.485 542.456C420.231 531.711 420.231 514.289 409.485 503.544C398.74 492.798 381.318 492.798 370.573 503.544C359.828 514.289 359.828 531.711 370.573 542.456C381.318 553.202 398.74 553.202 409.485 542.456Z" fill="#CECBFF"/>
<path d="M444.248 577.219C453.324 568.143 453.324 553.428 444.248 544.353C435.173 535.277 420.458 535.277 411.382 544.353C402.306 553.428 402.306 568.143 411.382 577.219C420.458 586.295 435.173 586.295 444.248 577.219Z" fill="#CECBFF"/>
<path d="M479.039 612.01C486.46 604.588 486.46 592.555 479.039 585.134C471.617 577.712 459.584 577.712 452.163 585.134C444.741 592.555 444.741 604.588 452.163 612.01C459.584 619.431 471.617 619.431 479.039 612.01Z" fill="#CECBFF"/>
<path d="M513.802 646.773C519.554 641.021 519.554 631.695 513.802 625.943C508.05 620.19 498.724 620.19 492.972 625.943C487.219 631.695 487.219 641.021 492.972 646.773C498.724 652.525 508.05 652.525 513.802 646.773Z" fill="#CECBFF"/>
<path d="M548.565 681.536C552.648 677.453 552.648 670.834 548.565 666.751C544.482 662.669 537.863 662.669 533.78 666.751C529.698 670.834 529.698 677.453 533.78 681.536C537.863 685.618 544.482 685.618 548.565 681.536Z" fill="#CECBFF"/>
<path d="M583.355 716.326C585.784 713.898 585.784 709.961 583.355 707.532C580.927 705.104 576.99 705.104 574.562 707.532C572.133 709.961 572.133 713.898 574.562 716.326C576.99 718.755 580.927 718.755 583.355 716.326Z" fill="#CECBFF"/>
<path d="M94.1453 151.545C97.6816 148.008 97.6816 142.275 94.1453 138.739C90.6091 135.202 84.8757 135.202 81.3394 138.739C77.8031 142.275 77.8031 148.008 81.3394 151.545C84.8756 155.081 90.6091 155.081 94.1453 151.545Z" fill="#CECBFF"/>
<path d="M134.432 191.831C139.349 186.914 139.349 178.941 134.432 174.024C129.515 169.106 121.542 169.106 116.624 174.024C111.707 178.941 111.707 186.914 116.624 191.831C121.542 196.749 129.515 196.749 134.432 191.831Z" fill="#CECBFF"/>
<path d="M174.746 232.145C181.06 225.832 181.06 215.595 174.746 209.281C168.432 202.968 158.196 202.968 151.882 209.281C145.568 215.595 145.568 225.832 151.882 232.145C158.196 238.459 168.432 238.459 174.746 232.145Z" fill="#CECBFF"/>
<path d="M215.033 272.432C222.727 264.737 222.727 252.261 215.033 244.566C207.338 236.872 194.862 236.872 187.167 244.566C179.472 252.261 179.472 264.737 187.167 272.432C194.862 280.127 207.338 280.127 215.033 272.432Z" fill="#CECBFF"/>
<path d="M255.319 312.718C264.395 303.643 264.395 288.928 255.319 279.852C246.243 270.776 231.528 270.776 222.452 279.852C213.376 288.928 213.376 303.642 222.452 312.718C231.528 321.794 246.243 321.794 255.319 312.718Z" fill="#CECBFF"/>
<path d="M295.633 353.032C306.105 342.56 306.105 325.581 295.633 315.109C285.161 304.637 268.182 304.637 257.71 315.109C247.238 325.581 247.238 342.56 257.71 353.032C268.182 363.505 285.161 363.505 295.633 353.032Z" fill="#CECBFF"/>
<path d="M335.92 393.319C347.773 381.466 347.773 362.248 335.92 350.394C324.066 338.541 304.848 338.541 292.995 350.394C281.142 362.248 281.142 381.466 292.995 393.319C304.848 405.172 324.066 405.172 335.92 393.319Z" fill="#CECBFF"/>
<path d="M373.706 431.105C385.559 419.252 385.559 400.034 373.706 388.18C361.852 376.327 342.634 376.327 330.781 388.18C318.928 400.034 318.928 419.252 330.781 431.105C342.634 442.958 361.852 442.958 373.706 431.105Z" fill="#CECBFF"/>
<path d="M408.991 466.39C419.463 455.918 419.463 438.939 408.991 428.467C398.519 417.995 381.54 417.995 371.068 428.467C360.595 438.939 360.595 455.918 371.068 466.39C381.54 476.862 398.519 476.862 408.991 466.39Z" fill="#CECBFF"/>
<path d="M444.248 501.648C453.324 492.572 453.324 477.857 444.248 468.781C435.173 459.705 420.458 459.705 411.382 468.781C402.306 477.857 402.306 492.572 411.382 501.648C420.458 510.724 435.173 510.724 444.248 501.648Z" fill="#CECBFF"/>
<path d="M479.534 536.933C487.228 529.238 487.228 516.762 479.534 509.067C471.839 501.373 459.363 501.373 451.668 509.067C443.973 516.762 443.973 529.238 451.668 536.933C459.363 544.628 471.839 544.628 479.534 536.933Z" fill="#CECBFF"/>
<path d="M514.819 572.218C521.132 565.904 521.132 555.668 514.819 549.354C508.505 543.04 498.268 543.04 491.955 549.354C485.641 555.668 485.641 565.904 491.955 572.218C498.268 578.532 508.505 578.532 514.819 572.218Z" fill="#CECBFF"/>
<path d="M550.076 607.476C554.994 602.558 554.994 594.585 550.076 589.668C545.159 584.751 537.186 584.751 532.269 589.668C527.351 594.585 527.351 602.558 532.269 607.476C537.186 612.393 545.159 612.393 550.076 607.476Z" fill="#CECBFF"/>
<path d="M585.361 642.761C588.898 639.224 588.898 633.491 585.361 629.955C581.825 626.418 576.092 626.418 572.555 629.955C569.019 633.491 569.019 639.224 572.555 642.761C576.092 646.297 581.825 646.297 585.361 642.761Z" fill="#CECBFF"/>
<path d="M130.914 112.742C133.889 109.767 133.889 104.944 130.914 101.97C127.94 98.9948 123.117 98.9948 120.142 101.97C117.167 104.944 117.167 109.767 120.142 112.742C123.117 115.717 127.94 115.717 130.914 112.742Z" fill="#CECBFF"/>
<path d="M170.706 152.534C174.789 148.451 174.789 141.832 170.706 137.749C166.624 133.667 160.004 133.667 155.922 137.749C151.839 141.832 151.839 148.451 155.922 152.534C160.004 156.617 166.624 156.617 170.706 152.534Z" fill="#CECBFF"/>
<path d="M210.526 192.353C215.732 187.148 215.731 178.707 210.526 173.502C205.32 168.296 196.88 168.296 191.674 173.502C186.468 178.707 186.468 187.148 191.674 192.353C196.88 197.559 205.32 197.559 210.526 192.353Z" fill="#CECBFF"/>
<path d="M250.318 232.145C256.631 225.832 256.631 215.595 250.318 209.281C244.004 202.968 233.767 202.968 227.454 209.281C221.14 215.595 221.14 225.832 227.454 232.145C233.767 238.459 244.004 238.459 250.318 232.145Z" fill="#CECBFF"/>
<path d="M290.11 271.937C297.531 264.516 297.531 252.483 290.11 245.061C282.688 237.64 270.655 237.64 263.234 245.061C255.812 252.483 255.812 264.516 263.234 271.937C270.655 279.359 282.688 279.359 290.11 271.937Z" fill="#CECBFF"/>
<path d="M329.902 311.729C338.431 303.2 338.431 289.37 329.902 280.841C321.372 272.311 307.543 272.311 299.013 280.841C290.484 289.37 290.484 303.2 299.013 311.729C307.543 320.259 321.372 320.259 329.902 311.729Z" fill="#CECBFF"/>
<path d="M369.693 351.521C379.331 341.884 379.331 326.258 369.694 316.621C360.056 306.983 344.431 306.983 334.793 316.621C325.156 326.258 325.156 341.884 334.793 351.521C344.431 361.159 360.056 361.159 369.693 351.521Z" fill="#CECBFF"/>
<path d="M407.479 389.307C417.117 379.669 417.117 364.044 407.479 354.406C397.842 344.769 382.216 344.769 372.579 354.407C362.942 364.044 362.941 379.669 372.579 389.307C382.216 398.944 397.842 398.944 407.479 389.307Z" fill="#CECBFF"/>
<path d="M443.259 425.087C451.789 416.557 451.789 402.728 443.259 394.198C434.73 385.669 420.9 385.669 412.371 394.198C403.841 402.728 403.841 416.557 412.371 425.087C420.9 433.616 434.73 433.616 443.259 425.087Z" fill="#CECBFF"/>
<path d="M479.039 460.866C486.46 453.445 486.46 441.412 479.039 433.99C471.617 426.569 459.584 426.569 452.163 433.99C444.741 441.412 444.741 453.445 452.163 460.866C459.584 468.288 471.617 468.288 479.039 460.866Z" fill="#CECBFF"/>
<path d="M514.819 496.646C521.132 490.333 521.132 480.096 514.819 473.782C508.505 467.469 498.268 467.469 491.955 473.782C485.641 480.096 485.641 490.333 491.955 496.646C498.268 502.96 508.505 502.96 514.819 496.646Z" fill="#CECBFF"/>
<path d="M550.598 532.426C555.804 527.22 555.804 518.78 550.598 513.574C545.393 508.369 536.952 508.369 531.747 513.574C526.541 518.78 526.541 527.22 531.747 532.426C536.952 537.632 545.393 537.632 550.598 532.426Z" fill="#CECBFF"/>
<path d="M586.351 568.178C590.433 564.096 590.433 557.476 586.351 553.394C582.268 549.311 575.649 549.311 571.566 553.394C567.483 557.476 567.483 564.096 571.566 568.178C575.649 572.261 582.268 572.261 586.351 568.178Z" fill="#CECBFF"/>
<path d="M622.13 603.958C625.105 600.983 625.105 596.16 622.13 593.186C619.156 590.211 614.333 590.211 611.358 593.186C608.383 596.16 608.383 600.983 611.358 603.958C614.333 606.933 619.156 606.933 622.13 603.958Z" fill="#CECBFF"/>
<path d="M207.008 113.264C210.271 110.001 210.271 104.711 207.008 101.447C203.745 98.1844 198.455 98.1843 195.192 101.447C191.929 104.711 191.929 110.001 195.192 113.264C198.455 116.527 203.745 116.527 207.008 113.264Z" fill="#CECBFF"/>
<path d="M246.278 152.534C250.361 148.451 250.361 141.832 246.278 137.749C242.195 133.667 235.576 133.667 231.493 137.749C227.411 141.832 227.411 148.451 231.493 152.534C235.576 156.617 242.195 156.617 246.278 152.534Z" fill="#CECBFF"/>
<path d="M285.575 191.831C290.493 186.914 290.493 178.941 285.575 174.024C280.658 169.106 272.685 169.106 267.768 174.024C262.851 178.941 262.851 186.914 267.768 191.831C272.685 196.749 280.658 196.749 285.575 191.831Z" fill="#CECBFF"/>
<path d="M324.873 231.128C330.625 225.376 330.625 216.05 324.873 210.298C319.12 204.546 309.794 204.546 304.042 210.298C298.29 216.05 298.29 225.376 304.042 231.128C309.794 236.881 319.121 236.881 324.873 231.128Z" fill="#CECBFF"/>
<path d="M364.17 270.426C370.757 263.839 370.757 253.159 364.17 246.573C357.583 239.986 346.904 239.986 340.317 246.573C333.73 253.159 333.73 263.839 340.317 270.426C346.904 277.013 357.583 277.013 364.17 270.426Z" fill="#CECBFF"/>
<path d="M403.467 309.723C410.889 302.301 410.889 290.269 403.467 282.847C396.046 275.425 384.013 275.425 376.591 282.847C369.17 290.269 369.17 302.301 376.591 309.723C384.013 317.145 396.046 317.145 403.467 309.723Z" fill="#CECBFF"/>
<path d="M441.253 347.509C448.675 340.087 448.675 328.054 441.253 320.633C433.831 313.211 421.799 313.211 414.377 320.633C406.955 328.054 406.955 340.087 414.377 347.509C421.799 354.93 433.831 354.93 441.253 347.509Z" fill="#CECBFF"/>
<path d="M477.527 383.783C484.114 377.196 484.114 366.517 477.527 359.93C470.941 353.343 460.261 353.343 453.674 359.93C447.087 366.517 447.087 377.196 453.674 383.783C460.261 390.37 470.941 390.37 477.527 383.783Z" fill="#CECBFF"/>
<path d="M513.802 420.058C519.554 414.306 519.554 404.98 513.802 399.227C508.05 393.475 498.724 393.475 492.972 399.227C487.219 404.98 487.219 414.306 492.972 420.058C498.724 425.81 508.05 425.81 513.802 420.058Z" fill="#CECBFF"/>
<path d="M550.076 456.332C554.994 451.415 554.994 443.442 550.076 438.525C545.159 433.607 537.186 433.607 532.269 438.525C527.351 443.442 527.351 451.415 532.269 456.332C537.186 461.25 545.159 461.25 550.076 456.332Z" fill="#CECBFF"/>
<path d="M586.351 492.607C590.433 488.524 590.433 481.905 586.351 477.822C582.268 473.739 575.649 473.739 571.566 477.822C567.483 481.905 567.483 488.524 571.566 492.607C575.649 496.689 582.268 496.689 586.351 492.607Z" fill="#CECBFF"/>
<path d="M622.653 528.908C625.916 525.645 625.916 520.355 622.653 517.092C619.389 513.829 614.099 513.829 610.836 517.092C607.573 520.355 607.573 525.645 610.836 528.908C614.099 532.172 619.389 532.172 622.653 528.908Z" fill="#CECBFF"/>
<path d="M282.058 112.742C285.033 109.767 285.033 104.944 282.058 101.97C279.083 98.9948 274.26 98.9948 271.285 101.97C268.311 104.944 268.311 109.767 271.285 112.742C274.26 115.717 279.083 115.717 282.058 112.742Z" fill="#CECBFF"/>
<path d="M320.86 151.545C324.397 148.008 324.397 142.275 320.86 138.739C317.324 135.202 311.591 135.202 308.054 138.739C304.518 142.275 304.518 148.008 308.054 151.545C311.591 155.081 317.324 155.081 320.86 151.545Z" fill="#CECBFF"/>
<path d="M359.636 190.32C363.718 186.237 363.718 179.618 359.636 175.535C355.553 171.453 348.934 171.453 344.851 175.535C340.768 179.618 340.768 186.237 344.851 190.32C348.934 194.402 355.553 194.402 359.636 190.32Z" fill="#CECBFF"/>
<path d="M398.438 229.122C403.082 224.478 403.082 216.948 398.438 212.304C393.794 207.66 386.264 207.66 381.62 212.304C376.976 216.948 376.976 224.478 381.62 229.122C386.264 233.767 393.794 233.767 398.438 229.122Z" fill="#CECBFF"/>
<path d="M437.241 267.925C442.447 262.719 442.447 254.279 437.241 249.073C432.035 243.868 423.595 243.868 418.389 249.073C413.183 254.279 413.183 262.719 418.389 267.925C423.595 273.131 432.035 273.131 437.241 267.925Z" fill="#CECBFF"/>
<path d="M475.027 305.711C480.232 300.505 480.232 292.065 475.027 286.859C469.821 281.653 461.381 281.653 456.175 286.859C450.969 292.065 450.969 300.505 456.175 305.711C461.381 310.917 469.821 310.917 475.027 305.711Z" fill="#CECBFF"/>
<path d="M511.796 342.48C516.44 337.836 516.44 330.306 511.796 325.662C507.152 321.018 499.622 321.018 494.978 325.662C490.333 330.306 490.333 337.836 494.978 342.48C499.622 347.124 507.152 347.124 511.796 342.48Z" fill="#CECBFF"/>
<path d="M548.565 379.249C552.648 375.166 552.648 368.547 548.565 364.464C544.482 360.382 537.863 360.382 533.78 364.464C529.698 368.547 529.698 375.166 533.78 379.249C537.863 383.332 544.482 383.332 548.565 379.249Z" fill="#CECBFF"/>
<path d="M585.361 416.046C588.898 412.509 588.898 406.776 585.361 403.24C581.825 399.703 576.092 399.703 572.555 403.24C569.019 406.776 569.019 412.509 572.555 416.046C576.092 419.582 581.825 419.582 585.361 416.046Z" fill="#CECBFF"/>
<path d="M622.13 452.815C625.105 449.84 625.105 445.017 622.13 442.042C619.156 439.067 614.333 439.067 611.358 442.042C608.383 445.017 608.383 449.84 611.358 452.815C614.333 455.789 619.156 455.789 622.13 452.815Z" fill="#CECBFF"/>
<path d="M394.426 149.539C396.854 147.11 396.854 143.173 394.426 140.745C391.998 138.316 388.061 138.316 385.632 140.745C383.204 143.173 383.204 147.11 385.632 149.539C388.061 151.967 391.998 151.967 394.426 149.539Z" fill="#CECBFF"/>
<path d="M432.707 187.819C435.408 185.117 435.408 180.737 432.707 178.036C430.005 175.334 425.625 175.334 422.923 178.036C420.222 180.737 420.222 185.117 422.923 187.819C425.625 190.521 430.005 190.521 432.707 187.819Z" fill="#CECBFF"/>
<path d="M470.987 226.099C473.962 223.125 473.962 218.302 470.987 215.327C468.012 212.352 463.189 212.352 460.215 215.327C457.24 218.302 457.24 223.125 460.215 226.1C463.189 229.074 468.012 229.074 470.987 226.099Z" fill="#CECBFF"/>
<path d="M508.773 263.885C511.748 260.911 511.748 256.088 508.773 253.113C505.798 250.138 500.975 250.138 498.001 253.113C495.026 256.088 495.026 260.911 498 263.885C500.975 266.86 505.798 266.86 508.773 263.885Z" fill="#CECBFF"/>
<path d="M546.064 301.177C548.766 298.475 548.766 294.095 546.064 291.393C543.363 288.692 538.983 288.692 536.281 291.393C533.579 294.095 533.579 298.475 536.281 301.177C538.983 303.878 543.363 303.878 546.064 301.177Z" fill="#CECBFF"/>
<path d="M583.355 338.468C585.784 336.039 585.784 332.102 583.355 329.674C580.927 327.246 576.99 327.246 574.562 329.674C572.133 332.102 572.133 336.039 574.562 338.468C576.99 340.896 580.927 340.896 583.355 338.468Z" fill="#CECBFF"/>
<ellipse cx="201" cy="607.5" rx="139" ry="35.5" fill="#AA96DA"/>
</g>
<defs>
<radialGradient id="paint0_radial_4_3106" cx="0" cy="0" r="1" gradientUnits="userSpaceOnUse" gradientTransform="translate(201 437) rotate(90.7712) scale(631.557 411.07)">
<stop stop-color="white"/>
<stop offset="1" stop-color="#CECBFF"/>
</radialGradient>
<clipPath id="clip0_4_3106">
<rect width="402" height="874" fill="white"/>
</clipPath>
</defs>
</svg>
