<svg width="402" height="874" viewBox="0 0 402 874" fill="none" xmlns="http://www.w3.org/2000/svg">
<g clip-path="url(#clip0_4_3103)">
<rect width="402" height="874" fill="url(#paint0_radial_4_3103)"/>
<path d="M-125.239 917.944C-123.249 915.959 -123.249 912.742 -125.239 910.757C-127.229 908.773 -130.456 908.773 -132.446 910.757C-134.436 912.742 -134.436 915.959 -132.446 917.944C-130.456 919.928 -127.229 919.928 -125.239 917.944Z" fill="#FFF5CB"/>
<path d="M-99.591 943.522C-97.4274 941.364 -97.4273 937.866 -99.591 935.708C-101.755 933.55 -105.262 933.55 -107.426 935.708C-109.59 937.866 -109.59 941.364 -107.426 943.522C-105.262 945.679 -101.755 945.679 -99.591 943.522Z" fill="#FFF5CB"/>
<path d="M-73.9184 969.124C-71.5678 966.779 -71.5678 962.979 -73.9184 960.635C-76.269 958.291 -80.08 958.291 -82.4306 960.635C-84.7812 962.979 -84.7812 966.779 -82.4306 969.124C-80.08 971.468 -76.269 971.468 -73.9184 969.124Z" fill="#FFF5CB"/>
<path d="M-48.2458 994.725C-45.7082 992.195 -45.7082 988.092 -48.2458 985.561C-50.7833 983.031 -54.8976 983.031 -57.4351 985.561C-59.9727 988.092 -59.9727 992.195 -57.4351 994.725C-54.8976 997.256 -50.7833 997.256 -48.2458 994.725Z" fill="#FFF5CB"/>
<path d="M-23.2503 1019.65C-20.8997 1017.31 -20.8997 1013.51 -23.2503 1011.16C-25.6009 1008.82 -29.4119 1008.82 -31.7625 1011.16C-34.1131 1013.51 -34.1131 1017.31 -31.7625 1019.65C-29.4119 1022 -25.6009 1022 -23.2503 1019.65Z" fill="#FFF5CB"/>
<path d="M1.74522 1044.58C3.90883 1042.42 3.90881 1038.92 1.74519 1036.77C-0.418411 1034.61 -3.92628 1034.61 -6.0899 1036.77C-8.25351 1038.92 -8.25354 1042.42 -6.08992 1044.58C-3.92632 1046.74 -0.418396 1046.74 1.74522 1044.58Z" fill="#FFF5CB"/>
<path d="M26.7649 1069.53C28.7549 1067.55 28.7549 1064.33 26.7649 1062.34C24.7749 1060.36 21.5485 1060.36 19.5585 1062.34C17.5685 1064.33 17.5685 1067.55 19.5585 1069.53C21.5485 1071.51 24.7749 1071.51 26.7649 1069.53Z" fill="#FFF5CB"/>
<path d="M-149.268 843.453C-146.556 840.749 -146.556 836.366 -149.268 833.662C-151.979 830.958 -156.374 830.958 -159.086 833.662C-161.797 836.366 -161.797 840.749 -159.086 843.453C-156.374 846.157 -151.979 846.157 -149.268 843.453Z" fill="#FFF5CB"/>
<path d="M-123.281 869.368C-120.209 866.305 -120.209 861.338 -123.281 858.275C-126.352 855.212 -131.333 855.212 -134.405 858.275C-137.476 861.338 -137.476 866.305 -134.405 869.368C-131.333 872.432 -126.352 872.432 -123.281 869.368Z" fill="#FFF5CB"/>
<path d="M-97.2694 895.308C-93.8237 891.872 -93.8237 886.3 -97.2695 882.864C-100.715 879.428 -106.302 879.428 -109.748 882.864C-113.193 886.3 -113.193 891.872 -109.748 895.308C-106.302 898.744 -100.715 898.744 -97.2694 895.308Z" fill="#FFF5CB"/>
<path d="M-71.2825 921.223C-67.4761 917.428 -67.4761 911.273 -71.2825 907.477C-75.0888 903.682 -81.2601 903.682 -85.0665 907.477C-88.8728 911.273 -88.8728 917.428 -85.0665 921.223C-81.2601 925.019 -75.0888 925.019 -71.2825 921.223Z" fill="#FFF5CB"/>
<path d="M-45.2955 947.139C-41.1286 942.983 -41.1285 936.246 -45.2955 932.091C-49.4624 927.935 -56.2184 927.935 -60.3854 932.091C-64.5523 936.246 -64.5523 942.983 -60.3854 947.139C-56.2184 951.294 -49.4625 951.294 -45.2955 947.139Z" fill="#FFF5CB"/>
<path d="M-19.3085 973.054C-14.781 968.539 -14.781 961.219 -19.3085 956.704C-23.8361 952.189 -31.1767 952.189 -35.7043 956.704C-40.2318 961.219 -40.2318 968.539 -35.7043 973.054C-31.1767 977.57 -23.8361 977.57 -19.3085 973.054Z" fill="#FFF5CB"/>
<path d="M5.37259 997.668C9.53955 993.512 9.53954 986.775 5.37259 982.619C1.20563 978.464 -5.55034 978.464 -9.71729 982.619C-13.8842 986.775 -13.8842 993.512 -9.7173 997.668C-5.55034 1001.82 1.20564 1001.82 5.37259 997.668Z" fill="#FFF5CB"/>
<path d="M30.0537 1022.28C33.8601 1018.48 33.86 1012.33 30.0537 1008.53C26.2473 1004.74 20.076 1004.74 16.2697 1008.53C12.4633 1012.33 12.4633 1018.48 16.2697 1022.28C20.076 1026.08 26.2474 1026.08 30.0537 1022.28Z" fill="#FFF5CB"/>
<path d="M54.7348 1046.89C58.1806 1043.46 58.1806 1037.89 54.7348 1034.45C51.2891 1031.01 45.7024 1031.01 42.2567 1034.45C38.8109 1037.89 38.8109 1043.46 42.2567 1046.89C45.7024 1050.33 51.2891 1050.33 54.7348 1046.89Z" fill="#FFF5CB"/>
<path d="M79.3918 1071.48C82.4635 1068.42 82.4635 1063.45 79.3918 1060.39C76.32 1057.33 71.3396 1057.33 68.2678 1060.39C65.196 1063.45 65.196 1068.42 68.2678 1071.48C71.3396 1074.55 76.32 1074.55 79.3918 1071.48Z" fill="#FFF5CB"/>
<path d="M104.073 1096.1C106.784 1093.39 106.784 1089.01 104.073 1086.31C101.362 1083.6 96.966 1083.6 94.2548 1086.31C91.5436 1089.01 91.5436 1093.39 94.2548 1096.1C96.966 1098.8 101.362 1098.8 104.073 1096.1Z" fill="#FFF5CB"/>
<path d="M-148.276 793.913C-145.017 790.663 -145.017 785.394 -148.276 782.144C-151.535 778.895 -156.818 778.895 -160.077 782.144C-163.336 785.394 -163.336 790.663 -160.077 793.913C-156.818 797.163 -151.535 797.163 -148.276 793.913Z" fill="#FFF5CB"/>
<path d="M-121.951 820.166C-118.144 816.37 -118.144 810.216 -121.951 806.42C-125.757 802.624 -131.928 802.624 -135.735 806.42C-139.541 810.216 -139.541 816.37 -135.735 820.166C-131.928 823.962 -125.757 823.962 -121.951 820.166Z" fill="#FFF5CB"/>
<path d="M-95.625 846.419C-91.2711 842.077 -91.2711 835.038 -95.625 830.696C-99.979 826.354 -107.038 826.354 -111.392 830.696C-115.746 835.038 -115.746 842.077 -111.392 846.419C-107.038 850.761 -99.979 850.761 -95.625 846.419Z" fill="#FFF5CB"/>
<path d="M-69.3237 872.648C-64.4355 867.773 -64.4355 859.87 -69.3237 854.995C-74.2119 850.121 -82.1371 850.121 -87.0253 854.995C-91.9134 859.87 -91.9134 867.773 -87.0253 872.648C-82.1371 877.523 -74.2118 877.523 -69.3237 872.648Z" fill="#FFF5CB"/>
<path d="M-42.9982 898.901C-37.5624 893.481 -37.5624 884.692 -42.9982 879.271C-48.4339 873.85 -57.247 873.85 -62.6827 879.271C-68.1185 884.692 -68.1184 893.481 -62.6827 898.901C-57.247 904.322 -48.4339 904.322 -42.9982 898.901Z" fill="#FFF5CB"/>
<path d="M-16.6727 925.154C-10.6893 919.188 -10.6893 909.513 -16.6726 903.546C-22.656 897.58 -32.3568 897.58 -38.3401 903.546C-44.3235 909.513 -44.3235 919.188 -38.3401 925.154C-32.3568 931.121 -22.656 931.121 -16.6727 925.154Z" fill="#FFF5CB"/>
<path d="M9.65289 951.407C16.1838 944.895 16.1838 934.335 9.65289 927.822C3.12199 921.309 -7.46669 921.309 -13.9976 927.822C-20.5285 934.335 -20.5285 944.895 -13.9976 951.407C-7.46669 957.92 3.12199 957.92 9.65289 951.407Z" fill="#FFF5CB"/>
<path d="M33.9955 975.683C39.9788 969.716 39.9788 960.042 33.9955 954.075C28.0121 948.108 18.3113 948.108 12.3279 954.075C6.34462 960.042 6.34462 969.716 12.3279 975.683C18.3112 981.65 28.0121 981.65 33.9955 975.683Z" fill="#FFF5CB"/>
<path d="M58.338 999.959C63.7738 994.538 63.7737 985.749 58.338 980.328C52.9023 974.907 44.0892 974.907 38.6534 980.328C33.2177 985.749 33.2177 994.538 38.6534 999.959C44.0892 1005.38 52.9023 1005.38 58.338 999.959Z" fill="#FFF5CB"/>
<path d="M82.6806 1024.23C87.5688 1019.36 87.5688 1011.46 82.6806 1006.58C77.7924 1001.71 69.8672 1001.71 64.979 1006.58C60.0908 1011.46 60.0908 1019.36 64.979 1024.23C69.8672 1029.11 77.7924 1029.11 82.6806 1024.23Z" fill="#FFF5CB"/>
<path d="M107.047 1048.53C111.401 1044.19 111.401 1037.15 107.047 1032.81C102.693 1028.47 95.6343 1028.47 91.2803 1032.81C86.9264 1037.15 86.9264 1044.19 91.2803 1048.53C95.6343 1052.88 102.693 1052.88 107.047 1048.53Z" fill="#FFF5CB"/>
<path d="M131.39 1072.81C135.196 1069.01 135.196 1062.86 131.39 1059.06C127.584 1055.27 121.412 1055.27 117.606 1059.06C113.799 1062.86 113.8 1069.01 117.606 1072.81C121.412 1076.61 127.584 1076.61 131.39 1072.81Z" fill="#FFF5CB"/>
<path d="M155.732 1097.09C158.991 1093.84 158.991 1088.57 155.732 1085.32C152.474 1082.07 147.19 1082.07 143.931 1085.32C140.673 1088.57 140.673 1093.84 143.931 1097.09C147.19 1100.34 152.474 1100.34 155.732 1097.09Z" fill="#FFF5CB"/>
<path d="M-147.938 743.722C-144.492 740.286 -144.492 734.714 -147.938 731.278C-151.383 727.842 -156.97 727.842 -160.416 731.278C-163.861 734.714 -163.861 740.286 -160.416 743.722C-156.97 747.158 -151.383 747.158 -147.938 743.722Z" fill="#FFF5CB"/>
<path d="M-121.298 770.289C-117.131 766.133 -117.131 759.396 -121.298 755.24C-125.465 751.085 -132.221 751.085 -136.388 755.24C-140.554 759.396 -140.554 766.133 -136.388 770.289C-132.221 774.444 -125.465 774.444 -121.298 770.289Z" fill="#FFF5CB"/>
<path d="M-94.6577 796.855C-89.7696 791.98 -89.7696 784.077 -94.6577 779.202C-99.5459 774.328 -107.471 774.328 -112.359 779.202C-117.247 784.077 -117.247 791.98 -112.359 796.855C-107.471 801.73 -99.5459 801.73 -94.6577 796.855Z" fill="#FFF5CB"/>
<path d="M-67.9937 823.446C-62.3709 817.839 -62.3709 808.747 -67.9937 803.14C-73.6164 797.533 -82.7326 797.533 -88.3553 803.14C-93.978 808.747 -93.978 817.839 -88.3553 823.446C-82.7326 829.053 -73.6164 829.053 -67.9937 823.446Z" fill="#FFF5CB"/>
<path d="M-41.3538 850.012C-35.0098 843.686 -35.0098 833.429 -41.3538 827.102C-47.6977 820.776 -57.9832 820.776 -64.3271 827.102C-70.6711 833.429 -70.6711 843.686 -64.3271 850.012C-57.9832 856.339 -47.6977 856.339 -41.3538 850.012Z" fill="#FFF5CB"/>
<path d="M-14.6897 876.603C-7.61119 869.544 -7.61118 858.099 -14.6897 851.04C-21.7681 843.981 -33.2446 843.981 -40.3231 851.04C-47.4016 858.099 -47.4016 869.544 -40.3231 876.603C-33.2446 883.662 -21.7682 883.662 -14.6897 876.603Z" fill="#FFF5CB"/>
<path d="M11.9502 903.17C19.7499 895.392 19.7499 882.781 11.9502 875.002C4.15056 867.224 -8.49525 867.224 -16.2949 875.002C-24.0946 882.781 -24.0946 895.392 -16.2949 903.17C-8.49525 910.948 4.15054 910.948 11.9502 903.17Z" fill="#FFF5CB"/>
<path d="M38.5901 929.736C47.111 921.239 47.111 907.462 38.5901 898.964C30.0692 890.467 16.2542 890.467 7.73326 898.964C-0.787628 907.462 -0.787628 921.239 7.73325 929.736C16.2541 938.234 30.0692 938.234 38.5901 929.736Z" fill="#FFF5CB"/>
<path d="M62.6183 953.698C70.418 945.92 70.418 933.309 62.6183 925.531C54.8186 917.753 42.1729 917.753 34.3732 925.531C26.5735 933.309 26.5735 945.92 34.3732 953.698C42.1728 961.477 54.8186 961.477 62.6183 953.698Z" fill="#FFF5CB"/>
<path d="M86.6465 977.661C93.7249 970.602 93.7249 959.157 86.6465 952.098C79.568 945.039 68.0915 945.039 61.0131 952.098C53.9346 959.157 53.9346 970.602 61.0131 977.661C68.0915 984.72 79.568 984.72 86.6465 977.661Z" fill="#FFF5CB"/>
<path d="M110.651 1001.6C116.994 995.272 116.994 985.015 110.651 978.688C104.307 972.362 94.0211 972.362 87.6772 978.688C81.3333 985.015 81.3332 995.272 87.6771 1001.6C94.0211 1007.93 104.307 1007.93 110.651 1001.6Z" fill="#FFF5CB"/>
<path d="M134.679 1025.56C140.301 1019.95 140.301 1010.86 134.679 1005.26C129.056 999.648 119.94 999.648 114.317 1005.26C108.694 1010.86 108.694 1019.95 114.317 1025.56C119.94 1031.17 129.056 1031.17 134.679 1025.56Z" fill="#FFF5CB"/>
<path d="M158.683 1049.5C163.571 1044.62 163.571 1036.72 158.683 1031.85C153.795 1026.97 145.869 1026.97 140.981 1031.85C136.093 1036.72 136.093 1044.62 140.981 1049.5C145.869 1054.37 153.795 1054.37 158.683 1049.5Z" fill="#FFF5CB"/>
<path d="M182.711 1073.46C186.878 1069.31 186.878 1062.57 182.711 1058.41C178.544 1054.26 171.788 1054.26 167.621 1058.41C163.454 1062.57 163.454 1069.31 167.621 1073.46C171.788 1077.62 178.544 1077.62 182.711 1073.46Z" fill="#FFF5CB"/>
<path d="M206.739 1097.42C210.185 1093.99 210.185 1088.42 206.739 1084.98C203.293 1081.54 197.707 1081.54 194.261 1084.98C190.815 1088.42 190.815 1093.99 194.261 1097.42C197.707 1100.86 203.293 1100.86 206.739 1097.42Z" fill="#FFF5CB"/>
<path d="M-148.276 692.856C-145.017 689.606 -145.017 684.337 -148.276 681.087C-151.535 677.837 -156.818 677.837 -160.077 681.087C-163.336 684.337 -163.336 689.606 -160.077 692.856C-156.818 696.105 -151.535 696.105 -148.276 692.856Z" fill="#FFF5CB"/>
<path d="M-121.298 719.76C-117.131 715.604 -117.131 708.867 -121.298 704.711C-125.465 700.556 -132.221 700.556 -136.388 704.711C-140.554 708.867 -140.554 715.604 -136.388 719.76C-132.221 723.915 -125.465 723.915 -121.298 719.76Z" fill="#FFF5CB"/>
<path d="M-94.3192 746.664C-89.244 741.603 -89.244 733.397 -94.3192 728.336C-99.3943 723.275 -107.623 723.275 -112.698 728.336C-117.773 733.397 -117.773 741.603 -112.698 746.664C-107.623 751.725 -99.3943 751.725 -94.3192 746.664Z" fill="#FFF5CB"/>
<path d="M-67.3407 773.568C-61.3574 767.601 -61.3574 757.927 -67.3407 751.96C-73.324 745.994 -83.0249 745.993 -89.0082 751.96C-94.9916 757.927 -94.9916 767.601 -89.0082 773.568C-83.0249 779.535 -73.324 779.535 -67.3407 773.568Z" fill="#FFF5CB"/>
<path d="M-40.3623 800.473C-33.4708 793.6 -33.4708 782.457 -40.3623 775.585C-47.2538 768.712 -58.4271 768.712 -65.3186 775.585C-72.2101 782.457 -72.2101 793.6 -65.3186 800.473C-58.4271 807.345 -47.2538 807.345 -40.3623 800.473Z" fill="#FFF5CB"/>
<path d="M-13.3838 827.377C-5.58412 819.599 -5.58415 806.988 -13.3838 799.209C-21.1835 791.431 -33.8293 791.431 -41.629 799.209C-49.4287 806.988 -49.4287 819.599 -41.629 827.377C-33.8293 835.155 -21.1835 835.155 -13.3838 827.377Z" fill="#FFF5CB"/>
<path d="M13.5946 854.281C22.3025 845.597 22.3025 831.518 13.5946 822.834C4.88676 814.15 -9.23149 814.15 -17.9393 822.834C-26.6472 831.518 -26.6472 845.597 -17.9393 854.281C-9.23148 862.965 4.88675 862.965 13.5946 854.281Z" fill="#FFF5CB"/>
<path d="M40.5731 881.185C50.1891 871.596 50.1891 856.048 40.5731 846.458C30.957 836.869 15.3663 836.869 5.75029 846.458C-3.86577 856.048 -3.86575 871.596 5.75031 881.185C15.3663 890.775 30.957 890.775 40.5731 881.185Z" fill="#FFF5CB"/>
<path d="M67.5515 908.089C78.0758 897.594 78.0758 880.578 67.5515 870.083C57.0273 859.587 39.9642 859.587 29.4399 870.083C18.9157 880.578 18.9157 897.594 29.4399 908.089C39.9641 918.585 57.0273 918.585 67.5515 908.089Z" fill="#FFF5CB"/>
<path d="M91.2412 931.714C100.857 922.124 100.857 906.577 91.2412 896.987C81.6251 887.397 66.0344 887.397 56.4184 896.987C46.8023 906.577 46.8023 922.124 56.4184 931.714C66.0344 941.303 81.6251 941.304 91.2412 931.714Z" fill="#FFF5CB"/>
<path d="M114.931 955.338C123.639 946.654 123.639 932.575 114.931 923.891C106.223 915.207 92.1047 915.207 83.3968 923.891C74.6889 932.575 74.6889 946.654 83.3968 955.338C92.1047 964.022 106.223 964.022 114.931 955.338Z" fill="#FFF5CB"/>
<path d="M138.62 978.963C146.42 971.185 146.42 958.574 138.62 950.795C130.821 943.017 118.175 943.017 110.375 950.795C102.576 958.574 102.576 971.185 110.375 978.963C118.175 986.741 130.821 986.741 138.62 978.963Z" fill="#FFF5CB"/>
<path d="M162.31 1002.59C169.202 995.715 169.202 984.572 162.31 977.7C155.419 970.827 144.245 970.827 137.354 977.7C130.462 984.572 130.462 995.715 137.354 1002.59C144.245 1009.46 155.419 1009.46 162.31 1002.59Z" fill="#FFF5CB"/>
<path d="M186 1026.21C191.983 1020.24 191.983 1010.57 186 1004.6C180.016 998.637 170.316 998.637 164.332 1004.6C158.349 1010.57 158.349 1020.24 164.332 1026.21C170.316 1032.18 180.016 1032.18 186 1026.21Z" fill="#FFF5CB"/>
<path d="M209.689 1049.84C214.764 1044.78 214.764 1036.57 209.689 1031.51C204.614 1026.45 196.386 1026.45 191.311 1031.51C186.236 1036.57 186.236 1044.78 191.311 1049.84C196.386 1054.9 204.614 1054.9 209.689 1049.84Z" fill="#FFF5CB"/>
<path d="M233.379 1073.46C237.546 1069.31 237.546 1062.57 233.379 1058.41C229.212 1054.26 222.456 1054.26 218.289 1058.41C214.122 1062.57 214.122 1069.31 218.289 1073.46C222.456 1077.62 229.212 1077.62 233.379 1073.46Z" fill="#FFF5CB"/>
<path d="M257.069 1097.09C260.327 1093.84 260.327 1088.57 257.069 1085.32C253.81 1082.07 248.526 1082.07 245.268 1085.32C242.009 1088.57 242.009 1093.84 245.268 1097.09C248.526 1100.33 253.81 1100.34 257.069 1097.09Z" fill="#FFF5CB"/>
<path d="M-149.268 641.338C-146.556 638.634 -146.556 634.251 -149.268 631.547C-151.979 628.843 -156.374 628.843 -159.086 631.547C-161.797 634.251 -161.797 638.634 -159.086 641.338C-156.374 644.042 -151.979 644.042 -149.268 641.338Z" fill="#FFF5CB"/>
<path d="M-121.951 668.58C-118.144 664.784 -118.144 658.63 -121.951 654.834C-125.757 651.038 -131.928 651.038 -135.735 654.834C-139.541 658.63 -139.541 664.784 -135.735 668.58C-131.928 672.376 -125.757 672.376 -121.951 668.58Z" fill="#FFF5CB"/>
<path d="M-94.6577 695.798C-89.7696 690.923 -89.7696 683.02 -94.6577 678.145C-99.5459 673.27 -107.471 673.27 -112.359 678.145C-117.247 683.02 -117.247 690.923 -112.359 695.798C-107.471 700.672 -99.5459 700.672 -94.6577 695.798Z" fill="#FFF5CB"/>
<path d="M-67.3407 723.04C-61.3574 717.073 -61.3574 707.399 -67.3407 701.432C-73.324 695.465 -83.0249 695.465 -89.0082 701.432C-94.9916 707.399 -94.9916 717.073 -89.0082 723.04C-83.0249 729.006 -73.324 729.006 -67.3407 723.04Z" fill="#FFF5CB"/>
<path d="M-40.0237 750.281C-32.9452 743.222 -32.9452 731.778 -40.0237 724.719C-47.1022 717.66 -58.5787 717.66 -65.6572 724.719C-72.7356 731.778 -72.7356 743.222 -65.6572 750.281C-58.5787 757.34 -47.1022 757.34 -40.0237 750.281Z" fill="#FFF5CB"/>
<path d="M-12.7309 777.499C-4.5706 769.361 -4.57062 756.167 -12.7309 748.029C-20.8912 739.892 -34.1216 739.892 -42.2819 748.029C-50.4422 756.167 -50.4422 769.361 -42.2819 777.499C-34.1216 785.637 -20.8912 785.637 -12.7309 777.499Z" fill="#FFF5CB"/>
<path d="M14.5861 804.741C23.8416 795.511 23.8416 780.546 14.5861 771.316C5.33067 762.086 -9.67537 762.086 -18.9308 771.316C-28.1863 780.546 -28.1863 795.511 -18.9308 804.741C-9.67537 813.971 5.33067 813.971 14.5861 804.741Z" fill="#FFF5CB"/>
<path d="M41.8789 831.959C52.2162 821.65 52.2162 804.936 41.8789 794.627C31.5417 784.319 14.7817 784.318 4.44444 794.627C-5.89282 804.936 -5.89281 821.65 4.44444 831.959C14.7817 842.268 31.5417 842.268 41.8789 831.959Z" fill="#FFF5CB"/>
<path d="M69.1959 859.201C80.6284 847.8 80.6284 829.315 69.1959 817.914C57.7635 806.513 39.2279 806.513 27.7955 817.914C16.3631 829.315 16.3631 847.8 27.7955 859.201C39.2279 870.602 57.7635 870.602 69.1959 859.201Z" fill="#FFF5CB"/>
<path d="M96.5129 886.443C109.041 873.949 109.041 853.694 96.5129 841.201C83.9854 828.708 63.6742 828.708 51.1466 841.201C38.619 853.694 38.619 873.949 51.1466 886.443C63.6742 898.936 83.9854 898.936 96.5129 886.443Z" fill="#FFF5CB"/>
<path d="M119.864 909.729C131.296 898.328 131.296 879.844 119.864 868.443C108.432 857.042 89.896 857.042 78.4636 868.443C67.0312 879.844 67.0312 898.328 78.4636 909.729C89.896 921.13 108.432 921.13 119.864 909.729Z" fill="#FFF5CB"/>
<path d="M143.215 933.016C153.552 922.707 153.552 905.993 143.215 895.685C132.878 885.376 116.118 885.376 105.781 895.685C95.4434 905.993 95.4433 922.707 105.781 933.016C116.118 943.325 132.878 943.325 143.215 933.016Z" fill="#FFF5CB"/>
<path d="M166.59 956.327C175.846 947.097 175.846 932.132 166.59 922.902C157.335 913.672 142.329 913.672 133.073 922.902C123.818 932.132 123.818 947.097 133.073 956.327C142.329 965.557 157.335 965.557 166.59 956.327Z" fill="#FFF5CB"/>
<path d="M189.941 979.614C198.102 971.476 198.102 958.282 189.941 950.144C181.781 942.006 168.551 942.006 160.39 950.144C152.23 958.282 152.23 971.476 160.39 979.614C168.551 987.752 181.781 987.752 189.941 979.614Z" fill="#FFF5CB"/>
<path d="M213.317 1002.92C220.395 995.866 220.395 984.421 213.317 977.362C206.238 970.303 194.762 970.303 187.683 977.362C180.605 984.421 180.605 995.866 187.683 1002.92C194.762 1009.98 206.238 1009.98 213.317 1002.92Z" fill="#FFF5CB"/>
<path d="M236.668 1026.21C242.651 1020.24 242.651 1010.57 236.668 1004.6C230.685 998.637 220.984 998.637 215 1004.6C209.017 1010.57 209.017 1020.24 215 1026.21C220.984 1032.18 230.685 1032.18 236.668 1026.21Z" fill="#FFF5CB"/>
<path d="M260.019 1049.5C264.907 1044.62 264.907 1036.72 260.019 1031.85C255.131 1026.97 247.205 1026.97 242.317 1031.85C237.429 1036.72 237.429 1044.62 242.317 1049.5C247.205 1054.37 255.131 1054.37 260.019 1049.5Z" fill="#FFF5CB"/>
<path d="M283.394 1072.81C287.201 1069.01 287.201 1062.86 283.394 1059.06C279.588 1055.27 273.416 1055.27 269.61 1059.06C265.804 1062.86 265.804 1069.01 269.61 1072.81C273.416 1076.61 279.588 1076.61 283.394 1072.81Z" fill="#FFF5CB"/>
<path d="M306.745 1096.1C309.456 1093.39 309.456 1089.01 306.745 1086.31C304.034 1083.6 299.638 1083.6 296.927 1086.31C294.216 1089.01 294.216 1093.39 296.927 1096.1C299.638 1098.8 304.034 1098.8 306.745 1096.1Z" fill="#FFF5CB"/>
<path d="M-123.281 616.725C-120.209 613.662 -120.209 608.695 -123.281 605.632C-126.352 602.568 -131.333 602.568 -134.405 605.632C-137.476 608.695 -137.476 613.662 -134.405 616.725C-131.333 619.788 -126.352 619.788 -123.281 616.725Z" fill="#FFF5CB"/>
<path d="M-95.625 644.304C-91.2711 639.962 -91.2711 632.923 -95.625 628.581C-99.979 624.239 -107.038 624.239 -111.392 628.581C-115.746 632.923 -115.746 639.962 -111.392 644.304C-107.038 648.646 -99.979 648.646 -95.625 644.304Z" fill="#FFF5CB"/>
<path d="M-67.9937 671.86C-62.3709 666.253 -62.3709 657.161 -67.9937 651.554C-73.6164 645.947 -82.7326 645.947 -88.3553 651.554C-93.978 657.161 -93.978 666.253 -88.3553 671.86C-82.7326 677.467 -73.6164 677.467 -67.9937 671.86Z" fill="#FFF5CB"/>
<path d="M-40.3623 699.415C-33.4708 692.543 -33.4708 681.4 -40.3623 674.527C-47.2538 667.655 -58.4271 667.655 -65.3186 674.527C-72.2101 681.4 -72.2101 692.543 -65.3186 699.415C-58.4271 706.288 -47.2538 706.288 -40.3623 699.415Z" fill="#FFF5CB"/>
<path d="M-12.7309 726.97C-4.57062 718.833 -4.5706 705.639 -12.7309 697.501C-20.8912 689.363 -34.1216 689.363 -42.2819 697.501C-50.4422 705.639 -50.4422 718.833 -42.2819 726.971C-34.1216 735.108 -20.8912 735.108 -12.7309 726.97Z" fill="#FFF5CB"/>
<path d="M14.9005 754.526C24.3295 745.123 24.3295 729.877 14.9005 720.474C5.47141 711.071 -9.81613 711.071 -19.2452 720.474C-28.6743 729.877 -28.6743 745.123 -19.2452 754.526C-9.81613 763.929 5.47141 763.929 14.9005 754.526Z" fill="#FFF5CB"/>
<path d="M42.556 782.105C53.2673 771.424 53.2673 754.105 42.556 743.423C31.8448 732.742 14.4785 732.742 3.76732 743.423C-6.94389 754.105 -6.94389 771.424 3.76732 782.105C14.4785 792.787 31.8448 792.787 42.556 782.105Z" fill="#FFF5CB"/>
<path d="M70.1874 809.661C82.1674 797.714 82.1674 778.344 70.1875 766.397C58.2075 754.45 38.784 754.45 26.804 766.397C14.824 778.344 14.824 797.714 26.804 809.661C38.784 821.608 58.2074 821.608 70.1874 809.661Z" fill="#FFF5CB"/>
<path d="M97.8188 837.216C111.068 824.004 111.068 802.582 97.8188 789.37C84.5701 776.158 63.0895 776.158 49.8407 789.37C36.592 802.582 36.592 824.004 49.8407 837.216C63.0895 850.428 84.5701 850.428 97.8188 837.216Z" fill="#FFF5CB"/>
<path d="M125.45 864.771C139.968 850.294 139.968 826.821 125.45 812.343C110.933 797.866 87.395 797.866 72.8775 812.343C58.3599 826.821 58.3599 850.294 72.8775 864.771C87.395 879.249 110.933 879.249 125.45 864.771Z" fill="#FFF5CB"/>
<path d="M148.487 887.745C161.736 874.532 161.736 853.111 148.487 839.899C135.238 826.686 113.758 826.686 100.509 839.899C87.26 853.111 87.26 874.532 100.509 887.745C113.758 900.957 135.238 900.957 148.487 887.745Z" fill="#FFF5CB"/>
<path d="M171.524 910.718C183.504 898.771 183.504 879.401 171.524 867.454C159.544 855.507 140.12 855.507 128.14 867.454C116.16 879.401 116.16 898.771 128.14 910.718C140.12 922.665 159.544 922.665 171.524 910.718Z" fill="#FFF5CB"/>
<path d="M194.56 933.692C205.272 923.01 205.272 905.691 194.56 895.009C183.849 884.328 166.483 884.328 155.772 895.009C145.06 905.691 145.06 923.01 155.772 933.692C166.483 944.373 183.849 944.373 194.56 933.692Z" fill="#FFF5CB"/>
<path d="M217.573 956.641C227.002 947.238 227.002 931.992 217.573 922.589C208.144 913.186 192.856 913.186 183.427 922.589C173.998 931.992 173.998 947.238 183.427 956.641C192.856 966.044 208.144 966.044 217.573 956.641Z" fill="#FFF5CB"/>
<path d="M240.61 979.614C248.77 971.476 248.77 958.282 240.61 950.144C232.449 942.006 219.219 942.006 211.059 950.144C202.898 958.282 202.898 971.476 211.059 979.614C219.219 987.752 232.449 987.752 240.61 979.614Z" fill="#FFF5CB"/>
<path d="M263.646 1002.59C270.538 995.715 270.538 984.572 263.646 977.7C256.755 970.827 245.581 970.827 238.69 977.7C231.798 984.572 231.798 995.715 238.69 1002.59C245.581 1009.46 256.755 1009.46 263.646 1002.59Z" fill="#FFF5CB"/>
<path d="M286.683 1025.56C292.306 1019.95 292.306 1010.86 286.683 1005.26C281.06 999.648 271.944 999.648 266.321 1005.26C260.699 1010.86 260.699 1019.95 266.321 1025.56C271.944 1031.17 281.06 1031.17 286.683 1025.56Z" fill="#FFF5CB"/>
<path d="M309.72 1048.53C314.074 1044.19 314.074 1037.15 309.72 1032.81C305.366 1028.47 298.307 1028.47 293.953 1032.81C289.599 1037.15 289.599 1044.19 293.953 1048.53C298.307 1052.88 305.366 1052.88 309.72 1048.53Z" fill="#FFF5CB"/>
<path d="M332.732 1071.48C335.804 1068.42 335.804 1063.45 332.732 1060.39C329.66 1057.33 324.68 1057.33 321.608 1060.39C318.536 1063.45 318.536 1068.42 321.608 1071.48C324.68 1074.55 329.66 1074.55 332.732 1071.48Z" fill="#FFF5CB"/>
<path d="M-125.239 564.243C-123.249 562.258 -123.249 559.041 -125.239 557.056C-127.229 555.072 -130.456 555.072 -132.446 557.056C-134.436 559.041 -134.436 562.258 -132.446 564.243C-130.456 566.227 -127.229 566.227 -125.239 564.243Z" fill="#FFF5CB"/>
<path d="M-97.2695 592.136C-93.8237 588.7 -93.8237 583.128 -97.2694 579.692C-100.715 576.256 -106.302 576.256 -109.748 579.692C-113.193 583.128 -113.193 588.7 -109.748 592.136C-106.302 595.572 -100.715 595.572 -97.2695 592.136Z" fill="#FFF5CB"/>
<path d="M-69.3237 620.005C-64.4355 615.13 -64.4355 607.227 -69.3237 602.352C-74.2118 597.477 -82.1371 597.477 -87.0253 602.352C-91.9134 607.227 -91.9134 615.13 -87.0253 620.005C-82.1371 624.879 -74.2119 624.879 -69.3237 620.005Z" fill="#FFF5CB"/>
<path d="M-41.3538 647.898C-35.0098 641.571 -35.0098 631.314 -41.3538 624.988C-47.6977 618.661 -57.9832 618.661 -64.3271 624.988C-70.6711 631.314 -70.6711 641.571 -64.3271 647.898C-57.9832 654.224 -47.6977 654.224 -41.3538 647.898Z" fill="#FFF5CB"/>
<path d="M-13.3838 675.791C-5.58415 668.012 -5.58412 655.401 -13.3838 647.623C-21.1835 639.845 -33.8293 639.845 -41.629 647.623C-49.4287 655.401 -49.4287 668.012 -41.629 675.791C-33.8293 683.569 -21.1835 683.569 -13.3838 675.791Z" fill="#FFF5CB"/>
<path d="M14.5861 703.684C23.8416 694.454 23.8416 679.489 14.5861 670.259C5.33067 661.029 -9.67537 661.029 -18.9308 670.259C-28.1863 679.489 -28.1863 694.454 -18.9308 703.684C-9.67537 712.914 5.33067 712.914 14.5861 703.684Z" fill="#FFF5CB"/>
<path d="M42.556 731.577C53.2673 720.895 53.2673 703.576 42.556 692.895C31.8448 682.213 14.4785 682.213 3.76732 692.895C-6.94389 703.576 -6.94389 720.895 3.76732 731.577C14.4785 742.258 31.8448 742.258 42.556 731.577Z" fill="#FFF5CB"/>
<path d="M70.5018 759.445C82.6554 747.325 82.6554 727.675 70.5018 715.554C58.3482 703.434 38.6433 703.434 26.4896 715.554C14.336 727.675 14.336 747.325 26.4896 759.445C38.6433 771.566 58.3482 771.566 70.5018 759.445Z" fill="#FFF5CB"/>
<path d="M98.4717 787.339C112.081 773.767 112.081 751.762 98.4717 738.19C84.8624 724.618 62.7972 724.618 49.1878 738.19C35.5784 751.762 35.5784 773.767 49.1878 787.339C62.7972 800.91 84.8623 800.91 98.4717 787.339Z" fill="#FFF5CB"/>
<path d="M126.442 815.231C141.507 800.208 141.507 775.85 126.442 760.826C111.377 745.802 86.9511 745.802 71.886 760.826C56.8208 775.85 56.8208 800.208 71.886 815.231C86.9511 830.255 111.377 830.255 126.442 815.231Z" fill="#FFF5CB"/>
<path d="M154.412 843.125C170.933 826.649 170.933 799.937 154.412 783.462C137.891 766.986 111.105 766.986 94.5841 783.462C78.0632 799.937 78.0632 826.649 94.5841 843.124C111.105 859.6 137.891 859.6 154.412 843.125Z" fill="#FFF5CB"/>
<path d="M177.11 865.76C192.175 850.737 192.175 826.378 177.11 811.355C162.045 796.331 137.619 796.331 122.554 811.355C107.489 826.378 107.489 850.737 122.554 865.76C137.619 880.784 162.045 880.784 177.11 865.76Z" fill="#FFF5CB"/>
<path d="M199.808 888.396C213.417 874.824 213.417 852.82 199.808 839.248C186.199 825.676 164.133 825.676 150.524 839.248C136.915 852.82 136.915 874.824 150.524 888.396C164.133 901.968 186.199 901.968 199.808 888.396Z" fill="#FFF5CB"/>
<path d="M222.506 911.032C234.66 898.911 234.66 879.261 222.506 867.141C210.352 855.02 190.648 855.02 178.494 867.141C166.34 879.261 166.34 898.911 178.494 911.032C190.648 923.152 210.352 923.152 222.506 911.032Z" fill="#FFF5CB"/>
<path d="M245.228 933.691C255.94 923.01 255.94 905.691 245.228 895.009C234.517 884.328 217.151 884.328 206.44 895.009C195.728 905.691 195.728 923.01 206.44 933.691C217.151 944.373 234.517 944.373 245.228 933.691Z" fill="#FFF5CB"/>
<path d="M267.927 956.327C277.182 947.097 277.182 932.132 267.927 922.902C258.671 913.672 243.665 913.672 234.41 922.902C225.154 932.132 225.154 947.097 234.41 956.327C243.665 965.557 258.671 965.557 267.927 956.327Z" fill="#FFF5CB"/>
<path d="M290.625 978.963C298.424 971.185 298.424 958.574 290.625 950.795C282.825 943.017 270.179 943.017 262.38 950.795C254.58 958.574 254.58 971.185 262.38 978.963C270.179 986.741 282.825 986.741 290.625 978.963Z" fill="#FFF5CB"/>
<path d="M313.323 1001.6C319.667 995.272 319.667 985.015 313.323 978.688C306.979 972.362 296.693 972.362 290.349 978.688C284.006 985.015 284.006 995.272 290.349 1001.6C296.693 1007.93 306.979 1007.93 313.323 1001.6Z" fill="#FFF5CB"/>
<path d="M336.021 1024.23C340.909 1019.36 340.909 1011.46 336.021 1006.58C331.133 1001.71 323.208 1001.71 318.319 1006.58C313.431 1011.46 313.431 1019.36 318.319 1024.23C323.208 1029.11 331.133 1029.11 336.021 1024.23Z" fill="#FFF5CB"/>
<path d="M358.743 1046.89C362.189 1043.46 362.189 1037.89 358.743 1034.45C355.298 1031.01 349.711 1031.01 346.265 1034.45C342.819 1037.89 342.819 1043.46 346.265 1046.89C349.711 1050.33 355.298 1050.33 358.743 1046.89Z" fill="#FFF5CB"/>
<path d="M381.442 1069.53C383.432 1067.55 383.432 1064.33 381.442 1062.34C379.452 1060.36 376.225 1060.36 374.235 1062.34C372.245 1064.33 372.245 1067.55 374.235 1069.53C376.225 1071.51 379.452 1071.51 381.442 1069.53Z" fill="#FFF5CB"/>
<path d="M-99.591 539.292C-97.4273 537.134 -97.4274 533.636 -99.591 531.478C-101.755 529.321 -105.262 529.321 -107.426 531.478C-109.59 533.636 -109.59 537.134 -107.426 539.292C-105.262 541.45 -101.755 541.45 -99.591 539.292Z" fill="#FFF5CB"/>
<path d="M-71.2825 567.523C-67.4761 563.727 -67.4761 557.572 -71.2825 553.777C-75.0888 549.981 -81.2601 549.981 -85.0665 553.777C-88.8728 557.572 -88.8728 563.727 -85.0665 567.523C-81.2601 571.319 -75.0888 571.318 -71.2825 567.523Z" fill="#FFF5CB"/>
<path d="M-42.9982 595.729C-37.5624 590.308 -37.5624 581.519 -42.9982 576.099C-48.4339 570.678 -57.247 570.678 -62.6827 576.099C-68.1184 581.519 -68.1185 590.308 -62.6827 595.729C-57.247 601.15 -48.4339 601.15 -42.9982 595.729Z" fill="#FFF5CB"/>
<path d="M-14.6897 623.96C-7.61118 616.901 -7.61119 605.456 -14.6897 598.397C-21.7682 591.338 -33.2446 591.338 -40.3231 598.397C-47.4016 605.456 -47.4016 616.901 -40.3231 623.96C-33.2446 631.019 -21.7681 631.019 -14.6897 623.96Z" fill="#FFF5CB"/>
<path d="M13.5946 652.166C22.3025 643.482 22.3025 629.403 13.5946 620.719C4.88675 612.035 -9.23148 612.035 -17.9393 620.719C-26.6472 629.403 -26.6472 643.482 -17.9393 652.166C-9.23149 660.85 4.88676 660.85 13.5946 652.166Z" fill="#FFF5CB"/>
<path d="M41.8789 680.373C52.2162 670.064 52.2162 653.35 41.8789 643.041C31.5417 632.732 14.7817 632.732 4.44444 643.041C-5.89281 653.35 -5.89282 670.064 4.44444 680.373C14.7817 690.682 31.5417 690.682 41.8789 680.373Z" fill="#FFF5CB"/>
<path d="M70.1875 708.603C82.1674 696.656 82.1674 677.286 70.1874 665.339C58.2074 653.392 38.784 653.392 26.804 665.339C14.824 677.286 14.824 696.656 26.804 708.603C38.784 720.55 58.2075 720.55 70.1875 708.603Z" fill="#FFF5CB"/>
<path d="M98.4717 736.81C112.081 723.238 112.081 701.233 98.4717 687.661C84.8623 674.09 62.7972 674.09 49.1878 687.661C35.5784 701.233 35.5784 723.238 49.1878 736.81C62.7972 750.382 84.8624 750.382 98.4717 736.81Z" fill="#FFF5CB"/>
<path d="M126.78 765.04C142.032 749.83 142.032 725.17 126.78 709.96C111.528 694.749 86.7995 694.749 71.5474 709.96C56.2953 725.17 56.2953 749.83 71.5474 765.04C86.7995 780.251 111.528 780.251 126.78 765.04Z" fill="#FFF5CB"/>
<path d="M155.065 793.247C171.946 776.412 171.946 749.117 155.065 732.282C138.183 715.447 110.813 715.447 93.9312 732.282C77.0497 749.117 77.0497 776.412 93.9312 793.247C110.813 810.082 138.183 810.082 155.065 793.247Z" fill="#FFF5CB"/>
<path d="M183.349 821.453C201.86 802.993 201.86 773.064 183.349 754.604C164.838 736.144 134.826 736.144 116.315 754.604C97.8041 773.064 97.8041 802.993 116.315 821.453C134.826 839.913 164.838 839.913 183.349 821.453Z" fill="#FFF5CB"/>
<path d="M205.733 843.776C222.614 826.941 222.614 799.646 205.733 782.81C188.851 765.975 161.481 765.975 144.599 782.81C127.718 799.646 127.718 826.941 144.599 843.776C161.481 860.611 188.851 860.611 205.733 843.776Z" fill="#FFF5CB"/>
<path d="M228.116 866.098C243.369 850.888 243.369 826.227 228.116 811.017C212.864 795.807 188.136 795.807 172.884 811.017C157.631 826.227 157.631 850.888 172.884 866.098C188.136 881.308 212.864 881.308 228.116 866.098Z" fill="#FFF5CB"/>
<path d="M250.476 888.396C264.085 874.824 264.085 852.82 250.476 839.248C236.867 825.676 214.801 825.676 201.192 839.248C187.583 852.82 187.583 874.824 201.192 888.396C214.801 901.968 236.867 901.968 250.476 888.396Z" fill="#FFF5CB"/>
<path d="M272.86 910.718C284.84 898.771 284.84 879.401 272.86 867.454C260.88 855.507 241.456 855.507 229.476 867.454C217.496 879.401 217.496 898.771 229.476 910.718C241.456 922.665 260.88 922.665 272.86 910.718Z" fill="#FFF5CB"/>
<path d="M295.219 933.016C305.557 922.707 305.557 905.993 295.219 895.685C284.882 885.376 268.122 885.376 257.785 895.685C247.448 905.993 247.448 922.707 257.785 933.016C268.122 943.325 284.882 943.325 295.219 933.016Z" fill="#FFF5CB"/>
<path d="M317.603 955.338C326.311 946.654 326.311 932.575 317.603 923.891C308.895 915.207 294.777 915.207 286.069 923.891C277.361 932.575 277.361 946.655 286.069 955.338C294.777 964.022 308.895 964.022 317.603 955.338Z" fill="#FFF5CB"/>
<path d="M339.987 977.661C347.065 970.602 347.065 959.157 339.987 952.098C332.908 945.039 321.432 945.039 314.354 952.098C307.275 959.157 307.275 970.602 314.353 977.661C321.432 984.72 332.908 984.72 339.987 977.661Z" fill="#FFF5CB"/>
<path d="M362.347 999.959C367.782 994.538 367.782 985.749 362.347 980.328C356.911 974.907 348.098 974.907 342.662 980.328C337.226 985.749 337.226 994.538 342.662 999.959C348.098 1005.38 356.911 1005.38 362.347 999.959Z" fill="#FFF5CB"/>
<path d="M384.73 1022.28C388.537 1018.48 388.537 1012.33 384.73 1008.53C380.924 1004.74 374.753 1004.74 370.946 1008.53C367.14 1012.33 367.14 1018.49 370.946 1022.28C374.753 1026.08 380.924 1026.08 384.73 1022.28Z" fill="#FFF5CB"/>
<path d="M407.09 1044.58C409.254 1042.42 409.254 1038.92 407.09 1036.77C404.926 1034.61 401.418 1034.61 399.255 1036.77C397.091 1038.92 397.091 1042.42 399.255 1044.58C401.418 1046.74 404.926 1046.74 407.09 1044.58Z" fill="#FFF5CB"/>
<path d="M-73.9184 514.365C-71.5678 512.021 -71.5678 508.221 -73.9184 505.876C-76.269 503.532 -80.08 503.532 -82.4306 505.876C-84.7812 508.221 -84.7812 512.021 -82.4306 514.365C-80.08 516.709 -76.269 516.709 -73.9184 514.365Z" fill="#FFF5CB"/>
<path d="M-45.2955 542.909C-41.1285 538.754 -41.1286 532.017 -45.2955 527.861C-49.4625 523.706 -56.2184 523.706 -60.3854 527.861C-64.5523 532.017 -64.5523 538.754 -60.3854 542.909C-56.2184 547.065 -49.4624 547.065 -45.2955 542.909Z" fill="#FFF5CB"/>
<path d="M-16.6726 571.454C-10.6893 565.487 -10.6893 555.812 -16.6727 549.846C-22.656 543.879 -32.3568 543.879 -38.3401 549.846C-44.3235 555.812 -44.3235 565.487 -38.3401 571.454C-32.3568 577.42 -22.656 577.42 -16.6726 571.454Z" fill="#FFF5CB"/>
<path d="M11.9502 599.998C19.7499 592.219 19.7499 579.608 11.9502 571.83C4.15054 564.052 -8.49525 564.052 -16.2949 571.83C-24.0946 579.608 -24.0946 592.219 -16.2949 599.998C-8.49525 607.776 4.15056 607.776 11.9502 599.998Z" fill="#FFF5CB"/>
<path d="M40.5731 628.542C50.1891 618.952 50.1891 603.404 40.5731 593.815C30.957 584.225 15.3663 584.225 5.75031 593.815C-3.86575 603.404 -3.86577 618.952 5.75029 628.542C15.3663 638.131 30.957 638.131 40.5731 628.542Z" fill="#FFF5CB"/>
<path d="M69.1959 657.086C80.6284 645.685 80.6284 627.2 69.1959 615.799C57.7635 604.398 39.2279 604.398 27.7955 615.799C16.3631 627.2 16.3631 645.685 27.7955 657.086C39.2279 668.487 57.7635 668.487 69.1959 657.086Z" fill="#FFF5CB"/>
<path d="M97.8188 685.63C111.068 672.418 111.068 650.996 97.8188 637.784C84.5701 624.572 63.0895 624.572 49.8407 637.784C36.592 650.996 36.592 672.418 49.8407 685.63C63.0895 698.842 84.5701 698.842 97.8188 685.63Z" fill="#FFF5CB"/>
<path d="M126.442 714.174C141.507 699.15 141.507 674.792 126.442 659.768C111.377 644.745 86.9511 644.745 71.886 659.768C56.8208 674.792 56.8208 699.15 71.886 714.174C86.9511 729.198 111.377 729.198 126.442 714.174Z" fill="#FFF5CB"/>
<path d="M155.065 742.718C171.946 725.883 171.946 698.588 155.065 681.753C138.183 664.918 110.813 664.918 93.9312 681.753C77.0497 698.588 77.0497 725.883 93.9312 742.718C110.813 759.553 138.183 759.553 155.065 742.718Z" fill="#FFF5CB"/>
<path d="M183.687 771.262C202.385 752.616 202.385 722.384 183.687 703.738C164.99 685.091 134.674 685.091 115.976 703.738C97.2786 722.384 97.2786 752.616 115.976 771.262C134.674 789.909 164.99 789.909 183.687 771.262Z" fill="#FFF5CB"/>
<path d="M212.31 799.806C232.825 779.349 232.825 746.18 212.31 725.722C191.796 705.264 158.536 705.264 138.022 725.722C117.507 746.18 117.507 779.349 138.022 799.806C158.536 820.264 191.796 820.264 212.31 799.806Z" fill="#FFF5CB"/>
<path d="M234.355 821.791C253.053 803.145 253.053 772.913 234.355 754.266C215.658 735.62 185.342 735.62 166.645 754.266C147.947 772.913 147.947 803.145 166.645 821.791C185.342 840.438 215.658 840.438 234.355 821.791Z" fill="#FFF5CB"/>
<path d="M256.401 843.776C273.282 826.941 273.282 799.646 256.401 782.81C239.519 765.975 212.149 765.975 195.267 782.81C178.386 799.646 178.386 826.941 195.267 843.776C212.149 860.611 239.519 860.611 256.401 843.776Z" fill="#FFF5CB"/>
<path d="M278.446 865.76C293.511 850.737 293.511 826.378 278.446 811.355C263.381 796.331 238.955 796.331 223.89 811.355C208.825 826.378 208.825 850.737 223.89 865.76C238.955 880.784 263.381 880.784 278.446 865.76Z" fill="#FFF5CB"/>
<path d="M300.491 887.745C313.74 874.532 313.74 853.111 300.491 839.899C287.242 826.686 265.762 826.686 252.513 839.899C239.264 853.111 239.264 874.532 252.513 887.745C265.762 900.957 287.242 900.957 300.491 887.745Z" fill="#FFF5CB"/>
<path d="M322.536 909.729C333.969 898.328 333.969 879.844 322.536 868.443C311.104 857.042 292.568 857.042 281.136 868.443C269.704 879.844 269.704 898.328 281.136 909.729C292.568 921.13 311.104 921.13 322.536 909.729Z" fill="#FFF5CB"/>
<path d="M344.582 931.714C354.198 922.124 354.198 906.577 344.582 896.987C334.966 887.397 319.375 887.397 309.759 896.987C300.143 906.577 300.143 922.124 309.759 931.714C319.375 941.304 334.966 941.304 344.582 931.714Z" fill="#FFF5CB"/>
<path d="M366.627 953.699C374.427 945.92 374.427 933.309 366.627 925.531C358.827 917.753 346.181 917.753 338.382 925.531C330.582 933.309 330.582 945.92 338.382 953.699C346.181 961.477 358.827 961.477 366.627 953.699Z" fill="#FFF5CB"/>
<path d="M388.672 975.683C394.655 969.716 394.655 960.042 388.672 954.075C382.689 948.108 372.988 948.108 367.005 954.075C361.021 960.042 361.021 969.716 367.005 975.683C372.988 981.65 382.689 981.65 388.672 975.683Z" fill="#FFF5CB"/>
<path d="M410.717 997.668C414.884 993.512 414.884 986.775 410.717 982.619C406.55 978.464 399.794 978.464 395.627 982.619C391.46 986.775 391.46 993.512 395.627 997.668C399.794 1001.82 406.55 1001.82 410.717 997.668Z" fill="#FFF5CB"/>
<path d="M432.763 1019.65C435.113 1017.31 435.113 1013.51 432.763 1011.16C430.412 1008.82 426.601 1008.82 424.25 1011.16C421.9 1013.51 421.9 1017.31 424.25 1019.65C426.601 1022 430.412 1022 432.763 1019.65Z" fill="#FFF5CB"/>
<path d="M-48.2458 489.439C-45.7082 486.908 -45.7082 482.805 -48.2458 480.274C-50.7833 477.744 -54.8976 477.744 -57.4351 480.274C-59.9727 482.805 -59.9727 486.908 -57.4351 489.439C-54.8976 491.969 -50.7833 491.969 -48.2458 489.439Z" fill="#FFF5CB"/>
<path d="M-19.3085 518.296C-14.781 513.781 -14.781 506.461 -19.3085 501.946C-23.8361 497.43 -31.1767 497.43 -35.7043 501.946C-40.2318 506.461 -40.2318 513.781 -35.7043 518.296C-31.1767 522.811 -23.8361 522.811 -19.3085 518.296Z" fill="#FFF5CB"/>
<path d="M9.65289 547.178C16.1838 540.665 16.1838 530.105 9.65289 523.593C3.12199 517.08 -7.46669 517.08 -13.9976 523.593C-20.5285 530.105 -20.5285 540.665 -13.9976 547.178C-7.46669 553.691 3.12199 553.691 9.65289 547.178Z" fill="#FFF5CB"/>
<path d="M38.5901 576.036C47.111 567.538 47.111 553.761 38.5901 545.264C30.0692 536.766 16.2541 536.766 7.73325 545.264C-0.787628 553.761 -0.787628 567.538 7.73326 576.036C16.2542 584.533 30.0692 584.533 38.5901 576.036Z" fill="#FFF5CB"/>
<path d="M67.5515 604.917C78.0758 594.422 78.0758 577.406 67.5515 566.911C57.0273 556.415 39.9641 556.415 29.4399 566.911C18.9157 577.406 18.9157 594.422 29.4399 604.917C39.9642 615.413 57.0273 615.413 67.5515 604.917Z" fill="#FFF5CB"/>
<path d="M96.5129 633.799C109.041 621.306 109.041 601.051 96.5129 588.557C83.9854 576.064 63.6742 576.064 51.1466 588.557C38.619 601.051 38.619 621.306 51.1466 633.799C63.6742 646.292 83.9854 646.292 96.5129 633.799Z" fill="#FFF5CB"/>
<path d="M125.45 662.657C139.968 648.179 139.968 624.706 125.45 610.229C110.933 595.751 87.395 595.751 72.8775 610.229C58.3599 624.706 58.3599 648.179 72.8775 662.657C87.395 677.134 110.933 677.134 125.45 662.657Z" fill="#FFF5CB"/>
<path d="M154.412 691.538C170.933 675.063 170.933 648.351 154.412 631.875C137.891 615.4 111.105 615.4 94.5841 631.875C78.0632 648.351 78.0632 675.063 94.5841 691.538C111.105 708.014 137.891 708.014 154.412 691.538Z" fill="#FFF5CB"/>
<path d="M183.349 720.396C201.86 701.936 201.86 672.007 183.349 653.547C164.838 635.087 134.826 635.087 116.315 653.547C97.8041 672.007 97.8041 701.936 116.315 720.396C134.826 738.856 164.838 738.856 183.349 720.396Z" fill="#FFF5CB"/>
<path d="M212.31 749.278C232.825 728.82 232.825 695.651 212.31 675.194C191.796 654.736 158.536 654.736 138.022 675.194C117.507 695.651 117.507 728.82 138.022 749.278C158.536 769.736 191.796 769.736 212.31 749.278Z" fill="#FFF5CB"/>
<path d="M241.272 778.159C263.789 755.704 263.789 719.296 241.272 696.84C218.754 674.385 182.246 674.385 159.728 696.84C137.211 719.296 137.211 755.704 159.728 778.159C182.246 800.615 218.754 800.615 241.272 778.159Z" fill="#FFF5CB"/>
<path d="M262.978 799.806C283.493 779.349 283.493 746.18 262.978 725.722C242.464 705.264 209.204 705.264 188.69 725.722C168.176 746.18 168.176 779.349 188.69 799.806C209.204 820.264 242.464 820.264 262.978 799.806Z" fill="#FFF5CB"/>
<path d="M284.685 821.453C303.196 802.993 303.196 773.064 284.685 754.604C266.174 736.144 236.162 736.144 217.651 754.604C199.14 773.064 199.14 802.993 217.651 821.453C236.162 839.913 266.174 839.913 284.685 821.453Z" fill="#FFF5CB"/>
<path d="M306.416 843.124C322.937 826.649 322.937 799.937 306.416 783.462C289.895 766.986 263.109 766.986 246.588 783.462C230.067 799.937 230.067 826.649 246.588 843.125C263.109 859.6 289.895 859.6 306.416 843.124Z" fill="#FFF5CB"/>
<path d="M328.123 864.771C342.64 850.294 342.64 826.821 328.123 812.343C313.605 797.866 290.067 797.866 275.55 812.343C261.032 826.821 261.032 850.294 275.55 864.771C290.067 879.249 313.605 879.249 328.123 864.771Z" fill="#FFF5CB"/>
<path d="M349.853 886.443C362.381 873.949 362.381 853.694 349.853 841.201C337.326 828.708 317.015 828.708 304.487 841.201C291.959 853.694 291.959 873.949 304.487 886.443C317.015 898.936 337.326 898.936 349.853 886.443Z" fill="#FFF5CB"/>
<path d="M371.56 908.089C382.084 897.594 382.084 880.578 371.56 870.083C361.036 859.587 343.973 859.587 333.448 870.083C322.924 880.578 322.924 897.594 333.448 908.089C343.973 918.585 361.036 918.585 371.56 908.089Z" fill="#FFF5CB"/>
<path d="M393.267 929.736C401.788 921.239 401.788 907.462 393.267 898.964C384.746 890.467 370.931 890.467 362.41 898.964C353.889 907.462 353.889 921.239 362.41 929.736C370.931 938.234 384.746 938.234 393.267 929.736Z" fill="#FFF5CB"/>
<path d="M414.998 951.408C421.529 944.895 421.529 934.335 414.998 927.822C408.467 921.309 397.878 921.309 391.347 927.822C384.816 934.335 384.816 944.895 391.347 951.408C397.878 957.92 408.467 957.92 414.998 951.408Z" fill="#FFF5CB"/>
<path d="M436.704 973.054C441.232 968.539 441.232 961.219 436.704 956.704C432.177 952.189 424.836 952.189 420.309 956.704C415.781 961.219 415.781 968.539 420.309 973.054C424.836 977.57 432.177 977.57 436.704 973.054Z" fill="#FFF5CB"/>
<path d="M458.435 994.726C460.973 992.195 460.973 988.092 458.435 985.561C455.898 983.031 451.783 983.031 449.246 985.561C446.708 988.092 446.708 992.195 449.246 994.726C451.783 997.256 455.898 997.256 458.435 994.726Z" fill="#FFF5CB"/>
<path d="M-23.2503 463.837C-20.8997 461.492 -20.8997 457.692 -23.2503 455.348C-25.6009 453.004 -29.4119 453.004 -31.7625 455.348C-34.1131 457.692 -34.1131 461.492 -31.7625 463.837C-29.4119 466.181 -25.6009 466.181 -23.2503 463.837Z" fill="#FFF5CB"/>
<path d="M5.37259 492.381C9.53954 488.225 9.53955 481.488 5.37259 477.332C1.20564 473.177 -5.55034 473.177 -9.7173 477.332C-13.8842 481.488 -13.8842 488.225 -9.71729 492.381C-5.55034 496.536 1.20563 496.536 5.37259 492.381Z" fill="#FFF5CB"/>
<path d="M33.9955 520.925C39.9788 514.958 39.9788 505.284 33.9955 499.317C28.0121 493.35 18.3112 493.35 12.3279 499.317C6.34462 505.284 6.34462 514.958 12.3279 520.925C18.3113 526.892 28.0121 526.892 33.9955 520.925Z" fill="#FFF5CB"/>
<path d="M62.6183 549.469C70.418 541.691 70.418 529.08 62.6183 521.301C54.8186 513.523 42.1728 513.523 34.3732 521.301C26.5735 529.08 26.5735 541.691 34.3732 549.469C42.1729 557.247 54.8186 557.247 62.6183 549.469Z" fill="#FFF5CB"/>
<path d="M91.2412 578.013C100.857 568.423 100.857 552.876 91.2412 543.286C81.6251 533.696 66.0344 533.696 56.4184 543.286C46.8023 552.876 46.8023 568.423 56.4184 578.013C66.0344 587.603 81.6251 587.603 91.2412 578.013Z" fill="#FFF5CB"/>
<path d="M119.864 606.557C131.296 595.156 131.296 576.672 119.864 565.271C108.432 553.87 89.896 553.87 78.4636 565.271C67.0312 576.672 67.0312 595.156 78.4636 606.557C89.896 617.958 108.432 617.958 119.864 606.557Z" fill="#FFF5CB"/>
<path d="M148.487 635.101C161.736 621.889 161.736 600.468 148.487 587.255C135.238 574.043 113.758 574.043 100.509 587.255C87.26 600.468 87.26 621.889 100.509 635.101C113.758 648.314 135.238 648.314 148.487 635.101Z" fill="#FFF5CB"/>
<path d="M177.11 663.645C192.175 648.622 192.175 624.263 177.11 609.24C162.045 594.216 137.619 594.216 122.554 609.24C107.489 624.263 107.489 648.622 122.554 663.645C137.619 678.669 162.045 678.669 177.11 663.645Z" fill="#FFF5CB"/>
<path d="M205.733 692.19C222.614 675.354 222.614 648.059 205.733 631.224C188.851 614.389 161.481 614.389 144.599 631.224C127.718 648.059 127.718 675.354 144.599 692.19C161.481 709.025 188.851 709.025 205.733 692.19Z" fill="#FFF5CB"/>
<path d="M234.355 720.734C253.053 702.087 253.053 671.855 234.355 653.209C215.658 634.562 185.342 634.563 166.645 653.209C147.947 671.855 147.947 702.087 166.645 720.734C185.342 739.38 215.658 739.38 234.355 720.734Z" fill="#FFF5CB"/>
<path d="M262.978 749.278C283.493 728.82 283.493 695.651 262.978 675.194C242.464 654.736 209.204 654.736 188.69 675.194C168.176 695.651 168.176 728.82 188.69 749.278C209.204 769.736 242.464 769.736 262.978 749.278Z" fill="#FFF5CB"/>
<path d="M285.024 771.262C303.721 752.616 303.721 722.384 285.024 703.738C266.326 685.091 236.01 685.091 217.313 703.738C198.615 722.384 198.615 752.616 217.313 771.262C236.01 789.909 266.326 789.909 285.024 771.262Z" fill="#FFF5CB"/>
<path d="M307.069 793.247C323.95 776.412 323.95 749.117 307.069 732.282C290.187 715.447 262.817 715.447 245.935 732.282C229.054 749.117 229.054 776.412 245.935 793.247C262.817 810.082 290.187 810.082 307.069 793.247Z" fill="#FFF5CB"/>
<path d="M329.114 815.231C344.179 800.208 344.179 775.85 329.114 760.826C314.049 745.802 289.623 745.802 274.558 760.826C259.493 775.85 259.493 800.208 274.558 815.231C289.623 830.255 314.049 830.255 329.114 815.231Z" fill="#FFF5CB"/>
<path d="M351.159 837.216C364.408 824.004 364.408 802.582 351.159 789.37C337.91 776.158 316.43 776.158 303.181 789.37C289.932 802.582 289.932 824.004 303.181 837.216C316.43 850.428 337.91 850.428 351.159 837.216Z" fill="#FFF5CB"/>
<path d="M373.204 859.201C384.637 847.8 384.637 829.315 373.205 817.914C361.772 806.513 343.236 806.513 331.804 817.914C320.372 829.315 320.372 847.8 331.804 859.201C343.236 870.602 361.772 870.602 373.204 859.201Z" fill="#FFF5CB"/>
<path d="M395.25 881.185C404.866 871.596 404.866 856.048 395.25 846.458C385.634 836.869 370.043 836.869 360.427 846.458C350.811 856.048 350.811 871.596 360.427 881.185C370.043 890.775 385.634 890.775 395.25 881.185Z" fill="#FFF5CB"/>
<path d="M417.295 903.17C425.095 895.392 425.095 882.781 417.295 875.002C409.495 867.224 396.849 867.224 389.05 875.002C381.25 882.781 381.25 895.392 389.05 903.17C396.849 910.948 409.495 910.948 417.295 903.17Z" fill="#FFF5CB"/>
<path d="M439.34 925.154C445.323 919.188 445.323 909.513 439.34 903.546C433.357 897.58 423.656 897.58 417.673 903.547C411.689 909.513 411.689 919.188 417.673 925.154C423.656 931.121 433.357 931.121 439.34 925.154Z" fill="#FFF5CB"/>
<path d="M461.385 947.139C465.552 942.984 465.552 936.246 461.385 932.091C457.218 927.935 450.462 927.935 446.296 932.091C442.129 936.246 442.129 942.984 446.296 947.139C450.462 951.294 457.218 951.294 461.385 947.139Z" fill="#FFF5CB"/>
<path d="M483.431 969.124C485.781 966.779 485.781 962.979 483.431 960.635C481.08 958.291 477.269 958.291 474.918 960.635C472.568 962.979 472.568 966.779 474.918 969.124C477.269 971.468 481.08 971.468 483.431 969.124Z" fill="#FFF5CB"/>
<path d="M1.74519 438.235C3.90881 436.077 3.90883 432.579 1.74522 430.421C-0.418396 428.263 -3.92632 428.263 -6.08992 430.421C-8.25354 432.579 -8.25351 436.077 -6.0899 438.235C-3.92628 440.392 -0.418411 440.392 1.74519 438.235Z" fill="#FFF5CB"/>
<path d="M30.0537 466.465C33.86 462.669 33.8601 456.515 30.0537 452.719C26.2474 448.923 20.076 448.923 16.2697 452.719C12.4633 456.515 12.4633 462.669 16.2697 466.465C20.076 470.261 26.2473 470.261 30.0537 466.465Z" fill="#FFF5CB"/>
<path d="M58.338 494.672C63.7737 489.251 63.7738 480.462 58.338 475.041C52.9023 469.621 44.0892 469.621 38.6534 475.041C33.2177 480.462 33.2177 489.251 38.6534 494.672C44.0892 500.093 52.9023 500.093 58.338 494.672Z" fill="#FFF5CB"/>
<path d="M86.6465 522.902C93.7249 515.843 93.7249 504.398 86.6465 497.339C79.568 490.28 68.0915 490.28 61.0131 497.339C53.9346 504.398 53.9346 515.843 61.0131 522.902C68.0915 529.961 79.568 529.961 86.6465 522.902Z" fill="#FFF5CB"/>
<path d="M114.931 551.109C123.639 542.425 123.639 528.346 114.931 519.662C106.223 510.978 92.1047 510.978 83.3968 519.662C74.6889 528.346 74.6889 542.425 83.3968 551.109C92.1047 559.793 106.223 559.793 114.931 551.109Z" fill="#FFF5CB"/>
<path d="M143.215 579.315C153.552 569.007 153.552 552.293 143.215 541.984C132.878 531.675 116.118 531.675 105.781 541.984C95.4433 552.293 95.4434 569.007 105.781 579.315C116.118 589.624 132.878 589.624 143.215 579.315Z" fill="#FFF5CB"/>
<path d="M171.524 607.546C183.504 595.599 183.504 576.229 171.524 564.282C159.544 552.335 140.12 552.335 128.14 564.282C116.16 576.229 116.16 595.599 128.14 607.546C140.12 619.493 159.544 619.493 171.524 607.546Z" fill="#FFF5CB"/>
<path d="M199.808 635.752C213.417 622.181 213.417 600.176 199.808 586.604C186.199 573.032 164.133 573.032 150.524 586.604C136.915 600.176 136.915 622.18 150.524 635.752C164.133 649.324 186.199 649.324 199.808 635.752Z" fill="#FFF5CB"/>
<path d="M228.116 663.983C243.369 648.773 243.369 624.112 228.116 608.902C212.864 593.692 188.136 593.692 172.884 608.902C157.631 624.112 157.631 648.773 172.884 663.983C188.136 679.193 212.864 679.193 228.116 663.983Z" fill="#FFF5CB"/>
<path d="M256.401 692.19C273.282 675.354 273.282 648.059 256.401 631.224C239.519 614.389 212.149 614.389 195.267 631.224C178.386 648.059 178.386 675.354 195.267 692.19C212.149 709.025 239.519 709.025 256.401 692.19Z" fill="#FFF5CB"/>
<path d="M284.685 720.396C303.196 701.936 303.196 672.007 284.685 653.547C266.174 635.087 236.162 635.087 217.651 653.547C199.14 672.007 199.14 701.936 217.651 720.396C236.162 738.856 266.174 738.856 284.685 720.396Z" fill="#FFF5CB"/>
<path d="M307.069 742.718C323.95 725.883 323.95 698.588 307.069 681.753C290.187 664.918 262.817 664.918 245.935 681.753C229.054 698.588 229.054 725.883 245.935 742.718C262.817 759.553 290.187 759.553 307.069 742.718Z" fill="#FFF5CB"/>
<path d="M329.453 765.04C344.705 749.83 344.705 725.17 329.453 709.96C314.2 694.749 289.472 694.749 274.22 709.96C258.968 725.17 258.968 749.83 274.22 765.04C289.472 780.251 314.2 780.251 329.453 765.04Z" fill="#FFF5CB"/>
<path d="M351.812 787.339C365.422 773.767 365.422 751.762 351.812 738.19C338.203 724.618 316.138 724.618 302.528 738.19C288.919 751.762 288.919 773.767 302.528 787.339C316.138 800.91 338.203 800.91 351.812 787.339Z" fill="#FFF5CB"/>
<path d="M374.196 809.661C386.176 797.714 386.176 778.344 374.196 766.397C362.216 754.45 342.793 754.45 330.813 766.397C318.833 778.344 318.833 797.714 330.813 809.661C342.793 821.608 362.216 821.608 374.196 809.661Z" fill="#FFF5CB"/>
<path d="M396.556 831.959C406.893 821.65 406.893 804.936 396.556 794.627C386.218 784.319 369.458 784.319 359.121 794.627C348.784 804.936 348.784 821.65 359.121 831.959C369.458 842.268 386.218 842.268 396.556 831.959Z" fill="#FFF5CB"/>
<path d="M418.939 854.281C427.647 845.597 427.647 831.518 418.939 822.834C410.232 814.15 396.113 814.15 387.405 822.834C378.698 831.518 378.698 845.597 387.405 854.281C396.113 862.965 410.231 862.965 418.939 854.281Z" fill="#FFF5CB"/>
<path d="M441.323 876.603C448.402 869.544 448.402 858.099 441.323 851.04C434.245 843.981 422.768 843.981 415.69 851.04C408.611 858.099 408.611 869.544 415.69 876.603C422.768 883.662 434.245 883.662 441.323 876.603Z" fill="#FFF5CB"/>
<path d="M463.683 898.901C469.118 893.481 469.118 884.692 463.683 879.271C458.247 873.85 449.434 873.85 443.998 879.271C438.562 884.692 438.562 893.481 443.998 898.901C449.434 904.322 458.247 904.322 463.683 898.901Z" fill="#FFF5CB"/>
<path d="M486.066 921.224C489.873 917.428 489.873 911.273 486.066 907.477C482.26 903.682 476.089 903.682 472.282 907.477C468.476 911.273 468.476 917.428 472.282 921.224C476.089 925.019 482.26 925.019 486.066 921.224Z" fill="#FFF5CB"/>
<path d="M508.426 943.522C510.59 941.364 510.59 937.866 508.426 935.708C506.263 933.55 502.755 933.55 500.591 935.708C498.427 937.866 498.427 941.364 500.591 943.522C502.755 945.679 506.263 945.679 508.426 943.522Z" fill="#FFF5CB"/>
<path d="M26.7649 412.657C28.7549 410.672 28.7549 407.455 26.7649 405.47C24.7749 403.486 21.5485 403.486 19.5585 405.47C17.5685 407.455 17.5685 410.672 19.5585 412.657C21.5485 414.641 24.7749 414.641 26.7649 412.657Z" fill="#FFF5CB"/>
<path d="M54.7348 440.55C58.1806 437.113 58.1806 431.542 54.7348 428.106C51.2891 424.67 45.7024 424.67 42.2567 428.106C38.8109 431.542 38.8109 437.113 42.2567 440.55C45.7024 443.986 51.2891 443.986 54.7348 440.55Z" fill="#FFF5CB"/>
<path d="M82.6806 468.419C87.5688 463.544 87.5688 455.64 82.6806 450.766C77.7924 445.891 69.8672 445.891 64.979 450.766C60.0908 455.64 60.0908 463.544 64.979 468.419C69.8672 473.293 77.7924 473.293 82.6806 468.419Z" fill="#FFF5CB"/>
<path d="M110.651 496.312C116.994 489.985 116.994 479.728 110.651 473.401C104.307 467.075 94.0211 467.075 87.6771 473.401C81.3332 479.728 81.3333 489.985 87.6772 496.312C94.0211 502.638 104.307 502.638 110.651 496.312Z" fill="#FFF5CB"/>
<path d="M138.62 524.205C146.42 516.426 146.42 503.815 138.62 496.037C130.821 488.259 118.175 488.259 110.375 496.037C102.576 503.815 102.576 516.426 110.375 524.205C118.175 531.983 130.821 531.983 138.62 524.205Z" fill="#FFF5CB"/>
<path d="M166.59 552.098C175.846 542.868 175.846 527.903 166.59 518.673C157.335 509.443 142.329 509.443 133.073 518.673C123.818 527.903 123.818 542.868 133.073 552.098C142.329 561.328 157.335 561.328 166.59 552.098Z" fill="#FFF5CB"/>
<path d="M194.56 579.991C205.272 569.309 205.272 551.99 194.56 541.309C183.849 530.627 166.483 530.627 155.772 541.309C145.06 551.99 145.06 569.309 155.772 579.991C166.483 590.672 183.849 590.672 194.56 579.991Z" fill="#FFF5CB"/>
<path d="M222.506 607.859C234.66 595.739 234.66 576.089 222.506 563.968C210.352 551.848 190.648 551.848 178.494 563.968C166.34 576.089 166.34 595.739 178.494 607.859C190.648 619.98 210.352 619.98 222.506 607.859Z" fill="#FFF5CB"/>
<path d="M250.476 635.752C264.085 622.18 264.085 600.176 250.476 586.604C236.867 573.032 214.801 573.032 201.192 586.604C187.583 600.176 187.583 622.181 201.192 635.752C214.801 649.324 236.867 649.324 250.476 635.752Z" fill="#FFF5CB"/>
<path d="M278.446 663.645C293.511 648.622 293.511 624.263 278.446 609.24C263.381 594.216 238.955 594.216 223.89 609.24C208.825 624.263 208.825 648.622 223.89 663.645C238.955 678.669 263.381 678.669 278.446 663.645Z" fill="#FFF5CB"/>
<path d="M306.416 691.538C322.937 675.063 322.937 648.351 306.416 631.875C289.895 615.4 263.109 615.4 246.588 631.875C230.067 648.351 230.067 675.063 246.588 691.538C263.109 708.014 289.895 708.014 306.416 691.538Z" fill="#FFF5CB"/>
<path d="M329.114 714.174C344.179 699.15 344.179 674.792 329.114 659.768C314.049 644.745 289.623 644.745 274.558 659.768C259.493 674.792 259.493 699.15 274.558 714.174C289.623 729.198 314.049 729.198 329.114 714.174Z" fill="#FFF5CB"/>
<path d="M351.812 736.81C365.422 723.238 365.422 701.233 351.812 687.661C338.203 674.09 316.138 674.09 302.528 687.661C288.919 701.233 288.919 723.238 302.528 736.81C316.138 750.382 338.203 750.382 351.812 736.81Z" fill="#FFF5CB"/>
<path d="M374.51 759.445C386.664 747.325 386.664 727.675 374.51 715.555C362.357 703.434 342.652 703.434 330.498 715.554C318.345 727.675 318.345 747.325 330.498 759.446C342.652 771.566 362.357 771.566 374.51 759.445Z" fill="#FFF5CB"/>
<path d="M397.233 782.105C407.944 771.424 407.944 754.105 397.233 743.423C386.521 732.742 369.155 732.742 358.444 743.423C347.733 754.105 347.733 771.424 358.444 782.105C369.155 792.787 386.521 792.787 397.233 782.105Z" fill="#FFF5CB"/>
<path d="M419.931 804.741C429.186 795.511 429.186 780.546 419.931 771.316C410.675 762.086 395.669 762.086 386.414 771.316C377.158 780.546 377.158 795.511 386.414 804.741C395.669 813.971 410.675 813.971 419.931 804.741Z" fill="#FFF5CB"/>
<path d="M442.629 827.377C450.429 819.599 450.429 806.988 442.629 799.209C434.829 791.431 422.184 791.431 414.384 799.209C406.584 806.988 406.584 819.599 414.384 827.377C422.184 835.155 434.829 835.155 442.629 827.377Z" fill="#FFF5CB"/>
<path d="M465.327 850.012C471.671 843.686 471.671 833.429 465.327 827.102C458.983 820.776 448.698 820.776 442.354 827.102C436.01 833.429 436.01 843.686 442.354 850.012C448.698 856.339 458.983 856.339 465.327 850.012Z" fill="#FFF5CB"/>
<path d="M488.025 872.648C492.913 867.773 492.913 859.87 488.025 854.995C483.137 850.121 475.212 850.121 470.324 854.995C465.436 859.87 465.436 867.773 470.324 872.648C475.212 877.523 483.137 877.523 488.025 872.648Z" fill="#FFF5CB"/>
<path d="M510.748 895.308C514.193 891.872 514.193 886.3 510.748 882.864C507.302 879.428 501.715 879.428 498.269 882.864C494.824 886.3 494.824 891.872 498.269 895.308C501.715 898.744 507.302 898.744 510.748 895.308Z" fill="#FFF5CB"/>
<path d="M533.446 917.944C535.436 915.959 535.436 912.742 533.446 910.757C531.456 908.773 528.229 908.773 526.239 910.757C524.249 912.742 524.249 915.959 526.239 917.944C528.229 919.928 531.456 919.928 533.446 917.944Z" fill="#FFF5CB"/>
<path d="M79.3918 414.61C82.4635 411.547 82.4635 406.58 79.3918 403.517C76.32 400.453 71.3396 400.453 68.2678 403.517C65.196 406.58 65.196 411.547 68.2678 414.61C71.3396 417.673 76.32 417.673 79.3918 414.61Z" fill="#FFF5CB"/>
<path d="M107.047 442.19C111.401 437.848 111.401 430.808 107.047 426.466C102.693 422.124 95.6343 422.124 91.2803 426.466C86.9264 430.808 86.9264 437.848 91.2803 442.19C95.6343 446.532 102.693 446.532 107.047 442.19Z" fill="#FFF5CB"/>
<path d="M134.679 469.745C140.301 464.138 140.301 455.047 134.679 449.439C129.056 443.832 119.94 443.832 114.317 449.439C108.694 455.047 108.694 464.138 114.317 469.745C119.94 475.352 129.056 475.352 134.679 469.745Z" fill="#FFF5CB"/>
<path d="M162.31 497.3C169.202 490.428 169.202 479.285 162.31 472.413C155.419 465.54 144.245 465.54 137.354 472.413C130.462 479.285 130.462 490.428 137.354 497.3C144.245 504.173 155.419 504.173 162.31 497.3Z" fill="#FFF5CB"/>
<path d="M189.941 524.856C198.102 516.718 198.102 503.524 189.941 495.386C181.781 487.248 168.551 487.248 160.39 495.386C152.23 503.524 152.23 516.718 160.39 524.856C168.551 532.994 181.781 532.994 189.941 524.856Z" fill="#FFF5CB"/>
<path d="M217.573 552.411C227.002 543.008 227.002 527.762 217.573 518.359C208.144 508.956 192.856 508.956 183.427 518.359C173.998 527.762 173.998 543.008 183.427 552.411C192.856 561.814 208.144 561.814 217.573 552.411Z" fill="#FFF5CB"/>
<path d="M245.228 579.991C255.94 569.309 255.94 551.99 245.228 541.309C234.517 530.627 217.151 530.627 206.44 541.309C195.728 551.99 195.728 569.309 206.44 579.991C217.151 590.672 234.517 590.672 245.228 579.991Z" fill="#FFF5CB"/>
<path d="M272.86 607.546C284.84 595.599 284.84 576.229 272.86 564.282C260.88 552.335 241.456 552.335 229.476 564.282C217.496 576.229 217.496 595.599 229.476 607.546C241.456 619.493 260.88 619.493 272.86 607.546Z" fill="#FFF5CB"/>
<path d="M300.491 635.101C313.74 621.889 313.74 600.468 300.491 587.255C287.242 574.043 265.762 574.043 252.513 587.255C239.264 600.468 239.264 621.889 252.513 635.101C265.762 648.314 287.242 648.314 300.491 635.101Z" fill="#FFF5CB"/>
<path d="M328.123 662.657C342.64 648.179 342.64 624.706 328.123 610.229C313.605 595.751 290.067 595.751 275.55 610.229C261.032 624.706 261.032 648.179 275.55 662.657C290.067 677.134 313.605 677.134 328.123 662.657Z" fill="#FFF5CB"/>
<path d="M351.159 685.63C364.408 672.418 364.408 650.996 351.159 637.784C337.91 624.572 316.43 624.572 303.181 637.784C289.932 650.996 289.932 672.418 303.181 685.63C316.43 698.842 337.91 698.842 351.159 685.63Z" fill="#FFF5CB"/>
<path d="M374.196 708.603C386.176 696.656 386.176 677.286 374.196 665.339C362.216 653.392 342.793 653.392 330.813 665.339C318.833 677.286 318.833 696.656 330.813 708.603C342.793 720.55 362.216 720.55 374.196 708.603Z" fill="#FFF5CB"/>
<path d="M397.233 731.577C407.944 720.895 407.944 703.576 397.233 692.895C386.521 682.213 369.155 682.213 358.444 692.895C347.733 703.576 347.733 720.895 358.444 731.577C369.155 742.258 386.521 742.258 397.233 731.577Z" fill="#FFF5CB"/>
<path d="M420.245 754.526C429.674 745.123 429.674 729.877 420.245 720.474C410.816 711.071 395.529 711.071 386.099 720.474C376.67 729.877 376.67 745.123 386.099 754.526C395.529 763.929 410.816 763.929 420.245 754.526Z" fill="#FFF5CB"/>
<path d="M443.282 777.499C451.442 769.361 451.442 756.167 443.282 748.029C435.122 739.892 421.891 739.892 413.731 748.029C405.571 756.167 405.571 769.361 413.731 777.499C421.891 785.637 435.122 785.637 443.282 777.499Z" fill="#FFF5CB"/>
<path d="M466.319 800.473C473.21 793.6 473.21 782.457 466.319 775.585C459.427 768.712 448.254 768.712 441.362 775.585C434.471 782.457 434.471 793.6 441.362 800.473C448.254 807.345 459.427 807.345 466.319 800.473Z" fill="#FFF5CB"/>
<path d="M489.355 823.446C494.978 817.839 494.978 808.747 489.355 803.14C483.733 797.533 474.616 797.533 468.994 803.14C463.371 808.747 463.371 817.839 468.994 823.446C474.616 829.053 483.733 829.053 489.355 823.446Z" fill="#FFF5CB"/>
<path d="M512.392 846.419C516.746 842.077 516.746 835.038 512.392 830.696C508.038 826.354 500.979 826.354 496.625 830.696C492.271 835.038 492.271 842.077 496.625 846.419C500.979 850.761 508.038 850.761 512.392 846.419Z" fill="#FFF5CB"/>
<path d="M535.405 869.368C538.476 866.305 538.476 861.338 535.405 858.275C532.333 855.212 527.352 855.212 524.281 858.275C521.209 861.338 521.209 866.305 524.281 869.368C527.352 872.432 532.333 872.432 535.405 869.368Z" fill="#FFF5CB"/>
<path d="M104.073 388.695C106.784 385.991 106.784 381.607 104.073 378.904C101.362 376.2 96.966 376.2 94.2548 378.904C91.5436 381.607 91.5436 385.991 94.2548 388.695C96.966 391.398 101.362 391.398 104.073 388.695Z" fill="#FFF5CB"/>
<path d="M131.39 415.937C135.196 412.141 135.196 405.986 131.39 402.19C127.584 398.395 121.412 398.395 117.606 402.19C113.8 405.986 113.799 412.141 117.606 415.937C121.412 419.732 127.584 419.732 131.39 415.937Z" fill="#FFF5CB"/>
<path d="M158.683 443.154C163.571 438.28 163.571 430.376 158.683 425.501C153.795 420.627 145.869 420.627 140.981 425.501C136.093 430.376 136.093 438.28 140.981 443.154C145.869 448.029 153.795 448.029 158.683 443.154Z" fill="#FFF5CB"/>
<path d="M186 470.396C191.983 464.429 191.983 454.755 186 448.788C180.016 442.821 170.316 442.821 164.332 448.788C158.349 454.755 158.349 464.429 164.332 470.396C170.316 476.363 180.016 476.363 186 470.396Z" fill="#FFF5CB"/>
<path d="M213.317 497.638C220.395 490.579 220.395 479.134 213.317 472.075C206.238 465.016 194.762 465.016 187.683 472.075C180.605 479.134 180.605 490.579 187.683 497.638C194.762 504.697 206.238 504.697 213.317 497.638Z" fill="#FFF5CB"/>
<path d="M240.61 524.856C248.77 516.718 248.77 503.524 240.61 495.386C232.449 487.248 219.219 487.248 211.059 495.386C202.898 503.524 202.898 516.718 211.059 524.856C219.219 532.994 232.449 532.994 240.61 524.856Z" fill="#FFF5CB"/>
<path d="M267.927 552.098C277.182 542.868 277.182 527.903 267.927 518.673C258.671 509.443 243.665 509.443 234.41 518.673C225.154 527.903 225.154 542.868 234.41 552.098C243.665 561.328 258.671 561.328 267.927 552.098Z" fill="#FFF5CB"/>
<path d="M295.219 579.315C305.557 569.006 305.557 552.293 295.219 541.984C284.882 531.675 268.122 531.675 257.785 541.984C247.448 552.293 247.448 569.007 257.785 579.315C268.122 589.624 284.882 589.624 295.219 579.315Z" fill="#FFF5CB"/>
<path d="M322.536 606.557C333.969 595.156 333.969 576.672 322.536 565.271C311.104 553.87 292.568 553.87 281.136 565.271C269.704 576.672 269.704 595.156 281.136 606.557C292.568 617.958 311.104 617.958 322.536 606.557Z" fill="#FFF5CB"/>
<path d="M349.853 633.799C362.381 621.306 362.381 601.051 349.853 588.557C337.326 576.064 317.015 576.064 304.487 588.557C291.959 601.051 291.959 621.306 304.487 633.799C317.015 646.292 337.326 646.292 349.853 633.799Z" fill="#FFF5CB"/>
<path d="M373.205 657.086C384.637 645.685 384.637 627.2 373.204 615.799C361.772 604.398 343.236 604.398 331.804 615.799C320.372 627.2 320.372 645.685 331.804 657.086C343.236 668.487 361.772 668.487 373.205 657.086Z" fill="#FFF5CB"/>
<path d="M396.556 680.373C406.893 670.064 406.893 653.35 396.556 643.041C386.218 632.732 369.458 632.732 359.121 643.041C348.784 653.35 348.784 670.064 359.121 680.373C369.458 690.682 386.218 690.682 396.556 680.373Z" fill="#FFF5CB"/>
<path d="M419.931 703.684C429.186 694.454 429.186 679.489 419.931 670.259C410.675 661.029 395.669 661.029 386.414 670.259C377.158 679.489 377.158 694.454 386.414 703.684C395.669 712.914 410.675 712.914 419.931 703.684Z" fill="#FFF5CB"/>
<path d="M443.282 726.97C451.442 718.833 451.442 705.639 443.282 697.501C435.122 689.363 421.891 689.363 413.731 697.501C405.571 705.639 405.571 718.833 413.731 726.97C421.891 735.108 435.122 735.108 443.282 726.97Z" fill="#FFF5CB"/>
<path d="M466.657 750.281C473.736 743.222 473.736 731.778 466.657 724.719C459.579 717.66 448.102 717.66 441.024 724.719C433.945 731.778 433.945 743.222 441.024 750.281C448.102 757.34 459.579 757.34 466.657 750.281Z" fill="#FFF5CB"/>
<path d="M490.008 773.568C495.992 767.601 495.992 757.927 490.008 751.96C484.025 745.994 474.324 745.993 468.341 751.96C462.357 757.927 462.357 767.601 468.341 773.568C474.324 779.535 484.025 779.535 490.008 773.568Z" fill="#FFF5CB"/>
<path d="M513.359 796.855C518.247 791.98 518.247 784.077 513.359 779.202C508.471 774.327 500.546 774.328 495.658 779.202C490.77 784.077 490.77 791.98 495.658 796.855C500.546 801.73 508.471 801.73 513.359 796.855Z" fill="#FFF5CB"/>
<path d="M536.735 820.166C540.541 816.37 540.541 810.216 536.735 806.42C532.928 802.624 526.757 802.624 522.951 806.42C519.144 810.216 519.144 816.37 522.951 820.166C526.757 823.962 532.928 823.962 536.735 820.166Z" fill="#FFF5CB"/>
<path d="M560.086 843.453C562.797 840.749 562.797 836.366 560.086 833.662C557.374 830.958 552.979 830.958 550.268 833.662C547.556 836.366 547.556 840.749 550.268 843.453C552.979 846.157 557.374 846.157 560.086 843.453Z" fill="#FFF5CB"/>
<path d="M155.732 389.683C158.991 386.434 158.991 381.165 155.732 377.915C152.474 374.665 147.19 374.665 143.931 377.915C140.673 381.165 140.673 386.434 143.931 389.683C147.19 392.933 152.474 392.933 155.732 389.683Z" fill="#FFF5CB"/>
<path d="M182.711 416.588C186.878 412.432 186.878 405.695 182.711 401.539C178.544 397.384 171.788 397.384 167.621 401.539C163.454 405.695 163.454 412.432 167.621 416.588C171.788 420.743 178.544 420.743 182.711 416.588Z" fill="#FFF5CB"/>
<path d="M209.689 443.492C214.764 438.431 214.764 430.225 209.689 425.164C204.614 420.103 196.386 420.103 191.311 425.164C186.236 430.225 186.236 438.431 191.311 443.492C196.386 448.553 204.614 448.553 209.689 443.492Z" fill="#FFF5CB"/>
<path d="M236.668 470.396C242.651 464.429 242.651 454.755 236.668 448.788C230.685 442.821 220.984 442.821 215 448.788C209.017 454.755 209.017 464.429 215 470.396C220.984 476.363 230.685 476.363 236.668 470.396Z" fill="#FFF5CB"/>
<path d="M263.646 497.3C270.538 490.428 270.538 479.285 263.646 472.413C256.755 465.54 245.581 465.54 238.69 472.413C231.798 479.285 231.798 490.428 238.69 497.3C245.581 504.173 256.755 504.173 263.646 497.3Z" fill="#FFF5CB"/>
<path d="M290.625 524.205C298.424 516.426 298.424 503.815 290.625 496.037C282.825 488.259 270.179 488.259 262.38 496.037C254.58 503.815 254.58 516.426 262.38 524.205C270.179 531.983 282.825 531.983 290.625 524.205Z" fill="#FFF5CB"/>
<path d="M317.603 551.109C326.311 542.425 326.311 528.346 317.603 519.662C308.895 510.978 294.777 510.978 286.069 519.662C277.361 528.345 277.361 542.425 286.069 551.109C294.777 559.793 308.895 559.793 317.603 551.109Z" fill="#FFF5CB"/>
<path d="M344.582 578.013C354.198 568.423 354.198 552.876 344.582 543.286C334.966 533.696 319.375 533.696 309.759 543.286C300.143 552.876 300.143 568.423 309.759 578.013C319.375 587.603 334.966 587.603 344.582 578.013Z" fill="#FFF5CB"/>
<path d="M371.56 604.917C382.084 594.422 382.084 577.406 371.56 566.911C361.036 556.415 343.973 556.415 333.448 566.911C322.924 577.406 322.924 594.422 333.448 604.917C343.973 615.413 361.036 615.413 371.56 604.917Z" fill="#FFF5CB"/>
<path d="M395.25 628.542C404.866 618.952 404.866 603.404 395.25 593.815C385.634 584.225 370.043 584.225 360.427 593.815C350.811 603.404 350.811 618.952 360.427 628.542C370.043 638.131 385.634 638.131 395.25 628.542Z" fill="#FFF5CB"/>
<path d="M418.939 652.166C427.647 643.482 427.647 629.403 418.939 620.719C410.231 612.035 396.113 612.035 387.405 620.719C378.698 629.403 378.698 643.482 387.405 652.166C396.113 660.85 410.232 660.85 418.939 652.166Z" fill="#FFF5CB"/>
<path d="M442.629 675.791C450.429 668.012 450.429 655.401 442.629 647.623C434.829 639.845 422.184 639.845 414.384 647.623C406.584 655.401 406.584 668.012 414.384 675.791C422.184 683.569 434.829 683.569 442.629 675.791Z" fill="#FFF5CB"/>
<path d="M466.319 699.415C473.21 692.543 473.21 681.4 466.319 674.527C459.427 667.655 448.254 667.655 441.362 674.527C434.471 681.4 434.471 692.543 441.362 699.415C448.254 706.288 459.427 706.288 466.319 699.415Z" fill="#FFF5CB"/>
<path d="M490.008 723.04C495.992 717.073 495.992 707.399 490.008 701.432C484.025 695.465 474.324 695.465 468.341 701.432C462.357 707.399 462.357 717.073 468.341 723.04C474.324 729.006 484.025 729.006 490.008 723.04Z" fill="#FFF5CB"/>
<path d="M513.698 746.664C518.773 741.603 518.773 733.397 513.698 728.336C508.623 723.275 500.394 723.275 495.319 728.336C490.244 733.397 490.244 741.603 495.319 746.664C500.394 751.725 508.623 751.725 513.698 746.664Z" fill="#FFF5CB"/>
<path d="M537.388 770.289C541.555 766.133 541.555 759.396 537.388 755.24C533.221 751.085 526.465 751.085 522.298 755.24C518.131 759.396 518.131 766.133 522.298 770.289C526.465 774.444 533.221 774.444 537.388 770.289Z" fill="#FFF5CB"/>
<path d="M561.077 793.913C564.336 790.663 564.336 785.394 561.077 782.144C557.818 778.895 552.535 778.895 549.276 782.144C546.017 785.394 546.017 790.663 549.276 793.913C552.535 797.163 557.818 797.163 561.077 793.913Z" fill="#FFF5CB"/>
<path d="M206.739 390.021C210.185 386.585 210.185 381.013 206.739 377.577C203.293 374.141 197.707 374.141 194.261 377.577C190.815 381.013 190.815 386.585 194.261 390.021C197.707 393.457 203.293 393.457 206.739 390.021Z" fill="#FFF5CB"/>
<path d="M233.379 416.588C237.546 412.432 237.546 405.695 233.379 401.539C229.212 397.384 222.456 397.384 218.289 401.539C214.122 405.695 214.122 412.432 218.289 416.588C222.456 420.743 229.212 420.743 233.379 416.588Z" fill="#FFF5CB"/>
<path d="M260.019 443.154C264.907 438.28 264.907 430.376 260.019 425.501C255.131 420.627 247.205 420.627 242.317 425.501C237.429 430.376 237.429 438.28 242.317 443.154C247.205 448.029 255.131 448.029 260.019 443.154Z" fill="#FFF5CB"/>
<path d="M286.683 469.745C292.306 464.138 292.306 455.047 286.683 449.439C281.06 443.832 271.944 443.832 266.321 449.439C260.699 455.047 260.699 464.138 266.321 469.745C271.944 475.352 281.06 475.352 286.683 469.745Z" fill="#FFF5CB"/>
<path d="M313.323 496.312C319.667 489.985 319.667 479.728 313.323 473.401C306.979 467.075 296.693 467.075 290.349 473.401C284.006 479.728 284.006 489.985 290.349 496.312C296.693 502.638 306.979 502.638 313.323 496.312Z" fill="#FFF5CB"/>
<path d="M339.987 522.902C347.065 515.843 347.065 504.398 339.987 497.339C332.908 490.28 321.432 490.28 314.353 497.339C307.275 504.398 307.275 515.843 314.354 522.902C321.432 529.961 332.908 529.961 339.987 522.902Z" fill="#FFF5CB"/>
<path d="M366.627 549.469C374.427 541.691 374.427 529.08 366.627 521.301C358.827 513.523 346.181 513.523 338.382 521.301C330.582 529.08 330.582 541.691 338.382 549.469C346.181 557.247 358.827 557.247 366.627 549.469Z" fill="#FFF5CB"/>
<path d="M393.267 576.036C401.788 567.538 401.788 553.761 393.267 545.264C384.746 536.766 370.931 536.766 362.41 545.264C353.889 553.761 353.889 567.538 362.41 576.036C370.931 584.533 384.746 584.533 393.267 576.036Z" fill="#FFF5CB"/>
<path d="M417.295 599.998C425.095 592.219 425.095 579.608 417.295 571.83C409.495 564.052 396.849 564.052 389.05 571.83C381.25 579.608 381.25 592.219 389.05 599.998C396.849 607.776 409.495 607.776 417.295 599.998Z" fill="#FFF5CB"/>
<path d="M441.323 623.96C448.402 616.901 448.402 605.456 441.323 598.397C434.245 591.338 422.768 591.338 415.69 598.397C408.611 605.456 408.611 616.901 415.69 623.96C422.768 631.019 434.245 631.019 441.323 623.96Z" fill="#FFF5CB"/>
<path d="M465.327 647.898C471.671 641.571 471.671 631.314 465.327 624.988C458.983 618.661 448.698 618.661 442.354 624.988C436.01 631.314 436.01 641.571 442.354 647.898C448.698 654.224 458.983 654.224 465.327 647.898Z" fill="#FFF5CB"/>
<path d="M489.355 671.86C494.978 666.253 494.978 657.161 489.355 651.554C483.733 645.947 474.616 645.947 468.994 651.554C463.371 657.161 463.371 666.253 468.994 671.86C474.616 677.467 483.733 677.467 489.355 671.86Z" fill="#FFF5CB"/>
<path d="M513.359 695.798C518.247 690.923 518.247 683.02 513.359 678.145C508.471 673.27 500.546 673.27 495.658 678.145C490.77 683.02 490.77 690.923 495.658 695.798C500.546 700.672 508.471 700.672 513.359 695.798Z" fill="#FFF5CB"/>
<path d="M537.388 719.76C541.555 715.604 541.555 708.867 537.388 704.711C533.221 700.556 526.465 700.556 522.298 704.711C518.131 708.867 518.131 715.604 522.298 719.76C526.465 723.915 533.221 723.915 537.388 719.76Z" fill="#FFF5CB"/>
<path d="M561.416 743.722C564.861 740.286 564.861 734.714 561.416 731.278C557.97 727.842 552.383 727.842 548.938 731.278C545.492 734.714 545.492 740.286 548.938 743.722C552.383 747.158 557.97 747.158 561.416 743.722Z" fill="#FFF5CB"/>
<path d="M257.069 389.683C260.327 386.434 260.327 381.165 257.069 377.915C253.81 374.665 248.526 374.665 245.268 377.915C242.009 381.165 242.009 386.434 245.268 389.683C248.526 392.933 253.81 392.933 257.069 389.683Z" fill="#FFF5CB"/>
<path d="M283.394 415.937C287.201 412.141 287.201 405.986 283.394 402.19C279.588 398.395 273.416 398.395 269.61 402.19C265.804 405.986 265.804 412.141 269.61 415.937C273.416 419.732 279.588 419.732 283.394 415.937Z" fill="#FFF5CB"/>
<path d="M309.72 442.19C314.074 437.848 314.074 430.808 309.72 426.466C305.366 422.124 298.307 422.124 293.953 426.466C289.599 430.808 289.599 437.848 293.953 442.19C298.307 446.532 305.366 446.532 309.72 442.19Z" fill="#FFF5CB"/>
<path d="M336.021 468.419C340.909 463.544 340.909 455.64 336.021 450.766C331.133 445.891 323.208 445.891 318.319 450.766C313.431 455.64 313.431 463.544 318.319 468.419C323.208 473.293 331.133 473.293 336.021 468.419Z" fill="#FFF5CB"/>
<path d="M362.347 494.672C367.782 489.251 367.782 480.462 362.347 475.041C356.911 469.621 348.098 469.621 342.662 475.041C337.226 480.462 337.226 489.251 342.662 494.672C348.098 500.092 356.911 500.092 362.347 494.672Z" fill="#FFF5CB"/>
<path d="M388.672 520.925C394.655 514.958 394.655 505.284 388.672 499.317C382.689 493.35 372.988 493.35 367.005 499.317C361.021 505.284 361.021 514.958 367.005 520.925C372.988 526.892 382.689 526.892 388.672 520.925Z" fill="#FFF5CB"/>
<path d="M414.998 547.178C421.529 540.665 421.529 530.105 414.998 523.592C408.467 517.08 397.878 517.08 391.347 523.592C384.816 530.105 384.816 540.665 391.347 547.178C397.878 553.691 408.467 553.691 414.998 547.178Z" fill="#FFF5CB"/>
<path d="M439.34 571.454C445.323 565.487 445.323 555.812 439.34 549.846C433.357 543.879 423.656 543.879 417.673 549.846C411.689 555.812 411.689 565.487 417.673 571.453C423.656 577.42 433.357 577.42 439.34 571.454Z" fill="#FFF5CB"/>
<path d="M463.683 595.729C469.118 590.308 469.118 581.519 463.683 576.099C458.247 570.678 449.434 570.678 443.998 576.099C438.562 581.519 438.562 590.308 443.998 595.729C449.434 601.15 458.247 601.15 463.683 595.729Z" fill="#FFF5CB"/>
<path d="M488.025 620.005C492.913 615.13 492.913 607.227 488.025 602.352C483.137 597.477 475.212 597.477 470.324 602.352C465.436 607.227 465.436 615.13 470.324 620.005C475.212 624.879 483.137 624.879 488.025 620.005Z" fill="#FFF5CB"/>
<path d="M512.392 644.304C516.746 639.962 516.746 632.923 512.392 628.581C508.038 624.239 500.979 624.239 496.625 628.581C492.271 632.923 492.271 639.962 496.625 644.304C500.979 648.646 508.038 648.646 512.392 644.304Z" fill="#FFF5CB"/>
<path d="M536.735 668.58C540.541 664.784 540.541 658.63 536.735 654.834C532.928 651.038 526.757 651.038 522.951 654.834C519.144 658.63 519.144 664.784 522.951 668.58C526.757 672.376 532.928 672.376 536.735 668.58Z" fill="#FFF5CB"/>
<path d="M561.077 692.856C564.336 689.606 564.336 684.337 561.077 681.087C557.818 677.837 552.535 677.837 549.276 681.087C546.017 684.337 546.017 689.606 549.276 692.856C552.535 696.105 557.818 696.105 561.077 692.856Z" fill="#FFF5CB"/>
<path d="M306.745 388.695C309.456 385.991 309.456 381.607 306.745 378.904C304.034 376.2 299.638 376.2 296.927 378.904C294.216 381.607 294.216 385.991 296.927 388.695C299.638 391.398 304.034 391.398 306.745 388.695Z" fill="#FFF5CB"/>
<path d="M332.732 414.61C335.804 411.547 335.804 406.58 332.732 403.517C329.66 400.453 324.68 400.453 321.608 403.517C318.536 406.58 318.536 411.547 321.608 414.61C324.68 417.673 329.66 417.673 332.732 414.61Z" fill="#FFF5CB"/>
<path d="M358.743 440.55C362.189 437.113 362.189 431.542 358.743 428.106C355.298 424.67 349.711 424.67 346.265 428.106C342.819 431.542 342.819 437.113 346.265 440.55C349.711 443.986 355.298 443.986 358.743 440.55Z" fill="#FFF5CB"/>
<path d="M384.73 466.465C388.537 462.669 388.537 456.515 384.73 452.719C380.924 448.923 374.753 448.923 370.946 452.719C367.14 456.515 367.14 462.669 370.946 466.465C374.753 470.261 380.924 470.261 384.73 466.465Z" fill="#FFF5CB"/>
<path d="M410.717 492.381C414.884 488.225 414.884 481.488 410.717 477.332C406.55 473.177 399.794 473.177 395.627 477.332C391.46 481.488 391.46 488.225 395.627 492.381C399.794 496.536 406.55 496.536 410.717 492.381Z" fill="#FFF5CB"/>
<path d="M436.704 518.296C441.232 513.781 441.232 506.461 436.704 501.946C432.177 497.43 424.836 497.43 420.309 501.946C415.781 506.461 415.781 513.781 420.309 518.296C424.836 522.811 432.177 522.811 436.704 518.296Z" fill="#FFF5CB"/>
<path d="M461.385 542.909C465.552 538.754 465.552 532.016 461.385 527.861C457.218 523.706 450.462 523.706 446.296 527.861C442.129 532.016 442.129 538.754 446.296 542.909C450.462 547.065 457.218 547.065 461.385 542.909Z" fill="#FFF5CB"/>
<path d="M486.066 567.523C489.873 563.727 489.873 557.572 486.066 553.776C482.26 549.981 476.089 549.981 472.282 553.776C468.476 557.572 468.476 563.727 472.282 567.523C476.089 571.318 482.26 571.318 486.066 567.523Z" fill="#FFF5CB"/>
<path d="M510.748 592.136C514.193 588.7 514.193 583.128 510.748 579.692C507.302 576.256 501.715 576.256 498.269 579.692C494.824 583.128 494.824 588.7 498.269 592.136C501.715 595.572 507.302 595.572 510.748 592.136Z" fill="#FFF5CB"/>
<path d="M535.405 616.725C538.476 613.662 538.476 608.695 535.405 605.632C532.333 602.568 527.352 602.568 524.281 605.632C521.209 608.695 521.209 613.662 524.281 616.725C527.352 619.788 532.333 619.788 535.405 616.725Z" fill="#FFF5CB"/>
<path d="M560.086 641.338C562.797 638.634 562.797 634.251 560.086 631.547C557.374 628.843 552.979 628.843 550.268 631.547C547.556 634.251 547.556 638.634 550.268 641.338C552.979 644.042 557.374 644.042 560.086 641.338Z" fill="#FFF5CB"/>
<path d="M381.442 412.657C383.432 410.672 383.432 407.455 381.442 405.47C379.452 403.486 376.225 403.486 374.235 405.47C372.245 407.455 372.245 410.672 374.235 412.657C376.225 414.641 379.452 414.641 381.442 412.657Z" fill="#FFF5CB"/>
<path d="M407.09 438.235C409.254 436.077 409.254 432.579 407.09 430.421C404.926 428.263 401.418 428.263 399.255 430.421C397.091 432.579 397.091 436.077 399.255 438.235C401.418 440.392 404.926 440.392 407.09 438.235Z" fill="#FFF5CB"/>
<path d="M432.763 463.837C435.113 461.492 435.113 457.692 432.763 455.348C430.412 453.004 426.601 453.004 424.25 455.348C421.9 457.692 421.9 461.492 424.25 463.837C426.601 466.181 430.412 466.181 432.763 463.837Z" fill="#FFF5CB"/>
<path d="M458.435 489.439C460.973 486.908 460.973 482.805 458.435 480.274C455.898 477.744 451.783 477.744 449.246 480.274C446.708 482.805 446.708 486.908 449.246 489.439C451.783 491.969 455.898 491.969 458.435 489.439Z" fill="#FFF5CB"/>
<path d="M483.431 514.365C485.781 512.021 485.781 508.221 483.431 505.876C481.08 503.532 477.269 503.532 474.918 505.876C472.568 508.221 472.568 512.021 474.918 514.365C477.269 516.709 481.08 516.709 483.431 514.365Z" fill="#FFF5CB"/>
<path d="M508.426 539.292C510.59 537.134 510.59 533.636 508.426 531.478C506.263 529.321 502.755 529.321 500.591 531.478C498.427 533.636 498.427 537.134 500.591 539.292C502.755 541.45 506.263 541.45 508.426 539.292Z" fill="#FFF5CB"/>
<path d="M533.446 564.243C535.436 562.258 535.436 559.041 533.446 557.056C531.456 555.072 528.229 555.072 526.239 557.056C524.249 559.041 524.249 562.258 526.239 564.243C528.229 566.227 531.456 566.227 533.446 564.243Z" fill="#FFF5CB"/>
<ellipse cx="201" cy="607.5" rx="139" ry="35.5" fill="#FFE8AA"/>
<mask id="path-3-outside-1_4_3103" maskUnits="userSpaceOnUse" x="-291" y="682" width="984" height="200" fill="black">
<rect fill="white" x="-291" y="682" width="984" height="200"/>
<path d="M644.5 690C666.868 690 685 707.909 685 730V874L-283 874V730C-283 707.909 -264.868 690 -242.5 690C-220.132 690 -202 707.909 -202 730C-202 707.909 -184.091 690 -162 690C-139.909 690 -122 707.909 -122 730C-122 707.909 -104.091 690 -82 690C-59.9086 690 -42 707.909 -42 730C-42 707.909 -24.0914 690 -2 690C20.0914 690 38 707.909 38 730C38 707.909 56.1325 690 78.5 690C98.7006 690 115.445 704.607 118.5 723.71C121.555 704.607 138.299 690 158.5 690C180.868 690 199 707.909 199 730C199 707.909 217.132 690 239.5 690C261.868 690 280 707.909 280 730C280 707.909 298.132 690 320.5 690C342.868 690 361 707.909 361 730C361 707.909 379.132 690 401.5 690C423.868 690 442 707.909 442 730C442 707.909 460.132 690 482.5 690C504.868 690 523 707.909 523 730C523 707.909 541.132 690 563.5 690C585.868 690 604 707.909 604 730C604 707.909 622.132 690 644.5 690Z"/>
</mask>
<path d="M644.5 690C666.868 690 685 707.909 685 730V874L-283 874V730C-283 707.909 -264.868 690 -242.5 690C-220.132 690 -202 707.909 -202 730C-202 707.909 -184.091 690 -162 690C-139.909 690 -122 707.909 -122 730C-122 707.909 -104.091 690 -82 690C-59.9086 690 -42 707.909 -42 730C-42 707.909 -24.0914 690 -2 690C20.0914 690 38 707.909 38 730C38 707.909 56.1325 690 78.5 690C98.7006 690 115.445 704.607 118.5 723.71C121.555 704.607 138.299 690 158.5 690C180.868 690 199 707.909 199 730C199 707.909 217.132 690 239.5 690C261.868 690 280 707.909 280 730C280 707.909 298.132 690 320.5 690C342.868 690 361 707.909 361 730C361 707.909 379.132 690 401.5 690C423.868 690 442 707.909 442 730C442 707.909 460.132 690 482.5 690C504.868 690 523 707.909 523 730C523 707.909 541.132 690 563.5 690C585.868 690 604 707.909 604 730C604 707.909 622.132 690 644.5 690Z" fill="url(#paint1_linear_4_3103)"/>
<path d="M685 730H693H685ZM685 874V882H693V874H685ZM-283 874H-291V882H-283V874ZM118.5 723.71L110.6 724.973H126.4L118.5 723.71ZM644.5 690V698C662.543 698 677 712.42 677 730H685H693C693 703.397 671.192 682 644.5 682V690ZM685 730H677V874H685H693V730H685ZM685 874V866L-283 866V874V882L685 882V874ZM-283 874H-275V730H-283H-291V874H-283ZM-283 730H-275C-275 712.42 -260.543 698 -242.5 698V690V682C-269.192 682 -291 703.397 -291 730H-283ZM-242.5 690V698C-224.457 698 -210 712.42 -210 730H-202H-194C-194 703.397 -215.808 682 -242.5 682V690ZM-202 730H-194C-194 712.327 -179.673 698 -162 698V690V682C-188.51 682 -210 703.49 -210 730H-202ZM-162 690V698C-144.327 698 -130 712.327 -130 730H-122H-114C-114 703.49 -135.49 682 -162 682V690ZM-122 730H-114C-114 712.327 -99.6731 698 -82 698V690V682C-108.51 682 -130 703.49 -130 730H-122ZM-82 690V698C-64.3269 698 -50 712.327 -50 730H-42H-34C-34 703.49 -55.4903 682 -82 682V690ZM-42 730H-34C-34 712.327 -19.6731 698 -2 698V690V682C-28.5097 682 -50 703.49 -50 730H-42ZM-2 690V698C15.6731 698 30 712.327 30 730H38H46C46 703.49 24.5097 682 -2 682V690ZM38 730H46C46 712.42 60.4568 698 78.5 698V690V682C51.8082 682 30 703.397 30 730H38ZM78.5 690V698C94.7805 698 108.168 709.762 110.6 724.973L118.5 723.71L126.4 722.447C122.722 699.452 102.621 682 78.5 682V690ZM118.5 723.71L126.4 724.973C128.832 709.762 142.22 698 158.5 698V690V682C134.379 682 114.278 699.452 110.6 722.447L118.5 723.71ZM158.5 690V698C176.543 698 191 712.42 191 730H199H207C207 703.397 185.192 682 158.5 682V690ZM199 730H207C207 712.42 221.457 698 239.5 698V690V682C212.808 682 191 703.397 191 730H199ZM239.5 690V698C257.543 698 272 712.42 272 730H280H288C288 703.397 266.192 682 239.5 682V690ZM280 730H288C288 712.42 302.457 698 320.5 698V690V682C293.808 682 272 703.397 272 730H280ZM320.5 690V698C338.543 698 353 712.42 353 730H361H369C369 703.397 347.192 682 320.5 682V690ZM361 730H369C369 712.42 383.457 698 401.5 698V690V682C374.808 682 353 703.397 353 730H361ZM401.5 690V698C419.543 698 434 712.42 434 730H442H450C450 703.397 428.192 682 401.5 682V690ZM442 730H450C450 712.42 464.457 698 482.5 698V690V682C455.808 682 434 703.397 434 730H442ZM482.5 690V698C500.543 698 515 712.42 515 730H523H531C531 703.397 509.192 682 482.5 682V690ZM523 730H531C531 712.42 545.457 698 563.5 698V690V682C536.808 682 515 703.397 515 730H523ZM563.5 690V698C581.543 698 596 712.42 596 730H604H612C612 703.397 590.192 682 563.5 682V690ZM604 730H612C612 712.42 626.457 698 644.5 698V690V682C617.808 682 596 703.397 596 730H604Z" fill="#C4DD83" mask="url(#path-3-outside-1_4_3103)"/>
<mask id="path-5-outside-2_4_3103" maskUnits="userSpaceOnUse" x="-291" y="-8.00009" width="984" height="200" fill="black">
<rect fill="white" x="-291" y="-8.00009" width="984" height="200"/>
<path d="M-242.5 184C-264.868 184 -283 166.091 -283 144L-283 -8.46252e-05L685 0L685 144C685 166.091 666.868 184 644.5 184C622.132 184 604 166.091 604 144C604 166.091 586.091 184 564 184C541.909 184 524 166.091 524 144C524 166.091 506.091 184 484 184C461.909 184 444 166.091 444 144C444 166.091 426.091 184 404 184C381.909 184 364 166.091 364 144C364 166.091 345.868 184 323.5 184C303.299 184 286.555 169.393 283.5 150.29C280.445 169.393 263.701 184 243.5 184C221.132 184 203 166.091 203 144C203 166.091 184.868 184 162.5 184C140.132 184 122 166.091 122 144C122 166.091 103.868 184 81.5 184C59.1324 184 41 166.091 41 144C41 166.091 22.8676 184 0.5 184C-21.8676 184 -40 166.091 -40 144C-40 166.091 -58.1324 184 -80.5 184C-102.868 184 -121 166.091 -121 144C-121 166.091 -139.132 184 -161.5 184C-183.868 184 -202 166.091 -202 144C-202 166.091 -220.132 184 -242.5 184Z"/>
</mask>
<path d="M-242.5 184C-264.868 184 -283 166.091 -283 144L-283 -8.46252e-05L685 0L685 144C685 166.091 666.868 184 644.5 184C622.132 184 604 166.091 604 144C604 166.091 586.091 184 564 184C541.909 184 524 166.091 524 144C524 166.091 506.091 184 484 184C461.909 184 444 166.091 444 144C444 166.091 426.091 184 404 184C381.909 184 364 166.091 364 144C364 166.091 345.868 184 323.5 184C303.299 184 286.555 169.393 283.5 150.29C280.445 169.393 263.701 184 243.5 184C221.132 184 203 166.091 203 144C203 166.091 184.868 184 162.5 184C140.132 184 122 166.091 122 144C122 166.091 103.868 184 81.5 184C59.1324 184 41 166.091 41 144C41 166.091 22.8676 184 0.5 184C-21.8676 184 -40 166.091 -40 144C-40 166.091 -58.1324 184 -80.5 184C-102.868 184 -121 166.091 -121 144C-121 166.091 -139.132 184 -161.5 184C-183.868 184 -202 166.091 -202 144C-202 166.091 -220.132 184 -242.5 184Z" fill="url(#paint2_linear_4_3103)"/>
<path d="M-283 144L-291 144L-283 144ZM-283 -8.46252e-05L-283 -8.00008L-291 -8.00009L-291 -8.53246e-05L-283 -8.46252e-05ZM685 0L693 6.99382e-07L693 -8L685 -8L685 0ZM685 144L677 144L685 144ZM283.5 150.29L291.4 149.027L275.6 149.027L283.5 150.29ZM-242.5 184L-242.5 176C-260.543 176 -275 161.58 -275 144L-283 144L-291 144C-291 170.603 -269.192 192 -242.5 192L-242.5 184ZM-283 144L-275 144L-275 -8.39259e-05L-283 -8.46252e-05L-291 -8.53246e-05L-291 144L-283 144ZM-283 -8.46252e-05L-283 7.99992L685 8L685 0L685 -8L-283 -8.00008L-283 -8.46252e-05ZM685 0L677 -6.99382e-07L677 144L685 144L693 144L693 6.99382e-07L685 0ZM685 144L677 144C677 161.58 662.543 176 644.5 176L644.5 184L644.5 192C671.192 192 693 170.603 693 144L685 144ZM644.5 184L644.5 176C626.457 176 612 161.58 612 144L604 144L596 144C596 170.603 617.808 192 644.5 192L644.5 184ZM604 144L596 144C596 161.673 581.673 176 564 176L564 184L564 192C590.51 192 612 170.51 612 144L604 144ZM564 184L564 176C546.327 176 532 161.673 532 144L524 144L516 144C516 170.51 537.49 192 564 192L564 184ZM524 144L516 144C516 161.673 501.673 176 484 176L484 184L484 192C510.51 192 532 170.51 532 144L524 144ZM484 184L484 176C466.327 176 452 161.673 452 144L444 144L436 144C436 170.51 457.49 192 484 192L484 184ZM444 144L436 144C436 161.673 421.673 176 404 176L404 184L404 192C430.51 192 452 170.51 452 144L444 144ZM404 184L404 176C386.327 176 372 161.673 372 144L364 144L356 144C356 170.51 377.49 192 404 192L404 184ZM364 144L356 144C356 161.58 341.543 176 323.5 176L323.5 184L323.5 192C350.192 192 372 170.603 372 144L364 144ZM323.5 184L323.5 176C307.22 176 293.832 164.238 291.4 149.027L283.5 150.29L275.6 151.553C279.278 174.548 299.379 192 323.5 192L323.5 184ZM283.5 150.29L275.6 149.027C273.168 164.238 259.78 176 243.5 176L243.5 184L243.5 192C267.621 192 287.722 174.548 291.4 151.553L283.5 150.29ZM243.5 184L243.5 176C225.457 176 211 161.58 211 144L203 144L195 144C195 170.603 216.808 192 243.5 192L243.5 184ZM203 144L195 144C195 161.58 180.543 176 162.5 176L162.5 184L162.5 192C189.192 192 211 170.603 211 144L203 144ZM162.5 184L162.5 176C144.457 176 130 161.58 130 144L122 144L114 144C114 170.603 135.808 192 162.5 192L162.5 184ZM122 144L114 144C114 161.58 99.5432 176 81.5 176L81.5 184L81.5 192C108.192 192 130 170.603 130 144L122 144ZM81.5 184L81.5 176C63.4568 176 49 161.58 49 144L41 144L33 144C33 170.603 54.8082 192 81.5 192L81.5 184ZM41 144L33 144C33 161.58 18.5432 176 0.500001 176L0.5 184L0.499999 192C27.1918 192 49 170.603 49 144L41 144ZM0.5 184L0.500001 176C-17.5432 176 -32 161.58 -32 144L-40 144L-48 144C-48 170.603 -26.1918 192 0.499999 192L0.5 184ZM-40 144L-48 144C-48 161.58 -62.4568 176 -80.5 176L-80.5 184L-80.5 192C-53.8082 192 -32 170.603 -32 144L-40 144ZM-80.5 184L-80.5 176C-98.5432 176 -113 161.58 -113 144L-121 144L-129 144C-129 170.603 -107.192 192 -80.5 192L-80.5 184ZM-121 144L-129 144C-129 161.58 -143.457 176 -161.5 176L-161.5 184L-161.5 192C-134.808 192 -113 170.603 -113 144L-121 144ZM-161.5 184L-161.5 176C-179.543 176 -194 161.58 -194 144L-202 144L-210 144C-210 170.603 -188.192 192 -161.5 192L-161.5 184ZM-202 144L-210 144C-210 161.58 -224.457 176 -242.5 176L-242.5 184L-242.5 192C-215.808 192 -194 170.603 -194 144L-202 144Z" fill="#C4DD83" mask="url(#path-5-outside-2_4_3103)"/>
</g>
<defs>
<radialGradient id="paint0_radial_4_3103" cx="0" cy="0" r="1" gradientUnits="userSpaceOnUse" gradientTransform="translate(201 331.5) rotate(0.375462) scale(381.508 1029.69)">
<stop stop-color="#FFFCF1"/>
<stop offset="1" stop-color="#FFF5CB"/>
</radialGradient>
<linearGradient id="paint1_linear_4_3103" x1="201" y1="874" x2="201" y2="690" gradientUnits="userSpaceOnUse">
<stop stop-color="#E3EEC6"/>
<stop offset="1" stop-color="#DBF0A5"/>
</linearGradient>
<linearGradient id="paint2_linear_4_3103" x1="201" y1="-4.23126e-05" x2="201" y2="184" gradientUnits="userSpaceOnUse">
<stop stop-color="#E3EEC6"/>
<stop offset="1" stop-color="#DBF0A5"/>
</linearGradient>
<clipPath id="clip0_4_3103">
<rect width="402" height="874" fill="white"/>
</clipPath>
</defs>
</svg>
